<?xml version="1.0" standalone="no"?>
<!DOCTYPE svg PUBLIC "-//W3C//DTD SVG 1.1//EN" "http://www.w3.org/Graphics/SVG/1.1/DTD/svg11.dtd" >
<svg xmlns="http://www.w3.org/2000/svg">
<defs>
  <font id="iconfont" horiz-adv-x="24">
    <font-face font-family="iconfont"
      units-per-em="24" ascent="24"
      descent="0" />
    <missing-glyph horiz-adv-x="0" />
    <glyph glyph-name="Cart-f-16"
      unicode="&#xE000;"
      horiz-adv-x="16" d="M1.354 15.354L1 15.707L0.293 15L0.646 14.646L2 13.293V8.58L1.026 5.657L0.806 4.999H16V5.999H2.194L2.86 7.999H12.833L15 14H2.707L1.354 15.354zM5 2A2 2 0 1 0 1 2A2 2 0 0 0 5 2zM15 2A2 2 0 1 0 11 2A2 2 0 0 0 15 2z" />
    <glyph glyph-name="address-book-16"
      unicode="&#xE001;"
      horiz-adv-x="16" d="M15.5 13.5V11.5M15.5 9.5V7.5M1.5 14.5H12.5A1 1 0 0 0 13.5 13.5V2.5A1 1 0 0 0 12.5 1.5H1.5V14.5zM4.5 11.5H10.5V8.5H4.5V11.5z" />
    <glyph glyph-name="address-book-24"
      unicode="&#xE002;"
      horiz-adv-x="24" d="M2.5 21.5V22H2V21.5H2.5zM2.5 2.5H2V2H2.5V2.5zM9.5 18.5V19H9V18.5H9.5zM16.5 18.5H17V19H16.5V18.5zM16.5 13.5V13H17V13.5H16.5zM9.5 13.5H9V13H9.5V13.5zM23 18.5V19H22V18.5H23zM22 14.5V14H23V14.5H22zM9.5 11H9V10H9.5V11zM16.5 10H17V11H16.5V10zM2.5 21H18.5V22H2.5V21zM18.5 21A1.5 1.5 0 0 0 20 19.5H21A2.5 2.5 0 0 1 18.5 22V21zM20 19.5V4.5H21V19.5H20zM20 4.5A1.5 1.5 0 0 0 18.5 3V2A2.5 2.5 0 0 1 21 4.5H20zM18.5 3H2.5V2H18.5V3zM3 2.5V21.5H2V2.5H3zM9.5 18H16.5V19H9.5V18zM16 18.5V13.5H17V18.5H16zM16.5 14H9.5V13H16.5V14zM10 13.5V18.5H9V13.5H10zM22 18.5V14.5H23V18.5H22zM5 21.5V2.5H6V21.5H5zM9.5 10H16.5V11H9.5V10z" />
    <glyph glyph-name="advanced-16"
      unicode="&#xE003;"
      horiz-adv-x="16" d="M3.583 12.565A7.477 7.477 0 0 0 8 14C9.598 14 11.15 13.495 12.418 12.565A6.988 6.988 0 0 0 15.02 8.862A0.5 0.5 0 1 1 15.981 9.138A7.987 7.987 0 0 1 13.01 13.372A8.477 8.477 0 0 1 8 15A8.477 8.477 0 0 1 2.991 13.372A7.988 7.988 0 0 1 0.02 9.138A0.5 0.5 0 0 1 0.981 8.862A6.988 6.988 0 0 0 3.583 12.565zM12.147 10.995L12.408 10.568L12.148 10.994H12.146L12.143 10.992L12.131 10.984L12.084 10.955A65.604 65.604 0 0 1 11.261 10.442C10.725 10.104 10.001 9.641 9.247 9.139A46.73 46.73 0 0 1 7.054 7.597C6.418 7.116 5.845 6.636 5.574 6.265L5.54 6.218C4.987 5.463 4.57 4.894 4.712 3.981C4.79 3.476 5.109 3.061 5.401 2.766C5.697 2.465 6.028 2.224 6.229 2.078L6.236 2.073L6.244 2.068C6.444 1.922 6.774 1.682 7.152 1.493C7.523 1.308 8.015 1.133 8.519 1.213C9.418 1.352 9.827 1.913 10.354 2.637L10.426 2.735V2.737C10.697 3.109 10.978 3.803 11.239 4.557C11.509 5.333 11.783 6.248 12.027 7.119A95.37 95.37 0 0 1 12.827 10.175L12.877 10.379L12.89 10.433L12.893 10.447L12.894 10.45V10.451L12.408 10.568L12.895 10.452A0.5 0.5 0 0 1 12.147 10.994zM9.802 8.306C10.47 8.751 11.116 9.166 11.625 9.489C11.476 8.904 11.281 8.161 11.065 7.389C10.822 6.526 10.555 5.633 10.295 4.883C10.026 4.11 9.788 3.558 9.618 3.323C9.001 2.48 8.828 2.271 8.365 2.199C8.169 2.169 7.906 2.233 7.598 2.387A5.59 5.59 0 0 0 6.824 2.881A5.625 5.625 0 0 0 6.114 3.466C5.871 3.713 5.73 3.941 5.7 4.133C5.628 4.595 5.77 4.838 6.38 5.673C6.552 5.908 7.005 6.305 7.657 6.799C8.29 7.279 9.057 7.809 9.802 8.306z" />
    <glyph glyph-name="advanced-24"
      unicode="&#xE004;"
      horiz-adv-x="24" d="M1.953 14.29C3.832 18.29 7.638 21 12 21C16.362 21 20.169 18.29 22.047 14.288A0.5 0.5 0 1 1 22.953 14.712C20.93 19.02 16.798 22 12 22C7.202 22 3.07 19.02 1.047 14.714A0.5 0.5 0 1 1 1.953 14.289zM18.127 15.394L18.466 14.899L18.126 15.394L18.121 15.391L18.105 15.379L18.043 15.337A105.098 105.098 0 0 1 16.952 14.577C16.24 14.077 15.277 13.391 14.275 12.652A72.969 72.969 0 0 1 11.352 10.398C10.496 9.694 9.744 9.016 9.382 8.522L9.339 8.462C8.564 7.402 8.019 6.657 8.109 5.503C8.159 4.848 8.526 4.318 8.878 3.941C9.23 3.563 9.633 3.27 9.874 3.095L9.884 3.088L9.894 3.08C10.135 2.905 10.537 2.613 11.004 2.395C11.473 2.177 12.088 1.995 12.727 2.145C13.834 2.405 14.368 3.139 15.107 4.153L15.206 4.288C15.566 4.785 15.98 5.71 16.386 6.741A72.313 72.313 0 0 1 17.626 10.218A147.347 147.347 0 0 1 18.93 14.356L19.013 14.632L19.034 14.705L19.04 14.724L19.041 14.729V14.73L18.466 14.9L19.042 14.73A0.6 0.6 0 0 1 18.127 15.394zM14.987 11.687C15.867 12.335 16.717 12.942 17.39 13.418C17.146 12.63 16.832 11.634 16.487 10.597A71.073 71.073 0 0 0 15.268 7.18C14.856 6.13 14.493 5.348 14.236 4.995C13.376 3.817 13.096 3.465 12.452 3.313C12.192 3.252 11.874 3.314 11.512 3.483C11.156 3.649 10.835 3.88 10.59 4.058C10.344 4.237 10.024 4.471 9.755 4.759C9.482 5.053 9.325 5.335 9.305 5.596C9.254 6.256 9.498 6.646 10.352 7.814C10.61 8.167 11.242 8.754 12.115 9.472C12.967 10.172 13.994 10.954 14.987 11.687z" />
    <glyph glyph-name="airplane-16"
      unicode="&#xE005;"
      horiz-adv-x="16" d="M5.47 3.445L5.583 1.407A0.784 0.784 0 0 0 5.523 1.053A0.532 0.532 0 0 0 5.324 0.81A0.343 0.343 0 0 0 5.058 0.764A0.426 0.426 0 0 0 4.821 0.932L3.653 2.611M5.471 3.445L7.054 4.172L14.658 11.778A2.037 2.037 0 0 1 11.778 14.658L4.173 7.054L3.447 5.471M5.471 3.445L3.653 2.611M3.653 2.611L2.32 1.999A0.241 0.241 0 0 0 2 2.32L2.612 3.652M3.447 5.472L1.407 5.583A0.785 0.785 0 0 1 1.054 5.523A0.532 0.532 0 0 1 0.81 5.324A0.343 0.343 0 0 1 0.764 5.058C0.786 4.968 0.844 4.885 0.932 4.82L2.612 3.652M3.447 5.472L2.612 3.652M6.415 9.637L1.007 13.242L1.761 13.996A1.932 1.932 0 0 0 3.975 14.366L8.817 12M12 8.818L14.366 3.974A1.933 1.933 0 0 0 13.996 1.76L13.243 1.006L9.657 6.386" />
    <glyph glyph-name="airplane-24"
      unicode="&#xE006;"
      horiz-adv-x="24" d="M14.349 17.591L5.8 21.418A2 2 0 0 1 3.526 20.963L2.15 19.5L10.564 13.807M18.591 13.349L22.418 4.799A2 2 0 0 0 21.963 2.525L20.5 1.15L14.807 9.564M6.084 8.224L2.5 8.5L4.866 6.123M6.084 8.225L7.6 10.843L18.379 21.621A3 3 0 1 0 22.622 17.378L11.843 6.6L9.225 5.083M6.084 8.225L4.866 6.123M4.866 6.123L3.65 4.02A1 1 0 0 1 5.022 2.648L7.13 3.87M9.225 5.083L9.5 1.5L7.13 3.87M9.225 5.083L7.13 3.87" />
    <glyph glyph-name="antenna-16"
      unicode="&#xE007;"
      horiz-adv-x="16" d="M7.5 0.5V0H8.5V0.5H7.5zM4.5 1H4V0H4.5V1zM11.5 0H12V1H11.5V0zM14.5 10.5H15H14.5zM4.5 10.5H4H4.5zM8.5 10.5A0.5 0.5 0 0 0 8 10V9A1.5 1.5 0 0 1 9.5 10.5H8.5zM8 10A0.5 0.5 0 0 0 7.5 10.5H6.5A1.5 1.5 0 0 1 8 9V10zM7.5 10.5A0.5 0.5 0 0 0 8 11V12A1.5 1.5 0 0 1 6.5 10.5H7.5zM8 11A0.5 0.5 0 0 0 8.5 10.5H9.5A1.5 1.5 0 0 1 8 12V11zM8.5 0.5V9.5H7.5V0.5H8.5zM4.5 0H11.5V1H4.5V0zM10.682 7.319A4.5 4.5 0 0 1 11.999 10.5H10.999A3.5 3.5 0 0 0 9.974 8.026L10.682 7.319zM11.999 10.5A4.5 4.5 0 0 1 10.682 13.682L9.974 12.975A3.5 3.5 0 0 0 11 10.5H12zM12.804 5.196A7.502 7.502 0 0 1 14.43 7.63L13.506 8.012A6.499 6.499 0 0 0 12.096 5.904L12.804 5.196zM14.43 7.63A7.5 7.5 0 0 1 15 10.5H14A6.5 6.5 0 0 0 13.506 8.012L14.43 7.63zM15 10.5A7.5 7.5 0 0 1 14.43 13.37L13.506 12.988A6.5 6.5 0 0 0 14 10.5H15zM14.43 13.37A7.501 7.501 0 0 1 12.804 15.804L12.097 15.096A6.5 6.5 0 0 0 13.506 12.988L14.43 13.37zM6.026 8.026A3.5 3.5 0 0 0 5 10.5H4A4.5 4.5 0 0 1 5.317 7.319L6.025 8.026zM5 10.5A3.5 3.5 0 0 0 6.025 12.975L5.317 13.682A4.5 4.5 0 0 1 4.001 10.5H5.001zM3.903 5.904A6.5 6.5 0 0 0 2.493 8.012L1.569 7.63A7.5 7.5 0 0 1 3.195 5.196L3.903 5.904zM2.493 8.012A6.5 6.5 0 0 0 2 10.5H1A7.5 7.5 0 0 1 1.57 7.63L2.494 8.012zM2 10.5A6.5 6.5 0 0 0 2.494 12.988L1.57 13.37A7.5 7.5 0 0 1 1 10.5H2zM2.494 12.988A6.5 6.5 0 0 0 3.904 15.096L3.196 15.804A7.5 7.5 0 0 1 1.57 13.37L2.494 12.988z" />
    <glyph glyph-name="antenna-24"
      unicode="&#xE008;"
      horiz-adv-x="24" d="M12 12A2.5 2.5 0 1 1 12 17A2.5 2.5 0 0 1 12 12zM12 12V1.5M18.571 7.429A10 10 0 0 1 18.571 21.571M15.743 10.257A6 6 0 0 1 15.743 18.743M5.429 7.429A10 10 0 0 0 5.429 21.571M8.257 10.257A6 6 0 0 0 8.257 18.743M7.5 1.5H16.5" />
    <glyph glyph-name="apartment-building-16"
      unicode="&#xE009;"
      horiz-adv-x="16" d="M4.5 11.5V10.5M8 11.5V10.5M11.5 11.5V10.5M4.5 7.5V6.5M8 7.5V6.5M11.5 7.5V6.5M8 15L1.5 14V1.5H6.5V4.5H9.5V1.5H14.5V14L8 15z" />
    <glyph glyph-name="apartment-building-24"
      unicode="&#xE00A;"
      horiz-adv-x="24" d="M3 20L2.842 20.474L2.5 20.36V20H3zM12 23L12.158 23.474L12 23.527L11.842 23.474L12 23zM21 20H21.5V20.36L21.158 20.474L21 20zM21 1V0.5H21.5V1H21zM3 1H2.5V0.5H3V1zM8 17.5V18H7V17.5H8zM7 16.5V16H8V16.5H7zM12.5 17.5V18H11.5V17.5H12.5zM11.5 16.5V16H12.5V16.5H11.5zM17 17.5V18H16V17.5H17zM16 16.5V16H17V16.5H16zM8 13.5V14H7V13.5H8zM7 12.5V12H8V12.5H7zM12.5 13.5V14H11.5V13.5H12.5zM11.5 12.5V12H12.5V12.5H11.5zM17 13.5V14H16V13.5H17zM16 12.5V12H17V12.5H16zM8 9.5V10H7V9.5H8zM7 8.5V8H8V8.5H7zM12.5 9.5V10H11.5V9.5H12.5zM11.5 8.5V8H12.5V8.5H11.5zM17 9.5V10H16V9.5H17zM16 8.5V8H17V8.5H16zM13.5 5.5H14V6H13.5V5.5zM10.5 5.5V6H10V5.5H10.5zM3.158 19.526L12.158 22.526L11.842 23.474L2.842 20.474L3.158 19.526zM11.842 22.526L20.842 19.526L21.158 20.474L12.158 23.474L11.842 22.526zM20.5 20V1H21.5V20H20.5zM21 1.5H3V0.5H21V1.5zM3.5 1V20H2.5V1H3.5zM7 17.5V16.5H8V17.5H7zM11.5 17.5V16.5H12.5V17.5H11.5zM16 17.5V16.5H17V17.5H16zM7 13.5V12.5H8V13.5H7zM11.5 13.5V12.5H12.5V13.5H11.5zM16 13.5V12.5H17V13.5H16zM7 9.5V8.5H8V9.5H7zM11.5 9.5V8.5H12.5V9.5H11.5zM16 9.5V8.5H17V9.5H16zM14 1.5V5.5H13V1.5H14zM13.5 6H10.5V5H13.5V6zM10 5.5V1.5H11V5.5H10z" />
    <glyph glyph-name="applications-16"
      unicode="&#xE00B;"
      horiz-adv-x="16" d="M5.5 14.5H2.5A1 1 0 0 1 1.5 13.5V10.5A1 1 0 0 1 2.5 9.5H5.5A1 1 0 0 1 6.5 10.5V13.5A1 1 0 0 1 5.5 14.5zM11.293 14.828L9.17 12.707A1 1 0 0 1 9.17 11.293L11.292 9.171A1 1 0 0 1 12.706 9.171L14.827 11.293A1 1 0 0 1 14.827 12.707L12.706 14.828A1 1 0 0 1 11.292 14.828zM5.5 6.5H2.5A1 1 0 0 1 1.5 5.5V2.5A1 1 0 0 1 2.5 1.5H5.5A1 1 0 0 1 6.5 2.5V5.5A1 1 0 0 1 5.5 6.5zM13.5 6.5H10.5A1 1 0 0 1 9.5 5.5V2.5A1 1 0 0 1 10.5 1.5H13.5A1 1 0 0 1 14.5 2.5V5.5A1 1 0 0 1 13.5 6.5z" />
    <glyph glyph-name="applications-24"
      unicode="&#xE00C;"
      horiz-adv-x="24" d="M9.5 21.5H3.5A1 1 0 0 1 2.5 20.5V14.5A1 1 0 0 1 3.5 13.5H9.5A1 1 0 0 1 10.5 14.5V20.5A1 1 0 0 1 9.5 21.5zM16.793 21.793L13.207 18.207A1 1 0 0 1 13.207 16.793L16.793 13.207A1 1 0 0 1 18.207 13.207L21.793 16.793A1 1 0 0 1 21.793 18.207L18.207 21.793A1 1 0 0 1 16.793 21.793zM20.5 10.5H14.5A1 1 0 0 1 13.5 9.5V3.5A1 1 0 0 1 14.5 2.5H20.5A1 1 0 0 1 21.5 3.5V9.5A1 1 0 0 1 20.5 10.5zM9.5 10.5H3.5A1 1 0 0 1 2.5 9.5V3.5A1 1 0 0 1 3.5 2.5H9.5A1 1 0 0 1 10.5 3.5V9.5A1 1 0 0 1 9.5 10.5z" />
    <glyph glyph-name="archive-16"
      unicode="&#xE00D;"
      horiz-adv-x="16" d="M15.5 12.5L12.286 15.5H3.714L0.5 12.5M15.5 12.5V1.5A1 1 0 0 0 14.5 0.5H1.5A1 1 0 0 0 0.5 1.5V12.5M15.5 12.5H0.5M4.5 6.5L8 2.5L11.5 6.5H9.5V10.5H6.5V6.5H4.5z" />
    <glyph glyph-name="archive-24"
      unicode="&#xE00E;"
      horiz-adv-x="24" d="M6.5 21.5H18.5L22.5 17.5V3.5A2 2 0 0 0 20.5 1.5H4.5A2 2 0 0 0 2.5 3.5V17.5L6.5 21.5zM12.5 5.5V14.5M8.5 9.5L12.5 5.5L16.5 9.5M2.5 17.5H22.5" />
    <glyph glyph-name="arrow-down-12"
      unicode="&#xE00F;"
      horiz-adv-x="12" d="M6 0.5V11.5M6 0.5L10 4.5M6 0.5L2 4.5" />
    <glyph glyph-name="arrow-down-16"
      unicode="&#xE010;"
      horiz-adv-x="16" d="M8 14.5V1.5M8 1.5L13 6.5M8 1.5L3 6.5" />
    <glyph glyph-name="arrow-down-24"
      unicode="&#xE011;"
      horiz-adv-x="24" d="M12 21.5V2.5M12 2.5L19 9.5M12 2.5L5 9.5" />
    <glyph glyph-name="arrow-left-12"
      unicode="&#xE012;"
      horiz-adv-x="12" d="M0.5 6H11.5M0.5 6L4.5 2M0.5 6L4.5 10" />
    <glyph glyph-name="arrow-left-16"
      unicode="&#xE013;"
      horiz-adv-x="16" d="M14.5 8H1.5M1.5 8L6.5 3M1.5 8L6.5 13" />
    <glyph glyph-name="arrow-left-24"
      unicode="&#xE014;"
      horiz-adv-x="24" d="M21.5 12H2.5M2.5 12L9.5 5M2.5 12L9.5 19" />
    <glyph glyph-name="arrow-right-12"
      unicode="&#xE015;"
      horiz-adv-x="12" d="M11.5 6H0.5M11.5 6L7.5 10M11.5 6L7.5 2" />
    <glyph glyph-name="arrow-right-16"
      unicode="&#xE016;"
      horiz-adv-x="16" d="M1.5 8H14.5M14.5 8L9.5 13M14.5 8L9.5 3" />
    <glyph glyph-name="arrow-right-24"
      unicode="&#xE017;"
      horiz-adv-x="24" d="M2.5 12H21.5M21.5 12L14.5 19M21.5 12L14.5 5" />
    <glyph glyph-name="arrow-triangle-diagonal-12"
      unicode="&#xE018;"
      horiz-adv-x="12" d="M1.688 1.967A0.25 0.25 0 0 1 1.965 1.69L6.381 2.217A0.25 0.25 0 0 1 6.529 2.642L2.639 6.53A0.25 0.25 0 0 1 2.215 6.382L1.688 1.966zM10.313 10.037A0.25 0.25 0 0 1 10.035 10.314L5.619 9.787A0.25 0.25 0 0 1 5.471 9.362L9.361 5.473C9.507 5.326 9.761 5.413 9.785 5.621L10.312 10.037z" />
    <glyph glyph-name="arrow-triangle-diagonal-16"
      unicode="&#xE019;"
      horiz-adv-x="16" d="M3.854 8.854A0.5 0.5 0 0 1 3.007 8.582L2.007 2.582A0.5 0.5 0 0 1 2.582 2.007L8.582 3.007A0.5 0.5 0 0 1 8.854 3.854L3.854 8.854zM13.854 13.854A0.51 0.51 0 0 1 13.418 13.993L7.418 12.993A0.5 0.5 0 0 1 7.146 12.146L12.146 7.146A0.5 0.5 0 0 1 12.993 7.418L13.993 13.418A0.5 0.5 0 0 1 13.854 13.854z" />
    <glyph glyph-name="arrow-triangle-diagonal-24"
      unicode="&#xE01A;"
      horiz-adv-x="24" d="M2.023 3.222C1.866 2.548 2.548 1.866 3.222 2.022L12.432 4.162A1.006 1.006 0 0 1 12.918 5.846L5.847 12.918A1.006 1.006 0 0 1 4.161 12.433L2.023 3.222zM21.977 20.778C22.133 21.452 21.451 22.134 20.777 21.978L11.567 19.838C11.213 19.756 10.93 19.488 10.829 19.137C10.729 18.787 10.824 18.411 11.082 18.153L18.152 11.083A1.006 1.006 0 0 1 19.838 11.568L21.977 20.778z" />
    <glyph glyph-name="arrow-triangle-down-12"
      unicode="&#xE01B;"
      horiz-adv-x="12" d="M5.804 4.1A0.25 0.25 0 0 1 6.196 4.1L8.946 7.595A0.25 0.25 0 0 1 8.75 8H3.25A0.25 0.25 0 0 1 3.054 7.595L5.804 4.1z" />
    <glyph glyph-name="arrow-triangle-down-16"
      unicode="&#xE01C;"
      horiz-adv-x="16" d="M11.943 10.731A0.5 0.5 0 0 1 11.5 11H4.5A0.5 0.5 0 0 1 4.091 10.213L7.591 5.213A0.5 0.5 0 0 1 8.409 5.213L11.909 10.213A0.5 0.5 0 0 1 11.943 10.731z" />
    <glyph glyph-name="arrow-triangle-down-24"
      unicode="&#xE01D;"
      horiz-adv-x="24" d="M17 17H7A1.002 1.002 0 0 1 6.152 15.47L11.152 7.47A1 1 0 0 1 12.848 7.47L17.848 15.47A1 1 0 0 1 17 17z" />
    <glyph glyph-name="arrow-triangle-horizontal-12"
      unicode="&#xE01E;"
      horiz-adv-x="12" d="M0.097 6.198A0.25 0.25 0 0 1 0.097 5.806L3.593 3.056A0.25 0.25 0 0 1 3.998 3.252V8.752A0.25 0.25 0 0 1 3.593 8.948L0.097 6.198zM11.903 5.806A0.25 0.25 0 0 1 11.903 6.198L8.407 8.948A0.25 0.25 0 0 1 8.002 8.752V3.252C8.002 3.044 8.242 2.927 8.407 3.056L11.903 5.806z" />
    <glyph glyph-name="arrow-triangle-horizontal-16"
      unicode="&#xE01F;"
      horiz-adv-x="16" d="M10.787 11.91A0.5 0.5 0 0 1 10 11.5V4.5A0.5 0.5 0 0 1 10.787 4.09L15.787 7.59A0.5 0.5 0 0 1 15.787 8.41L10.787 11.91zM5.214 4.09A0.5 0.5 0 0 1 6 4.5V11.5A0.5 0.5 0 0 1 5.213 11.91L0.213 8.41A0.5 0.5 0 0 1 0.213 7.59L5.213 4.09z" />
    <glyph glyph-name="arrow-triangle-horizontal-24"
      unicode="&#xE020;"
      horiz-adv-x="24" d="M23.56 11.152C24.147 11.519 24.147 12.482 23.56 12.849L15.535 17.849A1.006 1.006 0 0 1 14 17V7A1.006 1.006 0 0 1 15.535 6.151L23.56 11.153zM0.44 12.848C-0.146 12.481 -0.146 11.518 0.44 11.151L8.465 6.151A1.006 1.006 0 0 1 10 7V17A1.006 1.006 0 0 1 8.465 17.849L0.44 12.847z" />
    <glyph glyph-name="arrow-triangle-left-12"
      unicode="&#xE021;"
      horiz-adv-x="12" d="M4.095 6.196A0.25 0.25 0 0 1 4.095 5.804L7.591 3.054A0.25 0.25 0 0 1 7.996 3.25V8.75A0.25 0.25 0 0 1 7.591 8.946L4.095 6.196z" />
    <glyph glyph-name="arrow-triangle-left-16"
      unicode="&#xE022;"
      horiz-adv-x="16" d="M10.73 11.943A0.5 0.5 0 0 1 10.213 11.91L5.213 8.41A0.5 0.5 0 0 1 5.213 7.59L10.213 4.09A0.5 0.5 0 0 1 11 4.5V11.5A0.5 0.5 0 0 1 10.73 11.943z" />
    <glyph glyph-name="arrow-triangle-left-24"
      unicode="&#xE023;"
      horiz-adv-x="24" d="M16.485 17.875A0.998 0.998 0 0 1 15.47 17.849L7.47 12.849A1 1 0 0 1 7.47 11.152L15.47 6.152A1.002 1.002 0 0 1 17 7V17A1 1 0 0 1 16.485 17.875z" />
    <glyph glyph-name="arrow-triangle-right-12"
      unicode="&#xE024;"
      horiz-adv-x="12" d="M7.9 5.804A0.25 0.25 0 0 1 7.9 6.196L4.405 8.946A0.25 0.25 0 0 1 4 8.75V3.25C4 3.042 4.24 2.925 4.405 3.054L7.9 5.804z" />
    <glyph glyph-name="arrow-triangle-right-16"
      unicode="&#xE025;"
      horiz-adv-x="16" d="M5.787 11.91A0.5 0.5 0 0 1 5 11.5V4.5A0.5 0.5 0 0 1 5.787 4.09L10.787 7.59A0.5 0.5 0 0 1 10.787 8.41L5.787 11.91z" />
    <glyph glyph-name="arrow-triangle-right-24"
      unicode="&#xE026;"
      horiz-adv-x="24" d="M16.53 12.848L8.53 17.848A0.998 0.998 0 0 1 7 17V7A1 1 0 0 1 8.53 6.152L16.53 11.152A1 1 0 0 1 16.53 12.848z" />
    <glyph glyph-name="arrow-triangle-up-12"
      unicode="&#xE027;"
      horiz-adv-x="12" d="M6.196 7.905A0.25 0.25 0 0 1 5.804 7.905L3.054 4.409A0.25 0.25 0 0 1 3.25 4.004H8.75A0.25 0.25 0 0 1 8.946 4.409L6.196 7.905z" />
    <glyph glyph-name="arrow-triangle-up-16"
      unicode="&#xE028;"
      horiz-adv-x="16" d="M11.91 5.789L8.41 10.799A0.52 0.52 0 0 1 7.59 10.799L4.09 5.789A0.502 0.502 0 0 1 4.5 5H11.5A0.5 0.5 0 0 1 11.91 5.789z" />
    <glyph glyph-name="arrow-triangle-up-24"
      unicode="&#xE029;"
      horiz-adv-x="24" d="M12.848 16.56C12.482 17.147 11.518 17.147 11.152 16.56L6.152 8.535A1.006 1.006 0 0 1 7 7H17A1.006 1.006 0 0 1 17.849 8.535L12.848 16.56z" />
    <glyph glyph-name="arrow-triangle-vertikal-12"
      unicode="&#xE02A;"
      horiz-adv-x="12" d="M5.804 0.1A0.25 0.25 0 0 1 6.196 0.1L8.946 3.595A0.25 0.25 0 0 1 8.75 4H3.25A0.25 0.25 0 0 1 3.054 3.595L5.804 0.099zM6.196 11.905A0.25 0.25 0 0 1 5.804 11.905L3.054 8.409A0.25 0.25 0 0 1 3.25 8.004H8.75A0.25 0.25 0 0 1 8.946 8.409L6.196 11.905z" />
    <glyph glyph-name="arrow-triangle-vertikal-16"
      unicode="&#xE02B;"
      horiz-adv-x="16" d="M4.09 5.211L7.59 0.201A0.52 0.52 0 0 1 8.41 0.201L11.91 5.211A0.502 0.502 0 0 1 11.5 6H4.5A0.5 0.5 0 0 1 4.09 5.211zM11.91 10.789L8.41 15.799A0.52 0.52 0 0 1 7.59 15.799L4.09 10.789A0.502 0.502 0 0 1 4.5 10H11.5A0.5 0.5 0 0 1 11.91 10.789z" />
    <glyph glyph-name="arrow-triangle-vertikal-24"
      unicode="&#xE02C;"
      horiz-adv-x="24" d="M11.153 0.44C11.519 -0.147 12.483 -0.147 12.849 0.44L17.849 8.465A1.006 1.006 0 0 1 17 10H7A1.006 1.006 0 0 1 6.151 8.465L11.151 0.44zM12.848 23.56C12.482 24.147 11.518 24.147 11.152 23.56L6.152 15.535A1.006 1.006 0 0 1 7 14H17A1.006 1.006 0 0 1 17.849 15.535L12.848 23.56z" />
    <glyph glyph-name="arrow-up-12"
      unicode="&#xE02D;"
      horiz-adv-x="12" d="M6 11.5V0.5M6 11.5L2 7.5M6 11.5L10 7.5" />
    <glyph glyph-name="arrow-up-16"
      unicode="&#xE02E;"
      horiz-adv-x="16" d="M8 1.5V14.5M8 14.5L3 9.5M8 14.5L13 9.5" />
    <glyph glyph-name="arrow-up-24"
      unicode="&#xE02F;"
      horiz-adv-x="24" d="M11.5 2.5V2H12.5V2.5H11.5zM12.5 2.5V21.5H11.5V2.5H12.5zM5 14.5L12 21.5L19 14.5" />
    <glyph glyph-name="article-16"
      unicode="&#xE030;"
      horiz-adv-x="16" d="M4.5 7.5H0.5V2.5A2 2 0 1 1 4.5 2.5V7.5zM4.5 7.5V15.5H15.5V2.5A2 2 0 0 0 13.5 0.5H3M7.5 12.5H12.5M7.5 9.5H12.5M7.5 6.5H12.5M7.5 3.5H9.5" />
    <glyph glyph-name="article-24"
      unicode="&#xE031;"
      horiz-adv-x="24" d="M9.5 10.5H18.5M9.5 6.5H18.5M3.5 1.5A2.006 2.006 0 0 0 1.5 3.5V11.5H2.5M3.5 1.5A2.006 2.006 0 0 1 5.5 3.5V22.5H22.5V3.5A2.006 2.006 0 0 0 20.5 1.5H3.5zM9.5 18.5H18.5V14.5H9.5V18.5z" />
    <glyph glyph-name="assembled-product-16"
      unicode="&#xE032;"
      horiz-adv-x="16" d="M15.5 6A0.5 0.5 0 0 1 15.5 7V6zM14.5 7A0.5 0.5 0 0 1 14.5 6V7zM15.5 4A0.5 0.5 0 0 1 15.5 5V4zM14.5 5A0.5 0.5 0 0 1 14.5 4V5zM1.5 4A0.5 0.5 0 0 1 1.5 5V4zM0.5 5A0.5 0.5 0 0 1 0.5 4V5zM1.5 11A0.5 0.5 0 0 1 1.5 12V11zM0.5 12A0.5 0.5 0 0 1 0.5 11V12zM1.5 9A0.5 0.5 0 0 1 1.5 10V9zM0.5 10A0.5 0.5 0 0 1 0.5 9V10zM1.5 6A0.5 0.5 0 0 1 1.5 7V6zM0.5 7A0.5 0.5 0 0 1 0.5 6V7zM4 0.5A0.5 0.5 0 0 1 5 0.5H4zM5 1.5A0.5 0.5 0 0 1 4 1.5H5zM6 0.5A0.5 0.5 0 0 1 7 0.5H6zM7 1.5A0.5 0.5 0 0 1 6 1.5H7zM9 0.5A0.5 0.5 0 0 1 10 0.5H9zM10 1.5A0.5 0.5 0 0 1 9 1.5H10zM11 0.5A0.5 0.5 0 0 1 12 0.5H11zM12 1.5A0.5 0.5 0 0 1 11 1.5H12zM4 14.5A0.5 0.5 0 0 1 5 14.5H4zM5 15.5A0.5 0.5 0 0 1 4 15.5H5zM6 14.5A0.5 0.5 0 0 1 7 14.5H6zM7 15.5A0.5 0.5 0 0 1 6 15.5H7zM8 14.5H8.5A0.5 0.5 0 0 1 8 15V14.5zM14.5 8H15A0.5 0.5 0 0 1 14.5 8.5V8zM15.5 7H14.5V6H15.5V7zM15.5 5H14.5V4H15.5V5zM1.5 5H0.5V4H1.5V5zM1.5 12H0.5V11H1.5V12zM1.5 10H0.5V9H1.5V10zM1.5 7H0.5V6H1.5V7zM5 0.5V1.5H4V0.5H5zM7 0.5V1.5H6V0.5H7zM10 0.5V1.5H9V0.5H10zM12 0.5V1.5H11V0.5H12zM5 14.5V15.5H4V14.5H5zM7 14.5V15.5H6V14.5H7zM2.5 2A0.5 0.5 0 0 0 2 2.5H1A1.5 1.5 0 0 1 2.5 1V2zM14 2.5A0.5 0.5 0 0 0 13.5 2V1A1.5 1.5 0 0 1 15 2.5H14zM2.5 15A1.5 1.5 0 0 1 1 13.5H2A0.5 0.5 0 0 0 2.5 14V15zM2.5 14H8V15H2.5V14zM14 8V2.5H15V8H14zM13.5 2H8V1H13.5V2zM8 2H2.5V1H8V2zM7.5 14.5V8H8.5V14.5H7.5zM7.5 8V1.5H8.5V8H7.5zM2 2.5V8H1V2.5H2zM2 8V13.5H1V8H2zM14.5 8.5H8V7.5H14.5V8.5zM8 8.5H1.5V7.5H8V8.5z" />
    <glyph glyph-name="assembled-product-24"
      unicode="&#xE033;"
      horiz-adv-x="24" d="M6.5 20.5V22.5M10.5 20.5V22.5M23.5 5.5H21.5M23.5 9.5H21.5M3.5 5.5H1.5M3.5 17.5H1.5M3.5 13.5H1.5M3.5 9.5H1.5M6.5 0.5V2.5M14.5 0.5V2.5M18.5 0.5V2.5M10.5 0.5V2.5M3.5 11.5V4.5A2 2 0 0 1 5.5 2.5H12.5M3.5 11.5V18.5A2 2 0 0 0 5.5 20.5H12.5V2.5M3.5 11.5H21.5V4.5A2 2 0 0 0 19.5 2.5H12.5" />
    <glyph glyph-name="attachment-16"
      unicode="&#xE034;"
      horiz-adv-x="16" d="M6.5 10.5V6.5A2 2 0 1 1 10.5 6.5V11.5A4 4 0 0 1 2.5 11.5V6A5.5 5.5 0 1 1 13.5 6V11.5" />
    <glyph glyph-name="attachment-24"
      unicode="&#xE035;"
      horiz-adv-x="24" d="M18.5 19.5V7C18.5 3.4 15.6 0.5 12 0.5S5.5 3.4 5.5 7V18C5.5 20.5 7.5 22.5 10 22.5S14.5 20.5 14.5 18V8C14.5 6.6 13.4 5.5 12 5.5S9.5 6.6 9.5 8V16.5" />
    <glyph glyph-name="audio-description-16"
      unicode="&#xE036;"
      horiz-adv-x="16" d="M3.028 5.665A0.5 0.5 0 1 1 3.972 5.335L3.028 5.665zM5.25 10.5V11A0.5 0.5 0 0 1 4.778 10.665L5.25 10.5zM5.75 10.5L6.222 10.665A0.5 0.5 0 0 1 5.75 11V10.5zM7.028 5.335A0.5 0.5 0 1 1 7.972 5.665L7.028 5.335zM4.2 8A0.5 0.5 0 0 1 4.2 7V8zM6.8 7A0.5 0.5 0 0 1 6.8 8V7zM11 5.5V5V5.5zM9.5 5.5H9A0.5 0.5 0 0 1 9.5 5V5.5zM9.5 10.5V11A0.5 0.5 0 0 1 9 10.5H9.5zM11 10.5V10V10.5zM12.5 9H13H12.5zM12.5 7H13H12.5zM0.5 13.5V14H0V13.5H0.5zM15.5 13.5H16V14H15.5V13.5zM15.5 2.5V2H16V2.5H15.5zM0.5 2.5H0V2H0.5V2.5zM3.972 5.335L5.722 10.335L4.778 10.665L3.028 5.665L3.972 5.335zM5.25 10H5.75V11H5.25V10zM5.278 10.335L7.028 5.335L7.972 5.665L6.222 10.665L5.278 10.335zM4.2 7H6.8V8H4.2V7zM11 6H9.5V5H11V6zM10 5.5V10.5H9V5.5H10zM9.5 10H11V11H9.5V10zM11 10A1 1 0 0 0 11.707 9.707L12.414 10.414A2 2 0 0 1 11 11V10zM11.707 9.707A1 1 0 0 0 12 9H13A2 2 0 0 1 12.414 10.414L11.707 9.707zM12 9V7H13V9H12zM12 7A1 1 0 0 0 11.707 6.293L12.414 5.586A2 2 0 0 1 13 7H12zM11.707 6.293A1 1 0 0 0 11 6V5A2 2 0 0 1 12.414 5.586L11.707 6.293zM0.5 13H15.5V14H0.5V13zM15 13.5V2.5H16V13.5H15zM15.5 3H0.5V2H15.5V3zM1 2.5V13.5H0V2.5H1z" />
    <glyph glyph-name="audio-description-24"
      unicode="&#xE037;"
      horiz-adv-x="24" d="M9.637 8.5L9.25 9.972H6.7L6.3 8.5H3.97L6.532 16.385H9.363L11.957 8.5H9.637zM8.81 11.712L8.471 13A47.917 47.917 0 0 0 8.184 14.112C8.072 14.567 8 14.5 8 14.5S7.865 14.608 7.77 14.19A94.19 94.19 0 0 0 7.139 11.714L8.81 11.712zM20 12.593A4.056 4.056 0 0 0 18.917 9.563A4.155 4.155 0 0 0 15.875 8.5H13.334V16.353H16.052A4.1 4.1 0 0 0 18.971 15.386A3.648 3.648 0 0 0 20 12.593zM17.8 12.518A2.493 2.493 0 0 1 17.373 14.118A1.58 1.58 0 0 1 16.073 14.639H15.455V10.239H15.928A1.71 1.71 0 0 1 17.346 10.801C17.686 11.306 17.846 11.911 17.8 12.518zM22.5 19.5H1.5V5.5H14.5L18.5 2.5V5.5H22.5V19.5z" />
    <glyph glyph-name="award-16"
      unicode="&#xE038;"
      horiz-adv-x="16" d="M11.5 5.5V0.5L8 2.5L4.5 0.5V5.5M12.5 11A4.5 4.5 0 1 0 3.5 11A4.5 4.5 0 0 0 12.5 11z" />
    <glyph glyph-name="award-24"
      unicode="&#xE039;"
      horiz-adv-x="24" d="M17.5 10.601V1.5L12.5 4.5L7.5 1.5V10.602M12.5 8.5A7 7 0 1 1 12.5 22.5A7 7 0 0 1 12.5 8.5z" />
    <glyph glyph-name="ban-12"
      unicode="&#xE03A;"
      horiz-adv-x="12" d="M2.023 2.023L9.977 9.977M11.5 6A5.5 5.5 0 1 0 0.5 6A5.5 5.5 0 0 0 11.5 6z" />
    <glyph glyph-name="ban-16"
      unicode="&#xE03B;"
      horiz-adv-x="16" d="M2.697 2.697L13.303 13.303M15.5 8A7.5 7.5 0 1 0 0.5 8A7.5 7.5 0 0 0 15.5 8z" />
    <glyph glyph-name="ban-24"
      unicode="&#xE03C;"
      horiz-adv-x="24" d="M20.3 19.3L4.7 3.7M12.5 0.5C18.575 0.5 23.5 5.425 23.5 11.5S18.575 22.5 12.5 22.5S1.5 17.575 1.5 11.5S6.425 0.5 12.5 0.5z" />
    <glyph glyph-name="bar-graph-16"
      unicode="&#xE03D;"
      horiz-adv-x="16" d="M5.5 1.5V10.5M8.5 1.5V7.5M14.5 1.5V7.5M11.5 1.5V10.5M2.5 1.5V13.5" />
    <glyph glyph-name="bar-graph-24"
      unicode="&#xE03E;"
      horiz-adv-x="24" d="M7.5 2.5V15.5M12.5 2.5V10.5M17.5 2.5V15.5M22.5 2.5V10.5M2.5 2.5V20.5" />
    <glyph glyph-name="bar-graph-linear-16"
      unicode="&#xE03F;"
      horiz-adv-x="16" d="M0.5 0.5V3.5M5.5 0.5V7.5M10.5 0.5V11.5M15.5 0.5V15.5M0 16H16V0H0z" />
    <glyph glyph-name="bar-graph-linear-24"
      unicode="&#xE040;"
      horiz-adv-x="24" d="M4.5 2.5V5.5M9.5 2.5V10.5M14.5 2.5V15.5M19.5 2.5V20.5" />
    <glyph glyph-name="bar-graph-x-16"
      unicode="&#xE041;"
      horiz-adv-x="16" d="M5.5 6V10.5M5.5 1.5V2.5M8.5 1.5V5.5M14.5 1.5V7.5M11.5 1.5V8.5M2.5 3V13.5M1 1L15 15" />
    <glyph glyph-name="bar-graph-x-24"
      unicode="&#xE042;"
      horiz-adv-x="24" d="M7.5 6.5V15.5M12.5 2.5V6.5M17.5 2.5V11.5M22.5 2.5V10.5M2.5 1.5V20.5M2 1L23 22" />
    <glyph glyph-name="barcode-16"
      unicode="&#xE043;"
      horiz-adv-x="16" d="M0.5 13.5V2.5M3.5 13.5V4.5M12.5 13.5V4.5M15.5 13.5V2.5M6.5 13.5H9.5V4.5H6.5V13.5z" />
    <glyph glyph-name="barcode-24"
      unicode="&#xE044;"
      horiz-adv-x="24" d="M1.5 20.5V3.5M22.5 20.5V3.5M12 20.5V5.5M18.5 5.5H15.5V20.5H18.5V5.5zM8.5 5.5H5.5V20.5H8.5V5.5z" />
    <glyph glyph-name="battery-charging-16"
      unicode="&#xE045;"
      horiz-adv-x="16" d="M15.5 10.5V5.5M3 8L6.5 6.5V9.5L10 7.5M2 12.5H12A1.5 1.5 0 0 0 13.5 11V5A1.5 1.5 0 0 0 12 3.5H2A1.5 1.5 0 0 0 0.5 5V11A1.5 1.5 0 0 0 2 12.5z" />
    <glyph glyph-name="battery-charging-24"
      unicode="&#xE046;"
      horiz-adv-x="24" d="M22.5 14.5V9.5M15.5 11L10.5 14V10L5.5 13M3.5 18.5H18.5A2 2 0 0 0 20.5 16.5V7.5A2 2 0 0 0 18.5 5.5H3.5A2 2 0 0 0 1.5 7.5V16.5A2 2 0 0 0 3.5 18.5z" />
    <glyph glyph-name="beginner-16"
      unicode="&#xE047;"
      horiz-adv-x="16" d="M3.583 12.565A7.477 7.477 0 0 0 8 14C9.598 14 11.15 13.495 12.418 12.565A6.988 6.988 0 0 0 15.02 8.862A0.5 0.5 0 1 1 15.981 9.138A7.987 7.987 0 0 1 13.01 13.372A8.477 8.477 0 0 1 8 15A8.477 8.477 0 0 1 2.991 13.372A7.988 7.988 0 0 1 0.02 9.138A0.5 0.5 0 0 1 0.981 8.862A6.988 6.988 0 0 0 3.583 12.565zM3.591 10.567L3.851 10.994A0.5 0.5 0 0 1 3.105 10.451L3.591 10.567zM3.591 10.567L3.851 10.994H3.853L3.856 10.992L3.868 10.984L3.915 10.955A63.409 63.409 0 0 0 4.738 10.443C5.275 10.105 6 9.642 6.753 9.14A46.303 46.303 0 0 0 8.947 7.598C9.583 7.117 10.156 6.636 10.427 6.263L10.499 6.163C11.024 5.438 11.432 4.876 11.287 3.978C11.205 3.474 10.888 3.061 10.597 2.764C10.301 2.464 9.971 2.224 9.77 2.078L9.763 2.073L9.755 2.067C9.555 1.922 9.223 1.681 8.845 1.492C8.475 1.307 7.981 1.132 7.477 1.212C6.565 1.36 6.153 1.932 5.605 2.692L5.572 2.738C5.302 3.111 5.022 3.804 4.762 4.558A46.742 46.742 0 0 0 3.974 7.12A95.885 95.885 0 0 0 3.122 10.379L3.109 10.433L3.106 10.447V10.45L3.105 10.451L3.591 10.567zM4.936 7.39A93.558 93.558 0 0 0 4.375 9.49C4.885 9.168 5.531 8.752 6.199 8.307A45.332 45.332 0 0 0 8.343 6.801C8.996 6.307 9.447 5.911 9.617 5.676C10.229 4.829 10.374 4.599 10.299 4.137C10.268 3.941 10.125 3.711 9.884 3.466A5.59 5.59 0 0 0 9.175 2.882A5.615 5.615 0 0 0 8.399 2.387C8.089 2.232 7.829 2.169 7.637 2.2C7.175 2.274 6.988 2.484 6.382 3.323C6.212 3.558 5.975 4.111 5.706 4.885C5.446 5.635 5.178 6.528 4.936 7.39z" />
    <glyph glyph-name="beginner-24"
      unicode="&#xE048;"
      horiz-adv-x="24" d="M1.953 14.29C3.832 18.29 7.638 21 12 21C16.362 21 20.169 18.29 22.047 14.288A0.5 0.5 0 1 1 22.953 14.712C20.93 19.02 16.798 22 12 22C7.202 22 3.07 19.02 1.047 14.714A0.5 0.5 0 1 1 1.953 14.289zM5.534 14.9L5.873 15.395A0.6 0.6 0 0 1 4.959 14.73L5.534 14.9zM5.534 14.9L5.874 15.395V15.394L5.879 15.391L5.895 15.38L5.957 15.337A96.224 96.224 0 0 0 7.049 14.577C7.761 14.077 8.724 13.393 9.727 12.654A72.33 72.33 0 0 0 12.65 10.4C13.506 9.696 14.258 9.017 14.618 8.52H14.619L14.717 8.384C15.453 7.368 15.986 6.634 15.891 5.5C15.837 4.845 15.473 4.317 15.121 3.94C14.769 3.562 14.367 3.27 14.126 3.095L14.116 3.088L14.106 3.08C13.866 2.906 13.462 2.613 12.994 2.394C12.526 2.176 11.909 1.991 11.27 2.146C10.146 2.416 9.606 3.165 8.836 4.23L8.793 4.29C8.434 4.787 8.022 5.711 7.617 6.743A72.979 72.979 0 0 0 6.377 10.219A148.57 148.57 0 0 0 4.987 14.632L4.967 14.705L4.961 14.724L4.959 14.728V14.73L5.534 14.9zM7.515 10.598A144.95 144.95 0 0 0 6.611 13.418C7.285 12.943 8.135 12.336 9.015 11.688C10.009 10.955 11.035 10.174 11.888 9.473C12.759 8.756 13.39 8.169 13.648 7.816C14.501 6.635 14.751 6.259 14.696 5.6C14.673 5.334 14.516 5.05 14.243 4.757C13.975 4.47 13.657 4.237 13.411 4.058C13.165 3.88 12.843 3.648 12.487 3.482C12.123 3.312 11.807 3.251 11.551 3.312C10.909 3.467 10.613 3.82 9.766 4.992C9.51 5.347 9.146 6.131 8.734 7.182A71.756 71.756 0 0 0 7.515 10.598z" />
    <glyph glyph-name="bell-12"
      unicode="&#xE049;"
      horiz-adv-x="12" d="M4.592 1.5A1.491 1.491 0 0 1 7.408 1.5M0.5 3.5H11.5A2.15 2.15 0 0 0 9.5 5.5V8A3.5 3.5 0 1 1 2.5 8V5.5A2.151 2.151 0 0 0 0.5 3.5z" />
    <glyph glyph-name="bell-16"
      unicode="&#xE04A;"
      horiz-adv-x="16" d="M10 2.5A2 2 0 1 0 6 2.5M0.5 4.5H15.5M14.5 4.5H15C13.895 4.5 12.5 5.395 12.5 6.5V11A4.5 4.5 0 0 1 3.5 11V6.5A2 2 0 0 0 1.5 4.5" />
    <glyph glyph-name="bell-24"
      unicode="&#xE04B;"
      horiz-adv-x="24" d="M12.5 23A7.5 7.5 0 0 1 5 15.5V10.503A13.334 13.334 0 0 0 3.072 3.759L2.612 3H22.387L21.927 3.759A13.334 13.334 0 0 0 20 10.503V15.5A7.5 7.5 0 0 1 12.5 23zM7.904 20.096A6.5 6.5 0 0 0 19 15.5V10.494A14.336 14.336 0 0 1 20.644 4H4.356C5.408 6 5.973 8.226 6 10.494V15.5A6.5 6.5 0 0 0 7.904 20.096zM10.77 0.55A3.01 3.01 0 0 0 9.675 2H15.327A3.01 3.01 0 0 0 14.23 0.55A2.993 2.993 0 0 0 10.772 0.55z" />
    <glyph glyph-name="bell-f-12"
      unicode="&#xE04C;"
      horiz-adv-x="12" d="M4.6 1.5C4.65 1.208 4.884 0.954 5.136 0.775A1.49 1.49 0 0 1 6.864 0.775C7.116 0.955 7.35 1.208 7.4 1.5M11.5 3.5A2.15 2.15 0 0 0 9.5 5.5V8A3.5 3.5 0 1 1 2.5 8V5.5A2.151 2.151 0 0 0 0.5 3.5M4.6 1.5C4.65 1.208 4.884 0.954 5.136 0.775A1.49 1.49 0 0 1 6.864 0.775C7.116 0.955 7.35 1.208 7.4 1.5M11.5 3.5A2.15 2.15 0 0 0 9.5 5.5V8A3.5 3.5 0 1 1 2.5 8V5.5A2.151 2.151 0 0 0 0.5 3.5" />
    <glyph glyph-name="bell-f-16"
      unicode="&#xE04D;"
      horiz-adv-x="16" d="M10 2.5A2 2 0 1 0 6 2.5M14.5 4.5H15C13.895 4.5 12.5 5.395 12.5 6.5V11A4.5 4.5 0 0 1 3.5 11V6.5A2 2 0 0 0 1.5 4.5M10 2.5H10.5V3H10V2.5zM6 2.5V3H5.5V2.5H6zM0.5 5A0.5 0.5 0 0 1 0.5 4V5zM15.5 4A0.5 0.5 0 0 1 15.5 5V4zM14.5 5A0.5 0.5 0 0 1 14.5 4V5zM15 4A0.5 0.5 0 0 1 15 5V4zM1.5 5A0.5 0.5 0 0 1 1.5 4V5zM9.5 2.5A1.5 1.5 0 0 0 8 1V0A2.5 2.5 0 0 1 10.5 2.5H9.5zM8 1A1.5 1.5 0 0 0 6.5 2.5H5.5A2.5 2.5 0 0 1 8 0V1zM6 2H10V3H6V2zM0.5 4H15.5V5H0.5V4zM14.5 4H15V5H14.5V4zM15 5C14.569 5 14.046 5.18 13.634 5.487C13.216 5.797 13 6.166 13 6.5H12C12 5.73 12.481 5.098 13.037 4.684C13.599 4.267 14.327 4 15 4V5zM13 6.5V11H12V6.5H13zM13 11A5 5 0 0 1 8 16V15A4 4 0 0 0 12 11H13zM8 16A5 5 0 0 1 3 11H4A4 4 0 0 0 8 15V16zM3 11V6.5H4V11H3zM3 6.5A1.5 1.5 0 0 0 1.5 5V4A2.5 2.5 0 0 1 4 6.5H3z" />
    <glyph glyph-name="bell-f-24"
      unicode="&#xE04E;"
      horiz-adv-x="24" d="M7.197 20.803A7.5 7.5 0 0 0 20 15.5V10.503C20.03 8.123 20.695 5.795 21.928 3.759L22.388 3H2.612L3.072 3.759A13.334 13.334 0 0 1 5 10.503V15.5A7.5 7.5 0 0 0 7.197 20.803zM10.77 0.55A3.01 3.01 0 0 0 9.675 2H15.327A3.01 3.01 0 0 0 14.23 0.55A2.993 2.993 0 0 0 10.772 0.55z" />
    <glyph glyph-name="bell-x-16"
      unicode="&#xE04F;"
      horiz-adv-x="16" d="M10 2.5A2 2 0 0 0 6 2.5M7.5 4.5H15.5M0.5 4.5H4.5M12.307 12.307A4.5 4.5 0 0 1 3.5 11V6.5A2 2 0 0 0 1.5 4.5M14.5 4.5H15C13.895 4.5 12.5 5.395 12.5 6.5V9.5M0.5 0.5L15.5 15.5" />
    <glyph glyph-name="bell-x-24"
      unicode="&#xE050;"
      horiz-adv-x="24" d="M8.5 3.5L21.5 3.494A13.833 13.833 0 0 0 19.5 10.494V14.5M18.716 18.715A7 7 0 0 1 5.5 15.494V10.494C5.47 8.024 4.78 5.607 3.5 3.494M9.674 2A3.01 3.01 0 0 1 10.771 0.55A2.993 2.993 0 0 1 15.326 2H9.674zM2.5 2.5L21.5 21.5" />
    <glyph glyph-name="bike-16"
      unicode="&#xE051;"
      horiz-adv-x="16" d="M3.5 5.5L4.5 10.5H11.5M8.5 13.5H11.5L12.5 5.5M3.5 12.5H5.5M6.5 5.5A3 3 0 1 0 0.5 5.5A3 3 0 0 0 6.5 5.5zM15.5 5.5A3 3 0 1 0 9.5 5.5A3 3 0 0 0 15.5 5.5z" />
    <glyph glyph-name="bike-24"
      unicode="&#xE052;"
      horiz-adv-x="24" d="M8.5 17H9V18H8.5V17zM4.5 18H4V17H4.5V18zM17.5 18.5L17.992 18.59L17.917 19H17.5V18.5zM6.5 14.5V15H6.123L6.019 14.637L6.5 14.5zM23 8A4 4 0 0 0 19 4V3A5 5 0 0 1 24 8H23zM19 4A4 4 0 0 0 15 8H14A5 5 0 0 1 19 3V4zM15 8A4 4 0 0 0 19 12V13A5 5 0 0 1 14 8H15zM19 12A4 4 0 0 0 23 8H24A5 5 0 0 1 19 13V12zM9 8A4 4 0 0 0 5 4V3A5 5 0 0 1 10 8H9zM5 4A4 4 0 0 0 1 8H0A5 5 0 0 1 5 3V4zM1 8A4 4 0 0 0 5 12V13A5 5 0 0 1 0 8H1zM5 12A4 4 0 0 0 9 8H10A5 5 0 0 1 5 13V12zM8.5 18H4.5V17H8.5V18zM19.992 7.59L17.992 18.59L17.008 18.41L19.008 7.41L19.992 7.59zM17.5 19H13.5V18H17.5V19zM18.227 15H6.5V14H18.227V15zM6.019 14.637L4.019 7.637L4.981 7.363L6.981 14.363L6.019 14.637z" />
    <glyph glyph-name="binoculars-16"
      unicode="&#xE053;"
      horiz-adv-x="16" d="M14.872 8L11.241 13.467A1.993 1.993 0 0 1 9.5 14.5C8.899 14.5 8.367 14.23 8 13.81A1.985 1.985 0 0 1 6.5 14.5C5.748 14.5 5.101 14.08 4.759 13.467L1.128 8M7.5 6A3.5 3.5 0 1 0 0.5 6A3.5 3.5 0 0 0 7.5 6zM15.5 6A3.5 3.5 0 1 0 8.5 6A3.5 3.5 0 0 0 15.5 6z" />
    <glyph glyph-name="binoculars-24"
      unicode="&#xE054;"
      horiz-adv-x="24" d="M10.5 4.5V18.5H5.5L2.5 8.5V4.5M10.5 2.5H1.5M10.5 21.5H7.5M16.5 21.5H13.5M13.5 4.5V18.5H18.5L21.5 8.5V4.5M13.5 2.5H22.5M7.5 13.5H16.5" />
    <glyph glyph-name="block-16"
      unicode="&#xE055;"
      horiz-adv-x="16" d="M1.933 11.5L8 8M1.933 11.5L8 15L14.067 11.5M1.933 11.5V4.5L8 1M8 8L14.067 11.5M8 8V1M14.067 11.5V4.5L8 1" />
    <glyph glyph-name="block-24"
      unicode="&#xE056;"
      horiz-adv-x="24" d="M12 11.972V1.583M12 11.973L3.5 16.693M12 11.971L20.5 16.693M12 1.584L3.5 6.305V16.695M12 1.582L20.5 6.305V16.693M3.5 16.693L12 21.417L20.5 16.694" />
    <glyph glyph-name="blocks-16"
      unicode="&#xE057;"
      horiz-adv-x="16" d="M7.5 7.5L11.5 5.5M7.5 7.5L11.5 9.5L15.5 7.5M7.5 7.5V2.5L11.5 0.5M11.5 5.5L15.5 7.5M11.5 5.5V0.5M15.5 7.5V2.5L11.5 0.5M4.5 11.5L0.5 13.5M4.5 11.5V6.5M4.5 11.5L8.5 13.5M0.5 13.5V8.5L4.5 6.5M0.5 13.5L4.5 15.5L8.5 13.5M4.5 6.5L5.5 7M8.5 13.5V10" />
    <glyph glyph-name="blocks-24"
      unicode="&#xE058;"
      horiz-adv-x="24" d="M2.5 19.112L7.25 16.737M2.5 19.112L7.25 21.487L12 19.112M2.5 19.112V12.937L7.25 10.563M7.25 16.737L12 19.112M7.25 16.737V10.562M12 19.113V12.938M12 19.114L16.75 16.738M12 19.112L16.75 21.487L21.5 19.112M7.25 10.562L12 12.938M7.25 10.562L12 8.188M7.25 10.562V4.387L12 2.012M12 12.937L16.75 10.563M16.75 16.737L21.5 19.112M16.75 16.737V10.562M21.5 19.112V12.937L16.75 10.563M16.75 10.563L12 8.187M16.75 10.563V4.387L12 2.012M12 8.187V2.012" />
    <glyph glyph-name="bluetooth-16"
      unicode="&#xE059;"
      horiz-adv-x="16" d="M3.77 5.2L12.17 11.733L7.503 15V1L12.17 4.267L3.77 10.8" />
    <glyph glyph-name="bluetooth-24"
      unicode="&#xE05A;"
      horiz-adv-x="24" d="M5.5 7L18.5 18L11.5 22V2L18.5 7L5.5 18" />
    <glyph glyph-name="board-16"
      unicode="&#xE05B;"
      horiz-adv-x="16" d="M1 14.5A0.5 0.5 0 0 0 1.5 15H14.5A0.5 0.5 0 0 0 15 14.5V1.5A0.5 0.5 0 0 0 14.5 1H10.707L11.854 2.146L12 2.293V5.05A2.5 2.5 0 1 1 11 5.05V2.707L9.646 1.354L9.293 1H7V3.651L6.916 3.777L5 6.651V9.05A2.5 2.5 0 1 1 4 9.05V6.349L4.084 6.223L6 3.349V1H1.5A0.5 0.5 0 0 0 1 1.5V14.5zM6 0H1.5A1.5 1.5 0 0 0 0 1.5V14.5A1.5 1.5 0 0 0 1.5 16H14.5A1.5 1.5 0 0 0 16 14.5V1.5A1.5 1.5 0 0 0 14.5 0H6zM4.5 13A1.5 1.5 0 1 1 4.5 10A1.5 1.5 0 0 1 4.5 13zM10 7.5A1.5 1.5 0 1 0 13 7.5A1.5 1.5 0 0 0 10 7.5z" />
    <glyph glyph-name="board-24"
      unicode="&#xE05C;"
      horiz-adv-x="24" d="M20.5 22.5H3.5A2 2 0 0 1 1.5 20.5V3.5A2 2 0 0 1 3.5 1.5H20.5A2 2 0 0 1 22.5 3.5V20.5A2 2 0 0 1 20.5 22.5zM6.5 15.5V12.5L8.5 9.5V1.5M17.5 6.5V3.5L16 2M16 16L12.5 12.5V1.5M17.5 6.5A2 2 0 1 1 17.5 10.5A2 2 0 0 1 17.5 6.5zM6.5 15.5A2 2 0 1 1 6.5 19.5A2 2 0 0 1 6.5 15.5zM17.5 15.5A2 2 0 1 1 17.5 19.5A2 2 0 0 1 17.5 15.5z" />
    <glyph glyph-name="book-16"
      unicode="&#xE05D;"
      horiz-adv-x="16" d="M1.5 2V13.5A2 2 0 0 0 3.5 15.5H12.5A2 2 0 0 0 14.5 13.5V2M1.5 2A1.5 1.5 0 0 1 3 0.5H13A1.5 1.5 0 0 1 14.5 2M1.5 2A1.5 1.5 0 0 0 3 3.5H13A1.5 1.5 0 0 0 14.5 2M4.5 12.5H11.5V7.5H4.5V12.5z" />
    <glyph glyph-name="book-24"
      unicode="&#xE05E;"
      horiz-adv-x="24" d="M16.5 17.5H8.5V12.5H16.5V17.5zM21.5 5.5V22.5H5.5A2 2 0 0 1 3.5 20.5V3M6 5.5H21.5V0.5H6A2.5 2.5 0 1 0 6 5.5z" />
    <glyph glyph-name="book-bookmark-16"
      unicode="&#xE05F;"
      horiz-adv-x="16" d="M9.5 15.5V8.5L7 10.5L4.5 8.5V15.5M1.5 2V13.5A2 2 0 0 0 3.5 15.5H12.5A2 2 0 0 0 14.5 13.5V2M1.5 2A1.5 1.5 0 0 1 3 0.5H13A1.5 1.5 0 0 1 14.5 2M1.5 2A1.5 1.5 0 0 0 3 3.5H13A1.5 1.5 0 0 0 14.5 2" />
    <glyph glyph-name="book-bookmark-24"
      unicode="&#xE060;"
      horiz-adv-x="24" d="M13.5 22.5V14.5L10.5 16.5L7.5 14.5V22.5M5.5 22.5A2 2 0 0 1 3.5 20.5V2.5A2 2 0 0 0 5.5 4.5H19.5A2 2 0 0 1 21.5 6.5V20.5A2 2 0 0 1 19.5 22.5H5.5zM19.5 0.5A2 2 0 0 1 21.5 2.5V6.5A2 2 0 0 0 19.5 4.5H5.5A2 2 0 1 1 5.5 0.5H19.5z" />
    <glyph glyph-name="book-open-16"
      unicode="&#xE061;"
      horiz-adv-x="16" d="M11.75 14.5C9.679 14.5 8 13.605 8 12.5C8 13.605 6.321 14.5 4.25 14.5C2.179 14.5 0.5 13.605 0.5 12.5V1.5C0.5 2.605 2.179 3.5 4.25 3.5C6.321 3.5 8 2.605 8 1.5C8 2.605 9.679 3.5 11.75 3.5C13.821 3.5 15.5 2.605 15.5 1.5V12.5C15.5 13.605 13.821 14.5 11.75 14.5z" />
    <glyph glyph-name="book-open-24"
      unicode="&#xE062;"
      horiz-adv-x="24" d="M12.5 19.5V2.5M18 21.5C15 21.5 12.5 20.2 12.5 18.5C12.5 20.2 10 21.5 7 21.5S1.5 20.2 1.5 18.5V1.5C1.5 3.2 4 4.5 7 4.5S12.5 3.2 12.5 1.5C12.5 3.2 15 4.5 18 4.5S23.5 3.2 23.5 1.5V18.5C23.5 20.2 21 21.5 18 21.5z" />
    <glyph glyph-name="bookmark-16"
      unicode="&#xE063;"
      horiz-adv-x="16" d="M2.5 0.5L8 4.5L13.5 0.5V14A1.5 1.5 0 0 1 12 15.5H4A1.5 1.5 0 0 1 2.5 14V0.5z" />
    <glyph glyph-name="bookmark-24"
      unicode="&#xE064;"
      horiz-adv-x="24" d="M20.5 1.5L12 6.5L3.5 1.5V20.5A2 2 0 0 0 5.5 22.5H18.5A2 2 0 0 0 20.5 20.5V1.5z" />
    <glyph glyph-name="bookmark-f-16"
      unicode="&#xE065;"
      horiz-adv-x="16" d="M2.5 0.5L8 4.5L13.5 0.5V14A1.5 1.5 0 0 1 12 15.5H4A1.5 1.5 0 0 1 2.5 14V0.5z" />
    <glyph glyph-name="bookmark-f-24"
      unicode="&#xE066;"
      horiz-adv-x="24" d="M20.5 1.5L12 6.5L3.5 1.5V20.5A2 2 0 0 0 5.5 22.5H18.5A2 2 0 0 0 20.5 20.5V1.5z" />
    <glyph glyph-name="box-16"
      unicode="&#xE067;"
      horiz-adv-x="16" d="M14.5 9.5V1.5H1.5V9.5M0.5 14.5H15.5V11.5H0.5V14.5zM5.5 8.5H10.5V5.5H5.5V8.5z" />
    <glyph glyph-name="box-24"
      unicode="&#xE068;"
      horiz-adv-x="24" d="M22.5 21.5H1.5V16.5H22.5V21.5zM21.5 13.5V2.5H2.5V13.5M15.5 12.5H8.5V8.5H15.5V12.5z" />
    <glyph glyph-name="braille-16"
      unicode="&#xE069;"
      horiz-adv-x="16" d="M13 8A1 1 0 0 0 12 7V6A2 2 0 0 1 14 8H13zM12 7A1 1 0 0 0 11 8H10A2 2 0 0 1 12 6V7zM11 8A1 1 0 0 0 12 9V10A2 2 0 0 1 10 8H11zM12 9A1 1 0 0 0 13 8H14A2 2 0 0 1 12 10V9zM13 14A1 1 0 0 0 12 13V12A2 2 0 0 1 14 14H13zM12 13A1 1 0 0 0 11 14H10A2 2 0 0 1 12 12V13zM11 14A1 1 0 0 0 12 15V16A2 2 0 0 1 10 14H11zM12 15A1 1 0 0 0 13 14H14A2 2 0 0 1 12 16V15zM5 14A1 1 0 0 0 4 13V12A2 2 0 0 1 6 14H5zM4 13A1 1 0 0 0 3 14H2A2 2 0 0 1 4 12V13zM3 14A1 1 0 0 0 4 15V16A2 2 0 0 1 2 14H3zM4 15A1 1 0 0 0 5 14H6A2 2 0 0 1 4 16V15zM5 2A1 1 0 0 0 4 1V0A2 2 0 0 1 6 2H5zM4 1A1 1 0 0 0 3 2H2A2 2 0 0 1 4 0V1zM3 2A1 1 0 0 0 4 3V4A2 2 0 0 1 2 2H3zM4 3A1 1 0 0 0 5 2H6A2 2 0 0 1 4 4V3zM4.5 8A0.5 0.5 0 0 0 4 7.5V6.5A1.5 1.5 0 0 1 5.5 8H4.5zM4 7.5A0.5 0.5 0 0 0 3.5 8H2.5A1.5 1.5 0 0 1 4 6.5V7.5zM3.5 8A0.5 0.5 0 0 0 4 8.5V9.5A1.5 1.5 0 0 1 2.5 8H3.5zM4 8.5A0.5 0.5 0 0 0 4.5 8H5.5A1.5 1.5 0 0 1 4 9.5V8.5zM12.5 2A0.5 0.5 0 0 0 12 1.5V0.5A1.5 1.5 0 0 1 13.5 2H12.5zM12 1.5A0.5 0.5 0 0 0 11.5 2H10.5A1.5 1.5 0 0 1 12 0.5V1.5zM11.5 2A0.5 0.5 0 0 0 12 2.5V3.5A1.5 1.5 0 0 1 10.5 2H11.5zM12 2.5A0.5 0.5 0 0 0 12.5 2H13.5A1.5 1.5 0 0 1 12 3.5V2.5z" />
    <glyph glyph-name="braille-24"
      unicode="&#xE06A;"
      horiz-adv-x="24" d="M6.5 17.5A2.5 2.5 0 1 1 6.5 22.5A2.5 2.5 0 0 1 6.5 17.5zM6.5 1A2.5 2.5 0 1 1 6.5 6A2.5 2.5 0 0 1 6.5 1zM18.5 17.5A2.5 2.5 0 1 1 18.5 22.5A2.5 2.5 0 0 1 18.5 17.5zM18.5 9.5A2.5 2.5 0 1 1 18.5 14.5A2.5 2.5 0 0 1 18.5 9.5zM6.5 10.5A1.5 1.5 0 1 1 6.5 13.5A1.5 1.5 0 0 1 6.5 10.5zM18.5 2A1.5 1.5 0 1 1 18.5 5A1.5 1.5 0 0 1 18.5 2z" />
    <glyph glyph-name="briefcase-16"
      unicode="&#xE06B;"
      horiz-adv-x="16" d="M5.5 12.5V15.5H10.5V12.5M6.5 6.5H0.5V11.5A1 1 0 0 0 1.5 12.5H14.5A1 1 0 0 0 15.5 11.5V6.5H9.5M14.5 4.5V2.5A1 1 0 0 0 13.5 1.5H2.5A1 1 0 0 0 1.5 2.5V4.5M6.5 8.5H9.5V4.5H6.5V8.5z" />
    <glyph glyph-name="briefcase-24"
      unicode="&#xE06C;"
      horiz-adv-x="24" d="M8.5 18.5V22.5H16.5V18.5M22.5 4.5V0.5H2.5V4.5M6.5 18.5V7.5M18.5 18.5V7.5M18.5 4.5V0.5M6.5 4.5V0.5M10.5 7.5H1.5V18.5H23.5V7.5H14.5M14.5 9.5H10.5V5.5H14.5V9.5z" />
    <glyph glyph-name="bug-16"
      unicode="&#xE06D;"
      horiz-adv-x="16" d="M0.5 6.5H3.5M5.708 14A2.5 2.5 0 0 0 10.292 14M3.5 9.5A3 3 0 0 0 0.5 12.5M3.5 3.5A3 3 0 0 1 0.5 0.5M15.5 6.5H12.5M12.5 9.5A3 3 0 0 1 15.5 12.5M12.5 3.5A3 3 0 0 0 15.5 0.5M8 12.5A4.5 4.5 0 0 0 12.5 8V5A4.5 4.5 0 1 0 3.5 5V8A4.5 4.5 0 0 0 8 12.5z" />
    <glyph glyph-name="bug-24"
      unicode="&#xE06E;"
      horiz-adv-x="24" d="M5.79 13.5H4.5A3 3 0 0 0 1.5 16.5V17.5M5.79 5.5H4.5A3 3 0 0 1 1.5 2.5V1.5M8.5 17.245V18.5A4 4 0 0 0 12.5 22.5V22.5A4 4 0 0 0 16.5 18.5V17.245M5.5 9.5H1.5M19.21 13.5H20.5A3 3 0 0 1 23.5 16.5V17.5M19.21 5.5H20.5A3 3 0 0 0 23.5 2.5V1.5M19.5 9.5H23.5M19.5 7.5A7 7 0 1 0 5.5 7.5V11.5A7 7 0 0 0 19.5 11.5V7.5z" />
    <glyph glyph-name="bullet-list-16"
      unicode="&#xE06F;"
      horiz-adv-x="16" d="M6.5 13.5H15.5M6.5 7.5H15.5M6.5 1.5H15.5M3.5 14A1.5 1.5 0 1 0 0.5 14A1.5 1.5 0 0 0 3.5 14zM3.5 8A1.5 1.5 0 1 0 0.5 8A1.5 1.5 0 0 0 3.5 8zM3.5 2A1.5 1.5 0 1 0 0.5 2A1.5 1.5 0 0 0 3.5 2z" />
    <glyph glyph-name="bullet-list-24"
      unicode="&#xE070;"
      horiz-adv-x="24" d="M4.5 17.5A2 2 0 1 1 4.5 21.5A2 2 0 0 1 4.5 17.5zM4.5 9.5A2 2 0 1 1 4.5 13.5A2 2 0 0 1 4.5 9.5zM4.5 1.5A2 2 0 1 1 4.5 5.5A2 2 0 0 1 4.5 1.5zM10.5 19.5H22.5M10.5 11.5H22.5M10.5 3.5H22.5" />
    <glyph glyph-name="c-add-16"
      unicode="&#xE071;"
      horiz-adv-x="16" d="M8 12V4M4 8H12M15.5 8A7.5 7.5 0 1 0 0.5 8A7.5 7.5 0 0 0 15.5 8z" />
    <glyph glyph-name="c-add-24"
      unicode="&#xE072;"
      horiz-adv-x="24" d="M12 17V7M17 12H7M22.5 12C22.5 6.201 17.799 1.5 12 1.5S1.5 6.201 1.5 12S6.201 22.5 12 22.5S22.5 17.799 22.5 12z" />
    <glyph glyph-name="c-check-16"
      unicode="&#xE073;"
      horiz-adv-x="16" d="M4.5 8L7 5.5L12 10.5M15.5 8A7.5 7.5 0 1 0 0.5 8A7.5 7.5 0 0 0 15.5 8z" />
    <glyph glyph-name="c-check-24"
      unicode="&#xE074;"
      horiz-adv-x="24" d="M6.354 12.354L6 12.707L5.293 12L5.646 11.646L6.354 12.354zM10 8L9.646 7.646L10 7.293L10.354 7.646L10 8zM18.354 15.646L18.707 16L18 16.707L17.646 16.354L18.354 15.646zM5.646 11.646L9.646 7.646L10.354 8.354L6.354 12.354L5.646 11.646zM10.354 7.646L18.354 15.646L17.646 16.354L9.646 8.354L10.354 7.646zM22 12C22 6.477 17.523 2 12 2V1C18.075 1 23 5.925 23 12H22zM12 2C6.477 2 2 6.477 2 12H1C1 5.925 5.925 1 12 1V2zM2 12C2 17.523 6.477 22 12 22V23C5.925 23 1 18.075 1 12H2zM12 22C17.523 22 22 17.523 22 12H23C23 18.075 18.075 23 12 23V22z" />
    <glyph glyph-name="c-check-f-16"
      unicode="&#xE075;"
      horiz-adv-x="16" d="M16 8A8 8 0 1 0 0 8A8 8 0 0 0 16 8zM12.53 10.47L13.06 11L12 12.06L11.47 11.53L7 7.06L5.03 9.03L4.5 9.56L3.44 8.5L3.97 7.97L6.47 5.47L7 4.94L7.53 5.47L12.53 10.47z" />
    <glyph glyph-name="c-check-f-24"
      unicode="&#xE076;"
      horiz-adv-x="24" d="M23 12C23 5.925 18.075 1 12 1S1 5.925 1 12S5.925 23 12 23S23 18.075 23 12zM18.53 15.47L19.06 16L18 17.06L17.47 16.53L10 9.06L6.53 12.53L6 13.06L4.94 12L5.47 11.47L9.47 7.47L10 6.94L10.53 7.47L18.53 15.47z" />
    <glyph glyph-name="c-delete-16"
      unicode="&#xE077;"
      horiz-adv-x="16" d="M4 8H12M15.5 8A7.5 7.5 0 1 0 0.5 8A7.5 7.5 0 0 0 15.5 8z" />
    <glyph glyph-name="c-delete-24"
      unicode="&#xE078;"
      horiz-adv-x="24" d="M17 12H7M22.5 12C22.5 6.201 17.799 1.5 12 1.5S1.5 6.201 1.5 12S6.201 22.5 12 22.5S22.5 17.799 22.5 12z" />
    <glyph glyph-name="c-info-16"
      unicode="&#xE079;"
      horiz-adv-x="16" d="M7.5 3.5V3H8.5V3.5H7.5zM8.5 7.5V8H7.5V7.5H8.5zM8 11V10A1 1 0 0 1 9 11H8zM8 11H7A1 1 0 0 1 8 10V11zM8 11V12A1 1 0 0 1 7 11H8zM8 11H9A1 1 0 0 1 8 12V11zM8.5 3.5V7.5H7.5V3.5H8.5zM15 8A7 7 0 0 0 8 1V0A8 8 0 0 1 16 8H15zM8 1A7 7 0 0 0 1 8H0A8 8 0 0 1 8 0V1zM1 8A7 7 0 0 0 8 15V16A8 8 0 0 1 0 8H1zM8 15A7 7 0 0 0 15 8H16A8 8 0 0 1 8 16V15z" />
    <glyph glyph-name="c-info-24"
      unicode="&#xE07A;"
      horiz-adv-x="24" d="M12.5 13V13.5H11.5V13H12.5zM11.5 7V6.5H12.5V7H11.5zM22 12C22 6.477 17.523 2 12 2V1C18.075 1 23 5.925 23 12H22zM12 2C6.477 2 2 6.477 2 12H1C1 5.925 5.925 1 12 1V2zM2 12C2 17.523 6.477 22 12 22V23C5.925 23 1 18.075 1 12H2zM12 22C17.523 22 22 17.523 22 12H23C23 18.075 18.075 23 12 23V22zM12 17V16A1 1 0 0 1 13 17H12zM12 17H11A1 1 0 0 1 12 16V17zM12 17V18A1 1 0 0 1 11 17H12zM12 17H13A1 1 0 0 1 12 18V17zM11.5 13V7H12.5V13H11.5z" />
    <glyph glyph-name="c-info-f-16"
      unicode="&#xE07B;"
      horiz-adv-x="16" d="M8 0A8 8 0 1 1 8 16A8 8 0 0 1 8 0zM8 10A1 1 0 1 1 8 12A1 1 0 0 1 8 10zM8.75 7.5V8.25H7.25V2.75H8.75V7.5z" />
    <glyph glyph-name="c-info-f-24"
      unicode="&#xE07C;"
      horiz-adv-x="24" d="M23 12C23 5.925 18.075 1 12 1S1 5.925 1 12S5.925 23 12 23S23 18.075 23 12zM12 15.5A1 1 0 1 1 12 17.5A1 1 0 0 1 12 15.5zM12.75 13.25V5.75H11.25V13.25H12.75z" />
    <glyph glyph-name="c-question-16"
      unicode="&#xE07D;"
      horiz-adv-x="16" d="M6.5 12.423C7.453 13.283 9.518 13.268 9.923 11.788C10.453 9.866 8 9.858 8 7M15.5 8A7.5 7.5 0 1 0 0.5 8A7.5 7.5 0 0 0 15.5 8zM8.5 4A0.5 0.5 0 1 0 7.5 4A0.5 0.5 0 0 0 8.5 4z" />
    <glyph glyph-name="c-question-24"
      unicode="&#xE07E;"
      horiz-adv-x="24" d="M9.85 17.44C11.83 18.315 14.392 18.211 15.267 16.795S15.538 13.732 14.038 12.461C12.538 11.19 11.997 10.5 11.997 9.5M12.497 6A0.5 0.5 0 1 0 11.497 6A0.5 0.5 0 0 0 12.497 6zM22.5 12C22.5 6.201 17.799 1.5 12 1.5S1.5 6.201 1.5 12S6.201 22.5 12 22.5S22.5 17.799 22.5 12z" />
    <glyph glyph-name="c-remove-16"
      unicode="&#xE07F;"
      horiz-adv-x="16" d="M11 11L5 5M5 11L11 5M15.5 8A7.5 7.5 0 1 0 0.5 8A7.5 7.5 0 0 0 15.5 8z" />
    <glyph glyph-name="c-remove-24"
      unicode="&#xE080;"
      horiz-adv-x="24" d="M16 16L8 8M16 8L8 16M22.5 12C22.5 6.201 17.799 1.5 12 1.5S1.5 6.201 1.5 12S6.201 22.5 12 22.5S22.5 17.799 22.5 12z" />
    <glyph glyph-name="c-warning-16"
      unicode="&#xE081;"
      horiz-adv-x="16" d="M8.5 11.5V12H7.5V11.5H8.5zM7.5 7V6.5H8.5V7H7.5zM8 4V3A1 1 0 0 1 9 4H8zM8 4H7A1 1 0 0 1 8 3V4zM8 4V5A1 1 0 0 1 7 4H8zM8 4H9A1 1 0 0 1 8 5V4zM7.5 11.5V7H8.5V11.5H7.5zM15 8A7 7 0 0 0 8 1V0A8 8 0 0 1 16 8H15zM8 1A7 7 0 0 0 1 8H0A8 8 0 0 1 8 0V1zM1 8A7 7 0 0 0 8 15V16A8 8 0 0 1 0 8H1zM8 15A7 7 0 0 0 15 8H16A8 8 0 0 1 8 16V15z" />
    <glyph glyph-name="c-warning-24"
      unicode="&#xE082;"
      horiz-adv-x="24" d="M12.5 17V17.5H11.5V17H12.5zM22 12C22 6.477 17.523 2 12 2V1C18.075 1 23 5.925 23 12H22zM12 2C6.477 2 2 6.477 2 12H1C1 5.925 5.925 1 12 1V2zM2 12C2 17.523 6.477 22 12 22V23C5.925 23 1 18.075 1 12H2zM12 22C17.523 22 22 17.523 22 12H23C23 18.075 18.075 23 12 23V22zM11.5 17V10H12.5V17H11.5zM12 7V6A1 1 0 0 1 13 7H12zM12 7H11A1 1 0 0 1 12 6V7zM12 7V8A1 1 0 0 1 11 7H12zM12 7H13A1 1 0 0 1 12 8V7z" />
    <glyph glyph-name="c-warning-f-16"
      unicode="&#xE083;"
      horiz-adv-x="16" d="M8 0A8 8 0 1 1 8 16A8 8 0 0 1 8 0zM8 3A1 1 0 1 1 8 5A1 1 0 0 1 8 3zM8.75 11.5V12.25H7.25V6.25H8.75V11.5z" />
    <glyph glyph-name="c-warning-f-24"
      unicode="&#xE084;"
      horiz-adv-x="24" d="M12 1C18.075 1 23 5.925 23 12S18.075 23 12 23S1 18.075 1 12S5.925 1 12 1zM12.75 17.75V10.25H11.25V17.75H12.75zM13 7A1 1 0 1 0 11 7A1 1 0 0 0 13 7z" />
    <glyph glyph-name="calendar-16"
      unicode="&#xE085;"
      horiz-adv-x="16" d="M0.5 10.5H15.5M4.5 15.5V13.5M11.5 15.5V13.5M14 13.5H2A1.5 1.5 0 0 1 0.5 12V3A1.5 1.5 0 0 1 2 1.5H14A1.5 1.5 0 0 1 15.5 3V12A1.5 1.5 0 0 1 14 13.5z" />
    <glyph glyph-name="calendar-24"
      unicode="&#xE086;"
      horiz-adv-x="24" d="M1.5 15.5H22.5M6.5 22.5L6.499 18.5M17.5 22.5L17.499 18.5M3.5 20.5H20.5A2 2 0 0 0 22.5 18.5V4.5A2 2 0 0 0 20.5 2.5H3.5A2 2 0 0 0 1.5 4.5V18.5A2 2 0 0 0 3.5 20.5z" />
    <glyph glyph-name="calendar-check-16"
      unicode="&#xE087;"
      horiz-adv-x="16" d="M0.5 10.5H15.5M15.5 8V12A1.5 1.5 0 0 1 14 13.5H2A1.5 1.5 0 0 1 0.5 12V3A1.5 1.5 0 0 1 2 1.5H6M4.5 15.5V13.5M11.5 15.5V13.5M8.5 3.5L10.5 1.5L14.5 5.5M0 16H16V0H0z" />
    <glyph glyph-name="calendar-check-24"
      unicode="&#xE088;"
      horiz-adv-x="24" d="M14.5 4.5L16.5 2.5L21.5 7.5M1.5 15.5H22.5M11 2.5H3.5A2 2 0 0 0 1.5 4.5V18.5A2 2 0 0 0 3.5 20.5H20.5A2 2 0 0 0 22.5 18.5V11M6.5 22.5L6.499 18.5M17.5 22.5L17.499 18.5" />
    <glyph glyph-name="calendar-heart-16"
      unicode="&#xE089;"
      horiz-adv-x="16" d="M0.5 10.5H15.5M4.5 15.5V13.5M11.5 15.5V13.5M10.52 8.059A1.679 1.679 0 0 1 9.907 8.416A1.713 1.713 0 0 1 8.52 8.271C8.314 8.151 8.136 7.989 8 7.796A1.651 1.651 0 0 1 7.48 8.271A1.7 1.7 0 0 1 6.093 8.416A1.679 1.679 0 0 1 5.48 8.059C5.183 7.782 5.01 7.402 5 7C4.99 6.6 5.145 6.212 5.43 5.922L5.477 5.876L8 3.5L10.52 5.877A1.476 1.476 0 0 1 10.57 8.014C10.55 8.029 10.535 8.044 10.52 8.059zM14 13.5H2A1.5 1.5 0 0 1 0.5 12V3A1.5 1.5 0 0 1 2 1.5H14A1.5 1.5 0 0 1 15.5 3V12A1.5 1.5 0 0 1 14 13.5z" />
    <glyph glyph-name="calendar-heart-24"
      unicode="&#xE08A;"
      horiz-adv-x="24" d="M1.5 15.5H22.5M6.5 22.5L6.499 18.5M17.5 22.5L17.499 18.5M15.781 12.277A2.468 2.468 0 0 1 14.871 12.854A2.44 2.44 0 0 1 12.783 12.647A2.492 2.492 0 0 1 12.001 11.9A2.473 2.473 0 0 1 10.417 12.956A2.446 2.446 0 0 1 8.219 12.28A2.46 2.46 0 0 1 7.5 10.56C7.495 9.912 7.742 9.29 8.19 8.827L8.22 8.798L12 5L15.781 8.793A2.46 2.46 0 0 1 16.5 10.513A2.46 2.46 0 0 1 15.81 12.245L15.781 12.277zM3.5 20.5H20.5A2 2 0 0 0 22.5 18.5V4.5A2 2 0 0 0 20.5 2.5H3.5A2 2 0 0 0 1.5 4.5V18.5A2 2 0 0 0 3.5 20.5z" />
    <glyph glyph-name="calendar-plus-16"
      unicode="&#xE08B;"
      horiz-adv-x="16" d="M8 8.5V3.5M5.5 6H10.5M0.5 10.5H15.5M4.5 15.5V13.5M11.5 15.5V13.5M14 13.5H2A1.5 1.5 0 0 1 0.5 12V3A1.5 1.5 0 0 1 2 1.5H14A1.5 1.5 0 0 1 15.5 3V12A1.5 1.5 0 0 1 14 13.5z" />
    <glyph glyph-name="calendar-plus-24"
      unicode="&#xE08C;"
      horiz-adv-x="24" d="M1.5 15.5H22.5M6.5 22.5L6.499 18.5M17.5 22.5L17.499 18.5M12 12.5V5.5M8.5 9H15.5M3.5 20.5H20.5A2 2 0 0 0 22.5 18.5V4.5A2 2 0 0 0 20.5 2.5H3.5A2 2 0 0 0 1.5 4.5V18.5A2 2 0 0 0 3.5 20.5z" />
    <glyph glyph-name="camera-16"
      unicode="&#xE08D;"
      horiz-adv-x="16" d="M6.5 15H6.191L6.053 14.724L5.19 13H1.5A1.5 1.5 0 0 1 0 11.5V2.5A1.5 1.5 0 0 1 1.5 1H14.5A1.5 1.5 0 0 1 16 2.5V11.5A1.5 1.5 0 0 1 14.5 13H12.809L11.947 14.724L11.81 15H6.5zM5.947 12.276L6.81 14H11.192L12.054 12.276L12.192 12H14.5A0.5 0.5 0 0 0 15 11.5V2.5A0.5 0.5 0 0 0 14.5 2H1.5A0.5 0.5 0 0 0 1 2.5V11.5A0.5 0.5 0 0 0 1.5 12H5.809L5.947 12.276zM2 11H4V10H2V11zM9 10A3 3 0 1 1 9 4A3 3 0 0 1 9 10zM5 7A4 4 0 1 0 13 7A4 4 0 0 0 5 7z" />
    <glyph glyph-name="camera-24"
      unicode="&#xE08E;"
      horiz-adv-x="24" d="M10.232 22H16.768L16.916 21.777L18.768 19H20.5A2.5 2.5 0 0 0 23 16.5V4.5A2.5 2.5 0 0 0 20.5 2H3.5A2.5 2.5 0 0 0 1 4.5V16.5A2.5 2.5 0 0 0 3.5 19H8.232L10.084 21.777L10.232 22zM10.768 21L8.916 18.223L8.768 18H3.5A1.5 1.5 0 0 1 2 16.5V4.5A1.5 1.5 0 0 1 3.5 3H20.5A1.5 1.5 0 0 1 22 4.5V16.5A1.5 1.5 0 0 1 20.5 18H18.232L18.084 18.223L16.232 21H10.768zM13.5 15A4.5 4.5 0 1 1 13.5 6A4.5 4.5 0 0 1 13.5 15zM8 10.5A5.5 5.5 0 1 0 19 10.5A5.5 5.5 0 0 0 8 10.5zM5.5 15.5A1 1 0 1 0 3.5 15.5A1 1 0 0 0 5.5 15.5z" />
    <glyph glyph-name="car-16"
      unicode="&#xE08F;"
      horiz-adv-x="16" d="M3.8 16A2 2 0 0 1 1.82 14.283L1.028 8.736L0.438 8.146A1.5 1.5 0 0 1 0 7.087V0.5A0.5 0.5 0 0 1 0.5 0H4.5A0.5 0.5 0 0 1 5 0.5V3H11V0.5A0.5 0.5 0 0 1 11.5 0H15.5A0.5 0.5 0 0 1 16 0.5V7.086A1.5 1.5 0 0 1 15.56 8.146L14.971 8.736L14.18 14.283A2 2 0 0 1 12.2 16H3.8zM13.924 9L13.19 14.141A1 1 0 0 1 12.2 15H3.8A1 1 0 0 1 2.811 14.141L2.076 9H13.924zM12 3H15V1H12V3zM15 4H1V7.086A0.5 0.5 0 0 0 1.147 7.439L1.707 8H14.293L14.853 7.44A0.5 0.5 0 0 0 15 7.086V4zM1 3H4V1H1V3zM4 6A1 1 0 1 0 2 6A1 1 0 0 0 4 6zM13 5A1 1 0 1 1 13 7A1 1 0 0 1 13 5z" />
    <glyph glyph-name="car-24"
      unicode="&#xE090;"
      horiz-adv-x="24" d="M21.5 13.5L19.848 20.934A2 2 0 0 1 17.9 22.5H7.1A2 2 0 0 1 5.152 20.934L3.5 13.5M6.5 2.5V0.5H2.5V2.5M22.5 2.5V0.5H18.5V2.5M23.5 5.5H1.5V10.672A2 2 0 0 0 2.086 12.086L3.5 13.5H21.5L22.914 12.086A2 2 0 0 0 23.5 10.672V5.5zM5.5 8.5A1 1 0 1 1 5.5 10.5A1 1 0 0 1 5.5 8.5zM19.5 8.5A1 1 0 1 1 19.5 10.5A1 1 0 0 1 19.5 8.5z" />
    <glyph glyph-name="car-lights-16"
      unicode="&#xE091;"
      horiz-adv-x="16" d="M11.5 7.5H15.5M11.5 11.5H15.5M11.5 3.5H15.5M8.5 13.5C5.186 13.5 0.5 11.5 0.5 7.5S5.186 1.5 8.5 1.5V13.5z" />
    <glyph glyph-name="car-lights-24"
      unicode="&#xE092;"
      horiz-adv-x="24" d="M1.5 11.5C1.5 16.5 8.082 19.5 12.5 19.5A33.098 33.098 0 0 0 13.5 11.5A33.098 33.098 0 0 0 12.5 3.5C8.082 3.5 1.5 6.5 1.5 11.5zM18.5 16.5H23.5M18.5 6.5H23.5M18.5 11.5H23.5" />
    <glyph glyph-name="cart-16"
      unicode="&#xE093;"
      horiz-adv-x="16" d="M2.5 13.5H14.5L12.5 8.5H2.5M2.5 13.5L1 15M2.5 13.5V8.5M2.5 8.5L1.5 5.5H15.5M4.5 2A1.5 1.5 0 1 0 1.5 2A1.5 1.5 0 0 0 4.5 2zM14.5 2A1.5 1.5 0 1 0 11.5 2A1.5 1.5 0 0 0 14.5 2z" />
    <glyph glyph-name="cart-24"
      unicode="&#xE094;"
      horiz-adv-x="24" d="M4.5 19.5H22.5L19.5 9.5H4.5M4.5 19.5L1.5 22.5M4.5 19.5V9.5M4.5 9.5L2.5 5.5H23.5M6.5 2A1.5 1.5 0 1 0 3.5 2A1.5 1.5 0 0 0 6.5 2zM22.5 2A1.5 1.5 0 1 0 19.5 2A1.5 1.5 0 0 0 22.5 2z" />
    <glyph glyph-name="cart-f-24"
      unicode="&#xE095;"
      horiz-adv-x="24" d="M4.707 20L1.5 23.207L0.793 22.5L4 19.293V9.618L1.691 5H24V6H3.309L4.809 9H19.872L23.172 20H4.707zM6.5 2A2 2 0 1 0 2.5 2A2 2 0 0 0 6.5 2zM20.5 0A2 2 0 1 1 20.5 4A2 2 0 0 1 20.5 0z" />
    <glyph glyph-name="charging-16"
      unicode="&#xE096;"
      horiz-adv-x="16" d="M4.5 11.5H14.5M6.5 11.5V14.5M12.5 11.5V14.5M5.5 11.5V8.5A4 4 0 1 1 13.5 8.5V11.5M9.5 2.5V0.5H1.5V5.5" />
    <glyph glyph-name="charging-24"
      unicode="&#xE097;"
      horiz-adv-x="24" d="M6.5 17.5H21.5M9.5 17.5V21.5M18.5 17.5V21.5M7.5 17V13C7.5 11.5 7.95 10.297 9 9C10.374 7.303 12.5 6.5 14 6.5S17.626 7.303 19 9C20.05 10.297 20.5 11.5 20.5 13V17M14 4V1.5H2.5V8.5" />
    <glyph glyph-name="chart-16"
      unicode="&#xE098;"
      horiz-adv-x="16" d="M14.5 15.5H1.5A1 1 0 0 1 0.5 14.5V1.5A1 1 0 0 1 1.5 0.5H14.5A1 1 0 0 1 15.5 1.5V14.5A1 1 0 0 1 14.5 15.5zM3.5 5.5L6.5 9.5L9.5 6.5L12.5 10.5" />
    <glyph glyph-name="chart-24"
      unicode="&#xE099;"
      horiz-adv-x="24" d="M23.5 22.5H1.5V0.5H23.5V22.5zM5.5 8.5L10.5 14.5L15.5 10.5L19.5 14.5" />
    <glyph glyph-name="chat-16"
      unicode="&#xE09A;"
      horiz-adv-x="16" d="M14.5 14.5H1.5A1 1 0 0 1 0.5 13.5V5.5A1 1 0 0 1 1.5 4.5H4.5V0.5L9.167 4.5H14.5A1 1 0 0 1 15.5 5.5V13.5A1 1 0 0 1 14.5 14.5z" />
    <glyph glyph-name="chat-24"
      unicode="&#xE09B;"
      horiz-adv-x="24" d="M1.5 21.5H23.5V6.5H13.5L6.5 1.5V6.5H1.5V21.5z" />
    <glyph glyph-name="check-12"
      unicode="&#xE09C;"
      horiz-adv-x="12" d="M0.5 4.5L3.5 1.5L11.5 10.5" />
    <glyph glyph-name="check-16"
      unicode="&#xE09D;"
      horiz-adv-x="16" d="M1 7L5 3L15 13" />
    <glyph glyph-name="check-24"
      unicode="&#xE09E;"
      horiz-adv-x="24" d="M2.5 11.5L9.5 4.5L22.5 17.5" />
    <glyph glyph-name="check-list-16"
      unicode="&#xE09F;"
      horiz-adv-x="16" d="M9.5 12.5H15.5M9.5 3.5H15.5M0.5 3.5L2.5 1.5L6.5 6.5M0.5 15.5H6.5V9.5H0.5V15.5z" />
    <glyph glyph-name="check-list-24"
      unicode="&#xE0A0;"
      horiz-adv-x="24" d="M12.5 17.5H23.5M8.5 20.5H2.5V14.5H8.5V20.5zM12.5 5.5H23.5M2.5 5.5L4.5 3.5L10.5 9.5" />
    <glyph glyph-name="chemistry-16"
      unicode="&#xE0A1;"
      horiz-adv-x="16" d="M6 10.5V7L2.589 2.969A1.5 1.5 0 0 1 3.734 0.5H12.266A1.5 1.5 0 0 1 13.411 2.969L10 7V10.5M12.5 15.5H3.5V12.5H12.5V15.5z" />
    <glyph glyph-name="chemistry-24"
      unicode="&#xE0A2;"
      horiz-adv-x="24" d="M18.5 18.5V22.5H6.5V18.5H18.5zM9.5 15.5V10.5L4.749 4.562A2.5 2.5 0 0 1 6.7 0.5H18.3A2.5 2.5 0 0 1 20.253 4.562L15.5 10.5V15.5" />
    <glyph glyph-name="chevron-down-12"
      unicode="&#xE0A3;"
      horiz-adv-x="12" d="M0.5 8L6 4L11.5 8" />
    <glyph glyph-name="chevron-down-16"
      unicode="&#xE0A4;"
      horiz-adv-x="16" d="M14.5 10.5L8 5.5L1.5 10.5" />
    <glyph glyph-name="chevron-down-24"
      unicode="&#xE0A5;"
      horiz-adv-x="24" d="M1 16L12 8L23 16" />
    <glyph glyph-name="chevron-left-12"
      unicode="&#xE0A6;"
      horiz-adv-x="12" d="M8 11.5L4 6L8 0.5" />
    <glyph glyph-name="chevron-left-16"
      unicode="&#xE0A7;"
      horiz-adv-x="16" d="M10.5 14.5L5.5 8L10.5 1.5" />
    <glyph glyph-name="chevron-left-24"
      unicode="&#xE0A8;"
      horiz-adv-x="24" d="M16 23L8 12L16 1" />
    <glyph glyph-name="chevron-right-12"
      unicode="&#xE0A9;"
      horiz-adv-x="12" d="M4 11.5L8 6L4 0.5" />
    <glyph glyph-name="chevron-right-16"
      unicode="&#xE0AA;"
      horiz-adv-x="16" d="M5.5 14.5L10.5 8L5.5 1.5" />
    <glyph glyph-name="chevron-right-24"
      unicode="&#xE0AB;"
      horiz-adv-x="24" d="M8 23L16 12L8 1" />
    <glyph glyph-name="chevron-up-12"
      unicode="&#xE0AC;"
      horiz-adv-x="12" d="M0.5 4L6 8L11.5 4" />
    <glyph glyph-name="chevron-up-16"
      unicode="&#xE0AD;"
      horiz-adv-x="16" d="M14.5 5.5L8 10.5L1.5 5.5" />
    <glyph glyph-name="chevron-up-24"
      unicode="&#xE0AE;"
      horiz-adv-x="24" d="M23 8L12 16L1 8" />
    <glyph glyph-name="chip-16"
      unicode="&#xE0AF;"
      horiz-adv-x="16" d="M5.5 13.5V15.5M10.5 13.5V15.5M15.5 5.5H13.5M15.5 10.5H13.5M2.5 5.5H0.5M2.5 10.5H0.5M5.5 0.5V2.5M10.5 0.5V2.5M3.6 13.5H12.4A1.1 1.1 0 0 0 13.5 12.4V3.6A1.1 1.1 0 0 0 12.4 2.5H3.6A1.1 1.1 0 0 0 2.5 3.6V12.4A1.1 1.1 0 0 0 3.6 13.5z" />
    <glyph glyph-name="chip-24"
      unicode="&#xE0B0;"
      horiz-adv-x="24" d="M8.5 19.5V22.5M16.5 19.5V22.5M12.5 19.5V22.5M23.5 7.5H20.5M23.5 15.5H20.5M23.5 11.5H20.5M4.5 7.5H1.5M4.5 15.5H1.5M4.5 11.5H1.5M8.5 0.5V3.5M16.5 0.5V3.5M12.5 0.5V3.5M18.5 19.5H6.5A2 2 0 0 1 4.5 17.5V5.5A2 2 0 0 1 6.5 3.5H18.5A2 2 0 0 1 20.5 5.5V17.5A2 2 0 0 1 18.5 19.5z" />
    <glyph glyph-name="chip-dip-16"
      unicode="&#xE0B1;"
      horiz-adv-x="16" d="M3.5 12.5V14.5M6.5 12.5V14.5M9.5 12.5V14.5M12.5 12.5V14.5M3.5 1.5V3.5M6.5 1.5V3.5M9.5 1.5V3.5M12.5 1.5V3.5M1.6 12.5H14.4A1.1 1.1 0 0 0 15.5 11.4V4.6A1.1 1.1 0 0 0 14.4 3.5H1.6A1.1 1.1 0 0 0 0.5 4.6V11.4A1.1 1.1 0 0 0 1.6 12.5z" />
    <glyph glyph-name="chip-dip-24"
      unicode="&#xE0B2;"
      horiz-adv-x="24" d="M8.5 18.5V21.5M12.5 18.5V21.5M16.5 18.5V21.5M20.5 18.5V21.5M4.5 18.5V21.5M4.5 2.5V5.5M12.5 2.5V5.5M16.5 2.5V5.5M20.5 2.5V5.5M8.5 2.5V5.5M21.5 18.5H3.5A2 2 0 0 1 1.5 16.5V7.5A2 2 0 0 1 3.5 5.5H21.5A2 2 0 0 1 23.5 7.5V16.5A2 2 0 0 1 21.5 18.5z" />
    <glyph glyph-name="chips-16"
      unicode="&#xE0B3;"
      horiz-adv-x="16" d="M7.5 14.5V15.5M12.5 14.5V15.5M15.5 7.5H14.5M15.5 12.5H14.5M5.5 7.5H4.5M5.5 12.5H4.5M7.5 4.5V5.5M12.5 4.5V5.5M1.5 3.5H0.5M1.5 8.5H0.5M3.5 0.5V1.5M8.5 0.5V1.5M3.5 10.5H2.6A1.1 1.1 0 0 1 1.5 9.4V2.6A1.1 1.1 0 0 1 2.6 1.5H9.4A1.1 1.1 0 0 1 10.5 2.6V3.5M6.6 14.5H13.4A1.1 1.1 0 0 0 14.5 13.4V6.6A1.1 1.1 0 0 0 13.4 5.5H6.6A1.1 1.1 0 0 0 5.5 6.6V13.4A1.1 1.1 0 0 0 6.6 14.5z" />
    <glyph glyph-name="chips-24"
      unicode="&#xE0B4;"
      horiz-adv-x="24" d="M12.5 20.5V22.5M18.5 20.5V22.5M23.5 11.5H21.5M23.5 17.5H21.5M9.5 11.5H7.5M9.5 17.5H7.5M12.5 6.5V8.5M18.5 6.5V8.5M19.786 20.5H11.214C10.267 20.5 9.5 19.732 9.5 18.786V10.214C9.5 9.267 10.268 8.5 11.214 8.5H19.786C20.733 8.5 21.5 9.268 21.5 10.214V18.786C21.5 19.732 20.733 20.5 19.786 20.5zM3.5 5.5H1.5M3.5 11.5H1.5M6.5 0.5V2.5M12.5 0.5V2.5M5.5 14.5H5.214C4.268 14.5 3.5 13.732 3.5 12.786V4.214C3.5 3.267 4.268 2.5 5.214 2.5H13.786C14.733 2.5 15.5 3.267 15.5 4.214V4.5" />
    <glyph glyph-name="clipboard-16"
      unicode="&#xE0B5;"
      horiz-adv-x="16" d="M12.5 14.5H14.5V0.5H1.5V14.5H3.5M4.5 8.5H11.5M4.5 4.5H11.5M5.5 15.5H10.5V13.5H5.5V15.5z" />
    <glyph glyph-name="clipboard-24"
      unicode="&#xE0B6;"
      horiz-adv-x="24" d="M6.5 11.5H17.5M6.5 6.5H17.5M19.5 20.5H21.5V1.5H2.5V20.5H4.5M7.5 22.5V16.5H10A2 2 0 1 0 14 16.5H16.5V22.5H7.5z" />
    <glyph glyph-name="clipboard-check-16"
      unicode="&#xE0B7;"
      horiz-adv-x="16" d="M5 7L7 5L11 9M12.5 14.5H14.5V0.5H1.5V14.5H3.5M5.5 15.5H10.5V13.5H5.5V15.5z" />
    <glyph glyph-name="clipboard-check-24"
      unicode="&#xE0B8;"
      horiz-adv-x="24" d="M9 9L11 7L15 11M19.5 20.5H21.5V1.5H2.5V20.5H4.5M7.5 22.5V16.5H10A2 2 0 1 0 14 16.5H16.5V22.5H7.5z" />
    <glyph glyph-name="clipboard-medical-16"
      unicode="&#xE0B9;"
      horiz-adv-x="16" d="M8 10.5V3.5M4.5 7H11.5M12.5 14.5H14.5V0.5H1.5V14.5H3.5M5.5 15.5H10.5V13.5H5.5V15.5z" />
    <glyph glyph-name="clipboard-medical-24"
      unicode="&#xE0BA;"
      horiz-adv-x="24" d="M12 13.5V4.5M7.5 9H16.5M19.5 20.5H21.5V1.5H2.5V20.5H4.5M7.5 22.5V16.5H10A2 2 0 1 0 14 16.5H16.5V22.5H7.5z" />
    <glyph glyph-name="clock-16"
      unicode="&#xE0BB;"
      horiz-adv-x="16" d="M8.5 12.5V7.5H12.5M15.5 7.5A7 7 0 1 0 1.5 7.5A7 7 0 0 0 15.5 7.5z" />
    <glyph glyph-name="clock-24"
      unicode="&#xE0BC;"
      horiz-adv-x="24" d="M12.5 0.5C18.575 0.5 23.5 5.425 23.5 11.5S18.575 22.5 12.5 22.5S1.5 17.575 1.5 11.5S6.425 0.5 12.5 0.5zM12.5 19.5V11.5H18.5" />
    <glyph glyph-name="cloud-16"
      unicode="&#xE0BD;"
      horiz-adv-x="16" d="M13 8.5C12.827 8.5 12.658 8.482 12.495 8.449C12.495 8.467 12.5 8.483 12.5 8.5A5 5 0 0 1 2.5 8.5C2.5 8.483 2.505 8.467 2.505 8.45A2.5 2.5 0 0 1 3 3.5H13A2.5 2.5 0 1 1 13 8.5z" />
    <glyph glyph-name="cloud-24"
      unicode="&#xE0BE;"
      horiz-adv-x="24" d="M18.682 4.84A3.83 3.83 0 0 1 22.5 8.66A3.83 3.83 0 0 1 18.682 12.477C18.395 16.2 15.34 19.16 11.522 19.16C7.705 19.16 4.555 16.106 4.364 12.383C2.74 12 1.5 10.472 1.5 8.659A3.83 3.83 0 0 1 5.318 4.841H18.682z" />
    <glyph glyph-name="coach-16"
      unicode="&#xE0BF;"
      horiz-adv-x="16" d="M12.053 4.724A0.5 0.5 0 1 1 12.947 4.276L12.053 4.724zM13.5 6.5L13.947 6.276A0.5 0.5 0 0 1 13.854 6.854L13.5 6.5zM10.5 9.5L10.854 9.854A0.5 0.5 0 0 1 10.5 10V9.5zM5.5 9.5V10A0.5 0.5 0 0 1 5.146 9.854L5.5 9.5zM2.5 6.5L2.146 6.854A0.5 0.5 0 0 1 2.053 6.276L2.5 6.5zM3.053 4.276A0.5 0.5 0 1 1 3.947 4.724L3.053 4.276zM5 1.5V1H6V1.5H5zM10 1.5V1H11V1.5H10zM9.5 13.5A1.5 1.5 0 0 0 8 12V11A2.5 2.5 0 0 1 10.5 13.5H9.5zM8 12A1.5 1.5 0 0 0 6.5 13.5H5.5A2.5 2.5 0 0 1 8 11V12zM6.5 13.5A1.5 1.5 0 0 0 8 15V16A2.5 2.5 0 0 1 5.5 13.5H6.5zM8 15A1.5 1.5 0 0 0 9.5 13.5H10.5A2.5 2.5 0 0 1 8 16V15zM12.947 4.276L13.947 6.276L13.053 6.724L12.053 4.724L12.947 4.276zM13.854 6.854L10.854 9.854L10.146 9.146L13.146 6.146L13.854 6.854zM10.5 10H5.5V9H10.5V10zM5.146 9.854L2.146 6.854L2.854 6.146L5.854 9.146L5.146 9.854zM2.053 6.276L3.053 4.276L3.947 4.724L2.947 6.724L2.053 6.276zM5 9.5V1.5H6V9.5H5zM10 9.5V1.5H11V9.5H10z" />
    <glyph glyph-name="coach-24"
      unicode="&#xE0C0;"
      horiz-adv-x="24" d="M8.5 12.5V0.5M16.5 12.5V0.5M19.5 5.5L20.991 7.737A1 1 0 0 1 20.784 9.073L16.5 12.5H8.5L4.216 9.073A1 1 0 0 1 4.009 7.737L5.5 5.5M12.5 16.5A3 3 0 1 1 12.5 22.5A3 3 0 0 1 12.5 16.5z" />
    <glyph glyph-name="code-16"
      unicode="&#xE0C1;"
      horiz-adv-x="16" d="M10.5 14.5L5.5 1.5M3.5 11.5L0.5 8.5L3.5 5.5M12.5 11.5L15.5 8.5L12.5 5.5" />
    <glyph glyph-name="code-24"
      unicode="&#xE0C2;"
      horiz-adv-x="24" d="M6.5 15.5L2.5 11.5L6.5 7.5M18.5 15.5L22.5 11.5L18.5 7.5M10.5 3.5L14.5 19.5" />
    <glyph glyph-name="cogwheel-16"
      unicode="&#xE0C3;"
      horiz-adv-x="16" d="M8 5.5A2.5 2.5 0 1 1 8 10.5A2.5 2.5 0 0 1 8 5.5zM15.5 7V9L13.323 9.363A5.463 5.463 0 0 1 12.728 10.8L14.011 12.596L12.596 14.01L10.8 12.728A5.463 5.463 0 0 1 9.363 13.323L9 15.5H7L6.637 13.323A5.463 5.463 0 0 1 5.2 12.728L3.404 14.01L1.99 12.596L3.272 10.8A5.463 5.463 0 0 1 2.677 9.363L0.5 9V7L2.677 6.637C2.808 6.125 3.009 5.643 3.272 5.2L1.99 3.404L3.404 1.99L5.2 3.272C5.643 3.009 6.125 2.808 6.637 2.677L7 0.5H9L9.363 2.677A5.463 5.463 0 0 1 10.8 3.272L12.596 1.989L14.01 3.403L12.728 5.2C12.991 5.643 13.192 6.125 13.323 6.637L15.5 7z" />
    <glyph glyph-name="cogwheel-24"
      unicode="&#xE0C4;"
      horiz-adv-x="24" d="M22.5 10.568V13.432L19.4 13.855A7.563 7.563 0 0 1 18.54 15.921L20.434 18.413L18.413 20.437L15.921 18.543A7.567 7.567 0 0 1 13.855 19.403L13.432 22.5H10.568L10.145 19.4A7.567 7.567 0 0 1 8.079 18.54L5.587 20.438L3.563 18.413L5.457 15.92A7.567 7.567 0 0 1 4.597 13.854L1.5 13.431V10.567L4.6 10.144C4.783 9.417 5.072 8.72 5.46 8.078L3.566 5.586L5.59 3.562L8.082 5.456A7.566 7.566 0 0 1 10.148 4.596L10.568 1.499H13.432L13.855 4.599A7.564 7.564 0 0 1 15.921 5.459L18.413 3.565L20.437 5.589L18.543 8.081A7.566 7.566 0 0 1 19.403 10.147L22.5 10.567zM12 9A3 3 0 1 1 12 15A3 3 0 0 1 12 9z" />
    <glyph glyph-name="coins-16"
      unicode="&#xE0C5;"
      horiz-adv-x="16" d="M2.5 11.5V9C2.5 7.619 4.962 6.5 8 6.5S13.5 7.619 13.5 9V11.5M2.5 8.5V6C2.5 4.619 4.962 3.5 8 3.5S13.5 4.619 13.5 6V8.5M2.5 5.5V3C2.5 1.619 4.962 0.5 8 0.5S13.5 1.619 13.5 3V5.5M13.5 12C13.5 10.62 11.038 9.5 8 9.5S2.5 10.62 2.5 12S4.962 14.5 8 14.5S13.5 13.38 13.5 12z" />
    <glyph glyph-name="coins-24"
      unicode="&#xE0C6;"
      horiz-adv-x="24" d="M1.5 19.5V15.5M1.5 19.5C1.5 17.843 4.186 16.5 7.5 16.5S13.5 17.843 13.5 19.5M1.5 19.5C1.5 21.157 4.186 22.5 7.5 22.5S13.5 21.157 13.5 19.5M1.5 15.5C1.5 13.843 4.186 12.5 7.5 12.5C8.593 12.5 9.618 12.646 10.5 12.901M1.5 15.5V11.5M13.5 15.23V19.5M1.5 11.5C1.5 9.843 4.186 8.5 7.5 8.5C8.593 8.5 9.617 8.647 10.5 8.902M1.5 11.5V7.5C1.5 5.843 4.186 4.5 7.5 4.5A10.9 10.9 0 0 1 10.5 4.901M10.5 12.5V8.5M10.5 12.5C10.5 10.843 13.186 9.5 16.5 9.5S22.5 10.843 22.5 12.5M10.5 12.5C10.5 14.157 13.186 15.5 16.5 15.5S22.5 14.157 22.5 12.5M10.5 8.5C10.5 6.843 13.186 5.5 16.5 5.5S22.5 6.843 22.5 8.5M10.5 8.5V4.5C10.5 2.843 13.186 1.5 16.5 1.5S22.5 2.843 22.5 4.5V8.5M22.5 8.5V12.5" />
    <glyph glyph-name="comment-16"
      unicode="&#xE0C7;"
      horiz-adv-x="16" d="M4.5 10.5H11.5M4.5 7.5H11.5M15.5 9C15.5 12.59 12.142 15.5 8 15.5C3.858 15.5 0.5 12.59 0.5 9S3.858 2.5 8 2.5C8.525 2.5 9.037 2.548 9.532 2.637L13.5 0.5V4.591C14.738 5.75 15.5 7.296 15.5 9z" />
    <glyph glyph-name="comment-24"
      unicode="&#xE0C8;"
      horiz-adv-x="24" d="M20.9 6.7C22.5 8.3 23.5 10.3 23.5 12.5C23.5 17.5 18.6 21.5 12.5 21.5S1.5 17.5 1.5 12.5S6.4 3.5 12.5 3.5C13.6 3.5 14.6 3.6 15.6 3.9L21.5 1.5L20.9 6.7zM8.5 14.5H16.5M8.5 10.5H13.5" />
    <glyph glyph-name="community-16"
      unicode="&#xE0C9;"
      horiz-adv-x="16" d="M10.841 7A2.986 2.986 0 0 0 12.5 7.5C14.842 7.5 15.5 5.413 15.5 3.5H12.5M8.5 11.5A3 3 0 1 0 2.5 11.5A3 3 0 0 0 8.5 11.5zM14.5 11.5A2 2 0 1 0 10.5 11.5A2 2 0 0 0 14.5 11.5zM5.5 6.5C8.223 6.5 10.5 4.223 10.5 1.5H0.5C0.5 4.223 2.777 6.5 5.5 6.5z" />
    <glyph glyph-name="community-24"
      unicode="&#xE0CA;"
      horiz-adv-x="24" d="M17.606 8.5H22.5V12.44C22.5 13.125 22.141 13.76 21.553 14.112L19.123 15.57M16 14.5A3.5 3.5 0 0 1 19.5 18V19A3.5 3.5 0 0 1 13.167 21.06M14.07 10.354L18.189 7.886A2.7 2.7 0 0 0 19.5 5.571V1.5H1.5V5.571C1.5 6.52 1.998 7.399 2.811 7.886L6.93 10.354M10.5 9.5A5 5 0 0 0 5.5 14.5V16.5A5 5 0 0 0 15.5 16.5V14.5A5 5 0 0 0 10.5 9.5z" />
    <glyph glyph-name="contact-16"
      unicode="&#xE0CB;"
      horiz-adv-x="16" d="M14.5 15.5H1.5A1 1 0 0 1 0.5 14.5V4.5A1 1 0 0 1 1.5 3.5H5.5L8 0.5L10.5 3.5H14.5A1 1 0 0 1 15.5 4.5V14.5A1 1 0 0 1 14.5 15.5zM8 10.5A1.5 1.5 0 1 1 8 13.5A1.5 1.5 0 0 1 8 10.5zM7.5 8.5H8.5A3 3 0 0 0 11.5 5.5H4.5A3 3 0 0 0 7.5 8.5z" />
    <glyph glyph-name="contact-24"
      unicode="&#xE0CC;"
      horiz-adv-x="24" d="M23.5 22.5H1.5V5.5H9.167L12.5 1.5L15.833 5.5H23.5V22.5zM13.492 13.763L15.7 12.1C16.204 11.722 16.5 11.13 16.5 10.5V9.5H8.5V10.5C8.5 11.13 8.796 11.722 9.3 12.1L11.508 13.763M12.5 13.5A2 2 0 0 0 10.5 15.5V16.5A2 2 0 1 0 14.5 16.5V15.5A2 2 0 0 0 12.5 13.5z" />
    <glyph glyph-name="copy-16"
      unicode="&#xE0CD;"
      horiz-adv-x="16" d="M11.5 2.5H15.5V15.5H4.5V13.5M8.5 10.5H0.5V0.5H8.5V10.5z" />
    <glyph glyph-name="copy-24"
      unicode="&#xE0CE;"
      horiz-adv-x="24" d="M16.5 4.5H22.5V22.5H7.5V17.5M2.5 13.5H12.5V0.5H2.5V13.5z" />
    <glyph glyph-name="copyright-16"
      unicode="&#xE0CF;"
      horiz-adv-x="16" d="M10.5 12.072A4.2 4.2 0 0 1 8.571 12.5C5.357 12.5 4.5 10.143 4.5 8S5.357 3.5 8.571 3.5A4.2 4.2 0 0 1 10.5 3.928M15.5 8A7.5 7.5 0 1 0 0.5 8A7.5 7.5 0 0 0 15.5 8z" />
    <glyph glyph-name="copyright-24"
      unicode="&#xE0D0;"
      horiz-adv-x="24" d="M14.864 17.183A5.357 5.357 0 0 1 12.409 17.727C8.319 17.727 7.227 14.727 7.227 12C7.227 9.273 8.318 6.273 12.409 6.273C13.259 6.257 14.1 6.443 14.864 6.817M22.5 12C22.5 6.201 17.799 1.5 12 1.5S1.5 6.201 1.5 12S6.201 22.5 12 22.5S22.5 17.799 22.5 12z" />
    <glyph glyph-name="corner-arrow-down-right-16"
      unicode="&#xE0D1;"
      horiz-adv-x="16" d="M14.5 5.5L14.854 5.146L15.207 5.5L14.854 5.854L14.5 5.5zM1.5 8.5H1H1.5zM2 13.5V14H1V13.5H2zM10.146 1.854L9.793 1.5L10.5 0.793L10.854 1.146L10.146 1.854zM10.854 9.854L10.5 10.207L9.793 9.5L10.146 9.146L10.854 9.854zM14.5 6H4.5V5H14.5V6zM4.5 6A2.5 2.5 0 0 0 2.732 6.732L2.025 6.025A3.5 3.5 0 0 1 4.5 5V6zM2.732 6.732A2.5 2.5 0 0 0 2 8.5H1A3.5 3.5 0 0 1 2.025 6.025L2.732 6.732zM2 8.5V13.5H1V8.5H2zM10.854 1.146L14.854 5.146L14.146 5.854L10.146 1.854L10.854 1.146zM14.854 5.854L10.854 9.854L10.146 9.146L14.146 5.146L14.854 5.854z" />
    <glyph glyph-name="corner-arrow-down-right-24"
      unicode="&#xE0D2;"
      horiz-adv-x="24" d="M21.5 7.5H9.5A6 6 0 0 0 3.5 13.5V21.5M21.5 7.5L16.5 12.5M21.5 7.5L16.5 2.5" />
    <glyph glyph-name="cross-12"
      unicode="&#xE0D3;"
      horiz-adv-x="12" d="M1.5 10.5L10.5 1.5M10.5 10.5L1.5 1.5" />
    <glyph glyph-name="cross-16"
      unicode="&#xE0D4;"
      horiz-adv-x="16" d="M13.5 13.5L2.5 2.5M2.5 13.5L13.5 2.5" />
    <glyph glyph-name="cross-24"
      unicode="&#xE0D5;"
      horiz-adv-x="24" d="M19.5 18.5L5.5 4.5M19.5 4.5L5.5 18.5" />
    <glyph glyph-name="curved-arrow-left-16"
      unicode="&#xE0D6;"
      horiz-adv-x="16" d="M0.5 11.5H11A4.5 4.5 0 0 0 11 2.5H4.5M4.5 7.5L0.5 11.5L4.5 15.5" />
    <glyph glyph-name="curved-arrow-left-24"
      unicode="&#xE0D7;"
      horiz-adv-x="24" d="M2.5 17.5H16.5A7 7 0 1 0 16.5 3.5H9.5M7.5 12.5L2.5 17.5L7.5 22.5" />
    <glyph glyph-name="curved-arrow-right-16"
      unicode="&#xE0D8;"
      horiz-adv-x="16" d="M15.5 11.5H5A4.5 4.5 0 0 1 5 2.5H11.5M11.5 7.5L15.5 11.5L11.5 15.5" />
    <glyph glyph-name="curved-arrow-right-24"
      unicode="&#xE0D9;"
      horiz-adv-x="24" d="M22.5 17.5H8.5A7 7 0 1 1 8.5 3.5H15.5M17.5 12.5L22.5 17.5L17.5 22.5" />
    <glyph glyph-name="cutlery-16"
      unicode="&#xE0DA;"
      horiz-adv-x="16" d="M11.879 3.124L13.987 1.017M2.29 12.71L7.999 7.004M3.84 14.26L7.223 10.884L4.12 7.78L0.74 11.16M2.052 1.017L15.243 14.207A6.3 6.3 0 0 0 13.691 8C10.947 5.257 9.035 4.9 9.035 4.9M0 16H16V0H0z" />
    <glyph glyph-name="cutlery-24"
      unicode="&#xE0DB;"
      horiz-adv-x="24" d="M17 5.5L20 2.5M4 18.5L12 10.5M6 20.5L11 15.5L7 11.5L2 16.5M4 2.5L21 19.5A8.114 8.114 0 0 0 19 11.5C15.464 7.964 13 7.5 13 7.5" />
    <glyph glyph-name="dashboard-16"
      unicode="&#xE0DC;"
      horiz-adv-x="16" d="M14.5 15.5H1.5A1 1 0 0 1 0.5 14.5V1.5A1 1 0 0 1 1.5 0.5H14.5A1 1 0 0 1 15.5 1.5V14.5A1 1 0 0 1 14.5 15.5zM6.5 12.5H3.5V9.5H6.5V12.5zM6.5 6.5H3.5V3.5H6.5V6.5zM12.5 12.5H9.5V3.5H12.5V12.5z" />
    <glyph glyph-name="dashboard-24"
      unicode="&#xE0DD;"
      horiz-adv-x="24" d="M22.5 21.5H2.5V1.5H22.5V21.5zM10.5 17.5H6.5V13.5H10.5V17.5zM10.5 9.5H6.5V5.5H10.5V9.5zM18.5 17.5H14.5V5.5H18.5V17.5z" />
    <glyph glyph-name="database-16"
      unicode="&#xE0DE;"
      horiz-adv-x="16" d="M1.5 9.5V3C1.5 1.619 4.41 0.5 8 0.5S14.5 1.619 14.5 3V9.5M14.5 13C14.5 11.62 11.59 10.5 8 10.5S1.5 11.62 1.5 13S4.41 15.5 8 15.5S14.5 14.38 14.5 13z" />
    <glyph glyph-name="database-24"
      unicode="&#xE0DF;"
      horiz-adv-x="24" d="M3.5 19.667V4.556C3.5 2.95 7.278 1.722 12 1.722C16.722 1.722 20.5 2.95 20.5 4.556V19.666M3.5 19.666C3.5 18.102 7.306 16.833 12 16.833S20.5 18.102 20.5 19.667M3.5 19.667C3.5 21.23 7.306 22.5 12 22.5S20.5 21.231 20.5 19.667M20.5 12.111C20.5 10.506 16.722 9.278 12 9.278C7.278 9.278 3.5 10.506 3.5 12.111" />
    <glyph glyph-name="delete-12"
      unicode="&#xE0E0;"
      horiz-adv-x="12" d="M0.5 9.5H11.5M4.5 9.5V11.5H7.5V9.5M9.5 7.5V1.5A1 1 0 0 0 8.5 0.5H3.5A1 1 0 0 0 2.5 1.5V7.5" />
    <glyph glyph-name="delete-16"
      unicode="&#xE0E1;"
      horiz-adv-x="16" d="M2.5 10.5V2.5A2 2 0 0 1 4.5 0.5H11.5A2 2 0 0 1 13.5 2.5V10.5M1.5 12.5H14.5M5.5 12.5V15.5H10.5V12.5" />
    <glyph glyph-name="delete-24"
      unicode="&#xE0E2;"
      horiz-adv-x="24" d="M20 15V3A2 2 0 0 0 18 1H6A2 2 0 0 0 4 3V15M1 19H23M8 19V23H16V19" />
    <glyph glyph-name="delete-forever-16"
      unicode="&#xE0E3;"
      horiz-adv-x="16" d="M2.5 10.5V2.5A2 2 0 0 1 4.5 0.5H11.5A2 2 0 0 1 13.5 2.5V10.5M1.5 12.5H14.5M5.5 12.5V15.5H10.5V12.5M5.5 3.5L10.5 8.5M10.5 3.5L5.5 8.5" />
    <glyph glyph-name="delete-forever-24"
      unicode="&#xE0E4;"
      horiz-adv-x="24" d="M20.5 14.5V2.5A2 2 0 0 0 18.5 0.5H6.5A2 2 0 0 0 4.5 2.5V14.5M1.5 18.5H23.5M8.5 18.5V22.5H16.5V18.5M15.5 11.515L9.5 5.515M15.5 5.515L9.5 11.515" />
    <glyph glyph-name="delete-text-16"
      unicode="&#xE0E5;"
      horiz-adv-x="16" d="M7.5 10.5L12.5 5.5M12.5 10.5L7.5 5.5M5.5 2.5H14A1.5 1.5 0 0 1 15.5 4V12A1.5 1.5 0 0 1 14 13.5H5.5L0.5 8L5.5 2.5z" />
    <glyph glyph-name="delete-text-24"
      unicode="&#xE0E6;"
      horiz-adv-x="24" d="M20.5 3.5H8.5L2.5 11.5L8.5 19.5H20.5A2 2 0 0 0 22.5 17.5V5.5A2 2 0 0 0 20.5 3.5zM11.5 14.5L17.5 8.5M17.5 14.5L11.5 8.5" />
    <glyph glyph-name="desktop-16"
      unicode="&#xE0E7;"
      horiz-adv-x="16" d="M4.5 6.5H0.5V12.5H4.5M2.5 3.5H4.5M9.5 11.5H12.5M7.5 15.5H14.5A1 1 0 0 0 15.5 14.5V1.5A1 1 0 0 0 14.5 0.5H7.5A1 1 0 0 0 6.5 1.5V14.5A1 1 0 0 0 7.5 15.5zM12.5 6A1.5 1.5 0 1 0 9.5 6A1.5 1.5 0 0 0 12.5 6z" />
    <glyph glyph-name="desktop-24"
      unicode="&#xE0E8;"
      horiz-adv-x="24" d="M3.5 2.5H6.5M6.5 6.5H1.5V20.5H6.5M23.5 22.5H9.5V0.5H23.5V22.5zM14.5 17.5H18.5M14.5 13.5H18.5M16.5 5.5A2 2 0 1 1 16.5 9.5A2 2 0 0 1 16.5 5.5z" />
    <glyph glyph-name="dot-12"
      unicode="&#xE0E9;"
      horiz-adv-x="12" d="M6 4.5A1.5 1.5 0 1 1 6 7.5A1.5 1.5 0 0 1 6 4.5z" />
    <glyph glyph-name="double-chevron-left-12"
      unicode="&#xE0EA;"
      horiz-adv-x="12" d="M10 11.5L6 6L10 0.5M6 11.5L2 6L6 0.5" />
    <glyph glyph-name="double-chevron-left-16"
      unicode="&#xE0EB;"
      horiz-adv-x="16" d="M8.5 14.5L3.5 8L8.5 1.5M12.5 14.5L7.5 8L12.5 1.5" />
    <glyph glyph-name="double-chevron-left-24"
      unicode="&#xE0EC;"
      horiz-adv-x="24" d="M19 23L11 12L19 1M13 23L5 12L13 1" />
    <glyph glyph-name="double-chevron-right-12"
      unicode="&#xE0ED;"
      horiz-adv-x="12" d="M2 11.5L6 6L2 0.5M6 11.5L10 6L6 0.5" />
    <glyph glyph-name="double-chevron-right-16"
      unicode="&#xE0EE;"
      horiz-adv-x="16" d="M7.5 14.5L12.5 8L7.5 1.5M3.5 14.5L8.5 8L3.5 1.5" />
    <glyph glyph-name="double-chevron-right-24"
      unicode="&#xE0EF;"
      horiz-adv-x="24" d="M5 23L13 12L5 1M11 23L19 12L11 1" />
    <glyph glyph-name="download-12"
      unicode="&#xE0F0;"
      horiz-adv-x="12" d="M10 6.5L6 2.5M6 2.5L2 6.5M6 2.5V11.5M11.5 0.5H0.5" />
    <glyph glyph-name="download-16"
      unicode="&#xE0F1;"
      horiz-adv-x="16" d="M4 9L8 4.5M8 4.5L12 9M8 4.5V15.5M15.5 5.5V2A1.5 1.5 0 0 0 14 0.5H2A1.5 1.5 0 0 0 0.5 2V5.5" />
    <glyph glyph-name="download-24"
      unicode="&#xE0F2;"
      horiz-adv-x="24" d="M2.5 8.5V4.5A2 2 0 0 1 4.5 2.5H19.5A2 2 0 0 1 21.5 4.5V8.5M12 22.5V8M7 12.5L12 7.5L17 12.5" />
    <glyph glyph-name="download-check-16"
      unicode="&#xE0F3;"
      horiz-adv-x="16" d="M15.5 5.5V2A1.5 1.5 0 0 0 14 0.5H2A1.5 1.5 0 0 0 0.5 2V5.5M3.5 10L7 6.5L13 12.5" />
    <glyph glyph-name="download-check-24"
      unicode="&#xE0F4;"
      horiz-adv-x="24" d="M3 8.5V9H2V8.5H3zM2.5 4.5H2H2.5zM22 8.5V9H21V8.5H22zM5.854 14.854L5.5 15.207L4.793 14.5L5.146 14.146L5.854 14.854zM10 10L9.646 9.646L10 9.293L10.354 9.646L10 10zM18.854 18.146L19.207 18.5L18.5 19.207L18.146 18.854L18.854 18.146zM2 8.5V4.5H3V8.5H2zM2 4.5A2.5 2.5 0 0 1 2.732 2.732L3.439 3.439A1.5 1.5 0 0 0 3 4.5H2zM2.732 2.732A2.5 2.5 0 0 1 4.5 2V3A1.5 1.5 0 0 0 3.44 3.44L2.732 2.732zM4.5 2H19.5V3H4.5V2zM19.5 2A2.5 2.5 0 0 1 21.268 2.732L20.561 3.439A1.5 1.5 0 0 0 19.5 3V2zM21.268 2.732A2.5 2.5 0 0 1 22 4.5H21A1.5 1.5 0 0 0 20.56 3.44L21.268 2.732zM22 4.5V8.5H21V4.5H22zM10.354 9.646L18.854 18.146L18.146 18.854L9.646 10.354L10.354 9.646zM5.146 14.146L7.146 12.146L7.854 12.854L5.854 14.854L5.146 14.146zM7.146 12.146L9.646 9.646L10.354 10.354L7.854 12.854L7.146 12.146z" />
    <glyph glyph-name="download-plus-16"
      unicode="&#xE0F5;"
      horiz-adv-x="16" d="M15.5 5.5V2A1.5 1.5 0 0 0 14 0.5H2A1.5 1.5 0 0 0 0.5 2V5.5M8 14V10M8 10V6M8 10H4M8 10H12" />
    <glyph glyph-name="download-plus-24"
      unicode="&#xE0F6;"
      horiz-adv-x="24" d="M2.5 8.5V4.5A2 2 0 0 1 4.5 2.5H19.5A2 2 0 0 1 21.5 4.5V8.5M12 21V15M12 15V9M12 15H6M12 15H18" />
    <glyph glyph-name="drag-arrows-16"
      unicode="&#xE0F7;"
      horiz-adv-x="16" d="M8 1V15M8 1L6 3M8 1L10 3M8 15L6 13M8 15L10 13M1 8H15M1 8L3 10M1 8L3 6M15 8L13 10M15 8L13 6" />
    <glyph glyph-name="drag-arrows-24"
      unicode="&#xE0F8;"
      horiz-adv-x="24" d="M12 22V2M2 12H22M15 19L12 22L9 19M19 9L22 12L19 15M9 5L12 2L15 5M5 15L2 12L5 9" />
    <glyph glyph-name="drag-indicator-16"
      unicode="&#xE0F9;"
      horiz-adv-x="16" d="M7 3.5C7 2.675 6.325 2 5.5 2S4 2.675 4 3.5S4.675 5 5.5 5S7 4.325 7 3.5zM5.5 9.5C4.675 9.5 4 8.825 4 8S4.675 6.5 5.5 6.5S7 7.175 7 8S6.325 9.5 5.5 9.5zM5.5 14C4.675 14 4 13.325 4 12.5S4.675 11 5.5 11S7 11.675 7 12.5S6.325 14 5.5 14zM10.5 11C11.325 11 12 11.675 12 12.5S11.325 14 10.5 14S9 13.325 9 12.5S9.675 11 10.5 11zM10.5 9.5C9.675 9.5 9 8.825 9 8S9.675 6.5 10.5 6.5S12 7.175 12 8S11.325 9.5 10.5 9.5zM10.5 5C9.675 5 9 4.325 9 3.5S9.675 2 10.5 2S12 2.675 12 3.5S11.325 5 10.5 5z" />
    <glyph glyph-name="drag-indicator-24"
      unicode="&#xE0FA;"
      horiz-adv-x="24" d="M11 6C11 4.9 10.1 4 9 4S7 4.9 7 6S7.9 8 9 8S11 7.1 11 6zM9 14C7.9 14 7 13.1 7 12S7.9 10 9 10S11 10.9 11 12S10.1 14 9 14zM9 20C7.9 20 7 19.1 7 18S7.9 16 9 16S11 16.9 11 18S10.1 20 9 20zM15 16C16.1 16 17 16.9 17 18S16.1 20 15 20S13 19.1 13 18S13.9 16 15 16zM15 14C13.9 14 13 13.1 13 12S13.9 10 15 10S17 10.9 17 12S16.1 14 15 14zM15 8C13.9 8 13 7.1 13 6S13.9 4 15 4S17 4.9 17 6S16.1 8 15 8z" />
    <glyph glyph-name="duplicate-16"
      unicode="&#xE0FB;"
      horiz-adv-x="16" d="M6 2.3A5.452 5.452 0 1 1 13.7 10M11.41 10.045A5.455 5.455 0 1 0 0.5 10.045A5.455 5.455 0 0 0 11.41 10.045z" />
    <glyph glyph-name="duplicate-24"
      unicode="&#xE0FC;"
      horiz-adv-x="24" d="M9.184 3.535A7.989 7.989 0 0 1 20.465 14.816M17.5 14.5A8 8 0 1 0 1.5 14.5A8 8 0 0 0 17.5 14.5z" />
    <glyph glyph-name="editor-16"
      unicode="&#xE0FD;"
      horiz-adv-x="16" d="M12.609 15L12.962 15.354L12.609 15.707L12.255 15.354L12.609 15zM15 12.609L15.354 12.255L15.707 12.609L15.354 12.962L15 12.61zM7.348 4.957L7.485 4.476L7.61 4.511L7.701 4.603L7.348 4.957zM4 4L3.52 4.137L3.272 3.272L4.137 3.519L4 4zM4.957 7.348L4.603 7.7L4.511 7.609L4.476 7.484L4.956 7.347zM15 7.5V8H14V7.5H15zM7.5 14H8V15H7.5V14zM12.255 14.646L14.646 12.256L15.354 12.962L12.962 15.354L12.255 14.646zM14.646 12.962L6.994 5.31L7.701 4.603L15.354 12.255L14.646 12.962zM7.21 5.437L3.863 4.481L4.137 3.519L7.485 4.476L7.21 5.437zM4.48 3.863L5.437 7.21L4.476 7.485L3.519 4.137L4.481 3.863zM5.31 6.994L12.962 14.646L12.255 15.354L4.603 7.7L5.31 6.993zM14 7.5V3H15V7.5H14zM14 3A1 1 0 0 0 13 2V1A2 2 0 0 1 15 3H14zM13 2H3V1H13V2zM3 2A1 1 0 0 0 2 3H1A2 2 0 0 1 3 1V2zM2 3V13H1V3H2zM2 13A1 1 0 0 0 3 14V15A2 2 0 0 1 1 13H2zM3 14H7.5V15H3V14z" />
    <glyph glyph-name="editor-24"
      unicode="&#xE0FE;"
      horiz-adv-x="24" d="M9.5 19H10V20H9.5V19zM20 9.5V10H19V9.5H20zM11.5 8.5L11.621 8.015L11.756 8.049L11.854 8.146L11.5 8.5zM7.5 7.5L7.015 7.621L6.813 6.813L7.621 7.015L7.5 7.5zM8.5 11.5L8.146 11.854L8.049 11.756L8.015 11.621L8.5 11.5zM18.793 21.793L18.439 22.147L18.793 21.793zM20.207 21.793L19.853 21.44L20.207 21.793zM21.793 20.207L21.439 19.853L21.793 20.207zM21.793 18.793L21.44 19.147L21.793 18.793zM9.5 20H4.5V19H9.5V20zM4.5 20A2.5 2.5 0 0 1 2 17.5H3A1.5 1.5 0 0 0 4.5 19V20zM2 17.5V4.5H3V17.5H2zM2 4.5A2.5 2.5 0 0 1 4.5 2V3A1.5 1.5 0 0 0 3 4.5H2zM4.5 2H17.5V3H4.5V2zM17.5 2A2.5 2.5 0 0 1 20 4.5H19A1.5 1.5 0 0 0 17.5 3V2zM20 4.5V9.5H19V4.5H20zM16.146 19.146L19.146 16.146L19.854 16.854L16.854 19.854L16.146 19.146zM11.379 8.986L7.379 7.986L7.621 7.015L11.621 8.015L11.379 8.985zM7.985 7.379L8.985 11.379L8.015 11.621L7.015 7.621L7.985 7.379zM8.854 11.146L19.147 21.44L18.439 22.148L8.146 11.854L8.854 11.146zM19.147 21.44A0.499 0.499 0 0 0 19.853 21.44L20.561 22.147A1.499 1.499 0 0 1 18.439 22.147L19.147 21.44zM19.853 21.44L21.439 19.854L22.147 20.562L20.561 22.148L19.853 21.44zM21.439 19.854A0.499 0.499 0 0 0 21.439 19.148L22.146 18.44A1.499 1.499 0 0 1 22.146 20.562L21.439 19.854zM21.439 19.148L11.146 8.853L11.854 8.146L22.147 18.44L21.439 19.148z" />
    <glyph glyph-name="elearning-16"
      unicode="&#xE0FF;"
      horiz-adv-x="16" d="M8.5 0.5V12.5M8.5 0.5L1.5 3.5V15.5L8.5 12.5M8.5 0.5L15.5 3.5V15.5L8.5 12.5" />
    <glyph glyph-name="elearning-24"
      unicode="&#xE100;"
      horiz-adv-x="24" d="M12.5 18.5V1.5M1.5 21.5L12.5 18.5L23.5 21.5V4.5L12.5 1.5L1.5 4.5V21.5z" />
    <glyph glyph-name="enlarge-16"
      unicode="&#xE101;"
      horiz-adv-x="16" d="M10.5 15.5H15.5M15.5 15.5V10.5M15.5 15.5L9.5 9.5M0.5 5.5V0.5M0.5 0.5H5.5M0.5 0.5L6.5 6.5" />
    <glyph glyph-name="enlarge-24"
      unicode="&#xE102;"
      horiz-adv-x="24" d="M22 22L14 14M15 22H22V15M2 2L10 10M2 9V2H9" />
    <glyph glyph-name="facebook"
      unicode="&#xE103;"
      horiz-adv-x="16" d="M15.75 8A7.749 7.749 0 0 1 8 15.75A7.752 7.752 0 0 1 6.79 0.344V5.759H4.823V8H6.79V9.707C6.79 11.65 7.946 12.723 9.717 12.723C10.565 12.723 11.452 12.571 11.452 12.571V10.665H10.474C9.512 10.665 9.212 10.067 9.212 9.455V8H11.361L11.017 5.76H9.212V0.344A7.752 7.752 0 0 1 15.75 8z" />
    <glyph glyph-name="factory-16"
      unicode="&#xE104;"
      horiz-adv-x="16" d="M1.5 9.5H3.5L4.5 5.5L9.5 9.5V5.5L14.5 9.5V2.5A1 1 0 0 0 13.5 1.5H2.5A1 1 0 0 0 1.5 2.5V9.5zM10.5 14.4A2.971 2.971 0 0 1 8.7 13.783A3.989 3.989 0 0 1 2.25 13.746C1.76 13.062 1.497 12.341 1.5 11.5H13.5C13.5 12.296 13.184 12.959 12.621 13.521A3 3 0 0 1 10.5 14.4z" />
    <glyph glyph-name="factory-24"
      unicode="&#xE105;"
      horiz-adv-x="24" d="M11.5 4.5H12.5M18.5 4.5H19.5M14.5 8.5V14.5L8 8.5L6.5 14.5H2.5V2.5H21.5V14.5L14.5 8.5zM11.5 20.995A2.971 2.971 0 0 1 9.7 20.378A3.989 3.989 0 0 1 3.25 20.34C2.76 19.657 2.497 18.341 2.5 17.5H14.5C14.5 18.296 14.184 19.553 13.621 20.116A3 3 0 0 1 11.501 20.995z" />
    <glyph glyph-name="file-12"
      unicode="&#xE106;"
      horiz-adv-x="12" d="M10.5 0.5H1.5V11.5H7.5L10.5 8.5V0.5zM7.5 11.5V8.5H10.5" />
    <glyph glyph-name="file-16"
      unicode="&#xE107;"
      horiz-adv-x="16" d="M9.5 15.5V10.5H14.5M9.5 15.5H1.5V0.5H14.5V10.5M9.5 15.5L14.5 10.5" />
    <glyph glyph-name="file-24"
      unicode="&#xE108;"
      horiz-adv-x="24" d="M15.5 22.5V16.5H21.5M15.5 22.5H3.5V0.5H21.5V16.5L15.5 22.5z" />
    <glyph glyph-name="file-aac-16"
      unicode="&#xE109;"
      horiz-adv-x="16" d="M14.5 2V0.5H1.5V1.5M1.5 8.5V15.5H9.5L14.5 10.5V9.5M9.5 15.5V10.5H14.5M0.877 3L2.5 8.216H3.908L5.533 3H4.285L3.613 5.64A94.926 94.926 0 0 1 3.405 6.472A48.097 48.097 0 0 0 3.197 7.32H3.165L2.965 6.472C2.895 6.179 2.826 5.902 2.757 5.64L2.077 3H0.877zM1.949 4.24V5.16H4.445V4.24H1.949zM5.674 3L7.298 8.216H8.706L10.33 3H9.082L8.41 5.64A94.926 94.926 0 0 1 8.202 6.472A48.186 48.186 0 0 0 7.994 7.32H7.962L7.762 6.472C7.692 6.179 7.622 5.902 7.554 5.64L6.874 3H5.674zM6.746 4.24V5.16H9.242V4.24H6.746zM13.246 2.904A2.58 2.58 0 0 0 12.318 3.072A2.209 2.209 0 0 0 11.55 3.576A2.45 2.45 0 0 0 11.022 4.416A3.245 3.245 0 0 0 10.83 5.576C10.83 6.152 10.94 6.643 11.158 7.048C11.382 7.458 11.681 7.771 12.054 7.984C12.434 8.203 12.854 8.312 13.318 8.312C13.649 8.312 13.948 8.242 14.214 8.104C14.481 7.971 14.702 7.819 14.878 7.648L14.23 6.92A1.364 1.364 0 0 1 13.822 7.192A1.15 1.15 0 0 1 13.318 7.296C13.073 7.296 12.854 7.226 12.662 7.088A1.35 1.35 0 0 1 12.206 6.512C12.094 6.262 12.038 5.962 12.038 5.616C12.038 5.259 12.094 4.952 12.206 4.696C12.318 4.446 12.473 4.253 12.67 4.12C12.873 3.987 13.105 3.92 13.366 3.92C13.558 3.92 13.732 3.963 13.886 4.048A1.68 1.68 0 0 1 14.31 4.384L14.958 3.672C14.745 3.422 14.494 3.229 14.206 3.096A2.338 2.338 0 0 0 13.246 2.904z" />
    <glyph glyph-name="file-aac-24"
      unicode="&#xE10A;"
      horiz-adv-x="24" d="M21.5 3V0.5H3.5V3M3.5 13.5V22.5H15.5L21.5 16.5V13.5M15.5 22.5V16.5H21.5M23.5 13.5H1.5V3.5H23.5V13.5zM5.377 6L7 11.216H8.408L10.033 6H8.785L8.113 8.64A94.566 94.566 0 0 1 7.905 9.472A48.12 48.12 0 0 0 7.697 10.32H7.665L7.465 9.472C7.395 9.179 7.326 8.902 7.257 8.64L6.577 6H5.377zM6.449 7.24V8.16H8.945V7.24H6.449zM10.174 6L11.798 11.216H13.206L14.83 6H13.582L12.91 8.64A97.112 97.112 0 0 1 12.702 9.472A47.769 47.769 0 0 0 12.494 10.32H12.462L12.262 9.472C12.192 9.179 12.122 8.902 12.054 8.64L11.374 6H10.174zM11.246 7.24V8.16H13.742V7.24H11.246zM17.746 5.904A2.58 2.58 0 0 0 16.818 6.072A2.209 2.209 0 0 0 16.05 6.576A2.45 2.45 0 0 0 15.522 7.416A3.245 3.245 0 0 0 15.33 8.576C15.33 9.152 15.44 9.643 15.658 10.048C15.882 10.458 16.181 10.771 16.554 10.984C16.934 11.203 17.354 11.312 17.818 11.312C18.149 11.312 18.448 11.242 18.714 11.104C18.981 10.971 19.202 10.819 19.378 10.648L18.73 9.92A1.364 1.364 0 0 1 18.322 10.192A1.15 1.15 0 0 1 17.818 10.296C17.573 10.296 17.354 10.226 17.162 10.088A1.35 1.35 0 0 1 16.706 9.512C16.594 9.262 16.538 8.962 16.538 8.616C16.538 8.259 16.594 7.952 16.706 7.696C16.818 7.446 16.973 7.253 17.17 7.12C17.373 6.987 17.605 6.92 17.866 6.92C18.058 6.92 18.232 6.963 18.386 7.048A1.68 1.68 0 0 1 18.81 7.384L19.458 6.672C19.245 6.422 18.994 6.229 18.706 6.096A2.338 2.338 0 0 0 17.746 5.904z" />
    <glyph glyph-name="file-avi-16"
      unicode="&#xE10B;"
      horiz-adv-x="16" d="M14.5 1.5V0.5H1.5V1.5M1.5 8.5V15.5H9.5L14.5 10.5V9.5M9.5 15.5V10.5H14.5M0.877 3L2.5 8.216H3.908L5.533 3H4.285L3.613 5.64A94.837 94.837 0 0 1 3.405 6.472A48.097 48.097 0 0 0 3.197 7.32H3.165L2.965 6.472C2.895 6.179 2.826 5.902 2.757 5.64L2.077 3H0.877zM1.949 4.24V5.16H4.445V4.24H1.949zM7.298 3L5.722 8.216H6.97L7.594 5.784C7.674 5.496 7.743 5.216 7.802 4.944C7.866 4.677 7.935 4.4 8.01 4.112H8.042C8.127 4.4 8.199 4.677 8.258 4.944C8.322 5.216 8.391 5.496 8.466 5.784L9.082 8.216H10.282L8.714 3H7.298zM10.99 3V3.992H12.206V7.224H10.991V8.216H14.607V7.224H13.39V3.992H14.606V3H10.99z" />
    <glyph glyph-name="file-avi-24"
      unicode="&#xE10C;"
      horiz-adv-x="24" d="M21.5 3V0.5H3.5V3M3.5 13.5V22.5H15.5L21.5 16.5V13.5M15.5 22.5V16.5H21.5M23.5 13.5H1.5V3.5H23.5V13.5zM5.377 6L7 11.216H8.408L10.033 6H8.785L8.113 8.64A94.566 94.566 0 0 1 7.905 9.472A48.032 48.032 0 0 0 7.697 10.32H7.665L7.465 9.472C7.395 9.179 7.326 8.902 7.257 8.64L6.577 6H5.377zM6.449 7.24V8.16H8.945V7.24H6.449zM11.798 6L10.222 11.216H11.47L12.094 8.784C12.174 8.496 12.243 8.216 12.302 7.944C12.366 7.677 12.435 7.4 12.51 7.112H12.542C12.627 7.4 12.699 7.677 12.758 7.944C12.822 8.216 12.891 8.496 12.966 8.784L13.582 11.216H14.782L13.214 6H11.798zM15.49 6V6.992H16.706V10.224H15.491V11.216H19.107V10.224H17.89V6.992H19.106V6H15.49z" />
    <glyph glyph-name="file-css-16"
      unicode="&#xE10D;"
      horiz-adv-x="16" d="M14.5 2V0.5H1.5V2.5M1.5 8.5V15.5H9.5L14.5 10.5V9.5M9.5 15.5V10.5H14.5M3.653 2.904A2.58 2.58 0 0 0 2.725 3.072A2.209 2.209 0 0 0 1.957 3.576A2.45 2.45 0 0 0 1.429 4.416A3.245 3.245 0 0 0 1.237 5.576C1.237 6.152 1.346 6.643 1.565 7.048C1.789 7.458 2.087 7.771 2.461 7.984C2.839 8.203 3.261 8.312 3.725 8.312C4.055 8.312 4.354 8.242 4.621 8.104C4.887 7.971 5.109 7.819 5.285 7.648L4.637 6.92A1.365 1.365 0 0 1 4.229 7.192A1.15 1.15 0 0 1 3.725 7.296C3.479 7.296 3.261 7.226 3.069 7.088A1.35 1.35 0 0 1 2.613 6.512C2.501 6.262 2.445 5.962 2.445 5.616C2.445 5.259 2.501 4.952 2.613 4.696C2.725 4.446 2.879 4.253 3.077 4.12C3.279 3.987 3.511 3.92 3.773 3.92C3.965 3.92 4.138 3.963 4.293 4.048A1.68 1.68 0 0 1 4.717 4.384L5.365 3.672C5.151 3.422 4.901 3.229 4.613 3.096A2.338 2.338 0 0 0 3.653 2.904zM7.986 2.904C7.634 2.904 7.284 2.968 6.938 3.096A3.055 3.055 0 0 0 6.002 3.656L6.682 4.464C6.879 4.304 7.095 4.174 7.33 4.072C7.57 3.971 7.815 3.92 8.066 3.92C8.316 3.92 8.5 3.963 8.618 4.048A0.385 0.385 0 0 1 8.802 4.376A0.409 0.409 0 0 1 8.706 4.664A0.763 0.763 0 0 1 8.426 4.856A9.945 9.945 0 0 1 7.994 5.048L7.322 5.336A2.448 2.448 0 0 0 6.778 5.632A1.57 1.57 0 0 0 6.362 6.096A1.372 1.372 0 0 0 6.21 6.76C6.21 7.048 6.29 7.307 6.45 7.536A1.74 1.74 0 0 0 7.122 8.096A2.208 2.208 0 0 0 8.122 8.312C8.436 8.312 8.746 8.253 9.05 8.136C9.354 8.019 9.623 7.848 9.858 7.624L9.258 6.88A2.324 2.324 0 0 1 8.714 7.184A1.721 1.721 0 0 1 8.058 7.296A0.85 0.85 0 0 1 7.586 7.176A0.394 0.394 0 0 1 7.402 6.824C7.402 6.723 7.439 6.637 7.514 6.568C7.588 6.498 7.69 6.438 7.818 6.384C7.946 6.331 8.092 6.272 8.258 6.208L8.89 5.936C9.124 5.851 9.324 5.744 9.49 5.616C9.655 5.493 9.783 5.341 9.874 5.16C9.964 4.979 10.01 4.765 10.01 4.52C10.01 4.232 9.93 3.965 9.77 3.72A1.642 1.642 0 0 0 9.082 3.128C8.782 2.978 8.418 2.904 7.986 2.904zM12.782 2.904C12.43 2.904 12.082 2.968 11.734 3.096A3.055 3.055 0 0 0 10.798 3.656L11.478 4.464C11.676 4.304 11.892 4.174 12.126 4.072C12.366 3.971 12.612 3.92 12.862 3.92C13.113 3.92 13.297 3.963 13.414 4.048A0.385 0.385 0 0 1 13.598 4.376A0.409 0.409 0 0 1 13.502 4.664A0.763 0.763 0 0 1 13.222 4.856A9.87 9.87 0 0 1 12.79 5.048L12.118 5.336A2.448 2.448 0 0 0 11.574 5.632A1.571 1.571 0 0 0 11.158 6.096A1.372 1.372 0 0 0 11.006 6.76C11.006 7.048 11.086 7.307 11.246 7.536C11.412 7.771 11.636 7.957 11.918 8.096A2.208 2.208 0 0 0 12.918 8.312C13.233 8.312 13.542 8.253 13.846 8.136C14.15 8.019 14.42 7.848 14.654 7.624L14.054 6.88A2.322 2.322 0 0 1 13.51 7.184A1.721 1.721 0 0 1 12.854 7.296A0.85 0.85 0 0 1 12.382 7.176A0.394 0.394 0 0 1 12.198 6.824C12.198 6.723 12.236 6.637 12.31 6.568C12.385 6.498 12.486 6.438 12.614 6.384C12.742 6.331 12.889 6.272 13.054 6.208L13.686 5.936C13.921 5.851 14.121 5.744 14.286 5.616C14.452 5.493 14.58 5.341 14.67 5.16C14.761 4.979 14.806 4.765 14.806 4.52C14.806 4.232 14.726 3.965 14.566 3.72A1.642 1.642 0 0 0 13.878 3.128C13.58 2.978 13.214 2.904 12.782 2.904z" />
    <glyph glyph-name="file-css-24"
      unicode="&#xE10E;"
      horiz-adv-x="24" d="M21.5 3V0.5H3.5V3M3.5 13.5V22.5H15.5L21.5 16.5V13.5M15.5 22.5V16.5H21.5M23.5 13.5H1.5V3.5H23.5V13.5zM8.153 5.904A2.58 2.58 0 0 0 7.225 6.072A2.209 2.209 0 0 0 6.457 6.576A2.45 2.45 0 0 0 5.929 7.416A3.245 3.245 0 0 0 5.737 8.576C5.737 9.152 5.846 9.643 6.065 10.048C6.289 10.458 6.587 10.771 6.961 10.984C7.339 11.203 7.761 11.312 8.225 11.312C8.555 11.312 8.854 11.242 9.121 11.104C9.387 10.971 9.609 10.819 9.785 10.648L9.137 9.92A1.366 1.366 0 0 1 8.729 10.192A1.15 1.15 0 0 1 8.225 10.296C7.979 10.296 7.761 10.226 7.569 10.088A1.35 1.35 0 0 1 7.113 9.512C7.001 9.262 6.945 8.962 6.945 8.616C6.945 8.259 7.001 7.952 7.113 7.696C7.225 7.446 7.379 7.253 7.577 7.12C7.779 6.987 8.011 6.92 8.273 6.92C8.465 6.92 8.638 6.963 8.793 7.048A1.68 1.68 0 0 1 9.217 7.384L9.865 6.672C9.651 6.422 9.401 6.229 9.113 6.096A2.338 2.338 0 0 0 8.153 5.904zM12.486 5.904C12.134 5.904 11.784 5.968 11.438 6.096A3.055 3.055 0 0 0 10.502 6.656L11.182 7.464C11.379 7.304 11.595 7.174 11.83 7.072C12.07 6.971 12.315 6.92 12.566 6.92C12.816 6.92 13 6.963 13.118 7.048A0.386 0.386 0 0 1 13.302 7.376A0.408 0.408 0 0 1 13.206 7.664A0.761 0.761 0 0 1 12.926 7.856A9.738 9.738 0 0 1 12.494 8.048L11.822 8.336A2.45 2.45 0 0 0 11.278 8.632A1.57 1.57 0 0 0 10.862 9.096A1.371 1.371 0 0 0 10.71 9.76C10.71 10.048 10.79 10.307 10.95 10.536A1.74 1.74 0 0 0 11.622 11.096A2.208 2.208 0 0 0 12.622 11.312C12.936 11.312 13.246 11.253 13.55 11.136C13.854 11.019 14.123 10.848 14.358 10.624L13.758 9.88A2.326 2.326 0 0 1 13.214 10.184A1.721 1.721 0 0 1 12.558 10.296C12.366 10.296 12.208 10.256 12.086 10.176A0.394 0.394 0 0 1 11.902 9.824C11.902 9.723 11.939 9.637 12.014 9.568C12.088 9.498 12.19 9.438 12.318 9.384C12.446 9.331 12.592 9.272 12.758 9.208L13.39 8.936C13.624 8.851 13.824 8.744 13.99 8.616C14.155 8.493 14.283 8.341 14.374 8.16C14.464 7.979 14.51 7.765 14.51 7.52C14.51 7.232 14.43 6.965 14.27 6.72A1.643 1.643 0 0 0 13.582 6.128C13.282 5.978 12.918 5.904 12.486 5.904zM17.282 5.904C16.93 5.904 16.582 5.968 16.234 6.096A3.057 3.057 0 0 0 15.298 6.656L15.978 7.464C16.176 7.304 16.392 7.174 16.626 7.072C16.866 6.971 17.112 6.92 17.362 6.92C17.613 6.92 17.797 6.963 17.914 7.048A0.385 0.385 0 0 1 18.098 7.376A0.408 0.408 0 0 1 18.002 7.664A0.76 0.76 0 0 1 17.722 7.856A9.635 9.635 0 0 1 17.29 8.048L16.618 8.336A2.452 2.452 0 0 0 16.074 8.632A1.572 1.572 0 0 0 15.658 9.096A1.372 1.372 0 0 0 15.506 9.76C15.506 10.048 15.586 10.307 15.746 10.536C15.912 10.771 16.136 10.957 16.418 11.096A2.208 2.208 0 0 0 17.418 11.312C17.733 11.312 18.042 11.253 18.346 11.136C18.65 11.019 18.92 10.848 19.154 10.624L18.554 9.88A2.322 2.322 0 0 1 18.01 10.184A1.72 1.72 0 0 1 17.354 10.296A0.85 0.85 0 0 1 16.882 10.176A0.394 0.394 0 0 1 16.698 9.824C16.698 9.723 16.736 9.637 16.81 9.568C16.885 9.498 16.986 9.438 17.114 9.384C17.242 9.331 17.389 9.272 17.554 9.208L18.186 8.936A2.2 2.2 0 0 0 18.786 8.616C18.952 8.493 19.08 8.341 19.17 8.16C19.261 7.979 19.306 7.765 19.306 7.52C19.306 7.232 19.226 6.965 19.066 6.72A1.642 1.642 0 0 0 18.378 6.128C18.08 5.978 17.714 5.904 17.282 5.904z" />
    <glyph glyph-name="file-csv-16"
      unicode="&#xE10F;"
      horiz-adv-x="16" d="M14.5 3V0.5H1.5V2.5M1.5 8.5V15.5H9.5L14.5 10.5V9.5M9.5 15.5V10.5H14.5M3.653 2.904A2.58 2.58 0 0 0 2.725 3.072A2.209 2.209 0 0 0 1.957 3.576A2.45 2.45 0 0 0 1.429 4.416A3.245 3.245 0 0 0 1.237 5.576C1.237 6.152 1.346 6.643 1.565 7.048C1.789 7.458 2.087 7.771 2.461 7.984C2.839 8.203 3.261 8.312 3.725 8.312C4.055 8.312 4.354 8.242 4.621 8.104C4.887 7.971 5.109 7.819 5.285 7.648L4.637 6.92A1.365 1.365 0 0 1 4.229 7.192A1.15 1.15 0 0 1 3.725 7.296C3.479 7.296 3.261 7.226 3.069 7.088A1.35 1.35 0 0 1 2.613 6.512C2.501 6.262 2.445 5.962 2.445 5.616C2.445 5.259 2.501 4.952 2.613 4.696C2.725 4.446 2.879 4.253 3.077 4.12C3.279 3.987 3.511 3.92 3.773 3.92C3.965 3.92 4.138 3.963 4.293 4.048A1.68 1.68 0 0 1 4.717 4.384L5.365 3.672C5.151 3.422 4.901 3.229 4.613 3.096A2.338 2.338 0 0 0 3.653 2.904zM7.986 2.904C7.634 2.904 7.284 2.968 6.938 3.096A3.055 3.055 0 0 0 6.002 3.656L6.682 4.464C6.879 4.304 7.095 4.174 7.33 4.072C7.57 3.971 7.815 3.92 8.066 3.92C8.316 3.92 8.5 3.963 8.618 4.048A0.385 0.385 0 0 1 8.802 4.376A0.409 0.409 0 0 1 8.706 4.664A0.763 0.763 0 0 1 8.426 4.856A9.945 9.945 0 0 1 7.994 5.048L7.322 5.336A2.448 2.448 0 0 0 6.778 5.632A1.57 1.57 0 0 0 6.362 6.096A1.372 1.372 0 0 0 6.21 6.76C6.21 7.048 6.29 7.307 6.45 7.536A1.74 1.74 0 0 0 7.122 8.096A2.208 2.208 0 0 0 8.122 8.312C8.436 8.312 8.746 8.253 9.05 8.136C9.354 8.019 9.623 7.848 9.858 7.624L9.258 6.88A2.324 2.324 0 0 1 8.714 7.184A1.721 1.721 0 0 1 8.058 7.296A0.85 0.85 0 0 1 7.586 7.176A0.394 0.394 0 0 1 7.402 6.824C7.402 6.723 7.439 6.637 7.514 6.568C7.588 6.498 7.69 6.438 7.818 6.384C7.946 6.331 8.092 6.272 8.258 6.208L8.89 5.936C9.124 5.851 9.324 5.744 9.49 5.616C9.655 5.493 9.783 5.341 9.874 5.16C9.964 4.979 10.01 4.765 10.01 4.52C10.01 4.232 9.93 3.965 9.77 3.72A1.642 1.642 0 0 0 9.082 3.128C8.782 2.978 8.418 2.904 7.986 2.904zM12.094 3L10.518 8.216H11.766L12.39 5.784C12.47 5.496 12.54 5.216 12.598 4.944C12.662 4.677 12.732 4.4 12.806 4.112H12.838C12.924 4.4 12.996 4.677 13.054 4.944C13.118 5.216 13.188 5.496 13.262 5.784L13.878 8.216H15.078L13.51 3H12.094z" />
    <glyph glyph-name="file-csv-24"
      unicode="&#xE110;"
      horiz-adv-x="24" d="M21.5 3V0.5H3.5V3M3.5 13.5V22.5H15.5L21.5 16.5V13.5M15.5 22.5V16.5H21.5M23.5 13.5H1.5V3.5H23.5V13.5zM8.153 5.904A2.58 2.58 0 0 0 7.225 6.072A2.209 2.209 0 0 0 6.457 6.576A2.45 2.45 0 0 0 5.929 7.416A3.245 3.245 0 0 0 5.737 8.576C5.737 9.152 5.846 9.643 6.065 10.048C6.289 10.458 6.587 10.771 6.961 10.984C7.339 11.203 7.761 11.312 8.225 11.312C8.555 11.312 8.854 11.242 9.121 11.104C9.387 10.971 9.609 10.819 9.785 10.648L9.137 9.92A1.366 1.366 0 0 1 8.729 10.192A1.15 1.15 0 0 1 8.225 10.296C7.979 10.296 7.761 10.226 7.569 10.088A1.35 1.35 0 0 1 7.113 9.512C7.001 9.262 6.945 8.962 6.945 8.616C6.945 8.259 7.001 7.952 7.113 7.696C7.225 7.446 7.379 7.253 7.577 7.12C7.779 6.987 8.011 6.92 8.273 6.92C8.465 6.92 8.638 6.963 8.793 7.048A1.68 1.68 0 0 1 9.217 7.384L9.865 6.672C9.651 6.422 9.401 6.229 9.113 6.096A2.338 2.338 0 0 0 8.153 5.904zM12.486 5.904C12.134 5.904 11.784 5.968 11.438 6.096A3.055 3.055 0 0 0 10.502 6.656L11.182 7.464C11.379 7.304 11.595 7.174 11.83 7.072C12.07 6.971 12.315 6.92 12.566 6.92C12.816 6.92 13 6.963 13.118 7.048A0.386 0.386 0 0 1 13.302 7.376A0.408 0.408 0 0 1 13.206 7.664A0.761 0.761 0 0 1 12.926 7.856A9.738 9.738 0 0 1 12.494 8.048L11.822 8.336A2.45 2.45 0 0 0 11.278 8.632A1.57 1.57 0 0 0 10.862 9.096A1.371 1.371 0 0 0 10.71 9.76C10.71 10.048 10.79 10.307 10.95 10.536A1.74 1.74 0 0 0 11.622 11.096A2.208 2.208 0 0 0 12.622 11.312C12.936 11.312 13.246 11.253 13.55 11.136C13.854 11.019 14.123 10.848 14.358 10.624L13.758 9.88A2.326 2.326 0 0 1 13.214 10.184A1.721 1.721 0 0 1 12.558 10.296C12.366 10.296 12.208 10.256 12.086 10.176A0.394 0.394 0 0 1 11.902 9.824C11.902 9.723 11.939 9.637 12.014 9.568C12.088 9.498 12.19 9.438 12.318 9.384C12.446 9.331 12.592 9.272 12.758 9.208L13.39 8.936C13.624 8.851 13.824 8.744 13.99 8.616C14.155 8.493 14.283 8.341 14.374 8.16C14.464 7.979 14.51 7.765 14.51 7.52C14.51 7.232 14.43 6.965 14.27 6.72A1.643 1.643 0 0 0 13.582 6.128C13.282 5.978 12.918 5.904 12.486 5.904zM16.594 6L15.018 11.216H16.266L16.89 8.784C16.97 8.496 17.04 8.216 17.098 7.944C17.162 7.677 17.232 7.4 17.306 7.112H17.338C17.424 7.4 17.496 7.677 17.554 7.944C17.618 8.216 17.688 8.496 17.762 8.784L18.378 11.216H19.578L18.01 6H16.594z" />
    </font>
</defs>
</svg>
