<svg width="108" height="24" viewBox="0 0 108 24" fill="none" xmlns="http://www.w3.org/2000/svg">
<path d="M1.328 17V6.536H3.184V15.432H7.536V17H1.328ZM9.19925 17V9.144H11.0393V17H9.19925ZM10.1113 7.768C9.79125 7.768 9.52458 7.672 9.31125 7.48C9.10858 7.288 9.00725 7.032 9.00725 6.712C9.00725 6.392 9.10858 6.14133 9.31125 5.96C9.52458 5.768 9.79125 5.672 10.1113 5.672C10.4419 5.672 10.7086 5.768 10.9113 5.96C11.1139 6.14133 11.2153 6.392 11.2153 6.712C11.2153 7.032 11.1139 7.288 10.9113 7.48C10.7086 7.672 10.4419 7.768 10.1113 7.768ZM13.3868 17V9.144H14.9068L15.0348 10.2H15.0988C15.4508 9.85867 15.8348 9.56533 16.2508 9.32C16.6668 9.07467 17.1414 8.952 17.6748 8.952C18.5174 8.952 19.1308 9.224 19.5148 9.768C19.8988 10.312 20.0908 11.08 20.0908 12.072V17H18.2508V12.312C18.2508 11.6613 18.1548 11.2027 17.9628 10.936C17.7708 10.6693 17.4561 10.536 17.0188 10.536C16.6774 10.536 16.3734 10.6213 16.1068 10.792C15.8508 10.952 15.5574 11.192 15.2268 11.512V17H13.3868ZM22.3399 17V5.704H24.1639V12.744H24.2119L27.0919 9.144H29.1239L26.4519 12.36L29.3959 17H27.3959L25.3799 13.592L24.1639 14.984V17H22.3399ZM36.6704 17.16C35.7637 17.16 35.1184 16.8987 34.7344 16.376C34.361 15.8427 34.1744 15.1547 34.1744 14.312V10.6H33.0544V9.224L34.2704 9.144L34.4944 6.68H36.0304V9.144H38.0304V10.6H36.0304V14.312C36.0304 14.7707 36.121 15.1173 36.3024 15.352C36.4837 15.576 36.761 15.688 37.1344 15.688C37.273 15.688 37.4117 15.6773 37.5504 15.656C37.689 15.6347 37.8224 15.592 37.9504 15.528L38.2864 16.824C38.0837 16.92 37.8437 17 37.5664 17.064C37.289 17.128 36.9904 17.16 36.6704 17.16ZM42.6496 17.192C41.999 17.192 41.391 17.032 40.8256 16.712C40.2603 16.3813 39.8016 15.912 39.4496 15.304C39.0976 14.6853 38.9216 13.944 38.9216 13.08C38.9216 12.2053 39.0976 11.464 39.4496 10.856C39.8016 10.2373 40.2603 9.768 40.8256 9.448C41.391 9.11733 41.999 8.952 42.6496 8.952C43.311 8.952 43.9243 9.11733 44.4896 9.448C45.055 9.768 45.5136 10.2373 45.8656 10.856C46.2176 11.464 46.3936 12.2053 46.3936 13.08C46.3936 13.944 46.2176 14.6853 45.8656 15.304C45.5136 15.912 45.055 16.3813 44.4896 16.712C43.9243 17.032 43.311 17.192 42.6496 17.192ZM42.6496 15.688C43.0336 15.688 43.3643 15.5813 43.6416 15.368C43.919 15.1547 44.1323 14.8507 44.2816 14.456C44.431 14.0613 44.5056 13.6027 44.5056 13.08C44.5056 12.5573 44.431 12.0987 44.2816 11.704C44.1323 11.3093 43.919 11.0053 43.6416 10.792C43.3643 10.568 43.0336 10.456 42.6496 10.456C42.2656 10.456 41.935 10.568 41.6576 10.792C41.391 11.0053 41.183 11.3093 41.0336 11.704C40.8843 12.0987 40.8096 12.5573 40.8096 13.08C40.8096 13.6027 40.8843 14.0613 41.0336 14.456C41.183 14.8507 41.391 15.1547 41.6576 15.368C41.935 15.5813 42.2656 15.688 42.6496 15.688ZM51.418 20.104V9.144H52.938L53.066 9.976H53.13C53.4607 9.688 53.8287 9.448 54.234 9.256C54.6393 9.05333 55.0607 8.952 55.498 8.952C56.1487 8.952 56.7033 9.11733 57.162 9.448C57.6207 9.77867 57.9727 10.2427 58.218 10.84C58.4633 11.4373 58.586 12.1413 58.586 12.952C58.586 13.848 58.426 14.6107 58.106 15.24C57.786 15.8693 57.37 16.3547 56.858 16.696C56.3567 17.0267 55.8127 17.192 55.226 17.192C54.8847 17.192 54.5433 17.1173 54.202 16.968C53.8607 16.8187 53.53 16.6053 53.21 16.328L53.258 17.64V20.104H51.418ZM54.842 15.672C55.194 15.672 55.5087 15.5707 55.786 15.368C56.0633 15.1653 56.282 14.8667 56.442 14.472C56.602 14.0667 56.682 13.5653 56.682 12.968C56.682 12.4453 56.6233 11.9973 56.506 11.624C56.3887 11.2507 56.202 10.968 55.946 10.776C55.7007 10.5733 55.3807 10.472 54.986 10.472C54.698 10.472 54.4153 10.5467 54.138 10.696C53.8607 10.8347 53.5673 11.0533 53.258 11.352V15.016C53.546 15.2507 53.8233 15.4213 54.09 15.528C54.3673 15.624 54.618 15.672 54.842 15.672ZM62.1658 17.192C61.7071 17.192 61.3018 17.096 60.9498 16.904C60.5978 16.712 60.3204 16.4453 60.1178 16.104C59.9258 15.752 59.8298 15.3467 59.8298 14.888C59.8298 14.0027 60.1978 13.336 60.9338 12.888C61.6804 12.4293 62.8591 12.1147 64.4698 11.944C64.4591 11.6773 64.4058 11.432 64.3098 11.208C64.2244 10.984 64.0751 10.808 63.8618 10.68C63.6591 10.5413 63.3818 10.472 63.0298 10.472C62.6458 10.472 62.2671 10.5413 61.8938 10.68C61.5311 10.8187 61.1738 10.9947 60.8218 11.208L60.1497 9.96C60.4378 9.77867 60.7524 9.61333 61.0938 9.464C61.4351 9.304 61.7978 9.18133 62.1818 9.096C62.5658 9 62.9658 8.952 63.3818 8.952C64.0324 8.952 64.5711 9.08533 64.9978 9.352C65.4351 9.608 65.7604 9.992 65.9738 10.504C66.1978 11.0053 66.3098 11.624 66.3098 12.36V17H64.7898L64.6618 16.136H64.5978C64.2351 16.4347 63.8564 16.6853 63.4618 16.888C63.0671 17.0907 62.6351 17.192 62.1658 17.192ZM62.7418 15.688C63.0618 15.688 63.3551 15.624 63.6218 15.496C63.8991 15.3573 64.1818 15.1547 64.4698 14.888V13.224C63.7551 13.3093 63.1898 13.4213 62.7738 13.56C62.3578 13.6987 62.0591 13.8693 61.8778 14.072C61.7071 14.264 61.6218 14.4933 61.6218 14.76C61.6218 15.0907 61.7284 15.3307 61.9418 15.48C62.1551 15.6187 62.4218 15.688 62.7418 15.688ZM71.2478 20.472C70.6184 20.472 70.0584 20.3973 69.5678 20.248C69.0771 20.0987 68.6878 19.8693 68.3997 19.56C68.1224 19.2613 67.9838 18.8827 67.9838 18.424C67.9838 18.0933 68.0798 17.784 68.2718 17.496C68.4744 17.2187 68.7518 16.968 69.1038 16.744V16.68C68.9118 16.552 68.7464 16.3813 68.6078 16.168C68.4691 15.9547 68.3997 15.688 68.3997 15.368C68.3997 15.0693 68.4851 14.792 68.6558 14.536C68.8371 14.28 69.0398 14.072 69.2638 13.912V13.848C68.9971 13.6453 68.7571 13.3627 68.5438 13C68.3411 12.6373 68.2398 12.2267 68.2398 11.768C68.2398 11.1707 68.3838 10.664 68.6718 10.248C68.9598 9.82133 69.3384 9.50133 69.8078 9.288C70.2771 9.064 70.7891 8.952 71.3438 8.952C71.5571 8.952 71.7651 8.968 71.9678 9C72.1704 9.032 72.3464 9.08 72.4958 9.144H75.3118V10.504H73.8398V10.568C73.9891 10.728 74.1064 10.9147 74.1918 11.128C74.2771 11.3307 74.3198 11.5707 74.3198 11.848C74.3198 12.424 74.1864 12.9093 73.9198 13.304C73.6531 13.6987 73.2958 13.9973 72.8478 14.2C72.3998 14.4027 71.8984 14.504 71.3438 14.504C71.1731 14.504 70.9971 14.488 70.8158 14.456C70.6344 14.424 70.4531 14.3707 70.2718 14.296C70.1651 14.4027 70.0744 14.5093 69.9998 14.616C69.9251 14.7227 69.8878 14.8667 69.8878 15.048C69.8878 15.272 69.9838 15.448 70.1758 15.576C70.3678 15.704 70.6984 15.768 71.1678 15.768H72.5598C73.5091 15.768 74.2238 15.9227 74.7038 16.232C75.1944 16.5307 75.4398 17.0213 75.4398 17.704C75.4398 18.216 75.2691 18.68 74.9278 19.096C74.5864 19.5227 74.1011 19.8587 73.4718 20.104C72.8424 20.3493 72.1011 20.472 71.2478 20.472ZM71.3438 13.352C71.5891 13.352 71.8131 13.2933 72.0158 13.176C72.2291 13.048 72.3944 12.8667 72.5118 12.632C72.6398 12.3867 72.7038 12.0987 72.7038 11.768C72.7038 11.2667 72.5704 10.8827 72.3038 10.616C72.0478 10.3493 71.7278 10.216 71.3438 10.216C70.9598 10.216 70.6344 10.3493 70.3678 10.616C70.1011 10.8827 69.9678 11.2667 69.9678 11.768C69.9678 12.0987 70.0318 12.3867 70.1598 12.632C70.2878 12.8667 70.4531 13.048 70.6558 13.176C70.8584 13.2933 71.0878 13.352 71.3438 13.352ZM71.5358 19.272C71.9518 19.272 72.3198 19.2133 72.6398 19.096C72.9598 18.9893 73.2104 18.8347 73.3918 18.632C73.5731 18.44 73.6638 18.232 73.6638 18.008C73.6638 17.6987 73.5411 17.4907 73.2958 17.384C73.0611 17.2773 72.7198 17.224 72.2718 17.224H71.1998C70.9864 17.224 70.7944 17.2133 70.6238 17.192C70.4531 17.1707 70.2878 17.144 70.1278 17.112C69.9251 17.272 69.7704 17.4373 69.6638 17.608C69.5678 17.7787 69.5198 17.96 69.5198 18.152C69.5198 18.504 69.7011 18.776 70.0638 18.968C70.4264 19.1707 70.9171 19.272 71.5358 19.272ZM79.9503 17.192C79.2143 17.192 78.5476 17.032 77.9503 16.712C77.3636 16.3813 76.8996 15.912 76.5583 15.304C76.2169 14.6853 76.0463 13.9387 76.0463 13.064C76.0463 12.2107 76.2223 11.48 76.5743 10.872C76.9263 10.2533 77.3796 9.77867 77.9343 9.448C78.4889 9.11733 79.0756 8.952 79.6943 8.952C80.4089 8.952 81.0063 9.112 81.4863 9.432C81.9663 9.752 82.3236 10.1947 82.5583 10.76C82.8036 11.3147 82.9263 11.9547 82.9263 12.68C82.9263 12.8507 82.9156 13.016 82.8943 13.176C82.8836 13.336 82.8623 13.4907 82.8303 13.64H77.4223V12.232H81.2943C81.2943 11.6667 81.1663 11.224 80.9103 10.904C80.6543 10.5733 80.2596 10.408 79.7263 10.408C79.4276 10.408 79.1343 10.488 78.8463 10.648C78.5689 10.808 78.3343 11.08 78.1423 11.464C77.9609 11.848 77.8703 12.3813 77.8703 13.064C77.8703 13.6827 77.9769 14.1893 78.1903 14.584C78.4036 14.968 78.6863 15.256 79.0383 15.448C79.3903 15.6293 79.7689 15.72 80.1743 15.72C80.5156 15.72 80.8356 15.672 81.1343 15.576C81.4436 15.48 81.7316 15.3467 81.9983 15.176L82.6383 16.36C82.2756 16.616 81.8596 16.8187 81.3903 16.968C80.9316 17.1173 80.4516 17.192 79.9503 17.192Z" fill="#0A8276"/>
<path d="M93.5 12H106.5M106.5 12L101.5 7M106.5 12L101.5 17" stroke="#0A8276" stroke-linecap="square"/>
</svg>
