<svg width="16" height="16" viewBox="0 0 16 16" fill="none" xmlns="http://www.w3.org/2000/svg">
<g id="board-16" clip-path="url(#clip0_23080_71532)">
<path id="Union" fill-rule="evenodd" clip-rule="evenodd" d="M1 1.5C1 1.22386 1.22386 1 1.5 1H14.5C14.7761 1 15 1.22386 15 1.5V14.5C15 14.7761 14.7761 15 14.5 15H10.7071L11.8536 13.8536L12 13.7071V13.5V10.95C13.1411 10.7184 14 9.70948 14 8.5C14 7.11929 12.8807 6 11.5 6C10.1193 6 9 7.11929 9 8.5C9 9.70948 9.85888 10.7184 11 10.95V13.2929L9.64645 14.6464L9.29289 15H7V12.5V12.3486L6.91603 12.2227L5 9.34861V6.94999C6.14112 6.71836 7 5.70948 7 4.5C7 3.11929 5.88071 2 4.5 2C3.11929 2 2 3.11929 2 4.5C2 5.70948 2.85888 6.71836 4 6.94999V9.5V9.65139L4.08397 9.77735L6 12.6514V15H1.5C1.22386 15 1 14.7761 1 14.5V1.5ZM6 16H1.5C0.671573 16 0 15.3284 0 14.5V1.5C0 0.671573 0.671573 0 1.5 0H14.5C15.3284 0 16 0.671573 16 1.5V14.5C16 15.3284 15.3284 16 14.5 16H7V20.5V21H6V20.5V16ZM4.5 3C3.67157 3 3 3.67157 3 4.5C3 5.32843 3.67157 6 4.5 6C5.32843 6 6 5.32843 6 4.5C6 3.67157 5.32843 3 4.5 3ZM10 8.5C10 7.67157 10.6716 7 11.5 7C12.3284 7 13 7.67157 13 8.5C13 9.32843 12.3284 10 11.5 10C10.6716 10 10 9.32843 10 8.5Z" fill="#0A8276"/>
</g>
<defs>
<clipPath id="clip0_23080_71532">
<rect width="16" height="16" fill="white"/>
</clipPath>
</defs>
</svg>
