<svg width="24" height="24" viewBox="0 0 24 24" fill="none" xmlns="http://www.w3.org/2000/svg">
<path d="M8.5 4.5V1.5" stroke="#1D1D1D" stroke-linecap="round" stroke-linejoin="round"/>
<path d="M16.5 4.5V1.5" stroke="#1D1D1D" stroke-linecap="round" stroke-linejoin="round"/>
<path d="M12.5 4.5V1.5" stroke="#1D1D1D" stroke-linecap="round" stroke-linejoin="round"/>
<path d="M23.5 16.5H20.5" stroke="#1D1D1D" stroke-linecap="round" stroke-linejoin="round"/>
<path d="M23.5 8.5H20.5" stroke="#1D1D1D" stroke-linecap="round" stroke-linejoin="round"/>
<path d="M23.5 12.5H20.5" stroke="#1D1D1D" stroke-linecap="round" stroke-linejoin="round"/>
<path d="M4.5 16.5H1.5" stroke="#1D1D1D" stroke-linecap="round" stroke-linejoin="round"/>
<path d="M4.5 8.5H1.5" stroke="#1D1D1D" stroke-linecap="round" stroke-linejoin="round"/>
<path d="M4.5 12.5H1.5" stroke="#1D1D1D" stroke-linecap="round" stroke-linejoin="round"/>
<path d="M8.5 23.5V20.5" stroke="#1D1D1D" stroke-linecap="round" stroke-linejoin="round"/>
<path d="M16.5 23.5V20.5" stroke="#1D1D1D" stroke-linecap="round" stroke-linejoin="round"/>
<path d="M12.5 23.5V20.5" stroke="#1D1D1D" stroke-linecap="round" stroke-linejoin="round"/>
<path d="M18.5 4.5H6.5C5.39543 4.5 4.5 5.39543 4.5 6.5V18.5C4.5 19.6046 5.39543 20.5 6.5 20.5H18.5C19.6046 20.5 20.5 19.6046 20.5 18.5V6.5C20.5 5.39543 19.6046 4.5 18.5 4.5Z" stroke="#1D1D1D" stroke-linecap="round" stroke-linejoin="round"/>
</svg>
