<?xml version="1.0" encoding="utf-8"?>
<!-- Generator: Adobe Illustrator 27.8.0, SVG Export Plug-In . SVG Version: 6.00 Build 0)  -->
<svg version="1.1" id="Ebene_1" xmlns="http://www.w3.org/2000/svg" xmlns:xlink="http://www.w3.org/1999/xlink" x="0px" y="0px"
	 viewBox="0 0 48 48" style="enable-background:new 0 0 48 48;" xml:space="preserve">
<style type="text/css">
	.st0{fill:none;}
	.st1{fill:#0A8276;}
</style>
<rect class="st0" width="48" height="48"/>
<g>
	<g>
		<path class="st1" d="M24,24.9L0.3,17L24,7.9L47.7,17L24,24.9z M6.2,16.9L24,22.8l17.8-5.9L24,10.1L6.2,16.9z"/>
	</g>
	<g>
		<path class="st1" d="M23.5,38.1C15.4,38.1,9,34.7,9,30.4V19.9c0-0.6,0.4-1,1-1s1,0.4,1,1v10.4c0,2.8,5,5.8,12.5,5.8
			c7.5,0,12.5-3,12.5-5.8V19.9c0-0.6,0.4-1,1-1s1,0.4,1,1v10.4C38,34.7,31.6,38.1,23.5,38.1z"/>
	</g>
	<g>
		<g>
			<rect x="42" y="21" class="st1" width="2" height="13.9"/>
		</g>
		<g>
			<path class="st1" d="M43,42c-2.2,0-4-1.8-4-4s1.8-4,4-4s4,1.8,4,4S45.2,42,43,42z M43,36c-1.1,0-2,0.9-2,2s0.9,2,2,2s2-0.9,2-2
				S44.1,36,43,36z"/>
		</g>
	</g>
</g>
</svg>
