<svg xmlns="http://www.w3.org/2000/svg" viewBox="0 0 48 48" style="enable-background:new 0 0 48 48" xml:space="preserve"><path d="M12.172 12.462.384 16.994l4.308 1.443L9 19.88l.043 5.72c.033 4.455.066 5.791.149 6.04 1.052 3.161 5.247 5.517 11.135 6.253 1.533.191 4.846.19 6.353-.003 5.393-.69 9.362-2.705 10.747-5.457.549-1.089.525-.789.554-6.795l.027-5.442 4.805-1.601 4.805-1.601L35.909 12.5A6024.574 6024.574 0 0 0 24.08 7.968c-.066-.021-5.425 2.001-11.908 4.494m20.657.983c4.846 1.851 8.84 3.394 8.875 3.428C41.762 16.93 24.228 22.8 24 22.8c-.053 0-4.078-1.321-8.942-2.935-6.493-2.155-8.813-2.956-8.723-3.013.126-.079 17.489-6.746 17.614-6.763.037-.005 4.033 1.505 8.88 3.356m-15.288 9.269L24 24.867l5.979-1.993c3.289-1.097 5.99-1.994 6.002-1.994.012 0 .013 2.278.001 5.062l-.022 5.062-.266.54c-.339.689-1.134 1.503-2.049 2.1-5.163 3.365-15.521 3.293-20.504-.143-.791-.546-1.547-1.367-1.874-2.035L11 30.92l-.023-5.18c-.012-2.849.006-5.18.041-5.18s2.97.969 6.523 2.154M42 27.58v6.54l-.619.278c-.722.325-1.529 1.066-1.88 1.728a4.07 4.07 0 0 0 .001 3.748c.119.223.439.631.711.907a3.927 3.927 0 0 0 5.467.121c2.092-1.924 1.523-5.342-1.086-6.515L44 34.12V21.04h-2v6.54m2.048 8.704c.667.412 1.079 1.287.953 2.029-.085.504-.509 1.129-.949 1.401-.446.274-1.198.369-1.678.211-.954-.315-1.592-1.447-1.341-2.378.151-.56.555-1.074 1.047-1.331.388-.202.508-.226 1.008-.202.462.023.64.073.96.27" fill-rule="evenodd"/></svg>