<svg xmlns="http://www.w3.org/2000/svg" width="16" height="16" fill="none"><path d="M.993 8.007 1 15h11.733l.187-.059a1.545 1.545 0 0 0 1.004-.961l.063-.18V2.2l-.063-.18a1.546 1.546 0 0 0-1.032-.966c-.138-.036-.842-.041-6.031-.041H.987l.006 6.994m11.694-5.966a.426.426 0 0 1 .249.231c.049.096.051.257.051 5.728s-.002 5.632-.051 5.728a.426.426 0 0 1-.249.231c-.088.036-.689.041-5.393.041H2V2h5.294c4.704 0 5.305.005 5.393.041M14.993 3.5 15 5l.5.007.5.008V2h-1.014l.007 1.5M4 6v2h7.013V4H4v2m6 .013v1H5.013v-2H10v1M14.993 7.5 15 9l.5.007.5.008V6h-1.014l.007 1.5" fill-rule="evenodd" fill="#000"/></svg>