<svg xmlns="http://www.w3.org/2000/svg" width="24" height="24" fill="none"><path d="M2 12v10l8.37-.001c9.326 0 8.65.02 9.268-.284a2.502 2.502 0 0 0 1.302-1.695c.088-.421.088-15.619 0-16.04a2.497 2.497 0 0 0-1.302-1.692c-.611-.308.066-.287-9.268-.287L2 2v10m3 0v9H3V3h2v9m14.1-8.868c.315.147.624.455.767.764l.113.244v15.72l-.112.24a1.698 1.698 0 0 1-.764.767l-.244.113-6.43.01-6.43.011V2.999l6.43.01 6.43.011.24.112M9 8v3h8V5H9v3m13-.5V10h1V5h-1v2.5M16 8v2h-6V6h6v2m-7 5.5v.5h8v-1H9v.5" fill="currentColor" fill-rule="evenodd"/></svg>