<svg xmlns="http://www.w3.org/2000/svg" width="16" height="16" fill="none"><path d="M7.267 1.03c-1.14.119-2.056.375-2.995.836C2.25 2.858.809 4.492.109 6.587c-.122.363-.13.446-.059.6a.49.49 0 0 0 .657.256c.166-.077.216-.153.343-.524.38-1.105.933-2.003 1.708-2.772 1.165-1.158 2.676-1.882 4.375-2.098.341-.043 1.386-.043 1.734.001 1.693.212 3.209.938 4.375 2.097.785.779 1.359 1.719 1.729 2.831.084.252.115.313.202.392.258.233.623.157.784-.162.066-.131.052-.267-.062-.612a7.963 7.963 0 0 0-2.789-3.89 8.626 8.626 0 0 0-2.791-1.383c-.822-.228-1.259-.287-2.195-.296a19.5 19.5 0 0 0-.853.003m4.959 3.939c-.185.084-1.893 1.173-3.009 1.917-1.65 1.101-2.738 1.917-3.3 2.474-.455.451-.975 1.226-1.131 1.685a2.372 2.372 0 0 0-.054 1.075c.055.238.215.564.386.789.269.355.835.841 1.482 1.271.994.662 1.767.787 2.533.409.118-.058.293-.172.391-.252.334-.277.906-1.023 1.15-1.501.495-.972 1.196-3.217 2.008-6.43.124-.488.225-.931.225-.985a.527.527 0 0 0-.212-.393c-.125-.087-.347-.115-.469-.059m-.613 1.598c-.006.018-.102.377-.212.798-.518 1.971-1.05 3.692-1.412 4.564a4.108 4.108 0 0 1-.583 1.031c-.453.607-.654.772-1.016.834-.205.035-.432-.012-.723-.15-.688-.326-1.676-1.134-1.873-1.531-.162-.326-.138-.663.073-1.029.141-.244.491-.742.637-.903.254-.283 1.1-.96 1.971-1.577.773-.548 3.075-2.071 3.13-2.071.011 0 .015.015.008.034" fill="currentColor" fill-rule="evenodd"/></svg>