<svg xmlns="http://www.w3.org/2000/svg" width="16" height="17" viewBox="0 0 16 17"><path fill="currentColor" fill-rule="evenodd" d="M3.759 3.425a7 7 0 0 1 10.989 3.708.5.5 0 0 0 .964-.266 8 8 0 0 0-15.424 0 .5.5 0 0 0 .964.266 7 7 0 0 1 2.507-3.708Zm7.885 3.67.146.479-.146-.478h-.002l-.003.001-.014.004-.053.017a61.248 61.248 0 0 0-.924.292 94.91 94.91 0 0 0-2.274.763c-.853.3-1.748.63-2.506.949-.72.302-1.38.618-1.74.907a3 3 0 1 0 3.802 4.64 3.99 3.99 0 0 0 .562-.621c.197-.257.413-.568.638-.909a50.51 50.51 0 0 0 1.401-2.289 106.25 106.25 0 0 0 1.664-2.974l.027-.05.007-.012.002-.003V7.81l-.44-.236.44.236a.5.5 0 0 0-.587-.714ZM8.705 9.118a92.692 92.692 0 0 1 2.05-.69c-.297.536-.679 1.217-1.088 1.92a49.56 49.56 0 0 1-1.372 2.242c-.218.33-.42.62-.596.85-.183.238-.32.388-.408.46a2 2 0 1 1-2.55-3.08c.223-.185.76-.458 1.514-.775a45.354 45.354 0 0 1 2.45-.927Z" clip-rule="evenodd"/></svg>