<svg xmlns="http://www.w3.org/2000/svg" width="24" height="24" viewBox="0 0 24 24"><path fill="currentColor" fill-rule="evenodd" d="M3.145 8.728A10.5 10.5 0 0 1 12.5 3a10.5 10.5 0 0 1 9.356 5.729l.228.445.89-.455-.227-.445A11.5 11.5 0 0 0 12.5 2 11.5 11.5 0 0 0 2.254 8.273l-.227.445.89.455.228-.445Zm13.698 1.322.196.46-.197-.46h-.001l-.005.003-.019.008-.073.031-.279.12a192.153 192.153 0 0 0-4.124 1.844 87.196 87.196 0 0 0-3.36 1.626c-.496.256-.943.5-1.308.718-.354.212-.663.419-.857.602a3.5 3.5 0 1 0 4.817 5.08c.186-.177.412-.46.652-.792.247-.34.528-.756.829-1.218.6-.925 1.285-2.047 1.93-3.129a218.817 218.817 0 0 0 2.38-4.096l.038-.068.01-.018.002-.004v-.001l-.435-.246.436.245.725-1.286-1.357.581Zm-4.083 2.914c1.153-.533 2.27-1.03 3.1-1.395-.443.77-1.04 1.799-1.675 2.862a99.395 99.395 0 0 1-1.91 3.096c-.295.455-.566.855-.799 1.175-.238.328-.417.546-.532.654a2.5 2.5 0 0 1-3.44-3.628c.107-.101.332-.26.683-.47.34-.203.767-.436 1.254-.688a86.31 86.31 0 0 1 3.32-1.606Z" clip-rule="evenodd"/></svg>