<svg xmlns="http://www.w3.org/2000/svg" width="24" height="24" fill="none"><path d="M11.06 2.041a11.386 11.386 0 0 0-4.195 1.187c-1.81.906-3.388 2.273-4.62 4.003C1.674 8.033 1 9.255 1 9.489c0 .262.248.511.508.511.233 0 .343-.121.672-.739.636-1.194 1.325-2.134 2.217-3.023a9.861 9.861 0 0 1 1.756-1.44c1.371-.914 2.807-1.461 4.467-1.703.665-.098 2.095-.098 2.76 0 1.66.242 3.096.789 4.467 1.703a9.861 9.861 0 0 1 1.756 1.44c1 .997 1.594 1.837 2.433 3.442.093.177.299.32.46.32.26 0 .504-.251.504-.519 0-.208-.678-1.446-1.194-2.181a13.443 13.443 0 0 0-2.926-3.007A11.657 11.657 0 0 0 13.46 2.1c-.58-.077-1.85-.108-2.4-.059m6.113 7.231c-3.534 2.478-6.077 4.441-7.236 5.588-.506.501-1.192 1.442-1.5 2.056-.461.922-.442 1.891.052 2.644.568.866 2.119 1.995 3.111 2.265.351.095.942.094 1.26-.002.51-.154.85-.368 1.3-.822.782-.787 1.4-1.756 1.94-3.041.392-.933.97-2.522 1.521-4.18.506-1.521 1.39-4.344 1.442-4.607.036-.176-.103-.47-.27-.572a.655.655 0 0 0-.34-.081c-.203 0-.222.011-1.28.752m-.155 2.495c-.976 3.067-1.909 5.596-2.47 6.692-.229.447-.922 1.4-1.272 1.751-.248.249-.616.45-.899.492-.481.073-1.215-.287-2.204-1.08-.375-.301-.621-.59-.762-.894-.086-.185-.097-.257-.085-.563.013-.318.03-.384.181-.689.232-.467.805-1.267 1.212-1.691.613-.639 1.842-1.652 3.615-2.981 1.411-1.058 3.004-2.197 3.018-2.16.007.017-.143.522-.334 1.123" fill="currentColor" fill-rule="evenodd"/></svg>