<svg xmlns="http://www.w3.org/2000/svg" width="16" height="16" fill="currentColor" viewBox="0 0 16 16">
  <path fill-rule="evenodd" d="M4.505 8.18a3.5 3.5 0 0 0 3.315 3.315L8 11.5v1A3.5 3.5 0 0 0 4.5 16h-1A3.5 3.5 0 0 0 0 12.5v-1A3.5 3.5 0 0 0 3.5 8h1l.005.18ZM4 10.06A4.517 4.517 0 0 1 2.06 12 4.518 4.518 0 0 1 4 13.938 4.518 4.518 0 0 1 5.938 12 4.517 4.517 0 0 1 4 10.06ZM10.5 0a5.5 5.5 0 0 0 5.217 5.493L16 5.5v1a5.5 5.5 0 0 0-5.493 5.217L10.5 12h-1A5.5 5.5 0 0 0 4 6.5v-1A5.5 5.5 0 0 0 9.5 0h1ZM10 2.503A6.522 6.522 0 0 1 6.503 6 6.522 6.522 0 0 1 10 9.496 6.522 6.522 0 0 1 13.496 6 6.522 6.522 0 0 1 10 2.503Z" clip-rule="evenodd"/>
</svg>
