<svg xmlns="http://www.w3.org/2000/svg" width="16" height="16" fill="currentColor" viewBox="0 0 16 16">
  <path fill-rule="evenodd" d="M8.98 10.02h-.854L7.77 8.781H6.23l-.359 1.24h-.826l1.491-4.579h.952l1.491 4.579ZM6.79 6.844c-.066.252-.136.5-.21.742l-.163.56h1.17l-.161-.56a24.233 24.233 0 0 1-.217-.75l-.196-.763h-.028c-.06.257-.126.514-.196.77Z" clip-rule="evenodd"/>
  <path d="M10.356 10.02h-.811V5.442h.811v4.579Z"/>
  <path fill-rule="evenodd" d="M8 0c1.6 0 2.987.973 3.951 2.419.22.328.417.685.594 1.063.368.174.716.368 1.036.581C15.027 5.028 16 6.415 16 8.015s-.973 2.986-2.419 3.95a7.707 7.707 0 0 1-.347.217c.198-.502.36-1.033.484-1.587C14.547 9.84 15 8.943 15 8.015c0-1.143-.685-2.238-1.915-3.078.268.946.415 1.982.415 3.063 0 2.156-.582 4.131-1.549 5.581C10.987 15.027 9.6 16 8 16s-2.987-.973-3.951-2.419a8.13 8.13 0 0 1-.576-1.026 8.145 8.145 0 0 1-1.054-.59C.973 11.003 0 9.616 0 8.016s.973-2.987 2.419-3.952c.107-.071.218-.14.331-.207a10.643 10.643 0 0 0-.477 1.586C1.45 6.195 1 7.09 1 8.015c0 1.146.689 2.244 1.925 3.085A11.277 11.277 0 0 1 2.5 8c0-2.156.582-4.131 1.549-5.581C5.013.973 6.4 0 8 0Zm0 1c-1.161 0-2.274.706-3.12 1.974C4.039 4.238 3.5 6.014 3.5 8c0 1.407.271 2.708.729 3.797 1.083.45 2.375.718 3.771.718a10.16 10.16 0 0 0 3.111-.474c-.125.252-.262.49-.408.708a5.447 5.447 0 0 1-.41.538A11.51 11.51 0 0 1 8 13.515c-1.083 0-2.121-.149-3.07-.417C5.77 14.32 6.862 15 8 15c1.161 0 2.274-.706 3.12-1.974.842-1.264 1.38-3.04 1.38-5.026 0-1.392-.266-2.68-.714-3.762C10.7 3.784 9.402 3.515 8 3.515c-1.13 0-2.192.174-3.13.48.13-.267.274-.515.427-.744.121-.182.248-.35.378-.503A11.508 11.508 0 0 1 8 2.515c1.093 0 2.139.15 3.094.423C10.252 1.694 9.15 1 8 1Z" clip-rule="evenodd"/>
</svg>
