<svg xmlns="http://www.w3.org/2000/svg" width="16" height="16" fill="none"><path d="M12.92.31c-.513.077-.906.233-1.253.497a64.9 64.9 0 0 0-1.427 1.395L8.92 3.516 6.533 2.349a163.58 163.58 0 0 0-2.56-1.236 2.28 2.28 0 0 0-.96-.145 2.133 2.133 0 0 0-.8.171c-.398.164-.513.255-1.253.986-.456.451-.697.708-.68.724.015.013 1.272.854 2.793 1.868C4.595 5.731 5.84 6.569 5.84 6.58c0 .011-.467.488-1.039 1.059L3.763 8.677l-.299.655c-.164.36-.307.665-.318.677-.01.012-.383.001-.828-.023-1.042-.058-1.235-.051-1.468.059a.926.926 0 0 0-.483.458.625.625 0 0 0-.085.363.83.83 0 0 0 .243.591c.057.057.412.318.791.58.378.262.681.49.674.507a137.4 137.4 0 0 1-.247.536c-.229.495-.235.511-.235.707 0 .224.052.356.201.504.147.147.28.2.504.201.197.001.209-.003.718-.239l.537-.248c.011-.004.234.302.496.679.262.378.522.734.579.791.237.239.647.32.929.182a.975.975 0 0 0 .46-.465c.144-.294.15-.392.092-1.417-.028-.498-.042-.913-.031-.922.011-.01.315-.152.676-.317l.655-.299 1.038-1.039A39.747 39.747 0 0 1 9.42 10.16c.011 0 .849 1.245 1.863 2.767a523.882 523.882 0 0 0 1.868 2.793c.039.042 1.349-1.29 1.502-1.529.255-.396.361-.748.379-1.258.011-.323.005-.386-.055-.621-.078-.302-.084-.313-1.48-3.165L12.486 7.08l1.341-1.347c1.412-1.417 1.495-1.514 1.669-1.922A2.504 2.504 0 0 0 14.341.586a2.433 2.433 0 0 0-1.056-.277 3.16 3.16 0 0 0-.365.001m.691 1.013c.423.103.868.506 1.027.932.114.305.12.764.012 1.087-.102.31-.178.389-4.095 4.302L6.76 11.435l-.704.323c-.387.177-.737.322-.776.322-.04 0-.128.008-.196.017-.113.015-.124.023-.124.09 0 .068-.031.086-.563.33-.404.185-.572.25-.596.231-.024-.02-.084.008-.217.1-.164.113-.832.446-.853.425-.021-.021.321-.709.429-.864.088-.126.114-.184.095-.207-.02-.024.045-.191.23-.596.249-.544.26-.564.34-.571l.082-.008.013-.2c.012-.187.035-.248.333-.9l.32-.699 3.84-3.837c3.972-3.969 3.93-3.929 4.257-4.046.252-.091.622-.1.941-.022M3.6 2.007c.138.051 4.54 2.187 4.585 2.225.022.018-1.611 1.636-1.642 1.628-.066-.015-4.755-3.155-4.756-3.184-.001-.062.487-.487.668-.582A1.453 1.453 0 0 1 3.6 2.007m8.865 7.227c1.602 3.287 1.535 3.142 1.581 3.379.037.188.039.254.012.45-.048.345-.178.59-.486.918l-.246.262-1.601-2.403-1.602-2.403.812-.812c.446-.446.817-.811.825-.811.007 0 .325.639.705 1.42M2.287 10.95c.223.01.406.027.406.037 0 .011-.06.15-.133.31-.082.179-.147.288-.17.286-.041-.003-.977-.645-.977-.669a.9.9 0 0 1 .234.002c.128.009.416.024.64.034m2.773 2.946c.018.314.03.599.026.634-.005.049-.08-.043-.334-.408-.181-.26-.334-.487-.341-.506-.014-.034.535-.313.589-.299.015.004.041.249.06.579" fill-rule="evenodd" fill="#000"/></svg>