<svg xmlns="http://www.w3.org/2000/svg" width="17" height="17" viewBox="0 0 17 17"><path stroke="currentColor" fill="none" stroke-linecap="round" stroke-linejoin="round" d="M9.057 4.963 3.834 2.411a2 2 0 0 0-2.292.383l-.78.78 5.811 3.874m2.98 2.98 3.874 5.811.78-.78a2 2 0 0 0 .382-2.292l-2.551-5.223m-6.656 5.77.117 2.11a.811.811 0 0 1-.063.366.55.55 0 0 1-.206.253.355.355 0 0 1-.275.047.44.44 0 0 1-.246-.174l-1.21-1.738m1.883-.864 1.639-.752 7.87-7.872a2.108 2.108 0 0 0-2.981-2.981l-7.871 7.87-.752 1.639m2.095 2.096-1.882.864m0 0-1.379.633a.25.25 0 0 1-.331-.332l.633-1.379m.864-1.883-2.11-.116a.812.812 0 0 0-.367.063.55.55 0 0 0-.253.206.355.355 0 0 0-.047.275.44.44 0 0 0 .174.246L2.423 13.5m.864-1.883L2.423 13.5"/></svg>