<svg xmlns="http://www.w3.org/2000/svg" width="24" height="24" fill="none"><path d="M19.873 1.06a3.617 3.617 0 0 0-1.492.662c-.111.083-1.083 1.035-2.161 2.114-1.078 1.08-1.971 1.964-1.986 1.964-.014 0-1.859-.822-4.1-1.826-2.241-1.004-4.2-1.87-4.354-1.925a2.647 2.647 0 0 0-1.342-.071 2.493 2.493 0 0 0-.885.387c-.268.182-1.789 1.782-1.866 1.965a.472.472 0 0 0 .085.487c.048.054 1.852 1.289 4.008 2.745a791.718 791.718 0 0 1 3.959 2.684c.023.022-.47.547-1.283 1.365L7.135 12.94l-.658 1.149c-.647 1.133-.659 1.15-.787 1.15-.071.001-.829-.053-1.684-.12-1.648-.128-1.686-.127-1.875.05-.103.096-.152.3-.113.461.018.071.412.496 1.128 1.214l1.101 1.105-.528.909c-.694 1.198-.696 1.204-.695 1.622.002.475.111.742.432 1.064.325.324.592.433 1.064.433.418.001.461-.017 1.656-.714l.875-.51 1.105 1.101c.718.715 1.143 1.11 1.214 1.128a.52.52 0 0 0 .614-.364c.013-.053-.034-.845-.104-1.76a45.517 45.517 0 0 1-.114-1.675c.008-.006.536-.312 1.174-.68l1.16-.668 1.309-1.306c.812-.811 1.323-1.292 1.345-1.268.02.022 1.227 1.803 2.684 3.959 1.456 2.156 2.691 3.96 2.745 4.008.128.117.33.152.487.085.069-.029.507-.412.974-.851.935-.88 1.151-1.153 1.319-1.667.082-.248.097-.374.097-.795 0-.439-.013-.534-.104-.78-.057-.154-.928-2.122-1.936-4.373l-1.833-4.093 2.041-2.047c1.123-1.126 2.095-2.128 2.161-2.227.196-.293.363-.653.478-1.028.097-.316.108-.414.108-.952s-.011-.636-.108-.952c-.375-1.225-1.289-2.118-2.487-2.429-.421-.11-1.099-.137-1.507-.059m1.147 1a2.502 2.502 0 0 1 1.695 1.302c.375.761.375 1.508.001 2.278l-.165.34-5.504 5.509-5.504 5.509-2.881 1.669C4.586 21.029 4.637 21 4.523 21c-.282 0-.548-.297-.502-.56.014-.079.885-1.626 2.008-3.566l1.982-3.426 5.505-5.499 5.504-5.5.34-.165c.557-.272 1.089-.343 1.66-.224M8.94 4.538l4.053 1.814.493.221-1.473 1.475c-.936.937-1.496 1.469-1.535 1.459-.051-.013-6.913-4.633-7.408-4.988l-.149-.107.509-.545c.777-.83.999-.959 1.61-.936l.34.013 3.56 1.594M20.221 15.52c.94 2.101 1.745 3.919 1.787 4.04.06.169.074.294.062.54-.025.489-.143.701-.687 1.232-.244.238-.524.501-.624.586l-.181.154-2.519-3.721a434.122 434.122 0 0 1-2.556-3.798c-.032-.067.165-.281 1.439-1.555 1.398-1.398 1.479-1.472 1.523-1.387.026.049.816 1.808 1.756 3.909m-15.61.647c.347.026.626.059.62.073-.043.1-.455.798-.472.799a7.437 7.437 0 0 1-.479-.459c-.33-.331-.437-.46-.379-.46.043 0 .363.021.71.047m4.226 4.276c.027.376.043.69.034.699-.008.008-.221-.193-.473-.448s-.44-.47-.418-.479c.022-.009.202-.114.4-.233.198-.119.37-.217.383-.219.013-.002.046.304.074.68" fill-rule="evenodd" fill="#000"/></svg>