<svg xmlns="http://www.w3.org/2000/svg" width="24" height="24" viewBox="0 0 24 24"><path stroke="currentColor" fill="none" stroke-linecap="round" stroke-linejoin="round" d="M14.349 6.409 5.8 2.582a2 2 0 0 0-2.274.455L2.15 4.5l8.414 5.693m8.027.458 3.827 8.55a2 2 0 0 1-.455 2.274L20.5 22.85l-5.693-8.414m-8.723 1.34L2.5 15.5l2.366 2.377m1.218-2.102L7.6 13.157 18.379 2.379a3 3 0 1 1 4.243 4.243L11.843 17.4l-2.618 1.517m-3.141-3.142-1.218 2.102m0 0L3.65 19.98a1 1 0 0 0 1.372 1.372L7.13 20.13m2.095-1.213L9.5 22.5l-2.37-2.37m2.095-1.213L7.13 20.13"/></svg>