<svg xmlns="http://www.w3.org/2000/svg" width="16" height="16" fill="none" viewBox="0 0 16 16"><path stroke="currentColor" stroke-linecap="square" stroke-width=".966" d="m5.47 12.555.113 2.038a.784.784 0 0 1-.06.354.532.532 0 0 1-.199.243.343.343 0 0 1-.266.046.426.426 0 0 1-.237-.168l-1.168-1.679m1.818-.834 1.583-.727 7.604-7.606a2.037 2.037 0 0 0-2.88-2.88L4.173 8.946l-.726 1.583m2.024 2.026-1.818.834m0 0-1.333.612A.241.241 0 0 1 2 13.68l.612-1.332m.835-1.82-2.04-.111a.785.785 0 0 0-.353.06.532.532 0 0 0-.244.199.343.343 0 0 0-.046.266c.022.09.08.173.168.238l1.68 1.168m.835-1.82-.835 1.82m3.803-5.985L1.007 2.758l.754-.754a1.932 1.932 0 0 1 2.214-.37L8.817 4M12 7.182l2.366 4.844a1.933 1.933 0 0 1-.37 2.214l-.753.754-3.586-5.38"/></svg>