<svg xmlns="http://www.w3.org/2000/svg" width="16" height="16" fill="currentColor" viewBox="0 0 16 16">
  <path fill-rule="evenodd" d="m3.2 9.99-1.745-.069a1.283 1.283 0 0 0-.577.101 1.03 1.03 0 0 0-.47.393.843.843 0 0 0-.107.65.92.92 0 0 0 .343.51l1.275 1.074-.354.835a.741.741 0 0 0 .986.975l.953-.437.93 1.336.007.01a.925.925 0 0 0 .522.358.843.843 0 0 0 .649-.107 1.03 1.03 0 0 0 .393-.47c.08-.182.112-.384.1-.58l-.093-1.698 1.356-.622 2.078-2.08 3.743 5.614 1.184-1.185a2.433 2.433 0 0 0 .465-2.788l-2.414-4.619 2.61-2.611A2.537 2.537 0 0 0 11.447.993l-2.61 2.61-4.62-2.414a2.432 2.432 0 0 0-2.787.466L.25 2.835l5.564 3.79-2.039 2.039-.574 1.327Zm10.04-8.74c-.407 0-.797.162-1.086.45l-5.5 5.499-2.037 2.037-.64 1.48-1 1.998-.236.558 4.046-1.857 7.54-7.542a1.536 1.536 0 0 0-1.086-2.623ZM2.36 11.713l.37-.74-1.311-.052.94.792Zm4.173-5.807 1.562-1.561-4.322-2.26a1.432 1.432 0 0 0-1.635.277l-.327.326 4.722 3.218Zm5.15 2.026-1.515 1.516 3.176 4.765.322-.322a1.432 1.432 0 0 0 .277-1.636l-2.26-4.323ZM5.035 13.32l-.608.28.677.972-.069-1.252Z" clip-rule="evenodd"/>
</svg>
