<svg xmlns="http://www.w3.org/2000/svg" viewBox="0 0 48 48" style="enable-background:new 0 0 48 48" xml:space="preserve"><path d="M11.999 2.94c-.001 1.943-.028 2.26-.191 2.26-.18 0-1.287.574-1.765.915-.679.485-2.052 1.931-2.776 2.925-1.651 2.267-3.401 5.742-4.852 9.64-.511 1.371-1.375 3.856-1.375 3.955 0 .045 1.537.536 1.861.594.033.006.344-.835.69-1.869 2.448-7.307 5.645-12.77 8.216-14.041.547-.27.702-.311 1.152-.306.577.006 1.294.263 1.899.679.483.333 1.387 1.265 2.032 2.096 1.8 2.317 3.983 6.837 5.622 11.638.29.851.528 1.562.528 1.58 0 .019-2.034.034-4.52.034H14v-14h-2v14H5.04v1.92H12v22h2v-22h3.1c1.705 0 3.875.024 4.823.052l1.722.052.305.888c1.061 3.085 2.497 6.348 3.772 8.574 1.849 3.228 3.919 5.449 5.701 6.116 1.108.414 2.141.393 3.331-.069 1.876-.729 3.874-2.871 5.868-6.293 1.051-1.804 2.365-4.64 3.354-7.24.372-.979 1.384-3.883 1.384-3.972 0-.015-4.356-.028-9.68-.028H28v1.919l8.314.021 8.314.02-.433 1.188c-1.204 3.306-3.128 7.13-4.737 9.412-.294.418-.968 1.195-1.497 1.728-.833.839-1.052 1.012-1.641 1.302-1.169.575-1.867.518-3.008-.246-1.543-1.032-3.204-3.339-4.91-6.824-1.347-2.75-2.161-4.85-3.44-8.872-1.879-5.915-3.933-10.429-6.176-13.574-.694-.974-2.141-2.508-2.826-2.997-.48-.343-1.588-.917-1.768-.917-.163 0-.19-.317-.191-2.26L14 1.04h-2l-.001 1.9" fill-rule="evenodd"/></svg>