<svg xmlns="http://www.w3.org/2000/svg" viewBox="0 0 48 48" style="enable-background:new 0 0 48 48" xml:space="preserve"><path d="M12 3.083c0 1.873-.012 2.046-.14 2.09-1.155.397-1.967.928-2.98 1.947-2.086 2.101-4.02 5.425-5.969 10.261-.634 1.573-1.921 5.238-1.86 5.295.016.015.454.154.974.309l.944.282.076-.199c.041-.109.075-.225.075-.258s.184-.616.408-1.295c2.295-6.946 5.476-12.576 7.919-14.017 1.099-.649 1.757-.678 2.87-.128.563.278.812.47 1.48 1.144 1.262 1.271 2.263 2.776 3.597 5.406 1.256 2.479 2.132 4.589 3.134 7.553a70.5 70.5 0 0 1 .512 1.54c0 .015-2.034.027-4.52.027H14v-14h-2v14H5.04v1.92H12v22h2V24.959l4.809.02 4.808.021.42 1.2c1.691 4.836 3.794 9.012 5.785 11.485.569.705 1.831 1.941 2.338 2.288 3.106 2.124 6.265.768 9.46-4.061 1.574-2.378 3.173-5.67 4.539-9.34.405-1.088 1.201-3.412 1.201-3.506 0-.014-4.356-.026-9.68-.026H28v1.92h16.63l-.226.66c-.622 1.819-1.519 3.905-2.58 5.999-2.095 4.134-4.23 6.696-6.052 7.263-.622.193-.968.196-1.503.011-1.778-.615-3.698-2.956-5.696-6.947-1.452-2.902-2.406-5.377-3.814-9.906-1.041-3.347-2.649-7.246-4.055-9.837-1.194-2.199-2.353-3.843-3.584-5.083-1.013-1.019-1.825-1.55-2.98-1.947-.128-.044-.14-.217-.14-2.09V1.04h-2v2.043" fill-rule="evenodd"/></svg>