<svg xmlns="http://www.w3.org/2000/svg" width="16" height="16" fill="none"><path d="M3.01.394A7.51 7.51 0 0 0 1.826 8.92a7.742 7.742 0 0 0 1.123 1.622l.233.262.355-.354c.348-.348.354-.356.308-.409a24.19 24.19 0 0 0-.205-.228C2.511 8.566 1.898 6.778 2.021 5.087c.035-.492.08-.775.195-1.231a6.609 6.609 0 0 1 1.493-2.745l.193-.209-.344-.344a5.413 5.413 0 0 0-.361-.345c-.009 0-.094.081-.187.181m9.432.164-.344.344.193.209a6.887 6.887 0 0 1 1.319 2.172c.345.934.468 2.106.325 3.104a6.526 6.526 0 0 1-1.625 3.479l-.205.225.354.356.354.355.154-.168c.981-1.068 1.607-2.285 1.884-3.661A7.49 7.49 0 0 0 13.493 1c-.244-.324-.648-.787-.689-.787-.01 0-.173.155-.362.345M5.173 2.471a4.51 4.51 0 0 0 .026 6.089l.107.12.347-.346c.191-.191.347-.357.347-.37a.907.907 0 0 0-.138-.174 3.808 3.808 0 0 1-.5-.745c-.384-.766-.458-1.794-.187-2.622.146-.448.413-.916.714-1.252l.134-.149-.354-.353-.354-.353-.142.155m5.155.201-.351.355.122.133c.417.455.737 1.118.847 1.757.052.303.052.839-.001 1.163-.099.613-.415 1.283-.807 1.71a.907.907 0 0 0-.138.174c0 .013.155.178.345.368l.346.345.108-.119a4.605 4.605 0 0 0 1.125-2.242c.078-.392.087-1.18.016-1.556-.164-.878-.565-1.702-1.116-2.29l-.144-.153-.352.355M7.695 4.031a1.783 1.783 0 0 0-.32.113 1.46 1.46 0 0 0-.862 1.248c-.028.474.111.84.444 1.168.137.134.258.226.37.278l.166.078v8.098l-1.5-.001H4V16h8v-.987H8.507V6.916l.166-.078c.112-.052.233-.144.37-.278.333-.328.472-.694.444-1.168-.054-.894-.894-1.532-1.792-1.361m.556 1.046a.503.503 0 0 1 .091.782.49.49 0 0 1-.522.1.463.463 0 0 1-.308-.455.49.49 0 0 1 .739-.427" fill="currentColor" fill-rule="evenodd"/></svg>