<svg xmlns="http://www.w3.org/2000/svg" width="16" height="16" viewBox="0 0 16 16">
  <path fill="#1D1D1D" fill-rule="evenodd" d="M14.5 6.107a6.479 6.479 0 0 0-1.951-4.643l.7-.714A7.479 7.479 0 0 1 15.5 6.107a7.479 7.479 0 0 1-2.251 5.357l-.7-.714A6.479 6.479 0 0 0 14.5 6.107ZM3.357 1.558A6.477 6.477 0 0 0 1.5 6.108c0 1.818.746 3.462 1.951 4.642l-.7.714A7.479 7.479 0 0 1 .5 6.107c0-2.043.818-3.897 2.143-5.249l.714.7Zm2.168 2.074A3.487 3.487 0 0 0 4.5 6.107c0 .967.391 1.841 1.025 2.475l-.707.707A4.487 4.487 0 0 1 3.5 6.107c0-1.242.504-2.368 1.318-3.182l.707.707ZM11.5 6.107c0-.967-.391-1.84-1.025-2.475l.707-.707A4.487 4.487 0 0 1 12.5 6.107a4.487 4.487 0 0 1-1.318 3.182l-.707-.707A3.488 3.488 0 0 0 11.5 6.107Zm-3.5-.5a.5.5 0 1 0 0 1 .5.5 0 0 0 0-1Zm-1.5.5a1.5 1.5 0 1 1 2 1.415V15H12v1H4v-1h3.5V7.522a1.5 1.5 0 0 1-1-1.415Z" clip-rule="evenodd"/>
</svg>
