<svg xmlns="http://www.w3.org/2000/svg" width="16" height="16" fill="none"><path d="M4.44 1.042c-1.877.291-3.422.53-3.433.53C.996 1.573.99 4.594.993 8.287L1 15h6l.007-1.5.007-1.5h1.972l.007 1.5L9 15h6l.007-6.713c.003-3.693.003-6.714-.001-6.714l-3.473-.533C9.627.747 8.02.508 7.961.51c-.059.001-1.644.241-3.521.532m6.587.931c1.62.25 2.952.454 2.959.454.008 0 .014 2.604.014 5.786V14h-4v-2.987H6V14H2V2.43l.117-.018c.065-.009 1.382-.213 2.927-.452 1.545-.239 2.86-.436 2.923-.437.062-.002 1.439.201 3.06.45M4 5v1h1.013V4H4v1m3.493 0v1h1.014V4H7.493v1m3.494 0v1H12V4h-1.013v1M4 9v1h1.013V8H4v1m3.493 0v1h1.014V8H7.493v1m3.494 0v1H12V8h-1.013v1" fill-rule="evenodd" fill="#000"/></svg>