<svg xmlns="http://www.w3.org/2000/svg" width="24" height="24" viewBox="0 0 24 24"><path fill="currentColor" d="m3 4-.158-.474-.342.114V4H3Zm9-3 .158-.474L12 .473l-.158.053L12 1Zm9 3h.5v-.36l-.342-.114L21 4Zm0 19v.5h.5V23H21ZM3 23h-.5v.5H3V23ZM8 6.5V6H7v.5h1Zm-1 1V8h1v-.5H7Zm5.5-1V6h-1v.5h1Zm-1 1V8h1v-.5h-1Zm5.5-1V6h-1v.5h1Zm-1 1V8h1v-.5h-1Zm-8 3V10H7v.5h1Zm-1 1v.5h1v-.5H7Zm5.5-1V10h-1v.5h1Zm-1 1v.5h1v-.5h-1Zm5.5-1V10h-1v.5h1Zm-1 1v.5h1v-.5h-1Zm-8 3V14H7v.5h1Zm-1 1v.5h1v-.5H7Zm5.5-1V14h-1v.5h1Zm-1 1v.5h1v-.5h-1Zm5.5-1V14h-1v.5h1Zm-1 1v.5h1v-.5h-1Zm-2.5 3h.5V18h-.5v.5Zm-3 0V18H10v.5h.5ZM3.158 4.474l9-3-.316-.948-9 3 .316.948Zm8.684-3 9 3 .316-.948-9-3-.316.948ZM20.5 4v19h1V4h-1Zm.5 18.5H3v1h18v-1ZM3.5 23V4h-1v19h1ZM7 6.5v1h1v-1H7Zm4.5 0v1h1v-1h-1Zm4.5 0v1h1v-1h-1Zm-9 4v1h1v-1H7Zm4.5 0v1h1v-1h-1Zm4.5 0v1h1v-1h-1Zm-9 4v1h1v-1H7Zm4.5 0v1h1v-1h-1Zm4.5 0v1h1v-1h-1Zm-2 8v-4h-1v4h1Zm-.5-4.5h-3v1h3v-1Zm-3.5.5v4h1v-4h-1Z"/></svg>