<svg xmlns="http://www.w3.org/2000/svg" width="24" height="24" fill="none"><path d="m7.21 2.067-4.73 1.58.01 9.926.01 9.927h19l.01-9.927.01-9.926-4.75-1.584c-2.612-.87-4.768-1.582-4.79-1.58-.022.002-2.169.714-4.77 1.584m9.07.886 4.18 1.394.01 9.086.01 9.087H14V18h-4v4.52H3.52l.01-9.087.01-9.086 4.22-1.41c2.321-.775 4.247-1.403 4.28-1.394.033.009 1.941.644 4.24 1.41M7 7v1h1V6H7v1m4.48 0v1h1.04V6h-1.04v1M16 7v1h1V6h-1v1m-9 4v1h1v-2H7v1m4.48 0v1h1.04v-2h-1.04v1M16 11v1h1v-2h-1v1m-9 4v1h1v-2H7v1m4.48 0v1h1.04v-2h-1.04v1M16 15v1h1v-2h-1v1m-3 5.76v1.76h-2V19h2v1.76" fill="currentColor" fill-rule="evenodd"/></svg>