<svg xmlns="http://www.w3.org/2000/svg" width="16" height="16" fill="none"><path d="M11.77.399a1.447 1.447 0 0 0-.575.218c-.115.074-.542.481-1.358 1.298-1.18 1.182-1.191 1.194-1.301 1.421a1.454 1.454 0 0 0 0 1.328c.109.228.117.236 1.34 1.46 1.223 1.222 1.232 1.231 1.457 1.338.361.172.661.205 1.021.113.258-.066.391-.134.606-.31.322-.263 2.306-2.279 2.425-2.464a1.5 1.5 0 0 0 0-1.602c-.153-.24-2.344-2.43-2.583-2.583a1.583 1.583 0 0 0-.334-.16 1.873 1.873 0 0 0-.698-.057m-9.663.653a1.552 1.552 0 0 0-1.048 1.014C1.001 2.251 1 2.271 1 4c0 1.729.001 1.749.059 1.934.133.423.502.818.906.972.261.099.514.111 2.182.101 1.421-.009 1.617-.015 1.758-.056a1.571 1.571 0 0 0 1.048-1.06C6.996 5.736 7 5.562 7 4c0-1.571-.004-1.735-.048-1.893A1.548 1.548 0 0 0 5.89 1.052c-.198-.052-3.597-.053-3.783 0m10.101.376c.066.028.447.389 1.173 1.113.591.59 1.105 1.118 1.144 1.173a.57.57 0 0 1 .061.463c-.026.081-.26.331-1.116 1.191-.596.598-1.129 1.119-1.185 1.157a.52.52 0 0 1-.504.039c-.08-.039-.455-.398-1.225-1.17-.878-.882-1.116-1.136-1.142-1.217a.57.57 0 0 1 .061-.463c.123-.177 2.211-2.241 2.312-2.285a.588.588 0 0 1 .421-.001m-6.441.659c.053.04.124.112.158.16l.062.086v3.342l-.082.101a1.202 1.202 0 0 1-.155.156c-.073.054-.098.055-1.75.055s-1.677-.001-1.75-.055a1.202 1.202 0 0 1-.155-.156l-.082-.101-.008-1.577c-.004-.868 0-1.631.009-1.695.013-.092.044-.143.145-.244a.6.6 0 0 1 .191-.14c.035-.007.796-.011 1.692-.009l1.629.003.096.074m-3.66 6.965a1.552 1.552 0 0 0-1.048 1.014C1.001 10.251 1 10.271 1 12c0 1.729.001 1.749.059 1.934.133.423.502.818.906.972.261.099.514.111 2.182.101 1.421-.009 1.617-.015 1.758-.056a1.571 1.571 0 0 0 1.048-1.06C6.996 13.736 7 13.562 7 12c0-1.571-.004-1.735-.048-1.893A1.548 1.548 0 0 0 5.89 9.052c-.198-.052-3.597-.053-3.783 0m8 0a1.552 1.552 0 0 0-1.048 1.014C9.001 10.251 9 10.271 9 12c0 1.729.001 1.749.059 1.934.133.423.502.818.906.972.261.099.514.111 2.182.101 1.421-.009 1.617-.015 1.758-.056a1.571 1.571 0 0 0 1.048-1.06c.043-.155.047-.329.047-1.891 0-1.571-.004-1.735-.048-1.893a1.548 1.548 0 0 0-1.062-1.055c-.198-.052-3.597-.053-3.783 0m-4.34 1.035c.053.04.124.112.158.16l.062.086v3.342l-.082.101a1.202 1.202 0 0 1-.155.156c-.073.054-.098.055-1.75.055s-1.677-.001-1.75-.055a1.202 1.202 0 0 1-.155-.156l-.082-.101-.008-1.577c-.004-.868 0-1.631.009-1.695.013-.092.044-.143.145-.244a.6.6 0 0 1 .191-.14c.035-.007.796-.011 1.692-.009l1.629.003.096.074m8 0c.053.04.124.112.158.16l.062.086v3.342l-.082.101a1.202 1.202 0 0 1-.155.156c-.073.054-.098.055-1.75.055s-1.677-.001-1.75-.055a1.202 1.202 0 0 1-.155-.156l-.082-.101-.008-1.577c-.004-.868 0-1.631.009-1.695.013-.092.044-.143.145-.244a.6.6 0 0 1 .191-.14c.035-.007.796-.011 1.692-.009l1.629.003.096.074" fill-rule="evenodd" fill="#000"/></svg>