<svg width="24" height="24" fill="none" xmlns="http://www.w3.org/2000/svg"><path d="M17.266 1.448c-.455.059-.467.069-2.608 2.21-1.553 1.553-2.023 2.046-2.096 2.198-.173.361-.17.931.006 1.3.13.273 4.012 4.149 4.292 4.286.175.086.255.098.64.098.688 0 .58.084 2.884-2.232 1.441-1.447 1.983-2.017 2.048-2.152.176-.368.176-.942.001-1.31-.126-.265-4.012-4.152-4.277-4.278-.232-.111-.589-.159-.89-.12M3.14 2.056c-.44.109-.81.419-1.008.844l-.112.24v6.72l.112.24c.147.315.455.624.764.767l.244.113h6.72l.244-.113c.309-.143.617-.452.764-.767l.112-.24V3.14l-.112-.24a1.528 1.528 0 0 0-1.06-.855c-.314-.067-6.395-.056-6.668.011m14.527.386c.171.063 3.843 3.747 3.896 3.908.095.287.111.268-1.896 2.28-1.316 1.319-1.925 1.903-2.017 1.933-.287.095-.267.112-2.28-1.896-1.319-1.316-1.903-1.925-1.933-2.017-.095-.287-.11-.269 1.877-2.264 1.026-1.031 1.92-1.899 1.986-1.929.147-.066.222-.069.367-.015m-7.919.636c.264.161.252-.005.252 3.434v3.116l-.091.136a.658.658 0 0 1-.19.185c-.144.073-6.294.073-6.438 0a.658.658 0 0 1-.19-.185L3 9.628V6.512c0-3.439-.012-3.273.252-3.434C3.376 3.003 3.476 3 6.5 3s3.124.003 3.248.078M3.14 13.056c-.44.109-.81.419-1.008.844l-.112.24v6.72l.112.24c.147.315.455.624.764.767l.244.113h6.72l.244-.113c.309-.143.617-.452.764-.767l.112-.24v-6.72l-.112-.24a1.528 1.528 0 0 0-1.06-.855c-.314-.067-6.395-.056-6.668.011m11 0c-.44.109-.81.419-1.008.844l-.112.24v6.72l.112.24c.147.315.455.624.764.767l.244.113h6.72l.244-.113c.309-.143.617-.452.764-.767l.112-.24v-6.72l-.112-.24a1.528 1.528 0 0 0-1.06-.855c-.314-.067-6.395-.056-6.668.011m-4.392 1.022c.264.161.252-.005.252 3.434v3.116l-.091.136a.658.658 0 0 1-.19.185c-.144.073-6.294.073-6.438 0a.658.658 0 0 1-.19-.185L3 20.628v-3.116c0-3.439-.012-3.273.252-3.434.124-.075.224-.078 3.248-.078s3.124.003 3.248.078m11 0c.264.161.252-.005.252 3.434v3.116l-.091.136a.658.658 0 0 1-.19.185c-.144.073-6.294.073-6.438 0a.658.658 0 0 1-.19-.185L14 20.628v-3.116c0-3.439-.012-3.273.252-3.434.124-.075.224-.078 3.248-.078s3.124.003 3.248.078" fill-rule="evenodd" fill="#000"/></svg>