<svg xmlns="http://www.w3.org/2000/svg" width="24" height="24" fill="none"><path d="M17.276 1.443c-.45.05-.471.067-2.62 2.215-1.519 1.516-2.026 2.047-2.092 2.188-.187.398-.187.91 0 1.309.125.267 4.014 4.156 4.282 4.281.398.187.91.187 1.309 0 .267-.125 4.156-4.014 4.281-4.281a1.597 1.597 0 0 0 0-1.309c-.123-.264-4.012-4.151-4.28-4.278-.225-.107-.582-.158-.88-.125m-14.102.598c-.419.085-.844.435-1.042.859l-.112.24v6.72l.112.24c.147.315.455.624.764.767l.244.113h6.72l.244-.113c.309-.143.617-.452.764-.767l.112-.24V3.14l-.113-.244a1.698 1.698 0 0 0-.767-.764l-.24-.112-3.26-.006c-1.793-.004-3.335.008-3.426.027m16.473 2.313C21.66 6.366 21.604 6.3 21.565 6.62c-.011.097-.375.482-1.898 2.01-1.363 1.366-1.922 1.902-2.021 1.935-.288.095-.291.093-2.313-1.934-1.99-1.994-1.937-1.931-1.899-2.251.012-.097.375-.481 1.92-2.027 2.011-2.013 1.945-1.957 2.266-1.919.097.012.481.375 2.027 1.92M9.748 3.078c.264.161.252-.005.252 3.43 0 3.016-.003 3.116-.078 3.24-.161.264.004.252-3.422.252s-3.261.012-3.422-.252C3.003 9.624 3 9.524 3 6.508c0-3.435-.012-3.269.252-3.43C3.376 3.003 3.476 3 6.5 3s3.124.003 3.248.078m-6.574 9.963c-.419.085-.844.435-1.042.859l-.112.24v6.72l.112.24c.147.315.455.624.764.767l.244.113h6.72l.244-.113c.309-.143.617-.452.764-.767l.112-.24v-6.72l-.113-.244a1.698 1.698 0 0 0-.767-.764l-.24-.112-3.26-.006c-1.793-.004-3.335.008-3.426.027m11 0c-.419.085-.844.435-1.042.859l-.112.24v6.72l.112.24c.147.315.455.624.764.767l.244.113h6.72l.244-.113c.309-.143.617-.452.764-.767l.112-.24v-6.72l-.113-.244a1.698 1.698 0 0 0-.767-.764l-.24-.112-3.26-.006c-1.793-.004-3.335.008-3.426.027m-4.426 1.037c.264.161.252-.005.252 3.43 0 3.016-.003 3.116-.078 3.24-.161.264.004.252-3.422.252s-3.261.012-3.422-.252c-.075-.124-.078-.224-.078-3.24 0-3.435-.012-3.269.252-3.43.124-.075.224-.078 3.248-.078s3.124.003 3.248.078m11 0c.264.161.252-.005.252 3.43 0 3.016-.003 3.116-.078 3.24-.161.264.004.252-3.422.252s-3.261.012-3.422-.252c-.075-.124-.078-.224-.078-3.24 0-3.435-.012-3.269.252-3.43.124-.075.224-.078 3.248-.078s3.124.003 3.248.078" fill-rule="evenodd" fill="#000"/></svg>