<svg width="24" height="24" viewBox="0 0 24 24" fill="none" xmlns="http://www.w3.org/2000/svg">
<path d="M9.5 2.49996H3.5C2.94772 2.49996 2.5 2.94767 2.5 3.49996V9.49996C2.5 10.0522 2.94772 10.5 3.5 10.5H9.5C10.0523 10.5 10.5 10.0522 10.5 9.49996V3.49996C10.5 2.94767 10.0523 2.49996 9.5 2.49996Z" stroke="#1D1D1D" stroke-miterlimit="10" stroke-linecap="square"/>
<path d="M16.7928 2.20683L13.2071 5.79257C12.8166 6.1831 12.8166 6.81626 13.2071 7.20679L16.7928 10.7925C17.1834 11.183 17.8165 11.183 18.2071 10.7925L21.7928 7.20679C22.1833 6.81626 22.1833 6.1831 21.7928 5.79257L18.2071 2.20683C17.8165 1.81631 17.1834 1.81631 16.7928 2.20683Z" stroke="#1D1D1D" stroke-miterlimit="10" stroke-linecap="square"/>
<path d="M20.5 13.5H14.5C13.9477 13.5 13.5 13.9477 13.5 14.5V20.5C13.5 21.0522 13.9477 21.5 14.5 21.5H20.5C21.0523 21.5 21.5 21.0522 21.5 20.5V14.5C21.5 13.9477 21.0523 13.5 20.5 13.5Z" stroke="#1D1D1D" stroke-miterlimit="10" stroke-linecap="square"/>
<path d="M9.5 13.5H3.5C2.94772 13.5 2.5 13.9477 2.5 14.5V20.5C2.5 21.0522 2.94772 21.5 3.5 21.5H9.5C10.0523 21.5 10.5 21.0522 10.5 20.5V14.5C10.5 13.9477 10.0523 13.5 9.5 13.5Z" stroke="#1D1D1D" stroke-miterlimit="10" stroke-linecap="square"/>
</svg>
