<svg xmlns="http://www.w3.org/2000/svg" width="16" height="16" fill="none" viewBox="0 0 16 16"><path stroke="currentColor" fill="none" stroke-linecap="round" stroke-linejoin="round" d="M5.5 1.5h-3a1 1 0 0 0-1 1v3a1 1 0 0 0 1 1h3a1 1 0 0 0 1-1v-3a1 1 0 0 0-1-1ZM11.293 1.172 9.17 3.293a1 1 0 0 0 0 1.414l2.122 2.122a1 1 0 0 0 1.414 0l2.121-2.122a1 1 0 0 0 0-1.414l-2.121-2.121a1 1 0 0 0-1.414 0ZM5.5 9.5h-3a1 1 0 0 0-1 1v3a1 1 0 0 0 1 1h3a1 1 0 0 0 1-1v-3a1 1 0 0 0-1-1ZM13.5 9.5h-3a1 1 0 0 0-1 1v3a1 1 0 0 0 1 1h3a1 1 0 0 0 1-1v-3a1 1 0 0 0-1-1Z"/></svg>