<svg xmlns="http://www.w3.org/2000/svg" width="24" height="24" viewBox="0 0 24 24"><path stroke="currentColor" stroke-linecap="square" stroke-miterlimit="10" d="M9.5 2.5h-6a1 1 0 0 0-1 1v6a1 1 0 0 0 1 1h6a1 1 0 0 0 1-1v-6a1 1 0 0 0-1-1Zm7.293-.293-3.586 3.586a1 1 0 0 0 0 1.414l3.586 3.586a1 1 0 0 0 1.414 0l3.586-3.586a1 1 0 0 0 0-1.414l-3.586-3.586a1 1 0 0 0-1.414 0ZM20.5 13.5h-6a1 1 0 0 0-1 1v6a1 1 0 0 0 1 1h6a1 1 0 0 0 1-1v-6a1 1 0 0 0-1-1Zm-11 0h-6a1 1 0 0 0-1 1v6a1 1 0 0 0 1 1h6a1 1 0 0 0 1-1v-6a1 1 0 0 0-1-1Z"/></svg>