<svg xmlns="http://www.w3.org/2000/svg" width="16" height="16" fill="none"><path d="M3.497.06c-.061.033-.854.754-1.762 1.603C.44 2.872.075 3.228.042 3.31.004 3.404 0 3.992 0 9.047c.001 6.234-.012 5.798.175 6.152.122.232.394.504.626.626.356.188-.195.174 7.199.174s6.843.014 7.199-.174c.232-.122.504-.394.626-.626.187-.354.174.082.175-6.152 0-5.065-.004-5.643-.042-5.738-.033-.082-.395-.434-1.694-1.647C13.356.814 12.563.093 12.502.06l-.11-.06H3.608l-.111.06m9.655 1.932c.576.538 1.052.988 1.057 1 .005.012-2.789.021-6.209.021-3.42 0-6.214-.009-6.209-.021.005-.012.481-.462 1.057-1l1.048-.979h8.208l1.048.979m1.835 7.329c0 4.595-.006 5.332-.039 5.396a.673.673 0 0 1-.302.263c-.095.026-13.197.026-13.292 0a.673.673 0 0 1-.302-.263c-.033-.064-.039-.801-.039-5.396V4h13.974v5.321M6.28 5.055a.445.445 0 0 0-.23.238c-.046.1-.049.218-.049 1.913L6 9.011l-.849.008-.849.008-.101.077c-.203.155-.258.476-.116.669.033.044.855.989 1.827 2.1 1.309 1.495 1.795 2.033 1.873 2.073.059.03.152.054.207.053.239-.001.208.031 2.129-2.163.993-1.135 1.822-2.101 1.843-2.148a.497.497 0 0 0-.005-.375.426.426 0 0 0-.231-.249c-.091-.046-.167-.051-.914-.051H10V7.212c0-1.56-.005-1.813-.041-1.899a.426.426 0 0 0-.231-.249c-.094-.048-.182-.051-1.734-.051-1.43.001-1.644.006-1.714.042m2.707 2.677c0 1.149.009 1.778.029 1.867.035.163.13.285.276.351.092.042.18.049.597.049.269.001.485.011.48.023A157.25 157.25 0 0 1 8 12.72c-.018 0-2.354-2.66-2.369-2.698-.005-.012.211-.022.48-.023.417 0 .505-.007.597-.049a.479.479 0 0 0 .276-.351c.02-.089.029-.718.029-1.867V6h1.974v1.732" fill-rule="evenodd" fill="#000"/></svg>