<svg xmlns="http://www.w3.org/2000/svg" width="24" height="24" fill="none"><path d="M6.26 2.076c-.066.042-1.052 1.01-2.191 2.151l-2.07 2.076.01 7.359.011 7.358.111.3c.265.72.826 1.282 1.549 1.549l.3.111h17.04l.3-.111a2.604 2.604 0 0 0 1.549-1.549l.111-.3.011-7.358.01-7.359-2.09-2.094c-1.15-1.152-2.14-2.12-2.199-2.152-.092-.049-.994-.057-6.22-.057-5.927 0-6.116.003-6.232.076M19.8 4.5 21.3 6H3.7l1.5-1.5L6.7 3h11.6l1.5 1.5m2.191 9.43-.011 6.93-.113.244a1.698 1.698 0 0 1-.767.764l-.24.112H4.14l-.244-.113a1.698 1.698 0 0 1-.764-.767l-.112-.24-.011-6.93L2.999 7h19.002l-.01 6.93m-9.739-4.852c-.267.163-.252-.093-.252 4.27V17.3l-1.61-1.606c-.885-.883-1.649-1.626-1.697-1.65-.388-.196-.841.28-.636.668.032.059 1 1.049 2.151 2.198L12.302 19h.396l2.094-2.09c1.151-1.149 2.119-2.139 2.151-2.198.205-.388-.248-.864-.636-.668-.048.024-.812.767-1.697 1.65L13 17.3v-3.96c0-3.857-.002-3.963-.078-4.088a.478.478 0 0 0-.67-.174" fill-rule="evenodd" fill="#000"/></svg>