<svg xmlns="http://www.w3.org/2000/svg" width="16" height="16" fill="none"><path d="M7.772.067a.672.672 0 0 0-.214.18c-.451.624-3.491 5.004-3.52 5.073a.493.493 0 0 0-.002.368c.049.117.235.279.342.298.049.009 1.71.013 3.691.008l3.602-.007.093-.065c.202-.138.287-.389.201-.595C11.922 5.225 8.526.348 8.387.189a.57.57 0 0 0-.388-.188.598.598 0 0 0-.227.066m-3.429 9.959a.5.5 0 0 0-.305.654c.05.118 3.524 5.091 3.621 5.183a.504.504 0 0 0 .682 0c.117-.11 3.586-5.091 3.629-5.21a.488.488 0 0 0-.276-.603c-.102-.046-.28-.049-3.694-.047-1.973.001-3.618.011-3.657.023" fill="currentColor" fill-rule="evenodd"/></svg>