<svg xmlns="http://www.w3.org/2000/svg" width="12" height="12" fill="none"><path d="M7.335 1.53a.54.54 0 0 0-.271.228c-.046.078-.054.115-.054.242a.492.492 0 0 0 .037.22c.021.039.758.792 1.64 1.675L10.29 5.5H5.368c-4.112 0-4.937.005-5.013.027a.513.513 0 0 0-.291.231C.018 5.836.01 5.873.01 6c0 .128.008.164.055.244a.516.516 0 0 0 .27.227c.062.023.94.027 5.015.028l4.94.001-1.603 1.605c-.882.883-1.619 1.637-1.64 1.675a.492.492 0 0 0-.037.22c0 .129.008.163.056.246.14.238.45.323.68.187.109-.065 4.158-4.12 4.207-4.213A.492.492 0 0 0 11.99 6c0-.127-.008-.164-.054-.24-.031-.052-.922-.957-2.11-2.142-1.883-1.88-2.064-2.056-2.155-2.085a.51.51 0 0 0-.336-.003" fill-rule="evenodd" fill="#000"/></svg>