<svg xmlns="http://www.w3.org/2000/svg" width="12" height="12" fill="none"><path d="M5.83.033c-.094.028-.226.156-2.156 2.084-1.186 1.184-2.079 2.091-2.11 2.143-.046.076-.054.113-.054.24 0 .128.008.164.056.246a.536.536 0 0 0 .302.236.588.588 0 0 0 .355-.032c.037-.019.789-.755 1.672-1.637L5.5 1.711l.005 4.971.005 4.971.061.099a.499.499 0 0 0 .858 0l.061-.099.005-4.971.005-4.971 1.605 1.602c.883.882 1.637 1.619 1.675 1.64a.492.492 0 0 0 .22.037c.129 0 .163-.008.246-.056a.503.503 0 0 0 .187-.68c-.028-.046-.976-1.008-2.107-2.137C6.322.116 6.267.063 6.161.032a.477.477 0 0 0-.331.001" fill-rule="evenodd" fill="#000"/></svg>