<svg xmlns="http://www.w3.org/2000/svg" width="16" height="16" fill="none"><path d="M10.4 2.508c-1.65.277-3.027.51-3.06.518a.704.704 0 0 0-.279.237.534.534 0 0 0-.043.364c.027.112.205.296 2.618 2.713 1.945 1.948 2.613 2.601 2.683 2.624a.516.516 0 0 0 .637-.261c.051-.098 1.049-6.144 1.036-6.27a.56.56 0 0 0-.075-.207c-.077-.113-.292-.227-.422-.223-.052.001-1.445.229-3.095.505M3.266 7.063a.591.591 0 0 0-.25.318 309.5 309.5 0 0 0-.525 3.112c-.389 2.341-.496 3.037-.48 3.12.031.16.23.349.394.374.097.014.767-.089 3.181-.491 1.682-.281 3.091-.527 3.132-.548.101-.052.238-.213.257-.302.009-.04.021-.089.027-.108a.484.484 0 0 0-.019-.16c-.028-.118-.167-.262-2.593-2.693-1.448-1.452-2.606-2.591-2.662-2.62-.13-.068-.353-.069-.462-.002" fill="currentColor" fill-rule="evenodd"/></svg>