<svg xmlns="http://www.w3.org/2000/svg" width="24" height="24" fill="none"><path d="M11.58.095c-.11.053-.256.156-.324.23-.171.186-5.125 8.153-5.197 8.359a.969.969 0 0 0 .237 1.01c.319.328-.094.306 5.704.306s5.385.022 5.704-.306a.97.97 0 0 0 .237-1.011c-.073-.207-5.025-8.171-5.197-8.358a1.02 1.02 0 0 0-1.164-.23m-4.914 13.97c-.485.149-.786.769-.611 1.258.028.078 1.18 1.959 2.561 4.18 2.638 4.242 2.71 4.346 3.053 4.449.386.116.784.022 1.039-.243.19-.199 5.146-8.146 5.233-8.391.179-.508-.121-1.106-.631-1.257-.305-.091-10.348-.087-10.644.004" fill="currentColor" fill-rule="evenodd"/></svg>