<svg xmlns="http://www.w3.org/2000/svg" width="12" height="12" fill="none"><path d="M3.65 3.02c-.022.009-.836.643-1.81 1.41C.712 5.317.057 5.846.034 5.886c-.056.098-.034.204.06.295.087.085 3.444 2.726 3.536 2.782A.26.26 0 0 0 3.736 9a.29.29 0 0 0 .223-.124C3.999 8.811 4 8.783 4 6c0-2.752-.001-2.811-.039-2.874a.255.255 0 0 0-.311-.106m4.476.018C7.991 3.123 8 2.907 8 5.99c0 3.023-.005 2.887.106 2.959a.245.245 0 0 0 .258.017c.091-.054 3.447-2.693 3.542-2.785.094-.091.116-.197.06-.295-.031-.054-.806-.671-3.532-2.811-.1-.079-.219-.093-.308-.037" fill="currentColor" fill-rule="evenodd"/></svg>