<svg xmlns="http://www.w3.org/2000/svg" width="16" height="16" fill="none"><path d="M5.32 4.037C5.226 4.078.263 7.547.15 7.65a.483.483 0 0 0 0 .701c.122.112 5.076 3.571 5.174 3.612a.492.492 0 0 0 .364.001c.117-.049.279-.235.298-.342.009-.049.013-1.71.008-3.691l-.007-3.602-.067-.098c-.125-.185-.41-.277-.6-.194m4.959.029a.59.59 0 0 0-.199.165l-.067.098v7.342l.065.093c.137.201.389.287.592.202.091-.038 4.873-3.369 5.113-3.561A.555.555 0 0 0 15.999 8a.578.578 0 0 0-.162-.363c-.122-.108-5.078-3.565-5.163-3.601-.127-.053-.247-.044-.395.03" fill="currentColor" fill-rule="evenodd"/></svg>