<svg xmlns="http://www.w3.org/2000/svg" width="12" height="12" fill="none"><path d="M7.812 1.95c-1.22.147-2.245.279-2.277.292-.117.048-.17.215-.106.334.015.03.918.942 2.005 2.028 1.35 1.349 1.993 1.978 2.031 1.987a.27.27 0 0 0 .323-.224c.006-.043.129-1.065.272-2.272.251-2.109.26-2.199.229-2.264a.23.23 0 0 0-.191-.138c-.037-.006-1.066.11-2.286.257M2.331 5.439a.296.296 0 0 0-.086.091c-.016.031-.134.948-.296 2.301-.281 2.357-.277 2.302-.193 2.397.092.103-.017.111 2.402-.178 1.234-.147 2.261-.273 2.282-.28a.33.33 0 0 0 .099-.082.224.224 0 0 0 .039-.254c-.031-.062-3.937-3.971-4.002-4.005a.249.249 0 0 0-.245.01" fill="currentColor" fill-rule="evenodd"/></svg>