<svg xmlns="http://www.w3.org/2000/svg" width="24" height="24" fill="none"><path d="M8.675 6.057c-.194.074-8.224 5.079-8.369 5.216-.206.194-.284.395-.284.727 0 .341.079.534.304.744.168.156 8.157 5.132 8.352 5.202.338.121.741.025 1.016-.242.328-.319.306.094.306-5.704 0-4.668-.006-5.164-.066-5.339a1.056 1.056 0 0 0-.51-.557c-.202-.095-.564-.119-.749-.047m6.037-.004a1.06 1.06 0 0 0-.596.492l-.096.195-.01 5.198c-.012 5.864-.034 5.445.295 5.765a.97.97 0 0 0 1.012.238c.092-.033 1.98-1.186 4.195-2.564 4.228-2.63 4.338-2.705 4.44-3.046.116-.388.02-.797-.245-1.039-.207-.189-8.173-5.156-8.396-5.235a.93.93 0 0 0-.599-.004" fill="currentColor" fill-rule="evenodd"/></svg>