<svg xmlns="http://www.w3.org/2000/svg" width="12" height="12" fill="none"><path d="M5.886.035c-.042.023-.541.641-1.449 1.795-.761.968-1.396 1.783-1.41 1.81a.247.247 0 0 0 .123.331C3.209 3.996 3.625 4 6 4c3.061 0 2.878.008 2.961-.124.071-.113.046-.205-.106-.4C7.351 1.55 6.167.064 6.114.035a.213.213 0 0 0-.228 0m-2.76 8.004A.268.268 0 0 0 3 8.255c0 .031.026.097.058.146.136.207 2.758 3.511 2.82 3.553.086.058.158.058.244 0 .062-.041 2.685-3.346 2.82-3.553A.354.354 0 0 0 9 8.255a.268.268 0 0 0-.126-.216C8.811 8.001 8.752 8 6 8c-2.752 0-2.811.001-2.874.039" fill="currentColor" fill-rule="evenodd"/></svg>