<svg xmlns="http://www.w3.org/2000/svg" width="24" height="24" fill="none"><path d="M16.137 3.098c-2.575.601-4.738 1.121-4.805 1.156a1.14 1.14 0 0 0-.457.485c-.1.22-.097.589.008.821.062.14.896.995 3.729 3.826 2.006 2.005 3.709 3.677 3.784 3.714.205.103.556.122.79.045a1.06 1.06 0 0 0 .577-.525C19.847 12.43 22 3.182 22 3.012c0-.507-.527-1.02-1.037-1.009-.079.002-2.25.495-4.826 1.095M4.774 10.863a1.073 1.073 0 0 0-.537.514C4.153 11.569 2 20.816 2 20.989c0 .317.231.692.539.872.352.207.136.246 5.241-.94 2.574-.598 4.752-1.119 4.84-1.158.468-.207.687-.744.515-1.266-.059-.18-.375-.507-3.73-3.863-2.016-2.016-3.728-3.698-3.805-3.736-.189-.095-.615-.113-.826-.035" fill="currentColor" fill-rule="evenodd"/></svg>