<svg xmlns="http://www.w3.org/2000/svg" width="12" height="12" fill="none"><path d="M4.32 1.534c-.078.027-.36.3-2.146 2.083C.986 4.802.095 5.708.064 5.76.018 5.836.01 5.873.01 6a.492.492 0 0 0 .037.22c.049.093 4.098 4.148 4.207 4.213.23.136.54.051.68-.187.048-.083.056-.117.056-.246a.492.492 0 0 0-.037-.22c-.021-.038-.758-.792-1.64-1.675L1.71 6.5l4.94-.001c4.075-.001 4.953-.005 5.015-.028a.516.516 0 0 0 .27-.227c.047-.08.055-.116.055-.244 0-.127-.008-.164-.054-.242a.513.513 0 0 0-.291-.231c-.076-.022-.901-.027-5.013-.027H1.71l1.603-1.605c.882-.883 1.619-1.636 1.64-1.675A.492.492 0 0 0 4.99 2c0-.127-.008-.164-.054-.242a.508.508 0 0 0-.616-.224" fill-rule="evenodd" fill="#000"/></svg>