<svg xmlns="http://www.w3.org/2000/svg" width="24" height="24" fill="none"><path d="m4.99 10.93-.01 9.93-.112.24a1.6 1.6 0 0 1-1.023.859c-.206.055-.613 0-.964-.13-.297-.111-.599-.402-.746-.72l-.115-.249-.011-3.93L1.998 13H3v-1H1v4.378c0 2.937.014 4.448.043 4.59.177.884.8 1.596 1.664 1.901l.313.111h17.96l.313-.111a2.529 2.529 0 0 0 1.576-1.576l.111-.313.01-9.99.011-9.99h-18l-.011 9.93m17 .5-.01 9.43-.112.24a1.698 1.698 0 0 1-.764.767l-.244.113-7.674.01-7.673.011.088-.143a2.47 2.47 0 0 0 .321-.767c.076-.296.078-.533.078-9.697V2H22.001l-.011 9.43M9 7.5V10h10V5H9v2.5m9 0V9h-8V6h8v1.5m-9 6v.5h10v-1H9v.5m0 4v.5h10v-1H9v.5" fill-rule="evenodd" fill="#000"/></svg>