<svg xmlns="http://www.w3.org/2000/svg" width="16" height="16" fill="none"><path d="M4 4v4H-.002l.008 2.953c.008 2.954.008 2.954.067 3.161A2.569 2.569 0 0 0 1.9 15.928l.22.059h11.76l.227-.062a2.637 2.637 0 0 0 1.43-.978c.131-.182.313-.569.388-.827l.062-.213.007-6.954L16.001 0H4v4m10.986 3.38c0 5.433-.006 6.388-.038 6.51a1.566 1.566 0 0 1-1.041 1.062c-.151.045-.432.048-4.78.055a429.4 429.4 0 0 1-4.62-.005c0-.007.031-.058.069-.114.219-.32.37-.753.41-1.174.018-.186.027-2.476.027-6.494V1.013h9.974l-.001 6.367M6.987 3.507V4h6.026v-.987H6.987v.494M6.993 6.5 7 7h6l.007-.5.008-.5h-6.03l.008.5M4 11.327c-.001 1.933-.007 2.344-.04 2.5-.108.512-.51.946-1.027 1.109-.222.07-.586.076-.826.013a1.536 1.536 0 0 1-1.055-1.059c-.032-.119-.038-.544-.038-2.51l-.001-2.367H4v2.314m2.987-1.82V10h6.026v-.987H6.987v.494m.006 2.993L7 13l1.5.007 1.5.007V12H6.985l.008.5" fill-rule="evenodd" fill="#000"/></svg>