<svg width="16" height="16" viewBox="0 0 16 16" fill="none" xmlns="http://www.w3.org/2000/svg">
<path d="M7.5 8.5L10.5 5.5V3.5" stroke="#1D1D1D" stroke-linecap="round" stroke-linejoin="round"/>
<path d="M3.06299 10.063L4.49999 11.5V15.5" stroke="#1D1D1D" stroke-linecap="round" stroke-linejoin="round"/>
<path d="M11.936 10.061L10.498 11.5V15.5" fill="#1D1D1D"/>
<path d="M11.936 10.061L10.498 11.5V15.5" stroke="#1D1D1D" stroke-linecap="round" stroke-linejoin="round"/>
<path d="M7.5 15.5V8.5L4.5 5.5V3.5" fill="#1D1D1D"/>
<path d="M7.5 15.5V8.5L4.5 5.5V3.5" stroke="#1D1D1D" stroke-linecap="round" stroke-linejoin="round"/>
<path d="M2 10.504C2.82843 10.504 3.5 9.83245 3.5 9.00403C3.5 8.1756 2.82843 7.50403 2 7.50403C1.17157 7.50403 0.5 8.1756 0.5 9.00403C0.5 9.83245 1.17157 10.504 2 10.504Z" stroke="#1D1D1D" stroke-linecap="round" stroke-linejoin="round"/>
<path d="M12.996 10.5C13.8244 10.5 14.496 9.82843 14.496 9C14.496 8.17157 13.8244 7.5 12.996 7.5C12.1675 7.5 11.496 8.17157 11.496 9C11.496 9.82843 12.1675 10.5 12.996 10.5Z" stroke="#1D1D1D" stroke-linecap="round" stroke-linejoin="round"/>
<path d="M4.5 3.5C5.32843 3.5 6 2.82843 6 2C6 1.17157 5.32843 0.5 4.5 0.5C3.67157 0.5 3 1.17157 3 2C3 2.82843 3.67157 3.5 4.5 3.5Z" stroke="#1D1D1D" stroke-linecap="round" stroke-linejoin="round"/>
<path d="M10.527 3.5C11.3554 3.5 12.027 2.82843 12.027 2C12.027 1.17157 11.3554 0.5 10.527 0.5C9.69855 0.5 9.02698 1.17157 9.02698 2C9.02698 2.82843 9.69855 3.5 10.527 3.5Z" stroke="#1D1D1D" stroke-linecap="round" stroke-linejoin="round"/>
</svg>
