<svg width="16" height="16" fill="none" xmlns="http://www.w3.org/2000/svg"><path d="M4.182.027a1.926 1.926 0 0 0-.934.421c-.841.669-.988 1.901-.33 2.772.221.292.583.554.929.671l.14.047.013.851c.012.766.018.86.063.944.028.052.342.388.699.747l.648.653.794 3.16.794 3.16.015 1.122.014 1.123.077.101a.497.497 0 0 0 .448.192c.147-.017.255-.084.361-.224l.074-.096.007-3.482.007-3.482 1.45-1.454c.798-.799 1.47-1.491 1.493-1.538.036-.073.043-.21.043-.923v-.838l.18-.058c.28-.092.529-.253.78-.507.392-.395.567-.822.567-1.389 0-.37-.062-.624-.228-.945a2.296 2.296 0 0 0-.753-.782A2.019 2.019 0 0 0 9.978.08a2 2 0 0 0-.091 3.815l.113.033v1.366L8.753 6.54 7.506 7.787l-1.26-1.261-1.26-1.261.007-.66L5 3.944l.177-.062c.272-.095.494-.242.744-.493.392-.395.566-.822.566-1.389 0-.37-.061-.624-.228-.945C6.052.655 5.581.25 5.158.11a2.133 2.133 0 0 0-.976-.083m.589 1.016c.256.058.509.277.638.552.061.131.071.186.071.405 0 .219-.01.274-.071.406a1.108 1.108 0 0 1-.468.489c-.142.072-.178.078-.434.078-.246 0-.298-.008-.427-.069a1.03 1.03 0 0 1-.561-.738c-.104-.527.296-1.076.837-1.152a.971.971 0 0 1 .415.029m6.027 0c.255.058.509.277.638.552.061.131.071.186.071.405 0 .219-.01.274-.072.406a1.097 1.097 0 0 1-.468.489c-.141.072-.177.078-.434.078-.245 0-.298-.008-.426-.069a1.03 1.03 0 0 1-.561-.738c-.104-.527.295-1.076.837-1.152a.972.972 0 0 1 .415.029M1.56 7.051A2.017 2.017 0 0 0 .186 8.173c-.055.118-.116.28-.136.36-.047.191-.047.744 0 .934.117.467.4.883.79 1.16.368.261.685.361 1.148.362.343.001.583-.047.847-.168l.182-.084.491.491.492.491v1.911c0 1.05.008 1.95.018 1.999a.511.511 0 0 0 .143.215c.102.101.149.129.252.144a.48.48 0 0 0 .521-.256c.051-.1.053-.166.053-2.225 0-1.842-.006-2.135-.041-2.219-.026-.061-.259-.317-.626-.687l-.585-.588.077-.162c.134-.28.172-.469.173-.851.001-.291-.009-.379-.061-.546-.202-.646-.677-1.143-1.288-1.346-.187-.062-.278-.076-.569-.084-.233-.007-.4.002-.507.027m10.984.002c-.712.155-1.348.786-1.493 1.484-.052.25-.052.677-.001.925.023.107.081.278.13.379l.089.184-.595.594c-.434.434-.606.623-.635.701-.035.093-.04.384-.033 2.229l.007 2.122.064.092c.215.314.675.308.85-.012.041-.075.048-.206.06-1.138l.015-1.053.338-1.265.339-1.265.15-.152.151-.153.083.049c.209.122.5.193.844.206.424.015.646-.029.986-.197.217-.107.291-.162.509-.381.217-.218.272-.292.378-.509.28-.572.28-1.214 0-1.786-.106-.217-.16-.29-.378-.508-.215-.215-.295-.274-.509-.381a2.229 2.229 0 0 0-.44-.165 2.887 2.887 0 0 0-.909 0M2.25 8.04c.646.169.95.933.592 1.492-.11.172-.254.298-.441.385-.127.06-.184.07-.401.07-.217 0-.274-.01-.401-.07a.998.998 0 0 1-.149-1.74.95.95 0 0 1 .8-.137m11.143.047a1 1 0 0 1 .583 1.08.924.924 0 0 1-.273.528.996.996 0 0 1-.933.278A1.01 1.01 0 0 1 12 9c0-.356.181-.666.509-.873.23-.143.62-.161.884-.04" fill-rule="evenodd" fill="#000"/></svg>