<svg xmlns="http://www.w3.org/2000/svg" width="16" height="16" fill="none" viewBox="0 0 16 16"><path stroke="#0A8276" stroke-linecap="round" stroke-linejoin="round" d="M14.5 14.5v1h-13v-1M1.5 7V.5h8l5 5V7"/><path stroke="#0A8276" stroke-linecap="round" stroke-linejoin="round" d="M9.5.5v5h5"/><path fill="#0A8276" d="M.73 13V8.436h1.617c.332 0 .63.047.896.14.271.089.486.24.644.455.164.215.245.506.245.875 0 .355-.081.646-.245.875-.163.229-.38.399-.65.511a2.39 2.39 0 0 1-.89.161H1.76V13H.73Zm1.03-2.366h.524c.285 0 .495-.063.63-.189.14-.126.21-.306.21-.539 0-.243-.072-.41-.217-.504-.14-.098-.347-.147-.623-.147H1.76v1.379ZM4.528 13V8.436h1.617c.331 0 .63.047.896.14.27.089.485.24.644.455.163.215.245.506.245.875 0 .355-.082.646-.245.875-.164.229-.38.399-.651.511a2.39 2.39 0 0 1-.89.161h-.587V13h-1.03Zm1.029-2.366h.525c.284 0 .494-.063.63-.189.14-.126.21-.306.21-.539 0-.243-.073-.41-.217-.504-.14-.098-.348-.147-.623-.147h-.525v1.379ZM9.382 13V9.304H8.017v-.868h3.766v.868h-1.365V13H9.382ZM11.723 13l1.33-2.345L11.8 8.436h1.155l.441.861c.052.103.105.215.161.336.056.121.12.254.19.399h.027a7.177 7.177 0 0 1 .308-.735l.406-.861h1.106l-1.253 2.268L15.671 13h-1.148l-.497-.931c-.06-.121-.121-.24-.182-.357l-.182-.392h-.028c-.056.14-.112.27-.168.392l-.168.357-.476.931h-1.099Z"/></svg>