<svg xmlns="http://www.w3.org/2000/svg" width="24" height="24" fill="none"><path d="M6.252 1.078C6.02 1.22 6 1.307 6 2.198V3l-.37.001c-.946.001-1.713.387-2.206 1.108-.288.422-.392.768-.415 1.381l-.02.51h-.804c-.728 0-.817.008-.933.078a.485.485 0 0 0 0 .844c.116.07.205.078.938.078H3v3h-.81c-.733 0-.822.008-.938.078a.485.485 0 0 0 0 .844c.116.07.205.078.938.078H3v3h-.81c-.733 0-.822.008-.938.078a.485.485 0 0 0 0 .844c.116.07.205.078.938.078H3v3h-.802c-.891 0-.978.02-1.12.252a.451.451 0 0 0 0 .496c.142.232.23.252 1.115.252h.796l.02.51c.017.416.04.565.127.81a2.557 2.557 0 0 0 1.544 1.545c.244.086.395.11.81.126l.51.02v.804c0 .728.008.817.078.933.2.328.644.328.844 0 .07-.116.078-.205.078-.938V22h3v.81c0 .733.008.822.078.938.2.328.644.328.844 0 .07-.116.078-.205.078-.938V22h3v.81c0 .733.008.822.078.938.2.328.644.328.844 0 .07-.116.078-.205.078-.938V22h3v.81c0 .733.008.822.078.938.2.328.644.328.844 0 .07-.116.078-.205.078-.933v-.804l.51-.02c.415-.016.566-.04.81-.126a2.557 2.557 0 0 0 1.544-1.545c.087-.245.11-.394.127-.81l.02-.51h.804c.728 0 .817-.008.933-.078a.478.478 0 0 0 .174-.67c-.142-.232-.229-.252-1.12-.252H22v-3h.81c.733 0 .822-.008.938-.078a.485.485 0 0 0 0-.844c-.116-.07-.205-.078-.938-.078H22v-.802c0-.891-.02-.978-.252-1.12-.125-.076-.234-.078-4.438-.078H13V7.698c0-4.75.016-4.456-.252-4.62-.116-.07-.205-.078-.938-.078H11v-.802c0-.891-.02-.978-.252-1.12a.488.488 0 0 0-.686.198c-.05.097-.062.276-.062.922V3H7v-.81c0-.733-.008-.822-.078-.938a.478.478 0 0 0-.67-.174M12 8v4H3.997l.012-3.43.011-3.43.112-.24c.198-.425.624-.776 1.042-.858.091-.018 1.665-.035 3.496-.038L12 4v4m0 9.001v4.001l-3.43-.011-3.43-.011-.244-.113a1.698 1.698 0 0 1-.764-.767l-.112-.24-.011-3.43L3.997 13H12v4.001m8.991-.571-.011 3.43-.112.24a1.698 1.698 0 0 1-.764.767l-.244.113-3.43.011-3.43.011V13h8.003l-.012 3.43" fill-rule="evenodd" fill="#000"/></svg>