<svg xmlns="http://www.w3.org/2000/svg" width="16" height="16" fill="none" viewBox="0 0 16 16"><path stroke="currentColor" fill="none" stroke-linecap="round" stroke-linejoin="round" d="M15.5 9.5h-1M15.5 11.5h-1M1.5 11.5h-1M1.5 4.5h-1M1.5 6.5h-1M1.5 9.5h-1M4.5 15.5v-1M6.5 15.5v-1M9.5 15.5v-1M11.5 15.5v-1M4.5 1.5v-1M6.5 1.5v-1"/><path fill="currentColor" d="M8 1.5h.5A.5.5 0 0 0 8 1v.5ZM14.5 8h.5a.5.5 0 0 0-.5-.5V8Zm-12 6a.5.5 0 0 1-.5-.5H1A1.5 1.5 0 0 0 2.5 15v-1Zm11.5-.5a.5.5 0 0 1-.5.5v1a1.5 1.5 0 0 0 1.5-1.5h-1ZM2.5 1A1.5 1.5 0 0 0 1 2.5h1a.5.5 0 0 1 .5-.5V1Zm0 1H8V1H2.5v1ZM14 8v5.5h1V8h-1Zm-.5 6H8v1h5.5v-1ZM8 14H2.5v1H8v-1ZM7.5 1.5v13h1v-13h-1ZM2 13.5V8H1v5.5h1ZM2 8V2.5H1V8h1Zm12.5-.5h-13v1h13v-1Z"/></svg>