<svg xmlns="http://www.w3.org/2000/svg" width="16" height="16" fill="none"><path d="M4.307.051a.52.52 0 0 0-.281.297A2.165 2.165 0 0 0 4 .727v.287l-.86-.001c-.958-.001-1.036.009-1.351.175a1.506 1.506 0 0 0-.713.852c-.073.212-.073.217-.084 1.087L.981 4l-.284.001c-.217 0-.309.012-.391.049a.486.486 0 0 0-.145.807c.123.117.273.156.6.156h.226V6L.7 6.001c-.219 0-.312.012-.394.049a.486.486 0 0 0-.145.807c.123.117.273.156.6.156h.226v2.002l-.303-.004c-.258-.002-.319.006-.411.052a.479.479 0 0 0-.135.766c.133.144.222.171.575.171h.274V11.015l-.303-.004c-.258-.002-.319.006-.411.052a.479.479 0 0 0-.135.766c.133.144.222.171.573.171h.27l.011.873c.011.868.011.875.083 1.082.167.482.488.803.97.97.207.072.214.072 1.082.083l.873.011v.27c0 .351.027.44.171.573.206.189.493.18.686-.023.117-.123.156-.273.156-.6v-.226H6v.274c0 .353.027.442.171.575.206.189.493.18.686-.023.117-.123.156-.273.156-.6v-.226h1.974v.226c0 .327.039.477.156.6.193.203.48.212.686.023.144-.133.171-.222.171-.575v-.274h.987v.226c0 .327.039.477.156.6.193.203.48.212.686.023.144-.133.171-.222.171-.573v-.27l.873-.011c.868-.011.875-.011 1.082-.083.244-.085.438-.203.602-.368.165-.164.283-.358.368-.602.072-.207.072-.214.083-1.082l.011-.873h.27c.351 0 .44-.027.573-.171a.478.478 0 0 0-.13-.763c-.085-.043-.157-.053-.411-.053h-.308V10h.274c.353 0 .442-.027.575-.171a.478.478 0 0 0-.13-.763c-.085-.043-.157-.053-.409-.053h-.305l-.009-.566c-.009-.547-.011-.571-.075-.683a.557.557 0 0 0-.187-.187l-.12-.07-3.06-.008-3.06-.007L8.5 4.433c-.006-2.96-.008-3.063-.058-3.163a.497.497 0 0 0-.172-.18l-.12-.077H7.013V.767C7.012.341 6.931.152 6.71.051c-.198-.09-.4-.049-.57.116-.114.11-.14.213-.14.56v.286h-.987V.767a2.275 2.275 0 0 0-.028-.366c-.073-.317-.394-.482-.678-.35m3.186 4.696v2.746H2V4.959c0-2.227.005-2.546.041-2.633a.494.494 0 0 1 .266-.276c.101-.046.234-.049 2.646-.049L7.493 2v2.747m0 6.506V14H4.967c-1.576 0-2.563-.01-2.622-.027a.47.47 0 0 1-.178-.113C1.991 13.678 2 13.835 2 11.041V8.507h5.493v2.746M14 11.041c0 2.794.009 2.637-.167 2.819a.47.47 0 0 1-.178.113c-.059.017-1.046.027-2.622.027H8.507V8.507H14v2.534" fill="currentColor" fill-rule="evenodd"/></svg>