<svg xmlns="http://www.w3.org/2000/svg" width="24" height="24" fill="none"><path d="M9.38 1.047c-.659.075-1.4.33-1.968.678-1.075.658-1.886 1.716-2.213 2.886-.202.725-.199.592-.199 6.897 0 6.387-.001 6.341.22 7.212a6.779 6.779 0 0 0 1.838 3.222c1.081 1.081 2.37 1.733 3.922 1.984.413.066 1.627.066 2.04 0 1.552-.251 2.841-.903 3.922-1.984 1.056-1.055 1.658-2.218 1.969-3.802.055-.281.065-1.129.077-7.03.016-7.426.035-6.864-.24-7.032a.478.478 0 0 0-.67.174c-.076.126-.078.251-.078 6.508 0 4.089-.015 6.538-.042 6.82-.248 2.642-2.144 4.738-4.798 5.305-.606.13-1.714.13-2.32 0-2.345-.501-4.109-2.19-4.662-4.462-.176-.723-.184-1.057-.169-7.223.013-5.805.014-5.821.099-6.14.204-.761.542-1.354 1.07-1.882A3.926 3.926 0 0 1 9.08 2.11c.449-.111 1.31-.117 1.78-.014a3.968 3.968 0 0 1 1.962 1.082c.391.391.664.795.862 1.279.312.759.291.324.305 6.352.012 4.752.006 5.421-.049 5.656a2.01 2.01 0 0 1-1.24 1.417c-.203.08-.312.094-.7.094-.388 0-.497-.014-.7-.094a2.015 2.015 0 0 1-1.238-1.406c-.052-.22-.061-.875-.062-4.676 0-4.313-.002-4.423-.078-4.548a.478.478 0 0 0-.67-.174c-.272.166-.255-.166-.243 4.912l.011 4.59.095.28c.215.638.529 1.101 1.006 1.487.299.242.617.406 1.041.539.432.135 1.244.135 1.676 0a2.994 2.994 0 0 0 1.041-.539c.488-.394.808-.873 1.007-1.509l.094-.298v-5.58c0-5.245-.004-5.6-.073-5.92-.158-.739-.427-1.367-.82-1.917-1.086-1.519-2.832-2.29-4.707-2.076" fill-rule="evenodd" fill="#000"/></svg>