<svg xmlns="http://www.w3.org/2000/svg" width="16" height="16" fill="none"><path d="M6.187.016C5.052.114 4.097.55 3.323 1.323a4.428 4.428 0 0 0-1.282 2.605c-.06.461-.061 6.235-.001 6.744a6.005 6.005 0 0 0 2.68 4.349c.559.37 1.349.701 2.008.844a6.018 6.018 0 0 0 3.899-.476 5.993 5.993 0 0 0 3.333-4.717c.057-.483.06-6.227.003-6.361a.583.583 0 0 0-.382-.3.494.494 0 0 0-.564.384c-.022.1-.03.991-.03 3.09 0 2.53-.006 2.988-.042 3.232a5.02 5.02 0 0 1-3.383 4.028 4.911 4.911 0 0 1-1.915.24 5.007 5.007 0 0 1-4.607-4.372c-.02-.157-.026-1.207-.02-3.44.008-2.982.012-3.227.057-3.413.256-1.068.948-1.944 1.896-2.4.56-.269.859-.334 1.547-.333.441.001.539.009.76.064 1.489.37 2.536 1.553 2.692 3.043.016.15.027 1.32.027 2.879 0 2.888.002 2.84-.162 3.165-.334.662-1.12.977-1.842.74-.37-.122-.759-.51-.908-.906l-.06-.159-.014-2.24c-.015-2.493 0-2.314-.199-2.489-.115-.101-.186-.121-.373-.105a.454.454 0 0 0-.392.278c-.049.111-.051.195-.043 2.362.008 2.221.009 2.25.067 2.455.305 1.081 1.208 1.818 2.3 1.877a2.499 2.499 0 0 0 1.8-.639 2.513 2.513 0 0 0 .815-1.668c.019-.208.025-1.203.018-2.965-.012-2.855-.01-2.821-.156-3.359C10.381 1.628 8.974.348 7.229.066a6.691 6.691 0 0 0-1.042-.05" fill-rule="evenodd" fill="#000"/></svg>