<svg xmlns="http://www.w3.org/2000/svg" width="24" height="24" fill="none"><path d="M1 11.5V19l6.67.001 6.67.001 2.32 1.741 2.32 1.742.01-1.743.011-1.742H23V4H1v7.5m21 0V18h-3.999l-.01 1.242-.011 1.243-1.657-1.243L14.667 18H2V5h20v6.5M5.903 7.93l-1.438 4.43-1.177 3.62 1.682.01c.925.006 1.691.002 1.701-.008.016-.016.208-.693.367-1.292l.045-.17h1.778l.071.27.194.74.124.47h1.695c.932 0 1.695-.005 1.695-.011 0-.006-.654-1.999-1.453-4.43L9.734 7.14l-1.785-.01-1.785-.011-.261.811m6.937 3.648V16h1.855c2.034 0 2.248-.018 2.914-.241 1.359-.455 2.246-1.36 2.686-2.739.167-.524.205-.827.204-1.62-.002-.966-.089-1.376-.446-2.1-.5-1.015-1.356-1.677-2.614-2.023-.332-.091-.384-.094-2.469-.107l-2.13-.014v4.422m-2.738-.118c.602 1.826 1.106 3.37 1.12 3.43l.024.11H10.02l-.157-.61a74.853 74.853 0 0 0-.192-.74l-.035-.13H6.322l-.059.21c-.075.264-.242.876-.301 1.1l-.045.17h-.619c-.34 0-.618-.013-.619-.03 0-.016.498-1.565 1.108-3.441l1.108-3.41 1.056.01 1.057.011 1.094 3.32m6.925-3.242c.949.202 1.601.631 2.028 1.333.338.558.432.97.432 1.895 0 .592-.014.762-.087 1.055-.146.582-.47 1.198-.816 1.548-.321.327-.921.66-1.507.836-.28.085-.383.091-1.767.105l-1.47.015V8.16h1.457c1.122 0 1.521.013 1.73.058M14.96 11.58v2.7l.63-.001c.744-.001 1.068-.058 1.482-.262.561-.276.916-.75 1.135-1.517.08-.278.092-.409.091-1 0-.532-.016-.737-.073-.94-.241-.866-.724-1.399-1.462-1.616-.167-.049-.402-.064-1.01-.064h-.793v2.7M7.686 9.068c-.209.103-.313.306-.468.914-.263 1.029-.701 2.7-.724 2.759-.02.051.172.059 1.462.059.996 0 1.484-.014 1.484-.041 0-.064-.755-2.945-.844-3.223-.076-.237-.201-.398-.383-.491-.126-.065-.371-.054-.527.023m9.064.944c.201.129.357.361.457.682.098.315.103 1.269.009 1.589-.19.639-.476.901-1.071.982l-.185.026V9.872l.31.015c.253.013.341.035.48.125M8.059 11.4c.036.143.074.292.086.33.017.059-.007.07-.162.07-.2 0-.199.002-.145-.2l.082-.314c.025-.096.051-.168.059-.16.008.008.043.131.08.274" fill-rule="evenodd" fill="#000"/></svg>