<svg xmlns="http://www.w3.org/2000/svg" width="24" height="24" viewBox="0 0 24 24">
  <path stroke="currentColor" stroke-linecap="square" stroke-miterlimit="10" d="m9.637 15.5-.387-1.472H6.7L6.3 15.5H3.97l2.562-7.885h2.831l2.594 7.885h-2.32Zm-.827-3.212L8.471 11a47.917 47.917 0 0 1-.287-1.112C8.072 9.433 8 9.5 8 9.5s-.135-.108-.23.31a94.19 94.19 0 0 1-.631 2.476l1.671.002ZM20 11.407a4.056 4.056 0 0 1-1.083 3.03 4.155 4.155 0 0 1-3.042 1.063h-2.541V7.647h2.718a4.1 4.1 0 0 1 2.919.967A3.648 3.648 0 0 1 20 11.407Zm-2.2.075a2.493 2.493 0 0 0-.427-1.6 1.58 1.58 0 0 0-1.3-.521h-.618v4.4h.473a1.71 1.71 0 0 0 1.418-.562c.34-.505.5-1.11.454-1.717Z"/>
  <path stroke="currentColor" stroke-linecap="square" stroke-miterlimit="10" d="M22.5 4.5h-21v14h13l4 3v-3h4v-14Z"/>
</svg>
