<svg xmlns="http://www.w3.org/2000/svg" width="16" height="16" fill="none"><path d="M0 8v6h16V2H0v6m14.987.013v5H1.013v-10h13.974v5M9.451 5.008c-.134.02-.177.039-.265.116C8.985 5.3 9 5.074 9 7.973c0 1.43.009 2.633.02 2.673.026.093.164.25.271.309.073.04.187.045 1.042.043l.96-.001.24-.073c.696-.213 1.175-.692 1.392-1.391l.074-.24V6.707l-.074-.24c-.222-.717-.75-1.228-1.446-1.401-.189-.047-.317-.054-1.095-.06a27.981 27.981 0 0 0-.933.002m-4.442.059a.537.537 0 0 0-.154.131c-.031.043-.46 1.229-.953 2.634-.94 2.683-.946 2.7-.853 2.879.055.107.214.244.305.264.04.009.089.021.109.027.062.02.253-.044.347-.115.113-.086.148-.166.472-1.107l.265-.766h.949l.95-.001.056.154.298.846c.133.382.268.732.3.778.278.406.954.151.891-.335-.009-.068-.418-1.267-.908-2.666-.936-2.669-.924-2.639-1.115-2.739-.053-.028-.177-.037-.467-.036-.337.001-.408.008-.492.052m6.394 1.022c.206.095.411.301.509.511l.075.16v2.48l-.076.163a1.13 1.13 0 0 1-.511.509c-.159.074-.165.075-.78.083l-.62.009V5.996l.62.009c.615.008.621.009.783.084M5.804 7.168c.152.433.276.797.276.81 0 .012-.265.022-.59.022-.55 0-.588-.003-.571-.047.011-.025.138-.388.284-.806.322-.924.293-.85.31-.803l.291.824" fill="currentColor" fill-rule="evenodd"/></svg>