<svg xmlns="http://www.w3.org/2000/svg" width="16" height="16" fill="currentColor">
  <path fill-rule="evenodd" d="M0 2h16v12H0V2Zm1 1v10h14V3H1Z" clip-rule="evenodd"/>
  <path d="M8.444 11V5.114h1.575c.6 0 1.113.108 1.539.324.426.216.753.54.98.972.229.432.343.972.343 1.62 0 .648-.114 1.194-.342 1.638a2.28 2.28 0 0 1-.963.999c-.42.222-.921.333-1.503.333h-1.63Zm1.044-.846h.459c.396 0 .732-.075 1.008-.225.282-.156.495-.39.639-.702.144-.312.216-.711.216-1.197 0-.48-.072-.873-.216-1.179a1.4 1.4 0 0 0-.64-.675c-.275-.144-.611-.216-1.007-.216h-.46v4.194ZM2.66 11l1.917-5.886h1.224L7.718 11H6.62l-.9-3.132a31.103 31.103 0 0 1-.279-.963l-.252-.981h-.036c-.078.33-.162.66-.252.99a22.12 22.12 0 0 1-.27.954L3.722 11H2.66Zm1.134-1.593v-.819h2.772v.819H3.794Z"/>
</svg>
