<svg xmlns="http://www.w3.org/2000/svg" width="16" height="16" fill="none"><path d="M7.47.029a5.029 5.029 0 0 0-4.016 2.9 4.971 4.971 0 0 0 .577 5.104c.214.282.668.737.942.943a5.139 5.139 0 0 0 2.294.975c.279.045 1.187.045 1.466 0a4.985 4.985 0 0 0 2.788-1.417 4.934 4.934 0 0 0 1.465-3.186c.134-1.894-.817-3.684-2.48-4.667A4.97 4.97 0 0 0 8.853.077 6.456 6.456 0 0 0 7.47.029M8.6 1.051a4.029 4.029 0 0 1 1.729.702c.268.191.681.596.876.86.702.95.952 2.183.676 3.326a3.991 3.991 0 0 1-6.208 2.309 4.87 4.87 0 0 1-.878-.861 4.02 4.02 0 0 1 0-4.774c.195-.264.608-.669.876-.86a4.077 4.077 0 0 1 1.702-.7c.29-.046.934-.047 1.227-.002M4 12.801c0 2.323.006 2.815.037 2.887a.646.646 0 0 0 .303.285c.2.078.224.067 1.994-.945L8 14.076l1.662.95c.991.566 1.701.955 1.758.965.054.008.14.007.193-.003.116-.021.301-.18.351-.3.029-.071.036-.599.036-2.887V10h-1.013v2.31c0 1.896-.007 2.307-.035 2.296a134.8 134.8 0 0 1-1.418-.803c-1.367-.781-1.384-.79-1.534-.79-.15 0-.167.009-1.534.79a134.8 134.8 0 0 1-1.418.803c-.028.011-.035-.4-.035-2.296V10H4v2.801" fill-rule="evenodd" fill="#000"/></svg>