<svg xmlns="http://www.w3.org/2000/svg" width="24" height="24" fill="none"><path d="M11.72 1.045a7.54 7.54 0 0 0-6.607 6.141c-.13.684-.13 1.944 0 2.628.162.857.513 1.796.938 2.506.217.362.722 1.049.864 1.176l.085.076.001 4.524c0 3.539.011 4.546.05 4.623.068.134.296.281.437.281.161 0 .148.007 2.692-1.521 1.254-.754 2.298-1.37 2.32-1.37.022 0 1.066.616 2.32 1.37C17.338 22.991 17.353 23 17.5 23a.54.54 0 0 0 .422-.252c.076-.125.078-.236.078-4.652v-4.524l.085-.076c.136-.121.642-.807.848-1.148a8.16 8.16 0 0 0 .954-2.534c.13-.684.13-1.944 0-2.628a8.068 8.068 0 0 0-.938-2.506 7.533 7.533 0 0 0-7.229-3.635m1.38.997a6.023 6.023 0 0 1 2.08.549c2.497 1.137 4.011 3.704 3.784 6.414-.071.849-.224 1.447-.555 2.175-.897 1.971-2.652 3.326-4.829 3.73-.495.092-1.665.092-2.16 0-1.897-.352-3.458-1.411-4.46-3.026-1.113-1.794-1.255-4.095-.375-6.056A6.474 6.474 0 0 1 13.1 2.042M8.194 14.633c.679.527 1.94 1.056 2.992 1.254.684.13 1.944.13 2.628 0 1.052-.198 2.313-.727 2.992-1.254a.824.824 0 0 1 .17-.113c.013 0 .024 1.593.024 3.54s-.007 3.54-.016 3.54c-.009 0-.992-.585-2.185-1.3-1.674-1.004-2.197-1.3-2.299-1.3-.102 0-.625.296-2.299 1.3-1.193.715-2.176 1.3-2.185 1.3-.009 0-.016-1.593-.016-3.54s.011-3.54.024-3.54c.014 0 .09.051.17.113" fill-rule="evenodd" fill="#000"/></svg>