<svg xmlns="http://www.w3.org/2000/svg" width="24" height="24" fill="none"><path d="M11.5 1.046a11.615 11.615 0 0 0-6.187 2.48 13.69 13.69 0 0 0-1.789 1.79c-1.326 1.672-2.116 3.513-2.43 5.664-.099.676-.099 2.364 0 3.04a11.47 11.47 0 0 0 1.3 3.96c1.402 2.619 3.889 4.655 6.739 5.517a11.03 11.03 0 0 0 3.007.49 11.367 11.367 0 0 0 5.856-1.387 11.677 11.677 0 0 0 4.604-4.604 11.483 11.483 0 0 0 0-10.993 11.571 11.571 0 0 0-3.011-3.556c-.816-.648-2.091-1.359-3.115-1.738a11.79 11.79 0 0 0-4.974-.663m2.535 1.072c.641.096 1.505.309 2.037.504.593.216 1.7.779 2.231 1.134.263.175.655.465.872.646l.395.327-7.413 7.414c-5.743 5.744-7.425 7.404-7.465 7.37-.123-.102-.669-.808-.953-1.233-.344-.514-.899-1.612-1.121-2.218-.195-.535-.4-1.36-.505-2.042-.125-.803-.125-2.237 0-3.04.183-1.187.448-2.026.985-3.12.828-1.689 2.03-3.056 3.622-4.121.514-.344 1.612-.899 2.218-1.121.735-.269 1.754-.491 2.651-.579.555-.054 1.837-.013 2.446.079m6.622 3.777c.471.581.878 1.223 1.242 1.961.398.808.57 1.261.761 2.011.246.965.314 1.539.314 2.633s-.068 1.668-.314 2.633c-.191.75-.363 1.203-.761 2.011-1.55 3.144-4.421 5.22-7.967 5.764-.609.093-2.264.093-2.864 0-2.022-.313-3.753-1.075-5.243-2.31l-.395-.327 7.413-7.414c5.743-5.744 7.425-7.404 7.465-7.37.029.024.186.208.349.408" fill-rule="evenodd" fill="#000"/></svg>