<svg xmlns="http://www.w3.org/2000/svg" width="16" height="16" fill="none"><path d="m7.493.015-.386.04C5.77.189 4.339.751 3.243 1.572 1.109 3.173-.075 5.619.009 8.253c.115 3.601 2.59 6.65 6.101 7.518a8.041 8.041 0 0 0 6.1-.969 8.009 8.009 0 0 0 3.561-4.915c.172-.701.212-1.058.212-1.887s-.04-1.186-.212-1.887C14.979 2.878 12.315.498 9 .064 8.716.027 7.683-.006 7.493.015m1.242 1.027a6.913 6.913 0 0 1 3.449 1.355c.375.282.376.283.376.313 0 .013-2.218 2.241-4.929 4.952-4.609 4.609-4.931 4.925-4.966 4.877l-.268-.355a6.912 6.912 0 0 1-1.355-3.449 9.748 9.748 0 0 1 0-1.47c.276-2.787 2.287-5.196 4.994-5.984a8.392 8.392 0 0 1 1.191-.238 11.497 11.497 0 0 1 1.508-.001m4.727 2.579a7.935 7.935 0 0 1 1.083 1.895 7.148 7.148 0 0 1 0 4.968 7.786 7.786 0 0 1-1.12 1.938 7.621 7.621 0 0 1-1.593 1.437c-2.312 1.524-5.392 1.515-7.698-.023-.325-.217-.691-.504-.693-.543-.001-.034 9.817-9.853 9.852-9.852.015 0 .091.081.169.18" fill-rule="evenodd" fill="#000"/></svg>