<svg xmlns="http://www.w3.org/2000/svg" width="12" height="12" fill="none"><path d="m5.62.012-.29.03a6.008 6.008 0 0 0-2.898 1.137C.832 2.38-.056 4.215.007 6.19a5.989 5.989 0 0 0 4.575 5.638 5.998 5.998 0 0 0 7.247-4.412c.128-.527.159-.794.159-1.416 0-.622-.031-.889-.159-1.416A5.998 5.998 0 0 0 6.75.048 9.96 9.96 0 0 0 5.62.012m.81 1.009a5 5 0 0 1 2.73 1.105c0 .002-1.583 1.587-3.517 3.521L2.126 9.164l-.14-.187a5.017 5.017 0 0 1-.615-4.861A4.84 4.84 0 0 1 2.47 2.47a4.956 4.956 0 0 1 3.96-1.449m3.719 2.199a4.977 4.977 0 0 1 .762 3.703 5.006 5.006 0 0 1-3.084 3.729 4.992 4.992 0 0 1-4.802-.635l-.191-.141 3.518-3.518L9.87 2.839l.056.066c.03.036.131.178.223.315" fill-rule="evenodd" fill="#000"/></svg>