<svg xmlns="http://www.w3.org/2000/svg" width="24" height="24" fill="none"><path d="M15.39 8.91 8 16.3v-3.952c0-4.363.015-4.107-.252-4.27a.451.451 0 0 0-.496 0C6.984 8.242 7 7.933 7 12.848V17.3l-2 2-2 2v-8.952c0-9.892.021-9.103-.252-9.27a.488.488 0 0 0-.686.198C2.007 3.383 2 4.393 2 12.849v9.454l-.221.218c-.124.123-.236.275-.256.348-.101.364.246.712.607.608.189-.054 21.295-21.16 21.347-21.347a.496.496 0 0 0-.161-.507c-.097-.082-.165-.103-.329-.103h-.206L15.39 8.91m1.862 3.168C16.983 12.242 17 11.917 17 17c0 5.083-.017 4.758.252 4.922.24.146.555.055.686-.198.055-.106.062-.646.062-4.732 0-4.504-.002-4.615-.078-4.74a.478.478 0 0 0-.67-.174m5 1c-.268.163-.252-.109-.252 4.422s-.016 4.259.252 4.422a.451.451 0 0 0 .496 0c.268-.163.252.11.252-4.43 0-4.008-.002-4.115-.078-4.24a.478.478 0 0 0-.67-.174m-10 4c-.258.158-.252.099-.252 2.43 0 2.024.004 2.117.078 2.24A.54.54 0 0 0 12.5 22a.54.54 0 0 0 .422-.252c.074-.123.078-.216.078-2.248s-.004-2.125-.078-2.248a.478.478 0 0 0-.67-.174" fill-rule="evenodd" fill="#000"/></svg>