<svg xmlns="http://www.w3.org/2000/svg" width="24" height="24" fill="none"><path d="M2.252 3.078C1.978 3.245 2 2.439 2 12.508c0 8.967.002 9.114.078 9.24A.54.54 0 0 0 2.5 22a.54.54 0 0 0 .422-.252c.076-.126.078-.273.078-9.248s-.002-9.122-.078-9.248a.478.478 0 0 0-.67-.174m5 5C6.98 8.244 7 7.704 7 15.008c0 6.487.002 6.614.078 6.74.2.328.644.328.844 0C7.998 21.622 8 21.495 8 15s-.002-6.622-.078-6.748a.478.478 0 0 0-.67-.174m10 0c-.272.166-.252-.374-.252 6.93 0 6.487.002 6.614.078 6.74.2.328.644.328.844 0 .076-.126.078-.253.078-6.748s-.002-6.622-.078-6.748a.478.478 0 0 0-.67-.174m-5 5c-.268.163-.252-.109-.252 4.422s-.016 4.259.252 4.422a.451.451 0 0 0 .496 0c.268-.163.252.11.252-4.43 0-4.008-.002-4.115-.078-4.24a.478.478 0 0 0-.67-.174m10 0c-.268.163-.252-.109-.252 4.422s-.016 4.259.252 4.422a.451.451 0 0 0 .496 0c.268-.163.252.11.252-4.43 0-4.008-.002-4.115-.078-4.24a.478.478 0 0 0-.67-.174" fill-rule="evenodd" fill="#000"/></svg>