<svg xmlns="http://www.w3.org/2000/svg" width="16" height="16" fill="none"><path d="M1.529 3.055C.947 3.182.376 3.671.145 4.238-.003 4.603 0 4.527 0 8s-.003 3.397.145 3.762c.232.57.772 1.032 1.396 1.192.167.043.539.046 5.459.046s5.292-.003 5.459-.046c.624-.16 1.164-.622 1.396-1.192.148-.365.145-.289.145-3.762s.003-3.397-.145-3.762a2.093 2.093 0 0 0-1.04-1.066c-.37-.168-.038-.159-5.837-.156-4.336.002-5.314.009-5.449.039m10.7.98c.309.065.587.31.703.62.055.148.055.162.048 3.38l-.007 3.232-.071.153c-.079.167-.281.387-.425.461-.235.122-.064.118-5.477.118s-5.242.004-5.477-.118c-.144-.074-.346-.294-.425-.461l-.071-.153-.007-3.232c-.007-3.218-.007-3.232.048-3.38.114-.304.394-.555.69-.619.224-.048 10.242-.049 10.471-.001m2.764 3.972L15 11l.5.007.5.008V5.013h-1.014l.007 2.994M6 7.197v1.544l-1.58-.678a98.03 98.03 0 0 0-1.635-.692c-.048-.013-.076.035-.246.433-.106.246-.183.455-.172.464.031.027 4.585 1.972 4.617 1.972.021 0 .029-.42.029-1.427 0-.784.006-1.426.014-1.426.007 0 .717.402 1.576.893.86.491 1.571.893 1.58.893.018-.001.466-.783.478-.835.006-.026-4.597-2.685-4.648-2.685-.007 0-.013.695-.013 1.544" fill-rule="evenodd" fill="#000"/></svg>