<svg xmlns="http://www.w3.org/2000/svg" width="24" height="24" fill="none"><path d="M2.96 5.062a2.885 2.885 0 0 0-1.128.577c-.3.268-.593.713-.714 1.083l-.098.298v10l.111.3a2.604 2.604 0 0 0 1.549 1.549l.3.111h16.04l.3-.111a2.604 2.604 0 0 0 1.549-1.549l.111-.3V6.98l-.111-.3a2.537 2.537 0 0 0-1.249-1.403c-.595-.294-.012-.276-8.64-.273-6.483.002-7.803.012-8.02.058m16.14 1.07c.315.147.624.455.767.764l.113.244v9.72l-.113.244a1.698 1.698 0 0 1-.767.764l-.24.112H3.14l-.244-.113a1.698 1.698 0 0 1-.764-.767l-.112-.24V7.14l.112-.24c.198-.425.623-.775 1.042-.859.091-.018 3.658-.03 7.926-.027l7.76.006.24.112M22 12v3h1V9h-1v3m-12-.886v2.002l-2.266-1.36a559.651 559.651 0 0 0-2.337-1.398c-.061-.032-.107.021-.316.367-.134.222-.239.42-.233.44.007.019 1.389.861 3.072 1.871l3.06 1.836.01-1.994.011-1.994 2.266 1.36c1.246.748 2.297 1.377 2.336 1.398.061.032.107-.02.314-.364a4.03 4.03 0 0 0 .243-.434c0-.018-1.345-.839-2.99-1.825-1.645-.986-3.031-1.819-3.08-1.85L10 9.111v2.003" fill-rule="evenodd" fill="#000"/></svg>