<svg width="16" height="16" fill="none" xmlns="http://www.w3.org/2000/svg"><path d="M.28 3.058a.433.433 0 0 0-.23.235C.003 3.396.001 3.593.001 8c0 4.436.002 4.604.05 4.71.027.06.095.144.151.186l.101.077 6.148.008c3.382.004 6.176.001 6.209-.007.078-.019.239-.163.288-.257.057-.111.058-9.322.001-9.432a.593.593 0 0 0-.264-.243c-.052-.02-1.935-.028-6.2-.028C.947 3.015.352 3.02.28 3.058M12 8v4H.987V4H12v4m2.262-2.933a.485.485 0 0 0-.25.52c.015.103.043.15.144.252.147.147.199.161.581.161h.276v3.995l-.342.009c-.325.009-.347.013-.438.083-.14.106-.207.214-.224.361a.497.497 0 0 0 .192.448l.101.077.661.008c.611.008.668.004.762-.044a.424.424 0 0 0 .234-.25C15.995 10.6 16 10.269 16 8c0-2.269-.005-2.6-.041-2.687a.426.426 0 0 0-.231-.249c-.089-.046-.162-.051-.734-.049-.574.001-.643.006-.732.052m-7.902.951a.613.613 0 0 0-.273.215l-.074.096L6 7.534l-.013 1.205-1.427-.612c-1.572-.675-1.585-.679-1.803-.556-.168.094-.237.219-.237.429 0 .207.069.335.227.424.208.117 3.594 1.552 3.696 1.567a.474.474 0 0 0 .491-.259c.05-.098.053-.161.053-1.227 0-1.058.002-1.124.046-1.112.026.007.67.368 1.431.803 1.364.779 1.386.791 1.533.79.214 0 .342-.078.438-.266.062-.122.072-.167.057-.266a.474.474 0 0 0-.149-.311 70.131 70.131 0 0 0-1.868-1.088c-1.562-.892-1.822-1.032-1.933-1.041a.722.722 0 0 0-.182.004" fill-rule="evenodd" fill="#000"/></svg>