<svg xmlns="http://www.w3.org/2000/svg" width="16" height="16" fill="none"><path d="M7.267 1.03c-1.14.119-2.056.375-2.995.836C2.25 2.858.809 4.492.109 6.587c-.122.363-.13.446-.059.6a.49.49 0 0 0 .657.256c.166-.077.216-.153.343-.524.38-1.105.933-2.003 1.708-2.772 1.165-1.158 2.676-1.882 4.375-2.098.341-.043 1.386-.043 1.734.001 1.693.212 3.209.938 4.375 2.097.785.779 1.359 1.719 1.729 2.831.084.252.115.313.202.392.258.233.623.157.784-.162.066-.131.052-.267-.062-.612a7.963 7.963 0 0 0-2.789-3.89 8.626 8.626 0 0 0-2.791-1.383c-.822-.228-1.259-.287-2.195-.296a19.5 19.5 0 0 0-.853.003m-3.84 3.937c-.209.086-.334.257-.334.459 0 .117.365 1.568.72 2.867.782 2.86 1.328 4.372 1.828 5.067.667.928 1.027 1.228 1.665 1.39.183.046.278.054.519.044.603-.025 1.18-.297 2.116-1 .562-.421.987-.879 1.176-1.266.257-.525.255-1.176-.005-1.733-.199-.427-.74-1.17-1.093-1.504-.893-.843-3.47-2.637-6.026-4.196-.254-.155-.412-.191-.566-.128m1.551 1.929c2.041 1.311 3.65 2.463 4.338 3.105.21.196.594.707.813 1.08.224.381.242.752.053 1.074-.312.532-1.586 1.464-2.215 1.62-.348.086-.676-.022-.967-.318a5.087 5.087 0 0 1-.828-1.177c-.361-.749-.829-2.178-1.385-4.227-.395-1.454-.413-1.525-.373-1.51.019.008.273.167.564.353" fill="currentColor" fill-rule="evenodd"/></svg>