<svg xmlns="http://www.w3.org/2000/svg" width="24" height="24" fill="none" viewBox="0 0 24 24"><path fill="currentColor" fill-rule="evenodd" d="M1.952 9.71C3.832 5.71 7.638 3 12 3c4.363 0 8.17 2.71 10.048 6.712a.5.5 0 1 0 .905-.424C20.931 4.98 16.799 2 12 2 7.202 2 3.07 4.98 1.047 9.286a.5.5 0 1 0 .905.425Zm3.582-.61.339-.495a.6.6 0 0 0-.914.665l.575-.17Zm0 0 .34-.495v.001l.005.003.016.011.062.043a98.206 98.206 0 0 1 1.092.76c.712.5 1.675 1.184 2.678 1.923A72.286 72.286 0 0 1 12.65 13.6c.856.704 1.608 1.383 1.968 1.88h.001l.098.136c.736 1.016 1.269 1.75 1.174 2.884-.054.655-.418 1.183-.77 1.56-.352.378-.754.67-.995.845l-.01.007-.01.008c-.24.174-.644.467-1.112.686-.468.218-1.085.403-1.724.248-1.124-.27-1.664-1.019-2.434-2.084l-.043-.06c-.359-.497-.771-1.421-1.176-2.453a72.979 72.979 0 0 1-1.24-3.476 148.57 148.57 0 0 1-1.39-4.413l-.02-.073-.006-.019-.002-.004V9.27l.575-.17Zm1.981 4.302a144.95 144.95 0 0 1-.904-2.82c.674.475 1.524 1.082 2.404 1.73.994.733 2.02 1.514 2.873 2.215.87.717 1.502 1.304 1.76 1.657.853 1.181 1.103 1.557 1.047 2.216-.022.266-.18.55-.452.843-.268.287-.586.52-.832.699-.246.178-.568.41-.924.576-.364.17-.681.231-.936.17-.643-.155-.938-.508-1.785-1.68-.257-.355-.62-1.139-1.032-2.19a71.745 71.745 0 0 1-1.219-3.416Z" clip-rule="evenodd"/></svg>