<svg xmlns="http://www.w3.org/2000/svg" width="24" height="24" viewBox="0 0 24 24">
  <path fill="currentColor" fill-rule="evenodd" d="M3.145 8.728A10.5 10.5 0 0 1 12.5 3a10.5 10.5 0 0 1 9.356 5.729l.228.445.89-.455-.227-.445A11.5 11.5 0 0 0 12.5 2 11.5 11.5 0 0 0 2.254 8.273l-.227.445.89.455.228-.445Zm4.234 2.068.288-.408-1.206-.852.44 1.41.478-.15Zm0 0 .288-.408.002.001.004.003.016.012.064.045.243.172a234.095 234.095 0 0 1 3.591 2.61 98.474 98.474 0 0 1 2.917 2.238c.43.345.815.667 1.128.947.306.273.565.526.722.73a3.5 3.5 0 1 1-5.542 4.276c-.163-.21-.337-.54-.512-.913a25.17 25.17 0 0 1-.582-1.374c-.41-1.04-.86-2.297-1.277-3.508a191.962 191.962 0 0 1-1.507-4.579l-.024-.076-.006-.02-.002-.005v-.001l.477-.15Zm2.008 4.506a191.124 191.124 0 0 1-1.074-3.224c.72.518 1.684 1.217 2.678 1.955a99.418 99.418 0 0 1 2.886 2.215c.422.34.794.65 1.088.913.302.27.501.471.597.596a2.5 2.5 0 0 1-3.958 3.054c-.09-.116-.225-.356-.398-.726a24.308 24.308 0 0 1-.558-1.318 86.109 86.109 0 0 1-1.261-3.465Z" clip-rule="evenodd"/>
</svg>
