<svg xmlns="http://www.w3.org/2000/svg" width="16" height="17" viewBox="0 0 16 17">
  <path fill="currentColor" fill-rule="evenodd" d="M3.759 3.425a7 7 0 0 1 10.989 3.708.5.5 0 0 0 .964-.266 8 8 0 0 0-15.424 0 .5.5 0 0 0 .964.266 7 7 0 0 1 2.507-3.708Zm.906 4.108.295-.404a.5.5 0 0 0-.789.482l.494-.078Zm0 0 .295-.404h.001l.003.003.012.009.045.033a72.719 72.719 0 0 1 .79.587c.513.385 1.206.912 1.922 1.476a50.538 50.538 0 0 1 2.07 1.708c.306.27.584.528.81.759.221.224.417.447.538.644a3 3 0 1 1-5.127 3.115c-.235-.397-.456-1.095-.654-1.85A46.31 46.31 0 0 1 4.78 11a94.933 94.933 0 0 1-.597-3.314l-.009-.055-.002-.014v-.004L4.17 7.61l.494-.078Zm1.096 3.27a92.662 92.662 0 0 1-.397-2.126c.49.369 1.111.843 1.75 1.346.71.559 1.436 1.15 2.028 1.672.296.262.554.502.758.71.21.213.34.37.4.467a2 2 0 1 1-3.408 2.094c-.152-.247-.347-.815-.555-1.607a45.95 45.95 0 0 1-.576-2.556Z" clip-rule="evenodd"/>
</svg>
