<svg xmlns="http://www.w3.org/2000/svg" width="24" height="24" fill="none"><path d="M11.06 2.041a11.386 11.386 0 0 0-4.195 1.187c-1.81.906-3.388 2.273-4.62 4.003C1.674 8.033 1 9.255 1 9.489c0 .262.248.511.508.511.233 0 .343-.121.672-.739.636-1.194 1.325-2.134 2.217-3.023a9.861 9.861 0 0 1 1.756-1.44c1.371-.914 2.807-1.461 4.467-1.703.665-.098 2.095-.098 2.76 0 1.66.242 3.096.789 4.467 1.703a9.861 9.861 0 0 1 1.756 1.44c1 .997 1.594 1.837 2.433 3.442.093.177.299.32.46.32.26 0 .504-.251.504-.519 0-.208-.678-1.446-1.194-2.181a13.443 13.443 0 0 0-2.926-3.007A11.657 11.657 0 0 0 13.46 2.1c-.58-.077-1.85-.108-2.4-.059m-5.853 6.56c-.168.103-.306.396-.27.574.079.396 1.426 4.617 1.916 6.005.839 2.373 1.385 3.668 1.858 4.4.334.518.89 1.212 1.225 1.529.557.528 1.165.79 1.824.788.789-.003 1.489-.322 2.646-1.205.724-.552 1.16-1.092 1.368-1.69.1-.291.118-.401.118-.742-.002-.788-.222-1.318-1.001-2.403a12.959 12.959 0 0 0-.567-.733c-.855-.978-4.207-3.579-7.96-6.177-.586-.406-.626-.427-.82-.427a.652.652 0 0 0-.337.081m4.374 4.139c2.554 1.909 3.654 2.871 4.275 3.74.671.937.824 1.263.824 1.752-.001.359-.087.581-.358.918-.295.367-1.257 1.086-1.804 1.348-.542.26-.862.275-1.315.061-.321-.153-.634-.466-1.133-1.138-.574-.771-.92-1.484-1.585-3.267-.546-1.465-1.686-4.861-1.828-5.447-.024-.1.079-.037.908.556.514.367 1.422 1.032 2.016 1.477" fill="currentColor" fill-rule="evenodd"/></svg>