<svg xmlns="http://www.w3.org/2000/svg" width="12" height="12" fill="none" viewBox="0 0 12 12">
  <path fill="currentColor" d="M4.6 10.5c.05.292.284.546.536.725a1.49 1.49 0 0 0 1.728 0c.252-.18.486-.433.536-.725"/>
  <path fill="currentColor" d="M4.6 10.5V10h-.593l.1.584.493-.084Zm2.8 0 .493.084.1-.584H7.4v.5Zm-3.293.084c.084.489.45.842.74 1.049l.579-.816c-.215-.152-.317-.305-.333-.401l-.986.168Zm.74 1.049c.337.239.74.368 1.153.368v-1a.99.99 0 0 1-.574-.184l-.58.816ZM6 12a1.99 1.99 0 0 0 1.153-.368l-.579-.816a.99.99 0 0 1-.574.184v1Zm1.153-.368c.29-.207.656-.56.74-1.049l-.986-.168c-.016.096-.118.249-.333.401l.58.816ZM4.6 11h2.8v-1H4.6v1ZM11.5 8.5a2.15 2.15 0 0 1-2-2V4a3.5 3.5 0 1 0-7 0v2.5a2.151 2.151 0 0 1-2 2"/>
  <path stroke="currentColor" stroke-linecap="round" stroke-linejoin="round" d="M.5 8.5h11a2.15 2.15 0 0 1-2-2V4a3.5 3.5 0 1 0-7 0v2.5a2.151 2.151 0 0 1-2 2Z"/>
</svg>
