<svg xmlns="http://www.w3.org/2000/svg" width="16" height="16" fill="none"><path d="M7.47.03a5.023 5.023 0 0 0-4.406 4.157c-.06.328-.061.372-.076 3l-.015 2.666-.06.147c-.191.468-.5.766-.958.924-.202.07-.231.073-.899.082-.616.009-.701.016-.791.061a.482.482 0 0 0-.253.52.542.542 0 0 0 .331.386c.134.037 15.18.037 15.314 0a.542.542 0 0 0 .331-.386.48.48 0 0 0-.251-.518c-.078-.039-.184-.051-.55-.064-.541-.017-.75-.064-1.145-.256-.338-.164-.6-.366-.781-.604-.267-.348-.248-.135-.248-2.793 0-2.403-.014-2.825-.109-3.318C12.418 1.512 10.041-.238 7.47.03M5.493 13.318c0 .861.246 1.472.804 2.004.215.204.371.31.645.439.371.173.611.224 1.058.224.32 0 .426-.01.613-.061a2.478 2.478 0 0 0 1.187-.701c.478-.504.673-.998.699-1.776l.015-.434H5.493v.305" fill="currentColor" fill-rule="evenodd"/></svg>