<svg xmlns="http://www.w3.org/2000/svg" width="12" height="12" fill="none"><path d="M5.604.022A4.022 4.022 0 0 0 3.45.923c-.755.632-1.221 1.444-1.404 2.447-.028.152-.035.417-.046 1.73-.011 1.416-.015 1.561-.049 1.68-.109.39-.364.738-.704.96a1.488 1.488 0 0 1-.581.231c-.348.062-.384.072-.463.129a.602.602 0 0 0-.137.154.522.522 0 0 0-.005.476.531.531 0 0 0 .295.249c.05.014 1.869.021 5.654.02 4.61-.001 5.593-.005 5.655-.028a.516.516 0 0 0 .27-.227c.047-.08.055-.116.055-.244s-.008-.164-.056-.246a.602.602 0 0 0-.137-.154c-.079-.057-.116-.067-.467-.13a1.656 1.656 0 0 1-1.281-1.19c-.034-.119-.038-.264-.049-1.68-.011-1.313-.018-1.578-.046-1.73C9.771 2.367 9.305 1.555 8.55.923A4.013 4.013 0 0 0 5.604.022m.678.998c.722.07 1.348.368 1.852.882.44.449.694.939.821 1.585.026.137.034.412.045 1.713.013 1.474.016 1.558.055 1.72.093.381.248.718.477 1.035L9.565 8H6.001c-2.846 0-3.56-.005-3.548-.025l.099-.145a2.87 2.87 0 0 0 .393-.91c.039-.162.042-.246.055-1.72.011-1.301.019-1.576.045-1.713.127-.646.381-1.136.821-1.585a2.956 2.956 0 0 1 2.416-.882M4.46 10.017a.504.504 0 0 0-.355.579c.01.052.053.167.095.256.248.535.724.93 1.317 1.093.231.063.727.063.962-.001.475-.13.905-.427 1.159-.802a2 2 0 0 0 .258-.55.5.5 0 0 0-.54-.585c-.205.024-.329.134-.457.403a.919.919 0 0 1-.207.3c-.501.49-1.288.341-1.591-.3-.094-.199-.171-.293-.29-.354a.616.616 0 0 0-.351-.039" fill-rule="evenodd" fill="#000"/></svg>