<svg xmlns="http://www.w3.org/2000/svg" width="16" height="16" fill="none" viewBox="0 0 16 16">
  <path fill="currentColor" d="M10 13.5a2 2 0 1 1-4 0"/>
  <path fill="currentColor" d="M10 13.5h.5V13H10v.5Zm-4 0V13h-.5v.5H6Zm3.5 0A1.5 1.5 0 0 1 8 15v1a2.5 2.5 0 0 0 2.5-2.5h-1ZM8 15a1.5 1.5 0 0 1-1.5-1.5h-1A2.5 2.5 0 0 0 8 16v-1Zm-2-1h4v-1H6v1ZM14.5 11.5h.5c-1.105 0-2.5-.895-2.5-2V5a4.5 4.5 0 0 0-9 0v4.5a2 2 0 0 1-2 2"/>
  <path stroke="currentColor" stroke-linecap="round" stroke-linejoin="round" d="M.5 11.5h15m-1 0h.5c-1.105 0-2.5-.895-2.5-2V5a4.5 4.5 0 0 0-9 0v4.5a2 2 0 0 1-2 2"/>
</svg>
