<svg xmlns="http://www.w3.org/2000/svg" width="16" height="16" fill="none"><path d="M7.47.029a5.029 5.029 0 0 0-4.016 2.9 4.912 4.912 0 0 0-.44 1.72c-.015.197-.027 1.389-.028 2.724 0 2.563.003 2.498-.143 2.797a1.674 1.674 0 0 1-.649.662c-.243.138-.387.16-1.169.178l-.723.017-.1.077a.518.518 0 0 0-.174.568.66.66 0 0 0 .284.291c.129.055 15.247.055 15.376 0a.66.66 0 0 0 .284-.291.545.545 0 0 0-.1-.507c-.108-.12-.212-.144-.685-.16-.531-.017-.743-.063-1.122-.243-.443-.209-.77-.494-.951-.829l-.087-.16-.016-2.626c-.011-1.738-.026-2.686-.046-2.8-.208-1.213-.648-2.088-1.457-2.894A4.945 4.945 0 0 0 8.853.077 6.456 6.456 0 0 0 7.47.029M8.6 1.051a3.92 3.92 0 0 1 2.201 1.109c.54.534.885 1.132 1.066 1.85.123.488.133.726.133 3.288 0 2.544 0 2.539.134 2.887.078.2.237.464.396.655l.133.16-4.563.007c-2.509.003-4.568.001-4.574-.006-.007-.007.024-.07.07-.141.121-.19.259-.5.328-.741l.06-.212.018-2.694c.014-2.324.022-2.722.06-2.906a4.195 4.195 0 0 1 .76-1.734c.18-.236.603-.645.849-.82a4.077 4.077 0 0 1 1.702-.7c.29-.046.934-.047 1.227-.002m-2.858 12.03c-.227.135-.283.349-.211.791A2.503 2.503 0 0 0 6.8 15.689c.403.22.71.295 1.2.295.398 0 .54-.023.88-.147a2.567 2.567 0 0 0 1.316-1.146c.193-.35.343-.985.299-1.26a.501.501 0 0 0-.75-.351c-.169.099-.225.209-.253.5-.029.308-.077.469-.199.673A1.469 1.469 0 0 1 8 14.991a1.469 1.469 0 0 1-1.293-.738c-.122-.204-.17-.365-.199-.673-.017-.176-.041-.274-.082-.341a.517.517 0 0 0-.684-.158" fill-rule="evenodd" fill="#000"/></svg>