<svg xmlns="http://www.w3.org/2000/svg" width="12" height="12" fill="none" viewBox="0 0 12 12"><path fill="currentColor" d="M4.6 10.5c.05.292.284.546.536.725a1.49 1.49 0 0 0 1.728 0c.252-.18.486-.433.536-.725M11.5 8.5a2.15 2.15 0 0 1-2-2V4a3.5 3.5 0 1 0-7 0v2.5a2.151 2.151 0 0 1-2 2"/><path stroke="currentColor" stroke-linecap="round" stroke-linejoin="round" d="M4.6 10.5c.05.292.284.546.536.725a1.49 1.49 0 0 0 1.728 0c.252-.18.486-.433.536-.725m4.1-2a2.15 2.15 0 0 1-2-2V4a3.5 3.5 0 1 0-7 0v2.5a2.151 2.151 0 0 1-2 2"/></svg>