<svg xmlns="http://www.w3.org/2000/svg" width="24" height="24" fill="none"><path d="M11.7 1.047c-2.008.202-3.965 1.311-5.179 2.933-.752 1.005-1.177 1.993-1.43 3.32-.05.263-.066.928-.089 3.72-.031 3.699-.034 3.752-.281 4.98-.319 1.586-.83 2.865-1.766 4.426a8.808 8.808 0 0 0-.315.55c0 .013 4.437.024 9.86.024 5.423 0 9.86-.01 9.86-.022 0-.013-.164-.296-.364-.63-1.17-1.955-1.778-3.833-1.955-6.044-.023-.29-.041-1.771-.041-3.388 0-2.34-.011-2.958-.061-3.336-.288-2.201-1.442-4.075-3.259-5.295a7.51 7.51 0 0 0-4.98-1.238m1.45.993a6.335 6.335 0 0 1 3.932 1.878c.76.76 1.248 1.542 1.575 2.528.324.975.342 1.221.343 4.634.001 2.856.02 3.422.144 4.28.213 1.473.708 3.071 1.34 4.327l.157.313H4.359l.156-.31c.576-1.148 1.055-2.626 1.286-3.964.164-.948.169-1.073.198-4.566.024-2.979.036-3.465.096-3.77a6.81 6.81 0 0 1 1.184-2.76c.312-.435 1.095-1.183 1.575-1.503 1.294-.863 2.8-1.244 4.296-1.087M9.68 22.022c0 .013.063.152.141.31a3 3 0 0 0 1.359 1.35c.472.232.756.296 1.32.296.564 0 .85-.064 1.32-.297a2.99 2.99 0 0 0 1.358-1.339c.078-.158.142-.3.142-.315 0-.015-1.269-.027-2.82-.027s-2.82.01-2.82.022" fill="currentColor" fill-rule="evenodd"/></svg>