<svg xmlns="http://www.w3.org/2000/svg" width="16" height="16" fill="none"><path d="M7.48.027c-1.989.211-3.705 1.629-4.261 3.52-.217.738-.212.661-.23 3.653l-.016 2.653-.06.159a1.66 1.66 0 0 1-.772.851c-.21.108-.377.13-1.116.147l-.723.017-.1.077a.518.518 0 0 0-.174.568.66.66 0 0 0 .284.291c.07.03.362.037 1.534.037h1.447l-1.605 1.607C.571 14.724.069 15.244.041 15.312a.47.47 0 0 0 .122.546.46.46 0 0 0 .544.091C.86 15.877 15.902.826 15.959.688a.497.497 0 0 0 .004-.377.583.583 0 0 0-.382-.3c-.262-.039-.219-.075-1.714 1.417l-1.374 1.37-.12-.217A5.018 5.018 0 0 0 7.96.004a6.492 6.492 0 0 0-.48.023m1.067 1.017c.847.103 1.642.502 2.28 1.141.345.347.571.664.777 1.093l.134.277-3.729 3.729-3.729 3.729H3.9c-.209 0-.38-.008-.38-.017 0-.01.036-.073.079-.141.119-.185.256-.497.325-.736l.061-.212.017-2.694c.011-1.662.029-2.749.046-2.84.173-.925.571-1.68 1.195-2.267.905-.851 2.041-1.217 3.304-1.062m3.813 4.979a.576.576 0 0 0-.281.211l-.066.095-.008 1.642c-.006 1.192 0 1.693.023 1.829.062.357.239.724.502 1.04l.133.16-2.671.013c-2.023.01-2.686.022-2.728.046-.089.051-.222.215-.239.295a2.71 2.71 0 0 1-.026.105c-.019.063.061.304.124.372a.65.65 0 0 0 .17.119c.103.047.278.049 4.208.049 4.499.001 4.192.013 4.357-.162a.46.46 0 0 0 .101-.524c-.104-.249-.204-.289-.772-.308-.531-.017-.743-.063-1.122-.243-.443-.209-.77-.494-.951-.829l-.087-.16-.014-1.693c-.014-1.793-.013-1.776-.141-1.917a.538.538 0 0 0-.512-.14m-6.618 7.058c-.227.135-.283.349-.211.791A2.503 2.503 0 0 0 6.8 15.689c.403.22.71.295 1.2.295.398 0 .54-.023.88-.147a2.567 2.567 0 0 0 1.316-1.146c.193-.35.343-.985.299-1.26a.501.501 0 0 0-.75-.351c-.169.099-.225.209-.253.5-.029.308-.077.469-.199.673A1.469 1.469 0 0 1 8 14.991a1.469 1.469 0 0 1-1.293-.738c-.122-.204-.17-.365-.199-.673-.017-.176-.041-.274-.082-.341a.517.517 0 0 0-.684-.158" fill-rule="evenodd" fill="#000"/></svg>