<svg xmlns="http://www.w3.org/2000/svg" width="24" height="24" fill="none"><path d="M11.76 1.041a7.744 7.744 0 0 0-4.012 1.67A8.704 8.704 0 0 0 6.28 4.33c-.596.893-.961 1.803-1.184 2.95-.057.291-.071.825-.096 3.74-.031 3.579-.039 3.75-.236 4.82a13.207 13.207 0 0 1-1.487 4.04c-.151.266-.298.444-.678.82-.266.264-.51.529-.542.588-.212.402.254.868.655.655.131-.07 19.181-19.126 19.244-19.25.196-.389-.28-.842-.668-.636-.059.032-.638.589-1.286 1.238l-1.177 1.181-.14-.208c-.352-.527-1.091-1.305-1.633-1.719a7.661 7.661 0 0 0-3.412-1.451c-.482-.074-1.438-.104-1.88-.057m1.39.999a6.729 6.729 0 0 1 3.025 1.108c.656.437 1.446 1.256 1.81 1.877l.107.183-6.434 6.434c-3.539 3.539-6.44 6.43-6.446 6.423a2.674 2.674 0 0 1 .11-.368c.152-.449.327-1.142.438-1.734.2-1.069.206-1.195.239-4.823.034-3.716.03-3.655.264-4.473.455-1.597 1.685-3.105 3.18-3.901a6.64 6.64 0 0 1 3.707-.726m6.102 7.038c-.271.165-.261.049-.24 2.917.02 2.705.03 2.882.223 3.947a14.577 14.577 0 0 0 1.211 3.668l.195.39H14.51c-6.009 0-6.133.002-6.258.078a.478.478 0 0 0-.174.67c.167.273-.384.254 6.98.242l6.66-.01.124-.124a.482.482 0 0 0 .146-.288c.02-.148-.006-.216-.259-.676-.363-.664-.442-.823-.668-1.352a12.78 12.78 0 0 1-.826-2.718c-.191-1.051-.202-1.25-.223-3.902-.017-2.11-.03-2.558-.078-2.651A.56.56 0 0 0 19.5 9a.572.572 0 0 0-.248.078M9.68 22.027c0 .015.063.154.141.31A3.042 3.042 0 0 0 12.5 24a3.043 3.043 0 0 0 2.52-1.377c.122-.191.3-.551.3-.606 0-.009-1.269-.017-2.82-.017s-2.82.012-2.82.027" fill-rule="evenodd" fill="#000"/></svg>