<svg xmlns="http://www.w3.org/2000/svg" width="12" height="12" fill="none"><path d="M5.604.022A4.022 4.022 0 0 0 3.45.923c-.755.632-1.221 1.444-1.404 2.447-.028.152-.035.417-.046 1.73-.011 1.416-.015 1.561-.049 1.68-.109.39-.364.738-.704.96a1.488 1.488 0 0 1-.581.231c-.348.062-.384.072-.463.129-.287.208-.259.651.053.835.085.05.112.055.274.053.391-.004.929-.182 1.29-.427l.09-.061h8.172l.109.07c.395.253.89.414 1.279.418.162.002.189-.003.274-.053.312-.184.34-.627.053-.835-.079-.057-.116-.067-.467-.13a1.656 1.656 0 0 1-1.281-1.19c-.034-.119-.038-.264-.049-1.68-.011-1.313-.018-1.578-.046-1.73C9.771 2.367 9.305 1.555 8.55.923A4.013 4.013 0 0 0 5.604.022M4.432 10.031a.508.508 0 0 0-.267.225c-.106.181-.059.497.119.801.099.169.454.512.664.641.355.219.723.315 1.142.296.53-.024.961-.221 1.361-.622.29-.291.436-.581.438-.872.001-.129-.007-.163-.054-.244a.499.499 0 0 0-.745-.145.524.524 0 0 0-.181.287l-.031.102H5.122l-.031-.102a.524.524 0 0 0-.181-.287.507.507 0 0 0-.478-.08" fill="currentColor" fill-rule="evenodd"/></svg>