<svg xmlns="http://www.w3.org/2000/svg" width="16" height="16" fill="currentColor" viewBox="0 0 16 16">
  <path fill-rule="evenodd" d="M8.252 0a4.889 4.889 0 0 1 4.426 2.774L15.163.289l.698.698-2.732 2.732-.373.373L.848 16l-.698-.698 3.455-3.455H1.342v-.988c.21 0 .546-.043.872-.133.347-.094.58-.212.668-.3a1.48 1.48 0 0 0 .434-1.047V4.936A4.936 4.936 0 0 1 8.252 0ZM3.81 10.86h.783l7.335-7.336a3.933 3.933 0 0 0-1.323-1.76 3.95 3.95 0 0 0-6.302 3.172V9.38c0 .537-.175 1.056-.493 1.48Zm9.378-4.937V9.38c0 .33.214.694.626 1 .407.302.923.48 1.349.48v.988H7.265v-.988h5.601c-.382-.387-.665-.893-.665-1.48V5.923h.987Zm-6.417 6.91v.495a1.48 1.48 0 0 0 2.962 0v-.494h.987v.494a2.468 2.468 0 1 1-4.936 0v-.494h.987Z" clip-rule="evenodd"/>
</svg>
