<svg xmlns="http://www.w3.org/2000/svg" width="24" height="24" fill="none" viewBox="0 0 24 24"><path fill="currentColor" fill-rule="evenodd" d="M12.5 1A7.5 7.5 0 0 0 5 8.5v4.997a13.334 13.334 0 0 1-1.928 6.744l-.46.759h19.775l-.46-.759A13.334 13.334 0 0 1 20 13.497V8.5A7.5 7.5 0 0 0 12.5 1ZM7.904 3.904A6.5 6.5 0 0 1 19 8.5v5.006A14.336 14.336 0 0 0 20.644 20H4.356C5.408 18 5.973 15.774 6 13.506V8.5a6.5 6.5 0 0 1 1.904-4.596Z" clip-rule="evenodd"/><path fill="currentColor" d="M10.77 23.45A3.01 3.01 0 0 1 9.675 22h5.652a3.01 3.01 0 0 1-1.097 1.45 2.993 2.993 0 0 1-3.458 0Z"/></svg>