<svg xmlns="http://www.w3.org/2000/svg" width="24" height="24" fill="none"><path d="M11.724 1.046A7.522 7.522 0 0 0 5.221 6.7c-.19.76-.19.75-.219 4.32-.031 3.699-.034 3.752-.281 4.98-.319 1.586-.83 2.865-1.766 4.426a8.808 8.808 0 0 0-.315.55c0 .013 4.437.024 9.86.024 5.423 0 9.86-.011 9.86-.024 0-.013-.142-.261-.315-.55-.936-1.561-1.447-2.84-1.766-4.426-.247-1.228-.25-1.279-.281-5-.024-2.855-.039-3.471-.091-3.727-.272-1.344-.688-2.302-1.433-3.299-1.539-2.059-4.164-3.199-6.75-2.928M9.68 22.022c0 .013.063.152.141.31a3 3 0 0 0 1.359 1.35c.472.232.756.296 1.32.296.564 0 .85-.064 1.32-.297a2.99 2.99 0 0 0 1.358-1.339c.078-.158.142-.3.142-.315 0-.015-1.269-.027-2.82-.027s-2.82.01-2.82.022" fill="currentColor" fill-rule="evenodd"/></svg>