<svg xmlns="http://www.w3.org/2000/svg" width="24" height="24" fill="none" viewBox="0 0 24 24"><path fill="currentColor" d="M8.5 7H9V6h-.5v1Zm-4-1H4v1h.5V6Zm13-.5.492-.09-.075-.41H17.5v.5Zm-11 4V9h-.377l-.104.363.481.137ZM23 16a4 4 0 0 1-4 4v1a5 5 0 0 0 5-5h-1Zm-4 4a4 4 0 0 1-4-4h-1a5 5 0 0 0 5 5v-1Zm-4-4a4 4 0 0 1 4-4v-1a5 5 0 0 0-5 5h1Zm4-4a4 4 0 0 1 4 4h1a5 5 0 0 0-5-5v1ZM9 16a4 4 0 0 1-4 4v1a5 5 0 0 0 5-5H9Zm-4 4a4 4 0 0 1-4-4H0a5 5 0 0 0 5 5v-1Zm-4-4a4 4 0 0 1 4-4v-1a5 5 0 0 0-5 5h1Zm4-4a4 4 0 0 1 4 4h1a5 5 0 0 0-5-5v1Zm3.5-6h-4v1h4V6Zm11.492 10.41-2-11-.984.18 2 11 .984-.18ZM17.5 5h-4v1h4V5Zm.727 4H6.5v1h11.727V9Zm-12.208.363-2 7 .962.274 2-7-.962-.274Z"/></svg>