<svg xmlns="http://www.w3.org/2000/svg" width="16" height="16" fill="none"><path d="M8 2.507v.506h3.057l.113.914c.062.502.119.952.128 1l.015.086H4.088l-.199.994L3.691 7l-.359.017a3.39 3.39 0 0 0-2.305 1.022A3.398 3.398 0 0 0 .009 10.36a3.468 3.468 0 0 0 1.189 2.769 3.44 3.44 0 0 0 1.316.721c1.836.552 3.789-.509 4.339-2.357a3.647 3.647 0 0 0 .038-1.853 3.569 3.569 0 0 0-1.367-1.987 4.03 4.03 0 0 0-.771-.42c-.073-.026-.085-.041-.073-.092.016-.07.227-1.119.227-1.132C4.907 6.004 6.375 6 8.169 6h3.262l.061.5c.034.275.063.528.065.561.003.054-.023.071-.184.127A3.555 3.555 0 0 0 9.11 9.64a3.777 3.777 0 0 0-.058 1.447c.36 2.067 2.439 3.363 4.434 2.763a3.456 3.456 0 0 0 2.364-2.364 3.447 3.447 0 0 0-.563-3.091c-.59-.783-1.537-1.309-2.476-1.373l-.242-.016-.3-2.403a621.465 621.465 0 0 0-.314-2.503L11.94 2H8v.507m-5.013 1V4H6v-.987H2.987v.494M3.48 8.06c-.008.033-.139.682-.29 1.442-.187.935-.267 1.386-.247 1.393.052.019.937.194.944.187.004-.004.135-.648.291-1.431.156-.784.289-1.43.295-1.437a.637.637 0 0 1 .18.075 2.522 2.522 0 0 1 1.272 1.623c.081.324.081.888 0 1.185-.284 1.05-1.14 1.79-2.181 1.886-1.236.114-2.328-.652-2.669-1.871-.036-.128-.047-.268-.046-.619 0-.416.006-.472.073-.688A2.522 2.522 0 0 1 2.32 8.298a2.756 2.756 0 0 1 1.074-.295c.091-.003.099.002.086.057m9.733.049a2.501 2.501 0 0 1 1.685 1.696c.067.216.073.272.073.688.001.493-.019.604-.17.972-.171.413-.54.863-.913 1.111a2.493 2.493 0 0 1-2.548.13c-.639-.337-1.069-.884-1.265-1.609-.081-.297-.081-.861 0-1.185a2.581 2.581 0 0 1 1.01-1.468c.15-.101.591-.325.607-.306.004.005.088.657.187 1.449.098.792.187 1.447.196 1.457.017.016.959-.094.976-.114.005-.006-.073-.658-.173-1.45-.1-.792-.183-1.447-.183-1.456-.003-.027.324.027.518.085" fill-rule="evenodd" fill="#000"/></svg>