<svg xmlns="http://www.w3.org/2000/svg" width="24" height="24" fill="none"><path d="M13.48 5.5V6h1.8c.99 0 1.8.005 1.801.01l.273 1.5.272 1.49H6.124l-.075.25c-.041.138-.171.594-.29 1.014l-.217.765-.343-.02c-.77-.044-1.627.139-2.379.508a4.976 4.976 0 0 0-2.764 3.714c-.077.467-.057 1.313.04 1.763.332 1.523 1.334 2.824 2.68 3.482.75.366 1.358.504 2.224.504.675 0 .973-.044 1.535-.226a5.017 5.017 0 0 0 3.218-3.215c.187-.578.227-.859.225-1.579-.002-.579-.015-.713-.109-1.091-.254-1.018-.72-1.821-1.46-2.516-.456-.428-.994-.757-1.794-1.097l-.086-.036.098-.34.177-.61.079-.27h5.456c5.161 0 5.457.004 5.476.07.036.121.191 1.018.178 1.027a7.262 7.262 0 0 1-.353.097 5.46 5.46 0 0 0-.82.323c-1.446.709-2.43 1.993-2.745 3.583-.073.368-.073 1.432 0 1.8.308 1.553 1.33 2.906 2.701 3.576.75.366 1.358.504 2.224.504.675 0 .973-.044 1.535-.226a5.017 5.017 0 0 0 3.218-3.215c.187-.578.227-.859.225-1.579-.002-.579-.015-.713-.109-1.091-.191-.765-.495-1.396-.943-1.957a5.017 5.017 0 0 0-3.453-1.88l-.467-.048-.022-.122c-.209-1.165-.996-5.498-1.028-5.652L17.914 5H13.48v.5M4 6.5V7h5V6H4v.5m1.24 5.541c0 .022-.271.988-.602 2.146-.331 1.158-.594 2.126-.584 2.151.014.038.907.317.929.291.004-.005.29-.999.635-2.209.345-1.209.634-2.205.642-2.213.028-.029.775.347 1.025.515.326.22.773.667.993.993.252.373.507.939.609 1.347.126.509.126 1.367 0 1.876a4.042 4.042 0 0 1-2.882 2.933c-.336.091-.463.104-1.005.104-.542 0-.669-.013-1.005-.104a4.021 4.021 0 0 1-2.283-1.602 4.86 4.86 0 0 1-.599-1.331c-.126-.509-.126-1.367 0-1.876.102-.408.357-.974.609-1.347.582-.863 1.639-1.515 2.711-1.672.334-.049.807-.05.807-.002m14.718.084c.647.148 1.367.554 1.865 1.052.342.342.569.671.801 1.16.266.563.352.966.352 1.663 0 .697-.086 1.1-.352 1.663-.538 1.136-1.43 1.887-2.619 2.208-.336.091-.463.104-1.005.104-.542 0-.669-.013-1.005-.104a4.021 4.021 0 0 1-2.283-1.602 4.86 4.86 0 0 1-.599-1.331c-.126-.509-.126-1.367 0-1.876a4.211 4.211 0 0 1 1.064-1.885c.342-.342.673-.57 1.158-.799.303-.142.823-.318.848-.286.004.004.19 1.015.414 2.246.224 1.232.41 2.242.415 2.246.004.004.224-.033.488-.082.463-.086.48-.092.469-.185a169.27 169.27 0 0 0-.39-2.186 336.967 336.967 0 0 1-.379-2.111c0-.034.379.018.758.105" fill="currentColor" fill-rule="evenodd"/></svg>