<svg xmlns="http://www.w3.org/2000/svg" width="16" height="16" fill="currentColor" viewBox="0 0 16 16">
  <path d="M9.5 1.5c.915 0 1.738.5 2.158 1.256l3.624 5.456A4 4 0 1 1 8.005 10.7L8 10.5A4 4 0 1 1 .718 8.212L4.322 2.79A2.492 2.492 0 0 1 6.5 1.5c.53 0 1.03.168 1.447.469L8 2.011l.053-.042a2.464 2.464 0 0 1 1.25-.461L9.5 1.5ZM4 7.5a2.996 2.996 0 0 0-2.44 1.255l-.015.022-.078.115A3 3 0 1 0 4 7.5Zm8 0a3 3 0 1 0 0 6 3 3 0 0 0 0-6Zm-5.5-5c-.546 0-1.038.3-1.324.81l-2.21 3.325a4.005 4.005 0 0 1 4.536 1.93l-.001-5.672A1.473 1.473 0 0 0 6.5 2.5Zm3 0c-.375 0-.726.142-1 .392v5.672a3.999 3.999 0 0 1 4.535-1.929l-2.23-3.358A1.493 1.493 0 0 0 9.5 2.5Z"/>
</svg>
