<svg xmlns="http://www.w3.org/2000/svg" width="16" height="16" fill="none"><path d="M5.9 1.079a2.546 2.546 0 0 0-1.309.828C4.456 2.074.453 8.1.453 8.136c0 .014-.034.094-.076.178a4.343 4.343 0 0 0-.3.913c-.087.407-.088 1.145-.001 1.546.35 1.619 1.535 2.804 3.151 3.15.404.087 1.142.087 1.546 0a4.015 4.015 0 0 0 3.008-2.63c.091-.266.192-.729.192-.879 0-.058.011-.091.027-.081.015.009.027.053.027.098 0 .044.024.203.055.351.322 1.586 1.533 2.796 3.145 3.141.404.087 1.142.087 1.546 0a3.954 3.954 0 0 0 2.024-1.077 4.037 4.037 0 0 0 1.126-2.073c.087-.404.087-1.142 0-1.546a4.343 4.343 0 0 0-.3-.913 1.013 1.013 0 0 1-.076-.178c0-.014-.919-1.41-2.041-3.101-2.232-3.365-2.208-3.331-2.663-3.625-.462-.299-.88-.412-1.443-.389a3.24 3.24 0 0 0-.52.059c-.208.055-.627.247-.762.35l-.098.074-.097-.06a4.37 4.37 0 0 0-.803-.364 2.865 2.865 0 0 0-.573-.056c-.357-.009-.427-.003-.647.055m.906.96c.374.079.627.258 1.042.734l.151.174.139-.16c.076-.088.223-.246.328-.35a1.44 1.44 0 0 1 1.657-.292c.18.082.429.275.527.408.125.17 2.366 3.56 2.358 3.568a1.208 1.208 0 0 1-.181-.03 4.173 4.173 0 0 0-2.12.128 4.02 4.02 0 0 0-2.68 3.365c0 .053-.012.096-.027.096s-.027-.043-.027-.096a4.026 4.026 0 0 0-2.68-3.365 4.173 4.173 0 0 0-2.12-.128c-.095.02-.176.033-.181.03-.011-.01 2.301-3.496 2.389-3.602.33-.399.901-.591 1.425-.48M4.773 7.105c.294.081.776.309.987.467.203.152.488.435.646.641.178.234.403.702.493 1.027.068.247.074.303.074.76s-.006.513-.074.758a3.01 3.01 0 0 1-1.572 1.927 2.999 2.999 0 0 1-3.281-.415 3.065 3.065 0 0 1-.945-1.512c-.068-.245-.074-.301-.074-.758s.006-.513.074-.758c.089-.322.262-.694.443-.956.15-.216.471-.546.696-.714.201-.15.689-.385.945-.454.343-.093.433-.102.895-.092.374.007.478.019.693.079m8 0c.294.081.775.309.987.467.225.168.546.498.696.714.181.262.354.634.443.956.068.245.074.301.074.758s-.006.513-.074.758a3.01 3.01 0 0 1-1.572 1.927 2.999 2.999 0 0 1-3.281-.415 3.065 3.065 0 0 1-.945-1.512c-.068-.245-.074-.301-.074-.758s.006-.513.074-.76c.09-.325.315-.793.493-1.027.158-.206.443-.489.646-.641.201-.15.689-.385.945-.454.343-.093.433-.102.895-.092.374.007.478.019.693.079" fill-rule="evenodd" fill="#000"/></svg>