<svg xmlns="http://www.w3.org/2000/svg" width="16" height="16" fill="currentColor">
  <path fill-rule="evenodd" d="m4.517 0 4.467 2.234V6.51h-.993V3.343l-2.978 1.49v3.853l.719-.36.444.889-1.659.829L.05 7.81V2.234L4.517 0Zm-.496 8.686V4.832L1.043 3.343v3.854L4.02 8.686ZM1.656 2.54l2.861 1.43 2.86-1.43-2.86-1.43-2.86 1.43Zm9.81 3.416 4.467 2.234v5.577L11.466 16l-4.467-2.233V8.19l4.467-2.234ZM7.99 9.3v3.854l2.978 1.489v-3.854L7.991 9.3Zm3.971 1.49v3.853l2.978-1.489V9.299l-2.978 1.49Zm2.365-2.293-2.861 1.43-2.861-1.43 2.86-1.43 2.862 1.43Z" clip-rule="evenodd"/>
</svg>
