<svg xmlns="http://www.w3.org/2000/svg" width="16" height="16" fill="none"><path d="M4.81 2.301a364.392 364.392 0 0 0-3.195 1.857.557.557 0 0 0-.097.139c-.05.098-.051.2-.051 3.789v3.687l3.165 1.825c1.741 1.004 3.211 1.838 3.267 1.853a.38.38 0 0 0 .201 0c.055-.015 1.525-.848 3.266-1.852l3.167-1.826-.001-3.68c0-3.514-.002-3.684-.049-3.786a.532.532 0 0 0-.099-.15C14.301 4.086 8.033.48 7.995.481c-.019.001-1.452.82-3.185 1.82m5.778.732c1.392.802 2.521 1.468 2.51 1.48-.012.011-1.163.68-2.559 1.485L8 7.463 5.461 5.998a308.662 308.662 0 0 1-2.559-1.485c-.027-.028 5.075-2.97 5.12-2.953.02.007 1.174.67 2.566 1.473M5.507 7.1c1.07.617 1.961 1.135 1.98 1.152.026.024.032.641.026 2.978l-.006 2.948-2.547-1.469-2.547-1.47-.006-2.965L2.4 5.309l.58.335L5.507 7.1m8.06 4.142c-.019.017-1.144.671-2.5 1.452a701.457 701.457 0 0 0-2.527 1.46l-.06.039.007-2.969.006-2.969 2.547-1.469 2.547-1.468.006 2.946c.006 2.336 0 2.954-.026 2.978" fill-rule="evenodd" fill="#000"/></svg>