<svg xmlns="http://www.w3.org/2000/svg" width="24" height="24" fill="none"><path d="M4.863 3.146C2.772 4.194 2.496 4.322 2.411 4.283c-.132-.06-.162-.055-.191.037-.016.051-.061.08-.123.08-.077 0-.097.021-.097.1 0 .055-.013.1-.03.101-.1.002-.133.069-.086.173.039.083.038.129-.001.215-.044.098-.041.116.034.165C2 5.21 2 5.212 2 8.295v3.085l2.38 1.19 2.38 1.19v6.16l2.36 1.18c2.175 1.088 2.36 1.188 2.36 1.28 0 .079.02.1.095.1.052 0 .12.038.151.083.049.075.067.078.165.034.087-.04.131-.04.218 0 .098.044.116.041.165-.034a.209.209 0 0 1 .151-.083c.075 0 .095-.021.095-.1 0-.092.185-.192 2.36-1.28l2.36-1.18v-6.16l2.38-1.19L22 11.38V8.295c0-3.083 0-3.085.083-3.141.075-.049.078-.067.034-.165-.039-.086-.04-.132-.001-.215.047-.104.014-.171-.086-.173C22.014 4.6 22 4.555 22 4.5c0-.079-.02-.1-.097-.1-.062 0-.107-.029-.123-.08-.029-.092-.059-.097-.191-.037-.085.039-.362-.089-2.462-1.14L16.76 1.96l-2.378 1.189-2.378 1.189L9.62 3.149a319.161 319.161 0 0 0-2.392-1.187L4.863 3.146m4.227.839 1.81.905-1.78.893c-.979.491-1.816.893-1.86.893-.044 0-.881-.402-1.86-.893L3.62 4.89l1.8-.903c.99-.496 1.814-.904 1.83-.905.017-.001.845.405 1.84.903m9.48 0 1.81.905-1.78.893c-.979.491-1.814.894-1.856.895-.074.002-3.583-1.758-3.584-1.798 0-.022 3.519-1.794 3.57-1.798.017-.001.845.405 1.84.903M4.9 6.65l1.86.93v2.51c0 1.654-.014 2.51-.04 2.51-.022 0-.868-.414-1.88-.92L3 10.76V8.24c0-1.386.009-2.52.02-2.52.011 0 .857.418 1.88.93m6.58 1.59v2.52l-1.84.92c-1.012.506-1.849.92-1.86.92-.011 0-.02-1.134-.02-2.52V7.56l1.83-.918a93.785 93.785 0 0 1 1.86-.92c.017-.001.03 1.132.03 2.518m2.92-1.6 1.84.92v2.52c0 1.386-.009 2.52-.02 2.52-.011 0-.848-.414-1.86-.92l-1.84-.92V8.24c0-1.386.009-2.52.02-2.52.011 0 .848.414 1.86.92m6.6 1.6v2.52l-1.84.92c-1.012.506-1.858.92-1.88.92-.026 0-.04-.856-.04-2.51V7.58l1.85-.928a99.268 99.268 0 0 1 1.88-.93c.017-.001.03 1.132.03 2.518m-7.18 4.29c.979.489 1.78.899 1.78.91 0 .011-.81.425-1.8.92l-1.8.899-1.8-.899c-.99-.495-1.8-.909-1.8-.92 0-.028 3.528-1.795 3.59-1.798.027-.001.851.398 1.83.888M9.64 15.2l1.84.92v2.52c0 1.386-.009 2.52-.02 2.52-.011 0-.848-.414-1.86-.92l-1.84-.92V16.8c0-1.386.009-2.52.02-2.52.011 0 .848.414 1.86.92m6.6 1.6v2.52l-1.84.92c-1.012.506-1.849.92-1.86.92-.011 0-.02-1.134-.02-2.52v-2.52l1.83-.918a97.11 97.11 0 0 1 1.86-.92c.017-.001.03 1.132.03 2.518" fill-rule="evenodd" fill="#000"/></svg>