<svg xmlns="http://www.w3.org/2000/svg" width="24" height="24" fill="none"><path d="M7.62 4.446a915.178 915.178 0 0 0-4.339 2.421c-.01.009.03.105.09.211.06.107.109.205.109.218 0 .013-.108.024-.24.024H3v10.673l4.35 2.414c2.392 1.327 4.367 2.413 4.39 2.413.022 0 .085-.085.14-.19.055-.104.111-.19.124-.19.013 0 .056.072.096.16.04.088.095.179.122.202.036.03 1.235-.618 4.414-2.384L21 17.993V7.32h-.24c-.132 0-.24-.011-.24-.024 0-.013.049-.111.109-.218.06-.106.1-.202.09-.212-.061-.058-8.684-4.826-8.727-4.825-.028.001-1.996 1.083-4.372 2.405m8.104.781c2.942 1.634 3.709 2.076 3.668 2.114-.068.062-7.345 4.099-7.389 4.099-.045 0-7.328-4.037-7.395-4.099-.041-.038.714-.474 3.66-2.113 2.042-1.135 3.717-2.065 3.724-2.066.007-.001 1.686.928 3.732 2.065M7.86 10.3c1.936 1.074 3.543 1.972 3.57 1.998.04.036.048.998.04 4.647l-.01 4.602-3.72-2.067-3.72-2.067-.01-4.63L4 8.152l.17.099c.093.054 1.754.976 3.69 2.049m12.11 7.106c-.016.016-1.623.914-3.57 1.995-1.947 1.081-3.617 2.01-3.71 2.064l-.17.099.01-4.631.01-4.631 3.72-2.067 3.72-2.066.01 4.603c.006 2.532-.003 4.617-.02 4.634" fill-rule="evenodd" fill="#000"/></svg>