<svg xmlns="http://www.w3.org/2000/svg" width="16" height="16" fill="none"><path d="M4.32.037C4.083.129.218 2.082.152 2.144-.007 2.292 0 2.165 0 4.976c0 1.89.008 2.606.031 2.682.018.06.075.143.134.197.067.06.823.453 2.156 1.119C4.09 9.858 4.391 10 4.492 10c.096 0 .228-.055.732-.306.549-.273.622-.317.686-.414a.489.489 0 0 0-.373-.767c-.114-.01-.172.003-.322.071-.1.045-.187.083-.192.083-.005 0-.01-.87-.01-1.934V4.8l1.493-.746 1.492-.747.008 1.438.007 1.437.082.102c.24.302.642.283.832-.04L9 6.12l.008-1.787c.01-1.914.005-2-.121-2.149-.051-.06-.604-.349-2.148-1.121C4.535-.039 4.526-.043 4.32.037m1.627 1.748 1.426.715-1.44.72-1.44.72-1.44-.72-1.439-.72 1.426-.715a55.997 55.997 0 0 1 1.453-.715c.015 0 .669.321 1.454.715M2.52 4.073l1.48.74v3.88l-1.493-.746L1.013 7.2V5.267c0-1.064.006-1.934.014-1.934.007 0 .679.333 1.493.74m8.84 1.951c-.037.012-.992.485-2.123 1.05-1.525.763-2.073 1.05-2.124 1.11a.598.598 0 0 0-.099.222c-.022.101-.028.853-.022 2.674L7 13.613l.059.111a.554.554 0 0 0 .134.164c.04.029 1.001.516 2.134 1.082 1.787.893 2.077 1.03 2.18 1.03.103 0 .392-.137 2.172-1.026 1.333-.666 2.089-1.059 2.156-1.119a.513.513 0 0 0 .134-.197c.023-.076.031-.792.031-2.682 0-2.818.008-2.678-.157-2.832-.047-.044-.979-.526-2.13-1.101-2.113-1.055-2.17-1.08-2.353-1.019m1.6 1.761 1.426.715-1.439.72-1.44.72-1.44-.72-1.44-.72 1.426-.715a53.336 53.336 0 0 1 1.454-.715c.014 0 .668.321 1.453.715m-1.973 4.948c0 1.064-.006 1.934-.014 1.934-.007 0-.679-.333-1.493-.74L8 13.187v-3.88l1.493.746 1.494.747v1.933m4-1.466V13.2l-1.494.747-1.493.746v-3.88l1.473-.738a98.964 98.964 0 0 1 1.494-.74c.011-.001.02.868.02 1.932" fill-rule="evenodd" fill="#000"/></svg>