<svg xmlns="http://www.w3.org/2000/svg" width="24" height="24" viewBox="0 0 24 24"><path stroke="currentColor" fill="none" stroke-linecap="square" stroke-miterlimit="10" d="m2.5 4.887 4.75 2.375M2.5 4.887l4.75-2.375L12 4.887m-9.5 0v6.176l4.75 2.374m0-6.175L12 4.887M7.25 7.262v6.176M12 4.887v6.175m0-6.176 4.75 2.375M12 4.887l4.75-2.375 4.75 2.375m-14.25 8.55L12 11.063m-4.75 2.374L12 15.813m-4.75-2.376v6.176L12 21.988m0-10.925 4.75 2.374m0-6.175 4.75-2.375m-4.75 2.375v6.176m4.75-8.55v6.175l-4.75 2.374m0 0L12 15.813m4.75-2.376v6.176L12 21.988m0-6.175v6.175"/></svg>