<svg xmlns="http://www.w3.org/2000/svg" width="24" height="24" fill="none"><path d="M11 5.58v4.419L8.253 7.674c-1.511-1.279-2.77-2.327-2.798-2.33-.028-.002-.187.157-.353.354-.241.285-.293.368-.252.406a896.38 896.38 0 0 0 3.09 2.618l3.04 2.57v.416l-3.04 2.57a896.38 896.38 0 0 0-3.09 2.618c-.041.038.011.121.252.406.166.197.325.356.353.354.028-.003 1.287-1.051 2.798-2.33L11 13.001l.01 4.979.01 4.98 4.12-2.943c2.266-1.618 4.12-2.962 4.12-2.986 0-.024-1.448-1.269-3.219-2.767-1.77-1.498-3.218-2.742-3.218-2.764 0-.022 1.469-1.282 3.264-2.8 1.795-1.518 3.253-2.772 3.239-2.787-.028-.03-8.286-4.753-8.311-4.753-.008 0-.015 1.989-.015 4.42m3.834-1.1c1.521.869 2.765 1.59 2.766 1.603 0 .013-1.03.895-2.289 1.96l-2.8 2.369-.511.433V6.859c0-2.202.015-3.98.034-3.972.019.007 1.279.724 2.8 1.593m.118 10.177 2.732 2.309-.092.07c-.255.195-5.551 3.964-5.57 3.964-.012 0-.022-1.992-.022-4.427v-4.428l.11.101c.061.056 1.339 1.141 2.842 2.411" fill-rule="evenodd" fill="#000"/></svg>