<svg xmlns="http://www.w3.org/2000/svg" width="16" height="16" fill="none"><path d="m6.98 3.556-.007 3.502-1.64-1.276A125.086 125.086 0 0 0 3.68 4.508a7.216 7.216 0 0 0-.313.391l-.299.389.14.109 1.733 1.348a72.343 72.343 0 0 1 1.592 1.256c0 .01-.779.625-1.732 1.365l-1.732 1.348.299.388c.164.214.305.389.312.39.007.001.751-.573 1.653-1.274l1.64-1.276.007 3.505c.005 2.786.014 3.503.04 3.493a470.62 470.62 0 0 0 3.013-2.099l2.98-2.086-2.4-1.866c-1.32-1.027-2.4-1.877-2.4-1.889 0-.012 1.08-.862 2.399-1.888l2.399-1.866-2.995-2.096A361.454 361.454 0 0 0 7.004.053c-.01 0-.02 1.576-.024 3.503m2.707-.414c.892.624 1.618 1.143 1.614 1.154-.004.012-.749.598-1.654 1.302L8 6.879V4.425c0-1.957.007-2.451.033-2.435.019.01.763.529 1.654 1.152m-.026 7.274a95.218 95.218 0 0 1 1.64 1.29c.007.017-3.208 2.287-3.279 2.316-.012.005-.022-1.09-.022-2.433 0-1.343.006-2.442.014-2.442s.749.571 1.647 1.269" fill-rule="evenodd" fill="#000"/></svg>