<svg xmlns="http://www.w3.org/2000/svg" width="24" height="24" fill="none"><path d="M2.96 1.062a2.885 2.885 0 0 0-1.128.577c-.3.268-.593.713-.714 1.083l-.098.298v18l.111.3c.265.72.826 1.282 1.549 1.549l.3.111h18.04l.3-.111a2.604 2.604 0 0 0 1.549-1.549l.111-.3V2.98l-.111-.3a2.537 2.537 0 0 0-1.249-1.403c-.597-.296.097-.276-9.64-.273-7.339.002-8.802.011-9.02.058m18.14 1.07c.315.147.624.455.767.764l.113.244v17.72l-.113.244a1.698 1.698 0 0 1-.767.764l-.24.112-2.08.011-2.08.011.65-.651.65-.652v-2.73l.289-.095c.712-.232 1.315-.826 1.579-1.554.097-.268.108-.355.108-.82 0-.465-.011-.552-.108-.82a2.528 2.528 0 0 0-2.888-1.62 2.843 2.843 0 0 0-1.148.579c-.3.268-.593.713-.714 1.083-.084.254-.098.372-.096.798.002.439.016.536.111.8.262.727.866 1.322 1.578 1.554l.289.095v2.33l-.85.851-.849.85H13V11.7l1.556-1.556 1.556-1.556.141.088c.077.048.273.135.434.193.261.096.349.107.813.107.465 0 .552-.011.82-.108a2.589 2.589 0 0 0 1.547-1.548c.098-.269.109-.354.109-.82 0-.465-.011-.552-.108-.82a2.53 2.53 0 0 0-1.248-1.403 2.434 2.434 0 0 0-2.24 0 2.538 2.538 0 0 0-1.262 1.445c-.084.254-.098.372-.096.798.002.438.016.537.109.793.058.161.145.357.193.434l.088.141-1.706 1.706L12 11.3V22H9v-7.66l-1-1.5-1-1.5V8.969l.289-.095c.712-.232 1.315-.826 1.579-1.554.097-.268.108-.355.108-.82 0-.465-.011-.552-.108-.82A2.528 2.528 0 0 0 5.98 4.06a2.843 2.843 0 0 0-1.148.579c-.3.268-.593.713-.714 1.083-.084.254-.098.372-.096.798.002.439.016.536.111.8.262.727.866 1.322 1.578 1.554L6 8.969v2.691l1 1.5 1 1.5v7.342l-2.43-.011-2.43-.011-.244-.113a1.698 1.698 0 0 1-.764-.767l-.112-.24V3.14l.112-.24c.198-.425.624-.775 1.042-.859.091-.018 4.108-.03 8.926-.027l8.76.006.24.112M7.119 5.143c.298.136.608.449.746.753.095.209.111.296.111.604s-.016.395-.111.604c-.14.309-.448.616-.765.764-.207.097-.29.112-.6.112s-.393-.015-.6-.112a1.675 1.675 0 0 1-.765-.764c-.095-.208-.111-.296-.111-.604-.001-.309.015-.394.11-.6.193-.422.615-.771 1.04-.861.267-.057.696-.009.945.104m11 0c.298.136.608.449.746.753.095.209.111.296.111.604s-.016.395-.111.604c-.14.309-.448.616-.765.764-.207.097-.29.112-.6.112s-.393-.015-.6-.112a1.675 1.675 0 0 1-.765-.764c-.095-.208-.111-.296-.111-.604-.001-.309.015-.394.11-.6.193-.422.615-.771 1.04-.861.267-.057.696-.009.945.104m0 9c.298.136.608.449.746.753.095.209.111.296.111.604s-.016.395-.111.604c-.14.309-.448.616-.765.764-.207.097-.29.112-.6.112s-.393-.015-.6-.112a1.675 1.675 0 0 1-.765-.764c-.095-.208-.111-.296-.111-.604-.001-.309.015-.394.11-.6.193-.422.615-.771 1.04-.861.267-.057.696-.009.945.104" fill-rule="evenodd" fill="#000"/></svg>