<svg xmlns="http://www.w3.org/2000/svg" width="16" height="16" fill="none"><path d="M1.179.041C.74.136.338.451.156.84c-.169.362-.157-.179-.15 7.229l.007 6.744.063.166c.166.445.521.795.959.946l.178.062h13.574l.178-.062c.446-.154.806-.514.96-.96l.062-.178V1.213l-.062-.178a1.573 1.573 0 0 0-.963-.962l-.175-.06-6.72-.004C2.458.005 1.319.01 1.179.041m13.506 1.001a.534.534 0 0 1 .265.257c.031.072.037 1.143.037 6.698 0 4.608-.009 6.636-.029 6.688a.624.624 0 0 1-.251.271c-.072.04-.272.045-2.04.051l-1.96.008.646-.648.647-.647.006-1.382.007-1.382.228-.073a2.299 2.299 0 0 0 1.015-.615c.335-.332.54-.695.681-1.201.072-.261.065-.898-.013-1.187a2.639 2.639 0 0 0-.632-1.116 2.487 2.487 0 0 0-2.602-.621c-1.748.598-2.26 2.821-.95 4.123.314.312.745.563 1.107.644l.14.032v2.351l-.86.86-.86.86H7.013v-2.64l-1-1.5-1-1.5V6.942l.14-.032c.507-.114 1.104-.542 1.421-1.018A2.496 2.496 0 0 0 5.31 2.143c-1.377-.472-2.846.317-3.234 1.737-.079.287-.086.923-.013 1.187.14.505.346.869.681 1.201.311.31.587.477 1.015.615l.228.073.007 1.349L4 9.654l1 1.5 1 1.499v2.362l-2.313-.008c-2.098-.006-2.321-.011-2.394-.051a.74.74 0 0 1-.25-.254c-.022-.043-.03-1.843-.03-6.702 0-7.245-.012-6.706.151-6.856a.933.933 0 0 1 .129-.1c.075-.041 13.284-.043 13.392-.002M4.88 3.053c.691.184 1.175.865 1.11 1.563-.045.482-.285.88-.691 1.146-.834.545-1.987.093-2.246-.882-.05-.19-.05-.561 0-.755a1.546 1.546 0 0 1 1.057-1.07c.187-.05.585-.051.77-.002m6.999 4.001c.507.132.935.562 1.068 1.071.05.194.05.565 0 .755-.068.255-.2.48-.4.68-.312.312-.7.459-1.134.431a1.49 1.49 0 0 1-1.246-2.16 1.53 1.53 0 0 1 .941-.777 2 2 0 0 1 .771 0" fill="currentColor" fill-rule="evenodd"/></svg>