<svg xmlns="http://www.w3.org/2000/svg" width="16" height="21" viewBox="0 0 16 21"><path fill="currentColor" fill-rule="evenodd" d="M1 1.5a.5.5 0 0 1 .5-.5h13a.5.5 0 0 1 .5.5v13a.5.5 0 0 1-.5.5h-3.793l1.147-1.146.146-.147V10.95a2.5 2.5 0 1 0-1 0v2.343l-1.354 1.353-.353.354H7v-2.651l-.084-.126L5 9.349V6.95a2.5 2.5 0 1 0-1 0v2.701l.084.126L6 12.651V15H1.5a.5.5 0 0 1-.5-.5v-13ZM6 16H1.5A1.5 1.5 0 0 1 0 14.5v-13A1.5 1.5 0 0 1 1.5 0h13A1.5 1.5 0 0 1 16 1.5v13a1.5 1.5 0 0 1-1.5 1.5H7v5H6v-5ZM4.5 3a1.5 1.5 0 1 0 0 3 1.5 1.5 0 0 0 0-3ZM10 8.5a1.5 1.5 0 1 1 3 0 1.5 1.5 0 0 1-3 0Z" clip-rule="evenodd"/></svg>