<svg xmlns="http://www.w3.org/2000/svg" width="24" height="24" fill="none" viewBox="0 0 24 24"><path stroke="currentColor" stroke-linecap="round" stroke-linejoin="round" d="M20.5 1.5h-17a2 2 0 0 0-2 2v17a2 2 0 0 0 2 2h17a2 2 0 0 0 2-2v-17a2 2 0 0 0-2-2Z"/><path stroke="currentColor" stroke-linecap="square" stroke-miterlimit="10" d="M6.5 8.5v3l2 3v8M17.5 17.5v3L16 22M16 8l-3.5 3.5v11"/><path stroke="currentColor" stroke-linecap="square" stroke-miterlimit="10" d="M17.5 17.5a2 2 0 1 0 0-4 2 2 0 0 0 0 4ZM6.5 8.5a2 2 0 1 0 0-4 2 2 0 0 0 0 4ZM17.5 8.5a2 2 0 1 0 0-4 2 2 0 0 0 0 4Z"/></svg>