<svg xmlns="http://www.w3.org/2000/svg" width="24" height="24" fill="none"><path d="M4.96 1.062a2.885 2.885 0 0 0-1.128.577c-.3.268-.593.713-.714 1.083l-.098.298v18.52l.094.3c.304.976 1.035 1.714 2.026 2.046l.28.094 8.091.011c8.949.011 8.243.032 8.411-.243.077-.126.078-.29.078-11.24 0-12.281.022-11.262-.252-11.43-.126-.076-.263-.078-8.328-.075-6.858.003-8.243.012-8.46.059M21 9.999v8l-7.77.011-7.77.01-.3.093a3.232 3.232 0 0 0-.991.514l-.17.139.01-7.813.011-7.813.112-.24c.198-.425.624-.776 1.042-.858.091-.018 3.69-.035 7.996-.038L21 2v7.999M8.252 6.078C7.99 6.238 8 6.125 8 9.008c0 2.52.003 2.617.078 2.74.163.268-.109.252 4.422.252s4.259.016 4.422-.252c.075-.124.078-.22.078-2.748s-.003-2.624-.078-2.748c-.163-.268.11-.252-4.43-.252-4.008 0-4.115.002-4.24.078M16 9v2H9V7h7v2m5 12v2h-7.632c-8.3 0-7.829.012-8.285-.219a2.323 2.323 0 0 1-.43-.316 1.99 1.99 0 0 1 .334-3.186c.486-.294-.125-.274 8.383-.277L21 19v2" fill-rule="evenodd" fill="#000"/></svg>