<svg xmlns="http://www.w3.org/2000/svg" width="24" height="24" fill="none"><path d="m6.28 2.023-.56.059c-1.304.137-2.649.625-3.49 1.267-.652.498-1.069 1.112-1.186 1.748-.031.168-.044 2.79-.044 8.88 0 8.502.002 8.645.078 8.771a.478.478 0 0 0 .67.174c.163-.1.234-.242.267-.536.041-.364.195-.644.542-.986.659-.649 1.714-1.096 3.083-1.306.641-.098 2.079-.098 2.72 0 1.369.21 2.424.657 3.083 1.306.347.342.501.622.542.986.033.294.104.436.267.536a.451.451 0 0 0 .496 0c.163-.1.234-.242.267-.536.041-.364.195-.644.542-.986.659-.649 1.714-1.096 3.083-1.306.337-.052.7-.071 1.36-.071.66 0 1.023.019 1.36.071 1.369.21 2.424.657 3.083 1.306.347.342.501.622.542.986.033.294.104.436.267.536a.478.478 0 0 0 .67-.174c.076-.126.078-.269.078-8.771 0-6.09-.013-8.712-.044-8.88-.193-1.049-1.13-1.937-2.696-2.557-.396-.157-1.247-.364-1.827-.446-.677-.095-2.184-.095-2.855-.001-1.642.231-2.998.825-3.814 1.674-.123.128-.242.232-.264.232-.022 0-.164-.125-.315-.278-.453-.458-1.098-.854-1.925-1.181-.397-.157-1.25-.365-1.806-.44-.449-.061-1.872-.111-2.174-.077M8.4 3.102c.915.138 1.745.413 2.383.789.456.268.921.72 1.081 1.049l.116.24.011 7.669.01 7.668-.33-.237c-.814-.584-1.975-1.009-3.238-1.186-.677-.095-2.184-.095-2.855-.001-.508.071-1.287.25-1.658.38-.59.207-1.286.568-1.691.876l-.23.176.01-7.672.011-7.673.116-.24c.16-.329.625-.781 1.081-1.049.782-.461 1.873-.771 3.043-.866.403-.033 1.732.015 2.14.077m11 0c.915.138 1.745.413 2.383.789.456.268.921.72 1.081 1.049l.116.24.011 7.669.01 7.668-.33-.237c-.814-.584-1.975-1.009-3.238-1.186-.677-.095-2.184-.095-2.855-.001-.508.071-1.287.25-1.658.38-.59.207-1.286.568-1.691.876l-.23.176.01-7.672.011-7.673.116-.24c.16-.329.625-.781 1.081-1.049.782-.461 1.873-.771 3.043-.866.403-.033 1.732.015 2.14.077" fill-rule="evenodd" fill="#000"/></svg>