<svg xmlns="http://www.w3.org/2000/svg" width="24" height="24" fill="none"><path d="M4.96 1.062a2.893 2.893 0 0 0-1.125.574c-.293.262-.57.672-.706 1.045l-.109.299-.01 9.82c-.007 7.819.001 9.84.041 9.919.07.138.297.281.447.281.151 0-.132.162 4.656-2.655L12 18.082l4.15 2.444c3.174 1.868 4.188 2.447 4.31 2.461a.487.487 0 0 0 .479-.264c.056-.109.061-1.107.051-9.932l-.01-9.811-.111-.3a2.537 2.537 0 0 0-1.249-1.403c-.592-.293-.12-.276-7.64-.273-5.627.002-6.804.012-7.02.058m14.14 1.07c.315.147.624.455.767.764l.113.244.011 9.234c.008 7.424 0 9.231-.04 9.215-.028-.01-1.788-1.042-3.911-2.293-3.559-2.096-3.874-2.274-4.04-2.274-.166 0-.481.178-4.04 2.274a523.397 523.397 0 0 1-3.911 2.293c-.04.016-.048-1.791-.04-9.215L4.02 3.14l.112-.24c.198-.425.623-.775 1.042-.859.091-.018 3.208-.03 6.926-.027l6.76.006.24.112" fill-rule="evenodd" fill="#000"/></svg>