<svg xmlns="http://www.w3.org/2000/svg" width="16" height="16" fill="none"><path d="M3.133.029C1.987.197 1.118 1.132 1.012 2.314c-.019.21-.025 2.228-.019 6.153.008 5.401.012 5.852.054 6.006.17.622.628 1.153 1.191 1.382.375.152.099.145 5.762.145 5.663 0 5.387.007 5.762-.145.563-.229 1.021-.76 1.191-1.382.042-.154.046-.605.054-6.006.006-3.925 0-5.943-.019-6.153-.099-1.1-.799-1.931-1.891-2.242l-.204-.059-4.8-.003c-2.64-.002-4.872.006-4.96.019m9.759 1.025a1.6 1.6 0 0 1 .942.759c.174.348.165.046.166 5.499v4.951l-.193-.088c-.379-.173.02-.162-5.807-.162s-5.428-.011-5.807.162L2 12.263V7.312c.001-5.453-.008-5.151.166-5.499.168-.335.567-.66.93-.758.223-.06 9.566-.061 9.796-.001M4.28 3.055a.445.445 0 0 0-.23.238c-.046.102-.049.24-.049 2.707 0 2.466.003 2.606.049 2.708a.479.479 0 0 0 .351.276c.189.041 7.009.041 7.198 0a.479.479 0 0 0 .351-.276c.046-.102.049-.243.049-2.702.001-2.275-.004-2.606-.04-2.693a.426.426 0 0 0-.231-.249c-.096-.049-.22-.051-3.734-.051-3.243.001-3.643.005-3.714.042M10.987 6v2H5.013V4h5.974v2m2.378 7.077c.454.187.691.619.608 1.11a1.007 1.007 0 0 1-.636.752l-.15.061H2.813l-.15-.061c-.339-.137-.578-.417-.637-.748a.986.986 0 0 1 .609-1.114l.152-.062h10.426l.152.062" fill-rule="evenodd" fill="#000"/></svg>