<svg xmlns="http://www.w3.org/2000/svg" width="16" height="16" fill="none"><path d="M3.133.029C1.987.197 1.118 1.132 1.012 2.314c-.019.21-.025 2.228-.019 6.153.008 5.401.012 5.852.054 6.006.17.622.628 1.153 1.191 1.382.375.152.099.145 5.762.145 5.663 0 5.387.007 5.762-.145.563-.229 1.021-.76 1.191-1.382.042-.154.046-.605.054-6.006.006-3.925 0-5.943-.019-6.153-.099-1.1-.799-1.931-1.891-2.242l-.204-.059-4.8-.003c-2.64-.002-4.872.006-4.96.019M4 4.287c0 2.122.01 3.307.027 3.37.016.058.074.14.144.205a.471.471 0 0 0 .468.115c.067-.02.487-.339 1.231-.935.956-.765 1.136-.899 1.17-.87.396.335 2.216 1.763 2.282 1.79a.459.459 0 0 0 .515-.104c.173-.164.163.064.163-3.55V1.013h1.368c1.507 0 1.53.002 1.843.168.221.116.513.413.623.632.174.348.165.046.166 5.499v4.951l-.193-.088c-.379-.173.02-.162-5.807-.162s-5.428-.011-5.807.162L2 12.263V7.312c.001-5.453-.008-5.151.166-5.499.11-.219.402-.516.624-.633.251-.133.404-.163.83-.165L4 1.013v3.274m4.987-.567c0 1.489-.007 2.707-.014 2.707-.008 0-.375-.29-.816-.643a42.475 42.475 0 0 0-.897-.707.53.53 0 0 0-.52 0c-.052.035-.455.353-.897.707-.441.353-.808.643-.816.643-.007 0-.014-1.218-.014-2.707V1.013h3.974V3.72m4.378 9.357c.454.187.691.619.608 1.11a1.007 1.007 0 0 1-.636.752l-.15.061H2.813l-.15-.061c-.339-.137-.578-.417-.637-.748a.986.986 0 0 1 .609-1.114l.152-.062h10.426l.152.062" fill-rule="evenodd" fill="#000"/></svg>