<svg xmlns="http://www.w3.org/2000/svg" width="16" height="16" fill="none"><path d="M3.573 1.031c-.825.083-1.456.249-2.044.539-.514.253-.836.495-1.105.826-.194.24-.304.452-.372.718C.001 3.31 0 3.468.001 8.958c0 5.428.002 5.646.049 5.749a.65.65 0 0 0 .119.17c.068.063.309.143.372.124a2.71 2.71 0 0 1 .105-.026c.087-.019.249-.156.299-.252.02-.038.048-.149.063-.246s.054-.228.086-.292c.243-.475 1.082-.917 2.079-1.096.39-.07 1.325-.097 1.761-.051.645.067 1.187.218 1.657.459.593.304.855.592.905.991.028.226.097.343.254.435a.474.474 0 0 0 .5 0c.157-.092.226-.209.254-.435.05-.399.312-.687.905-.991.47-.241 1.012-.392 1.657-.459.436-.046 1.371-.019 1.761.051.997.179 1.836.621 2.079 1.096.032.064.071.195.086.292.015.097.043.208.063.246.05.096.212.233.299.252l.105.026c.063.019.304-.061.372-.124a.65.65 0 0 0 .119-.17c.047-.103.049-.321.049-5.749.001-5.49 0-5.648-.051-5.844-.163-.638-.656-1.147-1.508-1.556-.758-.364-1.439-.512-2.471-.537-.853-.021-1.44.042-2.089.223-.68.19-1.378.558-1.74.918L8 2.301l-.14-.139c-.169-.168-.54-.421-.832-.568-.575-.289-1.271-.481-2.011-.554a15.186 15.186 0 0 0-1.444-.009m1.614 1.036c.695.108 1.305.326 1.736.62.329.224.57.559.57.794 0 .142.095.323.223.424.091.073.121.082.284.082.163 0 .193-.009.284-.082a.6.6 0 0 0 .223-.426c0-.237.236-.565.57-.792.313-.214.849-.436 1.296-.539.991-.226 2.293-.177 3.181.12.526.176 1.046.494 1.252.766.197.258.181-.194.181 5.071v4.747l-.164-.096c-.806-.473-1.681-.704-2.823-.747-1.548-.057-3.001.368-3.833 1.124l-.166.15-.202-.176C6.94 12.358 5.536 11.952 4 12.009c-1.142.043-2.017.274-2.823.747l-.164.096V8.105c0-5.246-.015-4.808.174-5.065.196-.267.732-.596 1.259-.772a6.346 6.346 0 0 1 1.169-.239c.358-.035 1.244-.013 1.572.038" fill-rule="evenodd" fill="#000"/></svg>