<svg xmlns="http://www.w3.org/2000/svg" width="24" height="24" fill="none"><path d="M4.96 1.062a2.885 2.885 0 0 0-1.128.577c-.3.268-.593.713-.714 1.083l-.098.298v19l.111.3c.265.72.826 1.282 1.549 1.549l.3.111h15.04l.3-.111a2.604 2.604 0 0 0 1.549-1.549l.111-.3V2.98l-.111-.3a2.537 2.537 0 0 0-1.249-1.403c-.593-.294-.066-.276-8.14-.273-6.055.002-7.303.012-7.52.058M7 5.802c0 4.197-.015 3.957.252 4.12a.454.454 0 0 0 .479.012c.07-.036.717-.459 1.437-.94A55.988 55.988 0 0 1 10.5 8.12c.011 0 .611.393 1.332.874.72.481 1.367.904 1.437.94a.481.481 0 0 0 .653-.186c.076-.125.078-.23.078-3.939V1.997l2.93.012 2.93.011.24.112c.315.147.624.455.767.764l.113.244v14.68l-.096.24c-.132.328-.496.692-.824.824l-.24.096-7.42.02-7.42.02-.26.089a3.138 3.138 0 0 0-.491.229l-.23.14.01-8.169.011-8.169.112-.24c.198-.425.624-.776 1.042-.858.091-.018.54-.035.996-.038L7 2v3.802m6-.517v3.284l-.11-.071-1.155-.768c-.781-.52-1.085-.702-1.202-.717-.15-.02-.209.013-1.295.735-.626.416-1.16.77-1.188.787-.04.024-.05-.637-.05-3.253V2h5v3.285m7.993 15.575c-.014.999-.014 1-.126 1.244a1.698 1.698 0 0 1-.767.764l-.24.112H5.14l-.24-.112a1.675 1.675 0 0 1-.765-.764c-.148-.327-.154-.802-.015-1.164.127-.327.488-.69.82-.824l.24-.096L12.6 20l7.42-.02.26-.089c.143-.049.359-.15.48-.223l.22-.134.013.163c.007.09.007.613 0 1.163" fill-rule="evenodd" fill="#000"/></svg>