<svg xmlns="http://www.w3.org/2000/svg" width="16" height="16" fill="none"><path d="M3.666.028c-.739.126-1.34.654-1.59 1.399l-.063.186-.007 6.96c-.005 3.828-.001 7 .008 7.049.019.107.181.293.298.342a.495.495 0 0 0 .365-.001c.048-.02 1.257-.887 2.685-1.926C6.79 12.999 7.977 12.149 8 12.149c.023 0 1.211.851 2.641 1.891 1.429 1.04 2.647 1.908 2.706 1.929.17.062.34.024.482-.108a.485.485 0 0 0 .145-.208c.018-.068.024-2.401.02-7.07l-.007-6.97-.063-.186a2.078 2.078 0 0 0-1.35-1.346L12.36.013 8.08.01C5.726.007 3.74.016 3.666.028" fill="currentColor" fill-rule="evenodd"/></svg>