<svg xmlns="http://www.w3.org/2000/svg" width="16" height="16" fill="currentColor" viewBox="0 0 16 16">
  <path fill-rule="evenodd" d="M1.363 1.644C2.128 1.237 3.15 1 4.25 1c1.1 0 2.122.237 2.887.644.325.174.627.392.863.653.236-.26.538-.48.863-.653C9.628 1.237 10.65 1 11.75 1c1.1 0 2.123.237 2.887.644C15.38 2.041 16 2.673 16 3.5v11h-1c0-.278-.22-.646-.834-.973C13.573 13.21 12.72 13 11.75 13s-1.824.21-2.416.527c-.615.327-.834.695-.834.973h-1c0-.278-.22-.646-.834-.973C6.074 13.21 5.22 13 4.25 13s-1.824.21-2.416.527c-.615.327-.834.695-.834.973H0v-11c0-.827.62-1.46 1.363-1.856ZM1 12.864c.116-.08.238-.153.363-.22C2.128 12.237 3.15 12 4.25 12c1.1 0 2.122.237 2.887.644a3.2 3.2 0 0 1 .863.653 3.2 3.2 0 0 1 .863-.653C9.628 12.237 10.65 12 11.75 12c1.1 0 2.123.237 2.887.644.125.067.247.14.363.22V3.5c0-.278-.22-.646-.834-.973C13.573 2.21 12.72 2 11.75 2s-1.824.21-2.416.527c-.615.327-.834.695-.834.973h-1c0-.278-.22-.646-.834-.973C6.074 2.21 5.22 2 4.25 2s-1.824.21-2.416.527C1.219 2.854 1 3.222 1 3.5v9.365Z" clip-rule="evenodd"/>
</svg>
