<svg xmlns="http://www.w3.org/2000/svg" width="24" height="24" fill="none" viewBox="0 0 24 24">
  <path stroke="currentColor" stroke-linecap="round" stroke-linejoin="round" d="M13.5 1.5v8l-3-2-3 2v-8"/>
  <path stroke="currentColor" stroke-linecap="round" stroke-linejoin="round" d="M5.5 1.5a2 2 0 0 0-2 2v18a2 2 0 0 1 2-2h14a2 2 0 0 0 2-2v-14a2 2 0 0 0-2-2h-14Z"/>
  <path stroke="currentColor" stroke-linecap="round" stroke-linejoin="round" d="M19.5 23.5a2 2 0 0 0 2-2v-4a2 2 0 0 1-2 2h-14a2 2 0 1 0 0 4h14Z"/>
</svg>
