<svg xmlns="http://www.w3.org/2000/svg" width="16" height="16" fill="none"><path d="M3.666.028c-.739.126-1.34.654-1.59 1.399l-.063.186-.007 6.96c-.005 3.828-.001 7 .008 7.049.019.107.181.293.298.342a.495.495 0 0 0 .365-.001c.048-.02 1.257-.887 2.685-1.926C6.79 12.999 7.977 12.149 8 12.149c.023 0 1.211.851 2.641 1.891 1.429 1.04 2.647 1.908 2.706 1.929.17.062.34.024.482-.108a.485.485 0 0 0 .145-.208c.018-.068.024-2.401.02-7.07l-.007-6.97-.063-.186a2.078 2.078 0 0 0-1.35-1.346L12.36.013 8.08.01C5.726.007 3.74.016 3.666.028m8.747 1.064c.186.091.39.292.482.474l.078.154.007 6.397c.006 5.137 0 6.391-.026 6.37a603.58 603.58 0 0 0-4.741-3.434.612.612 0 0 0-.426 0c-.059.031-4.59 3.312-4.74 3.433-.027.022-.033-1.238-.027-6.369l.007-6.397.065-.133a1.13 1.13 0 0 1 .585-.535c.079-.029.859-.034 4.35-.03l4.253.005.133.065" fill-rule="evenodd" fill="#000"/></svg>