<svg xmlns="http://www.w3.org/2000/svg" width="16" height="16" fill="none"><path d="M.28 1.055a.445.445 0 0 0-.23.238C.004 1.393.001 1.504.001 3c0 1.495.003 1.607.049 1.708a.479.479 0 0 0 .351.276c.191.041 15.007.041 15.198 0a.479.479 0 0 0 .351-.276c.046-.101.049-.213.049-1.702.001-1.375-.005-1.608-.04-1.693a.426.426 0 0 0-.231-.249c-.097-.049-.295-.051-7.734-.051-6.871.001-7.642.005-7.714.042M14.987 3v1H1.013V2h13.974v1M1.292 6.048a.487.487 0 0 0-.277.358c-.021.099-.027 1.342-.022 4.181.006 3.743.01 4.046.052 4.122.059.107.216.245.309.271.095.026 13.197.026 13.292 0 .093-.026.25-.164.309-.271.042-.076.046-.379.052-4.122.005-2.863-.001-4.082-.022-4.182a.497.497 0 0 0-.908-.168l-.064.092-.007 3.836L13.999 14H2.001l-.007-3.838c-.007-3.831-.007-3.838-.062-3.912-.169-.225-.42-.305-.64-.202m3.974 1.015a.637.637 0 0 0-.246.292c-.026.094-.026 3.197 0 3.291.026.093.164.25.271.309.076.041.288.045 2.709.045 2.421 0 2.633-.004 2.709-.045.107-.059.245-.216.271-.309.026-.095.026-3.197 0-3.292a.673.673 0 0 0-.263-.302c-.063-.033-.462-.039-2.722-.039-2.533.001-2.652.003-2.729.05M10 9v1H6V8h4v1" fill-rule="evenodd" fill="#000"/></svg>