<svg xmlns="http://www.w3.org/2000/svg" width="24" height="24" fill="none"><path d="M1.252 2.078C.99 2.238 1 2.125 1 5.008c0 2.52.003 2.617.078 2.74C1.246 8.022.28 8 12.008 8c10.455 0 10.614-.001 10.74-.078C23.01 7.762 23 7.874 23 5s.01-2.762-.252-2.922C22.622 2.001 22.463 2 12 2s-10.622.001-10.748.078M22 5v2H2V3h20v2M2.252 10.078c-.27.165-.252-.268-.252 5.93 0 5.495.002 5.615.078 5.74.167.274-.692.252 9.93.252 9.463 0 9.614-.002 9.74-.078.27-.165.252.267.252-5.922s.018-5.757-.252-5.922a.451.451 0 0 0-.496 0c-.27.165-.252-.235-.252 5.62V21H3v-5.31c0-5.196-.002-5.313-.078-5.438a.478.478 0 0 0-.67-.174m6 1c-.258.158-.252.099-.252 2.43 0 2.024.004 2.117.078 2.24.163.266-.056.252 3.922.252s3.759.014 3.922-.252c.074-.123.078-.216.078-2.248s-.004-2.125-.078-2.248c-.163-.266.057-.252-3.93-.252-3.512 0-3.616.002-3.74.078M15 13.5V15H9v-3h6v1.5" fill-rule="evenodd" fill="#000"/></svg>