<svg xmlns="http://www.w3.org/2000/svg" width="16" height="16" fill="none"><path d="M3.669.026c-.45.082-.898.341-1.2.694a1.988 1.988 0 0 0-.313 2.047c.191.471.606.886 1.077 1.077.76.309 1.601.142 2.177-.434A1.987 1.987 0 0 0 5.497.68a2.265 2.265 0 0 0-.993-.615 2.892 2.892 0 0 0-.835-.039m8 0c-.45.082-.898.341-1.2.694a1.988 1.988 0 0 0-.313 2.047c.191.471.606.886 1.077 1.077.76.309 1.601.142 2.177-.434a1.987 1.987 0 0 0 .087-2.73 2.265 2.265 0 0 0-.993-.615 2.892 2.892 0 0 0-.835-.039M4.431 1.101c.177.087.402.316.484.492.048.105.058.175.058.407 0 .251-.007.295-.072.428a1.019 1.019 0 0 1-1.053.558 1.039 1.039 0 0 1-.747-.556 1.157 1.157 0 0 1-.051-.729c.08-.274.335-.541.612-.64.211-.075.572-.056.769.04m8 0c.177.087.402.316.484.492.048.105.058.175.058.407 0 .251-.007.295-.072.428a1.019 1.019 0 0 1-1.053.558 1.039 1.039 0 0 1-.747-.556 1.157 1.157 0 0 1-.051-.729c.08-.274.335-.541.612-.64.211-.075.572-.056.769.04m-.762 4.925c-.45.082-.898.341-1.2.694a1.988 1.988 0 0 0-.313 2.047c.191.471.606.886 1.077 1.077.76.309 1.601.142 2.177-.434a1.987 1.987 0 0 0 .087-2.73 2.265 2.265 0 0 0-.993-.615 2.892 2.892 0 0 0-.835-.039m-7.976.506A1.503 1.503 0 0 0 2.507 8c0 .41.146.759.44 1.053a1.469 1.469 0 0 0 2.106 0 1.488 1.488 0 0 0-.539-2.457 1.923 1.923 0 0 0-.821-.064m8.738.569c.177.087.402.316.484.492.048.105.058.175.058.407 0 .251-.007.295-.072.428a1.019 1.019 0 0 1-1.053.558 1.039 1.039 0 0 1-.747-.556 1.157 1.157 0 0 1-.051-.729c.08-.274.335-.541.612-.64.211-.075.572-.056.769.04m-8.161.486a.46.46 0 0 1 .219.418c0 .13-.013.175-.078.268A.456.456 0 0 1 4 8.492a.456.456 0 0 1-.411-.219c-.065-.093-.078-.138-.078-.268 0-.404.422-.636.759-.418m-.601 4.439c-.45.082-.898.341-1.2.694a1.988 1.988 0 0 0-.313 2.047c.191.471.606.886 1.077 1.077.76.309 1.601.142 2.177-.434a1.987 1.987 0 0 0 .087-2.73 2.265 2.265 0 0 0-.993-.615 2.892 2.892 0 0 0-.835-.039m8.024.506c-.969.21-1.466 1.262-1.019 2.161.115.232.401.518.633.633.606.301 1.277.197 1.746-.273a1.488 1.488 0 0 0-.539-2.457 1.923 1.923 0 0 0-.821-.064m-7.262.569c.177.087.402.316.484.492.048.105.058.175.058.407 0 .251-.007.295-.072.428a1.019 1.019 0 0 1-1.053.558 1.039 1.039 0 0 1-.747-.556 1.157 1.157 0 0 1-.051-.729c.08-.274.335-.541.612-.64.211-.075.572-.056.769.04m7.839.486a.46.46 0 0 1 .219.418c0 .13-.013.175-.078.268a.456.456 0 0 1-.411.219.456.456 0 0 1-.411-.219c-.065-.093-.078-.138-.078-.268 0-.404.422-.636.759-.418" fill="currentColor" fill-rule="evenodd"/></svg>