<svg xmlns="http://www.w3.org/2000/svg" width="24" height="24" fill="none"><path d="m6.1 1.022-.3.062c-.298.06-.828.311-1.109.528a3.02 3.02 0 0 0-1.115 1.699c-.082.349-.082 1.029 0 1.378a3.117 3.117 0 0 0 1.325 1.853c.95.608 2.248.608 3.198 0a3.117 3.117 0 0 0 1.325-1.853c.082-.349.082-1.029 0-1.378-.243-1.043-1.102-1.926-2.153-2.216-.21-.058-1.019-.108-1.171-.073m12 0-.3.062c-.298.06-.828.311-1.109.528a3.02 3.02 0 0 0-1.115 1.699c-.082.349-.082 1.029 0 1.378a3.117 3.117 0 0 0 1.325 1.853c.95.608 2.248.608 3.198 0a3.117 3.117 0 0 0 1.325-1.853c.082-.349.082-1.029 0-1.378-.243-1.043-1.102-1.926-2.153-2.216-.21-.058-1.019-.108-1.171-.073M6.885 2.04c.488.091 1.038.469 1.315.906.378.596.377 1.513-.002 2.111-.676 1.065-2.164 1.26-3.058.402C4.709 5.044 4.52 4.6 4.52 4c0-.792.398-1.437 1.098-1.783a1.923 1.923 0 0 1 1.267-.177m12 0c.488.091 1.038.469 1.315.906.378.596.377 1.513-.002 2.111-.676 1.065-2.164 1.26-3.058.402-.431-.415-.62-.859-.62-1.459 0-.792.398-1.437 1.098-1.783a1.923 1.923 0 0 1 1.267-.177M18.1 9.022l-.3.062c-.298.06-.828.311-1.109.528a3.02 3.02 0 0 0-1.115 1.699c-.082.349-.082 1.029 0 1.378a3.117 3.117 0 0 0 1.325 1.853c.95.608 2.248.608 3.198 0a3.117 3.117 0 0 0 1.325-1.853c.082-.349.082-1.029 0-1.378-.243-1.043-1.102-1.926-2.153-2.216-.21-.058-1.019-.108-1.171-.073M6.08 10.044c-.312.06-.736.298-.998.56-.947.947-.688 2.565.508 3.177a2 2 0 0 0 2.27-.322c.429-.413.627-.873.627-1.459 0-.781-.41-1.441-1.105-1.782a1.991 1.991 0 0 0-1.302-.174m12.805-.004c.488.091 1.038.469 1.315.906.378.596.377 1.513-.002 2.111-.676 1.065-2.164 1.26-3.058.402-.431-.415-.62-.859-.62-1.459 0-.792.398-1.437 1.098-1.783a1.923 1.923 0 0 1 1.267-.177M6.947 11.113c.186.095.399.323.478.513.03.072.055.241.055.374 0 .286-.061.45-.245.659a.966.966 0 0 1-1.135.246c-.386-.183-.58-.486-.58-.905 0-.466.259-.814.72-.965.159-.052.531-.011.707.078m-1.139 6.468c-.933.203-1.839 1.02-2.14 1.929-.448 1.356.056 2.772 1.265 3.55.889.572 2.245.572 3.134 0 1.208-.778 1.713-2.194 1.265-3.549-.304-.92-1.21-1.731-2.158-1.932-.34-.072-1.031-.071-1.366.002m1.525 1.109c.427.203.774.55.977.977.149.312.15.315.15.833 0 .514-.002.523-.143.82-.36.752-1.007 1.168-1.817 1.168s-1.457-.416-1.817-1.168c-.141-.297-.143-.306-.143-.82 0-.518.001-.521.15-.833a2.13 2.13 0 0 1 1.25-1.093c.104-.034.322-.049.62-.043.439.009.474.016.773.159m10.607-.116c-.451.149-.898.489-1.14.867-.388.604-.39 1.512-.003 2.114a1.99 1.99 0 0 0 1.703.937c.552 0 .969-.166 1.369-.544.43-.407.619-.848.619-1.448 0-.81-.417-1.457-1.168-1.816-.284-.136-.324-.144-.76-.153-.298-.006-.516.009-.62.043m1.083 1.088c.283.174.431.432.451.784.013.237 0 .305-.095.499-.349.713-1.379.724-1.748.018a.98.98 0 0 1 .418-1.341c.181-.092.251-.105.495-.094.232.011.319.035.479.134" fill-rule="evenodd" fill="#000"/></svg>