<svg xmlns="http://www.w3.org/2000/svg" width="24" height="24" fill="none"><path d="M8.252 1.078C7.997 1.234 8 1.209 8 3.198V5H4.698c-3.645 0-3.458-.013-3.62.252C1.002 5.377 1 5.496 1 11c0 5.504.002 5.623.078 5.748.164.268-.13.252 4.62.252H10v.81c0 .733.008.822.078.938.158.258.1.252 2.422.252s2.264.006 2.422-.252c.07-.116.078-.205.078-.938V17h4.31c4.204 0 4.313-.002 4.438-.078.27-.165.252.267.252-5.922s.018-5.757-.252-5.922C23.624 5.003 23.522 5 20.31 5H17V3.19c0-1.725-.004-1.816-.078-1.938-.163-.268.11-.252-4.43-.252-4.008 0-4.115.002-4.24.078M16 3.5V5H9V2h7v1.5M6 11v5H2V6h4v5m12 0v5h-3v-.802c0-.891-.02-.978-.252-1.12-.123-.074-.216-.078-2.248-.078s-2.125.004-2.248.078c-.232.142-.252.229-.252 1.12V16H7V6h11v5m5 0v5h-4V6h4v5m-9 5.5V18h-3v-3h3v1.5M2.252 19.078c-.258.158-.252.099-.252 2.43 0 2.024.004 2.117.078 2.24.167.274-.745.252 10.43.252 9.959 0 10.114-.001 10.24-.078.258-.158.252-.1.252-2.422s.006-2.264-.252-2.422a.488.488 0 0 0-.686.198c-.053.103-.062.373-.062 1.922V23h-3v-1.802c0-1.989.003-1.964-.252-2.12a.451.451 0 0 0-.496 0c-.255.156-.252.131-.252 2.12V23H7v-1.802c0-1.989.003-1.964-.252-2.12a.488.488 0 0 0-.686.198c-.053.103-.062.373-.062 1.922V23H3v-1.81c0-1.725-.004-1.816-.078-1.938a.478.478 0 0 0-.67-.174" fill-rule="evenodd" fill="#000"/></svg>