<svg xmlns="http://www.w3.org/2000/svg" width="16" height="16" fill="none"><path d="M5.292.05a.479.479 0 0 0-.276.351c-.019.086-.029.581-.029 1.374v1.238H3.126c-1.585 0-1.885.006-2.018.041a1.55 1.55 0 0 0-1.023.936l-.072.183-.008 2.68c-.004 1.474 0 2.72.009 2.769.019.107.181.293.298.342.071.029.599.036 2.887.036H6v.798c0 .498.011.827.028.874a.66.66 0 0 0 .284.291c.127.055 3.249.055 3.376 0a.66.66 0 0 0 .284-.291c.017-.047.028-.376.028-.874V10h2.801c2.288 0 2.816-.007 2.887-.036.117-.049.279-.235.298-.342.009-.049.013-1.295.009-2.769l-.008-2.68-.072-.183a1.55 1.55 0 0 0-1.023-.936c-.133-.035-.433-.041-2.018-.041h-1.861V1.775c0-.793-.01-1.288-.029-1.374a.479.479 0 0 0-.276-.351C10.606.004 10.466.001 8 .001S5.394.004 5.292.05M10 2.013v1H6v-2h4v1m4.687 2.028a.426.426 0 0 1 .249.231c.049.095.051.195.051 2.42v2.321H10v-.801c0-.66-.007-.818-.041-.899a.43.43 0 0 0-.232-.25c-.096-.049-.17-.051-1.763-.044l-1.662.008-.1.077c-.193.146-.201.191-.201 1.103L6 9.013H1.012l.008-2.355.007-2.356.077-.1a.571.571 0 0 1 .186-.151c.106-.048.321-.05 6.704-.05 5.875-.001 6.605.003 6.693.04m-5.7 5.466v1.506H7.013V8h1.974v1.507m-7.721 1.556a.637.637 0 0 0-.246.292c-.011.04-.02.594-.02 1.232 0 1.123.002 1.166.059 1.347.133.423.502.818.906.972.074.028.235.064.358.08.158.021 1.88.027 5.824.022 5.275-.008 5.609-.011 5.758-.056.5-.15.911-.567 1.048-1.061.042-.152.047-.305.047-1.344 0-1.306.007-1.253-.186-1.423-.115-.101-.186-.121-.373-.105a.412.412 0 0 0-.239.084c-.192.147-.187.112-.202 1.408l-.013 1.164-.082.101a1.202 1.202 0 0 1-.155.156l-.074.055H2.324l-.074-.055a1.202 1.202 0 0 1-.155-.156l-.082-.101L2 12.511c-.014-1.244-.015-1.249-.151-1.368-.154-.135-.431-.173-.583-.08" fill-rule="evenodd" fill="#000"/></svg>