<svg xmlns="http://www.w3.org/2000/svg" width="16" height="16" fill="currentColor">
  <path fill-rule="evenodd" d="M8 .998A2 2 0 0 0 6.166 2.2l-.2.458-.916-.4.2-.458a3 3 0 0 1 5.5 0l.2.459-.917.4-.2-.46A2 2 0 0 0 8 1ZM1 3v.5A2.5 2.5 0 0 0 3.417 6a5.001 5.001 0 0 1 9.166 0A2.5 2.5 0 0 0 15 3.5V3h1v.5a3.5 3.5 0 0 1-3.105 3.478c.069.33.105.672.105 1.022v1h3v1h-3v1c0 .35-.036.692-.105 1.022A3.5 3.5 0 0 1 16 15.5v.5h-1v-.5a2.5 2.5 0 0 0-2.417-2.499 5.001 5.001 0 0 1-9.166 0A2.5 2.5 0 0 0 1 15.5v.5H0v-.5a3.5 3.5 0 0 1 3.105-3.478A5.021 5.021 0 0 1 3 11v-1H0V9h3V8c0-.35.036-.692.105-1.022A3.5 3.5 0 0 1 0 3.5V3h1Zm3 8a4 4 0 1 0 8 0V8a4 4 0 0 0-8 0v3Z" clip-rule="evenodd"/>
</svg>
