<svg xmlns="http://www.w3.org/2000/svg" width="16" height="16" fill="none"><path d="M7.572.029c-.404.053-.897.247-1.286.508-.239.16-.653.587-.803.829-.142.229-.425.836-.41.88.005.016.209.115.452.221l.442.193.128-.294c.261-.596.532-.903 1.016-1.15a2.02 2.02 0 0 1 1.778 0c.484.247.755.554 1.016 1.15l.128.294.442-.193c.243-.106.447-.205.452-.221.015-.044-.268-.651-.407-.874a3.257 3.257 0 0 0-.75-.79A3.033 3.033 0 0 0 7.572.029M.008 3.5c.015.524.048.728.184 1.127a3.497 3.497 0 0 0 2.726 2.321.45.45 0 0 1 .162.039c.007.011-.006.139-.028.283a9.527 9.527 0 0 0-.057 1.003l-.016.74H0V10h2.979l.017.753c.01.415.029.82.042.9l.043.259.019.111-.104.017c-1.022.166-1.871.71-2.428 1.555C.184 14.179 0 14.837 0 15.626V16H1.007l.014-.487c.015-.526.037-.641.189-1.003.341-.807 1.167-1.415 2.023-1.487l.197-.017.061.144c.247.584.9 1.388 1.482 1.826a5.043 5.043 0 0 0 1.814.873c.445.112.664.136 1.213.136s.768-.024 1.213-.136c1.265-.316 2.354-1.121 3.061-2.262a4.15 4.15 0 0 0 .223-.41l.073-.171.197.017c.856.072 1.682.68 2.023 1.487.152.362.174.477.189 1.003l.014.487H16v-.38a3.628 3.628 0 0 0-.16-1.144c-.404-1.301-1.467-2.214-2.836-2.436l-.104-.017.019-.111.044-.272c.014-.088.033-.493.042-.9l.016-.74H16v-.987h-2.979l-.016-.74a9.527 9.527 0 0 0-.057-1.003 1.496 1.496 0 0 1-.028-.283.45.45 0 0 1 .162-.039c.326-.041.871-.239 1.196-.434a3.582 3.582 0 0 0 1.531-1.887c.135-.401.168-.603.183-1.127l.015-.487h-1.014l-.013.474c-.011.415-.021.502-.084.713a2.546 2.546 0 0 1-1.357 1.574c-.198.09-.562.19-.771.213l-.178.019-.111-.221a4.868 4.868 0 0 0-.949-1.314 5.088 5.088 0 0 0-2.37-1.335c-.66-.164-1.66-.164-2.32 0a5.052 5.052 0 0 0-3.319 2.649l-.111.221-.178-.019a3.172 3.172 0 0 1-.771-.213A2.54 2.54 0 0 1 1.104 4.2c-.063-.211-.073-.298-.084-.713l-.013-.474H-.007l.015.487m8.368.526a3.993 3.993 0 0 1 3.405 2.681c.207.606.225.872.211 3.014-.009 1.474-.018 1.794-.054 1.972a4.19 4.19 0 0 1-.762 1.734 5.087 5.087 0 0 1-.849.821c-.759.54-1.69.802-2.614.736a4.04 4.04 0 0 1-2.04-.736 4.87 4.87 0 0 1-.878-.861 4.027 4.027 0 0 1-.766-1.985c-.036-.359-.038-3.414-.003-3.778a3.89 3.89 0 0 1 1.128-2.421 3.944 3.944 0 0 1 3.222-1.177" fill-rule="evenodd" fill="#000"/></svg>