<svg xmlns="http://www.w3.org/2000/svg" width="16" height="17" fill="none" viewBox="0 0 16 17"><path stroke="currentColor" fill="none" stroke-linecap="round" stroke-linejoin="round" d="M.5 10.5h3M5.708 3a2.5 2.5 0 0 1 4.584 0M3.756 7.5H3.5a3 3 0 0 1-3-3v0M3.756 13.5H3.5a3 3 0 0 0-3 3v0M15.5 10.5h-3M12.244 7.5h.256a3 3 0 0 0 3-3v0M12.244 13.5h.256a3 3 0 0 1 3 3v0"/><path stroke="currentColor" fill="none" stroke-linecap="round" stroke-linejoin="round" d="M12.5 9a4.5 4.5 0 1 0-9 0v3a4.5 4.5 0 1 0 9 0V9Z"/></svg>