<svg xmlns="http://www.w3.org/2000/svg" width="24" height="24" fill="none" viewBox="0 0 24 24">
  <path stroke="currentColor" stroke-linecap="round" stroke-linejoin="round" d="M5.79 10.5H4.5a3 3 0 0 1-3-3v-1M5.79 18.5H4.5a3 3 0 0 0-3 3v1M8.5 6.755V5.5a4 4 0 0 1 4-4v0a4 4 0 0 1 4 4v1.255M5.5 14.5h-4M19.21 10.5h1.29a3 3 0 0 0 3-3v-1M19.21 18.5h1.29a3 3 0 0 1 3 3v1M19.5 14.5h4"/>
  <path stroke="currentColor" stroke-linecap="round" stroke-linejoin="round" d="M19.5 16.5a7 7 0 1 1-14 0v-4a7 7 0 0 1 14 0v4Z"/>
</svg>
