<svg xmlns="http://www.w3.org/2000/svg" width="24" height="24" fill="none"><path d="M11.9 1.045c-1.214.152-2.438.911-3.118 1.935C8.205 3.847 8 4.593 8 5.82v.69l-.21.16c-.555.421-1.308 1.292-1.739 2.01-.187.312-.52 1.009-.59 1.234l-.029.095-.726-.018c-.662-.015-.752-.026-1.026-.124A2.523 2.523 0 0 1 2.277 8.62c-.222-.448-.275-.751-.276-1.552-.001-.749-.027-.852-.253-.99a.451.451 0 0 0-.496 0c-.245.15-.263.236-.242 1.178.017.768.028.876.125 1.196.362 1.201 1.217 2.056 2.413 2.412.291.087.459.108.975.126l.623.02-.055.285c-.037.185-.064.711-.078 1.495L4.991 14H3.185c-1.72 0-1.811.004-1.933.078a.478.478 0 0 0-.174.67c.156.255.132.252 2.115.252h1.798l.022 1.21c.014.784.041 1.31.078 1.495l.055.285-.603.021c-.666.023-1.021.096-1.481.305-.94.426-1.62 1.214-1.927 2.232-.097.32-.108.428-.125 1.196-.021.942-.003 1.028.242 1.178a.478.478 0 0 0 .67-.174c.069-.114.078-.205.079-.808.001-.816.054-1.11.284-1.578a2.39 2.39 0 0 1 1.077-1.077c.452-.223.769-.283 1.485-.284.575-.001.588.001.616.089.068.221.403.92.588 1.23a7.613 7.613 0 0 0 5.135 3.567c.684.13 1.944.13 2.628 0 2.442-.461 4.49-2.054 5.502-4.279.106-.236.206-.469.222-.518.027-.088.04-.09.615-.089.716.001 1.033.061 1.485.284.465.23.847.612 1.077 1.077.23.468.283.762.284 1.578.001.603.01.694.079.808.2.328.644.328.844 0 .069-.114.078-.204.078-.828a9.2 9.2 0 0 0-.041-.951 3.538 3.538 0 0 0-1.941-2.612c-.497-.241-.861-.322-1.561-.346l-.603-.021.055-.285c.037-.185.064-.711.078-1.495l.022-1.21h1.806c1.72 0 1.811-.004 1.933-.078a.478.478 0 0 0 .174-.67c-.156-.255-.132-.252-2.115-.252h-1.798l-.022-1.21c-.014-.794-.041-1.31-.078-1.5l-.057-.29h.464c.539-.001.847-.044 1.275-.18 1.013-.322 1.907-1.216 2.229-2.229.146-.459.179-.739.18-1.503 0-.771-.025-.871-.252-1.01a.451.451 0 0 0-.496 0c-.226.138-.252.241-.253.99-.001.801-.054 1.104-.276 1.552a2.523 2.523 0 0 1-1.403 1.247c-.274.098-.364.109-1.026.124l-.726.018-.029-.095c-.07-.225-.403-.922-.59-1.234-.431-.718-1.184-1.589-1.739-2.01L17 6.51v-.69c0-.777-.059-1.206-.241-1.749-.682-2.037-2.703-3.295-4.859-3.026m1.48 1.072a3.598 3.598 0 0 1 2.036 1.459c.361.545.537 1.107.573 1.837l.023.474-.331-.167c-.719-.361-1.644-.605-2.608-.688-1.247-.106-2.704.161-3.754.688l-.331.167.023-.474c.038-.753.213-1.299.607-1.885a3.606 3.606 0 0 1 1.776-1.347 3.781 3.781 0 0 1 1.986-.064m-.28 3.925a6.023 6.023 0 0 1 2.08.549 6.479 6.479 0 0 1 3.557 4.12c.237.829.243.929.243 3.789 0 2.86-.006 2.96-.243 3.789-.686 2.398-2.647 4.155-5.157 4.621-.495.092-1.665.092-2.16 0-2.514-.466-4.471-2.222-5.158-4.626-.235-.824-.242-.927-.242-3.784 0-2.857.007-2.96.242-3.784A6.47 6.47 0 0 1 13.1 6.042" fill-rule="evenodd" fill="#000"/></svg>