<svg xmlns="http://www.w3.org/2000/svg" width="16" height="16" fill="none"><path d="M1.666.027A2.034 2.034 0 0 0 .076 1.44c-.09.289-.09.831 0 1.12A2.06 2.06 0 0 0 1.44 3.924c.289.09.831.09 1.12 0A2.06 2.06 0 0 0 3.924 2.56c.09-.289.09-.831 0-1.12A2.038 2.038 0 0 0 2.574.086c-.241-.07-.686-.099-.908-.059m.769 1.078c.181.092.383.297.473.482.057.115.065.17.065.413 0 .256-.006.293-.077.432-.153.302-.436.51-.75.553a.998.998 0 0 1-1.042-.553c-.071-.139-.077-.176-.077-.432 0-.244.008-.297.065-.413.116-.235.343-.443.585-.536.064-.024.183-.035.351-.03.22.006.275.018.407.084m3.925.918c-.492.161-.464.853.039.961.193.041 9.009.041 9.202 0a.495.495 0 0 0 .392-.547c-.015-.138-.069-.222-.217-.342l-.101-.082-4.631-.004c-2.547-.002-4.655.004-4.684.014M1.666 6.027A2.034 2.034 0 0 0 .076 7.44c-.09.289-.09.831 0 1.12A2.06 2.06 0 0 0 1.44 9.924c.289.09.831.09 1.12 0A2.06 2.06 0 0 0 3.924 8.56c.09-.289.09-.831 0-1.12a2.038 2.038 0 0 0-1.35-1.354c-.241-.07-.686-.099-.908-.059m.769 1.078c.181.092.383.297.473.482.057.115.065.17.065.413 0 .256-.006.293-.077.432a.998.998 0 0 1-1.042.553 1.009 1.009 0 0 1-.75-.553c-.071-.139-.077-.176-.077-.432 0-.244.008-.297.065-.413.116-.235.343-.443.585-.536.064-.024.183-.035.351-.03.22.006.275.018.407.084m3.925.918c-.492.161-.464.853.039.961.193.041 9.009.041 9.202 0a.495.495 0 0 0 .392-.547c-.015-.138-.069-.222-.217-.342l-.101-.082-4.631-.004c-2.547-.002-4.655.004-4.684.014m-4.694 4.004a2.034 2.034 0 0 0-1.59 1.413c-.09.289-.09.831 0 1.12a2.058 2.058 0 0 0 1.364 1.364c.172.054.253.062.573.061.325-.002.4-.011.578-.07a2.064 2.064 0 0 0 1.333-1.355c.09-.289.09-.831 0-1.12a2.038 2.038 0 0 0-1.35-1.354c-.241-.07-.686-.099-.908-.059m.769 1.078c.181.092.383.297.473.482.057.115.065.17.065.413 0 .256-.006.293-.077.432-.153.302-.436.51-.75.553a.998.998 0 0 1-1.042-.553c-.071-.139-.077-.176-.077-.432 0-.244.008-.297.065-.413.116-.235.343-.443.585-.536.064-.024.183-.035.351-.03.22.006.275.018.407.084m3.925.918c-.492.161-.464.853.039.961.193.041 9.009.041 9.202 0a.495.495 0 0 0 .392-.547c-.015-.138-.069-.222-.217-.342l-.101-.082-4.631-.004c-2.547-.002-4.655.004-4.684.014" fill-rule="evenodd" fill="#000"/></svg>