<svg xmlns="http://www.w3.org/2000/svg" width="24" height="24" fill="none"><path d="M3.96 2.062a2.885 2.885 0 0 0-1.128.577c-.3.268-.593.713-.714 1.083-.084.254-.098.372-.096.798.002.439.016.536.111.8A2.585 2.585 0 0 0 3.68 6.867c.269.098.354.109.82.109.465 0 .552-.011.82-.108A2.589 2.589 0 0 0 6.867 5.32c.098-.269.109-.354.109-.82 0-.465-.011-.552-.108-.82A2.535 2.535 0 0 0 3.96 2.062m1.159 1.081c.298.136.608.449.746.753.095.209.111.296.111.604s-.016.395-.111.604c-.14.309-.448.616-.765.764-.207.097-.29.112-.6.112s-.393-.015-.6-.112a1.675 1.675 0 0 1-.765-.764c-.095-.208-.111-.296-.111-.604-.001-.309.015-.394.11-.6.193-.422.615-.771 1.04-.861.267-.057.696-.009.945.104m5.133.935a.478.478 0 0 0-.174.67c.166.271-.321.252 6.43.252 5.991 0 6.115-.002 6.24-.078A.54.54 0 0 0 23 4.5a.54.54 0 0 0-.252-.422C22.623 4.002 22.499 4 16.5 4c-5.999 0-6.123.002-6.248.078M3.96 10.062a2.885 2.885 0 0 0-1.128.577c-.3.268-.593.713-.714 1.083-.084.254-.098.372-.096.798.002.439.016.536.111.8a2.585 2.585 0 0 0 1.547 1.547c.269.098.354.109.82.109.465 0 .552-.011.82-.108a2.589 2.589 0 0 0 1.547-1.548c.098-.269.109-.354.109-.82 0-.465-.011-.552-.108-.82a2.535 2.535 0 0 0-2.908-1.618m1.159 1.081c.298.136.608.449.746.753.095.209.111.296.111.604s-.016.395-.111.604c-.14.309-.448.616-.765.764-.207.097-.29.112-.6.112s-.393-.015-.6-.112a1.675 1.675 0 0 1-.765-.764c-.095-.208-.111-.296-.111-.604-.001-.309.015-.394.11-.6.193-.422.615-.771 1.04-.861.267-.057.696-.009.945.104m5.133.935a.478.478 0 0 0-.174.67c.166.271-.321.252 6.43.252 5.991 0 6.115-.002 6.24-.078A.54.54 0 0 0 23 12.5a.54.54 0 0 0-.252-.422c-.125-.076-.249-.078-6.248-.078-5.999 0-6.123.002-6.248.078M3.96 18.062a2.885 2.885 0 0 0-1.128.577c-.3.268-.593.713-.714 1.083-.084.254-.098.372-.096.798.002.439.016.536.111.8a2.585 2.585 0 0 0 1.547 1.547c.269.098.354.109.82.109.465 0 .552-.011.82-.108a2.589 2.589 0 0 0 1.547-1.548c.098-.269.109-.354.109-.82 0-.465-.011-.552-.108-.82a2.535 2.535 0 0 0-2.908-1.618m1.159 1.081c.298.136.608.449.746.753.095.209.111.296.111.604s-.016.395-.111.604c-.14.309-.448.616-.765.764-.207.097-.29.112-.6.112s-.393-.015-.6-.112a1.675 1.675 0 0 1-.765-.764c-.095-.208-.111-.296-.111-.604-.001-.309.015-.394.11-.6.193-.422.615-.771 1.04-.861.267-.057.696-.009.945.104m5.133.935a.478.478 0 0 0-.174.67c.166.271-.321.252 6.43.252 5.991 0 6.115-.002 6.24-.078A.54.54 0 0 0 23 20.5a.54.54 0 0 0-.252-.422c-.125-.076-.249-.078-6.248-.078-5.999 0-6.123.002-6.248.078" fill-rule="evenodd" fill="#000"/></svg>