<svg xmlns="http://www.w3.org/2000/svg" width="16" height="16" fill="none"><path d="M7.467.017a8.028 8.028 0 0 0-5.859 3.176C.799 4.26.296 5.477.073 6.906c-.082.523-.082 1.665 0 2.188.342 2.194 1.403 3.995 3.122 5.299 1.062.806 2.286 1.312 3.711 1.534.523.082 1.665.082 2.188 0 1.944-.303 3.596-1.179 4.836-2.565 1.1-1.229 1.735-2.587 1.997-4.268.082-.523.082-1.665 0-2.188-.222-1.425-.728-2.649-1.534-3.711A7.994 7.994 0 0 0 9 .066 12.585 12.585 0 0 0 7.467.017m5.073 4.456.526.527-3.033 3.033L7 11.067l-1.78-1.78-1.78-1.781.533-.533.534-.533 1.246 1.247L7 8.933 9.493 6.44c1.372-1.371 2.5-2.493 2.507-2.493.008 0 .251.237.54.526" fill="currentColor" fill-rule="evenodd"/></svg>