<svg xmlns="http://www.w3.org/2000/svg" width="16" height="16" fill="none" viewBox="0 0 16 16">
  <path fill="#1D1D1D" fill-rule="evenodd" d="M8 0a8 8 0 1 1 0 16A8 8 0 0 1 8 0Zm0 1a7 7 0 1 0 0 14A7 7 0 0 0 8 1Z" clip-rule="evenodd"/>
  <path fill="#1D1D1D" d="M7.306 12V6.108h1.38V12h-1.38Zm.684-6.924a.863.863 0 0 1-.6-.216.756.756 0 0 1-.228-.576c0-.24.076-.428.228-.564a.863.863 0 0 1 .6-.216c.248 0 .448.072.6.216.152.136.228.324.228.564 0 .24-.076.432-.228.576-.152.144-.352.216-.6.216Z"/>
</svg>
