<svg xmlns="http://www.w3.org/2000/svg" width="16" height="16" fill="none"><path d="M7.467.017a8.028 8.028 0 0 0-5.859 3.176C.799 4.26.296 5.477.073 6.906c-.082.523-.082 1.665 0 2.188.342 2.194 1.403 3.995 3.122 5.299 1.062.806 2.286 1.312 3.711 1.534.523.082 1.665.082 2.188 0 1.944-.303 3.596-1.179 4.836-2.565 1.1-1.229 1.735-2.587 1.997-4.268.082-.523.082-1.665 0-2.188-.222-1.425-.728-2.649-1.534-3.711A7.994 7.994 0 0 0 9 .066 12.585 12.585 0 0 0 7.467.017m.88 4.049a.998.998 0 0 1 .588.597c.087.232.067.546-.049.783a1.01 1.01 0 0 1-.486.47c-.125.058-.184.068-.4.068-.216 0-.275-.01-.4-.068a1.01 1.01 0 0 1-.486-.47 1.047 1.047 0 0 1-.047-.787.982.982 0 0 1 .986-.647c.096.006.228.031.294.054m.4 6.441v2.746H7.253V7.76h1.494v2.747" fill="currentColor" fill-rule="evenodd"/></svg>