<svg xmlns="http://www.w3.org/2000/svg" width="16" height="16" fill="currentColor">
  <path fill-rule="evenodd" d="M0 8a8 8 0 1 1 16 0A8 8 0 0 1 0 8Zm8-7a7 7 0 1 0 0 14A7 7 0 0 0 8 1Z" clip-rule="evenodd"/>
  <path d="M7.218 9.42c-.056-.352-.04-.664.048-.936.096-.28.224-.532.384-.756.168-.224.34-.432.516-.624.176-.2.324-.396.444-.588A1.136 1.136 0 0 0 8.67 5.4a.773.773 0 0 0-.324-.336c-.144-.08-.32-.12-.528-.12-.24 0-.464.056-.672.168a2.28 2.28 0 0 0-.564.456l-.768-.708a3.26 3.26 0 0 1 .936-.744c.368-.2.78-.3 1.236-.3.416 0 .784.076 1.104.228.328.144.584.364.768.66.184.296.276.664.276 1.104 0 .304-.064.576-.192.816-.12.24-.272.464-.456.672-.184.208-.364.416-.54.624a2.902 2.902 0 0 0-.408.672c-.104.24-.14.516-.108.828H7.218Zm.612 2.724a.867.867 0 0 1-.636-.264.96.96 0 0 1-.252-.672c0-.272.084-.496.252-.672a.867.867 0 0 1 .636-.264c.256 0 .468.088.636.264a.91.91 0 0 1 .264.672.936.936 0 0 1-.264.672.842.842 0 0 1-.636.264Z"/>
</svg>
