<svg xmlns="http://www.w3.org/2000/svg" width="16" height="16" fill="none"><path d="m7.493.015-.386.04C5.77.189 4.339.751 3.243 1.572 1.109 3.173-.075 5.619.009 8.253c.115 3.601 2.59 6.65 6.101 7.518a8.041 8.041 0 0 0 6.1-.969 8.009 8.009 0 0 0 3.561-4.915c.172-.701.212-1.058.212-1.887s-.04-1.186-.212-1.887C14.979 2.878 12.315.498 9 .064 8.716.027 7.683-.006 7.493.015m1.242 1.027c2.353.233 4.481 1.715 5.532 3.851.505 1.029.72 1.96.719 3.118 0 1.405-.385 2.694-1.142 3.83-.311.466-.53.735-.9 1.105a6.918 6.918 0 0 1-4.546 2.04c-3.472.208-6.587-2.206-7.261-5.626A6.503 6.503 0 0 1 1.013 8c0-.529.035-.909.124-1.36a7.011 7.011 0 0 1 4.379-5.184 7.462 7.462 0 0 1 1.711-.413 11.497 11.497 0 0 1 1.508-.001M7.578 2.549c-.406.068-.916.279-1.211.5-.184.138-.554.467-.554.493 0 .022.613.707.643.72.012.004.137-.094.279-.219.294-.258.534-.39.853-.466.624-.151 1.21-.047 1.554.275.306.286.427.802.285 1.215-.052.153-.257.425-.685.91-.186.211-.391.455-.455.543-.551.759-.794 1.56-.794 2.62v.353h1.014V9.1c.003-1.114.218-1.612 1.147-2.647.548-.611.759-.995.827-1.503.055-.412-.06-.968-.282-1.368-.129-.233-.472-.578-.721-.724-.518-.306-1.228-.421-1.9-.309m.099 8.502c-.7.268-.899 1.134-.38 1.652.575.576 1.579.244 1.688-.557a.997.997 0 0 0-.552-1.041c-.13-.066-.186-.078-.405-.084a1.053 1.053 0 0 0-.351.03" fill-rule="evenodd" fill="#000"/></svg>