<svg xmlns="http://www.w3.org/2000/svg" width="16" height="16" fill="currentColor" viewBox="0 0 16 16">
  <path fill-rule="evenodd" d="M8 16A8 8 0 1 0 8 0a8 8 0 0 0 0 16Zm-.734-7.332c-.088.272-.104.584-.048.936H8.43a1.636 1.636 0 0 1 .108-.828c.104-.24.24-.464.408-.672.176-.208.356-.416.54-.624.184-.208.336-.432.456-.672.128-.24.192-.512.192-.816 0-.44-.092-.808-.276-1.104a1.674 1.674 0 0 0-.768-.66A2.544 2.544 0 0 0 7.986 4c-.456 0-.868.1-1.236.3a3.26 3.26 0 0 0-.936.744l.768.708a2.28 2.28 0 0 1 .564-.456c.208-.112.432-.168.672-.168.208 0 .384.04.528.12.144.08.252.192.324.336.08.144.12.312.12.504 0 .216-.06.42-.18.612s-.268.388-.444.588c-.176.192-.348.4-.516.624-.16.224-.288.476-.384.756Zm-.072 3.396a.867.867 0 0 0 .636.264.842.842 0 0 0 .636-.264.936.936 0 0 0 .264-.672.91.91 0 0 0-.264-.672.842.842 0 0 0-.636-.264.867.867 0 0 0-.636.264.934.934 0 0 0-.252.672.96.96 0 0 0 .252.672Z" clip-rule="evenodd"/>
</svg>
