<svg xmlns="http://www.w3.org/2000/svg" width="24" height="24" fill="none"><path d="m11.28 1.023-.56.06c-1.504.16-3.076.698-4.417 1.512-1.409.855-2.748 2.174-3.642 3.585a13.936 13.936 0 0 0-.96 1.953c-1.055 2.861-.915 5.91.396 8.647.546 1.138 1.179 2.021 2.141 2.982.961.962 1.844 1.595 2.982 2.141 3.747 1.796 8.068 1.367 11.417-1.133.609-.454 1.679-1.524 2.133-2.133 2.973-3.984 2.975-9.289.004-13.27-.458-.612-1.525-1.679-2.134-2.132-1.595-1.186-3.275-1.875-5.217-2.139C13 1.038 11.574.99 11.28 1.023m1.58 1.02c1.948.17 3.756.885 5.34 2.111.437.339 1.307 1.209 1.646 1.646 1.8 2.326 2.505 5.195 1.976 8.046-.669 3.606-3.307 6.581-6.822 7.692-1.84.582-3.881.611-5.719.082a9.748 9.748 0 0 1-4.341-2.559c-1.75-1.753-2.732-3.916-2.91-6.411a10.112 10.112 0 0 1 1.033-5.137c.821-1.63 2.21-3.132 3.757-4.062a9.98 9.98 0 0 1 6.04-1.408m-1.52 3.555a7.097 7.097 0 0 0-1.375.383c-.336.13-.731.297-.759.321-.011.01.342.841.378.892.006.007.259-.085.563-.205.992-.393 1.509-.489 2.461-.459.753.025 1.113.102 1.555.334.963.507 1.274 1.75.714 2.862-.289.574-.569.902-1.414 1.651-.99.878-1.418 1.366-1.681 1.921-.188.396-.256.691-.288 1.236l-.026.466h1.052v-.396c0-.873.291-1.317 1.66-2.53.881-.781 1.265-1.238 1.592-1.894.254-.509.355-.901.378-1.461.024-.605-.055-.983-.319-1.518-.236-.481-.746-.99-1.231-1.23-.675-.334-1.261-.453-2.215-.448-.428.002-.78.027-1.045.075m.33 11.459a1.004 1.004 0 0 0-.657.831c-.096.941 1.016 1.476 1.683.81a.96.96 0 0 0-.002-1.398.996.996 0 0 0-1.024-.243" fill-rule="evenodd" fill="#000"/></svg>