<svg xmlns="http://www.w3.org/2000/svg" width="24" height="24" fill="none" viewBox="0 0 24 24"><path fill="currentColor" d="M16.354 8.354a.5.5 0 0 0-.708-.708l.708.708Zm-8.708 7.292L7.293 16l.707.707.354-.353-.708-.708Zm8 .708a.5.5 0 0 0 .708-.708l-.708.708ZM8.354 7.646 8 7.293 7.293 8l.353.354.708-.708Zm7.292 0-8 8 .708.708 8-8-.708-.708Zm.708 8-8-8-.708.708 8 8 .708-.708ZM22 12c0 5.523-4.477 10-10 10v1c6.075 0 11-4.925 11-11h-1ZM12 22C6.477 22 2 17.523 2 12H1c0 6.075 4.925 11 11 11v-1ZM2 12C2 6.477 6.477 2 12 2V1C5.925 1 1 5.925 1 12h1ZM12 2c5.523 0 10 4.477 10 10h1c0-6.075-4.925-11-11-11v1Z"/></svg>