<svg xmlns="http://www.w3.org/2000/svg" width="24" height="24" fill="none"><path d="M11.069 1.039c-2.247.219-4.201 1.002-5.968 2.393-.461.363-1.495 1.431-1.87 1.931C2.075 6.906 1.379 8.59 1.093 10.54c-.098.672-.098 2.248 0 2.92.286 1.949.981 3.631 2.137 5.177.455.607 1.526 1.678 2.133 2.133 1.546 1.156 3.228 1.851 5.177 2.137.672.098 2.248.098 2.92 0 1.949-.286 3.631-.981 5.177-2.137.607-.455 1.678-1.526 2.133-2.133 1.156-1.546 1.851-3.228 2.137-5.177.052-.356.07-.733.07-1.46s-.018-1.104-.07-1.46c-.286-1.95-.982-3.634-2.138-5.177-.375-.5-1.409-1.568-1.87-1.931-1.597-1.257-3.351-2.02-5.319-2.312-.634-.094-1.942-.136-2.511-.081m2.424 1.08c1.892.297 3.512 1.035 4.987 2.272 1.602 1.344 2.802 3.32 3.26 5.369.192.856.236 1.284.235 2.26-.002.996-.065 1.54-.278 2.409-.671 2.733-2.558 5.125-5.074 6.434A9.988 9.988 0 0 1 3.806 17.72c-.89-1.271-1.431-2.628-1.693-4.248-.124-.764-.124-2.18 0-2.944.469-2.9 1.99-5.281 4.386-6.869 1.419-.94 2.991-1.478 4.781-1.635.431-.038 1.718.017 2.213.095M11.48 10.26V14h1.04V6.52h-1.04v3.74m.184 5.803a1.005 1.005 0 0 0-.533.448c-.095.161-.111.233-.111.489s.016.328.111.489a.993.993 0 0 0 1.57.212c.18-.18.299-.459.299-.701 0-.674-.705-1.168-1.336-.937" fill="currentColor" fill-rule="evenodd"/></svg>