<svg xmlns="http://www.w3.org/2000/svg" width="24" height="24" fill="none"><path d="M11.069 1.039c-2.247.219-4.201 1.002-5.968 2.393-.461.363-1.495 1.431-1.87 1.931C2.075 6.906 1.379 8.59 1.093 10.54c-.098.672-.098 2.248 0 2.92.286 1.949.981 3.631 2.137 5.177.455.607 1.526 1.678 2.133 2.133 1.546 1.156 3.228 1.851 5.177 2.137.672.098 2.248.098 2.92 0 1.949-.286 3.631-.981 5.177-2.137.607-.455 1.678-1.526 2.133-2.133 1.156-1.546 1.851-3.228 2.137-5.177.052-.356.07-.733.07-1.46s-.018-1.104-.07-1.46c-.286-1.95-.982-3.634-2.138-5.177-.375-.5-1.409-1.568-1.87-1.931-1.597-1.257-3.351-2.02-5.319-2.312-.634-.094-1.942-.136-2.511-.081M12.76 10v3.76h-1.52V6.24h1.52V10m-.42 6.066c.369.126.66.538.66.934 0 .527-.473 1-1 1-.242 0-.521-.119-.701-.299a.984.984 0 0 1 .001-1.403.977.977 0 0 1 1.04-.232" fill="currentColor" fill-rule="evenodd"/></svg>