<svg xmlns="http://www.w3.org/2000/svg" width="16" height="16" fill="currentColor" viewBox="0 0 16 16">
  <path d="M8.003 10.271c.256 0 .469.09.637.265.168.176.252.4.252.672a.961.961 0 0 1-.252.672.843.843 0 0 1-.637.264.867.867 0 0 1-.636-.264.936.936 0 0 1-.263-.672.91.91 0 0 1 .263-.672.868.868 0 0 1 .636-.264ZM8.651 5.328 8.46 9.42h-.924l-.191-4.092-.036-1.368h1.391l-.048 1.368Z"/>
  <path fill-rule="evenodd" d="M8 0a8 8 0 1 1 0 16A8 8 0 0 1 8 0Zm0 1a7 7 0 1 0 0 14A7 7 0 0 0 8 1Z" clip-rule="evenodd"/>
</svg>
