<svg xmlns="http://www.w3.org/2000/svg" width="16" height="16" fill="none"><path d="M7.467.017a8.028 8.028 0 0 0-5.859 3.176C.799 4.26.296 5.477.073 6.906c-.082.523-.082 1.665 0 2.188.342 2.194 1.403 3.995 3.122 5.299 1.062.806 2.286 1.312 3.711 1.534.523.082 1.665.082 2.188 0 1.944-.303 3.596-1.179 4.836-2.565 1.1-1.229 1.735-2.587 1.997-4.268.082-.523.082-1.665 0-2.188-.222-1.425-.728-2.649-1.534-3.711A7.994 7.994 0 0 0 9 .066 12.585 12.585 0 0 0 7.467.017m1.28 6.743v3H7.253v-6h1.494v3m-.316 4.341c.177.087.402.316.484.492.048.105.058.175.058.407 0 .251-.007.295-.072.428a1.019 1.019 0 0 1-1.053.558 1.039 1.039 0 0 1-.747-.556 1.157 1.157 0 0 1-.051-.729c.08-.274.335-.541.612-.64.211-.075.572-.056.769.04" fill="currentColor" fill-rule="evenodd"/></svg>