<svg xmlns="http://www.w3.org/2000/svg" width="16" height="16" fill="none" viewBox="0 0 16 16">
  <path fill="#1D1D1D" fill-rule="evenodd" d="M8 1a7 7 0 1 0 0 14A7 7 0 0 0 8 1ZM0 8a8 8 0 1 1 16 0A8 8 0 0 1 0 8Z" clip-rule="evenodd"/>
  <path fill="#1D1D1D" d="m7.535 9.42-.192-4.092-.036-1.368H8.7l-.048 1.368L8.46 9.42h-.924Zm.468 2.724a.867.867 0 0 1-.636-.264.936.936 0 0 1-.264-.672.91.91 0 0 1 .264-.672.867.867 0 0 1 .636-.264c.256 0 .468.088.636.264.168.176.252.4.252.672a.96.96 0 0 1-.252.672.842.842 0 0 1-.636.264Z"/>
</svg>
