<svg xmlns="http://www.w3.org/2000/svg" width="24" height="24" fill="none" viewBox="0 0 24 24"><path stroke="currentColor" stroke-linecap="square" d="M1.5 8.5h21m-16-7-.001 4m11.001-4-.001 4m-1.718 6.223a2.468 2.468 0 0 0-.91-.577 2.44 2.44 0 0 0-2.088.207 2.492 2.492 0 0 0-.782.747 2.473 2.473 0 0 0-1.584-1.056 2.446 2.446 0 0 0-2.198.676 2.46 2.46 0 0 0-.719 1.72c-.005.648.242 1.27.69 1.733l.03.029L12 19l3.781-3.793a2.46 2.46 0 0 0 .719-1.72 2.46 2.46 0 0 0-.69-1.732l-.029-.032ZM3.5 3.5h17a2 2 0 0 1 2 2v14a2 2 0 0 1-2 2h-17a2 2 0 0 1-2-2v-14a2 2 0 0 1 2-2Z"/></svg>