<svg xmlns="http://www.w3.org/2000/svg" width="24" height="24" fill="none"><path d="M6 2v1l-1.37.001c-1.56 0-1.737.022-2.25.276a2.538 2.538 0 0 0-1.262 1.445l-.098.298v15l.111.3c.265.72.826 1.282 1.549 1.549l.3.111h18.04l.3-.111a2.604 2.604 0 0 0 1.549-1.549l.111-.3V4.98l-.111-.3a2.537 2.537 0 0 0-1.249-1.403c-.513-.254-.69-.276-2.25-.276L18 3V1h-1v2H7V1H6v1m0 3v1h1V4h10v2h1V3.995l1.43.012 1.43.013.24.112c.315.147.624.455.767.764l.113.244.013 1.43.012 1.43H1.995l.012-1.43.013-1.43.112-.24c.198-.425.624-.776 1.042-.858.091-.018.765-.035 1.496-.038L6 4v1m15.991 9.43-.011 5.43-.113.244a1.698 1.698 0 0 1-.767.764l-.24.112H3.14l-.244-.113a1.698 1.698 0 0 1-.764-.767l-.112-.24-.011-5.43L1.998 9h20.004l-.011 5.43" fill-rule="evenodd" fill="#000"/></svg>