<svg xmlns="http://www.w3.org/2000/svg" width="16" height="16" fill="none"><path d="M4 .998v.999l-1.18.009c-1.169.01-1.182.01-1.394.076a2.072 2.072 0 0 0-1.35 1.345l-.063.186L.006 8.4c-.008 5.216-.014 4.984.139 5.361.232.571.772 1.032 1.396 1.193.167.043.591.046 6.459.046 5.868 0 6.292-.003 6.459-.046.624-.161 1.164-.622 1.396-1.193.153-.377.147-.145.139-5.361l-.007-4.787-.063-.186a2.072 2.072 0 0 0-1.35-1.345c-.212-.066-.225-.066-1.394-.076L12 1.997V0h-1.013v2H5.013V0H4v.998m10.434 2.107c.182.092.383.296.474.482.063.128.066.156.074.78l.008.646H1.011l.008-.646c.007-.625.01-.651.073-.78a1.13 1.13 0 0 1 .585-.535c.079-.029 1.196-.034 6.35-.03l6.253.005.154.078m.546 6.528-.007 3.634-.071.153c-.079.167-.281.387-.425.461-.236.123-.001.118-6.477.118s-6.241.005-6.477-.118c-.144-.074-.346-.294-.425-.461l-.071-.153-.007-3.634L1.013 6h13.974l-.007 3.633" fill-rule="evenodd" fill="#000"/></svg>