<svg xmlns="http://www.w3.org/2000/svg" width="24" height="24" fill="none" viewBox="0 0 24 24"><path stroke="currentColor" stroke-linecap="round" stroke-linejoin="round" d="M22.7 15.288a2.75 2.75 0 0 0-4.2.412 2.75 2.75 0 0 0-4.2-.416 2.672 2.672 0 0 0-.034 3.778l.033.032L18.5 23.25l4.2-4.15a2.67 2.67 0 0 0 .033-3.777l-.033-.035ZM1.5 8.5h22"/><path stroke="currentColor" stroke-linecap="round" stroke-linejoin="round" d="M12.5 22.5h-9a2 2 0 0 1-2-2v-15a2 2 0 0 1 2-2h18a2 2 0 0 1 2 2v6M6.5 1.5v3M18.5 1.5v3"/></svg>