<svg xmlns="http://www.w3.org/2000/svg" width="24" height="24" fill="none"><path d="M6 2v1l-1.37.001c-1.56 0-1.737.022-2.25.276a2.538 2.538 0 0 0-1.262 1.445l-.098.298v15l.111.3c.265.72.826 1.282 1.549 1.549l.3.111h18.04l.3-.111a2.604 2.604 0 0 0 1.549-1.549l.111-.3V4.98l-.111-.3a2.537 2.537 0 0 0-1.249-1.403c-.513-.254-.69-.276-2.25-.276L18 3V1h-1v2H7V1H6v1m0 3v1h1V4h10v2h1V3.995l1.43.012 1.43.013.24.112c.315.147.624.455.767.764l.113.244.013 1.43.012 1.43H1.995l.012-1.43.013-1.43.112-.24c.198-.425.624-.776 1.042-.858.091-.018.765-.035 1.496-.038L6 4v1m15.991 9.43-.011 5.43-.113.244a1.698 1.698 0 0 1-.767.764l-.24.112H3.14l-.244-.113a1.698 1.698 0 0 1-.764-.767l-.112-.24-.011-5.43L1.998 9h20.004l-.011 5.43M9.214 10.601a3.019 3.019 0 0 0-1.988 1.719 3.048 3.048 0 0 0 .149 2.6c.174.308.584.743 2.563 2.72L12 19.7l2.064-2.06c1.135-1.133 2.17-2.191 2.298-2.35.452-.56.615-1.044.617-1.83.001-.571-.069-.885-.301-1.343-.368-.73-1.196-1.371-1.989-1.539a3.645 3.645 0 0 0-1.301.007c-.458.103-.966.36-1.276.646l-.108.1-.19-.168c-.254-.223-.844-.509-1.207-.583-.397-.082-1.034-.072-1.393.021m1.558 1.089c.389.184.605.387.936.875.146.217.279.395.293.395.015 0 .127-.151.25-.335.302-.454.446-.612.726-.793.32-.207.677-.312 1.057-.312.564.001.994.181 1.396.582.599.599.733 1.467.348 2.252-.142.29-.246.402-1.966 2.126l-1.817 1.82-1.819-1.84c-1.657-1.676-1.832-1.866-1.962-2.126a1.946 1.946 0 0 1 .824-2.59c.367-.193.509-.223 1.006-.21.393.011.447.022.728.156" fill-rule="evenodd" fill="#000"/></svg>