<svg xmlns="http://www.w3.org/2000/svg" width="16" height="16" fill="none" viewBox="0 0 16 16"><path stroke="currentColor" stroke-linecap="square" d="M.5 5.5h15m-11-5v2m7-2v2m-.98 5.441a1.679 1.679 0 0 0-.613-.357 1.713 1.713 0 0 0-1.387.145c-.206.12-.384.282-.52.475a1.651 1.651 0 0 0-.52-.475 1.7 1.7 0 0 0-1.387-.145 1.679 1.679 0 0 0-.613.357C5.183 8.218 5.01 8.598 5 9c-.01.4.145.788.43 1.078l.047.046L8 12.5l2.52-2.377a1.476 1.476 0 0 0 .05-2.137c-.02-.015-.035-.03-.05-.045ZM14 2.5H2A1.5 1.5 0 0 0 .5 4v9A1.5 1.5 0 0 0 2 14.5h12a1.5 1.5 0 0 0 1.5-1.5V4A1.5 1.5 0 0 0 14 2.5Z"/></svg>