<svg xmlns="http://www.w3.org/2000/svg" width="16" height="16" fill="none" viewBox="0 0 16 16"><path stroke="currentColor" fill="none" stroke-linecap="round" stroke-linejoin="round" d="M10.941 8.029A1.948 1.948 0 0 0 8 8.345a1.948 1.948 0 0 0-2.941-.316A1.813 1.813 0 0 0 5 10.592l.055.055L8 13.5l2.941-2.852A1.816 1.816 0 0 0 11 8.083c-.022-.018-.04-.037-.059-.054ZM.5 5.5h15"/><path stroke="currentColor" fill="none" stroke-linecap="round" stroke-linejoin="round" d="M14.5 2.5h-13a1 1 0 0 0-1 1v11a1 1 0 0 0 1 1h13a1 1 0 0 0 1-1v-11a1 1 0 0 0-1-1v0ZM4.5.5v2M11.5.5v2"/></svg>