<svg xmlns="http://www.w3.org/2000/svg" width="16" height="16" fill="none"><path d="M4 .998v.999l-1.18.009c-1.169.01-1.182.01-1.394.076a2.072 2.072 0 0 0-1.35 1.345l-.063.186L.006 8.4c-.008 5.216-.014 4.984.139 5.361.232.571.772 1.033 1.396 1.193.163.042.393.046 2.566.046h2.386l.008-.499.007-.5-2.367-.007c-2.126-.007-2.379-.012-2.482-.051a1.047 1.047 0 0 1-.59-.597c-.055-.147-.056-.171-.056-3.747V6H14.986l.007 1.247L15 8.493l.501.008.501.007-.008-2.447-.008-2.448-.062-.186a2.072 2.072 0 0 0-1.35-1.345c-.212-.066-.225-.066-1.394-.076L12 1.997V0h-1.013v2H5.013V0H4v.998m10.434 2.107c.182.092.383.296.474.482.063.128.066.156.074.78l.008.646H1.011l.008-.646c.007-.625.01-.651.073-.78a1.13 1.13 0 0 1 .585-.535c.079-.029 1.196-.034 6.35-.03l6.253.005.154.078m-1.941 8.682-1.999 2-1.001-1-1-1.001-.353.354-.353.354 1.36 1.36 1.36 1.359 2.353-2.353 2.353-2.353-.36-.36-.36-.36-2 2" fill-rule="evenodd" fill="#000"/></svg>