<svg xmlns="http://www.w3.org/2000/svg" width="16" height="16" fill="none"><path d="M4 .998v.999l-1.18.009c-1.169.01-1.182.01-1.394.076a2.072 2.072 0 0 0-1.35 1.345l-.063.186L.006 8.4c-.008 5.216-.014 4.984.139 5.361.232.571.772 1.032 1.396 1.193.167.043.591.046 6.459.046 5.868 0 6.292-.003 6.459-.046.624-.161 1.164-.622 1.396-1.193.153-.377.147-.145.139-5.361l-.007-4.787-.063-.186a2.072 2.072 0 0 0-1.35-1.345c-.212-.066-.225-.066-1.394-.076L12 1.997V0h-1.013v2H5.013V0H4v.998m10.434 2.107c.182.092.383.296.474.482.063.128.066.156.074.78l.008.646H1.011l.008-.646c.007-.625.01-.651.073-.78a1.13 1.13 0 0 1 .585-.535c.079-.029 1.196-.034 6.35-.03l6.253.005.154.078m.546 6.528-.007 3.634-.071.153c-.079.167-.281.387-.425.461-.236.123-.001.118-6.477.118s-6.241.005-6.477-.118c-.144-.074-.346-.294-.425-.461l-.071-.153-.007-3.634L1.013 6h13.974l-.007 3.633m-8.837-2.58c-.716.165-1.323.696-1.542 1.35-.06.18-.077.286-.087.544-.016.409.03.633.198.971.105.213.167.296.393.527.285.291 2.871 2.728 2.896 2.728.007 0 .688-.635 1.511-1.412.977-.922 1.54-1.472 1.62-1.584a1.984 1.984 0 0 0-.073-2.388c-.679-.836-1.969-1.026-2.889-.427l-.171.112-.141-.094a2.079 2.079 0 0 0-.57-.276c-.177-.059-.265-.071-.595-.079-.269-.007-.436.002-.55.028m.931 1.036c.238.106.377.22.538.441l.269.371.121.168.264-.371c.298-.418.45-.547.766-.644.777-.24 1.581.386 1.45 1.129-.059.339-.076.358-1.329 1.542l-1.154 1.091-1.135-1.072c-.624-.589-1.163-1.115-1.198-1.168-.108-.162-.151-.321-.153-.553-.001-.187.01-.24.079-.386.133-.283.363-.477.696-.587.22-.073.575-.055.786.039" fill-rule="evenodd" fill="#000"/></svg>