<svg xmlns="http://www.w3.org/2000/svg" width="16" height="16" fill="currentColor">
  <path d="M2 5h2v1H2V5Z"/>
  <path fill-rule="evenodd" d="M5 9a4 4 0 1 1 8 0 4 4 0 0 1-8 0Zm4-3a3 3 0 1 0 0 6 3 3 0 0 0 0-6Z" clip-rule="evenodd"/>
  <path fill-rule="evenodd" d="m6.191 1-1 2H1.5A1.5 1.5 0 0 0 0 4.5v9A1.5 1.5 0 0 0 1.5 15h13a1.5 1.5 0 0 0 1.5-1.5v-9A1.5 1.5 0 0 0 14.5 3h-1.691l-1-2H6.191Zm.618 1h4.382l1 2H14.5a.5.5 0 0 1 .5.5v9a.5.5 0 0 1-.5.5h-13a.5.5 0 0 1-.5-.5v-9a.5.5 0 0 1 .5-.5h4.309l1-2Z" clip-rule="evenodd"/>
</svg>
