<svg xmlns="http://www.w3.org/2000/svg" width="16" height="16" fill="none"><path d="m5.687 2.007-.5.993-2.014.013c-1.873.013-2.022.017-2.146.063a1.542 1.542 0 0 0-.986 1.085C.006 4.312.001 4.918.001 9c0 4.082.005 4.688.04 4.839.124.524.529.948 1.066 1.112.153.047.432.049 6.893.049 6.461 0 6.74-.002 6.893-.049a1.552 1.552 0 0 0 1.067-1.118c.059-.25.059-9.416 0-9.666a1.543 1.543 0 0 0-.987-1.091c-.118-.043-.249-.051-1.146-.062L12.813 3l-.5-.993-.5-.994H6.187l-.5.994m6 .993.5 1h1.2c1.021 0 1.216.006 1.3.041a.426.426 0 0 1 .249.231c.049.096.051.239.051 4.728s-.002 4.632-.051 4.728a.426.426 0 0 1-.249.231c-.088.037-.818.041-6.687.041-5.869 0-6.599-.004-6.687-.041a.426.426 0 0 1-.249-.231c-.049-.096-.051-.239-.051-4.728s.002-4.632.051-4.728a.426.426 0 0 1 .249-.231c.086-.036.379-.041 2.3-.041h2.2l.5-1 .5-1h4.374l.5 1M2 5.507V6h2v-.987H2v.494m6.413-.466a4.041 4.041 0 0 0-3.255 2.847 4.117 4.117 0 0 0 0 2.224 4.032 4.032 0 0 0 2.73 2.73 4.117 4.117 0 0 0 2.224 0 4.032 4.032 0 0 0 2.73-2.73 4.117 4.117 0 0 0 0-2.224 3.947 3.947 0 0 0-1.038-1.73 4.047 4.047 0 0 0-1.962-1.069c-.262-.061-1.15-.091-1.429-.048m1.035.999a2.955 2.955 0 0 1 1.669.843c.458.458.747 1.03.843 1.669.05.33.05.566 0 .896a2.997 2.997 0 0 1-2.465 2.509c-1.287.221-2.594-.448-3.186-1.631A3.364 3.364 0 0 1 6 9c0-.409.131-.971.309-1.326a3.179 3.179 0 0 1 1.365-1.365 3.065 3.065 0 0 1 1.774-.269" fill="currentColor" fill-rule="evenodd"/></svg>