<svg xmlns="http://www.w3.org/2000/svg" width="24" height="24" viewBox="0 0 24 24"><path fill="currentColor" fill-rule="evenodd" d="M10.232 2h6.536l.148.223L18.768 5H20.5A2.5 2.5 0 0 1 23 7.5v12a2.5 2.5 0 0 1-2.5 2.5h-17A2.5 2.5 0 0 1 1 19.5v-12A2.5 2.5 0 0 1 3.5 5h4.732l1.852-2.777.148-.223Zm.536 1L8.916 5.777 8.768 6H3.5A1.5 1.5 0 0 0 2 7.5v12A1.5 1.5 0 0 0 3.5 21h17a1.5 1.5 0 0 0 1.5-1.5v-12A1.5 1.5 0 0 0 20.5 6h-2.268l-.148-.223L16.232 3h-5.464ZM13.5 9a4.5 4.5 0 1 0 0 9 4.5 4.5 0 0 0 0-9ZM8 13.5a5.5 5.5 0 1 1 11 0 5.5 5.5 0 0 1-11 0Zm-2.5-5a1 1 0 1 1-2 0 1 1 0 0 1 2 0Z" clip-rule="evenodd"/></svg>