<svg xmlns="http://www.w3.org/2000/svg" width="24" height="24" fill="none"><path d="M9.224 3.501 8.227 5l-2.483.001c-2.801 0-2.815.002-3.382.287a2.474 2.474 0 0 0-1.283 1.616C1.002 7.205 1 7.373 1 13.5s.002 6.295.079 6.596a2.478 2.478 0 0 0 1.283 1.619c.619.305-.1.284 9.638.284s9.019.021 9.638-.284a2.502 2.502 0 0 0 1.302-1.695c.088-.42.088-12.62 0-13.04a2.497 2.497 0 0 0-1.302-1.692c-.499-.251-.731-.286-1.882-.287L18.773 5l-.997-1.499-.996-1.499h-6.56l-.996 1.499m8 .996.996 1.497 1.32.013 1.32.013.24.112c.315.147.624.455.767.764l.113.244v12.72l-.112.24a1.698 1.698 0 0 1-.764.767l-.244.113H3.14l-.244-.113a1.698 1.698 0 0 1-.764-.767l-.112-.24V7.14l.113-.244c.143-.309.452-.617.767-.764l.24-.112 2.82-.012 2.82-.012.996-1.498L10.773 3h5.454l.997 1.497M4.122 7.583a.979.979 0 0 0-.509.469c-.25.489-.066 1.056.431 1.327.845.459 1.794-.49 1.335-1.335a.942.942 0 0 0-.888-.522 1.14 1.14 0 0 0-.369.061m8.838.442c-1.347.171-2.441.693-3.341 1.593a5.538 5.538 0 0 0-1.523 2.842c-.105.505-.105 1.575 0 2.08a5.53 5.53 0 0 0 1.523 2.841 5.323 5.323 0 0 0 2.084 1.31c.662.23 1.027.288 1.797.288s1.135-.058 1.797-.288a5.323 5.323 0 0 0 2.084-1.31 5.323 5.323 0 0 0 1.31-2.084c.23-.662.288-1.027.288-1.797s-.058-1.135-.288-1.797A5.501 5.501 0 0 0 14.517 8.1c-.331-.064-1.281-.11-1.557-.075m1.212 1.035a4.434 4.434 0 0 1 2.503 1.265 4.434 4.434 0 0 1 1.265 2.503c.075.496.075.848 0 1.344a4.496 4.496 0 0 1-3.697 3.763c-1.932.332-3.891-.671-4.779-2.446C9.196 14.956 9 14.114 9 13.5c0-.614.196-1.456.464-1.989a4.75 4.75 0 0 1 2.047-2.047c.778-.39 1.763-.54 2.661-.404" fill="currentColor" fill-rule="evenodd"/></svg>