<svg xmlns="http://www.w3.org/2000/svg" width="16" height="16" fill="currentColor">
  <path fill-rule="evenodd" d="M2 8h3v2.5H2V8Zm1 1v.5h1V9H3ZM11 8h3v2.5h-3V8Zm1 1v.5h1V9h-1Z" clip-rule="evenodd"/>
  <path fill-rule="evenodd" d="M4.687 3a1.5 1.5 0 0 0-1.317.782L1.427 7.344A3.5 3.5 0 0 0 1 9.02v3.48a.5.5 0 0 0 .5.5H2a.5.5 0 0 0 .5-.5v-1h11v1a.5.5 0 0 0 .5.5h.5a.5.5 0 0 0 .5-.5V9.02a3.5 3.5 0 0 0-.427-1.676L12.63 3.782A1.5 1.5 0 0 0 11.313 3H4.687Zm-2.194.303A2.5 2.5 0 0 1 4.687 2h6.626a2.5 2.5 0 0 1 2.194 1.303l1.944 3.562A4.5 4.5 0 0 1 16 9.02v3.48a1.5 1.5 0 0 1-1.5 1.5H14a1.5 1.5 0 0 1-1.5-1.5h-9A1.5 1.5 0 0 1 2 14h-.5A1.5 1.5 0 0 1 0 12.5V9.02a4.5 4.5 0 0 1 .55-2.155l1.943-3.562Z" clip-rule="evenodd"/>
  <path fill-rule="evenodd" d="M2 6H0V5h2v1ZM10 9H6V8h4v1ZM16 6h-2V5h2v1ZM12 6H4V5h8v1Z" clip-rule="evenodd"/>
</svg>
