<svg xmlns="http://www.w3.org/2000/svg" width="24" height="24" fill="none"><path d="M11.52 4.046c-1.759.147-3.796.746-5.455 1.606C3.289 7.09 1.616 9.008 1.113 11.33c-.129.593-.129 1.747 0 2.34.255 1.179.766 2.172 1.631 3.175 1.466 1.7 3.986 3.109 6.749 3.775.948.229 2.064.38 2.807.38.361 0 .534-.074.633-.268.117-.233.496-2.034.683-3.252.273-1.772.359-2.951.361-4.94.003-1.985-.09-3.271-.36-5.019-.21-1.358-.589-3.111-.715-3.303-.142-.218-.419-.252-1.382-.172m.674 1.344a34.36 34.36 0 0 1 .603 3.631c.14 1.286.179 2.055.179 3.479 0 1.8-.103 3.202-.358 4.859-.115.749-.431 2.365-.495 2.533-.048.125-.008.124-.903.023-2.046-.231-4.366-1.097-6.06-2.265-1.668-1.148-2.755-2.637-3.068-4.202-.095-.474-.095-1.422 0-1.896.246-1.228.95-2.391 2.065-3.409C5.459 6.955 7.465 5.929 9.48 5.421c.929-.234 1.757-.368 2.327-.376l.306-.005.081.35m6.058 1.688a.478.478 0 0 0-.174.67c.16.262.047.252 2.93.252 2.52 0 2.617-.003 2.74-.078A.54.54 0 0 0 24 7.5a.54.54 0 0 0-.252-.422C23.624 7.003 23.528 7 21 7s-2.624.003-2.748.078m0 5a.478.478 0 0 0-.174.67c.16.262.047.252 2.93.252 2.52 0 2.617-.003 2.74-.078A.54.54 0 0 0 24 12.5a.54.54 0 0 0-.252-.422C23.624 12.003 23.528 12 21 12s-2.624.003-2.748.078m0 5a.478.478 0 0 0-.174.67c.16.262.047.252 2.93.252 2.52 0 2.617-.003 2.74-.078A.54.54 0 0 0 24 17.5a.54.54 0 0 0-.252-.422C23.624 17.003 23.528 17 21 17s-2.624.003-2.748.078" fill-rule="evenodd" fill="#000"/></svg>