<svg xmlns="http://www.w3.org/2000/svg" width="16" height="16" fill="none"><path d="M3.426.039a2.095 2.095 0 0 0-.672.258 2.403 2.403 0 0 0-.668.676c-.213.363-.216.377-.651 3.434L1.031 7.24l-.342.352c-.369.38-.516.582-.613.842L.013 8.6l-.007 3.467c-.005 1.906-.001 3.506.008 3.555.022.121.206.316.329.351.062.017.857.027 2.177.026 1.974 0 2.086-.003 2.19-.05a.51.51 0 0 0 .275-.35c.016-.072.027-.602.028-1.352v-1.234h5.974v1.234c.001.75.012 1.28.028 1.352a.51.51 0 0 0 .275.35c.104.047.216.05 2.19.05 1.281.001 2.116-.009 2.174-.025a.59.59 0 0 0 .32-.322c.016-.058.026-1.339.026-3.494 0-3.303-.002-3.409-.053-3.609-.081-.316-.166-.445-.588-.886l-.387-.405-.404-2.84c-.437-3.067-.44-3.079-.654-3.445a2.403 2.403 0 0 0-.668-.676 2.076 2.076 0 0 0-.684-.259c-.288-.051-8.853-.051-9.136.001m9.117 1.029a.993.993 0 0 1 .591.585c.031.089.786 5.217.786 5.34 0 .011-2.664.02-5.92.02-3.671 0-5.92-.009-5.92-.025 0-.117.757-5.243.788-5.335a.968.968 0 0 1 .565-.575l.154-.063 4.405-.001c4.365-.001 4.407 0 4.551.054m2.063 7.259c.178.179.337.36.353.401.018.05.028.623.028 1.674V12H1.013v-1.598c0-1.051.01-1.624.028-1.674.016-.041.175-.222.353-.401L1.719 8h12.562l.325.327m-11.969.748a.908.908 0 0 0-.408.294c-.163.199-.212.344-.213.631 0 .216.01.275.068.4.194.416.646.662 1.075.585.331-.06.614-.279.757-.585.058-.125.068-.184.068-.4 0-.216-.01-.275-.068-.4a1.01 1.01 0 0 0-.47-.486c-.155-.076-.209-.088-.419-.095-.203-.006-.264.003-.39.056m10 0a.908.908 0 0 0-.408.294c-.163.199-.212.344-.213.631 0 .216.01.275.068.4.194.416.646.662 1.075.585.331-.06.614-.279.757-.585.058-.125.068-.184.068-.4 0-.216-.01-.275-.068-.4a1.01 1.01 0 0 0-.47-.486c-.155-.076-.209-.088-.419-.095-.203-.006-.264.003-.39.056M4 14.013v1H1.013v-2H4v1m10.987 0v1H12v-2h2.987v1" fill="currentColor" fill-rule="evenodd"/></svg>