<svg xmlns="http://www.w3.org/2000/svg" width="24" height="24" fill="none"><path d="M6.568 1.061a2.66 2.66 0 0 0-1.393.85c-.385.471-.379.448-1.294 4.566l-.84 3.776-.814.824c-.718.726-.831.858-.961 1.123-.264.539-.265.545-.265 3.64-.001 2.687.002 2.784.077 2.908.168.274-.851.252 11.43.252 10.95 0 11.114-.001 11.24-.078.263-.16.252-.031.251-3.09 0-3.09-.001-3.098-.267-3.632-.13-.262-.253-.405-.961-1.123l-.812-.824-.839-3.776c-.78-3.515-.85-3.8-1.002-4.108-.277-.563-.838-1.041-1.478-1.26l-.26-.089-5.78-.007c-4.778-.006-5.824.002-6.032.048m11.96 1.09c.327.161.634.482.745.779.043.116.414 1.722.824 3.57.41 1.848.755 3.392.767 3.43.02.067-.396.07-8.364.07-7.968 0-8.384-.003-8.364-.07.012-.038.357-1.582.767-3.43.41-1.848.781-3.454.824-3.57.149-.399.625-.805 1.042-.888.094-.019 2.718-.031 5.832-.028l5.661.006.266.131m3.486 9.566c.6.608.727.759.837.99l.129.273.012 2.51.011 2.51H1.997l.011-2.51.012-2.51.131-.276c.112-.237.233-.38.837-.99L3.695 11H21.306l.708.717M5.122 13.583a.979.979 0 0 0-.509.469c-.25.489-.066 1.056.431 1.327.845.459 1.794-.49 1.335-1.335a.942.942 0 0 0-.888-.522 1.14 1.14 0 0 0-.369.061m14 0a.979.979 0 0 0-.509.469c-.25.489-.066 1.056.431 1.327.845.459 1.794-.49 1.335-1.335a.942.942 0 0 0-.888-.522 1.14 1.14 0 0 0-.369.061m-16.87 7.495c-.243.148-.252.2-.252 1.43 0 1.032.006 1.121.078 1.24.158.258.099.252 2.43.252 2.024 0 2.117-.004 2.24-.078.243-.148.252-.201.252-1.422 0-1.221-.009-1.274-.252-1.422a.488.488 0 0 0-.686.198c-.05.097-.062.276-.062.922V23H3v-.81c0-.733-.008-.822-.078-.938a.478.478 0 0 0-.67-.174m16 0c-.243.148-.252.2-.252 1.43 0 1.032.006 1.121.078 1.24.158.258.099.252 2.43.252 2.024 0 2.117-.004 2.24-.078.243-.148.252-.201.252-1.422 0-1.221-.009-1.274-.252-1.422a.488.488 0 0 0-.686.198c-.05.097-.062.276-.062.922V23h-3v-.81c0-.733-.008-.822-.078-.938a.478.478 0 0 0-.67-.174" fill-rule="evenodd" fill="#000"/></svg>