<svg xmlns="http://www.w3.org/2000/svg" width="16" height="16" fill="currentColor" viewBox="0 0 16 16">
  <path fill-rule="evenodd" d="M11 4h5v1h-5V4Zm0 4h5v1h-5V8Zm0 4h5v1h-5v-1ZM8.838 1.978l.13.346c1.54 4.105 1.549 8.74-.008 12.373l-.14.324-.351-.022c-1.385-.087-3.463-.5-5.212-1.475C1.497 12.544 0 10.946 0 8.5s1.497-4.044 3.257-5.024C5.007 2.5 7.084 2.088 8.469 2l.37-.023ZM3.743 4.349C2.17 5.227 1 6.546 1 8.5c0 1.954 1.17 3.273 2.743 4.15 1.444.806 3.168 1.198 4.433 1.322 1.266-3.215 1.27-7.266-.016-10.943-1.263.126-2.98.519-4.417 1.32Z" clip-rule="evenodd"/>
</svg>
