<svg xmlns="http://www.w3.org/2000/svg" width="16" height="16" fill="none"><path d="M7.987 2.017c-.797.064-1.279.135-1.871.276C3.533 2.91 1.488 4.318.575 6.107a5.29 5.29 0 0 0-.388 3.786c.379 1.401 1.356 2.619 2.853 3.558 1.451.91 3.483 1.511 5.213 1.542.306.005.388-.002.454-.038a.748.748 0 0 0 .256-.262c.031-.056.038-1.047.044-6.106.005-4.274-.001-6.081-.022-6.181a.476.476 0 0 0-.277-.356c-.105-.047-.379-.06-.721-.033M8 8.493v5.48h-.094c-.17 0-.605-.054-.986-.122-1.07-.192-2.156-.571-3.018-1.052-1.577-.881-2.553-2.088-2.826-3.493-.07-.357-.07-1.269 0-1.612.305-1.51 1.364-2.75 3.105-3.635a9.662 9.662 0 0 1 2.752-.91c.268-.048.829-.122 1.007-.132L8 3.013v5.48m3.293-4.443a.65.65 0 0 0-.17.119c-.063.068-.143.309-.124.372l.026.105c.02.091.156.248.266.309.075.041.262.046 2.121.052 1.421.006 2.082-.001 2.182-.022a.493.493 0 0 0 .399-.548c-.015-.138-.069-.222-.217-.342l-.101-.082-2.137-.006c-2.035-.006-2.143-.004-2.245.043m0 4a.65.65 0 0 0-.17.119c-.063.068-.143.309-.124.372l.026.105c.02.091.156.248.266.309.075.041.262.046 2.121.052 1.421.006 2.082-.001 2.182-.022a.493.493 0 0 0 .399-.548c-.015-.138-.069-.222-.217-.342l-.101-.082-2.137-.006c-2.035-.006-2.143-.004-2.245.043m0 4a.65.65 0 0 0-.17.119c-.063.068-.143.309-.124.372l.026.105c.02.091.156.248.266.309.075.041.262.046 2.121.052 1.421.006 2.082-.001 2.182-.022a.493.493 0 0 0 .399-.548c-.015-.138-.069-.222-.217-.342l-.101-.082-2.137-.006c-2.035-.006-2.143-.004-2.245.043" fill-rule="evenodd" fill="#000"/></svg>