<svg xmlns="http://www.w3.org/2000/svg" width="24" height="24" fill="none" viewBox="0 0 24 24">
  <path stroke="currentColor" stroke-linecap="round" stroke-linejoin="round" d="m21.5 10.5-1.652-7.434A2 2 0 0 0 17.9 1.5H7.1a2 2 0 0 0-1.948 1.566L3.5 10.5M6.5 21.5v2h-4v-2M22.5 21.5v2h-4v-2M23.5 18.5h-22v-5.172a2 2 0 0 1 .586-1.414L3.5 10.5h18l1.414 1.414a2 2 0 0 1 .586 1.414V18.5Z"/>
  <path fill="currentColor" d="M5.5 15.5a1 1 0 1 0 0-2 1 1 0 0 0 0 2ZM19.5 15.5a1 1 0 1 0 0-2 1 1 0 0 0 0 2Z"/>
</svg>
