<svg xmlns="http://www.w3.org/2000/svg" width="16" height="16" fill="none" viewBox="0 0 16 16"><path stroke="currentColor" fill="none" stroke-linecap="round" stroke-linejoin="round" d="M4.5 12.5v3h-4v-3M15.5 12.5v3h-4v-3M15.5 12.5H.5V8.914a1 1 0 0 1 .293-.707L1.5 7.5h13l.707.707a1 1 0 0 1 .293.707V12.5Z"/><path fill="currentColor" d="M3 11a1 1 0 1 0 0-2 1 1 0 0 0 0 2ZM13 11a1 1 0 1 0 0-2 1 1 0 0 0 0 2Z"/><path stroke="currentColor" fill="none" stroke-linecap="round" stroke-linejoin="round" d="m1.5 7.5.816-5.712A1.5 1.5 0 0 1 3.8.5h8.4a1.5 1.5 0 0 1 1.485 1.288L14.5 7.5"/></svg>