<svg xmlns="http://www.w3.org/2000/svg" width="24" height="24" fill="none"><path d="m1.15 1.15-.349.351L2.4 3.1 4 4.7v9.66l-1.16 2.32L1.68 19H24v-1H3.32l.75-1.5.75-1.5h7.527c7.135 0 7.529-.004 7.548-.07l1.643-5.48a1343.84 1343.84 0 0 0 1.622-5.43c0-.011-4.153-.02-9.23-.02H4.7L3.1 2.4 1.499.799l-.349.351m2.875 18.913A1.974 1.974 0 0 0 2.513 22c0 .752.386 1.404 1.034 1.75 1.344.716 2.944-.234 2.944-1.75a1.995 1.995 0 0 0-2.466-1.937m16 0A1.974 1.974 0 0 0 18.513 22c0 .752.386 1.404 1.034 1.75 1.344.716 2.944-.234 2.944-1.75a1.995 1.995 0 0 0-2.466-1.937" fill="currentColor" fill-rule="evenodd"/></svg>