<svg xmlns="http://www.w3.org/2000/svg" width="24" height="24" fill="none"><path d="m1.15 1.15-.349.351L2.4 3.1 4 4.7v9.66l-1.16 2.32L1.68 19H24v-1H3.32l.75-1.5.75-1.5h7.527c7.135 0 7.529-.004 7.548-.07l1.643-5.48a1343.84 1343.84 0 0 0 1.622-5.43c0-.011-4.153-.02-9.23-.02H4.7L3.1 2.4 1.499.799l-.349.351m19.331 8.34-1.347 4.49-7.067.01L5 14V5h16.828l-1.347 4.49M4.477 20.073c-.671.176-1.239.75-1.417 1.435a2.07 2.07 0 0 0 .165 1.422c.136.269.576.709.845.845a2.047 2.047 0 0 0 1.86 0c.266-.135.708-.575.841-.838a2.05 2.05 0 0 0 .169-1.408 1.806 1.806 0 0 0-.475-.876A1.972 1.972 0 0 0 5 20.005c-.143 0-.378.031-.523.068m16 0c-.671.176-1.239.75-1.417 1.435a2.07 2.07 0 0 0 .165 1.422c.136.269.576.709.845.845a2.047 2.047 0 0 0 1.86 0c.266-.135.708-.575.841-.838a2.05 2.05 0 0 0 .169-1.408 1.806 1.806 0 0 0-.475-.876A1.972 1.972 0 0 0 21 20.005c-.143 0-.378.031-.523.068m-15.167.988c.378.112.69.537.69.94 0 .33-.216.695-.516.871-.156.091-.23.108-.484.108s-.328-.017-.484-.108c-.581-.342-.683-1.098-.212-1.569.279-.279.612-.359 1.006-.242m16 0c.378.112.69.537.69.94 0 .33-.216.695-.516.871-.156.091-.23.108-.484.108s-.328-.017-.484-.108c-.581-.342-.683-1.098-.212-1.569.279-.279.612-.359 1.006-.242" fill-rule="evenodd" fill="#000"/></svg>