<svg xmlns="http://www.w3.org/2000/svg" width="16" height="16" fill="none"><path d="m.647.647-.353.354.853.852.853.853v4.721l-.587 1.76a86.301 86.301 0 0 0-.586 1.793c0 .027 1.507.033 7.586.033H16V10H2.191l.333-1 .334-1h4.991l4.991-.001 1.179-2.953c.649-1.624 1.187-2.974 1.196-2.999C15.232 2.002 14.923 2 8.97 2H2.707l-.854-.853L.999.293.647.647m12.308 4.366-.8 2H3.013v-4h10.742l-.8 2M2.733 12.015a8.223 8.223 0 0 1-.2.041c-.199.04-.552.208-.739.352-.377.29-.639.689-.744 1.133a2.574 2.574 0 0 0 0 .918 2.072 2.072 0 0 0 1.188 1.396 2.13 2.13 0 0 0 1.524 0 2.074 2.074 0 0 0 1.188-1.396 2.621 2.621 0 0 0 0-.918 2.062 2.062 0 0 0-1.436-1.478c-.14-.038-.679-.072-.781-.048m10 0a8.223 8.223 0 0 1-.2.041c-.199.04-.552.208-.739.352-.377.29-.639.689-.744 1.133a2.574 2.574 0 0 0 0 .918 2.072 2.072 0 0 0 1.188 1.396 2.13 2.13 0 0 0 1.524 0 2.074 2.074 0 0 0 1.188-1.396 2.621 2.621 0 0 0 0-.918 2.062 2.062 0 0 0-1.436-1.478c-.14-.038-.679-.072-.781-.048m-9.368 1.062c.454.187.691.619.608 1.11-.038.225-.18.458-.365.6-.587.448-1.461.116-1.581-.601-.108-.637.337-1.171.973-1.171.163 0 .249.014.365.062m10 0c.454.187.691.619.608 1.11-.038.225-.18.458-.365.6-.587.448-1.461.116-1.581-.601-.108-.637.337-1.171.973-1.171.163 0 .249.014.365.062" fill-rule="evenodd" fill="#000"/></svg>