<svg xmlns="http://www.w3.org/2000/svg" width="16" height="16" fill="none"><path d="m.647.647-.353.354.853.852.853.853v4.721l-.587 1.76a86.301 86.301 0 0 0-.586 1.793c0 .027 1.507.033 7.586.033H16V10H2.191l.333-1 .334-1 4.99-.007 4.99-.006 1.061-2.934c.583-1.613 1.068-2.96 1.077-2.993l.016-.06H2.707l-.854-.853L.999.293.647.647m2.042 11.378c-.918.169-1.571.857-1.673 1.762-.107.961.483 1.838 1.438 2.137.166.052.257.062.546.062.289 0 .38-.01.546-.062.807-.252 1.346-.894 1.438-1.711a1.995 1.995 0 0 0-1.442-2.133c-.219-.062-.659-.09-.853-.055m10 0c-.918.169-1.571.857-1.673 1.762-.107.961.483 1.838 1.438 2.137.166.052.257.062.546.062.289 0 .38-.01.546-.062.807-.252 1.346-.894 1.438-1.711a1.995 1.995 0 0 0-1.442-2.133c-.219-.062-.659-.09-.853-.055" fill="currentColor" fill-rule="evenodd"/></svg>