<svg xmlns="http://www.w3.org/2000/svg" width="76" height="77" viewBox="0 0 76 77" fill="none">
  <path d="M61.625 15.625C61.625 17.9456 60.7031 20.1712 59.0622 21.8122C57.4212 23.4531 55.1956 24.375 52.875 24.375C50.5544 24.375 48.3288 25.2969 46.6878 26.9378C45.0469 28.5788 44.125 30.8044 44.125 33.125" stroke="#0A8276" stroke-linecap="round" stroke-linejoin="round"/>
  <path d="M32.875 5.625L29.125 16.875" stroke="#0A8276" stroke-linecap="round" stroke-linejoin="round"/>
  <path d="M36.625 24.375L42.875 15.625" stroke="#0A8276" stroke-linecap="round" stroke-linejoin="round"/>
  <path d="M52.875 40.625L61.625 34.375" stroke="#0A8276" stroke-linecap="round" stroke-linejoin="round"/>
  <path d="M1.18262 74.5525L20.3751 19.375L57.8751 59.375L2.72762 76.1587C2.50689 76.226 2.27185 76.2308 2.04854 76.1727C1.82522 76.1146 1.62235 75.9959 1.46239 75.8296C1.30243 75.6633 1.19162 75.4559 1.14224 75.2305C1.09286 75.0051 1.10683 74.7704 1.18262 74.5525V74.5525Z" stroke="#0A8276" stroke-linecap="round" stroke-linejoin="round"/>
  <path d="M14.75 72.4999L8.45996 53.6299" stroke="#0A8276" stroke-linecap="round" stroke-linejoin="round"/>
  <path d="M27.6113 68.5855L15.6938 32.833" stroke="#0A8276" stroke-linecap="round" stroke-linejoin="round"/>
  <path d="M40.4738 64.6714L28.1338 27.6514" stroke="#0A8276" stroke-linecap="round" stroke-linejoin="round"/>
  <path d="M71.625 44.375L60.375 48.125" stroke="#0A8276" stroke-linecap="round" stroke-linejoin="round"/>
  <path d="M64.8324 5.34704L64.3193 3.9375" stroke="#0A8276" stroke-linecap="round" stroke-linejoin="round"/>
  <path d="M69.5306 3.63708L69.0176 2.22754" stroke="#0A8276" stroke-linecap="round" stroke-linejoin="round"/>
  <path d="M75.2137 9.01822L73.8042 9.53125" stroke="#0A8276" stroke-linecap="round" stroke-linejoin="round"/>
  <path d="M73.5038 4.319L72.0942 4.83203" stroke="#0A8276" stroke-linecap="round" stroke-linejoin="round"/>
  <path d="M65.347 12.609L63.9375 13.1221" stroke="#0A8276" stroke-linecap="round" stroke-linejoin="round"/>
  <path d="M63.6371 7.9108L62.2275 8.42383" stroke="#0A8276" stroke-linecap="round" stroke-linejoin="round"/>
  <path d="M68.4237 15.2142L67.9106 13.8047" stroke="#0A8276" stroke-linecap="round" stroke-linejoin="round"/>
  <path d="M73.1219 13.5043L72.6089 12.0947" stroke="#0A8276" stroke-linecap="round" stroke-linejoin="round"/>
  <path d="M70.3762 3.32929L63.9863 5.65503C63.4154 5.86281 63.1211 6.49404 63.3289 7.06491L65.6546 13.4548C65.8624 14.0257 66.4936 14.32 67.0645 14.1123L73.4544 11.7865C74.0253 11.5787 74.3196 10.9475 74.1118 10.3766L71.7861 3.98673C71.5783 3.41585 70.9471 3.12151 70.3762 3.32929Z" stroke="#0A8276" stroke-linecap="round" stroke-linejoin="round"/>
  <path d="M69.6169 6.79816L66.7979 7.82422L67.8239 10.6433L70.643 9.61724L69.6169 6.79816Z" stroke="#0A8276" stroke-linecap="round" stroke-linejoin="round"/>
  <path d="M45.1692 3.41569L44.9087 1.93848" stroke="#0A8276" stroke-linecap="round" stroke-linejoin="round"/>
  <path d="M50.0935 2.54752L49.833 1.07031" stroke="#0A8276" stroke-linecap="round" stroke-linejoin="round"/>
  <path d="M54.7555 8.83328L53.2783 9.09375" stroke="#0A8276" stroke-linecap="round" stroke-linejoin="round"/>
  <path d="M53.8874 3.90847L52.4102 4.16895" stroke="#0A8276" stroke-linecap="round" stroke-linejoin="round"/>
  <path d="M44.4152 10.6565L42.938 10.917" stroke="#0A8276" stroke-linecap="round" stroke-linejoin="round"/>
  <path d="M43.547 5.73269L42.0698 5.99316" stroke="#0A8276" stroke-linecap="round" stroke-linejoin="round"/>
  <path d="M46.9924 13.7555L46.7319 12.2783" stroke="#0A8276" stroke-linecap="round" stroke-linejoin="round"/>
  <path d="M51.9167 12.8874L51.6562 11.4102" stroke="#0A8276" stroke-linecap="round" stroke-linejoin="round"/>
  <path d="M50.9797 2.39087L44.283 3.57168C43.6847 3.67718 43.2852 4.2477 43.3907 4.84598L44.5715 11.5427C44.677 12.141 45.2475 12.5404 45.8458 12.435L52.5425 11.2541C53.1408 11.1487 53.5403 10.5781 53.4348 9.97984L52.254 3.28315C52.1485 2.68487 51.578 2.28538 50.9797 2.39087Z" stroke="#0A8276" stroke-linecap="round" stroke-linejoin="round"/>
  <path d="M66.1536 23.0329L66.4141 21.5557" stroke="#0A8276" stroke-linecap="round" stroke-linejoin="round"/>
  <path d="M72.0623 24.0749L72.3228 22.5977" stroke="#0A8276" stroke-linecap="round" stroke-linejoin="round"/>
  <path d="M69.1077 23.5534L69.3682 22.0762" stroke="#0A8276" stroke-linecap="round" stroke-linejoin="round"/>
  <path d="M64.6775 31.403L64.938 29.9258" stroke="#0A8276" stroke-linecap="round" stroke-linejoin="round"/>
  <path d="M70.5862 32.445L70.8467 30.9678" stroke="#0A8276" stroke-linecap="round" stroke-linejoin="round"/>
  <path d="M67.6321 31.9245L67.8926 30.4473" stroke="#0A8276" stroke-linecap="round" stroke-linejoin="round"/>
  <path d="M72.9489 24.231L65.2674 22.8766C64.6691 22.7711 64.0986 23.1706 63.9931 23.7688L63.1596 28.4959C63.0541 29.0942 63.4535 29.6647 64.0518 29.7702L71.7333 31.1247C72.3316 31.2302 72.9021 30.8307 73.0076 30.2324L73.8411 25.5053C73.9466 24.907 73.5472 24.3365 72.9489 24.231Z" stroke="#0A8276" stroke-linecap="round" stroke-linejoin="round"/>
</svg>