<svg xmlns="http://www.w3.org/2000/svg" width="76" height="77" fill="none"><path d="M49.451.809c-.037.096-.049.448-.027.782l.039.608-1.942.34c-1.351.237-1.955.297-1.985.199a13.753 13.753 0 0 1-.153-.648c-.097-.452-.149-.507-.484-.507h-.376l.032.717.032.716-.535.17c-.716.228-1.112.815-1.112 1.646 0 .567-.024.615-.308.615-.17 0-.459.057-.642.126-.266.102-.325.198-.293.475.039.34.058.348.757.311.827-.044.69-.307 1.126 2.172.145.826.233 1.581.196 1.678-.037.098-.235.178-.438.178s-.498.103-.654.23c-.242.196-.262.271-.136.507.133.248.217.269.808.2l.661-.078.19.541c.258.733.739 1.07 1.529 1.07.614 0 .626.007.704.443.122.674.282.907.594.863.248-.036.276-.114.273-.773-.003-.634.031-.74.253-.789a99.152 99.152 0 0 1 1.988-.357l1.731-.3.106.569c.113.613.379.879.739.741.189-.073.213-.192.154-.763l-.07-.677.487-.146c.267-.08.633-.32.812-.533.321-.381.376-.595.33-1.287-.024-.369.033-.409.781-.533.514-.085.742-.452.477-.77-.113-.138-.317-.164-.807-.107l-.656.077-.338-1.941c-.359-2.064-.35-2.135.263-2.139.426-.003.783-.229.783-.497 0-.402-.286-.528-.927-.408-.656.122-.72.095-.72-.311 0-.689-1.108-1.43-1.883-1.259-.346.076-.366.054-.448-.459-.048-.296-.148-.613-.223-.703-.18-.217-.603-.211-.688.011m19.201 1.156c-.128.155-.117.301.061.767.121.317.2.597.175.622-.064.064-3.563 1.333-3.676 1.333-.051 0-.207-.257-.346-.57-.201-.456-.315-.57-.567-.57-.415 0-.515.342-.271.925.25.598.261.563-.249.775-.677.283-.983.869-.902 1.727l.067.704-.534.193c-.423.154-.542.264-.573.532-.055.459.254.556.949.299l.557-.207.133.344c.473 1.225 1.263 3.475 1.229 3.5a7.09 7.09 0 0 1-.535.21c-.644.237-.846.543-.552.837.201.201.263.203.836.019l.619-.198.211.478c.342.777.948 1.016 2.15.851.175-.024.284.099.414.468.254.719.675.929.926.461.093-.175.076-.394-.061-.783-.144-.408-.154-.563-.042-.633.152-.094 3.199-1.205 3.507-1.279.101-.024.255.19.383.53.232.614.607.803.898.453.13-.157.122-.305-.042-.788-.112-.327-.189-.601-.172-.609 1.191-.53 1.435-.884 1.314-1.911l-.077-.658.576-.22c.505-.193.571-.262.537-.555-.032-.283-.097-.333-.418-.322a4.833 4.833 0 0 0-.76.103l-.38.088-.621-1.749-.673-1.894c-.03-.08.188-.225.485-.324.599-.2.829-.461.7-.796-.069-.179-.181-.209-.559-.151-.26.04-.588.108-.73.151-.206.062-.302-.015-.474-.375-.386-.811-1.257-1.127-2.131-.773-.153.063-.266-.071-.468-.557-.28-.674-.597-.83-.914-.448M51.533 3.008c.216.185.357.78.837 3.537.317 1.823.577 3.455.577 3.626 0 .422-.231.584-1.032.721-.373.064-1.957.344-3.519.621-2.991.531-3.248.53-3.354-.022l-.19-.978c-.11-.565-.695-3.93-.98-5.636-.118-.706.035-.769 3.248-1.332 1.637-.287 3.205-.569 3.483-.627.279-.057.543-.11.588-.118.044-.007.198.086.342.208m19.563.824c.179.135 1.516 3.616 2.409 6.272.264.788.264.796.019 1.03-.275.261-6.441 2.546-6.872 2.546-.293 0-.599-.379-.779-.966-.062-.2-.575-1.618-1.14-3.151-.618-1.674-1.002-2.894-.962-3.057.075-.307.075-.306 3.362-1.499a849.56 849.56 0 0 0 2.977-1.085c.773-.287.729-.283.986-.09M32.489 5.343c-.035.092-.916 2.725-1.958 5.852-1.987 5.961-2.047 6.233-1.357 6.134.245-.035.495-.687 2.201-5.739 1.058-3.135 1.913-5.842 1.9-6.017-.019-.244-.105-.326-.374-.356-.204-.024-.375.029-.412.126m35.602 1.509c-1.486.54-1.718.671-1.718.971 0 .313 1.033 3.055 1.204 3.198.202.167 3.221-.88 3.412-1.184.099-.156.021-.529-.31-1.491-.489-1.418-.8-2.016-1.042-2.005-.088.004-.784.234-1.546.511m1.55 1.35c.139.4.29.821.336.934.068.165-.106.276-.876.556-.528.193-.981.328-1.006.301-.025-.027-.194-.465-.376-.972-.305-.853-.313-.929-.11-1.002.122-.044.478-.181.791-.306.89-.353.961-.325 1.241.489M39.416 19.688c-3.311 4.642-3.551 5.075-2.814 5.075.264 0 .793-.674 3.52-4.491 2.122-2.971 3.196-4.579 3.172-4.75-.024-.169-.147-.271-.354-.295-.284-.033-.651.433-3.524 4.461m21.837-4.338c-.029.092-.087.554-.13 1.029-.297 3.278-2.588 6.145-5.696 7.127-.719.227-1.513.357-2.67.437-1.987.138-2.825.346-4.141 1.03-2.736 1.424-4.687 4.355-4.88 7.331-.065 1.007-.049 1.139.153 1.216.438.168.629-.122.729-1.104.208-2.057.938-3.616 2.374-5.068 1.68-1.699 3.151-2.321 5.961-2.522 2.738-.195 4.378-.839 6.089-2.387 1.863-1.685 3.134-4.462 3.001-6.555-.037-.572-.067-.624-.389-.661-.207-.024-.37.028-.401.127m-41.095 3.636c-.133.085-3.844 10.466-5.076 14.201-.126.383-1.611 4.658-3.299 9.5A9293.799 9293.799 0 0 0 7.725 54.34c-.543 1.568-2.33 6.714-3.971 11.437C2.113 70.499.734 74.555.69 74.789c-.169.899.671 1.844 1.639 1.844.369 0 17.896-5.273 39.978-12.029 1.567-.479 5.7-1.738 9.183-2.796 3.483-1.059 6.436-1.979 6.563-2.045.142-.074.214-.23.19-.409-.025-.178-5.426-6.038-14.15-15.35-21.942-23.419-23.556-25.132-23.679-25.129a.73.73 0 0 0-.256.111m4.331 5.438 3.236 3.46 6.079 18.238c4.079 12.237 6.03 18.258 5.93 18.296-.083.032-2.687.828-5.787 1.77-3.101.941-5.731 1.741-5.847 1.777-.177.054-1.127-2.687-6.07-17.519l-5.861-17.583 1.941-5.57c1.067-3.063 2.053-5.903 2.191-6.311l.251-.742.351.362c.193.199 1.807 1.919 3.586 3.822m41.569-3.146c-.043.069-.119.367-.169.662l-.092.538-.524-.038c-.597-.043-1.213.225-1.487.648-.249.385-1.125 5.365-1.038 5.905.089.556.507.993 1.128 1.179l.494.148-.083.665c-.072.575-.05.682.161.795.365.195.663-.092.747-.719.081-.604.056-.597 1.31-.389.961.158.896.059.692 1.049-.06.288.196.706.432.706.199 0 .518-.473.52-.77.003-.612.126-.662 1.183-.492l.966.156-.076.652c-.062.523-.034.688.138.831.327.272.619.007.745-.676l.109-.588h.666c.752 0 1.209-.27 1.439-.851.076-.194.341-1.501.589-2.904.482-2.737.476-2.954-.093-3.561-.148-.158-.473-.342-.723-.409l-.455-.123.003-.731c.003-.656-.025-.735-.273-.77-.316-.045-.472.188-.601.9-.067.372-.136.468-.301.421a8.887 8.887 0 0 0-.785-.142c-1.023-.147-1.001-.126-.974-.924.023-.697.012-.724-.316-.762-.298-.034-.357.02-.475.443-.073.266-.134.584-.134.707-.001.166-.075.208-.286.163-.157-.033-.62-.125-1.029-.204l-.744-.144.076-.555c.042-.305.043-.642.002-.748-.082-.214-.621-.263-.742-.068m.062 2.224 3.987.702c1.6.282 2.982.572 3.071.646.089.074.162.313.162.531 0 .374-.692 4.451-.836 4.924-.139.457-.393.443-4.041-.22-.557-.102-1.697-.303-2.533-.449a137.92 137.92 0 0 1-1.801-.321c-.548-.113-.577-.427-.228-2.432.495-2.834.575-3.181.78-3.386.229-.228.118-.229 1.439.005M43.131 44.324c7.569 8.077 13.761 14.729 13.76 14.784-.002.141-16.018 4.997-16.117 4.887-.1-.111-11.512-34.355-11.449-34.355.024 0 6.237 6.608 13.806 14.684m13.806-7.172c-3.794 2.731-4.434 3.237-4.434 3.508 0 .725.434.489 4.778-2.607 2.319-1.653 4.346-3.122 4.506-3.266.379-.341.325-.768-.1-.802-.234-.018-1.483.815-4.75 3.167M21.345 51.289c3.049 9.156 5.55 16.733 5.558 16.839.01.147-1.395.624-5.876 1.993-3.24.99-5.926 1.763-5.97 1.718-.043-.045-1.436-4.161-3.094-9.145L8.948 53.63l3.337-9.593c1.835-5.276 3.377-9.548 3.426-9.493.05.054 2.585 7.59 5.634 16.745m44.332-5.397c-5.052 1.706-5.705 1.956-5.74 2.201-.097.684.178.623 6.108-1.351 3.116-1.036 5.749-1.955 5.853-2.041.293-.243.167-.68-.205-.709-.174-.014-2.881.841-6.016 1.9M11.373 63.806l2.792 8.39-.971.304C7.255 74.362 2.39 75.77 2.125 75.703c-.17-.042-.374-.221-.454-.396-.128-.283.252-1.462 3.272-10.155 1.879-5.409 3.417-9.866 3.417-9.905 0-.394.621 1.37 3.013 8.559" fill-rule="evenodd" fill="#000"/></svg>