<svg xmlns="http://www.w3.org/2000/svg" width="16" height="16">
  <path fill-rule="evenodd" d="M12 1H4v2h8V1ZM4 0a1 1 0 0 0-1 1v2a1 1 0 0 0 1 1h8a1 1 0 0 0 1-1V1a1 1 0 0 0-1-1H4ZM14.5 2.5H13v-1h1.5A1.5 1.5 0 0 1 16 3v4a1.5 1.5 0 0 1-1.5 1.5H13v-1h1.5A.5.5 0 0 0 15 7V3a.5.5 0 0 0-.5-.5ZM1.5 13.5H3v1H1.5A1.5 1.5 0 0 1 0 13V9a1.5 1.5 0 0 1 1.5-1.5H3v1H1.5A.5.5 0 0 0 1 9v4a.5.5 0 0 0 .5.5ZM12 7H4v2h8V7ZM4 6a1 1 0 0 0-1 1v2a1 1 0 0 0 1 1h8a1 1 0 0 0 1-1V7a1 1 0 0 0-1-1H4ZM12 13H4v2h8v-2Zm-8-1a1 1 0 0 0-1 1v2a1 1 0 0 0 1 1h8a1 1 0 0 0 1-1v-2a1 1 0 0 0-1-1H4Z" clip-rule="evenodd"/>
</svg>
