<svg xmlns="http://www.w3.org/2000/svg" width="16" height="16" fill="none"><path d="M1.157.04a1.547 1.547 0 0 0-.983.763C-.012 1.156.001.609.001 8c0 7.394-.014 6.843.174 7.199.122.232.394.504.626.626.356.188-.195.174 7.199.174s6.843.014 7.199-.174c.232-.122.504-.394.626-.626.188-.356.174.195.174-7.199 0-5.86-.005-6.701-.04-6.851A1.533 1.533 0 0 0 14.83.038C14.574-.016 1.407-.015 1.157.04m13.545 1.003c.086.044.204.16.247.242.057.11.056 13.321-.001 13.432a.673.673 0 0 1-.302.263c-.095.026-13.197.026-13.292 0a.673.673 0 0 1-.302-.263C.995 14.606.994 1.395 1.051 1.285a.743.743 0 0 1 .242-.241c.077-.042 13.326-.043 13.409-.001m-2.436 4.019c-.07.036-.418.48-1.439 1.838-.741.985-1.356 1.8-1.368 1.811-.012.011-.618-.576-1.347-1.305-.914-.913-1.356-1.337-1.424-1.365a.48.48 0 0 0-.512.089c-.1.091-3.104 4.093-3.141 4.186a.594.594 0 0 0 .013.393c.091.174.26.283.445.286.259.004.216.052 1.68-1.895.741-.985 1.356-1.8 1.368-1.811.011-.011.623.581 1.36 1.316C8.974 9.676 9.26 9.947 9.343 9.973a.53.53 0 0 0 .428-.055c.091-.063 3.094-4.039 3.18-4.212a.554.554 0 0 0 .009-.402.708.708 0 0 0-.245-.253c-.102-.053-.337-.048-.449.011" fill-rule="evenodd" fill="#000"/></svg>