<svg xmlns="http://www.w3.org/2000/svg" width="24" height="24" fill="none"><path d="M1.252 1.078C.978 1.246 1 .227 1 12.508c0 10.95.001 11.114.078 11.24.168.274-.851.252 11.43.252 10.95 0 11.114-.001 11.24-.078.274-.168.252.85.252-11.422s.022-11.254-.252-11.422C23.622 1.001 23.459 1 12.5 1s-11.122.001-11.248.078M23 12.5V23H2V2h21v10.5M10.274 9.061c-.058.031-1.264 1.447-2.68 3.146L5.02 15.296v.215c0 .193.014.228.13.331.159.143.296.18.485.134.129-.032.402-.344 2.53-2.896 1.312-1.573 2.395-2.86 2.407-2.86.013 0 1.034.81 2.27 1.8 1.237.99 2.314 1.84 2.393 1.89.167.103.323.114.477.033.13-.07 4.181-4.126 4.244-4.25.189-.375-.274-.838-.649-.649-.048.024-.933.887-1.967 1.918l-1.88 1.873-2.32-1.861c-1.276-1.024-2.378-1.887-2.449-1.918-.161-.07-.281-.069-.417.005" fill-rule="evenodd" fill="#000"/></svg>