<svg xmlns="http://www.w3.org/2000/svg" width="16" height="16" fill="none"><path d="M6 2.507V4H4v1.013h.981l.013 1.46c.01 1.196.021 1.506.057 1.714.212 1.215.818 2.21 1.789 2.936a4.51 4.51 0 0 0 3.213.839 4.433 4.433 0 0 0 2.624-1.285c.586-.587.95-1.221 1.175-2.047.13-.478.148-.756.148-2.244V5.015l.5-.008L15 5l.007-.5.008-.5h-2.002V1.013H12V4H7.013V1.013H6v1.494m6.98 4.02c-.009 1.331-.016 1.537-.058 1.713-.309 1.31-1.294 2.329-2.562 2.65a3.235 3.235 0 0 1-.867.101c-1.653.001-3.052-1.134-3.417-2.772-.054-.244-.058-.342-.069-1.732l-.011-1.474h6.993l-.009 1.514M.987 13v3H10v-2.987H8.987v2H2V10H.987v3" fill-rule="evenodd" fill="#000"/></svg>