<svg xmlns="http://www.w3.org/2000/svg" width="24" height="24" fill="none"><path d="M9 4v2H6v1h1v2.237c0 2.224.015 2.547.148 3.163.373 1.733 1.642 3.482 3.254 4.484.73.454 1.64.822 2.478 1.002.345.074.545.09 1.12.09.575 0 .775-.016 1.12-.09a7.55 7.55 0 0 0 3.841-2.111c.989-1.025 1.633-2.174 1.891-3.375.133-.616.148-.939.148-3.163V7h1V6h-3V2h-1v4h-8V2H9v2m11 5.13c-.001 2.494-.022 2.786-.266 3.57-.32 1.029-1.219 2.275-2.154 2.986a7.068 7.068 0 0 1-2.671 1.22c-.452.098-1.366.098-1.818 0a7.018 7.018 0 0 1-2.671-1.22c-.932-.707-1.834-1.957-2.154-2.986-.244-.784-.265-1.076-.266-3.57V7h12v2.13M2 19v4h12.52v-3.48h-1.04V22H3v-7H2v4" fill-rule="evenodd" fill="#000"/></svg>