<svg xmlns="http://www.w3.org/2000/svg" width="16" height="16" fill="none"><path d="M1.096 1.055c-.443.12-.836.482-1.011.935l-.072.183L.006 6.42c-.008 4.712-.018 4.424.169 4.779.122.233.393.504.626.626.323.17.369.174 1.859.175H4v1.801c0 1.976-.006 1.897.163 2.057.16.151.35.183.544.09.058-.028 1.126-.928 2.373-1.999l2.267-1.948L12.013 12c2.953-.001 2.844.005 3.186-.175.233-.122.504-.393.626-.626.187-.355.177-.067.169-4.779l-.007-4.247-.072-.183a1.55 1.55 0 0 0-1.023-.936c-.139-.036-.927-.04-6.904-.039-5.805.002-6.768.007-6.892.04m13.591.986a.426.426 0 0 1 .249.231c.049.096.051.229.051 4.235 0 4.507.01 4.2-.151 4.35-.164.151.014.142-3.023.156-2.597.013-2.819.017-2.893.06-.044.025-.938.782-1.987 1.682l-1.906 1.638-.014-1.51c-.012-1.354-.018-1.518-.058-1.592-.057-.103-.216-.246-.295-.264a52.37 52.37 0 0 0-1.673-.02c-1.46-.006-1.622-.011-1.696-.052-.103-.056-.245-.216-.265-.295-.008-.033-.011-1.927-.007-4.209l.008-4.148.077-.101a.571.571 0 0 1 .186-.151c.106-.048.321-.05 6.704-.05 5.875-.001 6.605.003 6.693.04" fill-rule="evenodd" fill="#000"/></svg>