<svg xmlns="http://www.w3.org/2000/svg" width="24" height="24" fill="none"><path d="M1.252 2.078C.979 2.245 1 1.598 1 10.008c0 7.479.002 7.614.078 7.74.159.26.08.252 2.62.252H6v4.628l.091.136c.19.282.429.307.773.081.13-.085 1.712-1.21 3.516-2.5L13.66 18h4.98c4.869 0 4.983-.002 5.108-.078.273-.167.252.479.252-7.922s.021-7.755-.252-7.922C23.622 2.001 23.459 2 12.5 2s-11.122.001-11.248.078M23 10v7h-9.628l-.236.155a380.78 380.78 0 0 0-3.176 2.257l-2.94 2.102L7 19.427c-.022-2.268-.015-2.204-.253-2.349-.122-.075-.22-.078-2.437-.078H2V3h21v7" fill-rule="evenodd" fill="#000"/></svg>