<svg xmlns="http://www.w3.org/2000/svg" width="16" height="16" fill="currentColor" viewBox="0 0 16 16">
  <path fill-rule="evenodd" d="M14.154.646 13.8.293l-.354.353-4.2 4.2-.083.084-.037.112-.6 1.8-.317.949.95-.317 1.8-.6.111-.037.084-.083 4.2-4.2.353-.354-.353-.354-1.2-1.2ZM9.79 6.21l.246-.739L13.8 1.707l.493.493-3.763 3.763-.74.246ZM1.433 2A.433.433 0 0 0 1 2.433v12.134c0 .239.194.433.433.433h12.134c.239 0 .433-.194.433-.433V9h1v5.567c0 .791-.642 1.433-1.433 1.433H1.433A1.433 1.433 0 0 1 0 14.567V2.433C0 1.642.642 1 1.433 1H8.5v1H1.433ZM2 9h10v1H2V9Zm0 2h10v1H2v-1Zm0 2h5.5v1H2v-1Z" clip-rule="evenodd"/>
</svg>
