<svg width="24" height="24" fill="none" xmlns="http://www.w3.org/2000/svg"><path d="M11.54.026c-2.751.12-5.273 1.11-7.336 2.877A12.066 12.066 0 0 0 .586 8.34c-.754 2.322-.755 4.964-.002 7.309a12.056 12.056 0 0 0 6.084 7.085c2.213 1.108 4.806 1.49 7.332 1.082 3.024-.49 5.802-2.21 7.68-4.756 1.247-1.69 2.005-3.67 2.243-5.86.058-.54.058-1.86 0-2.4-.316-2.906-1.542-5.426-3.611-7.421C18.347 1.484 15.862.333 13.2.083a15.34 15.34 0 0 0-1.66-.057M13.36 4.1c3.045.551 5.492 2.746 6.334 5.68.243.847.284 1.17.284 2.22 0 1.05-.041 1.373-.284 2.22a8.015 8.015 0 0 1-5.475 5.474c-.846.243-1.169.284-2.219.284-1.05 0-1.373-.041-2.22-.284a8.007 8.007 0 0 1-5.474-5.476 10.637 10.637 0 0 1-.206-.858c-.09-.507-.124-1.705-.062-2.242A8.015 8.015 0 0 1 8.5 4.799a8.125 8.125 0 0 1 2.407-.74c.538-.076 1.935-.053 2.453.041" fill="#000" fill-rule="evenodd"/></svg>