<svg xmlns="http://www.w3.org/2000/svg" width="12" height="12" fill="none"><path d="M11.338 1.03a.547.547 0 0 0-.174.105c-.044.041-1.775 1.983-3.845 4.315-2.07 2.332-3.781 4.258-3.802 4.279-.037.039-.055.022-1.392-1.312C.894 7.189.761 7.062.671 7.033a.5.5 0 0 0-.607.225C.018 7.336.01 7.373.01 7.5a.492.492 0 0 0 .037.22c.051.096 3.1 3.149 3.213 3.216.076.046.113.054.24.054.122 0 .166-.009.235-.049.061-.035 1.217-1.322 4.125-4.593 2.222-2.5 4.058-4.577 4.081-4.615.132-.224.023-.557-.223-.684a.596.596 0 0 0-.38-.019" fill-rule="evenodd" fill="#000"/></svg>