<svg xmlns="http://www.w3.org/2000/svg" width="24" height="24" fill="none"><path d="M2.252 3.078C1.988 3.239 2 3.073 2 6.508c0 3.016.003 3.116.078 3.24.161.264-.004.252 3.422.252s3.261.012 3.422-.252c.075-.124.078-.224.078-3.24 0-3.435.012-3.269-.252-3.43C8.624 3.003 8.524 3 5.5 3s-3.124.003-3.248.078M8 6.5V9H3V4h5v2.5m4.252-.422a.478.478 0 0 0-.174.67c.165.27-.268.252 5.93.252 5.495 0 5.615-.002 5.74-.078a.485.485 0 0 0 0-.844C23.623 6.002 23.504 6 18 6c-5.504 0-5.623.002-5.748.078M10.3 14.046c-.044.024-1.367 1.328-2.94 2.899L4.5 19.8l-.84-.843c-.462-.463-.889-.868-.948-.9-.388-.205-.864.248-.668.636.063.124 2.114 2.181 2.244 2.25a.452.452 0 0 0 .405.013c.124-.063 6.18-6.113 6.25-6.244.206-.389-.261-.873-.643-.666m1.952 4.032a.478.478 0 0 0-.174.67c.165.27-.268.252 5.93.252 5.495 0 5.615-.002 5.74-.078a.485.485 0 0 0 0-.844C23.623 18.002 23.504 18 18 18c-5.504 0-5.623.002-5.748.078" fill-rule="evenodd" fill="#000"/></svg>