<svg xmlns="http://www.w3.org/2000/svg" width="16" height="16" fill="currentColor" viewBox="0 0 16 16">
  <path fill-rule="evenodd" d="M12.5 1a.5.5 0 1 0 0 1 .5.5 0 0 0 0-1Zm-1.5.5a1.5 1.5 0 1 1 3 0 1.5 1.5 0 0 1-3 0ZM12.5 5c-.816 0-1.453.102-1.94.48a1.526 1.526 0 0 0-.439.52h4.758a1.526 1.526 0 0 0-.44-.52C13.954 5.102 13.317 5 12.5 5Zm-2.554-.309C10.71 4.097 11.637 4 12.5 4c.863 0 1.79.097 2.554.691.583.454.946 1.1.946 1.809V7H9v-.5c0-.71.363-1.355.946-1.809ZM1.433 2A.433.433 0 0 0 1 2.433v12.134c0 .239.194.433.433.433h12.134c.239 0 .433-.194.433-.433V9h1v5.567c0 .791-.642 1.433-1.433 1.433H1.433A1.433 1.433 0 0 1 0 14.567V2.433C0 1.642.642 1 1.433 1H8.5v1H1.433ZM2 9h10v1H2V9Zm0 2h10v1H2v-1Zm0 2h5.5v1H2v-1Z" clip-rule="evenodd"/>
</svg>
