<svg width="20" height="20" fill="none" xmlns="http://www.w3.org/2000/svg"><path d="M.791.036C.478.11.194.356.08.652.018.813.017 1.048.017 10c0 8.972.001 9.187.064 9.349.084.218.312.458.529.556l.173.078h18.434l.173-.078a1.13 1.13 0 0 0 .529-.556c.063-.162.064-.377.064-9.349S19.982.813 19.919.651a1.13 1.13 0 0 0-.529-.556l-.173-.078-9.15-.005C4.804.009.863.019.791.036m14.968 5.03c.228.14.313.466.179.684-.121.196-8.125 9.167-8.216 9.208-.114.052-.335.054-.433.005-.103-.052-3.183-3.128-3.241-3.236-.115-.217-.024-.528.193-.661a.564.564 0 0 1 .486-.018c.049.026.682.641 1.406 1.366.724.726 1.327 1.319 1.34 1.319.013 0 1.75-1.942 3.86-4.316 2.111-2.374 3.878-4.339 3.927-4.366a.59.59 0 0 1 .499.015" fill-rule="evenodd" fill="#000"/></svg>