<svg xmlns="http://www.w3.org/2000/svg" width="16" height="16" fill="none"><path d="M.36.023a.576.576 0 0 0-.281.211L.013.329.006 3.451c-.008 3.465-.018 3.263.167 3.426.057.049.143.09.232.108.1.021 1.041.027 3.182.022 3.352-.008 3.106.005 3.27-.171.152-.164.142.036.15-3.249.005-2.123-.001-3.082-.022-3.18A.478.478 0 0 0 6.708.05C6.605.003 6.453.001 3.507.003 1.805.004.389.013.36.023M6 3.507V6H1.013V1.013H6v2.494m3.293-.463c-.229.127-.33.347-.268.586.04.156.121.252.268.32.102.047.25.049 3.208.049 3.402.001 3.193.011 3.357-.162a.46.46 0 0 0 .101-.524.426.426 0 0 0-.231-.249c-.096-.049-.21-.051-3.24-.05-2.239.001-3.157.009-3.195.03M6.269 9.059c-.066.033-.575.651-1.903 2.313a370.216 370.216 0 0 1-1.863 2.321c-.049.052-.06.042-.896-.791-.665-.661-.869-.85-.95-.875a.504.504 0 0 0-.65.413c-.028.244-.015.26 1.159 1.431 1.041 1.037 1.093 1.085 1.215 1.11.208.043.342-.003.502-.172.18-.19 4.053-5.052 4.082-5.124a.618.618 0 0 0-.005-.381.708.708 0 0 0-.245-.253c-.098-.051-.335-.047-.446.008m3.024 2.991a.65.65 0 0 0-.17.119c-.063.068-.143.309-.124.372l.026.105c.02.091.156.248.266.309.076.041.32.046 3.122.052 2.141.005 3.082-.001 3.182-.022a.493.493 0 0 0 .398-.548c-.015-.138-.069-.222-.217-.342l-.101-.082-3.137-.006c-3.007-.006-3.142-.004-3.245.043" fill-rule="evenodd" fill="#000"/></svg>