<svg xmlns="http://www.w3.org/2000/svg" width="16" height="16" fill="none"><path d="M3.292.05a.479.479 0 0 0-.276.351c-.04.185-.04 3.013 0 3.198.035.163.13.285.276.351.103.047.302.049 4.708.049 4.406 0 4.605-.002 4.708-.049a.479.479 0 0 0 .276-.351c.04-.185.04-3.013 0-3.198a.479.479 0 0 0-.276-.351C12.605.003 12.406.001 8 .001c-4.406 0-4.605.002-4.708.049M12 2.013v1H4v-2h8v1M5.742 5.081a.597.597 0 0 0-.173.166l-.062.1-.014 1.746L5.48 8.84l-1.613 1.907A316.069 316.069 0 0 0 2.17 12.76a1.996 1.996 0 0 0-.298 1.96c.202.507.674.974 1.168 1.155.353.129.209.125 4.96.125s4.607.004 4.96-.125c.366-.134.825-.517 1.018-.85.241-.414.337-.904.261-1.333a2.094 2.094 0 0 0-.409-.932c-.046-.059-.809-.965-1.697-2.013L10.52 8.84l-.013-1.747-.014-1.746-.062-.101a.517.517 0 0 0-.862 0l-.062.101-.008 1.869-.007 1.869.074.135c.041.075.848 1.049 1.794 2.165 1.046 1.234 1.751 2.089 1.8 2.181.074.14.08.171.08.432 0 .259-.006.295-.078.436-.091.179-.314.401-.475.473a1.547 1.547 0 0 1-.287.078c-.241.039-8.559.039-8.8 0a1.547 1.547 0 0 1-.287-.078c-.161-.072-.384-.294-.475-.473-.071-.141-.078-.177-.078-.434 0-.254.007-.294.074-.427.048-.093.711-.898 1.824-2.213.996-1.176 1.771-2.115 1.8-2.179.048-.107.05-.2.043-1.973l-.008-1.861-.062-.101a.517.517 0 0 0-.689-.165" fill-rule="evenodd" fill="#000"/></svg>