<svg xmlns="http://www.w3.org/2000/svg" width="24" height="24" fill="none"><path d="M6.252 1.078C5.994 1.236 6 1.177 6 3.508c0 2.024.004 2.117.078 2.24.166.271-.32.252 6.422.252s6.256.019 6.422-.252c.074-.123.078-.216.078-2.24 0-2.331.006-2.272-.252-2.43C18.623 1.002 18.499 1 12.5 1c-5.999 0-6.123.002-6.248.078M18 3.5V5H7V2h11v1.5M9.252 8.078c-.261.159-.252.063-.252 2.78v2.463l-2.326 2.906c-1.279 1.599-2.413 3.043-2.521 3.21a2.925 2.925 0 0 0-.431 1.864c.12 1.052.731 1.929 1.658 2.38.666.324.072.299 7.12.299 7.05 0 6.456.025 7.12-.3a2.952 2.952 0 0 0 1.669-2.66c.004-.619-.159-1.185-.473-1.644-.097-.141-1.22-1.561-2.496-3.156L16 13.321v-2.463c0-2.717.009-2.621-.252-2.78a.451.451 0 0 0-.496 0c-.265.162-.255.041-.243 2.976l.011 2.654 2.399 2.992a340.854 340.854 0 0 1 2.53 3.176c.217.303.3.572.321 1.044.015.351.005.459-.063.66-.179.529-.508.933-.951 1.169-.502.266-.092.251-6.756.251-5.234 0-6.074-.008-6.273-.06a1.956 1.956 0 0 1-1.157-.808c-.283-.43-.33-.595-.33-1.152 0-.755-.115-.581 2.697-4.096 1.324-1.656 2.443-3.067 2.485-3.137.075-.122.078-.226.078-2.747 0-2.528-.003-2.624-.078-2.748a.478.478 0 0 0-.67-.174" fill-rule="evenodd" fill="#000"/></svg>