<svg xmlns="http://www.w3.org/2000/svg" width="16" height="16" fill="none"><path d="M7.76 5.068c-.051.028-1.569 1.189-3.372 2.578-3.552 2.738-3.387 2.599-3.383 2.861a.525.525 0 0 0 .299.453c.079.04.285.044.378.006.038-.015 1.475-1.109 3.193-2.431L8 6.131l3.125 2.404c1.718 1.322 3.155 2.416 3.193 2.431a.623.623 0 0 0 .378-.006.693.693 0 0 0 .256-.251.55.55 0 0 0-.011-.435c-.041-.081-.686-.59-3.329-2.628-1.803-1.389-3.323-2.55-3.378-2.58a.561.561 0 0 0-.474.002" fill-rule="evenodd" fill="#000"/></svg>