<svg xmlns="http://www.w3.org/2000/svg" width="24" height="24" fill="none"><path d="M.684 7.623c-.221.185-.237.539-.034.726.049.045 2.581 1.894 5.625 4.107 5.499 3.998 5.536 4.024 5.725 4.024.189 0 .226-.026 5.725-4.024a898.542 898.542 0 0 0 5.625-4.107c.203-.187.187-.541-.034-.726-.173-.146-.427-.142-.65.009-.091.062-2.515 1.821-5.385 3.909-2.871 2.088-5.247 3.796-5.281 3.796-.034 0-2.41-1.708-5.281-3.796-2.87-2.088-5.294-3.847-5.385-3.909-.223-.151-.477-.155-.65-.009" fill-rule="evenodd" fill="#000"/></svg>