<svg width="64" height="64" fill="none" xmlns="http://www.w3.org/2000/svg"><path d="M42.71.55c-.042.067-.068.348-.058.623l.017.501-1.314.23c-.723.126-1.389.229-1.479.229-.108 0-.199-.155-.261-.442-.193-.899-.842-.837-.842.081 0 .509-.009.525-.423.683-.552.211-.91.736-.91 1.334 0 .44-.009.452-.413.516-.548.088-.727.303-.558.673.118.259.161.273.655.215.609-.072.514-.256.846 1.626.118.67.188 1.245.154 1.279-.033.033-.261.109-.505.168-.345.083-.454.163-.481.353-.059.423.174.585.737.51.493-.065.498-.063.566.277.038.189.173.455.3.59.262.278.954.501 1.258.404.168-.053.215.006.276.341.091.509.219.672.525.672.365 0 .489-.226.415-.761l-.064-.472 1.424-.239a42.946 42.946 0 0 1 1.5-.237c.042.001.108.183.147.403.087.481.219.666.477.666.356 0 .528-.29.461-.779-.06-.436-.05-.454.304-.582.567-.205.841-.568.92-1.217.065-.534.089-.57.389-.604.586-.065.896-.57.535-.87-.106-.088-.318-.108-.634-.061-.473.071-.476.069-.538-.281a450.76 450.76 0 0 0-.263-1.472c-.21-1.168-.189-1.275.241-1.279.336-.003.606-.213.606-.472 0-.386-.237-.515-.793-.431-.476.071-.487.066-.487-.217 0-.187-.128-.418-.363-.652-.347-.347-.575-.417-1.197-.369-.184.015-.242-.06-.303-.388-.042-.223-.126-.466-.186-.539-.139-.167-.58-.174-.681-.01m15.555.801c-.276.112-.347.429-.193.867l.15.423-1.367.493c-.752.271-1.416.493-1.476.493-.06 0-.139-.139-.177-.309-.09-.41-.407-.69-.682-.602-.298.094-.373.411-.207.874.119.332.117.399-.011.442-.083.028-.323.209-.533.402-.361.331-.382.386-.371.993l.012.642-.398.159c-.453.181-.583.41-.414.726.095.177.189.208.506.162.214-.03.466-.086.56-.124.137-.056.264.191.667 1.296.273.751.496 1.402.496 1.446 0 .045-.191.157-.423.25-.431.173-.593.414-.478.713.098.255.347.304.824.161.346-.103.444-.103.479.003.025.074.162.273.305.442.333.396.868.578 1.337.454.342-.09.364-.078.569.341.179.365.265.435.533.435.282 0 .324-.04.353-.341.019-.188-.021-.444-.088-.57-.067-.125-.097-.252-.066-.283.075-.074 2.606-.992 2.736-.992.057 0 .168.156.247.346.229.547.441.676.764.464.313-.205.315-.222.113-.796-.153-.433-.152-.44.107-.505.326-.082.756-.581.839-.973.034-.163.022-.44-.027-.616-.084-.301-.063-.333.346-.534.327-.159.445-.285.469-.499.049-.417-.264-.555-.815-.36l-.427.15-.489-1.334c-.268-.734-.488-1.395-.488-1.47 0-.075.15-.179.334-.232.183-.052.4-.196.482-.32.131-.197.125-.254-.053-.474-.192-.237-.226-.242-.666-.111-.315.095-.475.103-.501.027-.082-.248-.487-.67-.793-.829-.229-.118-.461-.147-.787-.098-.456.068-.464.063-.63-.333-.213-.509-.363-.622-.668-.499M44.419 2.514a.642.642 0 0 1 .168.39c0 .122.073.586.163 1.032.478 2.381.756 4.292.645 4.436-.072.094-.933.292-2.302.529-1.202.208-2.418.426-2.701.485-.616.128-.724.13-.901.018-.124-.079-1.091-5.07-1.091-5.631 0-.125.06-.277.134-.338.074-.062 1.118-.283 2.32-.493 1.202-.21 2.378-.423 2.613-.475.641-.142.769-.136.952.047m16.278 2.233c1.038 2.795 1.405 3.894 1.35 4.039-.05.13-5.297 2.096-5.59 2.095-.157-.001-.265-.194-.541-.962A683.64 683.64 0 0 0 55 7.4c-.389-1.064-.707-2.01-.707-2.103 0-.175.254-.349.735-.503a140.1 140.1 0 0 0 2.412-.889c1.173-.439 2.253-.79 2.398-.779.24.019.322.172.859 1.621m-31.525-.586c-.211.343-3.136 9.354-3.086 9.511.068.215.371.334.613.241.25-.096 3.341-9.409 3.198-9.638-.127-.204-.621-.281-.725-.114m28.373 1.261c-.588.221-1.128.438-1.2.483-.221.136-.137.604.329 1.827.319.839.502 1.183.642 1.21.108.02.769-.165 1.468-.413 1.053-.372 1.283-.492 1.334-.696.039-.155-.111-.715-.403-1.506-.444-1.206-.478-1.261-.783-1.284-.175-.012-.8.158-1.387.379m1.324 1.317c.123.362.211.667.197.678-.038.03-1.254.476-1.297.476-.06 0-.521-1.283-.476-1.328.072-.072 1.102-.473 1.231-.479.067-.003.223.29.345.653m-24.112 8.797c-1.37 1.916-2.552 3.596-2.627 3.734-.197.36.001.701.38.656.237-.027.701-.619 2.873-3.658 1.425-1.995 2.59-3.701 2.59-3.792 0-.237-.216-.423-.491-.423-.186 0-.748.718-2.725 3.483m17.424-3.355c-.07.071-.129.299-.13.507-.003.729-.318 1.88-.758 2.772-.795 1.614-2.399 2.926-4.093 3.348-.352.088-1.12.19-1.707.228-1.565.099-2.127.233-3.25.773-.866.416-1.147.624-1.976 1.458-1.439 1.448-2.187 3.098-2.187 4.826 0 .564.035.691.213.787.419.224.607-.019.689-.891a6.67 6.67 0 0 1 2.086-4.266c1.27-1.177 2.399-1.62 4.505-1.771 1.798-.128 2.856-.445 3.962-1.185 1.568-1.049 2.729-2.636 3.16-4.32.265-1.036.287-2.235.043-2.329-.253-.097-.415-.079-.557.063m-33 3.046c-.124.146-2.554 6.991-3.986 11.226-.129.382-2.784 8.024-5.901 16.983-3.117 8.959-5.667 16.423-5.667 16.586.001.634.771 1.417 1.395 1.418.151 0 2.095-.555 4.32-1.233a1420.93 1420.93 0 0 1 5.058-1.534c1.509-.448 20.644-6.272 21.387-6.509.352-.113 3.592-1.101 7.2-2.197s6.644-2.036 6.746-2.09c.103-.054.187-.213.187-.354 0-.194-2.795-3.24-11.376-12.397a32899.205 32899.205 0 0 0-12.133-12.943c-.417-.442-2.096-2.23-3.732-3.973-1.655-1.764-3.055-3.17-3.157-3.17-.1 0-.253.084-.341.187m3.321 4.156 2.776 2.957 4.814 14.457c2.648 7.951 4.821 14.498 4.828 14.549.017.117-9.243 2.953-9.333 2.858-.114-.12-9.267-27.684-9.268-27.911-.001-.189 3.314-9.866 3.38-9.866.015 0 1.276 1.33 2.803 2.956m33.605-2.532c-.088.056-.209.3-.268.542-.107.436-.115.442-.609.462-.507.02-.921.281-1.165.734-.171.318-.844 4.378-.777 4.691.081.382.602.898.993.984.292.064.307.094.293.607-.011.408.032.57.173.661.284.183.543-.038.662-.564l.103-.454.581.073c.88.11.881.111.802.701-.064.49-.052.525.224.651.263.12.313.108.494-.115.11-.136.2-.364.2-.506 0-.336.185-.396.874-.284l.566.093-.03.464c-.03.469.178.862.457.862.195 0 .48-.364.48-.613 0-.407.1-.524.412-.478.41.06 1.027-.219 1.256-.569.203-.31.879-3.813.887-4.598.006-.547-.358-1.029-.918-1.214-.375-.124-.381-.135-.32-.58.049-.363.021-.492-.14-.638-.325-.293-.624-.121-.766.441l-.122.483-.588-.073c-.839-.105-.861-.12-.771-.519.089-.393-.026-.792-.252-.879-.293-.112-.567.147-.641.608l-.071.445-.574-.068c-.876-.103-.892-.116-.829-.677.044-.394.017-.519-.141-.634-.231-.169-.265-.172-.475-.039m2.423 2.462c3.195.562 3.393.629 3.279 1.104-.03.123-.195 1.028-.367 2.013-.172.984-.342 1.836-.377 1.893-.101.164-.334.135-3.562-.436-1.795-.318-3.112-.601-3.201-.688-.13-.128-.102-.425.2-2.154.193-1.103.399-2.065.458-2.138.153-.192.196-.187 3.57.406M38.119 36.025c5.728 6.114 10.414 11.155 10.414 11.2 0 .078-12.308 3.868-12.559 3.868-.082 0-6.996-20.489-9.071-26.88-.079-.243.076-.08 11.216 11.812m10.657-6.446c-1.891 1.361-3.52 2.557-3.619 2.657-.15.151-.16.23-.058.453.074.164.211.271.345.271.199 0 7.185-4.889 7.384-5.167.044-.062.068-.233.053-.38-.022-.213-.091-.27-.348-.287-.262-.017-.934.422-3.757 2.453m-28.558 11.5c2.432 7.297 4.422 13.319 4.422 13.383 0 .119-9.255 2.986-9.345 2.895-.027-.027-1.128-3.284-2.446-7.237l-2.396-7.187 2.64-7.591c1.452-4.175 2.654-7.577 2.671-7.56.017.017 2.021 6.001 4.454 13.297m35.409-4.46-4.48 1.514v.374c0 .307.043.379.243.407.22.032 9.057-2.848 9.392-3.061.08-.051.127-.223.107-.398-.063-.55-.436-.468-5.262 1.164M14.356 57.68c-.086.086-9.088 2.796-9.295 2.798a.45.45 0 0 1-.474-.466c0-.117 1.209-3.691 2.688-7.941l2.688-7.729 2.216 6.649c1.219 3.657 2.199 6.667 2.177 6.689" fill-rule="evenodd" fill="#000"/></svg>