<svg xmlns="http://www.w3.org/2000/svg" width="24" height="24" fill="none"><path d="M8.252 1.078C8.005 1.229 8 1.259 8 2.698V4l-.87.001c-1.015.001-1.277.042-1.75.276a2.538 2.538 0 0 0-1.25 1.404c-.104.289-.108.331-.122 1.309L3.993 8H2.686c-1.225 0-1.314.005-1.434.078a.478.478 0 0 0-.174.67c.151.247.181.252 1.62.252H4v3H2.698c-1.439 0-1.469.005-1.62.252a.451.451 0 0 0 0 .496c.151.247.181.252 1.62.252H4v3H2.698c-1.439 0-1.469.005-1.62.252a.451.451 0 0 0 0 .496c.151.247.182.252 1.616.252h1.299l.015 1.01c.015.98.019 1.019.124 1.31.26.717.828 1.285 1.548 1.547.291.106.329.11 1.31.125l1.01.015v1.307c0 1.225.005 1.314.078 1.434.2.328.644.328.844 0 .073-.12.078-.209.078-1.438V21h3v1.31c0 1.229.005 1.318.078 1.438.2.328.644.328.844 0 .073-.12.078-.209.078-1.438V21h3v1.31c0 1.229.005 1.318.078 1.438.2.328.644.328.844 0 .073-.12.078-.209.078-1.434v-1.307l1.01-.015c.981-.015 1.019-.019 1.31-.125a2.589 2.589 0 0 0 1.548-1.547c.105-.291.109-.33.124-1.31l.015-1.01h1.307c1.225 0 1.314-.005 1.434-.078a.478.478 0 0 0 .174-.67c-.151-.247-.181-.252-1.62-.252H21v-3h1.31c1.229 0 1.318-.005 1.438-.078A.54.54 0 0 0 24 12.5a.54.54 0 0 0-.252-.422c-.12-.073-.209-.078-1.438-.078H21V9h1.31c1.229 0 1.318-.005 1.438-.078A.54.54 0 0 0 24 8.5a.54.54 0 0 0-.252-.422c-.12-.073-.209-.078-1.434-.078h-1.307l-.015-1.01c-.015-.98-.019-1.019-.124-1.31a2.53 2.53 0 0 0-1.248-1.403c-.473-.234-.735-.275-1.75-.276L17 4V2.69c0-1.229-.005-1.318-.078-1.438A.54.54 0 0 0 16.5 1a.54.54 0 0 0-.422.252c-.073.12-.078.209-.078 1.438V4h-3V2.698c0-1.439-.005-1.469-.252-1.62a.488.488 0 0 0-.686.198c-.052.101-.062.325-.062 1.422V4H9V2.69c0-1.229-.005-1.318-.078-1.438a.478.478 0 0 0-.67-.174M19.1 5.132c.315.147.624.455.767.764l.113.244v12.72l-.112.24a1.698 1.698 0 0 1-.764.767l-.244.113H6.14l-.244-.113a1.698 1.698 0 0 1-.764-.767l-.112-.24V6.14l.112-.24c.198-.425.623-.775 1.042-.859.091-.018 2.983-.03 6.426-.027l6.26.006.24.112" fill-rule="evenodd" fill="#000"/></svg>