<svg xmlns="http://www.w3.org/2000/svg" width="16" height="16" fill="none"><path d="M3.293 1.044a.78.78 0 0 0-.249.249c-.038.069-.045.197-.052.9l-.009.82h-.819c-.649 0-.852.009-.976.041-.54.141-.995.601-1.135 1.146C.001 4.403 0 4.498 0 8c0 3.507.001 3.596.053 3.8.133.52.517.934 1.036 1.116l.231.081.832.011.831.011.009.804c.007.695.014.815.053.886.061.11.218.246.309.266l.105.026c.063.019.304-.061.372-.124.159-.146.168-.202.168-1.07L4 13.013h2l.001.794c0 .868.009.924.168 1.07.068.063.309.143.372.124a2.71 2.71 0 0 1 .105-.026c.091-.02.248-.156.309-.266.039-.071.046-.191.053-.889l.009-.807h1.966l.009.807c.007.698.014.818.053.889.061.11.218.246.309.266l.105.026c.063.019.304-.061.372-.124.159-.146.168-.202.168-1.07l.001-.794h2l.001.794c0 .868.009.924.168 1.07.068.063.309.143.372.124a2.71 2.71 0 0 1 .105-.026c.091-.02.248-.156.309-.266.039-.071.046-.191.053-.886l.009-.804.831-.011.832-.011.231-.081a1.603 1.603 0 0 0 1.036-1.116c.052-.204.053-.293.053-3.8 0-3.502-.001-3.597-.053-3.8a1.632 1.632 0 0 0-1.135-1.146c-.124-.032-.327-.041-.976-.041h-.819l-.009-.82c-.009-.91-.008-.906-.194-1.069-.115-.101-.186-.121-.373-.105a.455.455 0 0 0-.39.271c-.045.1-.05.187-.05.917L12 3.013h-2v-.801c0-.841-.009-.916-.128-1.047a.545.545 0 0 0-.379-.152.422.422 0 0 0-.35.151c-.143.155-.142.153-.151 1.029l-.009.82H7.017l-.009-.82c-.009-.91-.008-.906-.194-1.069-.115-.101-.186-.121-.373-.105a.455.455 0 0 0-.39.271c-.045.1-.05.187-.05.917L6 3.013H4v-.801c0-.841-.009-.916-.128-1.047-.12-.133-.437-.199-.579-.121m11.402 3.041a.748.748 0 0 1 .2.184l.078.113V11.621l-.083.116a.702.702 0 0 1-.223.19l-.14.073H1.473l-.14-.073a.702.702 0 0 1-.223-.19l-.083-.116V4.379l.083-.116a.695.695 0 0 1 .224-.19L1.474 4l6.549.006 6.55.007.122.072" fill-rule="evenodd" fill="#000"/></svg>