<svg xmlns="http://www.w3.org/2000/svg" width="16" height="16" fill="none"><path d="M7.292.048c-.228.108-.305.291-.305.727v.238h-.306c-.559 0-.847.111-1.201.463-.344.342-.455.615-.484 1.195l-.017.338-.339.009c-.325.008-.341.012-.438.086a.509.509 0 0 0-.165.584.66.66 0 0 0 .291.284c.042.015.207.028.367.028h.292v3.995l-.327.01c-.292.008-.337.016-.423.074a.492.492 0 0 0-.199.6c.093.244.288.334.719.334h.221l.018.327c.03.568.142.843.482 1.182.339.34.614.452 1.182.482l.327.018v.221c0 .417.081.605.305.707a.472.472 0 0 0 .566-.113c.122-.129.142-.204.142-.532v-.292h4v.292c0 .328.02.403.142.532.157.165.36.206.566.113.224-.102.305-.29.305-.707v-.221l.327-.018c.568-.03.843-.142 1.182-.482.34-.339.452-.614.482-1.182l.018-.327h.221c.299 0 .475-.041.584-.137a.526.526 0 0 0 .166-.439c-.015-.138-.069-.222-.217-.342-.099-.08-.109-.082-.432-.091l-.331-.009V4h.295c.332 0 .421-.026.55-.163a.46.46 0 0 0 .101-.524c-.099-.237-.231-.3-.634-.3h-.303l-.018-.34c-.029-.582-.139-.854-.484-1.197-.354-.352-.642-.463-1.201-.463h-.306V.775c0-.132-.013-.301-.029-.376-.094-.436-.651-.536-.907-.162-.057.083-.065.125-.072.434l-.009.342H8.004L7.995.669C7.986.288 7.973.255 7.782.1a.493.493 0 0 0-.49-.052m6.418 2.046a.958.958 0 0 1 .196.196l.081.115.007 3.533c.005 2.445-.002 3.566-.022 3.639-.038.144-.245.355-.385.394-.151.041-7.023.041-7.174 0-.137-.038-.346-.249-.384-.389-.04-.144-.04-7.022 0-7.165.036-.129.251-.351.375-.387.056-.016 1.405-.024 3.64-.021l3.551.004.115.081M2.194 5.052c-.261.063-.484.196-.716.426-.342.34-.453.614-.482 1.193l-.017.338-.339.009c-.325.008-.341.012-.438.086a.518.518 0 0 0-.174.568.66.66 0 0 0 .284.291c.056.024.189.037.38.037h.295v3.995l-.327.01c-.292.008-.337.016-.423.074a.492.492 0 0 0-.199.6c.093.244.288.334.719.334h.221l.018.327c.03.568.142.843.482 1.182.339.34.614.452 1.182.482l.327.018v.221c0 .417.081.605.305.707a.472.472 0 0 0 .566-.113c.122-.129.142-.204.142-.532v-.292h4v.292c0 .328.02.403.142.532.157.165.36.206.566.113.224-.102.305-.29.305-.707v-.221l.327-.018c.568-.03.843-.142 1.182-.482.227-.227.348-.426.428-.71.056-.199.083-1.178.038-1.394a.497.497 0 0 0-.911-.181c-.062.089-.064.113-.077.721-.013.597-.016.634-.074.727-.085.136-.226.254-.345.287-.144.04-7.021.039-7.168-.001-.14-.039-.347-.25-.385-.394-.02-.073-.027-1.194-.022-3.639l.007-3.533.081-.115a.934.934 0 0 1 .196-.196l.114-.081L3.036 6c.409-.009.649-.024.684-.044a.798.798 0 0 0 .252-.284.507.507 0 0 0-.013-.359.426.426 0 0 0-.231-.249c-.09-.046-.161-.05-.747-.048-.424.001-.696.014-.787.036" fill-rule="evenodd" fill="#000"/></svg>