<svg xmlns="http://www.w3.org/2000/svg" width="24" height="24" fill="none" viewBox="0 0 24 24"><path stroke="currentColor" stroke-linecap="round" stroke-linejoin="round" d="M12.5 3.5v-2M18.5 3.5v-2M23.5 12.5h-2M23.5 6.5h-2M9.5 12.5h-2M9.5 6.5h-2M12.5 17.5v-2M18.5 17.5v-2M19.786 3.5h-8.572c-.947 0-1.714.768-1.714 1.714v8.572c0 .947.768 1.714 1.714 1.714h8.572c.947 0 1.714-.768 1.714-1.714V5.214c0-.946-.767-1.714-1.714-1.714Z"/><path stroke="currentColor" stroke-linecap="round" stroke-linejoin="round" d="M17.5 7.5h-4v4h4v-4ZM3.5 18.5h-2M3.5 12.5h-2M6.5 23.5v-2M12.5 23.5v-2M5.5 9.5h-.286c-.946 0-1.714.768-1.714 1.714v8.572c0 .947.768 1.714 1.714 1.714h8.572c.947 0 1.714-.767 1.714-1.714V19.5"/></svg>