<svg xmlns="http://www.w3.org/2000/svg" width="24" height="24" fill="none"><path d="M12.252 1.078c-.232.142-.252.229-.252 1.12V3h-.493c-.271 0-.599.019-.73.043-.81.147-1.564.89-1.733 1.709a5.088 5.088 0 0 0-.044.73V6h-.81c-.733 0-.822.008-.938.078a.485.485 0 0 0 0 .844c.116.07.205.078.938.078H9v5h-.81c-.733 0-.822.008-.938.078a.485.485 0 0 0 0 .844c.116.07.205.078.938.078H9v.518c0 .619.042.845.229 1.239.272.574.904 1.071 1.523 1.199.117.024.445.044.73.044H12v.81c0 .733.008.822.078.938.2.328.644.328.844 0 .07-.116.078-.205.078-.938V16h5v.81c0 .733.008.822.078.938.2.328.644.328.844 0 .07-.116.078-.205.078-.938V16h.518c.619 0 .845-.042 1.239-.229.574-.272 1.071-.904 1.199-1.523.024-.117.044-.445.044-.73V13h.81c.733 0 .822-.008.938-.078a.478.478 0 0 0 .174-.67c-.142-.232-.229-.252-1.12-.252H22V7h.802c.891 0 .978-.02 1.12-.252a.478.478 0 0 0-.174-.67c-.116-.07-.205-.078-.938-.078H22v-.518c0-.285-.02-.613-.044-.73-.169-.819-.923-1.562-1.733-1.709a5.432 5.432 0 0 0-.73-.043H19v-.802c0-.891-.02-.978-.252-1.12a.451.451 0 0 0-.496 0c-.232.142-.252.229-.252 1.12V3h-5v-.81c0-.733-.008-.822-.078-.938a.478.478 0 0 0-.67-.174m8.036 3.035c.239.118.481.36.599.599l.093.188v9.2l-.093.189c-.132.268-.416.534-.674.63-.212.079-.302.081-4.713.081-4.411 0-4.501-.002-4.713-.081-.258-.096-.542-.362-.674-.63l-.093-.189-.011-4.48c-.007-3.066.003-4.544.032-4.685.08-.384.452-.776.835-.88.143-.039 1.188-.049 4.704-.043l4.52.008.188.093M4.74 9.047c-.59.112-1.241.627-1.511 1.196-.187.394-.229.62-.229 1.239V12h-.81c-.733 0-.822.008-.938.078a.478.478 0 0 0-.174.67c.142.232.229.252 1.12.252H3v5h-.81c-.733 0-.822.008-.938.078a.485.485 0 0 0 0 .844c.116.07.205.078.938.078H3v.518c0 .619.042.845.229 1.239.272.574.904 1.071 1.523 1.199.117.024.445.044.73.044H6v.81c0 .733.008.822.078.938.2.328.644.328.844 0 .07-.116.078-.205.078-.938V22h5v.81c0 .733.008.822.078.938A.54.54 0 0 0 12.5 24a.54.54 0 0 0 .422-.252c.07-.116.078-.205.078-.938V22h.518c.619 0 .845-.042 1.239-.229.574-.272 1.071-.904 1.199-1.523.074-.355.057-.847-.034-.996a.478.478 0 0 0-.67-.174c-.184.112-.239.253-.262.669-.014.265-.044.417-.108.549-.126.26-.413.527-.669.623-.212.079-.302.081-4.713.081-4.411 0-4.501-.002-4.713-.081-.258-.096-.542-.362-.674-.63L4.02 20.1v-9.2l.093-.188c.221-.449.583-.672 1.14-.702.416-.023.557-.078.669-.262a.478.478 0 0 0-.174-.67c-.102-.062-.196-.077-.468-.073-.187.002-.43.021-.54.042" fill-rule="evenodd" fill="#000"/></svg>