<svg width="16" height="16" fill="none" xmlns="http://www.w3.org/2000/svg"><path d="M5.29.049a.605.605 0 0 0-.186.153l-.077.1-.008.849L5.011 2h-.779c-.884.001-1.031.02-1.352.177-.416.204-.785.692-.853 1.13-.014.095-.027.518-.027.94v.766h-.814c-.758 0-.822.004-.918.053a.48.48 0 0 0-.256.521c.015.103.043.15.144.252.078.078.16.132.215.143.049.01.436.018.859.018H2v3.997l-.833.008c-.823.008-.835.009-.92.07-.303.216-.325.608-.046.821l.101.077.849.008.849.008v.763c0 .429.013.841.029.939.016.098.077.277.137.402.211.443.676.8 1.143.878.098.016.51.029.939.029h.763l.008.849.008.849.077.101a.497.497 0 0 0 .448.192c.147-.017.255-.084.361-.224l.074-.096.008-.836.008-.835H10v.77c0 .424.008.81.018.859a.511.511 0 0 0 .143.215c.102.101.149.129.252.144a.48.48 0 0 0 .521-.256c.049-.096.053-.16.053-.918V14h.764c.43 0 .842-.013.94-.029.467-.078.932-.435 1.143-.878.06-.125.121-.304.137-.402.016-.098.029-.51.029-.94v-.764h.814c.758 0 .822-.004.918-.053a.48.48 0 0 0 .256-.521c-.015-.103-.043-.15-.144-.252a.511.511 0 0 0-.215-.143c-.049-.01-.435-.018-.859-.018H14V6h.77c.424 0 .81-.008.859-.018a.511.511 0 0 0 .215-.143c.101-.102.129-.149.144-.252a.48.48 0 0 0-.256-.521c-.096-.049-.16-.053-.918-.053H14v-.764c0-.43-.013-.842-.029-.94-.1-.601-.627-1.141-1.238-1.269-.139-.029-.384-.039-.966-.04h-.78v-.814c0-.758-.004-.822-.053-.918a.48.48 0 0 0-.521-.256c-.103.015-.15.043-.252.144a.511.511 0 0 0-.143.215C10.008.42 10 .806 10 1.23V2H6.003l-.008-.835-.008-.836-.074-.096C5.802.087 5.697.024 5.54.01a.445.445 0 0 0-.25.039m7.363 3.009a.721.721 0 0 1 .297.302c.048.09.05.254.05 4.613 0 3.736-.006 4.538-.036 4.623a.696.696 0 0 1-.308.346l-.109.058H8c-4.385 0-4.55-.002-4.64-.05a.721.721 0 0 1-.302-.297L3 12.547V8c0-4.385.002-4.55.05-4.64a.64.64 0 0 1 .443-.348c.052-.01 2.11-.017 4.574-.015l4.48.003.106.058m-8.303.961a.6.6 0 0 0-.191.14c-.102.101-.132.152-.145.244-.009.064-.013 1.725-.009 3.69l.008 3.574.062.086c.034.048.105.12.158.16l.096.074h7.342l.096-.074a.884.884 0 0 0 .158-.16l.062-.086V4.329l-.074-.096a.884.884 0 0 0-.16-.158l-.086-.062L8.04 4.01c-1.995-.002-3.655.002-3.69.009M11 8v3H5l-.007-2.973c-.004-1.636-.001-2.989.006-3.007.01-.027.626-.032 3.007-.027L11 5v3" fill-rule="evenodd" fill="#000"/></svg>