<svg xmlns="http://www.w3.org/2000/svg" width="24" height="24" fill="none"><path d="M4.252 2.078C4.005 2.229 4 2.259 4 3.698V5l-.37.001c-.488.001-.859.083-1.25.276a2.538 2.538 0 0 0-1.262 1.445l-.098.298v10l.111.3a2.58 2.58 0 0 0 1.549 1.544c.245.087.394.11.81.127l.51.02v1.304c0 1.224.005 1.313.078 1.433.2.328.644.328.844 0 .073-.12.078-.209.078-1.438V19h3v1.31c0 1.229.005 1.318.078 1.438.2.328.644.328.844 0 .073-.12.078-.209.078-1.438V19h3v1.31c0 1.229.005 1.318.078 1.438.2.328.644.328.844 0 .073-.12.078-.209.078-1.438V19h3v1.31c0 1.229.005 1.318.078 1.438.2.328.644.328.844 0 .073-.12.078-.209.078-1.438V19h3v1.31c0 1.229.005 1.318.078 1.438a.478.478 0 0 0 .67.174c.247-.151.252-.182.252-1.615v-1.296l.51-.02c.415-.016.566-.04.81-.126a2.584 2.584 0 0 0 1.549-1.545l.111-.3V6.98l-.111-.3a2.537 2.537 0 0 0-1.249-1.403c-.391-.193-.762-.275-1.25-.276L21 5V3.698c0-1.439-.005-1.469-.252-1.62a.451.451 0 0 0-.496 0c-.247.151-.252.181-.252 1.62V5h-3V3.698c0-1.439-.005-1.469-.252-1.62a.451.451 0 0 0-.496 0c-.247.151-.252.181-.252 1.62V5h-3V3.69c0-1.229-.005-1.318-.078-1.438a.485.485 0 0 0-.844 0c-.073.12-.078.209-.078 1.438V5H9V3.698c0-1.439-.005-1.469-.252-1.62a.488.488 0 0 0-.686.198C8.01 2.377 8 2.601 8 3.698V5H5V3.69c0-1.229-.005-1.318-.078-1.438a.478.478 0 0 0-.67-.174M22.1 6.132c.315.147.624.455.767.764l.113.244v9.72l-.113.244a1.698 1.698 0 0 1-.767.764l-.24.112H3.14l-.244-.113a1.698 1.698 0 0 1-.764-.767l-.112-.24V7.14l.112-.24c.198-.425.624-.775 1.042-.859.091-.018 4.333-.03 9.426-.027l9.26.006.24.112" fill-rule="evenodd" fill="#000"/></svg>