<svg width="64" height="64" viewBox="0 0 64 64" fill="none" xmlns="http://www.w3.org/2000/svg">
<g clip-path="url(#clip0_22996_448451)">
<path d="M52.5 12.5C52.5 14.3565 51.7625 16.137 50.4497 17.4497C49.137 18.7625 47.3565 19.5 45.5 19.5C43.6435 19.5 41.863 20.2375 40.5503 21.5503C39.2375 22.863 38.5 24.6435 38.5 26.5" stroke="#0A8276" stroke-linecap="round" stroke-linejoin="round"/>
<path d="M29.5 4.5L26.5 13.5" stroke="#0A8276" stroke-linecap="round" stroke-linejoin="round"/>
<path d="M32.5 19.5L37.5 12.5" stroke="#0A8276" stroke-linecap="round" stroke-linejoin="round"/>
<path d="M45.5 32.5L52.5 27.5" stroke="#0A8276" stroke-linecap="round" stroke-linejoin="round"/>
<path d="M4.14629 59.642L19.5003 15.5L49.5003 47.5L5.38229 60.927C5.20571 60.9808 5.01768 60.9847 4.83902 60.9382C4.66037 60.8917 4.49808 60.7967 4.37011 60.6637C4.24214 60.5306 4.15349 60.3647 4.11399 60.1844C4.07448 60.0041 4.08566 59.8164 4.14629 59.642V59.642Z" stroke="#0A8276" stroke-linecap="round" stroke-linejoin="round"/>
<path d="M15.0007 57.9998L9.96875 42.9038" stroke="#0A8276" stroke-linecap="round" stroke-linejoin="round"/>
<path d="M25.2889 54.8676L15.7549 26.2656" stroke="#0A8276" stroke-linecap="round" stroke-linejoin="round"/>
<path d="M35.579 51.7371L25.707 22.1211" stroke="#0A8276" stroke-linecap="round" stroke-linejoin="round"/>
<path d="M60.5 35.5L51.5 38.5" stroke="#0A8276" stroke-linecap="round" stroke-linejoin="round"/>
<path d="M55.0657 4.27753L54.6553 3.1499" stroke="#0A8276" stroke-linecap="round" stroke-linejoin="round"/>
<path d="M58.8245 2.90937L58.4141 1.78174" stroke="#0A8276" stroke-linecap="round" stroke-linejoin="round"/>
<path d="M63.3708 7.21409L62.2432 7.62451" stroke="#0A8276" stroke-linecap="round" stroke-linejoin="round"/>
<path d="M62.0036 3.4553L60.876 3.86572" stroke="#0A8276" stroke-linecap="round" stroke-linejoin="round"/>
<path d="M55.4782 10.0871L54.3506 10.4976" stroke="#0A8276" stroke-linecap="round" stroke-linejoin="round"/>
<path d="M54.1101 6.32835L52.9824 6.73877" stroke="#0A8276" stroke-linecap="round" stroke-linejoin="round"/>
<path d="M57.9387 12.1706L57.5283 11.043" stroke="#0A8276" stroke-linecap="round" stroke-linejoin="round"/>
<path d="M61.6975 10.8029L61.2871 9.67529" stroke="#0A8276" stroke-linecap="round" stroke-linejoin="round"/>
<path d="M59.5014 2.66314L54.3894 4.52373C53.9327 4.68995 53.6973 5.19494 53.8635 5.65164L55.7241 10.7636C55.8903 11.2203 56.3953 11.4557 56.852 11.2895L61.9639 9.42893C62.4206 9.2627 62.6561 8.75772 62.4899 8.30102L60.6293 3.18909C60.463 2.73239 59.9581 2.49691 59.5014 2.66314Z" stroke="#0A8276" stroke-linecap="round" stroke-linejoin="round"/>
<path d="M58.8939 5.43843L56.6387 6.25928L57.4595 8.51454L59.7148 7.69369L58.8939 5.43843Z" stroke="#0A8276" stroke-linecap="round" stroke-linejoin="round"/>
<path d="M39.3353 2.73157L39.127 1.5498" stroke="#0A8276" stroke-linecap="round" stroke-linejoin="round"/>
<path d="M43.2738 2.03724L43.0654 0.855469" stroke="#0A8276" stroke-linecap="round" stroke-linejoin="round"/>
<path d="M47.004 7.06604L45.8223 7.27441" stroke="#0A8276" stroke-linecap="round" stroke-linejoin="round"/>
<path d="M46.3097 3.12658L45.1279 3.33496" stroke="#0A8276" stroke-linecap="round" stroke-linejoin="round"/>
<path d="M38.7316 8.52453L37.5498 8.73291" stroke="#0A8276" stroke-linecap="round" stroke-linejoin="round"/>
<path d="M38.0372 4.58508L36.8555 4.79346" stroke="#0A8276" stroke-linecap="round" stroke-linejoin="round"/>
<path d="M40.7933 11.004L40.585 9.82227" stroke="#0A8276" stroke-linecap="round" stroke-linejoin="round"/>
<path d="M44.7328 10.3097L44.5244 9.12793" stroke="#0A8276" stroke-linecap="round" stroke-linejoin="round"/>
<path d="M43.9838 1.91231L38.6264 2.85696C38.1478 2.94135 37.8282 3.39777 37.9126 3.8764L38.8572 9.23375C38.9416 9.71238 39.398 10.032 39.8767 9.94757L45.234 9.00293C45.7126 8.91853 46.0322 8.46211 45.9478 7.98348L45.0032 2.62613C44.9188 2.1475 44.4624 1.82791 43.9838 1.91231Z" stroke="#0A8276" stroke-linecap="round" stroke-linejoin="round"/>
<path d="M56.1237 18.4254L56.332 17.2437" stroke="#0A8276" stroke-linecap="round" stroke-linejoin="round"/>
<path d="M60.8502 19.2589L61.0586 18.0771" stroke="#0A8276" stroke-linecap="round" stroke-linejoin="round"/>
<path d="M58.4869 18.8424L58.6953 17.6606" stroke="#0A8276" stroke-linecap="round" stroke-linejoin="round"/>
<path d="M54.942 25.1222L55.1504 23.9404" stroke="#0A8276" stroke-linecap="round" stroke-linejoin="round"/>
<path d="M59.6696 25.9557L59.8779 24.7739" stroke="#0A8276" stroke-linecap="round" stroke-linejoin="round"/>
<path d="M57.3063 25.5387L57.5146 24.3569" stroke="#0A8276" stroke-linecap="round" stroke-linejoin="round"/>
<path d="M61.5597 19.3838L55.4145 18.3003C54.9359 18.2159 54.4794 18.5355 54.395 19.0141L53.7282 22.7958C53.6438 23.2744 53.9634 23.7308 54.4421 23.8152L60.5873 24.8988C61.0659 24.9832 61.5223 24.6636 61.6067 24.1849L62.2735 20.4033C62.3579 19.9247 62.0383 19.4682 61.5597 19.3838Z" stroke="#0A8276" stroke-linecap="round" stroke-linejoin="round"/>
</g>
<defs>
<clipPath id="clip0_22996_448451">
<rect width="64" height="64" fill="white"/>
</clipPath>
</defs>
</svg>
