<svg width="16" height="16" viewBox="0 0 16 16" fill="none" xmlns="http://www.w3.org/2000/svg">
<g id="chip-16">
<path id="Vector" d="M5.5 2.5V0.5" stroke="#1D1D1D" stroke-linecap="round" stroke-linejoin="round"/>
<path id="Vector_2" d="M10.5 2.5V0.5" stroke="#1D1D1D" stroke-linecap="round" stroke-linejoin="round"/>
<path id="Vector_3" d="M15.5 10.5H13.5" stroke="#1D1D1D" stroke-linecap="round" stroke-linejoin="round"/>
<path id="Vector_4" d="M15.5 5.5H13.5" stroke="#1D1D1D" stroke-linecap="round" stroke-linejoin="round"/>
<path id="Vector_5" d="M2.5 10.5H0.5" stroke="#1D1D1D" stroke-linecap="round" stroke-linejoin="round"/>
<path id="Vector_6" d="M2.5 5.5H0.5" stroke="#1D1D1D" stroke-linecap="round" stroke-linejoin="round"/>
<path id="Vector_7" d="M5.5 15.5V13.5" stroke="#1D1D1D" stroke-linecap="round" stroke-linejoin="round"/>
<path id="Vector_8" d="M10.5 15.5V13.5" stroke="#1D1D1D" stroke-linecap="round" stroke-linejoin="round"/>
<path id="Vector_9" d="M12.4 2.5H3.6C2.99249 2.5 2.5 2.99249 2.5 3.6V12.4C2.5 13.0075 2.99249 13.5 3.6 13.5H12.4C13.0075 13.5 13.5 13.0075 13.5 12.4V3.6C13.5 2.99249 13.0075 2.5 12.4 2.5Z" stroke="#1D1D1D" stroke-linecap="round" stroke-linejoin="round"/>
<path id="Vector_10" d="M11.5 4.5H4.5V11.5H11.5V4.5Z" stroke="#1D1D1D" stroke-linecap="round" stroke-linejoin="round"/>
</g>
</svg>
