<svg xmlns="http://www.w3.org/2000/svg" width="16" height="16" viewBox="0 0 16 16">
  <path d="M9.545 10V5.422h.812V10h-.812Zm-4.498 0 1.49-4.578h.953L8.98 10h-.853l-.7-2.436a24.182 24.182 0 0 1-.217-.749l-.196-.763h-.028a24.13 24.13 0 0 1-.196.77c-.066.252-.136.5-.21.742L5.873 10h-.826Zm.882-1.239v-.637h2.156v.637H5.929Z"/>
  <path fill="#1D1D1D" fill-rule="evenodd" d="M6 0v2h4V0h1v2h3v3h2v1h-2v4h2v1h-2v3h-3v2h-1v-2H6v2H5v-2H2v-3H0v-1h2V6H0V5h2V2h3V0h1ZM3 3v10h10V3H3Z" clip-rule="evenodd"/>
</svg>
