<svg xmlns="http://www.w3.org/2000/svg" width="24" height="24" fill="none"><path d="M7 4.5V8h3.52l.001-.41c.001-.466.084-.733.322-1.033.569-.72 1.745-.72 2.314 0 .238.3.321.567.322 1.033l.001.41H17V1H7v3.5m9 0V7l-.77-.001h-.77l-.093-.295c-.121-.382-.343-.718-.686-1.035-.511-.473-.962-.646-1.681-.646-.719 0-1.17.173-1.681.646-.345.32-.576.668-.69 1.041l-.089.289L8.77 7H8V2h8v2.5M2 13v10h20V3h-3v1h2v18H3V4h2V3H2v10m9.48-.74v2.26H7v1h4.48V20h1.04v-4.48H17v-1h-4.48V10h-1.04v2.26" fill-rule="evenodd" fill="#000"/></svg>