<svg xmlns="http://www.w3.org/2000/svg" width="24" height="24" fill="none"><path d="M7 4.5V8h3.52l.001-.41c.001-.466.084-.733.322-1.033.569-.72 1.745-.72 2.314 0 .238.3.321.567.322 1.033l.001.41H17V1H7v3.5m9 0V7l-.77-.001h-.77l-.093-.295c-.121-.382-.343-.718-.686-1.035-.511-.473-.962-.646-1.681-.646-.719 0-1.17.173-1.681.646-.345.32-.576.668-.69 1.041l-.089.289L8.77 7H8V2h8v2.5M2 13v10h20V3h-3v1h2v18H3V4h2V3H2v10m10.99 1.31L11 16.3l-1-1-1-.999-.35.349-.35.35 1.35 1.35L11 17.7l2.35-2.35 2.349-2.349-.339-.341a4.49 4.49 0 0 0-.359-.34c-.012 0-.917.895-2.011 1.99" fill-rule="evenodd" fill="#000"/></svg>