<svg xmlns="http://www.w3.org/2000/svg" width="16" height="16" fill="none"><path d="M7.72 1.042C4.483 1.374 1.811 3.796 1.151 7a8.3 8.3 0 0 0-.112 2.28 7.642 7.642 0 0 0 1.595 3.893 9.377 9.377 0 0 0 1.346 1.31 7.627 7.627 0 0 0 3.437 1.441c.513.08 1.602.087 2.076.014.928-.143 1.537-.332 2.334-.725a7.359 7.359 0 0 0 3.386-3.386c.393-.797.582-1.406.725-2.334.073-.474.066-1.563-.014-2.076a7.626 7.626 0 0 0-1.442-3.438c-.306-.408-.992-1.105-1.375-1.396-.991-.752-2.044-1.228-3.214-1.451-.579-.11-1.572-.151-2.173-.09m1.333.985c1.513.14 2.859.748 3.931 1.775a6.477 6.477 0 0 1 1.926 3.625c.071.413.097 1.289.051 1.735a6.556 6.556 0 0 1-1.41 3.423c-.413.51-.922.972-1.484 1.348a7.144 7.144 0 0 1-2.174.917c-.905.192-1.924.193-2.771.004-1.957-.438-3.573-1.703-4.443-3.481a5.924 5.924 0 0 1-.464-1.22 6.507 6.507 0 0 1 2.457-6.902 6.514 6.514 0 0 1 4.381-1.224M8.28 3.055a.445.445 0 0 0-.23.238c-.046.102-.049.24-.049 2.707 0 2.466.003 2.606.049 2.708a.483.483 0 0 0 .358.278c.098.02.77.027 2.18.021 1.859-.006 2.046-.011 2.121-.052.11-.061.246-.218.266-.309a2.71 2.71 0 0 1 .026-.105c.019-.063-.061-.304-.124-.372a.65.65 0 0 0-.17-.119c-.101-.046-.214-.049-1.9-.049L9.015 8l-.008-2.313c-.006-1.9-.014-2.326-.044-2.38a.726.726 0 0 0-.248-.256.638.638 0 0 0-.435.004" fill-rule="evenodd" fill="#000"/></svg>