<svg xmlns="http://www.w3.org/2000/svg" width="16" height="16" fill="currentColor" viewBox="0 0 16 16">
  <path fill-rule="evenodd" d="M2.626 4.168C3.71 2.95 5.34 2 7.5 2c2.157 0 3.702.905 4.743 2.036a7.408 7.408 0 0 1 1.702 3.161c.25.091.516.218.77.387C15.387 8.032 16 8.8 16 10s-.613 1.968-1.285 2.416c-.645.43-1.366.584-1.715.584v-1c.151 0 .68-.096 1.16-.416.453-.302.84-.784.84-1.584s-.387-1.282-.84-1.584C13.68 8.096 13.151 8 13 8h-1V7h.848a6.468 6.468 0 0 0-1.341-2.286C10.631 3.762 9.343 3 7.5 3c-1.84 0-3.209.8-4.126 1.832a5.7 5.7 0 0 0-1.25 2.292A3.13 3.13 0 0 1 3 7v1c-1.09 0-2 .796-2 2 0 .636.21 1.128.541 1.459.331.331.823.541 1.459.541v1c-.864 0-1.622-.29-2.166-.834C.29 11.622 0 10.864 0 10c0-.957.397-1.746 1.01-2.274.08-1.098.631-2.45 1.616-3.558Z" clip-rule="evenodd"/>
  <path fill-rule="evenodd" d="m6 6.793 2.354 2.353-.708.708L6.5 8.707V14h-1V8.707L4.354 9.854l-.708-.708L6 6.793ZM10 14.707l-2.354-2.353.708-.708L9.5 12.793V7.5h1v5.293l1.146-1.147.708.708L10 14.707Z" clip-rule="evenodd"/>
</svg>
