<svg xmlns="http://www.w3.org/2000/svg" width="16" height="16" fill="currentColor" viewBox="0 0 16 16">
  <path fill-rule="evenodd" d="M7.5 2c-2.16 0-3.791.95-4.874 2.168-.985 1.108-1.535 2.46-1.616 3.558C.397 8.254 0 9.043 0 10c0 .864.29 1.622.834 2.166C1.378 12.71 2.136 13 3 13h10c.349 0 1.07-.154 1.715-.584C15.387 11.968 16 11.2 16 10s-.613-1.968-1.285-2.416a3.643 3.643 0 0 0-.77-.387 7.408 7.408 0 0 0-1.702-3.16C11.203 2.904 9.657 2 7.5 2Zm5.348 5a6.468 6.468 0 0 0-1.341-2.286C10.631 3.762 9.343 3 7.5 3c-1.84 0-3.209.8-4.126 1.832a5.7 5.7 0 0 0-1.25 2.292A3.13 3.13 0 0 1 3 7c.738 0 1.313.138 1.782.361.467.222.803.516 1.072.785l-.708.708c-.23-.231-.472-.437-.794-.59C4.033 8.112 3.608 8 3 8c-1.09 0-2 .796-2 2 0 .636.21 1.128.541 1.459.331.331.823.541 1.459.541h10c.151 0 .68-.096 1.16-.416.453-.302.84-.784.84-1.584s-.387-1.282-.84-1.584C13.68 8.096 13.151 8 13 8h-1V7h.848Z" clip-rule="evenodd"/>
</svg>
