<svg xmlns="http://www.w3.org/2000/svg" width="16" height="16" fill="none"><path d="M6.96 2.029A5.515 5.515 0 0 0 2.733 4.76a5.425 5.425 0 0 0-.682 2.021c-.045.4-.036.383-.274.487a3.015 3.015 0 0 0-1.55 1.601 2.98 2.98 0 0 0 .655 3.242 2.989 2.989 0 0 0 1.868.874c.414.039 10.081.039 10.49 0 1.242-.117 2.217-.888 2.611-2.064.568-1.698-.548-3.558-2.321-3.867a2.68 2.68 0 0 0-.386-.041c-.176 0-.149.048-.212-.373a5.792 5.792 0 0 0-.522-1.613 5.514 5.514 0 0 0-5.45-2.998m1.2 1.026c.745.12 1.386.382 1.984.808.269.192.734.648.94.924.426.57.725 1.247.84 1.906.014.081.041.346.06.59.04.529.068.593.299.706l.146.072.278-.034c.433-.054.749-.011 1.098.147.463.211.82.563 1.019 1.003a2.144 2.144 0 0 1 0 1.646 2.092 2.092 0 0 1-1.063 1.032c-.378.154-.098.147-5.854.139l-5.28-.007-.25-.087a2.042 2.042 0 0 1-1.272-1.273 2.44 2.44 0 0 1-.066-1.006 2.007 2.007 0 0 1 1.433-1.544c.258-.07.33-.106.417-.21.094-.111.124-.237.124-.514 0-.415.105-.967.266-1.403A4.517 4.517 0 0 1 6.82 3.056a5.887 5.887 0 0 1 1.34-.001" fill-rule="evenodd" fill="#000"/></svg>