<svg xmlns="http://www.w3.org/2000/svg" width="24" height="24" fill="none"><path d="M10.88 4.399c-3.551.3-6.471 3.091-6.94 6.635-.026.193-.04.217-.154.256-.295.102-.838.413-1.136.651-1.431 1.146-1.995 3.142-1.368 4.849.458 1.249 1.478 2.237 2.711 2.626.742.234.399.224 8.002.224 7.58 0 7.287.008 8.005-.221 1.627-.519 2.817-2.013 2.951-3.707a4.295 4.295 0 0 0-3.091-4.49 4.758 4.758 0 0 0-.53-.121c-.172-.023-.213-.044-.227-.115-.195-1.036-.382-1.631-.735-2.346-1.104-2.235-3.259-3.822-5.67-4.176a9.65 9.65 0 0 0-1.818-.065m1.72 1.016a6.692 6.692 0 0 1 5.414 5.025c.092.381.135.653.207 1.33l.025.23.327.001c1.35.003 2.464.657 3.062 1.799.254.486.331.786.355 1.383.026.687-.044 1.054-.308 1.597-.479.985-1.405 1.689-2.446 1.858-.354.057-14.118.057-14.472 0-1.041-.169-1.968-.873-2.446-1.858-.237-.489-.318-.864-.318-1.468.001-.573.1-1.007.341-1.492a3.474 3.474 0 0 1 1.334-1.429c.167-.097.784-.314 1.049-.368.102-.021.105-.03.132-.449.208-3.225 2.762-5.875 5.986-6.213a8.778 8.778 0 0 1 1.758.054" fill-rule="evenodd" fill="#000"/></svg>