<svg xmlns="http://www.w3.org/2000/svg" width="16" height="16" fill="none"><path d="M7.693.017a3.183 3.183 0 0 0-.72.207A2.521 2.521 0 0 0 5.522 2.17c-.039.28-.036.447.012.722.095.548.319.987.692 1.363.485.486 1.093.74 1.774.74.969 0 1.815-.531 2.24-1.405a2.2 2.2 0 0 0 .249-1.11 2.15 2.15 0 0 0-.203-.984A2.537 2.537 0 0 0 8.613.08c-.221-.055-.746-.09-.92-.063m.693 1.037c.245.064.463.194.67.399.293.289.438.638.437 1.048a1.483 1.483 0 0 1-.831 1.335c-.467.223-.857.223-1.324 0-.604-.289-.941-.984-.802-1.655.106-.51.559-.989 1.067-1.126.192-.051.587-.052.783-.001M5.293 6.051c-.15.071-3.195 3.124-3.252 3.261-.088.213-.08.235.503 1.402.392.785.567 1.11.626 1.159.252.212.635.139.773-.146.107-.221.1-.244-.388-1.227l-.447-.901.933-.933.932-.933.014 3.634L5 15l.5.007.5.008V7.013h4v8.002l.5-.008L11 15l.013-3.633.014-3.634.932.933.933.933-.447.901c-.488.983-.495 1.006-.388 1.227.147.303.596.362.811.106.114-.135 1.104-2.139 1.123-2.271.033-.244.068-.203-1.614-1.891-1.061-1.065-1.598-1.586-1.67-1.62-.102-.048-.221-.05-2.707-.05-2.487 0-2.605.002-2.707.05" fill="currentColor" fill-rule="evenodd"/></svg>