<svg xmlns="http://www.w3.org/2000/svg" width="24" height="24" fill="none"><path d="M11.873 1.06a3.536 3.536 0 0 0-1.915 1.045c-.399.422-.644.852-.825 1.443-.095.315-.107.415-.107.952 0 .537.012.637.107.952.592 1.941 2.541 2.977 4.455 2.369 1.016-.323 1.909-1.215 2.232-2.23.123-.386.179-.731.179-1.091a3.53 3.53 0 0 0-2.621-3.382c-.419-.109-1.098-.135-1.505-.058m1.147 1a2.502 2.502 0 0 1 1.695 1.302c.372.756.375 1.516.008 2.258a2.53 2.53 0 0 1-1.403 1.248c-.268.097-.355.108-.82.108-.465 0-.552-.011-.82-.108a2.53 2.53 0 0 1-1.403-1.248c-.93-1.88.695-3.989 2.743-3.56m-4.788 9.034c-.076.052-1.127.886-2.335 1.855-1.617 1.295-2.226 1.806-2.309 1.935-.217.342-.299.865-.192 1.216.078.255.174.413.973 1.611C5.148 18.881 5.252 19 5.5 19s.5-.252.5-.5c0-.15-.048-.231-.884-1.486-.7-1.052-.756-1.15-.756-1.316 0-.147.023-.204.13-.317.072-.076.886-.742 1.81-1.48l1.68-1.341.02 5.55c.016 4.482.03 5.568.073 5.642.07.123.281.248.419.248.161 0 .34-.104.43-.252.076-.125.078-.246.078-5.938V12h7v5.81c0 5.692.002 5.813.078 5.938.09.148.269.252.43.252a.589.589 0 0 0 .419-.248c.043-.074.057-1.16.073-5.642l.02-5.55 1.68 1.341c.924.738 1.739 1.404 1.81 1.48.107.113.13.17.13.317 0 .166-.056.264-.756 1.316C19.048 18.269 19 18.35 19 18.5c0 .248.252.5.5.5s.352-.119 1.131-1.289c.799-1.198.895-1.356.973-1.611.107-.351.025-.874-.192-1.216-.083-.129-.692-.64-2.309-1.935a185.168 185.168 0 0 0-2.335-1.855L16.629 11H8.371l-.139.094" fill-rule="evenodd" fill="#000"/></svg>