<svg xmlns="http://www.w3.org/2000/svg" width="16" height="16" fill="none" viewBox="0 0 16 16">
  <path fill="currentColor" d="M12.053 11.276a.5.5 0 1 0 .894.448l-.894-.448ZM13.5 9.5l.447.224a.5.5 0 0 0-.093-.578L13.5 9.5Zm-3-3 .354-.354A.5.5 0 0 0 10.5 6v.5Zm-5 0V6a.5.5 0 0 0-.354.146L5.5 6.5Zm-3 3-.354-.354a.5.5 0 0 0-.093.578L2.5 9.5Zm.553 2.224a.5.5 0 1 0 .894-.448l-.894.448ZM5 14.5v.5h1v-.5H5Zm5 0v.5h1v-.5h-1Zm-.5-12A1.5 1.5 0 0 1 8 4v1a2.5 2.5 0 0 0 2.5-2.5h-1ZM8 4a1.5 1.5 0 0 1-1.5-1.5h-1A2.5 2.5 0 0 0 8 5V4ZM6.5 2.5A1.5 1.5 0 0 1 8 1V0a2.5 2.5 0 0 0-2.5 2.5h1ZM8 1a1.5 1.5 0 0 1 1.5 1.5h1A2.5 2.5 0 0 0 8 0v1Zm4.947 10.724 1-2-.894-.448-1 2 .894.448Zm.907-2.578-3-3-.708.708 3 3 .708-.708ZM10.5 6h-5v1h5V6Zm-5.354.146-3 3 .708.708 3-3-.708-.708ZM2.053 9.724l1 2 .894-.448-1-2-.894.448ZM5 6.5v8h1v-8H5Zm5 0v8h1v-8h-1Z"/>
</svg>
