<svg xmlns="http://www.w3.org/2000/svg" width="16" height="16" fill="none"><path d="M10.256 1.074a.616.616 0 0 0-.154.126c-.047.065-5.037 13.005-5.088 13.197-.089.335.26.676.599.586a.537.537 0 0 0 .317-.231c.051-.098 5.046-13.095 5.065-13.179.039-.166-.083-.41-.252-.505a.54.54 0 0 0-.487.006M3.293 4.05C3.141 4.123.097 7.178.041 7.312a.505.505 0 0 0 0 .389c.029.068.511.569 1.554 1.613.831.833 1.556 1.545 1.61 1.583a.478.478 0 0 0 .425.078.445.445 0 0 0 .32-.268.508.508 0 0 0 .009-.408c-.029-.068-.467-.525-1.393-1.452L1.214 7.493l1.364-1.366c1.467-1.471 1.443-1.443 1.415-1.693-.036-.316-.413-.523-.7-.384m9.008-.006c-.256.126-.364.392-.26.644.028.068.46.518 1.393 1.452l1.352 1.353-1.352 1.353c-.926.928-1.364 1.385-1.393 1.453a.508.508 0 0 0 .009.408.445.445 0 0 0 .32.268.478.478 0 0 0 .425-.078c.054-.038.779-.75 1.61-1.583 1.043-1.044 1.525-1.545 1.554-1.613a.505.505 0 0 0 0-.389c-.057-.137-3.102-3.19-3.252-3.261a.489.489 0 0 0-.406-.007" fill-rule="evenodd" fill="#000"/></svg>