<svg xmlns="http://www.w3.org/2000/svg" width="24" height="24" fill="none"><path d="M14.26 4.074a.817.817 0 0 0-.168.131C14.04 4.269 10 20.385 10 20.53c.001.223.267.47.508.47.159 0 .363-.137.432-.29C11.012 20.553 15 4.599 15 4.47c0-.132-.139-.337-.276-.408a.45.45 0 0 0-.464.012M6.3 8.046c-.125.067-4.178 4.12-4.243 4.242a.438.438 0 0 0 0 .424c.07.13 4.126 4.181 4.25 4.244.388.196.842-.28.636-.668-.032-.059-.887-.936-1.9-1.948L3.2 12.5l1.856-1.86c1.021-1.023 1.876-1.899 1.9-1.947.19-.376-.288-.847-.656-.647m11.952.032c-.228.139-.312.413-.195.634.032.059.887.936 1.9 1.948L21.8 12.5l-1.856 1.86c-1.021 1.023-1.876 1.899-1.9 1.947-.189.375.274.838.649.649.124-.063 4.18-4.114 4.25-4.244A.551.551 0 0 0 23 12.5a.551.551 0 0 0-.057-.212c-.07-.13-4.126-4.181-4.25-4.244a.458.458 0 0 0-.441.034" fill-rule="evenodd" fill="#000"/></svg>