<svg xmlns="http://www.w3.org/2000/svg" width="16" height="16" fill="none"><path d="M6.831.028a.5.5 0 0 0-.273.251c-.027.061-.116.511-.197 1.002a67.32 67.32 0 0 1-.161.949c-.009.042-.063.074-.22.13-.113.04-.325.126-.47.191-.145.065-.278.113-.294.107a30.638 30.638 0 0 1-.79-.552 15.808 15.808 0 0 0-.845-.577.487.487 0 0 0-.393.017c-.15.073-1.598 1.526-1.653 1.66a.513.513 0 0 0 .002.402c.024.047.283.42.576.83.293.409.537.758.544.775a.681.681 0 0 1-.073.216 8.47 8.47 0 0 0-.195.476l-.111.293-.978.164c-1.099.184-1.136.196-1.244.42-.057.116-.058.138-.05 1.25l.007 1.132.076.114a.444.444 0 0 0 .188.163c.063.028.501.115 1.004.198.491.081.918.154.949.161.043.009.076.069.143.257.049.135.135.347.192.471.058.124.099.24.092.258-.006.018-.251.367-.544.776-.293.41-.552.783-.576.83a.502.502 0 0 0 .009.42c.073.15 1.526 1.598 1.66 1.653a.513.513 0 0 0 .402-.002c.047-.024.42-.283.83-.576.409-.293.758-.538.776-.544.018-.007.134.034.258.092.124.057.336.143.471.192.188.067.248.1.257.143.007.031.08.458.161.949.083.503.17.941.198 1.004.032.073.09.14.163.188l.114.076h2.328l.108-.072c.175-.116.204-.209.367-1.195.081-.491.154-.919.161-.95.009-.043.069-.076.257-.143a7.46 7.46 0 0 0 .471-.192c.124-.058.24-.099.258-.092.018.006.367.251.776.544.41.293.783.552.83.576a.513.513 0 0 0 .402.002c.134-.055 1.587-1.503 1.66-1.653a.484.484 0 0 0 .014-.399c-.021-.051-.28-.431-.576-.844a26.357 26.357 0 0 1-.549-.783c-.007-.018.034-.134.092-.258a7.46 7.46 0 0 0 .192-.471c.067-.188.1-.248.143-.257.031-.007.459-.08.95-.161.986-.163 1.079-.192 1.195-.367l.072-.108.007-1.132c.008-1.112.007-1.134-.05-1.25-.108-.224-.145-.236-1.244-.42l-.978-.164-.111-.293a8.47 8.47 0 0 0-.195-.476.681.681 0 0 1-.073-.216c.007-.017.251-.366.544-.775.293-.41.552-.783.576-.83a.502.502 0 0 0-.009-.42c-.073-.15-1.526-1.598-1.66-1.653a.495.495 0 0 0-.376-.005c-.048.02-.428.279-.845.576-.417.297-.772.546-.789.552-.017.006-.149-.042-.294-.107a7.696 7.696 0 0 0-.47-.191c-.157-.056-.211-.088-.22-.13a67.32 67.32 0 0 1-.161-.949C9.556.778 9.469.34 9.441.277a.444.444 0 0 0-.163-.188L9.164.013 8.029.008c-.677-.003-1.161.005-1.198.02M8.717 1.86c.077.466.157.902.179.969.057.181.172.275.437.358.405.127.594.203.971.391.404.202.54.23.706.144.047-.024.399-.269.784-.544s.712-.508.728-.518c.015-.009.21.165.433.388l.405.406-.519.726c-.286.4-.539.764-.563.81-.086.166-.058.302.144.706.188.377.264.566.391.971.083.265.177.38.358.437.067.022.503.102.969.179l.847.139v.582c0 .321-.007.583-.015.583-.102 0-1.804.306-1.866.335-.144.068-.218.172-.293.411a5.43 5.43 0 0 1-.391.971c-.202.404-.23.54-.144.706.024.047.269.399.544.784s.508.712.518.728c.009.015-.166.211-.389.434l-.407.406-.679-.485c-.907-.649-.886-.637-1.054-.637-.119 0-.195.028-.535.198a6.103 6.103 0 0 1-.703.296 11.95 11.95 0 0 0-.385.128.527.527 0 0 0-.285.279c-.018.055-.1.495-.181.979l-.149.88H7.427l-.149-.88c-.082-.484-.158-.91-.17-.947a.532.532 0 0 0-.264-.292 5.586 5.586 0 0 0-.417-.148 5.91 5.91 0 0 1-.703-.295c-.342-.171-.415-.198-.537-.198-.166 0-.202.022-1.133.69l-.6.43-.406-.405c-.223-.223-.397-.418-.388-.433.01-.016.243-.343.518-.728.275-.385.52-.737.544-.784.086-.166.058-.302-.144-.706a5.43 5.43 0 0 1-.391-.971c-.075-.239-.149-.343-.293-.411-.062-.029-1.764-.335-1.866-.335-.008 0-.015-.262-.015-.583v-.582l.847-.14c.466-.077.892-.153.947-.168a.671.671 0 0 0 .202-.117c.085-.072.115-.127.176-.322.138-.442.205-.609.391-.979.204-.404.232-.539.146-.706-.024-.046-.277-.41-.563-.81l-.519-.726.405-.406c.223-.223.418-.397.433-.388.016.01.343.243.728.518.385.275.737.52.784.544.167.086.302.058.706-.146.37-.186.537-.253.979-.391.195-.061.25-.091.322-.176a.671.671 0 0 0 .117-.202c.015-.055.091-.481.168-.947l.14-.847h1.156l.139.847M7.518 5.039c-.974.177-1.778.774-2.203 1.634A2.863 2.863 0 0 0 5.008 8c0 1.474 1.041 2.701 2.512 2.961.239.042.772.037 1.016-.011a3.012 3.012 0 0 0 2.414-2.414c.048-.244.053-.777.011-1.016a3.082 3.082 0 0 0-.691-1.474 3.055 3.055 0 0 0-1.498-.941c-.215-.06-.317-.072-.692-.079-.242-.005-.495 0-.562.013m1.056 1.047a2.032 2.032 0 0 1 1.343 1.34c.055.182.065.268.065.574 0 .306-.01.392-.065.574a2.05 2.05 0 0 1-1.357 1.35c-.289.09-.831.09-1.12 0a2.05 2.05 0 0 1-1.357-1.35c-.055-.182-.065-.268-.065-.574 0-.306.01-.392.065-.574a2.028 2.028 0 0 1 1.583-1.399c.222-.04.667-.011.908.059" fill-rule="evenodd" fill="#000"/></svg>