<svg xmlns="http://www.w3.org/2000/svg" width="16" height="16" fill="none" viewBox="0 0 16 16"><path stroke="currentColor" stroke-linecap="round" stroke-linejoin="round" d="M8 10.5a2.5 2.5 0 1 0 0-5 2.5 2.5 0 0 0 0 5Z"/><path stroke="currentColor" stroke-linecap="round" stroke-linejoin="round" d="M15.5 9V7l-2.177-.363a5.463 5.463 0 0 0-.595-1.437l1.283-1.796-1.415-1.414L10.8 3.272a5.463 5.463 0 0 0-1.437-.595L9 .5H7l-.363 2.177a5.463 5.463 0 0 0-1.437.595L3.404 1.99 1.99 3.404 3.272 5.2a5.463 5.463 0 0 0-.595 1.437L.5 7v2l2.177.363c.131.512.332.994.595 1.437L1.99 12.596l1.414 1.414L5.2 12.728c.443.263.925.464 1.437.595L7 15.5h2l.363-2.177a5.463 5.463 0 0 0 1.437-.595l1.796 1.283 1.414-1.414-1.282-1.797c.263-.443.464-.925.595-1.437L15.5 9Z"/></svg>