<svg xmlns="http://www.w3.org/2000/svg" width="24" height="24" fill="none" viewBox="0 0 24 24">
  <path stroke="currentColor" stroke-linecap="round" stroke-linejoin="round" d="M23.5 14v-3l-3.248-.443a7.925 7.925 0 0 0-.9-2.165l1.984-2.61-2.118-2.121-2.61 1.984a7.927 7.927 0 0 0-2.165-.9L14 1.5h-3l-.443 3.248a7.927 7.927 0 0 0-2.165.9l-2.61-1.987-2.121 2.121 1.984 2.61a7.927 7.927 0 0 0-.9 2.165L1.5 11v3l3.248.443c.191.762.494 1.492.9 2.165l-1.984 2.61 2.121 2.121 2.61-1.984a7.925 7.925 0 0 0 2.165.9L11 23.5h3l.443-3.248a7.925 7.925 0 0 0 2.165-.9l2.61 1.984 2.121-2.121-1.984-2.61a7.925 7.925 0 0 0 .9-2.165L23.5 14Z"/>
  <path stroke="currentColor" stroke-linecap="round" stroke-linejoin="round" d="M12.5 15.5a3 3 0 1 0 0-6 3 3 0 0 0 0 6Z"/>
</svg>
