<svg xmlns="http://www.w3.org/2000/svg" width="24" height="24" fill="none"><path d="M10.4 1.044a.51.51 0 0 0-.316.39c-.024.102-.116.735-.205 1.406-.089.671-.17 1.256-.18 1.3-.014.06-.104.108-.369.194a8.447 8.447 0 0 0-.766.31 5.05 5.05 0 0 1-.446.196c-.017 0-.495-.354-1.063-.787-1.325-1.01-1.268-.973-1.49-.973h-.183L4.231 4.231 3.08 5.382v.183c0 .223-.022.189.968 1.489.417.547.766 1.016.776 1.043.011.027-.06.209-.157.406a8.367 8.367 0 0 0-.323.777l-.148.42-1.405.191c-.772.105-1.45.213-1.506.24a.63.63 0 0 0-.195.187l-.093.138.012 1.589.011 1.59.113.118a.714.714 0 0 0 .28.162c.092.023.725.116 1.407.206.682.09 1.273.176 1.314.192.048.02.132.187.244.488.093.253.236.589.316.748.08.159.146.305.146.326 0 .02-.354.502-.787 1.071-1.015 1.332-.973 1.268-.973 1.488v.183l1.13 1.133c1.169 1.171 1.246 1.232 1.487 1.164.151-.042.193-.071 1.402-.99l1.022-.777.35.172c.192.094.538.239.768.322.23.082.432.174.448.204.016.03.104.622.194 1.315.195 1.487.21 1.558.365 1.706l.119.114h3.27l.119-.114c.154-.148.169-.215.365-1.706.091-.693.179-1.284.194-1.313.015-.03.234-.13.487-.224s.592-.238.754-.32c.162-.081.319-.139.348-.128.03.012.537.388 1.126.837.59.448 1.111.836 1.159.862a.705.705 0 0 0 .26.046c.171 0 .172 0 1.322-1.151l1.151-1.151v-.183c0-.223.019-.194-.957-1.475a85.817 85.817 0 0 1-.78-1.034c-.021-.035.033-.192.152-.44.102-.212.246-.557.321-.765.074-.209.159-.392.189-.408.03-.015.622-.102 1.315-.192.693-.09 1.335-.183 1.427-.207a.7.7 0 0 0 .28-.161l.113-.118.011-1.59.012-1.589-.093-.138a.627.627 0 0 0-.194-.187c-.056-.026-.735-.135-1.51-.241l-1.408-.192-.139-.399a9.33 9.33 0 0 0-.324-.785c-.117-.243-.173-.406-.152-.44.017-.03.395-.531.838-1.114.443-.583.827-1.099.853-1.147a.705.705 0 0 0 .046-.26c0-.171 0-.172-1.151-1.322-1.15-1.151-1.151-1.151-1.322-1.151a.705.705 0 0 0-.26.046c-.048.026-.564.41-1.147.853-.583.443-1.084.821-1.114.838-.034.021-.197-.035-.44-.152a9.688 9.688 0 0 0-.766-.321c-.302-.107-.386-.154-.411-.229-.017-.052-.11-.685-.208-1.406-.098-.721-.201-1.358-.229-1.416a.646.646 0 0 0-.165-.189c-.109-.081-.16-.084-1.66-.092-.973-.005-1.584.007-1.647.032m2.6.986c.001.204.376 2.691.42 2.784.081.17.138.201.77.41.308.102.784.303 1.098.463.474.242.575.28.697.26.143-.023.263-.109 1.789-1.268l.594-.451.702.702.701.701-.828 1.089c-.456.599-.845 1.133-.866 1.187-.067.176-.04.265.255.853.16.319.36.796.445 1.06.191.594.236.684.376.756.081.042 2.62.424 2.819.424.015 0 .028.448.028.996v.995l-.13.023c-.071.012-.679.095-1.35.185-1.233.163-1.441.214-1.526.372a7.341 7.341 0 0 0-.197.562 9.68 9.68 0 0 1-.462 1.1c-.26.523-.301.633-.281.755.023.144.051.184 1.223 1.725l.497.653-.703.703-.703.703-.594-.451c-1.581-1.201-1.647-1.248-1.802-1.268-.115-.015-.201.007-.352.089-.552.3-.945.474-1.44.637-.648.215-.683.232-.757.374-.042.082-.423 2.62-.423 2.819 0 .015-.45.028-1 .028s-1-.013-1-.028c0-.159-.373-2.717-.407-2.791-.067-.147-.178-.205-.778-.403-.46-.153-.806-.306-1.547-.688-.152-.078-.34-.038-.565.121-.1.071-.606.452-1.125.846l-.943.718-.703-.703-.703-.703.828-1.089c.456-.599.845-1.133.866-1.187.067-.176.04-.265-.257-.855a8.916 8.916 0 0 1-.445-1.06c-.192-.604-.228-.673-.389-.749-.073-.034-.681-.136-1.352-.227a86.69 86.69 0 0 1-1.35-.188L2 12.991v-.995c0-.548.014-.996.03-.996.151 0 2.696-.371 2.778-.404.156-.063.213-.171.415-.784.103-.31.303-.785.464-1.1.355-.695.356-.682-.1-1.286l-.847-1.12-.511-.674.695-.696c.382-.383.708-.692.724-.686.015.005.499.37 1.075.81.576.44 1.095.822 1.152.848.186.086.295.056.887-.242.322-.162.794-.36 1.06-.445.589-.187.681-.233.754-.374.042-.081.424-2.62.424-2.819 0-.015.45-.028 1-.028s1 .014 1 .03m-1.56 6.515c-1.488.286-2.621 1.394-2.881 2.819-.06.328-.06.944 0 1.272.254 1.391 1.414 2.551 2.805 2.805.328.06.944.06 1.272 0 .898-.164 1.752-.732 2.283-1.518.212-.314.424-.823.506-1.213.073-.348.081-.993.016-1.346-.235-1.279-1.219-2.358-2.488-2.727-.222-.065-.429-.088-.853-.098a6.907 6.907 0 0 0-.66.006m1.377 1.088a2.652 2.652 0 0 1 1.553 1.55c.076.205.088.316.088.817 0 .501-.012.612-.088.817-.23.615-.711 1.157-1.26 1.418-.415.197-.664.255-1.11.255-.446 0-.695-.058-1.11-.255-.551-.262-1.039-.813-1.256-1.418-.108-.299-.146-.987-.075-1.347.171-.872.938-1.674 1.812-1.895.328-.083 1.149-.05 1.446.058" fill-rule="evenodd" fill="#000"/></svg>