<svg xmlns="http://www.w3.org/2000/svg" width="24" height="24" fill="none" viewBox="0 0 24 24"><path stroke="currentColor" stroke-linecap="round" stroke-linejoin="round" d="M22.5 13.432v-2.864l-3.1-.423a7.563 7.563 0 0 0-.86-2.066l1.894-2.492-2.021-2.024-2.492 1.894a7.567 7.567 0 0 0-2.066-.86L13.432 1.5h-2.864l-.423 3.1a7.567 7.567 0 0 0-2.066.86L5.587 3.562 3.563 5.587 5.457 8.08a7.567 7.567 0 0 0-.86 2.066l-3.097.423v2.864l3.1.423c.183.727.472 1.424.86 2.066l-1.894 2.492 2.024 2.024 2.492-1.894a7.566 7.566 0 0 0 2.066.86l.42 3.097h2.864l.423-3.1a7.564 7.564 0 0 0 2.066-.86l2.492 1.894 2.024-2.024-1.894-2.492a7.566 7.566 0 0 0 .86-2.066l3.097-.42Z"/><path stroke="currentColor" stroke-linecap="round" stroke-linejoin="round" d="M12 15a3 3 0 1 0 0-6 3 3 0 0 0 0 6Z"/></svg>