<svg xmlns="http://www.w3.org/2000/svg" width="16" height="16" fill="none" viewBox="0 0 16 16">
  <path fill="#1D1D1D" fill-rule="evenodd" d="M6.576 0h2.848l.38 2.283c.335.105.656.239.963.398l1.883-1.344 2.014 2.013-1.345 1.883c.16.307.293.628.398.963l2.283.38v2.848l-2.283.38a5.958 5.958 0 0 1-.399.963l1.345 1.884-2.013 2.013-1.883-1.345c-.307.16-.628.293-.963.398L9.424 16H6.576l-.38-2.283a5.956 5.956 0 0 1-.963-.398L3.35 14.663 1.337 12.65l1.344-1.883a5.958 5.958 0 0 1-.398-.963L0 9.424V6.576l2.283-.38c.105-.335.239-.656.398-.963L1.337 3.35 3.35 1.337l1.883 1.344c.307-.16.628-.293.963-.398L6.576 0Zm.848 1-.347 2.08-.316.081c-.466.12-.904.302-1.306.54l-.28.167-1.717-1.225-.815.815 1.225 1.717-.166.28c-.239.402-.421.84-.54 1.306l-.081.316L1 7.424v1.152l2.08.347.081.316c.12.466.302.904.54 1.306l.167.28-1.225 1.717.815.815 1.717-1.225.28.166c.402.239.84.421 1.306.54l.316.081L7.424 15h1.152l.347-2.08.316-.081c.466-.12.904-.302 1.306-.54l.28-.167 1.717 1.226.815-.815-1.225-1.718.166-.28c.239-.402.421-.84.54-1.306l.081-.316L15 8.576V7.424l-2.08-.347-.081-.316a4.964 4.964 0 0 0-.54-1.306l-.167-.28 1.226-1.717-.816-.815-1.717 1.225-.28-.166a4.963 4.963 0 0 0-1.306-.54l-.316-.081L8.576 1H7.424ZM8 6a2 2 0 1 0 0 4 2 2 0 0 0 0-4ZM5 8a3 3 0 1 1 6 0 3 3 0 0 1-6 0Z" clip-rule="evenodd"/>
</svg>
