<svg xmlns="http://www.w3.org/2000/svg" height="32" width="32" viewBox="0 0 32 32"><g stroke-linecap="round" stroke-width="2" fill="none" stroke="currentColor" stroke-linejoin="round" class="nc-icon-wrapper"><circle cx="16" cy="16" r="4"></circle> <path d="M31,18V14l-4.306-.538a10.915,10.915,0,0,0-1.339-3.227l2.666-3.427L25.192,3.979,21.765,6.645a10.915,10.915,0,0,0-3.227-1.339L18,1H14l-.538,4.306a10.915,10.915,0,0,0-3.227,1.339L6.808,3.979,3.979,6.808l2.666,3.427a10.915,10.915,0,0,0-1.339,3.227L1,14v4l4.306.538a10.915,10.915,0,0,0,1.339,3.227L3.979,25.192l2.829,2.829,3.427-2.666a10.915,10.915,0,0,0,3.227,1.339L14,31h4l.538-4.306a10.915,10.915,0,0,0,3.227-1.339l3.427,2.666,2.829-2.829-2.666-3.427a10.915,10.915,0,0,0,1.339-3.227Z"></path></g></svg>