<svg xmlns="http://www.w3.org/2000/svg" height="24" width="24" viewBox="0 0 24 24"><g stroke-linecap="round" stroke-width="2" fill="none" stroke="currentColor" stroke-linejoin="round" class="nc-icon-wrapper"><path d="M23,13.5v-3l-3.248-.443a7.927,7.927,0,0,0-.9-2.165l1.984-2.61L18.718,3.161l-2.61,1.984a7.927,7.927,0,0,0-2.165-.9L13.5,1h-3l-.443,3.248a7.927,7.927,0,0,0-2.165.9L5.282,3.161,3.161,5.282l1.984,2.61a7.927,7.927,0,0,0-.9,2.165L1,10.5v3l3.248.443a7.927,7.927,0,0,0,.9,2.165l-1.984,2.61,2.121,2.121,2.61-1.984a7.927,7.927,0,0,0,2.165.9L10.5,23h3l.443-3.248a7.927,7.927,0,0,0,2.165-.9l2.61,1.984,2.121-2.121-1.984-2.61a7.927,7.927,0,0,0,.9-2.165Z"></path> <circle cx="12" cy="12" r="3"></circle></g></svg>