<svg xmlns="http://www.w3.org/2000/svg" width="16" height="16" fill="none"><path d="M7.16 1.029c-.552.053-.748.076-1.103.133-2.259.361-3.826 1.352-4.03 2.548-.02.119-.027 1.587-.021 4.89l.007 4.72.074.217c.324.955 1.503 1.742 3.233 2.157.916.22 1.567.291 2.68.291 1.122 0 1.783-.073 2.693-.295 1.739-.425 2.897-1.199 3.22-2.153l.074-.217.007-4.72c.006-3.303-.001-4.771-.021-4.89-.109-.637-.645-1.271-1.453-1.715-.839-.461-1.843-.754-3.147-.917-.327-.041-1.925-.076-2.213-.049m2.017 1.036c.727.079 1.536.253 2.057.442.348.127.942.43 1.139.581.699.536.802 1.029.322 1.535-.684.721-2.104 1.213-3.899 1.35-2.514.191-5.139-.562-5.701-1.636-.166-.318-.09-.653.22-.973.076-.079.216-.203.312-.276.197-.151.791-.454 1.139-.581.56-.203 1.481-.393 2.194-.452l.48-.04c.248-.02 1.387.012 1.737.05m-5.69 3.947c.414.237 1.122.505 1.753.665 1.438.363 3.276.419 4.813.148 1.122-.198 2.186-.588 2.808-1.029l.128-.091-.008.754c-.008.741-.009.757-.073.883-.355.693-1.684 1.311-3.335 1.549-.964.138-2.182.138-3.146 0-1.651-.238-2.98-.856-3.335-1.549-.064-.126-.065-.142-.073-.883l-.008-.754.128.091c.07.05.227.147.348.216m-.1 2.94c.628.381 1.628.718 2.626.886.716.119 1.084.147 1.987.147s1.268-.027 1.987-.147c1.145-.191 2.256-.6 2.94-1.082l.06-.043v1.468l-.082.156c-.206.394-.735.783-1.456 1.071-2.12.846-5.314.778-7.249-.155-.525-.253-.941-.597-1.102-.91l-.085-.164V8.713l.06.043c.033.023.174.111.314.196m.106 3.062c.597.338 1.466.63 2.374.796 1.571.288 3.426.237 4.893-.133.829-.21 1.659-.559 2.115-.889l.114-.083-.008.754c-.008.741-.009.757-.073.883-.355.693-1.684 1.311-3.335 1.549-.964.138-2.182.138-3.146 0-1.651-.238-2.98-.856-3.335-1.549-.064-.126-.065-.142-.073-.883l-.008-.754.114.083c.063.045.229.147.368.226" fill-rule="evenodd" fill="#000"/></svg>