<svg xmlns="http://www.w3.org/2000/svg" width="24" height="24" fill="none"><path d="M6.7 1.023c-.855.084-1.104.117-1.52.199-2.095.415-3.655 1.416-4.068 2.61L1.02 4.1v12.8l.092.268c.377 1.091 1.694 2.015 3.553 2.493 1.465.378 3.273.443 4.809.173.484-.085.566-.079.566.037 0 .148.171.573.329.818.683 1.059 2.312 1.873 4.397 2.197.496.077.732.089 1.734.089s1.238-.012 1.734-.089c2.439-.379 4.201-1.408 4.654-2.718l.092-.268v-8.8l-.092-.268c-.362-1.047-1.601-1.946-3.376-2.449-.895-.255-1.787-.362-3.012-.362-.934 0-1.463.041-2.114.161a5.87 5.87 0 0 1-.349.058c-.018 0-.039-.94-.046-2.09-.013-2.069-.014-2.092-.105-2.339-.5-1.347-2.359-2.392-4.826-2.714-.425-.056-2.033-.106-2.36-.074M9.132 2.12c1.194.178 2.202.533 2.943 1.037.294.2.678.613.803.865.139.278.139.678 0 .956-.348.702-1.38 1.344-2.738 1.702-2.802.741-6.374.161-7.68-1.245-.335-.361-.439-.582-.439-.935 0-.353.104-.574.438-.933.285-.306.56-.499 1.088-.763.835-.417 1.847-.666 3.173-.78.459-.04 1.881.017 2.412.096M2.429 6.715c.82.548 2.005.964 3.337 1.171.496.077.732.089 1.734.089 1.309 0 1.847-.059 2.834-.313 1.019-.263 2.098-.763 2.577-1.195l.09-.082-.01 1.075-.011 1.074-.32.126c-1.097.433-1.964 1.077-2.353 1.748-.139.24-.169.268-.332.309-1.247.314-2.936.369-4.315.139-1.697-.282-3.114-1.034-3.54-1.878-.099-.196-.1-.209-.112-1.397l-.012-1.199.092.083c.05.046.204.159.341.25M18.132 9.12c1.194.178 2.202.533 2.943 1.037.294.2.678.613.803.865.139.278.139.678 0 .956-.348.702-1.38 1.344-2.738 1.702-2.802.741-6.374.161-7.68-1.245-.335-.361-.439-.582-.439-.935 0-.353.104-.574.438-.933.285-.306.56-.499 1.088-.763.835-.417 1.847-.666 3.173-.78.459-.04 1.881.017 2.412.096M2.429 10.715c.819.548 2.026.972 3.316 1.165 1.119.167 2.669.149 3.733-.044.229-.042.441-.076.47-.076.042 0 .052.287.052 1.476v1.476l-.19.043c-1.819.41-4.111.291-5.662-.293-.995-.375-1.746-.924-2.028-1.484-.099-.196-.1-.209-.112-1.397l-.012-1.199.092.083c.05.046.204.159.341.25m9 3c.82.548 2.005.964 3.337 1.171.496.077.732.089 1.734.089 1.309 0 1.847-.059 2.834-.313 1.021-.263 2.099-.763 2.579-1.197l.092-.084-.012 1.199c-.013 1.188-.014 1.202-.113 1.398a2.555 2.555 0 0 1-.34.457c-1.306 1.406-4.878 1.986-7.68 1.245-1.357-.358-2.384-.996-2.74-1.702-.099-.196-.1-.209-.112-1.397l-.012-1.199.092.083c.05.046.204.159.341.25m-9 1c.575.385 1.385.727 2.236.946 1.452.374 3.289.442 4.792.176.24-.042.461-.077.49-.077.043 0 .053.277.053 1.476v1.476l-.19.043c-1.545.352-3.443.323-4.95-.075-1.357-.358-2.384-.996-2.74-1.702-.099-.196-.1-.209-.112-1.397l-.012-1.199.092.083c.05.046.204.159.341.25m9 3c.82.548 2.005.964 3.337 1.171.496.077.732.089 1.734.089 1.309 0 1.847-.059 2.834-.313 1.021-.263 2.099-.763 2.579-1.197l.092-.084-.012 1.199c-.013 1.188-.014 1.202-.113 1.398a2.555 2.555 0 0 1-.34.457c-1.306 1.406-4.878 1.986-7.68 1.245-1.357-.358-2.384-.996-2.74-1.702-.099-.196-.1-.209-.112-1.397l-.012-1.199.092.083c.05.046.204.159.341.25" fill-rule="evenodd" fill="#000"/></svg>