<svg xmlns="http://www.w3.org/2000/svg" width="24" height="24" fill="none" viewBox="0 0 24 24"><path stroke="currentColor" stroke-miterlimit="10" d="M1.5 4.5v4m0-4c0 1.657 2.686 3 6 3s6-1.343 6-3m-12 0c0-1.657 2.686-3 6-3s6 1.343 6 3m-12 4c0 1.657 2.686 3 6 3 1.093 0 2.118-.146 3-.401M1.5 8.5v4m12-3.73V4.5m-12 8c0 1.657 2.686 3 6 3 1.093 0 2.117-.147 3-.402m-9-2.598v4c0 1.657 2.686 3 6 3a10.9 10.9 0 0 0 3-.401m0-7.599v4m0-4c0 1.657 2.686 3 6 3s6-1.343 6-3m-12 0c0-1.657 2.686-3 6-3s6 1.343 6 3m-12 4c0 1.657 2.686 3 6 3s6-1.343 6-3m-12 0v4c0 1.657 2.686 3 6 3s6-1.343 6-3v-4m0 0v-4"/></svg>