<svg xmlns="http://www.w3.org/2000/svg" width="16" height="16" fill="currentColor" viewBox="0 0 16 16">
  <path fill-rule="evenodd" d="M15.986 10.03a5.955 5.955 0 1 1-11.91.001 5.955 5.955 0 0 1 11.91 0Zm-5.955 4.956a4.955 4.955 0 1 0 0-9.91 4.955 4.955 0 0 0 0 9.91Z" clip-rule="evenodd"/>
  <path d="m2.32 10.692-.37-.336a5.95 5.95 0 1 1 8.406-8.406l.336.37-.74.672-.336-.37a4.95 4.95 0 1 0-6.994 6.994l.37.336-.672.74ZM10.257 13.12c-.494 0-.934-.127-1.32-.38-.38-.26-.68-.633-.9-1.12-.214-.487-.32-1.08-.32-1.78 0-.693.11-1.287.33-1.78.226-.5.53-.88.91-1.14.38-.267.81-.4 1.29-.4.373 0 .696.08.97.24.273.153.49.357.65.61l-.61.53a1.317 1.317 0 0 0-.42-.36 1.13 1.13 0 0 0-.53-.12 1.12 1.12 0 0 0-.78.29c-.214.187-.377.46-.49.82-.107.353-.16.777-.16 1.27 0 .5.056.933.17 1.3.113.36.276.637.49.83.213.193.47.29.77.29.22 0 .413-.05.58-.15.166-.1.313-.247.44-.44l.61.43a2.036 2.036 0 0 1-.68.78 1.79 1.79 0 0 1-1 .28Zm-3.1-2.32v-.62l.71-.06h3.03v.68h-3.74Zm0-1.28V8.9l.72-.06h3.42v.68h-4.14Z"/>
</svg>
