<svg xmlns="http://www.w3.org/2000/svg" width="16" height="16" fill="none"><path d="M5.04 1.031a3.53 3.53 0 0 0-2.013 1.008A3.398 3.398 0 0 0 2.009 4.36a3.465 3.465 0 0 0 .862 2.442c.455.513.983.85 1.643 1.048 1.836.552 3.789-.509 4.339-2.357a3.647 3.647 0 0 0 .038-1.853 3.573 3.573 0 0 0-1.79-2.248 3.827 3.827 0 0 0-1.021-.337c-.23-.038-.859-.052-1.04-.024M6.104 2.08a2.52 2.52 0 0 1 1.821 1.832c.081.324.081.888 0 1.185-.284 1.05-1.14 1.79-2.181 1.886-1.236.114-2.328-.652-2.669-1.871-.036-.128-.047-.268-.046-.619 0-.416.006-.472.073-.688A2.522 2.522 0 0 1 4.32 2.298c.186-.103.575-.234.8-.269.246-.037.72-.013.984.051m6.051-.053c-.862.137-1.555.652-1.916 1.423a2.498 2.498 0 0 0 2.017 3.533 2.49 2.49 0 1 0 .344-4.969c-.161-.006-.362 0-.445.013m.737 1.027a1.6 1.6 0 0 1 .942.759c.26.52.202 1.165-.144 1.592-.345.424-.763.617-1.277.587a1.491 1.491 0 0 1-1.359-1.1 2.037 2.037 0 0 1-.002-.782c.133-.499.55-.92 1.046-1.057.18-.049.604-.048.794.001m-.759 4.963a3.683 3.683 0 0 0-1.2.357c-.2.101-.773.466-.773.493 0 .025.534.813.551.813.009 0 .094-.049.189-.109.258-.163.736-.39.992-.472.209-.066.264-.072.655-.072.491 0 .668.035 1.017.201.582.278.991.818 1.223 1.615.07.24.158.724.182 1.004l.014.153H12v1.013h4.008l-.016-.646c-.021-.856-.102-1.386-.303-1.994-.424-1.277-1.306-2.096-2.486-2.309-.228-.041-.89-.07-1.07-.047M4.742 9.055A5.58 5.58 0 0 0 .283 12.8C.079 13.41 0 13.92 0 14.612v.401l5.5-.006L11 15l-.006-.48a5.262 5.262 0 0 0-.183-1.419 5.601 5.601 0 0 0-4.344-4.012c-.389-.073-1.339-.092-1.725-.034m1.473 1.011c1.272.207 2.417.987 3.123 2.126.282.454.535 1.129.594 1.581.01.074.024.155.031.18.013.045-.212.047-4.456.047H1.036l.019-.153a4.595 4.595 0 0 1 2.478-3.373c.519-.259 1.005-.394 1.654-.458.183-.018.792.011 1.028.05" fill-rule="evenodd" fill="#000"/></svg>