<svg xmlns="http://www.w3.org/2000/svg" width="16" height="16" fill="none" viewBox="0 0 16 16">
  <path fill="#1D1D1D" fill-rule="evenodd" d="M5.5 2a2.5 2.5 0 1 0 0 5 2.5 2.5 0 0 0 0-5ZM2 4.5a3.5 3.5 0 1 1 7 0 3.5 3.5 0 0 1-7 0ZM12.5 3a1.5 1.5 0 1 0 0 3 1.5 1.5 0 0 0 0-3ZM10 4.5a2.5 2.5 0 1 1 5 0 2.5 2.5 0 0 1-5 0ZM12.5 9c-.492 0-.973.144-1.382.416l-.416.277-.554-.832.416-.277A3.486 3.486 0 0 1 12.501 8c1.352 0 2.261.62 2.806 1.525.523.871.693 1.975.693 2.975v.5h-4v-1h2.983c0-.168.012.165 0 0-.05-.734-.214-1.429-.533-1.96C14.08 9.424 13.488 9 12.5 9ZM0 14.5C0 11.5 2.5 9 5.5 9s5.5 2.5 5.5 5.5v.5H0v-.5Zm1.029-.5H9.97c-.256-2.22-2.193-4-4.471-4s-4.215 1.78-4.471 4Z" clip-rule="evenodd"/>
</svg>
