<svg xmlns="http://www.w3.org/2000/svg" width="24" height="24" fill="none"><path d="M15.361 1.043a4.06 4.06 0 0 0-2.196 1.142l-.335.335-.346-.139c-1.257-.502-2.785-.489-4.065.037-1.398.574-2.549 1.754-3.055 3.131-.317.86-.363 1.235-.363 2.951 0 1.71.047 2.095.358 2.938.216.586.592 1.217.988 1.658.097.108.162.209.145.225-.018.015-.914.555-1.992 1.199-1.078.644-2.091 1.269-2.25 1.39-.622.469-1.015 1.109-1.192 1.943-.047.221-.058.732-.058 2.71V23h19v-2.437c0-2.617-.004-2.68-.212-3.253a3.267 3.267 0 0 0-.655-1.06l-.235-.25H23v-2.354c0-2.651-.002-2.674-.308-3.256-.272-.517-.513-.712-1.967-1.584l-1.289-.774.063-.096c.129-.197.345-.802.425-1.192.074-.362.081-.507.065-1.404-.014-.855-.029-1.045-.1-1.307a3.996 3.996 0 0 0-1.086-1.874 3.916 3.916 0 0 0-1.824-1.039c-.367-.1-1.254-.142-1.618-.077M16.78 2.1c.346.093.842.348 1.125.577.443.359.837.974 1.002 1.563.061.22.073.416.073 1.26 0 .924-.007 1.024-.092 1.322-.335 1.168-1.394 2.054-2.586 2.162L16 9.011v-.946c0-1.274-.095-1.867-.43-2.689a5.689 5.689 0 0 0-1.647-2.171l-.216-.17.228-.215a3.088 3.088 0 0 1 1.447-.757c.342-.076 1.048-.057 1.398.037m-5.72.944c2.037.25 3.671 1.897 3.897 3.929.056.496.056 2.558 0 3.054-.165 1.482-1.115 2.832-2.468 3.509a4.5 4.5 0 0 1-6.445-3.476c-.057-.466-.057-2.654 0-3.12.301-2.452 2.549-4.198 5.016-3.896m9.067 6.572c.711.427 1.363.846 1.448.93.086.085.212.271.28.414l.125.26.012 1.89.012 1.89h-4.702l-1.412-.846-1.411-.846.102-.124c.287-.349.595-.779.728-1.017.298-.533.574-1.365.632-1.905l.028-.262h.199c.302 0 .939-.143 1.316-.295a3.748 3.748 0 0 0 1.076-.642 8.85 8.85 0 0 1 .267-.221c.004-.001.589.347 1.3.774M7.576 14.154a5.505 5.505 0 0 0 5.853-.003l.249-.157 2.151 1.289c2.005 1.201 2.37 1.435 2.58 1.653.151.156.384.545.476.795.091.245.092.277.106 2.259l.013 2.01H1.996l.013-2.01c.014-1.982.015-2.014.106-2.259.118-.321.351-.679.583-.898.107-.101 1.105-.727 2.393-1.501a238.79 238.79 0 0 1 2.225-1.33 2.55 2.55 0 0 1 .26.152" fill-rule="evenodd" fill="#000"/></svg>