<svg xmlns="http://www.w3.org/2000/svg" width="24" height="24" fill="none"><path d="M11.68 2.024c-1.18.102-1.735.188-2.56.396-1.398.353-2.699.919-3.806 1.657-2.329 1.552-3.732 3.578-4.2 6.064-.131.695-.131 2.023 0 2.718.171.909.392 1.558.809 2.381 1.382 2.721 4.284 4.763 7.783 5.477 1.053.214 1.518.258 2.794.26 1.253.001 1.711-.041 2.621-.242l.46-.102 2.909 1.183c1.6.651 2.959 1.184 3.02 1.184.159 0 .361-.138.437-.298.064-.134.055-.235-.226-2.676l-.292-2.536.357-.416c1.056-1.23 1.713-2.501 2.029-3.92a7.992 7.992 0 0 0-.362-4.57 9.373 9.373 0 0 0-2.186-3.251c-1.856-1.774-4.335-2.899-7.127-3.234-.497-.06-2.082-.108-2.46-.075m1.78 1.018c3.589.268 6.674 1.94 8.356 4.527.268.411.653 1.201.804 1.649.3.887.429 1.94.348 2.832-.155 1.701-.814 3.112-2.158 4.62-.203.228-.381.459-.394.513-.014.054.085 1.056.22 2.227.135 1.172.245 2.168.245 2.214-.001.077-.244-.014-2.451-.914a183.906 183.906 0 0 0-2.635-1.06c-.175-.059-.206-.057-.62.044-.874.211-1.697.306-2.652.306-4.377-.003-8.235-2.132-9.801-5.409a6.8 6.8 0 0 1-.69-2.524c-.157-1.812.409-3.603 1.636-5.178C5.036 5.133 7.341 3.793 9.9 3.267a12.838 12.838 0 0 1 3.56-.225M8.252 9.078a.478.478 0 0 0-.174.67c.163.268-.109.252 4.422.252s4.259.016 4.422-.252a.488.488 0 0 0-.198-.686C16.618 9.007 16.126 9 12.492 9c-4.008 0-4.115.002-4.24.078m0 4a.478.478 0 0 0-.174.67c.16.262.047.252 2.93.252 2.52 0 2.617-.003 2.74-.078A.54.54 0 0 0 14 13.5a.54.54 0 0 0-.252-.422C13.624 13.003 13.528 13 11 13s-2.624.003-2.748.078" fill-rule="evenodd" fill="#000"/></svg>