<svg xmlns="http://www.w3.org/2000/svg" width="16" height="16" fill="none"><path d="M7.282.029C3.81.316.953 2.504.2 5.453.045 6.059.014 6.317.014 7c0 .683.031.941.186 1.547.579 2.267 2.449 4.157 4.934 4.987a9.164 9.164 0 0 0 3.96.4l.36-.045 1.939 1.045c2.048 1.105 2.071 1.115 2.267 1.039a.646.646 0 0 0 .303-.285c.03-.071.037-.443.037-2.077v-1.99l.213-.225a6.78 6.78 0 0 0 1.521-2.612 6.214 6.214 0 0 0 .051-3.393c-.53-1.99-2.077-3.709-4.173-4.635A8.992 8.992 0 0 0 8.973.053 13.586 13.586 0 0 0 7.282.029M9.2 1.09c2.488.386 4.517 1.845 5.379 3.87a5.2 5.2 0 0 1 .317 1.022c.093.444.118 1.24.052 1.709-.164 1.175-.679 2.198-1.581 3.14-.291.305-.324.35-.351.474-.02.092-.029.669-.029 1.736 0 .88-.008 1.599-.017 1.599-.009 0-.753-.397-1.653-.882-1.844-.993-1.651-.918-2.176-.84a8.058 8.058 0 0 1-4.518-.664c-1.858-.879-3.134-2.416-3.521-4.241-.069-.325-.074-.387-.074-1.013 0-.626.005-.688.074-1.013A5.702 5.702 0 0 1 2.66 3.129C3.75 2.03 5.263 1.296 6.88 1.082c.479-.063.479-.063 1.24-.055.568.006.796.019 1.08.063M4.28 5.055a.445.445 0 0 0-.23.238.5.5 0 0 0-.013.395.66.66 0 0 0 .291.284C4.38 5.991 5.529 6 8.003 6c3.948 0 3.69.011 3.855-.163a.46.46 0 0 0 .101-.524.426.426 0 0 0-.231-.249c-.096-.049-.22-.051-3.734-.051-3.243.001-3.643.005-3.714.042m.08 2.967c-.492.162-.464.854.039.962.193.041 7.009.041 7.202 0a.495.495 0 0 0 .392-.547c-.015-.138-.069-.222-.217-.342l-.101-.082-3.631-.004c-1.997-.002-3.655.004-3.684.013" fill-rule="evenodd" fill="#000"/></svg>