<svg xmlns="http://www.w3.org/2000/svg" width="16" height="16" fill="currentColor">
  <path d="M4 5h8v1H4V5ZM4 8h8v1H4V8Z"/>
  <path fill-rule="evenodd" d="M3.402 2.291C2.032 3.205 1 4.679 1 7c0 2.573 1.356 4.086 3.1 4.966 1.774.895 3.93 1.115 5.372 1.035l.105-.006L13 14.279v-2.986l.146-.146.003-.003.013-.013.056-.06a8.069 8.069 0 0 0 .857-1.146C14.548 9.153 15 8.121 15 7c0-2.321-1.031-3.795-2.402-4.709C11.202 1.361 9.43 1 8 1s-3.202.36-4.598 1.291ZM14 11.697a9.038 9.038 0 0 0 .926-1.247C15.45 9.597 16 8.38 16 7c0-2.679-1.219-4.455-2.848-5.541C11.548.389 9.57 0 8 0S4.452.39 2.848 1.459C1.218 2.545 0 4.321 0 7c0 3.027 1.644 4.847 3.65 5.859 1.932.975 4.215 1.216 5.772 1.146L14 15.72v-4.024Z" clip-rule="evenodd"/>
</svg>
