<svg xmlns="http://www.w3.org/2000/svg" width="24" height="24" fill="none" viewBox="0 0 24 24"><path stroke="currentColor" fill="none" stroke-linecap="round" stroke-linejoin="round" d="M17.167 15.5H23.5v-3.94c0-.685-.359-1.32-.947-1.672l-2.825-1.695"/><path stroke="currentColor" fill="none" stroke-linecap="round" stroke-linejoin="round" d="M13.748 3.699A3.498 3.498 0 0 1 17 1.5 3.5 3.5 0 0 1 20.5 5v1A3.5 3.5 0 0 1 17 9.5c-.547 0-1.039-.12-1.5-.344M7.358 13.39l-4.547 2.724A2.698 2.698 0 0 0 1.5 18.429V22.5h18v-4.071a2.7 2.7 0 0 0-1.311-2.315l-4.547-2.724"/><path stroke="currentColor" fill="none" stroke-linecap="round" stroke-linejoin="round" d="M10.5 14.5a5 5 0 0 1-5-5v-2a5 5 0 0 1 10 0v2a5 5 0 0 1-5 5Z"/></svg>