<svg width="20" height="20" viewBox="0 0 20 20" fill="none" xmlns="http://www.w3.org/2000/svg">
<path d="M0.5 1C0.5 0.723858 0.723858 0.5 1 0.5H19C19.2761 0.5 19.5 0.723858 19.5 1V19C19.5 19.2761 19.2761 19.5 19 19.5H1C0.723858 19.5 0.5 19.2761 0.5 19V1Z" fill="white"/>
<path d="M5 10H15" stroke="#0A8276" stroke-linecap="round" stroke-linejoin="round"/>
<path d="M0.5 1C0.5 0.723858 0.723858 0.5 1 0.5H19C19.2761 0.5 19.5 0.723858 19.5 1V19C19.5 19.2761 19.2761 19.5 19 19.5H1C0.723858 19.5 0.5 19.2761 0.5 19V1Z" stroke="#575352"/>
</svg>
