<svg xmlns="http://www.w3.org/2000/svg" viewBox="0 0 48 48" style="enable-background:new 0 0 48 48" xml:space="preserve"><path d="M28.3 4.9c-.152.406-10.477 37.75-10.446 37.781.107.107 1.777.518 1.821.447.097-.157 10.509-37.77 10.467-37.812-.04-.041-1.638-.508-1.753-.514-.029-.001-.069.043-.089.098M7.363 19.275c-3.188 2.545-5.808 4.661-5.823 4.704-.014.043 2.523 2.105 5.637 4.583 3.115 2.477 5.741 4.574 5.836 4.659l.173.154.567-.755c.312-.415.567-.776.567-.802 0-.026-2.178-1.781-4.84-3.899C6.818 25.8 4.64 24.037 4.64 24c0-.037 2.178-1.8 4.84-3.919 2.662-2.118 4.84-3.873 4.84-3.899 0-.051-1.11-1.545-1.142-1.537-.01.002-2.627 2.086-5.815 4.63m26.884-3.895c-.312.415-.567.776-.567.802 0 .026 2.178 1.781 4.84 3.899 2.662 2.119 4.84 3.882 4.84 3.919 0 .037-2.178 1.8-4.84 3.919-2.662 2.118-4.84 3.873-4.84 3.899 0 .026.255.387.567.802l.567.755.173-.154c.095-.085 2.72-2.181 5.833-4.657s5.66-4.53 5.66-4.564c0-.034-2.547-2.088-5.66-4.564a1090.086 1090.086 0 0 1-5.833-4.657l-.173-.154-.567.755" fill-rule="evenodd"/></svg>