<svg width="49" height="48" fill="none" xmlns="http://www.w3.org/2000/svg"><path d="M23.795 2.125c-1.253.226-2.356.835-3.381 1.868-.655.66-.84.908-1.164 1.56-.552 1.109-.668 1.619-.67 2.94 0 .68.043 1.273.113 1.546a6.7 6.7 0 0 0 4.323 4.647c.566.19.754.21 1.933.214 1.145.004 1.382-.019 1.919-.186 2.038-.632 3.71-2.305 4.343-4.342.163-.527.19-.784.189-1.838-.001-1.395-.105-1.915-.578-2.883a6.912 6.912 0 0 0-.758-1.153c-1.003-1.198-2.009-1.868-3.4-2.266-.5-.144-2.296-.21-2.869-.107m2.624 1.034c.862.214 1.725.725 2.454 1.452.739.738 1.065 1.255 1.393 2.208.195.566.225.785.23 1.634.003.803-.03 1.09-.185 1.592-.289.934-.695 1.595-1.435 2.335-1.153 1.154-2.276 1.622-3.886 1.622-1.614 0-2.741-.471-3.881-1.621-1.125-1.136-1.609-2.31-1.603-3.888.006-1.574.505-2.78 1.608-3.89.944-.949 1.964-1.429 3.427-1.611.395-.049 1.349.036 1.878.167M8.794 5.186c-.725.199-1.303.553-1.934 1.184-.918.918-1.307 1.853-1.307 3.144 0 1.251.418 2.255 1.307 3.144.875.875 1.91 1.305 3.144 1.305 1.236 0 2.261-.427 3.141-1.308.881-.88 1.308-1.905 1.308-3.141 0-1.957-1.195-3.623-3.043-4.243-.505-.17-.765-.206-1.42-.2-.441.004-.979.056-1.196.115m30.007.006c-1 .269-2.131 1.131-2.65 2.019-.744 1.273-.809 2.911-.169 4.276.293.627 1.37 1.714 1.993 2.013 1.299.623 2.815.615 4.072-.019.98-.495 1.901-1.577 2.219-2.606.23-.746.231-1.973.002-2.715-.42-1.361-1.658-2.571-3.015-2.947-.653-.181-1.818-.191-2.452-.021m-28.234.849c2.136.35 3.409 2.495 2.755 4.64-.281.92-1.314 1.897-2.322 2.197-.867.257-1.998.119-2.779-.339-.503-.294-1.169-1.024-1.402-1.534-.794-1.741-.047-3.861 1.638-4.649.783-.367 1.312-.445 2.11-.315m30.185.037c1.804.387 3.019 2.173 2.709 3.983-.397 2.314-2.838 3.6-4.954 2.61-.708-.331-1.357-.983-1.699-1.705-.246-.519-.262-.61-.262-1.452 0-.841.016-.933.261-1.45.597-1.26 1.786-2.045 3.169-2.091.135-.005.484.043.776.105M5.921 18.165c-1.415.354-2.63 1.456-3.161 2.864-.183.487-.185.526-.21 5.532-.017 3.356.003 5.094.059 5.199.059.11.505.297 1.494.625.775.257 1.42.476 1.434.487.013.011.242 2.423.509 5.359s.52 5.419.564 5.518c.049.112.18.197.348.228.148.027 1.623.038 3.277.025 2.868-.023 3.014-.032 3.124-.183.161-.22.145-.425-.047-.617-.157-.157-.273-.164-3.016-.164H7.443l-.049-.428c-.028-.236-.251-2.652-.497-5.368-.301-3.33-.48-4.972-.549-5.041-.057-.057-.727-.315-1.49-.574l-1.387-.471-.022-4.124c-.012-2.269.011-4.425.051-4.793.131-1.194.752-2.187 1.721-2.749.839-.486.834-.485 4.339-.522 3.694-.039 4.17.001 5.013.418.665.33 1.272.891 1.146 1.062-.044.059-.217.288-.385.508-.334.437-.603 1.069-.721 1.694-.042.223-.076 2.774-.076 5.728 0 4.976.009 5.334.143 5.455.079.071.979.339 1.999.594l1.856.464.04.256c.023.14.249 2.791.502 5.891.365 4.464.487 5.664.586 5.777.117.134.476.143 5.334.143 4.626 0 5.222-.014 5.336-.128.071-.071.129-.153.129-.184.002-.218.981-11.722 1-11.74.013-.013.849-.231 1.859-.484s1.902-.52 1.982-.592c.137-.124.144-.448.123-5.772-.023-5.632-.024-5.641-.207-6.094-.18-.445-.488-.953-.855-1.412l-.186-.233.392-.357a3.975 3.975 0 0 1 1.998-.939c.387-.058 1.718-.077 3.838-.055 3.503.037 3.592.047 4.376.507.502.294 1.168 1.024 1.401 1.534.332.73.366 1.259.366 5.82l.001 4.33-1.43.474c-.947.314-1.456.524-1.508.621-.043.081-.283 2.458-.534 5.282-.25 2.824-.472 5.218-.494 5.319l-.039.183h-2.841c-3.008 0-3.041.004-3.155.387-.04.133.002.238.154.391l.208.208 3.143-.023c2.734-.02 3.159-.04 3.271-.152.103-.104.224-1.172.614-5.431.266-2.916.485-5.358.486-5.427.001-.088.389-.251 1.329-.56.73-.239 1.41-.487 1.511-.551l.183-.115v-4.963c0-5.469.002-5.447-.513-6.42-.337-.636-1.185-1.484-1.822-1.821-.916-.485-1.165-.51-5.096-.51-3.932 0-4.182.025-5.095.51a5.553 5.553 0 0 0-.982.719l-.486.456-.455-.233c-.912-.466-1.003-.472-8.009-.472-7.008 0-7.042.002-7.978.474l-.485.245-.433-.437c-.509-.515-1.325-.967-2.056-1.139-.694-.164-7.47-.172-8.117-.009m26.528 2.149c1.062.503 1.833 1.513 2.011 2.634.05.32.084 2.453.084 5.36l.001 4.829-1.873.468c-1.209.301-1.92.518-2.003.61-.104.115-.223 1.264-.617 5.973l-.488 5.852c0 .011-2.059.02-4.574.02-2.515 0-4.573-.028-4.573-.061.002-.186-.909-11.211-.945-11.431-.023-.144-.093-.314-.156-.377s-.897-.308-1.854-.545c-.958-.237-1.805-.464-1.884-.504-.134-.068-.143-.378-.14-4.786.001-2.592.034-4.961.073-5.264.177-1.366 1.164-2.54 2.492-2.964.261-.083 1.764-.103 7.11-.092l6.778.013.558.265" fill-rule="evenodd" fill="#000"/></svg>