<svg width="49" height="48" viewBox="0 0 49 48" fill="none" xmlns="http://www.w3.org/2000/svg">
<path d="M10 13.5C7.791 13.5 6 11.709 6 9.5C6 7.291 7.791 5.5 10 5.5C12.209 5.5 14 7.291 14 9.5C14 11.709 12.209 13.5 10 13.5Z" stroke="#0A8276" stroke-linecap="round" stroke-linejoin="round"/>
<path d="M13 43.5H7L6 32.5L3 31.5V22.5C3 20.291 4.791 18.5 7 18.5H13C14.454 18.5 15.727 19.277 16.427 20.437" stroke="#0A8276" stroke-linecap="round" stroke-linejoin="round"/>
<path d="M40 13.5C42.209 13.5 44 11.709 44 9.5C44 7.291 42.209 5.5 40 5.5C37.791 5.5 36 7.291 36 9.5C36 11.709 37.791 13.5 40 13.5Z" stroke="#0A8276" stroke-linecap="round" stroke-linejoin="round"/>
<path d="M37 43.5H43L44 32.5L47 31.5V22.5C47 20.291 45.209 18.5 43 18.5H37C35.546 18.5 34.273 19.277 33.573 20.437" stroke="#0A8276" stroke-linecap="round" stroke-linejoin="round"/>
<path d="M25 14.5C21.686 14.5 19 11.814 19 8.5C19 5.186 21.686 2.5 25 2.5C28.314 2.5 31 5.186 31 8.5C31 11.814 28.314 14.5 25 14.5Z" stroke="#0A8276" stroke-linecap="round" stroke-linejoin="round"/>
<path d="M30 46.5H20L19 34.5L15 33.5V23.5C15 21.291 16.791 19.5 19 19.5H31C33.209 19.5 35 21.291 35 23.5V33.5L31 34.5L30 46.5Z" stroke="#0A8276" stroke-linecap="round" stroke-linejoin="round"/>
</svg>
