<svg width="17" height="16" viewBox="0 0 17 16" fill="none" xmlns="http://www.w3.org/2000/svg">
<g clip-path="url(#clip0_8356_267269)">
<path d="M5 4C5 3.17157 4.32843 2.5 3.5 2.5C2.67157 2.5 2 3.17157 2 4C2 4.82843 2.67157 5.5 3.5 5.5C4.32843 5.5 5 4.82843 5 4Z" stroke="#1D1D1D" stroke-linecap="round" stroke-linejoin="round"/>
<path d="M4 14.5H2V11.5H1V8.5C1 8.23478 1.10536 7.98043 1.29289 7.79289C1.48043 7.60536 1.73478 7.5 2 7.5H3" stroke="#1D1D1D" stroke-linecap="round" stroke-linejoin="round"/>
<path d="M12 4C12 4.82843 12.6716 5.5 13.5 5.5C14.3284 5.5 15 4.82843 15 4C15 3.17157 14.3284 2.5 13.5 2.5C12.6716 2.5 12 3.17157 12 4Z" stroke="#1D1D1D" stroke-linecap="round" stroke-linejoin="round"/>
<path d="M13 14.5H15V11.5H16V8.5C16 8.23478 15.8946 7.98043 15.7071 7.79289C15.5196 7.60536 15.2652 7.5 15 7.5H14" stroke="#1D1D1D" stroke-linecap="round" stroke-linejoin="round"/>
<path d="M10.5 2.5C10.5 1.39543 9.60457 0.5 8.5 0.5C7.39543 0.5 6.5 1.39543 6.5 2.5C6.5 3.60457 7.39543 4.5 8.5 4.5C9.60457 4.5 10.5 3.60457 10.5 2.5Z" stroke="#1D1D1D" stroke-linecap="round" stroke-linejoin="round"/>
<path d="M11 15.5H6V11.5H5V8.5C5 7.96957 5.21071 7.46086 5.58579 7.08579C5.96086 6.71071 6.46957 6.5 7 6.5H10C10.5304 6.5 11.0391 6.71071 11.4142 7.08579C11.7893 7.46086 12 7.96957 12 8.5V11.5H11V15.5Z" stroke="#1D1D1D" stroke-linecap="round" stroke-linejoin="round"/>
</g>
<defs>
<clipPath id="clip0_8356_267269">
<rect width="16" height="16" fill="white" transform="translate(0.5)"/>
</clipPath>
</defs>
</svg>
