<svg xmlns="http://www.w3.org/2000/svg" width="16" height="16" fill="none"><path d="M1.157.04a1.547 1.547 0 0 0-.983.763c-.187.354-.176-.041-.168 5.776l.007 5.248.072.183c.177.456.523.778 1.008.939.135.045.307.05 2.17.063l2.023.015 1.19 1.426C7.744 15.973 7.771 16 8 16c.229 0 .256-.027 1.524-1.547l1.19-1.426 2.023-.014c1.991-.014 2.026-.015 2.196-.073.461-.155.81-.485.982-.93l.072-.183.007-5.248c.006-4.635.002-5.268-.034-5.423A1.53 1.53 0 0 0 14.83.038C14.574-.016 1.407-.015 1.157.04m13.545 1.003c.086.044.204.16.247.242.032.062.038.839.038 5.208 0 4.987-.002 5.139-.051 5.235a.426.426 0 0 1-.249.231c-.086.036-.367.041-2.18.041-2.252 0-2.187-.004-2.343.141-.035.033-.531.62-1.102 1.306-.572.685-1.05 1.246-1.062 1.246-.012 0-.49-.561-1.062-1.246a73.236 73.236 0 0 0-1.102-1.306c-.156-.145-.091-.141-2.348-.142-1.982 0-2.094-.003-2.198-.05a.571.571 0 0 1-.186-.151l-.077-.101-.008-5.148c-.004-2.832-.001-5.175.007-5.207.019-.077.139-.218.24-.279.078-.048.3-.049 6.729-.05 4.863 0 6.664.008 6.707.03m-7.036.984a2.034 2.034 0 0 0-1.59 1.413c-.09.289-.09.831 0 1.12A2.06 2.06 0 0 0 7.44 5.924c.289.09.831.09 1.12 0A2.06 2.06 0 0 0 9.924 4.56c.09-.289.09-.831 0-1.12a2.038 2.038 0 0 0-1.35-1.354c-.241-.07-.686-.099-.908-.059m.769 1.078c.181.092.383.297.473.482.057.115.065.17.065.413 0 .256-.006.293-.077.432-.153.302-.436.51-.75.553a.998.998 0 0 1-1.042-.553c-.071-.139-.077-.176-.077-.432 0-.244.008-.297.065-.413.116-.235.343-.443.585-.536.064-.024.183-.035.351-.03.22.006.275.018.407.084M7.04 7.03c-.827.139-1.465.459-2.013 1.009a3.357 3.357 0 0 0-.835 1.334c-.171.502-.239 1.083-.154 1.305a.487.487 0 0 0 .361.306c.193.041 7.009.041 7.202 0 .17-.037.3-.147.361-.306.036-.095.043-.171.031-.379A3.522 3.522 0 0 0 9.32 7.101c-.262-.069-.284-.07-1.24-.076a25.342 25.342 0 0 0-1.04.005m2.057 1.044c.728.199 1.272.627 1.609 1.266.106.202.227.533.227.623 0 .031-.442.037-2.933.037-2.491 0-2.933-.006-2.933-.037 0-.021.025-.12.056-.22a2.481 2.481 0 0 1 1.584-1.607c.356-.119.509-.133 1.386-.125.715.007.822.013 1.004.063" fill-rule="evenodd" fill="#000"/></svg>