<svg width="16" height="16" viewBox="0 0 16 16" fill="none" xmlns="http://www.w3.org/2000/svg">
<path fill-rule="evenodd" clip-rule="evenodd" d="M0.43934 0.43934C0.720644 0.158035 1.10218 0 1.5 0H14.5C14.8978 0 15.2794 0.158035 15.5607 0.43934C15.842 0.720644 16 1.10217 16 1.5V11.5C16 11.8978 15.842 12.2794 15.5607 12.5607C15.2794 12.842 14.8978 13 14.5 13H10.7071L8.35355 15.3536L8 15.7071L7.64645 15.3536L5.29289 13H1.5C1.10217 13 0.720644 12.842 0.43934 12.5607C0.158035 12.2794 0 11.8978 0 11.5V1.5C0 1.10218 0.158035 0.720644 0.43934 0.43934ZM1.5 1C1.36739 1 1.24021 1.05268 1.14645 1.14645C1.05268 1.24021 1 1.36739 1 1.5V11.5C1 11.6326 1.05268 11.7598 1.14645 11.8536C1.24022 11.9473 1.36739 12 1.5 12H5.5H5.70711L5.85355 12.1464L8 14.2929L10.1464 12.1464L10.2929 12H10.5H14.5C14.6326 12 14.7598 11.9473 14.8536 11.8536C14.9473 11.7598 15 11.6326 15 11.5V1.5C15 1.36739 14.9473 1.24022 14.8536 1.14645C14.7598 1.05268 14.6326 1 14.5 1H1.5ZM8 3C7.44772 3 7 3.44772 7 4C7 4.55228 7.44772 5 8 5C8.55228 5 9 4.55228 9 4C9 3.44772 8.55228 3 8 3ZM6 4C6 2.89543 6.89543 2 8 2C9.10457 2 10 2.89543 10 4C10 5.10457 9.10457 6 8 6C6.89543 6 6 5.10457 6 4ZM5.73223 8.73223C6.20107 8.26339 6.83696 8 7.5 8H8.5C9.16304 8 9.79893 8.26339 10.2678 8.73223C10.617 9.08142 10.8522 9.52328 10.9495 10H5.0505C5.14782 9.52328 5.38304 9.08142 5.73223 8.73223ZM7.5 7C6.57174 7 5.6815 7.36875 5.02513 8.02513C4.36875 8.6815 4 9.57174 4 10.5V11H4.5H11.5H12V10.5C12 9.57174 11.6313 8.6815 10.9749 8.02513C10.3185 7.36875 9.42826 7 8.5 7H7.5Z" fill="#0A8276"/>
</svg>
