<svg xmlns="http://www.w3.org/2000/svg" width="24" height="24" fill="none"><path d="M1.252 1.078C.979 1.245 1 .492 1 10.008c0 8.471.002 8.614.078 8.74.163.267-.074.252 4.09.253l3.772.001 1.595 1.917a131.525 131.525 0 0 0 1.668 1.984c.114.103.394.116.537.025.066-.042.84-.942 1.72-2.001l1.6-1.925 3.78-.001c3.678-.001 3.783-.003 3.908-.079.273-.167.252.585.252-8.922 0-9.507.021-8.755-.252-8.922C23.622 1.001 23.459 1 12.5 1s-11.122.001-11.248.078M23 10v8h-3.614c-2.441 0-3.654.014-3.736.042-.089.032-.503.501-1.576 1.788l-1.514 1.819c-.056.068-.165-.052-1.574-1.745-1.121-1.346-1.546-1.83-1.636-1.862C9.267 18.014 8.059 18 5.614 18H2V2h21v8M11.96 5.062a2.893 2.893 0 0 0-1.125.574 2.774 2.774 0 0 0-.704 1.045c-.101.281-.108.349-.123 1.15-.022 1.194.061 1.574.47 2.134l.2.274-.955.72c-1.013.763-1.199.941-1.424 1.369-.237.449-.299.779-.299 1.58 0 .775.025.875.252 1.014.125.076.232.078 4.248.078s4.123-.002 4.248-.078c.227-.139.252-.239.252-1.014 0-.801-.062-1.131-.299-1.58-.225-.428-.411-.606-1.424-1.369l-.955-.72.2-.274c.409-.561.493-.941.47-2.134-.016-.802-.023-.868-.125-1.151a2.533 2.533 0 0 0-2.907-1.618m1.159 1.081c.296.135.608.449.748.753.113.244.113.245.113 1.104 0 .859 0 .86-.113 1.104a1.698 1.698 0 0 1-.767.764c-.207.097-.29.112-.6.112s-.393-.015-.6-.112a1.698 1.698 0 0 1-.767-.764C11.02 8.86 11.02 8.859 11.02 8c0-.858 0-.861.112-1.1.197-.423.618-.771 1.042-.861.267-.057.696-.009.945.104m-1.139 4.799c.341.08.937.058 1.249-.045l.21-.069 1.079.811c1.182.888 1.307 1.016 1.421 1.459.033.132.061.388.061.57V14H9v-.332c0-.413.085-.75.251-1.002.17-.256 2.244-1.839 2.369-1.808l.36.084" fill-rule="evenodd" fill="#000"/></svg>