<svg xmlns="http://www.w3.org/2000/svg" width="16" height="16" fill="currentColor" viewBox="0 0 16 16">
  <path fill-rule="evenodd" d="M8 1a7 7 0 1 0 0 14A7 7 0 0 0 8 1ZM0 8a8 8 0 1 1 16 0A8 8 0 0 1 0 8Z" clip-rule="evenodd"/>
  <path fill-rule="evenodd" d="M4.946 4.5c-.264 0-.437.187-.442.38a7.013 7.013 0 0 0 1.003 3.863c1.272 2.12 3.282 3.448 4.974 3.71.13.02.302-.06.385-.267l.432-1.081a.5.5 0 0 0-.207-.614l-1.265-.76a.254.254 0 0 0-.31.039 1.254 1.254 0 0 1-1.85-.084L6.338 8.092a1.403 1.403 0 0 1 .3-2.066.403.403 0 0 0 .137-.516l-.367-.734A.5.5 0 0 0 5.96 4.5H4.946Zm-1.442.348c.025-.802.71-1.348 1.442-1.348H5.96a1.5 1.5 0 0 1 1.342.83l.367.733a1.403 1.403 0 0 1-.477 1.795c-.2.133-.24.41-.086.594l1.328 1.594a.254.254 0 0 0 .375.017 1.254 1.254 0 0 1 1.532-.189l1.264.76a1.5 1.5 0 0 1 .621 1.842l-.432 1.081c-.22.552-.788.988-1.466.884-2.032-.314-4.28-1.852-5.678-4.184a8.013 8.013 0 0 1-1.146-4.409Z" clip-rule="evenodd"/>
</svg>
