<svg xmlns="http://www.w3.org/2000/svg" width="16" height="16" fill="none" viewBox="0 0 16 16">
  <path fill="#1D1D1D" d="M8.5 13.154c-2.437 0-4.523-1.82-4.523-4.676 0-2.842 2.086-4.62 4.522-4.62 2.436 0 4.522 1.778 4.522 4.62 0 2.856-2.086 4.676-4.522 4.676Zm0-.588c2.113 0 3.863-1.638 3.863-4.088 0-2.436-1.75-4.046-3.864-4.046s-3.864 1.61-3.864 4.046c0 2.45 1.75 4.088 3.864 4.088Zm.111-1.372c-1.428 0-2.548-.994-2.548-2.674 0-1.694 1.232-2.73 2.59-2.73.784 0 1.344.35 1.764.812l-.504.518a1.57 1.57 0 0 0-1.218-.56c-1.008 0-1.708.798-1.708 1.96 0 1.176.658 1.904 1.666 1.904.644 0 .98-.224 1.386-.602l.448.56c-.504.49-1.036.812-1.876.812Z"/>
</svg>
