<svg xmlns="http://www.w3.org/2000/svg" width="24" height="24" fill="none"><path d="M7.252 1.078C6.99 1.238 7 1.125 7 4.008c0 2.52.003 2.617.078 2.74A.54.54 0 0 0 7.5 7a.54.54 0 0 0 .422-.252C7.997 6.625 8 6.531 8 4.31V2h14v17h-2.802c-3.092 0-2.959-.011-3.12.252a.451.451 0 0 0 0 .496c.161.264-.005.252 3.43.252 3.016 0 3.116-.003 3.24-.078.274-.167.252.638.252-9.422s.022-9.255-.252-9.422C22.622 1.002 22.487 1 15 1s-7.622.002-7.748.078m-5 9C1.98 10.244 2 9.704 2 17.008c0 6.487.002 6.614.078 6.74.165.27-.214.252 5.422.252s5.257.018 5.422-.252c.076-.126.078-.253.078-6.74 0-7.304.02-6.764-.252-6.93-.125-.076-.24-.078-5.248-.078s-5.123.002-5.248.078M12 17v6H3V11h9v6" fill-rule="evenodd" fill="#000"/></svg>