<svg xmlns="http://www.w3.org/2000/svg" width="16" height="16" fill="none"><path d="M4.36.023a.578.578 0 0 0-.281.211l-.066.095-.007 1.122C3.997 2.686 4 2.714 4.159 2.866c.075.071.314.156.382.135a2.71 2.71 0 0 1 .105-.026c.091-.02.248-.156.309-.266.039-.071.046-.191.053-.889l.009-.807h9.97v12h-1.815c-1.532 0-1.826.006-1.889.039-.102.052-.239.213-.258.302a2.71 2.71 0 0 1-.026.105c-.019.063.061.304.124.372a.65.65 0 0 0 .17.119c.101.046.222.049 2.208.049 1.702.001 2.117-.006 2.187-.035.117-.049.279-.235.298-.342.009-.049.012-3.061.008-6.693L15.987.324 15.932.25a1.202 1.202 0 0 0-.156-.155l-.101-.082-5.631-.004C6.947.007 4.389.013 4.36.023M.28 5.055a.445.445 0 0 0-.23.238c-.047.103-.049.315-.049 5.205C0 14.03.009 15.62.028 15.672a.66.66 0 0 0 .284.291c.072.031.758.037 4.187.036 3.921 0 4.106-.002 4.209-.049a.476.476 0 0 0 .277-.356c.021-.099.027-1.624.022-5.181-.006-4.638-.011-5.046-.051-5.12a.74.74 0 0 0-.254-.25c-.043-.021-1.191-.03-4.2-.03-3.704.001-4.15.005-4.222.042M8 10.507v4.506H1.013V6H8v4.507" fill-rule="evenodd" fill="#000"/></svg>