<svg xmlns="http://www.w3.org/2000/svg" width="16" height="16" fill="none"><path d="m7.493.015-.386.04C5.77.189 4.339.751 3.243 1.572 1.109 3.173-.075 5.619.009 8.253c.115 3.601 2.59 6.65 6.101 7.518a8.041 8.041 0 0 0 6.1-.969 8.009 8.009 0 0 0 3.561-4.915c.172-.701.212-1.058.212-1.887s-.04-1.186-.212-1.887C14.979 2.878 12.315.498 9 .064 8.716.027 7.683-.006 7.493.015m1.242 1.027c2.353.233 4.481 1.715 5.532 3.851.505 1.029.72 1.96.719 3.118 0 1.405-.385 2.694-1.142 3.83-.311.466-.53.735-.9 1.105a6.918 6.918 0 0 1-4.546 2.04c-3.472.208-6.587-2.206-7.261-5.626A6.503 6.503 0 0 1 1.013 8c0-.529.035-.909.124-1.36a7.011 7.011 0 0 1 4.379-5.184 7.462 7.462 0 0 1 1.711-.413 11.497 11.497 0 0 1 1.508-.001m-.988 2.011c-1.031.145-1.779.496-2.414 1.133-.857.86-1.282 2.021-1.324 3.614-.046 1.737.399 3.086 1.324 4.015.721.723 1.625 1.094 2.857 1.172.899.057 1.684-.078 2.41-.412.311-.143.45-.363.385-.608a.515.515 0 0 0-.483-.393c-.053 0-.193.04-.311.091A3.89 3.89 0 0 1 8.583 12c-1.112-.001-1.945-.293-2.544-.892-.549-.551-.896-1.379-.999-2.388a10.485 10.485 0 0 1 0-1.44c.102-.999.45-1.836.986-2.375.555-.557 1.287-.842 2.301-.895a3.975 3.975 0 0 1 1.775.294c.175.071.342.122.399.122.311-.002.564-.322.485-.614-.05-.187-.181-.3-.501-.434a4.544 4.544 0 0 0-.908-.288c-.337-.073-1.414-.095-1.83-.037" fill-rule="evenodd" fill="#000"/></svg>