<svg xmlns="http://www.w3.org/2000/svg" width="24" height="24" fill="none"><path d="m11.04 1.064-.48.058c-1.912.233-3.877 1.075-5.441 2.332a11.017 11.017 0 0 0-4.021 7.261c-.078.654-.078 1.916 0 2.57A11.038 11.038 0 0 0 3.5 18.941a11.02 11.02 0 0 0 7.215 3.961c.654.078 1.916.078 2.57 0a11.024 11.024 0 0 0 5.655-2.403 11.012 11.012 0 0 0 3.962-7.214c.078-.654.078-1.916 0-2.57-.24-2.012-1.086-4.039-2.318-5.555C18.795 2.958 16.4 1.579 13.6 1.139c-.402-.063-2.21-.116-2.56-.075m2.52 1.034a10.13 10.13 0 0 1 5.522 2.82 9.699 9.699 0 0 1 1.899 2.662 9.81 9.81 0 0 1 .926 2.901c.104.654.104 2.384 0 3.038a10.102 10.102 0 0 1-2.825 5.563 10.018 10.018 0 0 1-4.431 2.58c-4.638 1.271-9.536-.936-11.632-5.242a9.81 9.81 0 0 1-.926-2.901c-.104-.654-.104-2.384 0-3.038.167-1.053.448-1.927.948-2.941 1.478-2.999 4.328-5.03 7.691-5.481.569-.076 2.258-.053 2.828.039m-2.016 3.743c-1.363.156-2.394.636-3.227 1.503-.75.781-1.226 1.815-1.463 3.176-.079.46-.115 1.909-.059 2.451.121 1.185.474 2.257 1.005 3.052.284.425.977 1.11 1.372 1.354.859.533 1.754.774 3.008.811.843.025 1.374-.037 2.002-.233.424-.132 1.298-.506 1.298-.554 0-.03-.357-.808-.384-.837-.008-.009-.191.066-.406.166-.887.416-1.461.531-2.487.498-.96-.03-1.565-.165-2.216-.494-1.108-.56-1.861-1.69-2.154-3.234-.08-.421-.091-.606-.091-1.5s.011-1.079.091-1.5c.257-1.353.83-2.333 1.747-2.987.682-.487 1.684-.753 2.833-.753.842 0 1.496.146 2.259.503.209.097.391.177.406.177.03 0 .421-.837.398-.853a23.864 23.864 0 0 0-.456-.214c-.882-.409-1.424-.532-2.44-.553-.396-.008-.862.001-1.036.021" fill-rule="evenodd" fill="#000"/></svg>