<svg xmlns="http://www.w3.org/2000/svg" width="24" height="24" fill="none"><path d="M3.011 6.65c.016 5.073.004 4.798.25 5.65A6.522 6.522 0 0 0 7.7 16.739c.863.25.455.235 6.799.25l5.798.013-2.249 2.25-2.249 2.249.351.349.351.349L19.1 19.6c2.516-2.516 2.605-2.6 2.75-2.6.146 0 .15-.004.15-.148 0-.103.03-.179.1-.252l.101-.105-.101-.095c-.073-.068-.1-.135-.1-.247 0-.15-.003-.153-.15-.153-.145 0-.234-.084-2.75-2.6l-2.599-2.599-.351.349-.351.349 2.251 2.251L20.3 16l-5.6-.001c-5.879 0-5.899-.001-6.571-.176a5.5 5.5 0 0 1-4.087-4.751C4.015 10.824 4 9.109 4 6.342V2H2.997l.014 4.65" fill-rule="evenodd" fill="#000"/></svg>