<svg xmlns="http://www.w3.org/2000/svg" width="16" height="16" fill="none"><path d="M2.301 2.044c-.256.126-.364.392-.26.644.029.07.807.865 2.647 2.705L7.293 8l-2.605 2.607c-1.84 1.84-2.618 2.635-2.647 2.705a.46.46 0 0 0 .101.525.47.47 0 0 0 .546.122c.07-.029.865-.807 2.705-2.647L8 8.707l2.607 2.605c1.84 1.84 2.635 2.618 2.705 2.647a.47.47 0 0 0 .546-.122.46.46 0 0 0 .101-.525c-.029-.07-.807-.865-2.647-2.705L8.707 8l2.605-2.607c1.84-1.84 2.618-2.635 2.647-2.705a.497.497 0 0 0 .004-.377.583.583 0 0 0-.382-.3c-.27-.04-.105-.189-2.961 2.664L8 7.293 5.393 4.687C3.553 2.848 2.758 2.07 2.688 2.041a.49.49 0 0 0-.387.003" fill-rule="evenodd" fill="#000"/></svg>