<svg xmlns="http://www.w3.org/2000/svg" width="12" height="12" fill="none"><path d="M1.335 1.03a.54.54 0 0 0-.271.228c-.046.078-.054.115-.054.242a.492.492 0 0 0 .037.22c.021.038.983 1.017 2.14 2.175L5.29 6 3.187 8.105c-1.157 1.158-2.119 2.137-2.14 2.175a.492.492 0 0 0-.037.22c0 .129.008.163.056.246a.536.536 0 0 0 .302.236.588.588 0 0 0 .355-.032c.037-.019 1.014-.98 2.172-2.137L6 6.71l2.105 2.103c1.158 1.157 2.137 2.119 2.175 2.14a.492.492 0 0 0 .22.037c.129 0 .163-.008.246-.056a.536.536 0 0 0 .236-.302.588.588 0 0 0-.032-.355c-.019-.037-.98-1.014-2.137-2.172L6.71 6l2.103-2.105c1.157-1.158 2.119-2.137 2.14-2.175a.492.492 0 0 0 .037-.22c0-.127-.008-.164-.054-.242a.5.5 0 0 0-.607-.225c-.091.029-.276.208-2.214 2.144L6 5.289 3.885 3.177C1.947 1.241 1.762 1.062 1.671 1.033a.51.51 0 0 0-.336-.003" fill-rule="evenodd" fill="#000"/></svg>