<svg xmlns="http://www.w3.org/2000/svg" width="24" height="24" fill="none"><path d="M5.252 5.078c-.228.139-.312.413-.195.634.032.059 1.562 1.611 3.4 3.448L11.8 12.5l-3.356 3.36c-1.846 1.848-3.376 3.399-3.4 3.447-.189.375.274.838.649.649.048-.024 1.599-1.554 3.447-3.4L12.5 13.2l3.34 3.343c1.837 1.838 3.389 3.368 3.448 3.4.401.213.868-.254.655-.655-.032-.059-1.562-1.611-3.4-3.448L13.2 12.5l3.356-3.36c1.846-1.848 3.376-3.399 3.4-3.447.189-.375-.274-.838-.649-.649-.048.024-1.599 1.554-3.447 3.4L12.5 11.8 9.16 8.457c-1.837-1.838-3.389-3.368-3.448-3.4a.446.446 0 0 0-.46.021" fill-rule="evenodd" fill="#000"/></svg>