<svg xmlns="http://www.w3.org/2000/svg" width="16" height="16" viewBox="0 0 16 16">
  <path fill="#1D1D1D" d="M11 6.5a.5.5 0 1 1-1 0 .5.5 0 0 1 1 0Zm2 2a.5.5 0 1 1-1 0 .5.5 0 0 1 1 0Zm-2 2a.5.5 0 1 1-1 0 .5.5 0 0 1 1 0Zm-2-2a.5.5 0 1 1-1 0 .5.5 0 0 1 1 0ZM9.5 7a.5.5 0 1 1-1 0 .5.5 0 0 1 1 0Zm0 3a.5.5 0 1 1-1 0 .5.5 0 0 1 1 0Zm3-3a.5.5 0 1 1-1 0 .5.5 0 0 1 1 0Zm0 3a.5.5 0 1 1-1 0 .5.5 0 0 1 1 0Z"/>
  <path fill="#1D1D1D" fill-rule="evenodd" d="M15 4H1v9h14V4ZM1 3a1 1 0 0 0-1 1v9a1 1 0 0 0 1 1h14a1 1 0 0 0 1-1V4a1 1 0 0 0-1-1H1Z" clip-rule="evenodd"/>
  <path fill="#1D1D1D" fill-rule="evenodd" d="M5 8H3v1h2V8ZM2 7v3h4V7H2Z" clip-rule="evenodd"/>
</svg>
