<svg xmlns="http://www.w3.org/2000/svg" width="16" height="16" fill="#0A8276"><path d="M1.292.05a.479.479 0 0 0-.276.351c-.041.189-.041 7.009 0 7.198a.59.59 0 0 0 .099.219.531.531 0 0 0 .557.154c.164-.062.328-.28.328-.436 0-.059.013-.067.14-.081.077-.009 2.726-.214 5.887-.455 3.16-.241 5.796-.444 5.856-.452.108-.012.11-.011.141.093a.521.521 0 0 0 .29.322.575.575 0 0 0 .399-.013.664.664 0 0 0 .267-.304c.011-.04.02-.343.02-.673v-.6l-.072-.12c-.107-.18-5.102-5.16-5.227-5.212-.088-.036-.569-.041-4.2-.04-3.921 0-4.106.002-4.209.049m1.911 7.698c-.515.112-.917.333-1.249.688-.209.224-.309.37-.435.639-.207.442-.281.878-.259 1.52.028.782.261 1.375.718 1.824.407.4.808.583 1.428.65.716.077 1.389-.153 1.853-.634l.098-.102-.319-.351-.319-.351-.086.081a1.687 1.687 0 0 1-.536.328c-.27.081-.664.039-.934-.099-.158-.08-.356-.28-.47-.473-.336-.574-.345-1.502-.019-2.116.16-.302.487-.556.816-.632.316-.074.724.023 1.009.239l.138.105.311-.346c.187-.209.305-.361.296-.384-.024-.062-.389-.306-.644-.431a2.33 2.33 0 0 0-.427-.156 3.186 3.186 0 0 0-.97.001m4.452-.014c-.723.152-1.279.635-1.402 1.219a1.264 1.264 0 0 0-.002.596c.055.259.14.415.339.624.259.272.313.301 1.502.816.595.257.708.358.708.632 0 .17-.079.288-.252.377-.112.058-.176.07-.413.078-.447.014-.809-.096-1.234-.376a1.524 1.524 0 0 0-.224-.134c-.022.01-.65.763-.65.779.001.035.399.307.585.401.685.343 1.512.434 2.157.236.88-.269 1.366-1.019 1.193-1.839a1.165 1.165 0 0 0-.359-.636c-.236-.232-.414-.321-1.679-.841-.304-.125-.434-.215-.496-.346-.095-.202-.002-.416.234-.541.128-.067.16-.072.445-.07.367.002.61.071.943.266.115.068.219.113.231.101.012-.013.141-.173.288-.356.304-.38.301-.342.034-.54-.203-.151-.51-.3-.79-.382-.202-.059-.303-.072-.64-.08a3.582 3.582 0 0 0-.518.016m2.893.113c.008.033.36 1.2.781 2.593l.766 2.533.706.007.706.007.77-2.567c.423-1.412.776-2.582.783-2.601.01-.026-.11-.032-.583-.026l-.596.007-.444 1.773c-.539 2.155-.583 2.32-.612 2.32-.027 0-.046-.065-.188-.653-.085-.35-.496-1.966-.853-3.353l-.026-.1h-1.226l.016.06m3.724 4.715a.505.505 0 0 0-.262.35c-.015.093-.023.1-.127.112-.06.008-2.684.11-5.83.228-3.146.117-5.792.219-5.881.226l-.162.012-.03-.113a.478.478 0 0 0-.487-.364c-.151 0-.216.026-.329.13-.166.154-.163.133-.172 1.266-.006.695.002 1.083.022 1.18a.48.48 0 0 0 .278.361c.104.047.362.049 6.708.049s6.604-.002 6.708-.049a.48.48 0 0 0 .278-.36c.02-.097.027-.553.022-1.42-.008-1.215-.011-1.282-.061-1.382a.5.5 0 0 0-.675-.226" fill-rule="evenodd"/></svg>