<svg xmlns="http://www.w3.org/2000/svg" width="24" height="24" fill="none"><path d="M7.26 1.076c-.066.042-1.277 1.234-2.69 2.651L2 6.301v.398l2.59 2.593c1.425 1.426 2.639 2.619 2.698 2.651.388.205.864-.248.668-.636-.024-.048-.992-1.036-2.15-2.197L3.7 7h6.48c6.515 0 7.001.009 7.659.145 2.486.513 4.503 2.535 5.018 5.027a7.22 7.22 0 0 1 0 2.658c-.481 2.328-2.261 4.245-4.557 4.909-.837.242-.655.233-4.98.258-3.18.018-3.999.034-4.072.076A.584.584 0 0 0 9 20.5c0 .16.128.361.279.44.111.057.529.062 4.112.05 3.951-.012 3.993-.013 4.444-.103a7.643 7.643 0 0 0 3.96-2.092 7.612 7.612 0 0 0 2.092-3.981c.13-.684.13-1.944 0-2.628-.629-3.33-3.319-5.81-6.664-6.143-.295-.029-2.564-.043-6.98-.043H3.7l2.106-2.11c1.158-1.161 2.126-2.149 2.15-2.197C8.104 1.399 7.837 1 7.492 1a.52.52 0 0 0-.232.076" fill-rule="evenodd" fill="#000"/></svg>