<svg xmlns="http://www.w3.org/2000/svg" width="16" height="16" fill="none"><path d="M11.293.049a.45.45 0 0 0-.268.321.504.504 0 0 0 .041.377c.018.037.749.783 1.623 1.66L14.279 4H9.544c-3.213 0-4.828.009-5.026.029A5.02 5.02 0 0 0 .701 6.453a5.365 5.365 0 0 0-.626 1.671c-.086.456-.086 1.296 0 1.752A5.077 5.077 0 0 0 1.47 12.53a5.1 5.1 0 0 0 2.64 1.395l.303.06 3.56.009c1.958.005 3.6.001 3.649-.008.107-.019.293-.182.342-.298a.497.497 0 0 0-.005-.375.426.426 0 0 0-.231-.249c-.096-.049-.214-.051-3.387-.051-3.265-.001-3.743-.012-4.142-.094C2.712 12.612 1.5 11.458 1.135 10a3.49 3.49 0 0 1-.122-1c0-.82.214-1.535.662-2.213a4.02 4.02 0 0 1 2.77-1.745c.132-.02 1.693-.029 5.013-.029h4.821l-1.617 1.62c-1.575 1.578-1.618 1.624-1.644 1.751a.592.592 0 0 0-.018.16c.005.016.016.062.025.102a.648.648 0 0 0 .238.293.527.527 0 0 0 .356.042c.124-.025.191-.089 2.214-2.11 1.148-1.146 2.105-2.122 2.127-2.168a.547.547 0 0 0-.001-.404c-.029-.069-.641-.7-2.033-2.094C12.83 1.108 11.877.168 11.807.117a.495.495 0 0 0-.514-.068" fill-rule="evenodd" fill="#000"/></svg>