<svg xmlns="http://www.w3.org/2000/svg" width="16" height="16" fill="none"><path d="M4.36.02a.706.706 0 0 0-.16.088c-.059.041-1.009.979-2.112 2.083C.686 3.595.07 4.23.041 4.299a.547.547 0 0 0-.001.404c.022.046.979 1.022 2.127 2.168 2.023 2.021 2.09 2.085 2.214 2.11a.527.527 0 0 0 .356-.042.648.648 0 0 0 .238-.293c.009-.04.02-.086.025-.102a.592.592 0 0 0-.018-.16c-.026-.127-.069-.173-1.644-1.751l-1.617-1.62h4.821c3.32 0 4.881.009 5.013.029 1.466.221 2.63 1.151 3.183 2.545.077.194.181.597.22.858.037.247.037.863 0 1.11a4.028 4.028 0 0 1-3.324 3.398c-.206.038-.651.045-3.783.058l-3.549.016-.1.077a.513.513 0 0 0-.166.584c.049.116.235.279.342.298.049.009 1.691.013 3.649.008l3.56-.009.303-.06c2.08-.414 3.645-1.984 4.035-4.049.086-.456.086-1.296 0-1.752-.419-2.22-2.213-3.873-4.443-4.095C11.284 4.009 9.669 4 6.456 4H1.721l1.59-1.593C4.185 1.53 4.916.784 4.934.747c.094-.183.069-.442-.057-.578A.548.548 0 0 0 4.36.02" fill-rule="evenodd" fill="#000"/></svg>