<svg xmlns="http://www.w3.org/2000/svg" width="24" height="24" fill="none"><path d="M17.252 1.078c-.217.133-.311.41-.208.615.024.048.992 1.036 2.15 2.197L21.3 6h-6.543c-4.416 0-6.685.014-6.98.043A7.532 7.532 0 0 0 2.051 9.68a8.068 8.068 0 0 0-.938 2.506c-.13.684-.13 1.944 0 2.628a7.601 7.601 0 0 0 2.092 3.981 7.643 7.643 0 0 0 3.96 2.092c.451.09.493.091 4.444.103 3.583.012 4.001.007 4.112-.05A.561.561 0 0 0 16 20.5a.584.584 0 0 0-.248-.427c-.073-.042-.892-.058-4.072-.076-4.325-.025-4.143-.016-4.98-.258a6.541 6.541 0 0 1-4.392-4.28 6.674 6.674 0 0 1 0-3.918c.697-2.21 2.596-3.93 4.853-4.396C7.819 7.009 8.305 7 14.82 7h6.48l-2.106 2.11c-1.158 1.161-2.126 2.149-2.15 2.197-.196.388.28.841.668.636.059-.032 1.273-1.225 2.698-2.651L23 6.699v-.398l-2.59-2.593c-1.425-1.426-2.639-2.619-2.698-2.651a.446.446 0 0 0-.46.021" fill-rule="evenodd" fill="#000"/></svg>