<svg xmlns="http://www.w3.org/2000/svg" width="16" height="16" fill="currentColor">
  <g clip-path="url(#a)">
    <path d="M7.646 3.94 4.354.645l-.708.708L6.94 4.646a.5.5 0 0 1 0 .708l-.689.689-3.396-3.397-.708.708L5.543 6.75l-.69.69a.5.5 0 0 1-.707 0L.854 4.145l-.708.708L3.44 8.146a1.5 1.5 0 0 0 2.122 0l.689-.689L7.543 8.75l-5.897 5.896.708.708L14.857 2.85c.01.039.02.08.028.123.104.522.12 1.432-.36 2.869-.678 2.035-2.32 4.216-6.146 5.173l.242.97c4.173-1.043 6.072-3.482 6.853-5.827.521-1.563.537-2.652.391-3.381a2.81 2.81 0 0 0-.287-.817 1.764 1.764 0 0 0-.14-.215c-.02-.026-.084-.099-.084-.099L15 1.293l-6.75 6.75L6.957 6.75l.69-.69a1.5 1.5 0 0 0 0-2.12Z"/>
    <path fill-rule="evenodd" d="m13.646 14.854-2.5-2.5.708-.707 2.5 2.5-.707.707Z" clip-rule="evenodd"/>
  </g>
  <defs>
    <clipPath id="a">
      <path d="M0 0h16v16H0z"/>
    </clipPath>
  </defs>
</svg>
