<svg xmlns="http://www.w3.org/2000/svg" width="16" height="16" fill="none"><path d="M11.753 4.58 8.027 8.307l-.82-.82-.82-.82.773-.774.773-.773-2.046-2.047L3.84 1.027l-.353.353-.353.353 1.693 1.694L6.52 5.12l-.42.42-.42.42-1.693-1.693-1.693-1.693-.361.36-.361.359 1.701 1.685 1.7 1.684-.413.416c-.227.228-.425.415-.44.415-.015 0-.783-.756-1.707-1.68L.734 4.134l-.354.353-.354.353 2.047 2.046L4.12 8.933l.78-.78.78-.779.82.819.82.82L4.333 12l-2.986 2.987.353.353.353.353 6.45-6.449 6.45-6.45.019.196a8.042 8.042 0 0 1-.027 1.361 5.857 5.857 0 0 1-.966 2.516c-.235.337-.475.611-.902 1.026-1.08 1.05-2.104 1.806-3.144 2.321-.492.244-.852.373-1.22.439-.143.026-.259.054-.259.063 0 .01.04.227.089.484l.089.467.104-.008c.191-.015.661-.132.931-.232 1.265-.47 2.762-1.501 4.143-2.853.466-.457.665-.682.947-1.074 1.061-1.474 1.48-3.459 1.111-5.257a19.87 19.87 0 0 0-.367-1.329c-.02-.054-.39.308-3.748 3.666m-.24 7.947-.339.34 1.406 1.407 1.407 1.406.353-.353.353-.354L13.3 13.58c-.767-.766-1.406-1.393-1.42-1.393-.015 0-.18.153-.367.34" fill-rule="evenodd" fill="#000"/></svg>