<svg xmlns="http://www.w3.org/2000/svg" width="24" height="24" fill="none"><path d="M5.649 3.131c-.181.182-.329.348-.329.37 0 .021 1.116 1.155 2.48 2.519l2.48 2.481-.64.639-.64.639L6.5 7.28 4.001 4.781l-.341.339c-.187.186-.34.357-.34.379 0 .022 1.116 1.157 2.48 2.521l2.48 2.481-.64.639-.64.639L4.5 9.28 2.001 6.781l-.341.339c-.187.186-.34.357-.34.379 0 .023 1.278 1.319 2.84 2.881L7 13.22l1-1 1-.999 1.14 1.139 1.14 1.14-3.98 3.98c-2.189 2.189-3.98 3.999-3.98 4.021 0 .022.153.193.34.379l.341.339 8.354-8.354c6.158-6.158 8.36-8.336 8.378-8.289.014.036.046.34.073.676a7.574 7.574 0 0 1-1.644 5.302c-.563.705-1.848 1.885-2.919 2.682-1.231.915-2.681 1.661-3.513 1.806-.251.044-.29.062-.29.134 0 .103.146.863.17.888.01.009.16-.01.334-.043 1.25-.236 3.135-1.3 4.838-2.73 2.077-1.746 3.003-2.968 3.599-4.752.481-1.439.583-2.964.294-4.379a22.607 22.607 0 0 0-.418-1.558c-.014-.038-1.608 1.529-4.639 4.56L12 12.78l-1.14-1.14-1.14-1.139.98-.981c.539-.539.98-.999.98-1.02 0-.04-5.641-5.7-5.681-5.7-.011 0-.169.149-.35.331m11 15c-.181.182-.329.348-.329.37 0 .022.828.867 1.84 1.879l1.839 1.839.341-.339c.187-.186.34-.357.34-.379 0-.041-3.641-3.701-3.681-3.701-.011 0-.169.149-.35.331" fill-rule="evenodd" fill="#000"/></svg>