<svg xmlns="http://www.w3.org/2000/svg" width="16" height="16" fill="none"><path d="M1.157.04a1.547 1.547 0 0 0-.983.763C-.012 1.156.001.609.001 8c0 7.394-.014 6.843.174 7.199.122.232.394.504.626.626.356.188-.195.174 7.199.174s6.843.014 7.199-.174c.232-.122.504-.394.626-.626.188-.356.174.195.174-7.199 0-5.86-.005-6.701-.04-6.851A1.533 1.533 0 0 0 14.83.038C14.574-.016 1.407-.015 1.157.04m13.545 1.003c.086.044.204.16.247.242.057.11.056 13.321-.001 13.432a.673.673 0 0 1-.302.263c-.095.026-13.197.026-13.292 0a.673.673 0 0 1-.302-.263C.995 14.606.994 1.395 1.051 1.285a.743.743 0 0 1 .242-.241c.077-.042 13.326-.043 13.409-.001M3.266 3.063a.637.637 0 0 0-.246.292c-.026.094-.026 3.197 0 3.291.026.093.164.25.271.309C3.366 6.996 3.52 7 5 7s1.634-.004 1.709-.045c.107-.059.245-.216.271-.309.026-.095.026-3.197 0-3.292a.673.673 0 0 0-.263-.302c-.063-.033-.335-.039-1.722-.039-1.559.001-1.653.003-1.729.05m6 0a.637.637 0 0 0-.246.292c-.026.094-.026 9.197 0 9.291.026.093.164.25.271.309.075.041.229.045 1.709.045s1.634-.004 1.709-.045c.107-.059.245-.216.271-.309.026-.095.026-9.197 0-9.292a.673.673 0 0 0-.263-.302c-.063-.033-.335-.039-1.722-.039-1.559.001-1.653.003-1.729.05M6 5v1H4V4h2v1m6 3v4h-2V4h2v4M3.266 9.063a.637.637 0 0 0-.246.292c-.026.094-.026 3.197 0 3.291.026.093.164.25.271.309.075.041.229.045 1.709.045s1.634-.004 1.709-.045c.107-.059.245-.216.271-.309.026-.095.026-3.197 0-3.292a.673.673 0 0 0-.263-.302c-.063-.033-.335-.039-1.722-.039-1.559.001-1.653.003-1.729.05M6 11v1H4v-2h2v1" fill-rule="evenodd" fill="#000"/></svg>