<svg xmlns="http://www.w3.org/2000/svg" width="24" height="24" fill="none"><path d="M2.252 2.078C1.978 2.245 2 1.333 2 12.508c0 9.959.001 10.114.078 10.24.167.274-.745.252 10.43.252 9.959 0 10.114-.001 10.24-.078.274-.167.252.744.252-10.422s.022-10.255-.252-10.422C22.622 2.001 22.467 2 12.5 2c-9.967 0-10.122.001-10.248.078M22 12.5V22H3V3h19v9.5M6.252 6.078C5.994 6.236 6 6.177 6 8.508c0 2.024.004 2.117.078 2.24.158.258.1.252 2.422.252s2.264.006 2.422-.252c.074-.123.078-.216.078-2.24 0-2.331.006-2.272-.252-2.43C10.625 6.004 10.532 6 8.5 6s-2.125.004-2.248.078m8 0c-.271.166-.252-.321-.252 6.43 0 5.991.002 6.115.078 6.24.158.258.099.252 2.43.252 2.024 0 2.117-.004 2.24-.078.271-.166.252.32.252-6.422s.019-6.256-.252-6.422C18.625 6.004 18.532 6 16.5 6s-2.125.004-2.248.078M10 8.5V10H7V7h3v1.5m8 4V18h-3V7h3v5.5M6.252 14.078c-.258.158-.252.099-.252 2.43 0 2.024.004 2.117.078 2.24.158.258.1.252 2.422.252s2.264.006 2.422-.252c.074-.123.078-.216.078-2.24 0-2.331.006-2.272-.252-2.43-.123-.074-.216-.078-2.248-.078s-2.125.004-2.248.078M10 16.5V18H7v-3h3v1.5" fill-rule="evenodd" fill="#000"/></svg>