<svg xmlns="http://www.w3.org/2000/svg" width="16" height="16" fill="currentColor">
  <path fill-rule="evenodd" d="M2.347 2.397C2.08 2.64 2 2.844 2 3c0 .156.08.36.347.603.267.243.682.485 1.236.698C4.69 4.726 6.25 5 8 5s3.311-.274 4.417-.699c.554-.213.969-.455 1.236-.698C13.92 3.36 14 3.156 14 3c0-.156-.08-.36-.347-.603-.267-.243-.682-.485-1.236-.698C11.31 1.274 9.75 1 8 1s-3.311.274-4.417.699c-.554.213-.969.455-1.236.698ZM3.224.766C4.471.286 6.16 0 8 0c1.84 0 3.529.286 4.776.766.621.239 1.159.536 1.55.891.39.355.674.808.674 1.343 0 .535-.284.988-.674 1.343-.391.355-.929.652-1.55.891C11.529 5.714 9.84 6 8 6c-1.84 0-3.529-.286-4.776-.766-.621-.239-1.159-.536-1.55-.891C1.284 3.988 1 3.535 1 3c0-.535.284-.988.674-1.343.391-.355.929-.652 1.55-.891ZM2 6v7c0 .156.08.36.347.603.267.243.682.485 1.236.698C4.69 14.726 6.25 15 8 15s3.311-.274 4.417-.699c.554-.213.969-.455 1.236-.698.267-.242.347-.447.347-.603V6h1v7c0 .535-.284.988-.674 1.343-.391.355-.928.652-1.55.892C11.529 15.715 9.84 16 8 16c-1.84 0-3.529-.286-4.776-.765-.621-.24-1.159-.537-1.55-.892C1.284 13.988 1 13.535 1 13V6h1Z" clip-rule="evenodd"/>
</svg>
