<svg xmlns="http://www.w3.org/2000/svg" width="16" height="16" fill="none"><path d="M7.093.029c-2.666.142-4.849.876-5.68 1.908-.284.354-.405.671-.405 1.063 0 1 .931 1.828 2.697 2.398.789.255 1.667.424 2.805.54.657.066 2.323.066 2.98 0 .867-.088 1.493-.191 2.141-.352 1.878-.466 3.072-1.258 3.316-2.201.229-.884-.333-1.729-1.56-2.345C11.885.287 9.486-.099 7.093.029M9.56 1.076c1.554.17 2.734.489 3.594.972.414.232.733.545.807.79.048.162.048.162 0 .324-.099.331-.571.716-1.237 1.01-1.325.586-3.32.89-5.331.812-1.349-.052-2.512-.244-3.5-.577-.835-.281-1.378-.591-1.687-.961C2.095 3.313 2 3.107 2 3c0-.107.095-.313.206-.446.599-.718 2.365-1.319 4.367-1.486l.467-.039c.313-.026 2.169.009 2.52.047M.994 9.62c.008 3.388.011 3.63.056 3.778.289.958 1.452 1.726 3.31 2.186 1.169.289 2.195.402 3.64.402 1.442 0 2.475-.114 3.631-.4 1.871-.464 3.029-1.227 3.319-2.188.045-.148.048-.39.056-3.778L15.015 6H14v3.515c0 3.953.015 3.666-.206 3.931-.536.642-1.93 1.173-3.727 1.418a16.25 16.25 0 0 1-4.134 0c-1.804-.246-3.257-.803-3.744-1.435-.202-.261-.189.002-.189-3.913V6H.985l.009 3.62" fill-rule="evenodd" fill="#000"/></svg>