<svg xmlns="http://www.w3.org/2000/svg" width="24" height="24" fill="none"><path d="M10.3 1.082c-2.169.148-4.156.586-5.44 1.199-.833.398-1.382.85-1.67 1.377l-.151.274.011 7.964.01 7.964.104.22c.629 1.331 3.141 2.289 6.836 2.607.753.065 3.247.065 4 0 3.693-.318 6.207-1.276 6.836-2.607l.104-.22.01-7.964.011-7.964-.151-.274c-.691-1.261-3.012-2.173-6.41-2.52-.734-.074-3.312-.11-4.1-.056m2.58.917c2.021.075 3.525.309 4.92.766 1.083.355 1.924.86 2.146 1.288.498.957-1.854 2.097-5.129 2.484-1.595.189-3.872.198-5.477.021-2.983-.329-5.351-1.32-5.351-2.239 0-.766 1.847-1.649 4.306-2.058.848-.14 1.709-.224 2.665-.259.451-.016.838-.032.86-.035.022-.003.499.012 1.06.032M4.442 6.172c2.665 1.534 8.683 1.942 12.825.868 1.009-.262 2.013-.66 2.509-.995a5.77 5.77 0 0 1 .215-.141c.042-.024.049.559.04 3.063-.012 3.427.008 3.178-.278 3.469-.754.768-2.565 1.38-4.913 1.661-1.612.194-4.068.194-5.68 0-1.433-.171-2.681-.47-3.654-.874-.711-.295-1.258-.687-1.459-1.043-.061-.109-.068-.4-.078-3.216l-.011-3.095.091.065c.05.035.227.143.393.238m-.215 7.454c1.039.665 2.966 1.211 5.053 1.432 4.096.435 8.519-.169 10.493-1.432.126-.08.237-.146.248-.146.01 0 .019 1.34.019 2.979 0 3.321.008 3.218-.274 3.515-.795.84-2.898 1.498-5.606 1.753-.723.069-3.597.069-4.32 0-1.885-.178-3.508-.555-4.587-1.067-.495-.234-.652-.338-.964-.637-.345-.33-.329-.16-.329-3.57 0-1.635.009-2.973.019-2.973.011 0 .122.066.248.146" fill-rule="evenodd" fill="#000"/></svg>