<svg xmlns="http://www.w3.org/2000/svg" width="12" height="12" fill="none"><path d="M4.347.029a.513.513 0 0 0-.283.229L4.01.35l-.006.825L3.998 2H2.222C.295 2 .339 1.998.191 2.111a.613.613 0 0 0-.127.147C.018 2.336.01 2.373.01 2.5c0 .128.008.164.055.244a.516.516 0 0 0 .27.227c.062.023 1.046.027 5.665.027s5.603-.004 5.665-.027a.516.516 0 0 0 .27-.227c.047-.08.055-.116.055-.244 0-.127-.008-.164-.054-.242a.613.613 0 0 0-.127-.147C11.661 1.998 11.705 2 9.778 2H8.002l-.006-.825L7.99.35 7.936.258a.513.513 0 0 0-.291-.231c-.13-.039-3.173-.038-3.298.002M7 1.5V2H5V1h2v.5M2.347 4.029a.513.513 0 0 0-.283.229l-.054.092v6.42l.047.15c.154.493.53.869 1.023 1.023l.15.047h5.54l.15-.047c.493-.154.869-.53 1.023-1.023l.047-.15V4.35l-.055-.093a.504.504 0 0 0-.87 0l-.055.093L9 7.49c-.008 2.453-.015 3.152-.035 3.196a.569.569 0 0 1-.223.25l-.092.054h-5.3l-.092-.054a.569.569 0 0 1-.223-.25c-.02-.044-.027-.743-.035-3.196l-.01-3.14-.054-.092a.5.5 0 0 0-.589-.229" fill-rule="evenodd" fill="#000"/></svg>