<svg xmlns="http://www.w3.org/2000/svg" width="24" height="24" fill="none"><path d="M8.252 1.078C7.997 1.234 8 1.209 8 3.198V5H4.698c-3.645 0-3.458-.013-3.62.252a.451.451 0 0 0 0 .496C1.246 6.022.227 6 12.508 6c10.95 0 11.114-.001 11.24-.078a.485.485 0 0 0 0-.844C23.624 5.003 23.522 5 20.31 5H17V3.19c0-1.725-.004-1.816-.078-1.938-.163-.268.11-.252-4.43-.252-4.008 0-4.115.002-4.24.078M16 3.5V5H9V2h7v1.5M4.252 9.078c-.273.167-.255-.348-.243 6.631l.011 6.311.111.3c.265.72.826 1.282 1.549 1.549l.3.111h13.04l.3-.111a2.604 2.604 0 0 0 1.549-1.549l.111-.3.011-6.311c.009-5.664.004-6.323-.052-6.431A.56.56 0 0 0 20.5 9a.584.584 0 0 0-.427.248c-.043.074-.057 1.284-.073 6.352l-.02 6.26-.113.244a1.698 1.698 0 0 1-.767.764l-.24.112H6.14l-.244-.113a1.698 1.698 0 0 1-.764-.767l-.112-.24L5 15.6c-.016-5.068-.03-6.278-.073-6.352A.584.584 0 0 0 4.5 9a.572.572 0 0 0-.248.078M9.23 12.07c-.195.121-.286.425-.186.623.025.048.65.694 1.39 1.437l1.345 1.349-1.347 1.351c-.741.742-1.366 1.401-1.39 1.463-.1.267.014.548.265.653.312.13.306.135 1.813-1.369l1.381-1.376 1.359 1.36c1.467 1.468 1.504 1.497 1.794 1.401.251-.083.379-.314.327-.592-.024-.13-.209-.332-1.393-1.521l-1.366-1.37 1.345-1.35c.739-.742 1.364-1.388 1.389-1.436.101-.201.007-.507-.193-.625a.525.525 0 0 0-.587.048c-.086.064-.723.685-1.416 1.38L12.5 14.76l-1.32-1.315c-.726-.723-1.365-1.344-1.419-1.38-.128-.084-.391-.082-.531.005" fill-rule="evenodd" fill="#000"/></svg>