<svg xmlns="http://www.w3.org/2000/svg" width="24" height="24" fill="none"><path d="M7.684.623a.591.591 0 0 0-.163.25c-.025.09-.041.827-.041 1.897v1.75H.806l-.122.103a.494.494 0 0 0 .193.857c.197.055 22.049.055 22.246 0 .39-.108.5-.599.193-.857l-.122-.103H16.52V2.77c0-1.07-.016-1.807-.041-1.897a.591.591 0 0 0-.163-.25L16.194.52H7.806l-.122.103M15.48 3.02v1.5H8.52v-3h6.96v1.5M3.66 8.652a.51.51 0 0 0-.159.31c-.014.098-.019 2.941-.012 6.318.015 6.841-.009 6.259.294 6.874.212.43.662.869 1.105 1.08.598.284.11.266 7.112.266 5.193 0 6.38-.01 6.56-.054.884-.217 1.592-.902 1.87-1.806.061-.202.068-.736.081-6.36.007-3.377.002-6.22-.012-6.318a.51.51 0 0 0-.159-.31c-.114-.114-.159-.132-.331-.132a.49.49 0 0 0-.459.253c-.039.068-.054 1.463-.07 6.367l-.02 6.28-.116.228a1.511 1.511 0 0 1-1.154.834c-.328.048-12.052.048-12.38 0a1.511 1.511 0 0 1-1.154-.834l-.116-.228-.02-6.28c-.016-4.904-.031-6.299-.07-6.367a.49.49 0 0 0-.459-.253c-.172 0-.217.018-.331.132" fill-rule="evenodd" fill="#000"/></svg>