<svg xmlns="http://www.w3.org/2000/svg" width="16" height="16" fill="none"><path d="M5.292.05a.479.479 0 0 0-.276.351c-.019.086-.029.581-.029 1.374v1.238H3.172c-1.532 0-1.826.006-1.889.039-.102.052-.239.213-.258.302a2.71 2.71 0 0 1-.026.105c-.019.063.061.304.124.372a.65.65 0 0 0 .17.119c.103.047.347.049 6.707.049 6.36 0 6.604-.002 6.707-.049a.65.65 0 0 0 .17-.119c.063-.068.143-.309.124-.372a2.71 2.71 0 0 1-.026-.105c-.019-.089-.156-.25-.258-.302-.063-.033-.357-.039-1.889-.039h-1.815V1.775c0-.793-.01-1.288-.029-1.374a.479.479 0 0 0-.276-.351C10.606.004 10.466.001 8 .001S5.394.004 5.292.05M10 2.013v1H6v-2h4v1M2.28 5.055a.462.462 0 0 0-.24.262c-.037.098-.041.567-.034 4.35l.007 4.24.06.207A2.569 2.569 0 0 0 3.9 15.928l.22.059h7.76l.227-.062c.263-.072.649-.25.84-.388a2.67 2.67 0 0 0 .978-1.417l.061-.213.009-4.227c.005-2.898-.001-4.257-.02-4.323a.481.481 0 0 0-.482-.344c-.151 0-.216.026-.329.13-.178.165-.163-.21-.177 4.47l-.014 4.24-.06.159c-.113.3-.339.575-.628.764a1.31 1.31 0 0 1-.592.21c-.253.036-7.133.036-7.386 0a1.31 1.31 0 0 1-.592-.21 1.617 1.617 0 0 1-.628-.764l-.06-.159-.014-4.24c-.012-3.886-.017-4.246-.057-4.32a.74.74 0 0 0-.254-.25c-.085-.043-.329-.036-.422.012" fill-rule="evenodd" fill="#000"/></svg>