<svg xmlns="http://www.w3.org/2000/svg" width="24" height="24" fill="none"><path d="M8.269 4.064c-.068.036-1.284 1.623-3.113 4.061a491.43 491.43 0 0 0-3.078 4.128.448.448 0 0 0 0 .494c.042.07 1.428 1.928 3.079 4.128 2.052 2.736 3.039 4.022 3.121 4.064.108.056.784.061 6.431.052l6.311-.011.3-.111a2.604 2.604 0 0 0 1.549-1.549l.111-.3V5.98l-.111-.3a2.537 2.537 0 0 0-1.249-1.403c-.589-.291-.184-.276-7.06-.275-5.433.001-6.193.008-6.291.062M21.1 5.132c.315.147.624.455.767.764l.113.244v12.72l-.112.24a1.698 1.698 0 0 1-.764.767l-.244.113-6.06.009-6.06.008-2.796-3.734c-1.538-2.053-2.795-3.749-2.793-3.768.003-.019 1.261-1.713 2.797-3.764L8.74 5.002l6.06.009 6.06.009.24.112m-9.848 3.946c-.217.133-.311.41-.208.615.025.048.655.699 1.4 1.447L13.8 12.5l-1.343 1.34c-.738.737-1.368 1.389-1.4 1.448-.206.388.248.864.636.668.048-.025.699-.655 1.447-1.4L14.5 13.2l1.34 1.343c.737.738 1.389 1.368 1.448 1.4.401.213.868-.254.655-.655-.032-.059-.662-.711-1.4-1.448L15.2 12.5l1.356-1.36c.745-.748 1.375-1.399 1.4-1.447.189-.375-.274-.838-.649-.649-.048.025-.699.655-1.447 1.4L14.5 11.8l-1.34-1.343c-.737-.738-1.389-1.368-1.448-1.4a.446.446 0 0 0-.46.021" fill-rule="evenodd" fill="#000"/></svg>