<svg xmlns="http://www.w3.org/2000/svg" width="16" height="16" fill="none"><path d="M7.157.04a1.547 1.547 0 0 0-.983.763C5.988 1.156 6.001.609 6.001 8c0 5.86.005 6.701.04 6.851.123.522.586.985 1.108 1.108.257.061 7.445.061 7.702 0a1.556 1.556 0 0 0 1.108-1.108c.035-.15.04-.991.04-6.851s-.005-6.701-.04-6.851A1.533 1.533 0 0 0 14.83.038c-.254-.053-7.425-.052-7.673.002m7.545 1.003c.086.044.204.16.247.242.057.11.056 13.321-.001 13.432a.673.673 0 0 1-.302.263c-.095.026-7.197.026-7.292 0a.673.673 0 0 1-.302-.263c-.057-.111-.058-13.322-.001-13.432a.743.743 0 0 1 .242-.241c.077-.042 7.327-.043 7.409-.001M.28 3.055a.445.445 0 0 0-.23.238c-.046.102-.049.256-.049 3.208C0 9.08.006 9.616.037 9.688a.66.66 0 0 0 .291.284c.051.019.758.028 2.174.027 1.983 0 2.104-.003 2.205-.049a.65.65 0 0 0 .17-.119c.063-.068.143-.309.124-.372a2.71 2.71 0 0 1-.026-.105c-.019-.089-.156-.25-.258-.302-.063-.033-.357-.039-1.889-.039H1.013V4l1.794-.001c1.686 0 1.799-.003 1.9-.049a.65.65 0 0 0 .17-.119c.063-.068.143-.309.124-.372a2.71 2.71 0 0 1-.026-.105c-.019-.089-.156-.25-.258-.302-.063-.033-.398-.039-2.216-.039-1.889.001-2.15.006-2.221.042m9.013.995a.445.445 0 0 0-.268.32.5.5 0 0 0 .036.367.707.707 0 0 0 .293.243c.095.026 3.197.026 3.292 0a.707.707 0 0 0 .293-.243.5.5 0 0 0 .036-.367.445.445 0 0 0-.268-.32c-.1-.046-.208-.049-1.707-.049s-1.607.003-1.707.049m1.44 3.965a8.223 8.223 0 0 1-.2.041c-.199.04-.552.208-.739.352-.378.29-.64.691-.744 1.133a2.621 2.621 0 0 0 0 .918c.114.489.45.958.884 1.236a2.022 2.022 0 0 0 2.132 0c.434-.278.77-.747.884-1.236a2.621 2.621 0 0 0 0-.918 2.062 2.062 0 0 0-1.436-1.478c-.14-.038-.679-.072-.781-.048m.632 1.062c.454.187.691.619.608 1.11a.98.98 0 0 1-.973.803.985.985 0 0 1-.974-.799c-.113-.632.337-1.176.974-1.176.163 0 .249.014.365.062M2.36 12.023a.502.502 0 0 0-.187.854c.148.129.271.14 1.418.131.914-.007 1.045-.013 1.118-.053.11-.061.246-.218.266-.309a2.71 2.71 0 0 1 .026-.105c.019-.063-.061-.304-.124-.372a.65.65 0 0 0-.17-.119c-.099-.045-.191-.049-1.2-.047-.602.001-1.118.01-1.147.02" fill-rule="evenodd" fill="#000"/></svg>