<svg xmlns="http://www.w3.org/2000/svg" width="24" height="24" fill="none"><path d="M9.252 1.078C8.978 1.246 9 .227 9 12.508c0 10.95.001 11.114.078 11.24.166.272-.426.252 7.422.252s7.256.02 7.422-.252c.077-.126.078-.29.078-11.24 0-12.281.022-11.262-.252-11.43C23.622 1.002 23.491 1 16.5 1c-6.991 0-7.122.002-7.248.078M23 12.5V23H10V2h13v10.5M1.252 3.078C.98 3.244 1 2.651 1 10.508c0 6.983.002 7.114.078 7.24.16.262.048.252 2.922.252s2.762.01 2.922-.252a.478.478 0 0 0-.174-.67C6.625 17.003 6.531 17 4.31 17H2V4h2.31c2.221 0 2.315-.003 2.438-.078a.485.485 0 0 0 0-.844C6.624 3.003 6.528 3 4 3s-2.624.003-2.748.078m13 3a.478.478 0 0 0-.174.67c.158.258.099.252 2.43.252 2.024 0 2.117-.004 2.24-.078A.54.54 0 0 0 19 6.5a.54.54 0 0 0-.252-.422C18.625 6.004 18.532 6 16.5 6s-2.125.004-2.248.078m0 4a.478.478 0 0 0-.174.67c.158.258.099.252 2.43.252 2.024 0 2.117-.004 2.24-.078A.54.54 0 0 0 19 10.5a.54.54 0 0 0-.252-.422c-.123-.074-.216-.078-2.248-.078s-2.125.004-2.248.078m1.708 3.984a2.893 2.893 0 0 0-1.125.574c-.293.262-.567.67-.703 1.044-.097.268-.108.355-.108.82 0 .465.011.552.108.82.26.717.828 1.285 1.548 1.547.269.098.354.109.82.109.465 0 .552-.011.82-.108a2.589 2.589 0 0 0 1.547-1.548c.098-.269.109-.354.109-.82 0-.465-.011-.552-.108-.82a2.535 2.535 0 0 0-2.908-1.618m1.159 1.081c.298.136.608.449.746.753.095.209.111.296.111.604s-.016.395-.111.604c-.14.309-.448.616-.765.764-.207.097-.29.112-.6.112s-.393-.015-.6-.112a1.675 1.675 0 0 1-.765-.764c-.095-.208-.111-.296-.111-.604-.001-.309.015-.394.11-.6.193-.422.615-.771 1.04-.861.267-.057.696-.009.945.104M3.252 21.078a.478.478 0 0 0-.174.67c.154.253.15.252 1.93.252 1.528 0 1.619-.004 1.74-.078A.54.54 0 0 0 7 21.5a.54.54 0 0 0-.252-.422C6.627 21.004 6.536 21 5 21s-1.627.004-1.748.078" fill-rule="evenodd" fill="#000"/></svg>