<svg xmlns="http://www.w3.org/2000/svg" width="16" height="16" fill="none"><path d="M8.271 1.058a1.012 1.012 0 0 0-.23.22c-.414.518-4.964 6.454-4.996 6.518a.56.56 0 0 0 .008.416c.067.131 5.015 6.561 5.123 6.658.09.082.29.155.362.132.019-.006.068-.018.108-.027.091-.02.25-.157.305-.264a.594.594 0 0 0 .015-.393c-.015-.038-1.109-1.475-2.431-3.193L4.131 8l2.404-3.125C7.857 3.157 8.951 1.72 8.966 1.682a.623.623 0 0 0-.006-.378.708.708 0 0 0-.245-.253c-.097-.051-.334-.047-.444.007m4 0a1.012 1.012 0 0 0-.23.22c-.414.518-4.964 6.454-4.996 6.518a.56.56 0 0 0 .008.416c.067.131 5.015 6.561 5.123 6.658.09.082.29.155.362.132.019-.006.068-.018.108-.027.091-.02.25-.157.305-.264a.594.594 0 0 0 .015-.393c-.015-.038-1.109-1.475-2.431-3.193L8.131 8l2.404-3.125c1.322-1.718 2.416-3.155 2.431-3.193a.623.623 0 0 0-.006-.378.708.708 0 0 0-.245-.253c-.097-.051-.334-.047-.444.007" fill-rule="evenodd" fill="#000"/></svg>