<svg xmlns="http://www.w3.org/2000/svg" width="24" height="24" fill="none"><path d="M4.691.622a.49.49 0 0 0-.171.497c.018.064 1.785 2.525 3.925 5.468 2.141 2.943 3.892 5.379 3.892 5.413 0 .034-1.751 2.47-3.892 5.413-2.14 2.943-3.907 5.404-3.925 5.468-.134.466.501.825.829.469.045-.049 1.894-2.581 4.107-5.625 3.998-5.499 4.024-5.536 4.024-5.725 0-.189-.027-.227-4.022-5.725C7.245 3.231 5.382.691 5.317.63c-.162-.151-.44-.154-.626-.008m6 0a.49.49 0 0 0-.171.497c.018.064 1.785 2.525 3.925 5.468 2.141 2.943 3.892 5.379 3.892 5.413 0 .034-1.751 2.47-3.892 5.413-2.14 2.943-3.907 5.404-3.925 5.468-.134.466.501.825.829.469.045-.049 1.894-2.581 4.107-5.625 3.998-5.499 4.024-5.536 4.024-5.725 0-.189-.027-.227-4.022-5.725C13.245 3.231 11.382.691 11.317.63c-.162-.151-.44-.154-.626-.008" fill-rule="evenodd" fill="#000"/></svg>