<svg xmlns="http://www.w3.org/2000/svg" width="24" height="24" fill="none"><path d="M12.683.63c-.065.061-1.928 2.601-4.141 5.645C4.547 11.773 4.52 11.811 4.52 12c0 .189.026.226 4.024 5.725a898.542 898.542 0 0 0 4.107 5.625c.328.356.963-.003.829-.469-.018-.064-1.785-2.525-3.925-5.468C7.414 14.47 5.663 12.034 5.663 12c0-.034 1.751-2.47 3.892-5.413 2.14-2.943 3.907-5.404 3.925-5.468.127-.44-.462-.801-.797-.489m6 0c-.065.061-1.928 2.601-4.141 5.645-3.995 5.498-4.022 5.536-4.022 5.725 0 .189.026.226 4.024 5.725a898.542 898.542 0 0 0 4.107 5.625c.328.356.963-.003.829-.469-.018-.064-1.785-2.525-3.925-5.468-2.141-2.943-3.892-5.379-3.892-5.413 0-.034 1.751-2.47 3.892-5.413 2.14-2.943 3.907-5.404 3.925-5.468.127-.44-.462-.801-.797-.489" fill-rule="evenodd" fill="#000"/></svg>