<svg xmlns="http://www.w3.org/2000/svg" width="12" height="12" fill="none"><path d="M5.838.028a.653.653 0 0 0-.134.069c-.076.055-4.14 5.64-4.176 5.74a.534.534 0 0 0 0 .326c.014.041.947 1.34 2.073 2.888 1.713 2.356 2.061 2.824 2.135 2.871a.501.501 0 0 0 .69-.164.543.543 0 0 0 .056-.393c-.017-.061-.555-.815-1.944-2.725L2.618 6l1.92-2.64C5.927 1.45 6.465.696 6.482.635c.103-.384-.274-.74-.644-.607m4 0a.653.653 0 0 0-.134.069c-.076.055-4.14 5.64-4.176 5.74a.534.534 0 0 0 0 .326c.014.041.947 1.34 2.073 2.888 1.713 2.356 2.061 2.824 2.135 2.871a.501.501 0 0 0 .69-.164.543.543 0 0 0 .056-.393c-.017-.061-.555-.815-1.944-2.725L6.618 6l1.92-2.64C9.927 1.45 10.465.696 10.482.635c.103-.384-.274-.74-.644-.607" fill-rule="evenodd" fill="#000"/></svg>