<svg xmlns="http://www.w3.org/2000/svg" width="24" height="24" fill="none"><path d="M11.48 5.52v3H5.478l.011.49.011.49 2.99.01 2.989.011.011 2.989.01 2.99h1l.01-2.99.011-2.989 2.989-.011 2.99-.01.011-.49.011-.49H12.52v-6h-1.04v3M2.008 17.51l.012 2.51.111.3a2.604 2.604 0 0 0 1.549 1.549l.3.111h16.04l.3-.111a2.604 2.604 0 0 0 1.549-1.549l.111-.3.012-2.51.011-2.51h-1l-.011 2.43-.012 2.43-.113.244a1.698 1.698 0 0 1-.767.764l-.24.112H4.14l-.24-.112a1.698 1.698 0 0 1-.767-.764l-.113-.244-.012-2.43L2.997 15h-1l.011 2.51" fill-rule="evenodd" fill="#000"/></svg>