<svg xmlns="http://www.w3.org/2000/svg" width="16" height="16" fill="none"><path d="m7.487 5.081-.007 5.081-1.718-1.933-1.718-1.933-.095.083c-.389.34-.642.569-.642.581 0 .007.905 1.032 2.012 2.277 1.107 1.246 2.005 2.276 1.997 2.29-.009.013.028.06.081.104.089.074.096.09.096.224V12h.146c.134 0 .151.007.22.093.049.062.097.094.141.094.044 0 .092-.032.141-.094.069-.086.086-.093.22-.093h.146v-.145c0-.134.007-.15.096-.224.053-.044.09-.091.081-.104-.008-.014.89-1.044 1.997-2.29a261.234 261.234 0 0 0 2.012-2.277c0-.012-.253-.241-.642-.581l-.095-.083-1.718 1.933-1.718 1.933-.007-5.081L8.507 0H7.493l-.006 5.081M.006 12.193l.008 2.194.062.186c.221.66.713 1.148 1.364 1.351l.2.063h12.747l.204-.07a2.091 2.091 0 0 0 1.333-1.344l.062-.186.008-2.194.008-2.193h-1.014l-.007 2.14-.008 2.14-.077.152a1.01 1.01 0 0 1-.77.556c-.22.032-12.032.032-12.252 0a1.01 1.01 0 0 1-.77-.556l-.077-.152-.008-2.14L1.012 10H-.002l.008 2.193" fill-rule="evenodd" fill="#000"/></svg>