<svg xmlns="http://www.w3.org/2000/svg" width="24" height="24" fill="none" viewBox="0 0 24 24"><path fill="currentColor" d="M3 15.5V15H2v.5h1Zm-.5 4H2h.5Zm19.5-4V15h-1v.5h1ZM5.854 9.146 5.5 8.793l-.707.707.353.354.708-.708ZM10 14l-.354.354.354.353.354-.353L10 14Zm8.854-8.146.353-.354-.707-.707-.354.353.708.708ZM2 15.5v4h1v-4H2Zm0 4a2.5 2.5 0 0 0 .732 1.768l.707-.707A1.5 1.5 0 0 1 3 19.5H2Zm.732 1.768A2.5 2.5 0 0 0 4.5 22v-1a1.5 1.5 0 0 1-1.06-.44l-.708.708ZM4.5 22h15v-1h-15v1Zm15 0a2.5 2.5 0 0 0 1.768-.732l-.707-.707A1.5 1.5 0 0 1 19.5 21v1Zm1.768-.732A2.5 2.5 0 0 0 22 19.5h-1a1.5 1.5 0 0 1-.44 1.06l.708.708ZM22 19.5v-4h-1v4h1Zm-11.646-5.146 8.5-8.5-.708-.708-8.5 8.5.708.708Zm-5.208-4.5 2 2 .708-.708-2-2-.708.708Zm2 2 2.5 2.5.708-.708-2.5-2.5-.708.708Z"/></svg>