<svg xmlns="http://www.w3.org/2000/svg" width="24" height="24" fill="none"><path d="M11.48 8.13v7.13l-2.24-2.24-2.239-2.239-.341.339c-.187.186-.34.357-.34.379 0 .023 1.278 1.319 2.84 2.881L12 17.22l2.84-2.84c1.562-1.562 2.84-2.858 2.84-2.881 0-.022-.153-.193-.34-.379l-.341-.339-2.239 2.239-2.24 2.24V1h-1.04v7.13m-9.472 9.38.012 2.51.111.3a2.604 2.604 0 0 0 1.549 1.549l.3.111h16.04l.3-.111a2.604 2.604 0 0 0 1.549-1.549l.111-.3.012-2.51.011-2.51h-1l-.011 2.43-.012 2.43-.113.244a1.698 1.698 0 0 1-.767.764l-.24.112H4.14l-.24-.112a1.698 1.698 0 0 1-.767-.764l-.113-.244-.012-2.43L2.997 15h-1l.011 2.51" fill-rule="evenodd" fill="#000"/></svg>