<svg xmlns="http://www.w3.org/2000/svg" width="24" height="24" fill="none"><path d="M14.25 9.05 10 13.3l-2.25-2.25-2.251-2.251-.349.351-.349.351L7.4 12.1l2.6 2.6 4.6-4.6 4.601-4.601-.351-.349-.351-.349L14.25 9.05M2.001 17.37c0 2.669.003 2.697.284 3.268.32.649.974 1.151 1.695 1.302.421.088 15.619.088 16.04 0a2.502 2.502 0 0 0 1.695-1.302c.281-.571.284-.599.284-3.268L22 15h-.997l-.012 2.431-.011 2.431-.128.259c-.165.336-.408.58-.732.735l-.26.124H4.14l-.24-.112a1.698 1.698 0 0 1-.767-.764l-.113-.244-.011-2.43L2.997 15H2l.001 2.37" fill="currentColor" fill-rule="evenodd"/></svg>