<svg xmlns="http://www.w3.org/2000/svg" width="16" height="16" fill="none"><path d="M10.013 5.787C8.371 7.429 7.015 8.773 7 8.773c-.015 0-.81-.783-1.767-1.74l-1.74-1.739-.353.353L2.787 6l2.106 2.107L7 10.213l3.354-3.353 3.353-3.354-.354-.353L13 2.8l-2.987 2.987M.006 12.193l.008 2.194.062.186c.221.66.713 1.148 1.364 1.351l.2.063h12.747l.204-.07a2.091 2.091 0 0 0 1.333-1.344l.062-.186.008-2.194.008-2.193h-1.014l-.007 2.14-.008 2.14-.077.152a1.01 1.01 0 0 1-.77.556c-.22.032-12.032.032-12.252 0a1.01 1.01 0 0 1-.77-.556l-.077-.152-.008-2.14L1.012 10H-.002l.008 2.193" fill-rule="evenodd" fill="#000"/></svg>