<svg xmlns="http://www.w3.org/2000/svg" width="24" height="24" fill="none"><path d="M10.17 3.13C8.976 4.323 8.549 4.774 8.522 4.871c-.1.363.248.709.609.606.091-.026.451-.359 1.239-1.147l1.11-1.109v8.299H7.36c-2.266 0-4.12-.014-4.12-.03 0-.017.495-.525 1.101-1.13 1.165-1.164 1.21-1.224 1.135-1.497-.06-.216-.241-.343-.488-.343h-.206L3.17 10.13c-1.696 1.695-1.723 1.727-1.647 2 .051.184 3.161 3.294 3.347 3.347a.497.497 0 0 0 .607-.608c-.026-.091-.359-.451-1.147-1.239l-1.109-1.11h8.259v8.258l-1.132-1.129-1.131-1.129h-.206c-.246 0-.427.127-.487.343-.077.28-.056.306 1.626 1.987 1.673 1.672 1.711 1.704 1.98 1.627.186-.053 3.296-3.163 3.347-3.347a.496.496 0 0 0-.161-.507c-.096-.081-.165-.103-.327-.103h-.206l-1.131 1.129-1.132 1.129V12.52h8.259l-1.109 1.11c-.788.788-1.121 1.148-1.147 1.239a.497.497 0 0 0 .607.608c.186-.053 3.296-3.163 3.347-3.347.076-.273.049-.305-1.647-2l-1.612-1.61h-.206c-.247 0-.428.127-.488.343-.075.273-.03.333 1.135 1.497.606.605 1.101 1.113 1.101 1.13 0 .016-1.854.03-4.12.03h-4.12V3.221l1.11 1.109c.788.788 1.148 1.121 1.239 1.147a.498.498 0 0 0 .609-.606c-.027-.097-.454-.548-1.648-1.741l-1.612-1.61h-.436L10.17 3.13" fill-rule="evenodd" fill="#000"/></svg>