<svg xmlns="http://www.w3.org/2000/svg" width="16" height="16" fill="none" viewBox="0 0 16 16"><path fill="currentColor" d="M7 12.5c0 .825-.675 1.5-1.5 1.5S4 13.325 4 12.5 4.675 11 5.5 11s1.5.675 1.5 1.5Zm-1.5-6C4.675 6.5 4 7.175 4 8s.675 1.5 1.5 1.5S7 8.825 7 8s-.675-1.5-1.5-1.5Zm0-4.5C4.675 2 4 2.675 4 3.5S4.675 5 5.5 5 7 4.325 7 3.5 6.325 2 5.5 2Zm5 3c.825 0 1.5-.675 1.5-1.5S11.325 2 10.5 2 9 2.675 9 3.5 9.675 5 10.5 5Zm0 1.5C9.675 6.5 9 7.175 9 8s.675 1.5 1.5 1.5S12 8.825 12 8s-.675-1.5-1.5-1.5Zm0 4.5c-.825 0-1.5.675-1.5 1.5s.675 1.5 1.5 1.5 1.5-.675 1.5-1.5-.675-1.5-1.5-1.5Z"/></svg>