<svg xmlns="http://www.w3.org/2000/svg" width="16" height="16" fill="none"><path d="M5.173 2.042a1.448 1.448 0 0 0-.679.362 1.434 1.434 0 0 0-.486 1.009 1.49 1.49 0 0 0 1.473 1.579c.427.003.763-.136 1.069-.442.306-.306.445-.642.442-1.069a1.416 1.416 0 0 0-.443-1.041 1.483 1.483 0 0 0-1.376-.398m4.994-.002c-.354.077-.773.38-.952.687a1.496 1.496 0 0 0-.207.754c-.003.414.135.757.425 1.057.294.304.658.457 1.086.454a1.422 1.422 0 0 0 1.042-.443c.302-.304.457-.713.431-1.136a1.434 1.434 0 0 0-.486-1.009 1.48 1.48 0 0 0-1.339-.364m-5.03 4.509C4.491 6.705 4 7.332 4 8c0 .38.165.775.436 1.047a1.486 1.486 0 0 0 2.072.052c.321-.296.483-.663.483-1.099 0-.433-.162-.803-.477-1.092a1.504 1.504 0 0 0-1.377-.359m4.996 0a1.556 1.556 0 0 0-1.069 1.024 1.649 1.649 0 0 0 0 .854c.162.513.614.933 1.117 1.037a1.508 1.508 0 0 0 1.657-.805c.218-.458.218-.863 0-1.318a1.512 1.512 0 0 0-1.705-.792m-5.025 4.505a1.509 1.509 0 0 0-1.1 1.533c.025.392.177.716.466.991.478.455 1.14.548 1.723.242.488-.257.792-.754.795-1.301.003-.434-.152-.8-.462-1.092a1.49 1.49 0 0 0-.655-.374 2.02 2.02 0 0 0-.767.001m5.006 0c-.499.135-.913.55-1.062 1.065-.069.24-.059.592.023.834.091.265.186.419.376.608.495.491 1.27.575 1.853.201.171-.11.422-.379.517-.554.096-.18.179-.509.179-.712a1.53 1.53 0 0 0-1.12-1.443 2.014 2.014 0 0 0-.766.001" fill="currentColor" fill-rule="evenodd"/></svg>