<svg xmlns="http://www.w3.org/2000/svg" width="24" height="24" fill="none"><path d="M8.68 4.024c-.055.01-.208.056-.34.103a1.975 1.975 0 0 0-.744 3.277c.797.796 2.011.796 2.808 0 1.045-1.046.657-2.763-.742-3.281-.234-.086-.762-.14-.982-.099m6 0c-.055.01-.208.056-.34.103a1.975 1.975 0 0 0-.744 3.277c.797.796 2.011.796 2.808 0 1.045-1.046.657-2.763-.742-3.281-.234-.086-.762-.14-.982-.099m-6 6c-.055.01-.208.056-.34.103a1.975 1.975 0 0 0-.744 3.277c.797.796 2.011.796 2.808 0 1.045-1.046.657-2.763-.742-3.281-.234-.086-.762-.14-.982-.099m6 0c-.055.01-.208.056-.34.103a1.975 1.975 0 0 0-.744 3.277c.797.796 2.011.796 2.808 0 1.045-1.046.657-2.763-.742-3.281-.234-.086-.762-.14-.982-.099m-6 6c-.055.01-.208.056-.34.103a1.975 1.975 0 0 0-.744 3.277c.797.796 2.011.796 2.808 0 1.045-1.046.657-2.763-.742-3.281-.234-.086-.762-.14-.982-.099m6 0c-.055.01-.208.056-.34.103a1.975 1.975 0 0 0-.744 3.277c.797.796 2.011.796 2.808 0 1.045-1.046.657-2.763-.742-3.281-.234-.086-.762-.14-.982-.099" fill="currentColor" fill-rule="evenodd"/></svg>