<svg xmlns="http://www.w3.org/2000/svg" width="16" height="16" fill="none"><path d="M7.787.549c-.146.063-2.145 2.07-2.228 2.236-.078.157-.082.257-.015.402a.499.499 0 0 0 .662.266c.061-.026.319-.261.692-.632l.595-.592v5.264H2.229l.592-.595c.371-.373.606-.631.632-.692a.505.505 0 0 0-.239-.652.59.59 0 0 0-.441.005C2.67 5.611.705 7.555.595 7.714a.57.57 0 0 0-.061.463c.026.081.249.32 1.049 1.125.56.561 1.07 1.056 1.134 1.099.214.143.418.131.607-.035a.49.49 0 0 0 .129-.572c-.026-.061-.261-.319-.632-.692l-.592-.595h5.264v5.263l-.606-.601c-.46-.455-.632-.609-.71-.635a.587.587 0 0 0-.457.055c-.108.074-.227.289-.226.41.001.198.081.293 1.114 1.329.553.554 1.051 1.039 1.106 1.077a.57.57 0 0 0 .463.061c.081-.026.32-.249 1.125-1.049.561-.56 1.056-1.07 1.099-1.134.143-.214.131-.418-.035-.607a.49.49 0 0 0-.572-.129c-.061.026-.319.261-.692.632l-.595.592V8.507h5.264l-.592.595c-.371.373-.606.631-.632.692a.49.49 0 0 0 .129.572c.189.166.393.178.607.035.064-.043.574-.538 1.134-1.099.8-.805 1.023-1.044 1.049-1.125a.57.57 0 0 0-.061-.463c-.11-.159-2.075-2.103-2.178-2.155a.59.59 0 0 0-.441-.005.505.505 0 0 0-.239.652c.026.061.261.319.632.692l.592.595H8.507V2.229l.595.592c.373.371.631.606.692.632a.49.49 0 0 0 .572-.129c.166-.189.178-.393.035-.607C10.273 2.526 8.322.596 8.207.548a.585.585 0 0 0-.42.001" fill-rule="evenodd" fill="#000"/></svg>