<svg xmlns="http://www.w3.org/2000/svg" width="16" height="16" fill="none"><path d="M5.36.029c-.389.04-.883.148-1.285.281A5.961 5.961 0 0 0 .858 2.88a6.126 6.126 0 0 0-.831 2.503 6 6 0 0 0 1.208 4.202 6.144 6.144 0 0 0 2.085 1.707 5.701 5.701 0 0 0 2.64.609c.955 0 1.72-.173 2.56-.578a5.617 5.617 0 0 0 1.641-1.162c.922-.923 1.491-2.056 1.695-3.374.061-.399.062-1.251 0-1.654C11.453 2.485 9.445.463 6.827.067A8.388 8.388 0 0 0 5.36.029m1.303 1.026a4.847 4.847 0 0 1 2.779 1.397 4.868 4.868 0 0 1 1.436 2.994c.247 2.265-1.142 4.443-3.312 5.191a4.677 4.677 0 0 1-1.792.262 4.532 4.532 0 0 1-1.839-.424 4.642 4.642 0 0 1-1.47-1.02A4.836 4.836 0 0 1 1.052 6.64c-.066-.45-.042-1.255.051-1.684a4.98 4.98 0 0 1 4.198-3.913 7.29 7.29 0 0 1 1.362.012m6.977 4.451a1.605 1.605 0 0 1-.098.025c-.166.037-.34.272-.341.463-.001.155.074.274.353.563.15.156.328.355.396.443a4.979 4.979 0 0 1 .541 5.23 5 5 0 0 1-2.758 2.475 4.94 4.94 0 0 1-3.8-.183c-.546-.259-.896-.505-1.362-.955-.163-.157-.34-.304-.393-.327-.43-.179-.849.323-.602.723.074.121.565.586.851.808.758.585 1.653.974 2.661 1.154.447.079 1.436.087 1.859.013 1.632-.284 2.944-1.083 3.906-2.378.548-.738.911-1.612 1.085-2.613.074-.423.066-1.412-.013-1.859-.18-1.008-.569-1.903-1.154-2.661-.248-.32-.703-.792-.825-.854-.097-.049-.258-.085-.306-.067" fill-rule="evenodd" fill="#000"/></svg>