<svg xmlns="http://www.w3.org/2000/svg" width="24" height="24" fill="none"><path d="M8.84 1.025c-2.094.192-3.892 1.025-5.341 2.474C.981 6.016.301 9.725 1.756 13c.815 1.833 2.411 3.429 4.244 4.244 2.87 1.275 6.115.916 8.61-.954a10.114 10.114 0 0 0 1.68-1.68 8.5 8.5 0 0 0 0-10.22c-.388-.518-1.154-1.286-1.659-1.663a8.576 8.576 0 0 0-3.856-1.628c-.391-.06-1.587-.106-1.935-.074m1.383 1.018a7.504 7.504 0 0 1 6.381 5.08 7.47 7.47 0 0 1-.377 5.667 7.257 7.257 0 0 1-1.432 2.005 7.598 7.598 0 0 1-3.981 2.092c-.684.13-1.944.13-2.628 0-2.37-.447-4.348-1.94-5.402-4.077-.449-.909-.661-1.683-.752-2.737a7.44 7.44 0 0 1 .417-3.113A7.552 7.552 0 0 1 8.06 2.143a7.553 7.553 0 0 1 2.163-.1m9.909 6.765-.367.325.087.108.374.446a7.501 7.501 0 0 1 1.531 6.693c-.6 2.358-2.394 4.342-4.657 5.152a7.02 7.02 0 0 1-2.328.455c-1.842.076-3.647-.55-5.088-1.764a40.978 40.978 0 0 0-.442-.37l-.107-.087-.232.259a19.1 19.1 0 0 0-.328.374l-.097.114.451.389c1.668 1.436 3.726 2.165 5.886 2.086 1.275-.047 2.289-.302 3.445-.868 2.47-1.208 4.173-3.514 4.641-6.281.088-.524.121-1.64.063-2.159a8.598 8.598 0 0 0-2.062-4.75 15.994 15.994 0 0 0-.395-.449c-.004.001-.172.148-.375.327" fill-rule="evenodd" fill="#000"/></svg>