<svg xmlns="http://www.w3.org/2000/svg" width="16" height="16" fill="currentColor" viewBox="0 0 16 16">
  <path fill-rule="evenodd" d="M3.337.5c.177 0 .324.083.389.121.088.052.18.12.27.195.18.152.392.36.612.614.44.506.94 1.217 1.326 2.047.77 1.654 1.125 3.889-.555 5.848L5 9l-.379-.325c1.32-1.54 1.093-3.306.408-4.777a7.992 7.992 0 0 0-1.176-1.812 4.603 4.603 0 0 0-.497-.502l-.004-.003c-.01.01-.024.019-.035.03a5.04 5.04 0 0 0-.542.614 7.486 7.486 0 0 0-1.15 2.178c-.28.871-.384 1.833-.126 2.795.2.745.625 1.518 1.398 2.269l-.059-3.458 1-.018.086 5.04C3.961 13.23 5.775 15 7.981 15a4.024 4.024 0 0 0 3.904-3.056A3.5 3.5 0 0 1 9 8.5V5h1.5V3h1v2h2V3h1v2H16v3.5a3.5 3.5 0 0 1-3.098 3.476A5.024 5.024 0 0 1 7.981 16c-2.746 0-5.01-2.201-5.058-4.952l-.005-.24C1.583 9.773.845 8.624.532 7.458.212 6.264.348 5.1.672 4.097a8.484 8.484 0 0 1 1.306-2.478c.233-.306.462-.56.656-.741.096-.09.193-.17.284-.23.045-.03.099-.063.156-.088A.651.651 0 0 1 3.337.5ZM10 8.5a2.5 2.5 0 0 0 5 0V6h-5v2.5Z" clip-rule="evenodd"/>
</svg>
