<svg xmlns="http://www.w3.org/2000/svg" width="24" height="24" fill="none"><path d="M19.26 1.441c-.473.068-.222-.166-5.907 5.511l-5.306 5.301-.609 2.435c-.335 1.339-.598 2.446-.585 2.459.013.013 1.12-.25 2.459-.585l2.435-.609 5.301-5.306c4.116-4.12 5.32-5.348 5.388-5.492a1.55 1.55 0 0 0 .127-.896c-.081-.437-.16-.543-1.139-1.532-.508-.514-.996-.983-1.084-1.044a1.512 1.512 0 0 0-1.08-.242m1.39 1.915.91.908v.19a.79.79 0 0 1-.057.298c-.032.059-.496.544-1.031 1.078l-.973.97-1.15-1.151-1.15-1.151 1.03-1.026c1.08-1.074 1.082-1.075 1.391-1.037.095.011.312.206 1.03.921m-16.69.706c-.896.191-1.647.927-1.881 1.842C2.002 6.205 2 6.376 2 13c0 6.624.002 6.795.079 7.096a2.478 2.478 0 0 0 1.283 1.619c.613.302.122.284 7.638.284 5.765 0 6.781-.009 7.02-.059a2.502 2.502 0 0 0 1.695-1.302c.286-.581.284-.546.284-3.768L20 14h-.998l-.011 2.93-.011 2.93-.112.24a1.698 1.698 0 0 1-.764.767l-.244.113H4.14l-.244-.113a1.698 1.698 0 0 1-.764-.767l-.112-.24V6.14l.112-.24c.147-.315.455-.624.764-.767l.244-.113 2.93-.011L10 4.998V4l-2.89.003c-2.304.003-2.943.015-3.15.059m11.067 7.211-3.773 3.773-1.512.379c-.832.208-1.52.371-1.529.362-.009-.009.154-.697.362-1.529l.379-1.512 3.773-3.773L16.5 5.2l1.15 1.15L18.8 7.5l-3.773 3.773" fill="currentColor" fill-rule="evenodd"/></svg>