<svg xmlns="http://www.w3.org/2000/svg" width="24" height="24" fill="none" viewBox="0 0 24 24"><path fill="currentColor" d="M9.5 5h.5V4h-.5v1ZM20 14.5V14h-1v.5h1Zm-8.5 1 .121.485.135-.034.098-.097-.354-.354Zm-4 1-.485-.121-.202.808.808-.202L7.5 16.5Zm1-4-.354-.354-.097.098-.034.135.485.121ZM18.793 2.207l-.354-.354.354.354Zm1.414 0-.354.353.354-.353Zm1.586 1.586-.354.354.354-.354Zm0 1.414-.353-.354.353.354ZM9.5 4h-5v1h5V4Zm-5 0A2.5 2.5 0 0 0 2 6.5h1A1.5 1.5 0 0 1 4.5 5V4ZM2 6.5v13h1v-13H2Zm0 13A2.5 2.5 0 0 0 4.5 22v-1A1.5 1.5 0 0 1 3 19.5H2ZM4.5 22h13v-1h-13v1Zm13 0a2.5 2.5 0 0 0 2.5-2.5h-1a1.5 1.5 0 0 1-1.5 1.5v1Zm2.5-2.5v-5h-1v5h1ZM16.146 4.854l3 3 .708-.708-3-3-.708.708Zm-4.767 10.16-4 1 .242.971 4-1-.242-.97Zm-3.394 1.607 1-4-.97-.242-1 4 .97.242Zm.869-3.767L19.147 2.56l-.708-.708L8.146 12.146l.708.708ZM19.147 2.56a.499.499 0 0 1 .706 0l.708-.707a1.499 1.499 0 0 0-2.122 0l.708.707Zm.706 0 1.586 1.586.708-.708-1.586-1.586-.708.708Zm1.586 1.586a.499.499 0 0 1 0 .706l.707.708a1.499 1.499 0 0 0 0-2.122l-.707.708Zm0 .706L11.146 15.147l.708.707L22.147 5.56l-.708-.708Z"/></svg>