<svg xmlns="http://www.w3.org/2000/svg" width="16" height="16" fill="none"><path d="M8.554 4.34 4.509 8.387l-.615 2.157a95.374 95.374 0 0 0-.605 2.167c.006.006.983-.267 2.17-.606l2.16-.617 4.044-4.044L15.707 3.4l-1.554-1.553L12.6.293 8.554 4.34M2.8 1.018A1.978 1.978 0 0 0 1.215 2.12C.98 2.604 1 2.052 1 8c0 5.948-.02 5.396.215 5.88.195.402.503.71.905.905.484.235-.068.215 5.88.215 5.948 0 5.396.02 5.88-.215a1.92 1.92 0 0 0 .905-.905c.226-.466.212-.252.222-3.233L15.016 8H14.001l-.007 2.62-.007 2.62-.075.16a1.13 1.13 0 0 1-.509.511l-.163.076H2.76l-.163-.076a1.13 1.13 0 0 1-.509-.511l-.075-.16V2.76l.075-.16a1.13 1.13 0 0 1 .509-.511l.163-.076 2.62-.007L8 1.999v-.985l-2.5-.007c-1.375-.004-2.59.001-2.7.011m7.887 5.985L7.08 10.606l-1.154.328c-.634.18-1.161.32-1.171.31-.009-.009.131-.536.312-1.171l.33-1.153 3.601-3.607L12.6 1.707l.847.846.847.847-3.607 3.603" fill="currentColor" fill-rule="evenodd"/></svg>