<svg xmlns="http://www.w3.org/2000/svg" width="16" height="16" fill="none" viewBox="0 0 16 16"><path fill="currentColor" d="m12.609 1 .353-.354-.353-.353-.354.353.354.354ZM15 3.391l.354.354.353-.354-.353-.353L15 3.39Zm-7.652 7.652.137.481.125-.035.091-.092-.353-.354ZM4 12l-.48-.137-.248.865.865-.247L4 12Zm.957-3.348L4.603 8.3l-.092.091-.035.125.48.137ZM15 8.5V8h-1v.5h1ZM7.5 2H8V1h-.5v1Zm4.755-.646 2.391 2.39.708-.706L12.962.646l-.707.708Zm2.391 1.684L6.994 10.69l.707.707 7.653-7.652-.708-.707ZM7.21 10.563l-3.347.956.274.962 3.348-.957-.275-.961Zm-2.73 1.574.957-3.347-.961-.275-.957 3.348.962.274Zm.83-3.131 7.652-7.652-.707-.708L4.603 8.3l.707.707ZM14 8.5V13h1V8.5h-1Zm0 4.5a1 1 0 0 1-1 1v1a2 2 0 0 0 2-2h-1Zm-1 1H3v1h10v-1ZM3 14a1 1 0 0 1-1-1H1a2 2 0 0 0 2 2v-1Zm-1-1V3H1v10h1ZM2 3a1 1 0 0 1 1-1V1a2 2 0 0 0-2 2h1Zm1-1h4.5V1H3v1Z"/></svg>