<svg xmlns="http://www.w3.org/2000/svg" width="16" height="16" fill="currentColor">
  <path fill-rule="evenodd" d="M5 6.5a.5.5 0 1 0 0 1 .5.5 0 0 0 0-1ZM3.5 7a1.5 1.5 0 1 1 3 0 1.5 1.5 0 0 1-3 0ZM5 10a2 2 0 0 0-1.732 1h3.464A2 2 0 0 0 5 10Zm2.83 1A3.001 3.001 0 0 0 2 12h6c0-.35-.06-.687-.17-1Z" clip-rule="evenodd"/>
  <path d="M9 7h3v1H9V7ZM9 9h3v1H9V9Z"/>
  <path fill-rule="evenodd" d="M13 6a2 2 0 0 0-2-2V3a3 3 0 0 1 3 3h-1Z" clip-rule="evenodd"/>
  <path fill-rule="evenodd" d="M15 6a4 4 0 0 0-4-4V1a5 5 0 0 1 5 5h-1ZM1.5 4a.5.5 0 0 0-.5.5v8a.5.5 0 0 0 .5.5h11a.5.5 0 0 0 .5-.5V7h1v5.5a1.5 1.5 0 0 1-1.5 1.5h-11A1.5 1.5 0 0 1 0 12.5v-8A1.5 1.5 0 0 1 1.5 3H10v1H1.5Z" clip-rule="evenodd"/>
</svg>
