<svg xmlns="http://www.w3.org/2000/svg" width="24" height="24" fill="none"><path d="M1.252 2.078C.979 2.245 1 1.492 1 11.008c0 8.526.001 8.613.08 8.743a.578.578 0 0 0 .21.19C1.44 20.009 12.398 23 12.5 23c.102 0 11.06-2.991 11.21-3.059a.578.578 0 0 0 .21-.19c.079-.13.08-.217.08-8.743 0-7.697-.007-8.625-.062-8.732-.073-.141-.278-.276-.418-.275-.055 0-2.557.671-5.56 1.491l-5.46 1.49-5.46-1.49c-3.003-.82-5.505-1.491-5.56-1.491a.54.54 0 0 0-.228.077M6.86 4.481c2.596.706 4.815 1.312 4.93 1.345l.21.06v7.98c0 7.581-.003 7.978-.07 7.959l-4.79-1.306c-2.596-.706-4.814-1.312-4.93-1.345l-.21-.06v-7.98c0-7.581.003-7.978.07-7.959l4.79 1.306M23 11.137v7.977l-.21.06c-.116.033-2.334.639-4.93 1.345a6115.07 6115.07 0 0 0-4.79 1.306c-.067.019-.07-.379-.07-7.962 0-4.391.005-7.983.01-7.984.005 0 2.242-.611 4.97-1.357 2.728-.746 4.973-1.358 4.99-1.359.017-.002.03 3.587.03 7.974" fill-rule="evenodd" fill="#000"/></svg>