<svg xmlns="http://www.w3.org/2000/svg" width="16" height="16" fill="none"><path d="M1.292.048a.487.487 0 0 0-.277.358C.994.506.988 2.309.993 6.587c.006 5.054.013 6.051.044 6.106.111.204.042.171 3.785 1.776 3.337 1.43 3.596 1.536 3.709 1.525.144-.014 7.134-2.998 7.279-3.107a.557.557 0 0 0 .14-.182c.049-.11.05-.285.044-6.247L15.987.324 15.932.25c-.111-.149-.236-.226-.388-.24-.142-.013-.192.007-3.593 1.467L8.502 2.956 5.084 1.49C2.549.402 1.632.02 1.533.011a.42.42 0 0 0-.241.037m6.707 9.236L8 14.741l-2.999-1.284-3-1.284V6.716L2 1.259l2.999 1.284 3 1.284v5.457m6.988-2.555v5.448l-2.967 1.272a344.134 344.134 0 0 1-2.987 1.271c-.011 0-.02-2.451-.02-5.447V3.826l2.967-1.272c1.632-.7 2.976-1.273 2.987-1.273.011-.001.02 2.451.02 5.448" fill-rule="evenodd" fill="#000"/></svg>