<svg xmlns="http://www.w3.org/2000/svg" width="16" height="16" fill="none"><path d="M1.669 6.026c-.45.082-.898.341-1.2.694a1.988 1.988 0 0 0-.313 2.047c.191.471.606.886 1.077 1.077.76.309 1.601.142 2.177-.434a1.987 1.987 0 0 0 .087-2.73 2.265 2.265 0 0 0-.993-.615 2.892 2.892 0 0 0-.835-.039m6 0c-.45.082-.898.341-1.2.694a1.988 1.988 0 0 0-.313 2.047c.191.471.606.886 1.077 1.077.76.309 1.601.142 2.177-.434a1.987 1.987 0 0 0 .087-2.73 2.265 2.265 0 0 0-.993-.615 2.892 2.892 0 0 0-.835-.039m6 0c-.45.082-.898.341-1.2.694a1.988 1.988 0 0 0-.313 2.047c.191.471.606.886 1.077 1.077.76.309 1.601.142 2.177-.434a1.987 1.987 0 0 0 .087-2.73 2.265 2.265 0 0 0-.993-.615 2.892 2.892 0 0 0-.835-.039" fill="currentColor" fill-rule="evenodd"/></svg>