<svg xmlns="http://www.w3.org/2000/svg" width="24" height="24" fill="none"><path d="M14.684 1.623a.494.494 0 0 0 .193.857c.089.024 1.24.04 3.023.04h2.88l-3.61 3.61c-2.688 2.688-3.619 3.643-3.647 3.74a.497.497 0 0 0 .607.607c.098-.027 1.023-.929 3.73-3.637l3.6-3.6.02 2.952c.019 2.733.025 2.96.091 3.059a.501.501 0 0 0 .858 0c.066-.1.072-.343.083-3.609.007-1.926 0-3.582-.014-3.68a.503.503 0 0 0-.158-.31l-.132-.132h-7.402l-.122.103M6.151 17.15 2.52 20.779V17.9c0-1.841-.015-2.933-.041-3.027-.062-.224-.241-.353-.486-.353-.174 0-.219.018-.333.132a.503.503 0 0 0-.158.31c-.014.098-.021 1.754-.014 3.68.011 3.266.017 3.509.083 3.609.038.059.119.14.178.178.1.066.343.072 3.609.083 1.926.007 3.578.001 3.672-.012.453-.066.625-.592.286-.877l-.122-.103H6.217c-1.637 0-2.977-.014-2.977-.03 0-.017 1.62-1.65 3.601-3.63 2.707-2.707 3.609-3.632 3.636-3.73a.496.496 0 0 0-.161-.507c-.097-.082-.165-.103-.329-.103h-.206l-3.63 3.63" fill-rule="evenodd" fill="#000"/></svg>