<svg xmlns="http://www.w3.org/2000/svg" width="16" height="16" fill="none"><path d="M10.36.022c-.493.163-.464.854.039.962.092.02.748.029 2.009.029h1.872l-2.618 2.62C9.117 6.182 9.044 6.257 9.019 6.381a.527.527 0 0 0 .042.356c.046.086.212.22.293.238.04.009.086.02.102.025a.592.592 0 0 0 .16-.018c.128-.026.181-.078 2.751-2.644l2.62-2.618v1.872c0 1.25.009 1.917.029 2.007a.59.59 0 0 0 .099.219c.134.16.386.224.573.146.117-.049.279-.235.298-.342a113.7 113.7 0 0 0 .008-2.693C15.987.344 15.986.323 15.932.25a1.202 1.202 0 0 0-.156-.155l-.101-.082-2.631-.004c-1.447-.002-2.655.004-2.684.013M6.293 9.043c-.036.014-1.239 1.198-2.673 2.631L1.013 14.28v-1.872c0-1.261-.009-1.917-.029-2.009-.094-.436-.651-.536-.907-.162l-.064.092-.007 2.602a113.53 113.53 0 0 0 .008 2.691c.019.107.181.293.298.342.07.029.566.036 2.685.036 1.768 0 2.624-.009 2.675-.028a.66.66 0 0 0 .291-.284.492.492 0 0 0-.004-.375.426.426 0 0 0-.231-.249c-.095-.048-.188-.051-2.047-.051-1.071 0-1.948-.009-1.948-.019 0-.011 1.175-1.196 2.611-2.634 2.561-2.563 2.612-2.616 2.638-2.744A.592.592 0 0 0 7 9.456a1.95 1.95 0 0 1-.025-.102c-.019-.089-.156-.25-.258-.302-.084-.044-.323-.049-.424-.009" fill-rule="evenodd" fill="#000"/></svg>