<svg width="16" height="16" viewBox="0 0 16 16" fill="none" xmlns="http://www.w3.org/2000/svg">
<path d="M8.5 12.452C8.5 12.7282 8.27614 12.952 8 12.952C7.72386 12.952 7.5 12.7282 7.5 12.452C7.5 12.1759 7.72386 11.952 8 11.952C8.27614 11.952 8.5 12.1759 8.5 12.452Z" fill="#D97336" stroke="#D97336"/>
<path d="M8 4.95203V9.95203" stroke="#D97336" stroke-linecap="round" stroke-linejoin="round"/>
<path d="M0.741037 13.228L6.97004 1.66004C7.07022 1.4741 7.21887 1.31875 7.40021 1.21047C7.58156 1.10219 7.78883 1.04501 8.00004 1.04501C8.21125 1.04501 8.41852 1.10219 8.59986 1.21047C8.7812 1.31875 8.92985 1.4741 9.03004 1.66004L15.259 13.228C15.3548 13.4062 15.4028 13.6062 15.3982 13.8085C15.3936 14.0108 15.3367 14.2084 15.2329 14.3821C15.1291 14.5558 14.9821 14.6996 14.8062 14.7995C14.6302 14.8994 14.4314 14.9519 14.229 14.952H1.77104C1.56871 14.9519 1.36987 14.8994 1.19392 14.7995C1.01797 14.6996 0.870936 14.5558 0.767167 14.3821C0.663397 14.2084 0.606442 14.0108 0.601862 13.8085C0.597283 13.6062 0.645235 13.4062 0.741037 13.228V13.228Z" stroke="#D97336" stroke-linecap="round" stroke-linejoin="round"/>
</svg>
