<svg width="16" height="16" viewBox="0 0 16 16" fill="none" xmlns="http://www.w3.org/2000/svg">
<path d="M10.5 7.5H4.5V11.5H10.5V7.5Z" stroke="#1D1D1D" stroke-linecap="round" stroke-linejoin="round"/>
<path d="M5.5 7.5V5.5C5.5 4.96957 5.71071 4.46086 6.08579 4.08579C6.46086 3.71071 6.96957 3.5 7.5 3.5V3.5C8.03043 3.5 8.53914 3.71071 8.91421 4.08579C9.28929 4.46086 9.5 4.96957 9.5 5.5V7.5" stroke="#1D1D1D" stroke-linecap="round" stroke-linejoin="round"/>
<path d="M13.5 9.5C13.5 11.0913 12.8679 12.6174 11.7426 13.7426C10.6174 14.8679 9.0913 15.5 7.5 15.5C5.9087 15.5 4.38258 14.8679 3.25736 13.7426C2.13214 12.6174 1.5 11.0913 1.5 9.5V1.5L7.5 0.5L13.5 1.5V9.5Z" stroke="#1D1D1D" stroke-linecap="round" stroke-linejoin="round"/>
</svg>
