<svg width="16" height="16" fill="none" xmlns="http://www.w3.org/2000/svg"><path d="M4.407.507c-1.645.276-3.034.515-3.084.532-.103.034-.273.207-.297.3-.008.034-.011 2.059-.005 4.501l.009 4.44.059.307c.28 1.457.907 2.633 1.921 3.605a6.674 6.674 0 0 0 2.278 1.419c1.191.438 2.583.502 3.844.176a6.507 6.507 0 0 0 4.772-5.189c.093-.543.099-.877.091-5.093l-.008-4.162-.075-.112a.48.48 0 0 0-.186-.165c-.079-.037-1.032-.206-3.159-.56A196.65 196.65 0 0 0 7.46.003c-.033.001-1.407.228-3.053.504m5.86.96c1.495.249 2.725.453 2.734.453.008 0 .011 1.815.005 4.033-.008 3.689-.013 4.058-.055 4.314-.169 1.012-.527 1.853-1.108 2.606-1.329 1.72-3.621 2.503-5.717 1.954a5.523 5.523 0 0 1-4.098-4.779C2.01 9.881 2 8.384 2 5.856V1.922l.087-.016c.482-.088 5.308-.888 5.373-.89.048-.001 1.311.201 2.807.451M7.133 3.028a2.743 2.743 0 0 0-1.013.398 2.611 2.611 0 0 0-1.044 1.45c-.036.123-.047.33-.06 1.137L5 7l-.333.013c-.361.015-.454.044-.558.177a.595.595 0 0 0-.084.167c-.019.065-.025.785-.02 2.203l.008 2.107.062.086c.034.048.105.12.158.16l.096.074 3.109.008c2.111.005 3.14-.001 3.205-.02a.458.458 0 0 0 .291-.243c.051-.1.053-.166.053-2.239 0-2.323.008-2.201-.151-2.351-.115-.108-.198-.129-.529-.129h-.302l-.011-.953c-.011-.866-.017-.972-.068-1.157-.245-.893-.869-1.541-1.731-1.799-.197-.059-.297-.072-.622-.079a4.768 4.768 0 0 0-.44.003m.877 1.061c.455.166.792.532.941 1.019.042.139.048.265.048 1.025L9 7l-1.5.007-1.5.007v-.847c.001-.661.01-.885.041-1.018.121-.515.579-.977 1.096-1.109.235-.059.64-.037.873.049M10 9.507v1.507l-2.5-.007L5 11l-.007-1.5L4.986 8H10v1.507" fill-rule="evenodd" fill="#000"/></svg>