<svg xmlns="http://www.w3.org/2000/svg" width="16" height="16" viewBox="0 0 16 16">
  <path fill="#1D1D1D" fill-rule="evenodd" d="M.5 7A1.5 1.5 0 0 1 2 5.5h3.207l1.5 1.5h2.586l1.5-1.5H14A1.5 1.5 0 0 1 15.5 7v7.5A1.5 1.5 0 0 1 14 16H2a1.5 1.5 0 0 1-1.5-1.5V7ZM2 6.5a.5.5 0 0 0-.5.5v7.5a.5.5 0 0 0 .5.5h12a.5.5 0 0 0 .5-.5V7a.5.5 0 0 0-.5-.5h-2.793L9.707 8H6.293l-1.5-1.5H2Z" clip-rule="evenodd"/>
  <path fill="#1D1D1D" fill-rule="evenodd" d="M.5 5A1.5 1.5 0 0 1 2 3.5h12A1.5 1.5 0 0 1 15.5 5v4h-1V5a.5.5 0 0 0-.5-.5H2a.5.5 0 0 0-.5.5v4h-1V5Z" clip-rule="evenodd"/>
  <path fill="#1D1D1D" fill-rule="evenodd" d="M.5 3A1.5 1.5 0 0 1 2 1.5h12A1.5 1.5 0 0 1 15.5 3v4h-1V3a.5.5 0 0 0-.5-.5H2a.5.5 0 0 0-.5.5v4h-1V3Zm13.354 7.354L10.5 13.707l-1.854-1.853.708-.708 1.146 1.147 2.646-2.647.708.708Z" clip-rule="evenodd"/>
  <path fill="#1D1D1D" d="M6 9.5a.5.5 0 1 1-1 0 .5.5 0 0 1 1 0Zm2 2a.5.5 0 1 1-1 0 .5.5 0 0 1 1 0Zm-2 2a.5.5 0 1 1-1 0 .5.5 0 0 1 1 0Zm-2-2a.5.5 0 1 1-1 0 .5.5 0 0 1 1 0Zm.5-1.5a.5.5 0 1 1-1 0 .5.5 0 0 1 1 0Zm0 3a.5.5 0 1 1-1 0 .5.5 0 0 1 1 0Zm3-3a.5.5 0 1 1-1 0 .5.5 0 0 1 1 0Zm0 3a.5.5 0 1 1-1 0 .5.5 0 0 1 1 0Z"/>
</svg>
