<svg width="16" height="16" fill="none" xmlns="http://www.w3.org/2000/svg"><path d="M4.35.019c-.096.018-.311.247-.332.352C4.008.42 4 .806 4 1.23V2H2.927c-.591 0-1.148.012-1.238.027C1.238 2.1.946 2.254.6 2.6s-.5.638-.573 1.089c-.037.225-.037 10.397 0 10.622.073.451.227.743.573 1.089s.638.5 1.089.573c.101.016 1.078.027 2.532.027 2.531 0 2.47.003 2.614-.128.132-.119.19-.38.123-.557a.636.636 0 0 0-.225-.257c-.039-.023-.707-.035-2.493-.045L1.8 15l-.166-.07a1.015 1.015 0 0 1-.564-.564L1 14.2l-.007-4.1L.985 6h14.028v1.305c0 .857.01 1.331.029 1.38a.534.534 0 0 0 .257.265c.18.077.448.023.573-.115.131-.144.128-.083.128-2.614 0-1.454-.011-2.431-.027-2.532-.073-.451-.227-.743-.573-1.089s-.638-.5-1.089-.573c-.09-.015-.647-.027-1.238-.027H12v-.77c0-.423-.008-.81-.018-.859a.511.511 0 0 0-.143-.215c-.102-.101-.149-.129-.252-.144a.48.48 0 0 0-.521.256c-.049.096-.053.16-.053.918V2H4.987v-.814c0-.747-.005-.823-.051-.914-.11-.216-.314-.304-.586-.253m10.01 3.045c.224.089.49.355.574.576.057.149.062.201.064.76L15 5H1l-.007-.465c-.009-.541.017-.772.108-.968.13-.279.44-.508.749-.554.075-.011 2.885-.018 6.243-.016L14.2 3l.16.064m.92 7.992c-.06.025-.76.706-1.94 1.885l-1.847 1.845-.846-.844c-.466-.464-.885-.863-.932-.886a.601.601 0 0 0-.4-.014.534.534 0 0 0-.265.257.564.564 0 0 0 .015.429c.028.054.529.574 1.113 1.156.843.839 1.083 1.063 1.165 1.089a.516.516 0 0 0 .467-.091c.148-.111 4.024-3.992 4.106-4.113a.513.513 0 0 0-.027-.581c-.125-.16-.404-.221-.609-.132" fill-rule="evenodd" fill="#000"/></svg>