<svg xmlns="http://www.w3.org/2000/svg" width="16" height="16" fill="none"><path d="M7.787.259A7.75 7.75 0 0 0 .48 9.801a7.779 7.779 0 0 0 4.353 5.268 8.866 8.866 0 0 0 1.867.572l.1.018V10.24H4.827V8H6.8V6.967c0-1.36.046-1.679.32-2.234.366-.741 1.001-1.213 1.867-1.387.449-.09 1.185-.079 2.086.031l.367.045v1.911h-.558c-.373 0-.623.013-.757.039-.444.084-.713.317-.851.734-.053.161-.058.24-.068 1.034l-.01.86h2.166l-.015.087c-.008.047-.081.518-.161 1.046a75.26 75.26 0 0 1-.162 1.034l-.015.073H9.2v5.417l.127-.019c.193-.028.816-.186 1.096-.277a7.602 7.602 0 0 0 2.932-1.773c.806-.782 1.349-1.559 1.76-2.521A7.729 7.729 0 0 0 14.96 4.6 7.715 7.715 0 0 0 10.44.653 7.704 7.704 0 0 0 7.787.259" fill="currentColor" fill-rule="evenodd"/></svg>