<svg xmlns="http://www.w3.org/2000/svg" width="16" height="16" fill="none"><path d="M4.813.147c-.84.13-1.626.496-2.279 1.059A4.64 4.64 0 0 0 1.093 3.62a7.184 7.184 0 0 0-.102 1.22L1 5l6.503.007 6.504.006-.015-.486c-.015-.518-.049-.73-.177-1.101-.254-.731-.827-1.411-1.551-1.839-.998-.59-2.28-.637-3.301-.122l-.169.086-.204-.201a3.34 3.34 0 0 0-.64-.516A4.828 4.828 0 0 0 6.387.186C6.039.111 5.178.09 4.813.147m1.312 1.012c.426.076.94.285 1.323.539.273.181.655.559.916.909.124.165.233.299.244.299a3.68 3.68 0 0 0 .299-.214c.335-.255.6-.397.921-.495.217-.066.278-.073.665-.073.359-.001.461.009.64.058.277.077.648.259.867.425.435.331.827.887.919 1.308l.019.085H2.047l.019-.127c.076-.526.492-1.286.96-1.754a3.495 3.495 0 0 1 2.041-.998c.22-.031.786-.01 1.058.038m1.279 6.379C5.983 8.675 4.812 9.595 4.801 9.582a58.634 58.634 0 0 1-.439-1.702L3.918 6.1 3.891 6H.985l.008 3.887L1 13.773l.06.176c.111.326.351.629.655.827.183.119.336.173.592.21.119.017 2.172.026 5.693.026 3.521 0 5.574-.009 5.693-.026a1.31 1.31 0 0 0 .592-.21c.281-.182.515-.462.621-.741.106-.278.109-.439.102-4.578L15 5.461l-2.487 1.99a313.041 313.041 0 0 1-2.499 1.989c-.008 0-.017-.893-.02-1.984l-.007-1.984-2.583 2.066M3.657 9.187a97.44 97.44 0 0 0 .556 2.173c.008 0 1.079-.852 2.38-1.893a286.616 286.616 0 0 1 2.38-1.894c.008 0 .014.888.014 1.974 0 1.085.009 1.973.02 1.973.011 0 1.136-.893 2.5-1.984l2.48-1.984.007 2.964c.005 1.63.001 3.014-.008 3.075-.02.145-.19.343-.328.383-.068.02-1.804.026-5.716.02l-5.618-.007-.074-.055a1.202 1.202 0 0 1-.155-.156l-.082-.101-.007-3.331-.007-3.331H3.114l.543 2.174" fill-rule="evenodd" fill="#000"/></svg>