<svg xmlns="http://www.w3.org/2000/svg" width="24" height="24" fill="none"><path d="M5.677 1.58c-1.116.222-2.106.831-2.76 1.697-.525.696-.859 1.829-.905 3.073L1.988 7h13.024l-.025-.59c-.034-.842-.211-1.551-.551-2.21-.428-.829-1.249-1.415-2.273-1.622-.256-.052-.455-.063-.82-.047-.544.025-.835.091-1.247.285l-.284.134-.312-.275c-.667-.587-1.366-.934-2.208-1.095-.381-.073-1.248-.073-1.615 0m1.525 1c.846.178 1.592.671 2.149 1.42l.233.314c.006.008.161-.094.344-.226.411-.296.677-.431 1.001-.508.297-.07.822-.077 1.119-.016.337.069.824.324 1.103.577.368.334.623.892.79 1.729l.025.13H8.503c-5.33 0-5.463-.002-5.463-.076 0-.319.259-1.28.451-1.674.38-.779 1.308-1.462 2.269-1.668.352-.075 1.087-.076 1.442-.002m4.429 8.887c-3.216 2.97-3.351 3.089-3.377 2.983l-.694-2.77-.665-2.66-2.447-.01L2 8.999V22h20v-6.78c0-3.729-.008-6.78-.017-6.78-.009 0-1.579 1.34-3.49 2.977l-3.473 2.977-.02-3.01-.02-3.01-3.349 3.093M6.877 13.07l.806 3.219.04.15 3.118-2.88a332.129 332.129 0 0 1 3.138-2.879c.011 0 .025 1.326.031 2.946l.01 2.946 3.4-2.912c1.87-1.601 3.441-2.948 3.49-2.993l.09-.081V21H3V10h3.11l.767 3.07M11 19.5v.5h2v-1h-2v.5m7 0v.5h2v-1h-2v.5" fill-rule="evenodd" fill="#000"/></svg>