<svg xmlns="http://www.w3.org/2000/svg" width="16" height="16">
  <path fill-rule="evenodd" d="M0 0h2v1H1v14h14V6.5L9 11V6.5L3 11V4h1v5l6-4.5V9l6-4.5V16H0V0Zm3 0h11.5v.5c0 .834-.21 1.538-.613 2.086-.404.548-.975.902-1.628 1.083-1.236.344-2.79.082-4.296-.631-2.17.688-3.5.508-4.254-.247-.375-.375-.547-.839-.629-1.248C3 1.143 3 .758 3 .511V0Zm1.014 1c.009.114.023.23.047.347.059.295.168.55.355.737.348.348 1.212.68 3.426-.058l.196-.066.186.093c1.437.718 2.805.92 3.767.653.472-.131.839-.372 1.09-.714.185-.25.323-.575.384-.992h-9.45ZM6 13h2v1H6v-1Zm6 0h2v1h-2v-1Z" clip-rule="evenodd"/>
</svg>
