<svg xmlns="http://www.w3.org/2000/svg" width="16" height="16" fill="currentColor" viewBox="0 0 16 16">
  <g clip-path="url(#a)">
    <path fill-rule="evenodd" d="M8.28.729A.5.5 0 0 1 8.8.768l2.306 1.657 2.705-.863a.5.5 0 0 1 .628.628l-.864 2.705L15.232 7.2a.5.5 0 0 1-.404.792l-2.84.014-1.68 2.289a.5.5 0 0 1-.877-.14l-.717-2.165-7.86 7.862a.5.5 0 1 1-.708-.707l7.86-7.862-2.163-.715a.5.5 0 0 1-.139-.877L7.992 4.01l.015-2.84.005-.07A.5.5 0 0 1 8.28.73Zm.711 3.539a.501.501 0 0 1-.204.4l-1.71 1.256 2.015.666.013.006c.023.008.044.02.066.031.01.006.023.01.033.018a.502.502 0 0 1 .11.098.499.499 0 0 1 .04.052c.01.013.016.028.023.042a.491.491 0 0 1 .023.052c.003.006.008.012.01.02l.665 2.013 1.257-1.709.08-.086a.5.5 0 0 1 .32-.118l2.123-.01-1.239-1.724a.5.5 0 0 1-.07-.444l.644-2.023-2.021.646a.5.5 0 0 1-.443-.07L9 2.146l-.01 2.122Z" clip-rule="evenodd"/>
    <path d="M13.5 10a2.5 2.5 0 0 0 2.5 2.5 2.5 2.5 0 0 0-2.5 2.5 2.5 2.5 0 0 0-2.5-2.5 2.5 2.5 0 0 0 2.5-2.5ZM2.5 1A2.5 2.5 0 0 0 5 3.5 2.5 2.5 0 0 0 2.5 6 2.5 2.5 0 0 0 0 3.5 2.5 2.5 0 0 0 2.5 1Z"/>
  </g>
  <defs>
    <clipPath id="a">
      <path d="M0 0h16v16H0z"/>
    </clipPath>
  </defs>
</svg>
