<svg xmlns="http://www.w3.org/2000/svg" width="16" height="16" fill="currentColor" viewBox="0 0 16 16">
  <path d="M12.759 8.53c1.31 0 2.19.63 2.19 1.74-.001.66-.38 1.12-1.06 1.41v.04c.73.21 1.26.73 1.26 1.55-.001 1.18-1.081 1.85-2.361 1.85-1.03 0-1.75-.36-2.21-.9l.68-.93c.38.37.85.64 1.39.64.62 0 1.03-.27 1.03-.75 0-.56-.33-.91-1.71-.91v-1.04c1.14 0 1.5-.34 1.5-.85 0-.44-.28-.7-.78-.7-.45 0-.79.21-1.19.56l-.74-.9c.58-.5 1.22-.81 2-.81Z"/>
  <path fill-rule="evenodd" d="M4 0c.349 0 .665.102.906.337.23.224.334.515.383.784.094.517.017 1.18-.042 1.744-.065.613-.115 1.151-.05 1.565.032.198.085.33.148.414a.418.418 0 0 0 .181.14 2.486 2.486 0 0 1 2.062-.412c.255-1.376 1.046-2.762 2.135-3.488.974-.65 2.21-.449 3.144.27C13.812 2.08 14.5 3.358 14.5 5c0 .319-.07.622-.26.864a1.17 1.17 0 0 1-.713.415c-.246.05-.512.043-.761.019a10.536 10.536 0 0 1-.79-.118c-.548-.097-1.074-.195-1.555-.188-.443.007-.777.104-1.02.319A2.5 2.5 0 0 1 7.498 9.45a8.953 8.953 0 0 1-.326 2.26c-.238.828-.657 1.714-1.395 2.206-.933.622-2.26.593-3.325.025C1.356 13.357.5 12.19.5 10.5c0-.349.102-.665.337-.906.224-.23.515-.334.784-.383.517-.094 1.18-.017 1.744.042.613.064 1.151.115 1.565.05.198-.032.33-.085.414-.148.054-.04.1-.093.135-.175A2.493 2.493 0 0 1 4.5 7l.002-.028a8.796 8.796 0 0 1-1.712-.3c-.827-.238-1.713-.657-2.205-1.395-.622-.933-.593-2.26-.026-3.325C1.143.856 2.31 0 4 0Zm2.378 9.419c-.103.218-.25.4-.439.539a1.92 1.92 0 0 1-.853.333c-.57.09-1.252.016-1.826-.044-.623-.066-1.117-.114-1.46-.052-.16.03-.225.074-.248.098-.013.013-.052.057-.052.207 0 1.31.644 2.143 1.423 2.559.81.432 1.733.403 2.3.025.438-.292.77-.894.988-1.65.2-.698.277-1.444.285-1.985-.04-.008-.079-.02-.118-.03ZM7 5.5a1.5 1.5 0 1 0 0 3 1.5 1.5 0 0 0 0-3ZM4 1c-1.31 0-2.143.644-2.559 1.423-.432.81-.403 1.733-.025 2.3.292.438.894.77 1.65.988a7.878 7.878 0 0 0 1.65.273c.038-.085.08-.167.128-.247a1.412 1.412 0 0 1-.302-.298 1.92 1.92 0 0 1-.333-.853c-.09-.57-.017-1.252.044-1.826.065-.623.114-1.117.052-1.46-.03-.16-.074-.225-.098-.248C4.194 1.039 4.15 1 4 1Zm8.258 1.146c-.691-.531-1.455-.58-1.98-.23-.902.6-1.6 1.882-1.748 3.11.146.114.281.24.399.383.452-.314.98-.41 1.478-.417.597-.008 1.228.113 1.742.203.267.047.503.086.712.107.213.02.366.018.47-.003.098-.02.118-.047.122-.052.008-.01.047-.067.047-.247 0-1.357-.563-2.33-1.242-2.854Z" clip-rule="evenodd"/>
</svg>
