<svg xmlns="http://www.w3.org/2000/svg" width="16" height="16" fill="currentColor" viewBox="0 0 16 16">
  <path fill-rule="evenodd" d="M0 0h10v2H9V1H1v8h2v2.413L5.675 9.12l.65.76L2 13.587V10H0V0Z" clip-rule="evenodd"/>
  <path fill-rule="evenodd" d="M7 3h9v10h-2v2.972L9.84 13H7V3Zm1 1v8h2.16L13 14.028V12h2V4H8Z" clip-rule="evenodd"/>
  <path d="M3.413 6.065a1.5 1.5 0 0 1 .036-.702c.072-.21.168-.399.288-.567.126-.168.255-.324.387-.468.132-.15.243-.297.333-.441a.852.852 0 0 0 .045-.837.58.58 0 0 0-.243-.252.805.805 0 0 0-.396-.09c-.18 0-.348.042-.504.126a1.71 1.71 0 0 0-.423.342l-.576-.531c.198-.228.432-.414.702-.558a1.91 1.91 0 0 1 .927-.225c.312 0 .588.057.828.171.246.108.438.273.576.495.138.222.207.498.207.828 0 .228-.048.432-.144.612-.09.18-.204.348-.342.504-.138.156-.273.312-.405.468a2.177 2.177 0 0 0-.306.504c-.078.18-.105.387-.08.621h-.91Zm.46 2.043a.65.65 0 0 1-.478-.198.72.72 0 0 1-.189-.504.7.7 0 0 1 .19-.504.65.65 0 0 1 .476-.198c.192 0 .351.066.477.198.132.132.198.3.198.504a.702.702 0 0 1-.198.504.631.631 0 0 1-.477.198ZM11.152 9.065l-.144-3.069-.027-1.026h1.044l-.036 1.026-.144 3.069h-.693Zm.35 2.043a.65.65 0 0 1-.476-.198.702.702 0 0 1-.198-.504c0-.204.066-.372.198-.504a.65.65 0 0 1 .477-.198c.192 0 .35.066.477.198a.7.7 0 0 1 .189.504.72.72 0 0 1-.19.504.631.631 0 0 1-.476.198Z"/>
</svg>
