<svg xmlns="http://www.w3.org/2000/svg" width="16" height="16" fill="currentColor">
  <path fill-rule="evenodd" d="M1.723 7.768V13h.928v-2.048h.8L4.58 13h1.04l-1.253-2.186c.034-.012.068-.024.1-.038.289-.117.518-.296.689-.536.17-.24.256-.547.256-.92 0-.39-.086-.696-.256-.92-.171-.23-.4-.392-.688-.488a3.078 3.078 0 0 0-.976-.144H1.723Zm1.672 2.448H2.65V8.512h.744c.357 0 .629.061.816.184.192.117.288.325.288.624s-.096.523-.288.672c-.187.15-.46.224-.816.224ZM5.73 13l1.704-5.232h1.088L10.226 13H9.25l-.407-1.416H7.085L6.675 13H5.73Zm2.72-2.784.184.64H7.296l.186-.64c.085-.277.165-.56.24-.848.08-.293.155-.587.224-.88h.032c.075.288.15.579.224.872.08.293.163.579.248.856ZM10.871 13V7.768h1.768c.363 0 .688.048.976.144.288.096.517.259.688.488.17.224.256.53.256.92 0 .373-.085.68-.256.92-.17.24-.4.419-.688.536a2.046 2.046 0 0 1-.1.038L14.766 13h-1.04L12.6 10.952h-.801V13h-.928Zm.928-2.784h.744c.357 0 .63-.075.816-.224.192-.15.288-.373.288-.672 0-.299-.096-.507-.288-.624-.187-.123-.459-.184-.816-.184h-.744v1.704ZM1 0h8.707L15 5.293V7h-1V6H9V1H2v6H1V0Zm9 1.707L13.293 5H10V1.707ZM15 14v2H1v-2h1v1h12v-1h1Z" clip-rule="evenodd"/>
</svg>
