<svg width="16" height="16" viewBox="0 0 16 16" fill="none" xmlns="http://www.w3.org/2000/svg">
<path d="M14.5 12.5V15.5H1.5V14.5" stroke="currentColor" stroke-linecap="square"/>
<path d="M1.5 6.5V0.5H9.5L14.5 5.5V6.5" stroke="currentColor" stroke-linecap="square"/>
<path d="M9.5 1V5.5H14" stroke="currentColor" stroke-linecap="square"/>
<path d="M3.18871 13.096C2.83671 13.096 2.48738 13.032 2.14071 12.904C1.79938 12.776 1.48738 12.5893 1.20471 12.344L1.88471 11.536C2.08205 11.696 2.29805 11.8267 2.53271 11.928C2.77271 12.0293 3.01805 12.08 3.26871 12.08C3.51938 12.08 3.70338 12.0373 3.82071 11.952C3.94338 11.8667 4.00471 11.7573 4.00471 11.624C4.00471 11.5013 3.97271 11.4053 3.90871 11.336C3.84471 11.2613 3.75138 11.1973 3.62871 11.144C3.50605 11.0853 3.36205 11.0213 3.19671 10.952L2.52471 10.664C2.33271 10.5893 2.15138 10.4907 1.98071 10.368C1.81005 10.24 1.67138 10.0853 1.56471 9.90399C1.46338 9.71732 1.41271 9.49599 1.41271 9.23999C1.41271 8.95199 1.49271 8.69332 1.65271 8.46399C1.81805 8.22932 2.04205 8.04266 2.32471 7.90399C2.61271 7.75999 2.94605 7.68799 3.32471 7.68799C3.63938 7.68799 3.94871 7.74665 4.25271 7.86399C4.55671 7.98132 4.82605 8.15199 5.06071 8.37599L4.46071 9.11999C4.27938 8.98665 4.09805 8.88532 3.91671 8.81599C3.73538 8.74132 3.51671 8.70399 3.26071 8.70399C3.06871 8.70399 2.91138 8.74399 2.78871 8.82399C2.66605 8.90399 2.60471 9.02132 2.60471 9.17599C2.60471 9.27732 2.64205 9.36266 2.71671 9.43199C2.79138 9.50132 2.89271 9.56266 3.02071 9.61599C3.14871 9.66932 3.29538 9.72799 3.46071 9.79199L4.09271 10.064C4.32738 10.1493 4.52738 10.256 4.69271 10.384C4.85805 10.5067 4.98605 10.6587 5.07671 10.84C5.16738 11.0213 5.21271 11.2347 5.21271 11.48C5.21271 11.768 5.13271 12.0347 4.97271 12.28C4.81805 12.5253 4.58871 12.7227 4.28471 12.872C3.98605 13.0213 3.62071 13.096 3.18871 13.096Z" fill="currentColor"/>
<path d="M5.67359 13L7.29759 7.78399H8.70559L10.3296 13H9.08159L8.40959 10.36C8.34559 10.0987 8.27625 9.82132 8.20159 9.52799C8.12692 9.23466 8.05759 8.95199 7.99359 8.67999H7.96159C7.89759 8.95199 7.83092 9.23466 7.76159 9.52799C7.69225 9.82132 7.62292 10.0987 7.55359 10.36L6.87359 13H5.67359ZM6.74559 11.76V10.84H9.24159V11.76H6.74559Z" fill="currentColor"/>
<path d="M10.9985 13V7.78399H12.8465C13.2251 7.78399 13.5665 7.83732 13.8705 7.94399C14.1798 8.04532 14.4251 8.21865 14.6065 8.46399C14.7931 8.70932 14.8865 9.04265 14.8865 9.46399C14.8865 9.86932 14.7931 10.2027 14.6065 10.464C14.4198 10.7253 14.1718 10.92 13.8625 11.048C13.5531 11.1707 13.2145 11.232 12.8465 11.232H12.1745V13H10.9985ZM12.1745 10.296H12.7745C13.0998 10.296 13.3398 10.224 13.4945 10.08C13.6545 9.93599 13.7345 9.73065 13.7345 9.46399C13.7345 9.18666 13.6518 8.99466 13.4865 8.88799C13.3265 8.77599 13.0891 8.71999 12.7745 8.71999H12.1745V10.296Z" fill="currentColor"/>
</svg>
