<svg xmlns="http://www.w3.org/2000/svg" width="16" height="16" fill="none"><path d="M1.292.05a.479.479 0 0 0-.277.356C.994.505.988 1.536.993 3.84c.008 3.67-.009 3.365.192 3.541.23.202.623.119.758-.161L2 7.103v-6.09h6.987v2.226c0 1.504.009 2.269.029 2.36.035.163.13.285.276.351.102.046.234.049 2.408.049L14 6v.552c0 .507.005.56.057.668a.485.485 0 0 0 .394.267c.175.017.3-.03.411-.153.141-.155.156-.277.146-1.18L15 5.373l-.072-.12c-.107-.18-5.102-5.16-5.227-5.212-.088-.036-.569-.041-4.2-.04-3.921 0-4.106.002-4.209.049m10.361 3.323 1.64 1.64H10v-1.64c0-.902.003-1.64.007-1.64.003 0 .744.738 1.646 1.64m-1.96 5.001a1.773 1.773 0 0 0-1.007.494c-.459.457-.478 1.192-.043 1.652.198.21.388.32 1.037.598.315.136.625.276.688.313.146.084.218.201.219.352 0 .254-.173.381-.541.399-.401.019-.74-.081-1.112-.329-.108-.071-.201-.116-.214-.103-.068.07-.56.666-.56.678 0 .024.244.201.423.305.198.116.522.239.788.299.283.064.85.057 1.113-.014.712-.191 1.171-.72 1.169-1.35-.002-.452-.173-.769-.55-1.02-.133-.089-.578-.29-1.168-.529-.448-.182-.548-.27-.548-.482 0-.15.067-.247.221-.319.186-.086.541-.09.809-.009.182.055.434.18.524.259.041.036.052.037.082.004.081-.089.497-.608.497-.62 0-.008-.075-.071-.167-.14a2.466 2.466 0 0 0-.793-.382 2.767 2.767 0 0 0-.867-.056M.427 8.45c0 .012.276.511.613 1.108.337.598.613 1.091.613 1.097 0 .006-.294.529-.653 1.163a43.422 43.422 0 0 0-.653 1.173c0 .038 1.056.028 1.086-.011.047-.059.564-1.091.684-1.366.064-.146.127-.268.14-.271.012-.003.14.231.282.519.142.289.334.663.427.831l.167.307.57.007c.509.007.568.003.554-.035a72.27 72.27 0 0 0-.657-1.147 51.928 51.928 0 0 1-.64-1.122c0-.009.269-.503.598-1.099.33-.596.607-1.105.617-1.131.017-.045-.015-.047-.533-.04l-.55.007-.276.587c-.151.322-.31.679-.352.793a1.053 1.053 0 0 1-.091.206c-.007 0-.192-.36-.411-.8l-.397-.799H.996c-.313 0-.569.01-.569.023m4.326 2.263L4.76 13l1.527.007 1.526.007v-.881H5.787V8.427H4.746l.007 2.286m7.07-2.245c.009.023.287.521.619 1.108.331.587.596 1.084.588 1.105a77.06 77.06 0 0 1-.644 1.147 82.045 82.045 0 0 0-.644 1.147c-.012.033.067.038.532.038h.545l.32-.633c.175-.348.356-.723.401-.833a.844.844 0 0 1 .106-.207c.012-.004.08.116.15.266.069.151.261.526.425.834l.299.56.567.007c.311.004.566-.003.566-.016 0-.013-.294-.531-.653-1.151a112.09 112.09 0 0 1-.653-1.136c0-.005.276-.508.613-1.118.337-.61.613-1.121.613-1.134 0-.015-.222-.025-.541-.025h-.542l-.258.549c-.143.302-.303.662-.358.8-.054.138-.105.25-.113.25-.008 0-.191-.36-.407-.8l-.393-.799h-.577c-.509 0-.575.004-.561.041m-10.531 5.58a.485.485 0 0 0-.276.353c-.038.175-.038 1.023 0 1.198.035.163.13.285.276.351.104.047.362.049 6.708.049s6.604-.002 6.708-.049a.479.479 0 0 0 .276-.351c.038-.176.038-1.023 0-1.2-.094-.436-.651-.536-.907-.162-.057.083-.065.125-.072.434l-.009.342H2.004l-.009-.344c-.009-.381-.022-.414-.213-.569a.493.493 0 0 0-.49-.052" fill-rule="evenodd" fill="#000"/></svg>