<svg xmlns="http://www.w3.org/2000/svg" width="16" height="16" fill="none"><path d="M1.292.05a.479.479 0 0 0-.277.356C.994.505.988 1.536.993 3.84c.008 3.67-.009 3.365.192 3.541.23.202.623.119.758-.161L2 7.103v-6.09h6.987v2.226c0 1.504.009 2.269.029 2.36.035.163.13.285.276.351.102.046.234.049 2.408.049L14 6v.552c0 .507.005.56.057.668a.485.485 0 0 0 .394.267c.175.017.3-.03.411-.153.141-.155.156-.277.146-1.18L15 5.373l-.072-.12c-.107-.18-5.102-5.16-5.227-5.212-.088-.036-.569-.041-4.2-.04-3.921 0-4.106.002-4.209.049m10.361 3.323 1.64 1.64H10v-1.64c0-.902.003-1.64.007-1.64.003 0 .744.738 1.646 1.64M.734 8.456a96.42 96.42 0 0 0-.008 2.291L.733 13l.514.007.513.007V11.467h.277c.847 0 1.364-.161 1.725-.538.238-.249.372-.616.371-1.02-.002-.786-.397-1.249-1.213-1.42-.274-.057-2.166-.085-2.186-.033m3.799 2.265v2.293l.514-.007L5.56 13l.007-.763.007-.762.46-.016c.754-.027 1.145-.158 1.488-.498.286-.284.398-.584.398-1.067 0-.607-.231-1.015-.701-1.238-.394-.186-.747-.228-1.919-.229h-.767v2.294m3.494-1.854v.44h1.36v3.707l.513-.007.513-.007.007-1.847.007-1.846h1.36v-.88h-3.76v.44m3.796-.399c.009.023.287.521.619 1.108.331.587.596 1.084.588 1.105a77.06 77.06 0 0 1-.644 1.147 82.045 82.045 0 0 0-.644 1.147c-.012.033.067.038.532.038h.545l.32-.633c.175-.348.356-.723.401-.833a.844.844 0 0 1 .106-.207c.012-.004.08.116.15.266.069.151.261.526.425.834l.299.56.567.007c.311.004.566-.003.566-.016 0-.013-.294-.531-.653-1.151a112.09 112.09 0 0 1-.653-1.136c0-.005.276-.508.613-1.118.337-.61.613-1.121.613-1.134 0-.015-.222-.025-.541-.025h-.542l-.258.549c-.143.302-.303.662-.358.8-.054.138-.105.25-.113.25-.008 0-.191-.36-.407-.8l-.393-.799h-.577c-.509 0-.575.004-.561.041m-9.249.814c.401.075.568.289.54.691a.656.656 0 0 1-.232.486c-.155.133-.261.158-.715.174l-.407.013V9.253h.328c.181 0 .4.013.486.029m3.782-.003c.223.037.381.121.466.249.062.094.072.14.08.35.007.222.002.254-.067.389-.141.275-.385.373-.934.373h-.328V9.253h.314c.172.001.383.012.469.026m-5.064 4.769a.485.485 0 0 0-.276.353c-.038.175-.038 1.023 0 1.198.035.163.13.285.276.351.104.047.362.049 6.708.049s6.604-.002 6.708-.049a.479.479 0 0 0 .276-.351c.038-.176.038-1.023 0-1.2-.094-.436-.651-.536-.907-.162-.057.083-.065.125-.072.434l-.009.342H2.004l-.009-.344c-.009-.381-.022-.414-.213-.569a.493.493 0 0 0-.49-.052" fill-rule="evenodd" fill="#000"/></svg>