<svg xmlns="http://www.w3.org/2000/svg" width="24" height="24" fill="none"><path d="M3 5.5V10H1v11h2v3h18v-3h2V10h-2V7.3l-3.15-3.15L14.7 1H3v4.5M14 5v3h6v2H4V2h10v3m3.16-.14L19.3 7H15V4.86c0-1.177.005-2.14.01-2.14.006 0 .973.963 2.15 2.14M22 15.5V20H2v-9h20v4.5M6.949 12.718a1.96 1.96 0 0 0-1.083.517c-.547.515-.608 1.302-.146 1.885.179.225.483.41 1.147.695.894.383.975.426 1.057.562.251.41-.124.741-.784.691-.381-.029-.755-.178-1.193-.478-.062-.043-.085-.035-.16.056-.048.059-.199.242-.337.407l-.25.3.19.14c.531.389 1.14.587 1.808.587.688 0 1.18-.173 1.554-.547a1.38 1.38 0 0 0 .441-1.001c.025-.541-.146-.9-.565-1.188-.117-.081-.554-.288-.97-.461-.898-.373-1.084-.506-1.045-.747.051-.314.294-.435.814-.408.303.016.373.036.693.199l.355.181.286-.358.286-.357-.093-.1c-.381-.405-1.304-.669-2.005-.575m2.9.572.011.49.77.011.77.011V18h1.2v-4.198l.77-.011.77-.011.011-.49.011-.49H9.838l.011.49M15 15.4V18h1.16v-1.76h.456c.884 0 1.481-.202 1.862-.629.268-.301.369-.57.393-1.045.024-.469-.06-.814-.263-1.079-.19-.249-.267-.312-.552-.45-.42-.204-.675-.236-1.926-.236L15 12.8v2.6m2.378-1.559c.252.127.342.291.341.618-.001.314-.106.545-.307.678-.175.115-.642.197-1.012.176l-.22-.013-.011-.795-.011-.795.512.016c.445.014.536.029.708.115M20 22v1H4v-2h16v1" fill="currentColor" fill-rule="evenodd"/></svg>