<svg xmlns="http://www.w3.org/2000/svg" width="24" height="24" fill="none" viewBox="0 0 24 24"><path stroke="currentColor" fill="none" stroke-linecap="round" stroke-linejoin="round" d="M21.5 21v2.5h-18V21M3.5 10.5v-9h12l6 6v3"/><path stroke="currentColor" fill="none" stroke-linecap="round" stroke-linejoin="round" d="M15.5 1.5v6h6M23.5 10.5h-22v10h22v-10Z"/><path fill="currentColor" d="M5.769 18v-5.216H7l.512 1.848.176.72h.032l.176-.72.512-1.848H9.64V18h-.992v-1.616c0-.144.005-.323.016-.536.01-.219.024-.445.04-.68l.048-.672c.021-.213.037-.39.048-.528h-.024l-.4 1.392-.4 1.256H7.4l-.408-1.256-.376-1.392h-.024l.04.528c.021.213.04.437.056.672.016.235.029.461.04.68.01.213.016.392.016.536V18h-.976ZM10.702 18v-5.216h1.848c.378 0 .72.053 1.024.16.309.101.554.275.736.52.186.245.28.579.28 1 0 .405-.094.739-.28 1a1.685 1.685 0 0 1-.744.584c-.31.123-.648.184-1.016.184h-.672V18h-1.176Zm1.176-2.704h.6c.325 0 .565-.072.72-.216.16-.144.24-.35.24-.616 0-.277-.083-.47-.248-.576-.16-.112-.398-.168-.712-.168h-.6v1.576ZM17.13 18.096a3.07 3.07 0 0 1-.792-.096 2.484 2.484 0 0 1-.632-.248 1.859 1.859 0 0 1-.472-.376l.544-.744c.171.15.363.272.576.368a1.72 1.72 0 0 0 1.152.08.755.755 0 0 0 .336-.208c.086-.09.128-.2.128-.328a.573.573 0 0 0-.136-.384c-.09-.112-.248-.197-.472-.256-.218-.059-.528-.088-.928-.088v-.832c.336 0 .603-.03.8-.088.198-.059.342-.139.432-.24a.512.512 0 0 0 .136-.352.48.48 0 0 0-.2-.416c-.133-.096-.317-.144-.552-.144-.197 0-.384.04-.56.12-.17.075-.344.184-.52.328l-.592-.72c.251-.203.52-.36.808-.472.288-.117.595-.176.92-.176.368 0 .694.056.976.168.283.107.502.264.656.472.16.203.24.453.24.752a.961.961 0 0 1-.256.672c-.17.187-.408.339-.712.456v.032c.214.059.406.144.576.256.176.107.312.243.408.408.102.165.152.357.152.576 0 .315-.093.584-.28.808a1.796 1.796 0 0 1-.736.504 2.872 2.872 0 0 1-1 .168Z"/></svg>