<svg xmlns="http://www.w3.org/2000/svg" width="16" height="16" fill="none" viewBox="0 0 16 16">
  <path fill="#1D1D1D" d="M13.178 13.096c-.272 0-.518-.032-.736-.096a2.215 2.215 0 0 1-.568-.256 2.217 2.217 0 0 1-.424-.368l.44-.592c.154.155.33.288.528.4.197.107.424.16.68.16.277 0 .501-.067.672-.2a.684.684 0 0 0 .264-.568.768.768 0 0 0-.136-.456c-.085-.128-.237-.227-.456-.296-.213-.075-.515-.112-.904-.112v-.672c.336 0 .6-.035.792-.104.192-.075.328-.17.408-.288a.724.724 0 0 0 .128-.424c0-.213-.067-.379-.2-.496-.133-.123-.318-.184-.552-.184-.198 0-.379.045-.544.136-.165.085-.325.2-.48.344l-.472-.568c.218-.192.453-.347.704-.464a1.92 1.92 0 0 1 .824-.176c.325 0 .61.053.856.16.245.101.437.253.576.456.144.197.216.44.216.728 0 .283-.08.52-.24.712a1.56 1.56 0 0 1-.648.456v.032a1.7 1.7 0 0 1 .536.248c.16.112.285.253.376.424.096.17.144.368.144.592 0 .31-.083.576-.248.8-.16.219-.376.387-.648.504a2.272 2.272 0 0 1-.888.168ZM7.266 13V7.768h1.648c.389 0 .736.05 1.04.152.304.101.544.27.72.504.176.235.264.555.264.96 0 .384-.088.701-.264.952-.171.25-.408.437-.712.56a2.653 2.653 0 0 1-1.016.184h-.752V13h-.928Zm.928-2.664h.68c.389 0 .677-.08.864-.24.192-.16.288-.397.288-.712 0-.33-.102-.557-.304-.68-.198-.128-.491-.192-.88-.192h-.648v1.824ZM1.305 13V7.768h1.112l.896 2.56a11.852 11.852 0 0 1 .304 1.024h.032c.048-.192.093-.368.136-.528.048-.165.098-.33.152-.496l.896-2.56h1.104V13H5.08v-2.384c0-.165.005-.355.016-.568a23.178 23.178 0 0 1 .12-1.192h-.032l-.416 1.328-.848 2.336h-.624l-.848-2.336-.4-1.328h-.032c.021.16.04.347.056.56.021.208.037.419.048.632.016.213.024.403.024.568V13h-.84Z"/>
  <path fill="#1D1D1D" fill-rule="evenodd" d="M1 0h8.707L15 5.293V7h-1V6H9V1H2v6H1V0Zm9 1.707L13.293 5H10V1.707ZM15 14v2H1v-2h1v1h12v-1h1Z" clip-rule="evenodd"/>
</svg>
