<svg xmlns="http://www.w3.org/2000/svg" width="16" height="16" fill="currentColor" viewBox="0 0 16 16">
  <path d="m12.82 13-1.6-5.232h.984l.704 2.632c.053.197.104.39.152.576l.144.552.168.568h.032a117.099 117.099 0 0 0 .296-1.12c.054-.187.107-.379.16-.576l.76-2.632h.952L13.916 13H12.82ZM8.876 13.096a2.2 2.2 0 0 1-1.2-.328 2.284 2.284 0 0 1-.816-.944c-.192-.41-.288-.899-.288-1.464s.096-1.048.288-1.448c.197-.4.469-.707.816-.92.346-.213.746-.32 1.2-.32.458 0 .861.107 1.208.32.346.213.616.52.808.92.197.4.296.883.296 1.448s-.099 1.053-.296 1.464a2.23 2.23 0 0 1-.808.944c-.347.219-.75.328-1.208.328Zm0-.808c.277 0 .514-.077.712-.232.202-.16.36-.384.472-.672.112-.293.168-.635.168-1.024 0-.39-.056-.723-.168-1a1.436 1.436 0 0 0-.472-.648 1.12 1.12 0 0 0-.712-.232c-.272 0-.51.077-.712.232-.203.15-.36.365-.472.648-.112.277-.168.61-.168 1s.056.73.168 1.024c.112.288.269.512.472.672.202.155.44.232.712.232ZM1.123 13V7.768h1.112l.896 2.56a11.838 11.838 0 0 1 .304 1.024h.032c.048-.192.093-.368.136-.528.048-.165.098-.33.152-.496l.896-2.56h1.104V13h-.856v-2.384c0-.165.005-.355.016-.568a23.217 23.217 0 0 1 .12-1.192h-.032l-.416 1.328-.848 2.336h-.624l-.848-2.336-.4-1.328h-.032c.021.16.04.347.056.56.021.208.037.419.048.632.016.213.024.403.024.568V13h-.84Z"/>
  <path fill-rule="evenodd" d="M1 0h8.707L15 5.293V7h-1V6H9V1H2v6H1V0Zm9 1.707L13.293 5H10V1.707ZM15 14v2H1v-2h1v1h12v-1h1Z" clip-rule="evenodd"/>
</svg>
