<svg xmlns="http://www.w3.org/2000/svg" width="16" height="16" fill="currentColor" viewBox="0 0 16 16">
  <path d="M12.333 13.096c-.363 0-.707-.067-1.032-.2a2.697 2.697 0 0 1-.856-.568l.504-.608c.186.181.402.323.648.424.25.096.501.144.752.144.298 0 .525-.061.68-.184a.592.592 0 0 0 .232-.488.529.529 0 0 0-.104-.344.848.848 0 0 0-.288-.232 3.898 3.898 0 0 0-.416-.192l-.72-.312a2.845 2.845 0 0 1-.504-.288 1.612 1.612 0 0 1-.4-.448 1.326 1.326 0 0 1-.152-.656c0-.277.074-.525.224-.744.154-.224.362-.4.624-.528.266-.133.57-.2.912-.2.314 0 .61.059.888.176.282.112.522.267.72.464l-.488.608a2.066 2.066 0 0 0-.536-.32 1.467 1.467 0 0 0-.584-.12c-.246 0-.446.056-.6.168a.52.52 0 0 0-.224.448c0 .133.037.245.112.336.08.085.184.16.312.224.133.059.269.117.408.176l.712.296c.208.09.392.197.552.32.16.123.282.272.368.448.09.176.136.392.136.648 0 .283-.075.541-.224.776-.15.235-.366.424-.648.568-.278.139-.614.208-1.008.208ZM8.098 13.096c-.362 0-.706-.067-1.032-.2a2.697 2.697 0 0 1-.856-.568l.504-.608c.187.181.403.323.648.424.25.096.502.144.752.144.299 0 .526-.061.68-.184a.592.592 0 0 0 .232-.488.53.53 0 0 0-.104-.344.848.848 0 0 0-.288-.232 3.9 3.9 0 0 0-.416-.192l-.72-.312a2.84 2.84 0 0 1-.504-.288 1.611 1.611 0 0 1-.4-.448 1.326 1.326 0 0 1-.152-.656c0-.277.075-.525.224-.744.155-.224.363-.4.624-.528.267-.133.57-.2.912-.2.315 0 .61.059.888.176.283.112.523.267.72.464l-.488.608a2.068 2.068 0 0 0-.536-.32 1.468 1.468 0 0 0-.584-.12c-.245 0-.445.056-.6.168a.52.52 0 0 0-.224.448c0 .133.038.245.112.336.08.085.184.16.312.224.134.059.27.117.408.176l.712.296c.208.09.392.197.552.32.16.123.283.272.368.448.09.176.136.392.136.648 0 .283-.074.541-.224.776-.15.235-.365.424-.648.568-.277.139-.613.208-1.008.208ZM4.268 13.096c-.443 0-.845-.104-1.208-.312a2.249 2.249 0 0 1-.856-.912c-.208-.405-.312-.896-.312-1.472 0-.427.061-.808.184-1.144.123-.341.293-.63.512-.864a2.3 2.3 0 0 1 1.696-.72c.33 0 .624.067.88.2.256.128.467.283.632.464l-.496.568a1.335 1.335 0 0 0-.448-.312 1.272 1.272 0 0 0-.544-.112c-.277 0-.528.077-.752.232a1.577 1.577 0 0 0-.52.656c-.128.283-.192.619-.192 1.008 0 .4.061.744.184 1.032.123.283.296.501.52.656.224.15.485.224.784.224.224 0 .424-.045.6-.136.176-.09.336-.21.48-.36l.472.552a2.235 2.235 0 0 1-.72.56 2.044 2.044 0 0 1-.896.192Z"/>
  <path fill-rule="evenodd" d="M1 0h8.707L15 5.293V7h-1V6H9V1H2v6H1V0Zm9 1.707L13.293 5H10V1.707ZM15 14v2H1v-2h1v1h12v-1h1Z" clip-rule="evenodd"/>
</svg>
