<svg xmlns="http://www.w3.org/2000/svg" width="16" height="16" fill="none" viewBox="0 0 16 16">
  <path fill="#1D1D1D" d="M12.454 13.096c-.363 0-.707-.067-1.032-.2a2.697 2.697 0 0 1-.856-.568l.504-.608c.186.181.402.323.648.424.25.096.501.144.752.144.298 0 .525-.061.68-.184a.592.592 0 0 0 .232-.488.529.529 0 0 0-.104-.344.848.848 0 0 0-.288-.232 3.898 3.898 0 0 0-.416-.192l-.72-.312a2.845 2.845 0 0 1-.504-.288 1.612 1.612 0 0 1-.4-.448 1.326 1.326 0 0 1-.152-.656c0-.277.074-.525.224-.744.154-.224.362-.4.624-.528.266-.133.57-.2.912-.2.314 0 .61.059.888.176.282.112.522.267.72.464l-.488.608a2.066 2.066 0 0 0-.536-.32 1.467 1.467 0 0 0-.584-.12c-.246 0-.446.056-.6.168a.52.52 0 0 0-.224.448c0 .133.037.245.112.336.08.085.184.16.312.224.133.059.27.117.408.176l.712.296c.208.09.392.197.552.32.16.123.282.272.368.448.09.176.136.392.136.648 0 .283-.075.541-.224.776-.15.235-.366.424-.648.568-.278.139-.614.208-1.008.208ZM6.348 13V7.768h1.648c.389 0 .736.05 1.04.152.304.101.544.27.72.504.176.235.264.555.264.96 0 .384-.088.701-.264.952-.171.25-.408.437-.712.56a2.653 2.653 0 0 1-1.016.184h-.752V13h-.928Zm.928-2.664h.68c.389 0 .677-.08.864-.24.192-.16.288-.397.288-.712 0-.33-.102-.557-.304-.68-.198-.128-.491-.192-.88-.192h-.648v1.824ZM2.043 13V7.768h3.152v.784H2.97v1.336h1.88v.784H2.97v1.544h2.304V13H2.043Z"/>
  <path fill="#1D1D1D" fill-rule="evenodd" d="M1 0h8.707L15 5.293V7h-1V6H9V1H2v6H1V0Zm9 1.707L13.293 5H10V1.707ZM15 14v2H1v-2h1v1h12v-1h1Z" clip-rule="evenodd"/>
</svg>
