<svg xmlns="http://www.w3.org/2000/svg" width="16" height="16" fill="none" viewBox="0 0 16 16">
  <path stroke="currentColor" stroke-linecap="round" stroke-linejoin="round" d="M14.5 12.5v3h-13v-2M1.5 7V.5h8l5 5v1"/>
  <path stroke="currentColor" stroke-linecap="round" stroke-linejoin="round" d="M9.5.5v5h5"/>
  <path fill="currentColor" d="M3.549 13.096c-.443 0-.846-.099-1.208-.296a2.189 2.189 0 0 1-.864-.896c-.214-.4-.32-.893-.32-1.48 0-.581.106-1.075.32-1.48.213-.41.501-.723.864-.936.368-.213.776-.32 1.224-.32.352 0 .653.07.904.208.25.133.458.285.624.456l-.648.728a1.494 1.494 0 0 0-.368-.272 1.107 1.107 0 0 0-.512-.104.976.976 0 0 0-.608.208 1.349 1.349 0 0 0-.432.576c-.102.25-.152.55-.152.896 0 .357.045.664.136.92.09.25.229.443.416.576.186.133.416.2.688.2.101 0 .197-.013.288-.04a.497.497 0 0 0 .224-.12v-.896h-.76v-.96H5.18v2.4c-.176.165-.411.312-.704.44a2.259 2.259 0 0 1-.928.192ZM6.194 13v-.992H7.41V8.776H6.194v-.992H9.81v.992H8.594v3.232H9.81V13H6.194ZM11.238 13V7.784h3.464v.992h-2.288v1.208h1.952v.992h-1.952V13h-1.176Z"/>
</svg>
