<svg xmlns="http://www.w3.org/2000/svg" width="24" height="24" fill="none" viewBox="0 0 24 24"><path stroke="currentColor" fill="none" stroke-linecap="round" stroke-linejoin="round" d="M21.5 21v2.5h-18V21M3.5 10.5v-9h12l6 6v3"/><path stroke="currentColor" fill="none" stroke-linecap="round" stroke-linejoin="round" d="M15.5 1.5v6h6M23.5 10.5h-22v10h22v-10Z"/><path fill="currentColor" d="M5.769 18v-5.216H7l.512 1.848.176.72h.032l.176-.72.512-1.848H9.64V18h-.992v-1.616c0-.144.005-.323.016-.536.01-.219.024-.445.04-.68l.048-.672c.021-.213.037-.39.048-.528h-.024l-.4 1.392-.4 1.256H7.4l-.408-1.256-.376-1.392h-.024l.04.528c.021.213.04.437.056.672.016.235.029.461.04.68.01.213.016.392.016.536V18h-.976ZM10.702 18v-5.216h1.848c.378 0 .72.053 1.024.16.309.101.554.275.736.52.186.245.28.579.28 1 0 .405-.094.739-.28 1a1.685 1.685 0 0 1-.744.584c-.31.123-.648.184-1.016.184h-.672V18h-1.176Zm1.176-2.704h.6c.325 0 .565-.072.72-.216.16-.144.24-.35.24-.616 0-.277-.083-.47-.248-.576-.16-.112-.398-.168-.712-.168h-.6v1.576ZM17.642 18.096c-.442 0-.845-.099-1.208-.296a2.19 2.19 0 0 1-.864-.896c-.213-.4-.32-.893-.32-1.48 0-.581.107-1.075.32-1.48.214-.41.502-.723.864-.936.368-.213.776-.32 1.224-.32.352 0 .654.07.904.208.251.133.46.285.624.456l-.648.728a1.492 1.492 0 0 0-.368-.272 1.107 1.107 0 0 0-.512-.104.976.976 0 0 0-.608.208 1.349 1.349 0 0 0-.432.576c-.1.25-.152.55-.152.896 0 .357.046.664.136.92.091.25.23.443.416.576.187.133.416.2.688.2.102 0 .198-.013.288-.04a.5.5 0 0 0 .224-.12v-.896h-.76v-.96h1.816v2.4c-.176.165-.41.312-.704.44a2.259 2.259 0 0 1-.928.192Z"/></svg>