<svg xmlns="http://www.w3.org/2000/svg" width="24" height="24" fill="none"><path d="M3.252 1.078C2.984 1.242 3 .948 3 5.698V10h-.81c-.733 0-.822.008-.938.078-.27.165-.252-.215-.252 5.43 0 5 .002 5.115.078 5.24.142.232.229.252 1.12.252H3v1.31c0 1.229.005 1.318.078 1.438.167.274-.638.252 9.422.252s9.255.022 9.422-.252c.073-.12.078-.209.078-1.438V21h.81c.733 0 .822-.008.938-.078.27-.165.252.214.252-5.422s.018-5.257-.252-5.422c-.116-.07-.205-.078-.938-.078H22V7.301L18.85 4.15 15.699 1H9.54c-6.039 0-6.163.002-6.288.078M15 4.81c0 2.716.003 2.814.078 2.938.161.263.028.252 3.12.252H21v2H4V2h11v2.81m3.16.05L20.3 7H16V4.86c0-1.177.005-2.14.01-2.14.006 0 .973.963 2.15 2.14M23 15.5V20H2v-9h21v4.5m-5.611-2.776c-.273.04-.626.176-.935.362-.457.274-.851.839-1.021 1.462-.122.445-.122 1.299 0 1.744.241.884.854 1.513 1.682 1.727.302.078.901.087 1.185.019.331-.08.688-.27.93-.496l.229-.212-.313-.345a4.141 4.141 0 0 0-.334-.345.806.806 0 0 0-.158.12 1.188 1.188 0 0 1-1.139.266c-.626-.182-.956-.742-.955-1.62.001-.643.154-1.087.475-1.376.237-.215.393-.281.711-.301.33-.022.556.04.823.223l.171.118.318-.361.319-.36-.159-.134c-.255-.216-.76-.448-1.078-.493a2.018 2.018 0 0 0-.751.002m-10.409.125c-.07.195-1.58 5.081-1.58 5.112 0 .024.231.039.59.039h.59l.158-.62.158-.62h1.576l.152.62.153.62h1.254l-.176-.57c-.096-.313-.459-1.479-.806-2.59l-.63-2.02-.71-.011c-.547-.008-.715.001-.729.04m4.799 0c-.01.028-.376 1.198-.812 2.601L10.173 18h1.21l.153-.62.152-.62h1.584l.152.62.153.62H14.83l-.333-1.07-.806-2.59-.474-1.52-.709-.011c-.546-.008-.714.001-.729.04m-3.8 1.981.252 1.01H7.14l.267-1.07c.309-1.24.277-1.131.301-1.03l.271 1.09m4.791-.04.26 1.05H11.935l.252-1.01c.139-.555.253-1.045.253-1.088 0-.202.089.079.33 1.048M21 22v1H4v-2h17v1" fill-rule="evenodd" fill="#000"/></svg>