<svg xmlns="http://www.w3.org/2000/svg" width="24" height="24" fill="none" viewBox="0 0 24 24"><path stroke="currentColor" stroke-linecap="round" stroke-linejoin="round" d="M21.5 21v2.5h-18V21M3.5 10.5v-9h12l6 6v3"/><path stroke="currentColor" stroke-linecap="round" stroke-linejoin="round" d="M15.5 1.5v6h6M23.5 10.5h-22v10h22v-10Z"/><path fill="currentColor" d="M5.865 18v-5.216h1.848c.368 0 .704.05 1.008.152.304.096.546.264.728.504.186.235.28.557.28.968 0 .4-.094.725-.28.976-.182.25-.424.437-.728.56-.304.117-.64.176-1.008.176H7.04V18H5.865Zm1.176-2.816h.576c.31 0 .544-.064.704-.192.165-.133.248-.328.248-.584 0-.256-.083-.435-.248-.536-.16-.101-.395-.152-.704-.152H7.04v1.464Zm.456.632.816-.76L9.977 18h-1.32l-1.16-2.184ZM10.174 18l1.624-5.216h1.408L14.83 18h-1.248l-.672-2.64a92.658 92.658 0 0 0-.208-.832 48.88 48.88 0 0 1-.208-.848h-.032l-.2.848c-.07.293-.139.57-.208.832l-.68 2.64h-1.2Zm1.072-1.24v-.92h2.496v.92h-2.496ZM15.459 18v-5.216h1.848c.367 0 .704.05 1.008.152.303.096.546.264.727.504.187.235.28.557.28.968 0 .4-.093.725-.28.976-.18.25-.424.437-.728.56-.303.117-.64.176-1.008.176h-.672V18H15.46Zm1.175-2.816h.576c.31 0 .544-.064.704-.192.166-.133.248-.328.248-.584 0-.256-.082-.435-.247-.536-.16-.101-.395-.152-.704-.152h-.576v1.464Zm.456.632.817-.76L19.57 18h-1.32l-1.16-2.184Z"/></svg>