<svg xmlns="http://www.w3.org/2000/svg" width="16" height="16" fill="none" viewBox="0 0 16 16"><path stroke="currentColor" stroke-linecap="round" stroke-linejoin="round" d="M14.5 14v1.5h-13v-1M1.5 7.5v-7h8l5 5v1"/><path stroke="currentColor" stroke-linecap="round" stroke-linejoin="round" d="M9.5.5v5h5"/><path fill="currentColor" d="M.877 13 2.5 7.784h1.408L5.533 13H4.285l-.672-2.64a94.926 94.926 0 0 0-.208-.832 48.097 48.097 0 0 1-.208-.848h-.032l-.2.848c-.07.293-.139.57-.208.832L2.077 13h-1.2Zm1.072-1.24v-.92h2.496v.92H1.949ZM5.674 13l1.624-5.216h1.408L10.33 13H9.082l-.672-2.64a94.926 94.926 0 0 0-.208-.832 48.186 48.186 0 0 1-.208-.848h-.032l-.2.848c-.07.293-.14.57-.208.832L6.874 13h-1.2Zm1.072-1.24v-.92h2.496v.92H6.746ZM13.246 13.096a2.58 2.58 0 0 1-.928-.168 2.209 2.209 0 0 1-.768-.504 2.45 2.45 0 0 1-.528-.84 3.245 3.245 0 0 1-.192-1.16c0-.576.11-1.067.328-1.472.224-.41.523-.723.896-.936.38-.219.8-.328 1.264-.328.331 0 .63.07.896.208.267.133.488.285.664.456l-.648.728a1.364 1.364 0 0 0-.408-.272 1.15 1.15 0 0 0-.504-.104c-.245 0-.464.07-.656.208a1.35 1.35 0 0 0-.456.576c-.112.25-.168.55-.168.896 0 .357.056.664.168.92.112.25.267.443.464.576.203.133.435.2.696.2.192 0 .366-.043.52-.128a1.68 1.68 0 0 0 .424-.336l.648.712c-.213.25-.464.443-.752.576a2.338 2.338 0 0 1-.96.192Z"/></svg>