<svg xmlns="http://www.w3.org/2000/svg" width="16" height="16" fill="currentColor">
  <path d="M10.266 13V7.768h3.16v.784h-2.232v1.48h1.904v.784h-1.904V13h-.928ZM8.008 13V7.768h.928V13h-.928ZM5.176 13.096c-.469 0-.89-.104-1.264-.312a2.2 2.2 0 0 1-.88-.912c-.213-.405-.32-.896-.32-1.472 0-.427.062-.808.184-1.144.128-.336.304-.621.528-.856.23-.24.494-.421.792-.544.299-.123.622-.184.968-.184.374 0 .691.067.952.2.262.133.472.288.632.464l-.496.568a1.41 1.41 0 0 0-1.056-.424c-.309 0-.581.077-.816.232-.234.15-.416.365-.544.648-.128.283-.192.621-.192 1.016s.062.736.184 1.024c.123.288.302.51.536.664.24.15.534.224.88.224.15 0 .291-.019.424-.056a.914.914 0 0 0 .328-.176v-1.128h-.992v-.76h1.824v2.304c-.176.176-.41.325-.704.448-.288.117-.61.176-.968.176Z"/>
  <path fill-rule="evenodd" d="M1 0h8.707L15 5.293V7h-1V6H9V1H2v7H1V0Zm9 1.707L13.293 5H10V1.707ZM15 12v4H1v-2h1v1h12v-3h1Z" clip-rule="evenodd"/>
</svg>
