<svg xmlns="http://www.w3.org/2000/svg" width="16" height="16" fill="currentColor">
  <path d="m11.145 13 1.116-2.022-1.044-1.902h.774l.432.87c.052.088.1.18.144.276.044.096.096.204.156.324h.024l.132-.324c.044-.096.088-.188.132-.276l.414-.87h.738l-1.044 1.932L14.235 13h-.774l-.48-.924a21.644 21.644 0 0 0-.156-.306 11.996 11.996 0 0 0-.162-.336h-.024c-.048.12-.096.232-.144.336l-.144.306-.468.924h-.738ZM9.442 13.072c-.272 0-.53-.05-.774-.15-.24-.1-.454-.242-.642-.426l.378-.456c.14.136.302.242.486.318.188.072.376.108.564.108.224 0 .394-.046.51-.138a.444.444 0 0 0 .174-.366.397.397 0 0 0-.078-.258.637.637 0 0 0-.216-.174 2.926 2.926 0 0 0-.312-.144l-.54-.234a2.127 2.127 0 0 1-.378-.216 1.208 1.208 0 0 1-.3-.336.994.994 0 0 1-.114-.492c0-.208.056-.394.168-.558.116-.168.272-.3.468-.396.2-.1.428-.15.684-.15.236 0 .458.044.666.132.212.084.392.2.54.348l-.366.456a1.55 1.55 0 0 0-.402-.24 1.1 1.1 0 0 0-.438-.09.749.749 0 0 0-.45.126.39.39 0 0 0-.168.336c0 .1.028.184.084.252.06.064.138.12.234.168l.306.132.534.222c.156.068.294.148.414.24a.93.93 0 0 1 .276.336c.068.132.102.294.102.486 0 .212-.056.406-.168.582a1.21 1.21 0 0 1-.486.426c-.208.104-.46.156-.756.156ZM5.43 13V9.076h.697v3.336h1.632V13H5.43ZM1.765 13l1.116-2.022-1.044-1.902h.774l.432.87c.052.088.1.18.144.276.044.096.096.204.156.324h.024l.132-.324c.044-.096.088-.188.132-.276l.414-.87h.738l-1.044 1.932L4.855 13H4.08l-.48-.924a21.644 21.644 0 0 0-.156-.306 11.996 11.996 0 0 0-.162-.336h-.024c-.048.12-.096.232-.144.336l-.144.306-.468.924h-.738Z"/>
  <path fill-rule="evenodd" d="M1 0h8.707L15 5.293V8h-1V6H9V1H2v7H1V0Zm9 1.707L13.293 5H10V1.707ZM15 14v2H1v-2h1v1h12v-1h1Z" clip-rule="evenodd"/>
</svg>
