<svg xmlns="http://www.w3.org/2000/svg" width="16" height="16" fill="none" viewBox="0 0 16 16"><path stroke="currentColor" fill="none" stroke-linecap="round" stroke-linejoin="round" d="M14.5 14v1.5h-13V14"/><path stroke="currentColor" fill="none" stroke-linecap="round" stroke-linejoin="round" d="M1.5 14.5V.5h8l5 5v9"/><path stroke="currentColor" fill="none" stroke-linecap="round" stroke-linejoin="round" d="M9.5.5v5h5"/><path fill="currentColor" d="M5.387 13.096c-.288 0-.59-.064-.904-.192-.31-.128-.579-.352-.808-.672l.68-.728c.15.187.31.33.48.432.17.096.341.144.512.144.267 0 .467-.07.6-.208.139-.139.208-.387.208-.744v-2.36h-2.04v-.984h3.216v3.44c0 .341-.064.653-.192.936-.123.283-.325.51-.608.68-.277.17-.659.256-1.144.256ZM10.384 13.096c-.352 0-.701-.064-1.048-.192a3.055 3.055 0 0 1-.936-.56l.68-.808c.197.16.413.29.648.392.24.101.485.152.736.152.25 0 .435-.043.552-.128a.385.385 0 0 0 .184-.328.409.409 0 0 0-.096-.288.763.763 0 0 0-.28-.192 9.977 9.977 0 0 0-.432-.192l-.672-.288a2.448 2.448 0 0 1-.544-.296 1.57 1.57 0 0 1-.416-.464 1.372 1.372 0 0 1-.152-.664c0-.288.08-.547.24-.776a1.74 1.74 0 0 1 .672-.56 2.208 2.208 0 0 1 1-.216c.315 0 .624.059.928.176.304.117.573.288.808.512l-.6.744a2.324 2.324 0 0 0-.544-.304 1.721 1.721 0 0 0-.656-.112.85.85 0 0 0-.472.12.394.394 0 0 0-.184.352c0 .101.037.187.112.256.075.07.176.13.304.184.128.053.275.112.44.176l.632.272c.235.085.435.192.6.32.165.123.293.275.384.456.09.181.136.395.136.64 0 .288-.08.555-.24.8a1.642 1.642 0 0 1-.688.592c-.299.15-.664.224-1.096.224Z"/></svg>