<svg xmlns="http://www.w3.org/2000/svg" width="24" height="24" fill="none" viewBox="0 0 24 24"><path stroke="currentColor" stroke-linecap="round" stroke-linejoin="round" d="M21.5 21v2.5h-18V21M3.5 10.5v-9h12l6 6v3"/><path stroke="currentColor" stroke-linecap="round" stroke-linejoin="round" d="M15.5 1.5v6h6M23.5 10.5h-22v10h22v-10Z"/><path fill="currentColor" d="m3.05 18 1.52-2.68-1.432-2.536h1.32l.504.984c.059.117.12.245.184.384s.136.29.216.456h.032c.059-.165.118-.317.176-.456.059-.139.118-.267.176-.384l.464-.984h1.264l-1.432 2.592L7.562 18H6.25l-.568-1.064a28.4 28.4 0 0 0-.208-.408l-.208-.448h-.032c-.064.16-.128.31-.192.448-.064.133-.128.27-.192.408L4.306 18H3.05ZM8.56 18v-5.216h1.175v4.224h2.32V18H8.56ZM14.884 18.096c-.352 0-.701-.064-1.048-.192a3.057 3.057 0 0 1-.936-.56l.68-.808c.197.16.413.29.648.392.24.101.485.152.736.152.25 0 .435-.043.552-.128a.385.385 0 0 0 .184-.328.408.408 0 0 0-.096-.288.76.76 0 0 0-.28-.192 9.738 9.738 0 0 0-.432-.192l-.672-.288a2.452 2.452 0 0 1-.544-.296 1.57 1.57 0 0 1-.416-.464 1.372 1.372 0 0 1-.152-.664c0-.288.08-.547.24-.776a1.74 1.74 0 0 1 .672-.56 2.208 2.208 0 0 1 1-.216c.315 0 .624.059.928.176.304.117.573.288.808.512l-.6.744a2.324 2.324 0 0 0-.544-.304 1.72 1.72 0 0 0-.656-.112.85.85 0 0 0-.472.12.394.394 0 0 0-.184.352c0 .101.037.187.112.256.075.07.176.13.304.184.128.053.275.112.44.176l.632.272a2.2 2.2 0 0 1 .6.32c.165.123.293.275.384.456.09.181.136.395.136.64 0 .288-.08.555-.24.8a1.643 1.643 0 0 1-.688.592c-.299.15-.664.224-1.096.224ZM17.44 18l1.52-2.68-1.431-2.536h1.32l.504.984c.059.117.12.245.184.384s.136.29.216.456h.032c.059-.165.117-.317.176-.456.059-.139.117-.267.176-.384l.464-.984h1.264l-1.432 2.592L21.953 18H20.64l-.568-1.064c-.07-.139-.139-.275-.208-.408a110.45 110.45 0 0 0-.208-.448h-.032c-.064.16-.128.31-.192.448-.064.133-.128.27-.192.408L18.697 18H17.44Z"/></svg>