<svg xmlns="http://www.w3.org/2000/svg" width="16" height="16" fill="currentColor" viewBox="0 0 16 16">
  <path d="M11.8 13V7.768h.929v4.448h2.176V13H11.8ZM5.84 13V7.768h1.112l.896 2.56a11.825 11.825 0 0 1 .304 1.024h.032c.048-.192.093-.368.136-.528.048-.165.098-.33.152-.496l.896-2.56h1.104V13h-.856v-2.384c0-.165.005-.355.016-.568a23.178 23.178 0 0 1 .12-1.192H9.72l-.416 1.328-.848 2.336h-.624l-.848-2.336-.4-1.328h-.032c.021.16.04.347.056.56.021.208.037.419.048.632.016.213.024.403.024.568V13h-.84ZM.952 13l1.488-2.696-1.392-2.536H2.08l.576 1.16c.069.117.133.24.192.368.058.128.128.272.208.432h.032c.064-.16.122-.304.176-.432.058-.128.117-.25.176-.368l.552-1.16h.984l-1.392 2.576L5.072 13H4.04l-.64-1.232c-.07-.139-.139-.275-.208-.408a15.95 15.95 0 0 0-.216-.448h-.032c-.064.16-.128.31-.192.448-.064.133-.128.27-.192.408L1.936 13H.952Z"/>
  <path fill-rule="evenodd" d="M1 0h8.707L15 5.293V7h-1V6H9V1H2v6H1V0Zm9 1.707L13.293 5H10V1.707ZM15 14v2H1v-2h1v1h12v-1h1Z" clip-rule="evenodd"/>
</svg>
