<svg xmlns="http://www.w3.org/2000/svg" width="24" height="24" fill="none" viewBox="0 0 24 24">
  <path stroke="currentColor" stroke-linecap="round" stroke-linejoin="round" d="M21.5 21v2.5h-18V21M3.5 10.5v-9h12l6 6v3"/>
  <path stroke="currentColor" stroke-linecap="round" stroke-linejoin="round" d="M15.5 1.5v6h6M23.5 10.5h-22v10h22v-10Z"/>
  <path fill="currentColor" d="M3.466 18v-5.216h1.44c.507 0 .947.09 1.32.272.379.181.672.464.88.848.208.379.312.867.312 1.464s-.104 1.09-.312 1.48a1.99 1.99 0 0 1-.856.872c-.368.187-.792.28-1.272.28H3.466Zm1.184-.952h.192c.278 0 .518-.053.72-.16.203-.107.36-.283.472-.528.118-.245.176-.576.176-.992 0-.416-.058-.741-.176-.976a.994.994 0 0 0-.472-.504 1.593 1.593 0 0 0-.72-.152H4.65v3.312ZM10.103 18.096c-.416 0-.781-.104-1.096-.312-.315-.208-.56-.512-.736-.912-.176-.405-.264-.907-.264-1.504 0-.581.088-1.07.264-1.464.176-.4.421-.701.736-.904.315-.208.68-.312 1.096-.312.416 0 .781.104 1.096.312.315.203.56.504.736.904.176.395.264.883.264 1.464 0 .597-.088 1.099-.264 1.504-.176.4-.421.704-.736.912-.315.208-.68.312-1.096.312Zm0-1.016a.659.659 0 0 0 .472-.192c.134-.133.235-.325.304-.576.075-.256.112-.57.112-.944 0-.363-.037-.667-.112-.912-.07-.245-.17-.432-.304-.56a.659.659 0 0 0-.472-.192.659.659 0 0 0-.472.192c-.133.128-.237.315-.312.56-.07.245-.104.55-.104.912 0 .373.035.688.104.944.075.25.179.443.312.576.133.128.29.192.472.192ZM15.348 18.096a2.58 2.58 0 0 1-.928-.168 2.209 2.209 0 0 1-.768-.504 2.45 2.45 0 0 1-.528-.84 3.245 3.245 0 0 1-.192-1.16c0-.576.11-1.067.328-1.472.224-.41.523-.723.896-.936.379-.219.8-.328 1.264-.328.33 0 .63.07.896.208.267.133.488.285.664.456l-.648.728a1.367 1.367 0 0 0-.408-.272 1.15 1.15 0 0 0-.504-.104c-.245 0-.464.07-.656.208a1.35 1.35 0 0 0-.456.576c-.112.25-.168.55-.168.896 0 .357.056.664.168.92.112.25.267.443.464.576.203.133.435.2.696.2.192 0 .365-.043.52-.128a1.68 1.68 0 0 0 .424-.336l.648.712c-.213.25-.464.443-.752.576a2.338 2.338 0 0 1-.96.192ZM17.44 18l1.52-2.68-1.431-2.536h1.32l.504.984c.058.117.12.245.184.384s.136.29.216.456h.032c.058-.165.117-.317.176-.456.059-.139.117-.267.176-.384l.464-.984h1.264l-1.432 2.592L21.953 18H20.64l-.568-1.064c-.07-.139-.139-.275-.208-.408a125.99 125.99 0 0 0-.208-.448h-.032c-.064.16-.128.31-.192.448-.064.133-.128.27-.192.408L18.697 18H17.44Z"/>
</svg>
