<svg xmlns="http://www.w3.org/2000/svg" width="16" height="16" fill="none" viewBox="0 0 16 16"><path stroke="currentColor" stroke-linecap="round" stroke-linejoin="round" d="M14.5 14v1.5h-13v-1M1.5 6.5v-6h8l5 5v1"/><path stroke="currentColor" stroke-linecap="round" stroke-linejoin="round" d="M9.5.5v5h5"/><path fill="currentColor" d="M1.54 13V7.784h3.457v.992H2.725v1.048h1.928v.984H2.725v1.2h2.352V13H1.54ZM6.202 13V7.784H8.05c.378 0 .72.053 1.024.16.309.101.554.275.736.52.186.245.28.579.28 1 0 .405-.094.739-.28 1a1.684 1.684 0 0 1-.744.584c-.31.123-.648.184-1.016.184h-.672V13H6.202Zm1.176-2.704h.6c.325 0 .565-.072.72-.216.16-.144.24-.35.24-.616 0-.277-.083-.47-.248-.576-.16-.112-.398-.168-.712-.168h-.6v1.576ZM12.783 13.096c-.352 0-.702-.064-1.048-.192a3.053 3.053 0 0 1-.936-.56l.68-.808c.197.16.413.29.648.392.24.101.485.152.736.152.25 0 .434-.043.552-.128a.385.385 0 0 0 .184-.328.409.409 0 0 0-.097-.288.764.764 0 0 0-.28-.192 9.977 9.977 0 0 0-.431-.192l-.673-.288a2.446 2.446 0 0 1-.543-.296 1.569 1.569 0 0 1-.416-.464 1.371 1.371 0 0 1-.152-.664c0-.288.08-.547.24-.776a1.74 1.74 0 0 1 .671-.56 2.208 2.208 0 0 1 1-.216c.315 0 .625.059.929.176.303.117.573.288.808.512l-.6.744a2.326 2.326 0 0 0-.544-.304 1.722 1.722 0 0 0-.656-.112c-.193 0-.35.04-.473.12a.394.394 0 0 0-.184.352c0 .101.038.187.112.256.075.07.176.13.304.184.128.053.275.112.44.176l.633.272c.234.085.434.192.6.32.165.123.293.275.383.456.091.181.136.395.136.64 0 .288-.08.555-.24.8a1.642 1.642 0 0 1-.688.592c-.298.15-.664.224-1.095.224Z"/></svg>