<svg xmlns="http://www.w3.org/2000/svg" width="24" height="24" fill="none"><path d="M3.252 1.078C2.984 1.242 3 .948 3 5.698V10h-.81c-.733 0-.822.008-.938.078-.27.165-.252-.215-.252 5.43 0 5 .002 5.115.078 5.24.142.232.229.252 1.12.252H3v1.31c0 1.229.005 1.318.078 1.438.167.274-.638.252 9.422.252s9.255.022 9.422-.252c.073-.12.078-.209.078-1.438V21h.81c.733 0 .822-.008.938-.078.27-.165.252.214.252-5.422s.018-5.257-.252-5.422c-.116-.07-.205-.078-.938-.078H22V7.301L18.85 4.15 15.699 1H9.54c-6.039 0-6.163.002-6.288.078M15 4.81c0 2.716.003 2.814.078 2.938.161.263.028.252 3.12.252H21v2H4V2h11v2.81m3.16.05L20.3 7H16V4.86c0-1.177.005-2.14.01-2.14.006 0 .973.963 2.15 2.14M23 15.5V20H2v-9h21v4.5m-17.12-.1V18h1.16v-1.88l.31.001h.31l.497.94.498.939h.652c.359 0 .653-.008.653-.017 0-.009-.263-.481-.584-1.049-.322-.567-.567-1.037-.546-1.044.129-.043.417-.265.542-.418.237-.289.318-.519.34-.958.035-.724-.213-1.202-.765-1.473-.422-.208-.68-.24-1.937-.24L5.88 12.8v2.6m4.48-2.1v.5h1.56V18h1.16v-4.2h1.56v-1h-4.28v.5m5.36 2.1V18h1.2v-1.999l.97-.01.97-.011.011-.49.011-.49H16.92v-1.2h2.28v-1h-3.48v2.6m-7.513-1.571c.221.099.316.229.343.469.028.252-.017.44-.14.587-.175.207-.404.284-.919.306l-.451.02V13.71l.49.018c.385.013.53.035.677.101M21 22v1H4v-2h17v1" fill-rule="evenodd" fill="#000"/></svg>