<svg xmlns="http://www.w3.org/2000/svg" width="16" height="16" fill="none" viewBox="0 0 16 16"><path stroke="currentColor" stroke-linecap="round" stroke-linejoin="round" d="M14.5 13.5v2h-13v-1M1.5 6.5v-6h8l5 5v1"/><path stroke="currentColor" stroke-linecap="round" stroke-linejoin="round" d="M9.5.5v5h5"/><path fill="currentColor" d="M1.269 13V7.784H2.5l.512 1.848.176.72h.032l.176-.72.512-1.848H5.14V13h-.992v-1.616c0-.144.005-.323.016-.536.01-.219.024-.445.04-.68l.048-.672c.021-.213.037-.39.048-.528h-.024l-.4 1.392-.4 1.256H2.9l-.408-1.256-.376-1.392h-.024l.04.528c.021.213.04.437.056.672.016.235.029.461.04.68.01.213.016.392.016.536V13h-.976ZM8.002 13.096c-.416 0-.782-.104-1.096-.312-.315-.208-.56-.512-.736-.912-.176-.405-.264-.907-.264-1.504 0-.581.088-1.07.264-1.464.176-.4.42-.701.736-.904.314-.208.68-.312 1.096-.312.416 0 .78.104 1.096.312.314.203.56.504.736.904.176.395.264.883.264 1.464 0 .597-.088 1.099-.264 1.504-.176.4-.422.704-.736.912-.315.208-.68.312-1.096.312Zm0-1.016a.659.659 0 0 0 .472-.192c.133-.133.234-.325.304-.576.074-.256.112-.57.112-.944 0-.363-.038-.667-.112-.912-.07-.245-.171-.432-.304-.56a.659.659 0 0 0-.472-.192.659.659 0 0 0-.472.192c-.134.128-.238.315-.312.56-.07.245-.104.55-.104.912 0 .373.034.688.104.944.074.25.178.443.312.576.133.128.29.192.472.192ZM12.094 13l-1.576-5.216h1.248l.624 2.432c.08.288.15.568.208.84.064.267.134.544.208.832h.032c.086-.288.158-.565.216-.832.064-.272.134-.552.208-.84l.616-2.432h1.2L13.51 13h-1.416Z"/></svg>