<svg xmlns="http://www.w3.org/2000/svg" width="24" height="24" fill="none"><path d="M3.252 1.078C2.984 1.242 3 .948 3 5.698V10h-.81c-.733 0-.822.008-.938.078-.27.165-.252-.215-.252 5.43 0 5 .002 5.115.078 5.24.142.232.229.252 1.12.252H3v1.31c0 1.229.005 1.318.078 1.438.167.274-.638.252 9.422.252s9.255.022 9.422-.252c.073-.12.078-.209.078-1.438V21h.81c.733 0 .822-.008.938-.078.27-.165.252.214.252-5.422s.018-5.257-.252-5.422c-.116-.07-.205-.078-.938-.078H22V7.301L18.85 4.15 15.699 1H9.54c-6.039 0-6.163.002-6.288.078M15 4.81c0 2.716.003 2.814.078 2.938.161.263.028.252 3.12.252H21v2H4V2h11v2.81m3.16.05L20.3 7H16V4.86c0-1.177.005-2.14.01-2.14.006 0 .973.963 2.15 2.14M23 15.5V20H2v-9h21v4.5M9.72 12.722c-.328.057-.771.291-1.019.539-.25.25-.462.653-.587 1.119-.126.469-.128 1.492-.004 1.989.279 1.113.978 1.715 1.99 1.715.616 0 1.039-.178 1.431-.601.259-.28.433-.614.555-1.063.074-.272.087-.429.088-1.04.001-.823-.059-1.129-.316-1.618-.185-.353-.362-.557-.643-.744-.398-.263-.994-.381-1.495-.296m5.296-.002c-.953.14-1.718.844-1.982 1.828-.125.465-.126 1.27-.001 1.731.245.903.845 1.524 1.682 1.74.302.078.901.087 1.185.019.331-.08.688-.27.93-.496l.229-.212-.313-.345a4.141 4.141 0 0 0-.334-.345.806.806 0 0 0-.158.12c-.262.23-.444.299-.794.299-.27.001-.355-.016-.547-.111-.507-.249-.753-.761-.753-1.566.001-.579.121-.958.406-1.282.209-.239.441-.35.775-.371.336-.022.56.039.83.225l.174.12.297-.341c.164-.188.303-.356.31-.374.02-.053-.353-.316-.654-.461a2.145 2.145 0 0 0-1.282-.178M3.48 15.4V18h.902c1.038 0 1.361-.047 1.801-.26.717-.348 1.122-1.006 1.212-1.97.123-1.304-.297-2.277-1.164-2.702-.454-.222-.765-.268-1.829-.268H3.48v2.6m14.08-2.577c0 .013.315.58.7 1.261l.699 1.237-.744 1.31-.762 1.339c-.01.017.268.03.617.03h.635l.448-.91c.246-.501.447-.933.447-.96 0-.13.085.006.39.623.182.367.403.797.491.957l.162.29H21.956l-.343-.59-.76-1.314-.417-.724.702-1.268a62.16 62.16 0 0 0 .702-1.286c0-.01-.28-.018-.622-.018h-.623l-.291.61a19.726 19.726 0 0 0-.525 1.184c-.007.007-.216-.394-.464-.89l-.452-.904h-.651c-.359 0-.652.01-.652.023m-7.168.953c.395.207.581.722.58 1.604-.002 1.018-.278 1.623-.771 1.689-.441.059-.8-.312-.923-.956-.064-.336-.05-1.223.024-1.55.074-.323.25-.615.454-.752a.73.73 0 0 1 .636-.035m-4.846.116c.424.217.611.592.644 1.291.056 1.204-.34 1.794-1.24 1.849l-.31.018v-3.3l.35.018c.276.014.393.04.556.124M21 22v1H4v-2h17v1" fill-rule="evenodd" fill="#000"/></svg>