<svg xmlns="http://www.w3.org/2000/svg" width="16" height="16" fill="none" viewBox="0 0 16 16">
  <path fill="#1D1D1D" d="m11.47 13 1.117-2.022-1.044-1.902h.774l.432.87c.052.088.1.18.144.276.044.096.096.204.156.324h.024l.132-.324c.044-.096.088-.188.132-.276l.414-.87h.738l-1.044 1.932L14.56 13h-.774l-.48-.924a21.644 21.644 0 0 0-.156-.306 11.996 11.996 0 0 0-.162-.336h-.024c-.048.12-.096.232-.144.336l-.144.306-.468.924h-.738ZM9.524 13V9.664H8.39v-.588h2.964v.588H10.22V13h-.696ZM5.352 13V9.076h1.236c.292 0 .552.038.78.114.228.076.408.202.54.378.132.176.198.416.198.72 0 .288-.066.526-.198.714a1.146 1.146 0 0 1-.534.42 1.99 1.99 0 0 1-.762.138h-.564V13h-.696Zm.696-1.998h.51c.292 0 .508-.06.648-.18.144-.12.216-.298.216-.534 0-.248-.076-.418-.228-.51-.148-.096-.368-.144-.66-.144h-.486v1.368ZM1.86 13V9.076h1.235c.292 0 .552.038.78.114.228.076.408.202.54.378.132.176.198.416.198.72 0 .288-.066.526-.198.714a1.146 1.146 0 0 1-.534.42 1.99 1.99 0 0 1-.762.138h-.564V13H1.86Zm.695-1.998h.51c.292 0 .508-.06.648-.18.144-.12.216-.298.216-.534 0-.248-.076-.418-.228-.51-.148-.096-.368-.144-.66-.144h-.486v1.368Z"/>
  <path fill="#1D1D1D" fill-rule="evenodd" d="M1 0h8.707L15 5.293V8h-1V6H9V1H2v7H1V0Zm9 1.707L13.293 5H10V1.707ZM15 14v2H1v-2h1v1h12v-1h1Z" clip-rule="evenodd"/>
</svg>
