<svg xmlns="http://www.w3.org/2000/svg" width="24" height="24" fill="none" viewBox="0 0 24 24">
  <path stroke="currentColor" stroke-linecap="round" stroke-linejoin="round" d="M21.5 21v2.5h-18V21M3.5 10.5v-9h12l6 6v3"/>
  <path stroke="currentColor" stroke-linecap="round" stroke-linejoin="round" d="M15.5 1.5v6h6M23.5 10.5h-22v10h22v-10Z"/>
  <path fill="currentColor" d="M5.377 18 7 12.784h1.408L10.033 18H8.785l-.672-2.64a93.689 93.689 0 0 0-.208-.832 48.25 48.25 0 0 1-.208-.848h-.032l-.2.848c-.07.293-.139.57-.208.832L6.577 18h-1.2Zm1.072-1.24v-.92h2.496v.92H6.449ZM11.798 18l-1.576-5.216h1.248l.624 2.432c.08.288.149.568.208.84.064.267.133.544.208.832h.032c.085-.288.157-.565.216-.832.064-.272.133-.552.208-.84l.616-2.432h1.2L13.214 18h-1.416ZM15.49 18v-.992h1.216v-3.232H15.49v-.992h3.616v.992H17.89v3.232h1.216V18H15.49Z"/>
</svg>
