<svg xmlns="http://www.w3.org/2000/svg" width="16" height="16" fill="none"><path d="M1.292.05a.479.479 0 0 0-.277.356C.994.505.988 1.536.993 3.84c.008 3.67-.009 3.365.192 3.541.23.202.623.119.758-.161L2 7.103v-6.09h6.987v2.226c0 1.504.009 2.269.029 2.36.035.163.13.285.276.351.102.046.234.049 2.407.049L13.998 6l.008 1.091.007 1.091.082.102c.24.302.642.283.832-.04L15 8.12V5.373l-.072-.12c-.107-.18-5.102-5.16-5.227-5.212-.088-.036-.569-.041-4.2-.04-3.921 0-4.106.002-4.209.049m10.361 3.323 1.64 1.64H10v-1.64c0-.902.003-1.64.007-1.64.003 0 .744.738 1.646 1.64M.652 8.46c-.007.018-.009 1.047-.006 2.287L.653 13l.514.007.513.007V11.093H2.933V13.014l.514-.007L3.96 13V8.44l-.513-.007-.513-.007-.007.887-.007.887-.62.007-.62.007V8.427h-.508c-.381 0-.51.008-.52.033m3.561.406v.441h1.36l.007 1.846L5.587 13l.513.007.513.007V9.307h1.388l-.007-.434-.007-.433L6.1 8.433l-1.887-.007v.44m4 1.855v2.294l.42-.008.42-.007.008-.733a22.062 22.062 0 0 0-.09-2.263 5.904 5.904 0 0 1-.031-.491c.005-.016.079.229.164.543.085.314.239.832.342 1.152l.188.581.255-.008.255-.008.129-.4c.07-.22.224-.73.341-1.133.117-.403.219-.745.227-.76.007-.015.006.051-.001.147-.089 1.093-.102 1.375-.104 2.333L10.733 13h.854l.006-2.287.007-2.286H10.517l-.244.886c-.134.488-.27.992-.302 1.12-.032.129-.065.234-.075.234a.852.852 0 0 1-.066-.219 71.75 71.75 0 0 0-.526-1.935l-.028-.086H8.213v2.294m4.134-.001v2.294l1.526-.007L15.4 13l.007-.433.008-.434h-2.028l-.007-1.846-.007-1.847-.513-.007-.513-.007v2.294M1.292 14.048a.485.485 0 0 0-.276.353c-.038.175-.038 1.023 0 1.198.035.163.13.285.276.351.104.047.362.049 6.708.049s6.604-.002 6.708-.049a.479.479 0 0 0 .276-.351c.038-.176.038-1.023 0-1.2-.094-.436-.651-.536-.907-.162-.057.083-.065.125-.072.434l-.009.342H2.004l-.009-.344c-.009-.381-.022-.414-.213-.569a.493.493 0 0 0-.49-.052" fill-rule="evenodd" fill="#000"/></svg>