<svg width="16" height="16" fill="none" viewBox="0 0 16 16" xmlns="http://www.w3.org/2000/svg"><path fill-rule="evenodd" clip-rule="evenodd" d="M1.5 0H1V0.5V6.5V7H2V6.5V1H9V5.5V6H9.5H14V6.5V7H15V6.5V5.5V5.29289L14.8536 5.14645L9.85355 0.146447L9.70711 0H9.5H1.5ZM10 5V1.70711L13.2929 5H10ZM15 12.5V12H14V12.5V15H2V14.5V14H1V14.5V15.5V16H1.5H14.5H15V15.5V12.5ZM3.18869 13.096C2.83669 13.096 2.48736 13.032 2.14069 12.904C1.79936 12.776 1.48736 12.5893 1.20469 12.344L1.88469 11.536C2.08202 11.696 2.29802 11.8267 2.53269 11.928C2.77269 12.0293 3.01802 12.08 3.26869 12.08C3.51936 12.08 3.70336 12.0373 3.82069 11.952C3.94336 11.8667 4.00469 11.7573 4.00469 11.624C4.00469 11.5013 3.97269 11.4053 3.90869 11.336C3.84469 11.2613 3.75136 11.1973 3.62869 11.144C3.50602 11.0853 3.36202 11.0213 3.19669 10.952L2.52469 10.664C2.33269 10.5893 2.15136 10.4907 1.98069 10.368C1.81002 10.24 1.67136 10.0853 1.56469 9.904C1.46336 9.71733 1.41269 9.496 1.41269 9.24C1.41269 8.952 1.49269 8.69333 1.65269 8.464C1.81802 8.22933 2.04202 8.04267 2.32469 7.904C2.61269 7.76 2.94602 7.688 3.32469 7.688C3.63936 7.688 3.94869 7.74667 4.25269 7.864C4.55669 7.98133 4.82602 8.152 5.06069 8.376L4.46069 9.12C4.27936 8.98667 4.09802 8.88533 3.91669 8.816C3.73536 8.74133 3.51669 8.704 3.26069 8.704C3.06869 8.704 2.91136 8.744 2.78869 8.824C2.66602 8.904 2.60469 9.02133 2.60469 9.176C2.60469 9.27733 2.64202 9.36267 2.71669 9.432C2.79136 9.50133 2.89269 9.56267 3.02069 9.616C3.14869 9.66933 3.29536 9.728 3.46069 9.792L4.09269 10.064C4.32736 10.1493 4.52736 10.256 4.69269 10.384C4.85802 10.5067 4.98602 10.6587 5.07669 10.84C5.16736 11.0213 5.21269 11.2347 5.21269 11.48C5.21269 11.768 5.13269 12.0347 4.97269 12.28C4.81802 12.5253 4.58869 12.7227 4.28469 12.872C3.98602 13.0213 3.62069 13.096 3.18869 13.096ZM5.67356 13L7.29756 7.784H8.70556L10.3296 13H9.08156L8.76593 11.76H7.19296L6.87356 13H5.67356ZM8.40956 10.36L8.53175 10.84H7.42993L7.55356 10.36C7.6229 10.0987 7.69223 9.82133 7.76156 9.528C7.8309 9.23467 7.89756 8.952 7.96156 8.68H7.99356C8.05756 8.952 8.1269 9.23467 8.20156 9.528C8.27623 9.82133 8.34556 10.0987 8.40956 10.36ZM10.9984 7.784V13H12.1744V11.232H12.8464C13.2144 11.232 13.5531 11.1707 13.8624 11.048C14.1718 10.92 14.4198 10.7253 14.6064 10.464C14.7931 10.2027 14.8864 9.86933 14.8864 9.464C14.8864 9.04267 14.7931 8.70933 14.6064 8.464C14.4251 8.21867 14.1798 8.04533 13.8704 7.944C13.5664 7.83733 13.2251 7.784 12.8464 7.784H10.9984ZM12.7744 10.296H12.1744V8.72H12.7744C13.0891 8.72 13.3264 8.776 13.4864 8.888C13.6518 8.99467 13.7344 9.18667 13.7344 9.464C13.7344 9.73067 13.6544 9.936 13.4944 10.08C13.3398 10.224 13.0998 10.296 12.7744 10.296Z" fill="#1D1D1D"/></svg>
