<svg xmlns="http://www.w3.org/2000/svg" width="24" height="24" fill="none" viewBox="0 0 24 24"><path stroke="currentColor" stroke-linecap="round" stroke-linejoin="round" d="M21.5 21v2.5h-18V21M3.5 10.5v-9h12l6 6v3"/><path stroke="currentColor" stroke-linecap="round" stroke-linejoin="round" d="M15.5 1.5v6h6M23.5 10.5h-22v10h22v-10Z"/><path fill="currentColor" d="M5.865 18v-5.216h1.848c.368 0 .704.05 1.008.152.304.096.546.264.728.504.186.235.28.557.28.968 0 .4-.094.725-.28.976-.182.25-.424.437-.728.56-.304.117-.64.176-1.008.176H7.04V18H5.865Zm1.176-2.816h.576c.31 0 .544-.064.704-.192.165-.133.248-.328.248-.584 0-.256-.083-.435-.248-.536-.16-.101-.395-.152-.704-.152H7.04v1.464Zm.456.632.816-.76L9.977 18h-1.32l-1.16-2.184ZM11.91 18v-4.224h-1.56v-.992h4.304v.992h-1.56V18H11.91ZM15.739 18v-5.216h3.463v.992h-2.288v1.208h1.952v.992h-1.951V18h-1.176Z"/></svg>