<svg xmlns="http://www.w3.org/2000/svg" width="16" height="16" fill="none"><path d="M1.292.05a.478.478 0 0 0-.277.357C.994.505.988 1.464.993 3.587c.006 2.802.011 3.046.052 3.122.061.11.218.246.309.266l.105.026c.063.019.304-.061.372-.124a.65.65 0 0 0 .119-.17c.046-.102.049-.242.049-2.9L2 1.013h6.987v2.226c0 1.504.009 2.269.029 2.36.035.163.13.285.276.351.102.046.234.049 2.408.049L14 6l.001.3c0 .329.037.457.168.577.133.123.399.152.568.062a.707.707 0 0 0 .243-.293c.011-.04.02-.343.02-.673v-.6l-.072-.12c-.107-.18-5.102-5.16-5.227-5.212-.088-.036-.569-.041-4.2-.04-3.921 0-4.106.002-4.209.049m10.361 3.323 1.64 1.64H10v-1.64c0-.902.003-1.64.007-1.64.003 0 .744.738 1.646 1.64M1.04 8.28v.493h1.573v4.241l.594-.007L3.8 13l.007-2.113.007-2.114H5.36v-.986H1.04v.493m4.83-.433.708 1.257c.371.658.675 1.205.675 1.216 0 .01-.336.612-.746 1.336a62.085 62.085 0 0 0-.747 1.337c0 .011.275.02.61.02.456 0 .617-.008.637-.033.042-.051.734-1.445.834-1.68a.936.936 0 0 1 .104-.206c.008 0 .121.213.25.473s.351.689.493.953l.259.48.646.007c.383.004.647-.003.647-.017 0-.014-.319-.575-.709-1.247-.39-.673-.727-1.257-.749-1.298-.038-.074-.028-.095.663-1.345.386-.699.706-1.28.711-1.292.005-.012-.277-.019-.625-.015l-.634.007-.314.667c-.173.366-.354.771-.402.899-.048.129-.097.234-.109.234-.012 0-.064-.093-.115-.207a38.15 38.15 0 0 0-.445-.906l-.352-.7H5.838l.032.06m4.77.433v.493h1.573v4.24h1.174v-4.24h1.573v-.986h-4.32v.493m-9.347 4.764a.78.78 0 0 0-.249.249c-.038.07-.045.211-.052 1.116-.006.695.002 1.083.022 1.18a.48.48 0 0 0 .278.361c.104.047.362.049 6.708.049s6.604-.002 6.708-.049a.48.48 0 0 0 .278-.361c.02-.097.028-.485.022-1.18-.009-1.15-.004-1.118-.194-1.285-.115-.101-.186-.121-.373-.105a.455.455 0 0 0-.39.271c-.045.1-.05.187-.05.917l-.001.806H2v-.801c0-.841-.009-.916-.128-1.047-.12-.133-.437-.199-.579-.121" fill-rule="evenodd" fill="#000"/></svg>