<svg xmlns="http://www.w3.org/2000/svg" width="24" height="24" fill="none" viewBox="0 0 24 24"><path stroke="currentColor" fill="none" stroke-linecap="round" stroke-linejoin="round" d="M21.5 21v2.5h-18V21M3.5 10.5v-9h12l6 6v3"/><path stroke="currentColor" fill="none" stroke-linecap="round" stroke-linejoin="round" d="M15.5 1.5v6h6M23.5 10.5h-22v10h22v-10Z"/><path fill="currentColor" d="M3.506 18v-5.216h1.848c.379 0 .72.053 1.024.16.31.101.555.275.736.52.187.245.28.579.28 1 0 .405-.093.739-.28 1a1.685 1.685 0 0 1-.744.584c-.31.123-.648.184-1.016.184h-.672V18H3.506Zm1.176-2.704h.6c.326 0 .566-.072.72-.216.16-.144.24-.35.24-.616 0-.277-.082-.47-.248-.576-.16-.112-.397-.168-.712-.168h-.6v1.576ZM8.303 18v-5.216h1.848c.379 0 .72.053 1.024.16.31.101.555.275.736.52.187.245.28.579.28 1 0 .405-.093.739-.28 1a1.685 1.685 0 0 1-.744.584c-.31.123-.648.184-1.016.184H9.48V18H8.303Zm1.176-2.704h.6c.325 0 .565-.072.72-.216.16-.144.24-.35.24-.616 0-.277-.083-.47-.248-.576-.16-.112-.397-.168-.712-.168h-.6v1.576ZM14.308 18v-4.224h-1.56v-.992h4.304v.992h-1.56V18h-1.184ZM17.44 18l1.52-2.68-1.431-2.536h1.32l.504.984c.058.117.12.245.184.384s.136.29.216.456h.032c.058-.165.117-.317.176-.456.059-.139.117-.267.176-.384l.464-.984h1.264l-1.432 2.592L21.953 18H20.64l-.568-1.064c-.07-.139-.139-.275-.208-.408a125.99 125.99 0 0 0-.208-.448h-.032c-.064.16-.128.31-.192.448-.064.133-.128.27-.192.408L18.697 18H17.44Z"/></svg>