<svg xmlns="http://www.w3.org/2000/svg" width="24" height="24" fill="none"><path d="M3.252 1.078C2.984 1.242 3 .948 3 5.698V10h-.81c-.733 0-.822.008-.938.078-.27.165-.252-.215-.252 5.43 0 5 .002 5.115.078 5.24.142.232.229.252 1.12.252H3v1.31c0 1.229.005 1.318.078 1.438.167.274-.638.252 9.422.252s9.255.022 9.422-.252c.073-.12.078-.209.078-1.438V21h.81c.733 0 .822-.008.938-.078.27-.165.252.214.252-5.422s.018-5.257-.252-5.422c-.116-.07-.205-.078-.938-.078H22V7.301L18.85 4.15 15.699 1H9.54c-6.039 0-6.163.002-6.288.078M15 4.81c0 2.716.003 2.814.078 2.938.161.263.028.252 3.12.252H21v2H4V2h11v2.81m3.16.05L20.3 7H16V4.86c0-1.177.005-2.14.01-2.14.006 0 .973.963 2.15 2.14M23 15.5V20H2v-9h21v4.5M5.56 13.3v.5h1.56V18h1.2v-4.198l.77-.011.77-.011.011-.49.011-.49H5.56v.5m4.8-.481c0 .01.316.577.702 1.26l.702 1.242-.709 1.249c-.39.688-.735 1.29-.766 1.34l-.058.09H11.508l.404-.81c.221-.445.431-.88.466-.965l.062-.155.333.655c.182.36.409.795.503.965l.171.31h1.322l-.058-.09c-.188-.291-1.444-2.496-1.444-2.535 0-.026.309-.606.686-1.29.378-.683.687-1.252.687-1.264 0-.012-.28-.021-.622-.021h-.621l-.262.55c-.144.302-.325.703-.403.89a6.8 6.8 0 0 1-.152.352c-.005.006-.212-.394-.459-.89l-.449-.902h-.656c-.361 0-.656.008-.656.019m4.8.481v.5h1.56V18h1.16v-4.2h1.56v-1h-4.28v.5M21 22v1H4v-2h17v1" fill-rule="evenodd" fill="#000"/></svg>