<svg xmlns="http://www.w3.org/2000/svg" width="16" height="16" fill="none" viewBox="0 0 16 16">
  <path fill="#1D1D1D" d="M13.653 13.096c-.47 0-.89-.104-1.264-.312a2.2 2.2 0 0 1-.88-.912c-.213-.405-.32-.896-.32-1.472 0-.427.061-.808.184-1.144.128-.336.304-.621.528-.856.23-.24.493-.421.792-.544.299-.123.621-.184.968-.184.373 0 .69.067.952.2.261.133.472.288.632.464l-.496.568a1.41 1.41 0 0 0-1.056-.424c-.31 0-.582.077-.816.232-.235.15-.416.365-.544.648-.128.283-.192.621-.192 1.016s.061.736.184 1.024c.123.288.301.51.536.664.24.15.533.224.88.224.15 0 .29-.019.424-.056a.914.914 0 0 0 .328-.176v-1.128H13.5v-.76h1.824v2.304c-.176.176-.41.325-.704.448-.288.117-.61.176-.968.176ZM6.805 13V7.768h1.648c.389 0 .736.05 1.04.152.304.101.544.27.72.504.176.235.264.555.264.96 0 .384-.088.701-.264.952-.171.25-.408.437-.712.56a2.653 2.653 0 0 1-1.016.184h-.752V13h-.928Zm.928-2.664h.68c.389 0 .677-.08.864-.24.192-.16.288-.397.288-.712 0-.33-.102-.557-.304-.68-.198-.128-.491-.192-.88-.192h-.648v1.824ZM.844 13V7.768h1.112l.896 2.56a11.838 11.838 0 0 1 .304 1.024h.032c.048-.192.093-.368.136-.528.048-.165.098-.33.152-.496l.896-2.56h1.104V13H4.62v-2.384c0-.165.005-.355.016-.568a23.178 23.178 0 0 1 .12-1.192h-.032l-.416 1.328-.848 2.336h-.624l-.848-2.336-.4-1.328h-.032c.021.16.04.347.056.56.021.208.037.419.048.632.016.213.024.403.024.568V13h-.84Z"/>
  <path fill="#1D1D1D" fill-rule="evenodd" d="M1 0h8.707L15 5.293V7h-1V6H9V1H2v6H1V0Zm9 1.707L13.293 5H10V1.707ZM15 14v2H1v-2h1v1h12v-1h1Z" clip-rule="evenodd"/>
</svg>
