<svg xmlns="http://www.w3.org/2000/svg" width="24" height="24" viewBox="0 0 24 24"><path stroke="currentColor" stroke-linecap="round" stroke-linejoin="round" d="M21.5 21v2.5h-18V21m0-10.5v-9h12l6 6v3"/><path stroke="currentColor" stroke-linecap="round" stroke-linejoin="round" d="M15.5 1.5v6h6m2 3h-22v10h22v-10Z"/><path fill="currentColor" d="M7.689 18.096c-.352 0-.702-.064-1.048-.192a3.057 3.057 0 0 1-.936-.56l.68-.808c.197.16.413.29.648.392.24.101.485.152.736.152.25 0 .434-.043.552-.128a.385.385 0 0 0 .184-.328.408.408 0 0 0-.096-.288.76.76 0 0 0-.28-.192 9.697 9.697 0 0 0-.432-.192l-.672-.288a2.452 2.452 0 0 1-.544-.296 1.571 1.571 0 0 1-.416-.464 1.372 1.372 0 0 1-.152-.664c0-.288.08-.547.24-.776a1.74 1.74 0 0 1 .672-.56 2.208 2.208 0 0 1 1-.216c.314 0 .624.059.928.176.304.117.573.288.808.512l-.6.744a2.324 2.324 0 0 0-.544-.304 1.72 1.72 0 0 0-.656-.112.85.85 0 0 0-.472.12.394.394 0 0 0-.184.352c0 .101.037.187.112.256.074.07.176.13.304.184.128.053.274.112.44.176l.632.272c.234.085.434.192.6.32.165.123.293.275.384.456.09.181.136.395.136.64 0 .288-.08.555-.24.8a1.643 1.643 0 0 1-.688.592c-.299.15-.664.224-1.096.224ZM11.91 18v-4.224h-1.56v-.992h4.304v.992h-1.56V18H11.91Zm3.588 0v-5.216h1.848c.38 0 .72.053 1.024.16.31.101.555.275.736.52.187.245.28.579.28 1 0 .405-.093.739-.28 1a1.685 1.685 0 0 1-.744.584 2.72 2.72 0 0 1-1.015.184h-.673V18H15.5Zm1.176-2.704h.6c.326 0 .566-.072.72-.216.16-.144.24-.35.24-.616 0-.277-.082-.47-.248-.576-.16-.112-.397-.168-.712-.168h-.6v1.576Z"/></svg>