<svg xmlns="http://www.w3.org/2000/svg" width="16" height="16" fill="none" viewBox="0 0 16 16">
  <path fill="#1D1D1D" d="M9.625 13V7.768h1.648c.39 0 .736.05 1.04.152.304.101.544.27.72.504.176.235.264.555.264.96 0 .384-.088.701-.264.952-.17.25-.408.437-.712.56a2.653 2.653 0 0 1-1.016.184h-.752V13h-.928Zm.928-2.664h.68c.39 0 .677-.08.864-.24.192-.16.288-.397.288-.712 0-.33-.101-.557-.304-.68-.197-.128-.49-.192-.88-.192h-.648v1.824ZM7.367 13V7.768h.928V13h-.928ZM2.703 13v-.56L5.23 8.552H2.935v-.784h3.448v.56l-2.536 3.888h2.552V13H2.703Z"/>
  <path fill="#1D1D1D" fill-rule="evenodd" d="M1 0h8.707L15 5.293V7h-1V6H9V1H2v6H1V0Zm9 1.707L13.293 5H10V1.707ZM15 12v4H1v-2h1v1h12v-3h1Z" clip-rule="evenodd"/>
</svg>
