<svg xmlns="http://www.w3.org/2000/svg" width="16" height="16" fill="none" viewBox="0 0 16 16"><path stroke="currentColor" stroke-linecap="round" stroke-linejoin="round" d="M14.5 14v1.5h-13v-1M1.5 6.5v-6h8l5 5v1"/><path stroke="currentColor" stroke-linecap="round" stroke-linejoin="round" d="M9.5.5v5h5"/><path fill="currentColor" d="M1.54 13V7.784h3.457v.992H2.725v1.048h1.928v.984H2.725v1.2h2.352V13H1.54ZM6.202 13V7.784H8.05c.378 0 .72.053 1.024.16.309.101.554.275.736.52.186.245.28.579.28 1 0 .405-.094.739-.28 1a1.684 1.684 0 0 1-.744.584c-.31.123-.648.184-1.016.184h-.672V13H6.202Zm1.176-2.704h.6c.325 0 .565-.072.72-.216.16-.144.24-.35.24-.616 0-.277-.083-.47-.248-.576-.16-.112-.398-.168-.712-.168h-.6v1.576ZM12.782 13.096c-.352 0-.7-.064-1.048-.192a3.055 3.055 0 0 1-.936-.56l.68-.808c.198.16.414.29.648.392.24.101.486.152.736.152.251 0 .435-.043.552-.128a.385.385 0 0 0 .184-.328.409.409 0 0 0-.096-.288.763.763 0 0 0-.28-.192 9.87 9.87 0 0 0-.432-.192l-.672-.288a2.448 2.448 0 0 1-.544-.296 1.571 1.571 0 0 1-.416-.464 1.372 1.372 0 0 1-.152-.664c0-.288.08-.547.24-.776.166-.235.39-.421.672-.56a2.208 2.208 0 0 1 1-.216c.315 0 .624.059.928.176.304.117.574.288.808.512l-.6.744a2.323 2.323 0 0 0-.544-.304 1.721 1.721 0 0 0-.656-.112.85.85 0 0 0-.472.12.394.394 0 0 0-.184.352c0 .101.038.187.112.256.075.07.176.13.304.184.128.053.275.112.44.176l.632.272c.235.085.435.192.6.32.166.123.294.275.384.456.091.181.136.395.136.64 0 .288-.08.555-.24.8a1.642 1.642 0 0 1-.688.592c-.298.15-.664.224-1.096.224Z"/></svg>