<svg xmlns="http://www.w3.org/2000/svg" width="16" height="16" fill="none"><path d="M1.292.05a.478.478 0 0 0-.277.357C.994.505.988 1.464.993 3.587c.006 2.802.011 3.046.052 3.122.061.11.218.246.309.266l.105.026c.063.019.304-.061.372-.124a.65.65 0 0 0 .119-.17c.046-.102.049-.242.049-2.9L2 1.013h6.987v2.226c0 1.504.009 2.269.029 2.36.035.163.13.285.276.351.102.046.234.049 2.408.049L14 6l.001.3c0 .329.037.457.168.577.133.123.399.152.568.062a.707.707 0 0 0 .243-.293c.011-.04.02-.343.02-.673v-.6l-.072-.12c-.107-.18-5.102-5.16-5.227-5.212-.088-.036-.569-.041-4.2-.04-3.921 0-4.106.002-4.209.049m10.361 3.323 1.64 1.64H10v-1.64c0-.902.003-1.64.007-1.64.003 0 .744.738 1.646 1.64M1.26 10.393 1.267 13l.486.007.487.008v-1.048a22.382 22.382 0 0 0-.096-2.356 7.142 7.142 0 0 1-.033-.571c.005-.034.092.247.193.625.102.378.277.971.39 1.318l.204.63h.579l.216-.68c.119-.374.299-.97.4-1.326.101-.355.188-.641.194-.636.005.006-.009.231-.031.5a24.088 24.088 0 0 0-.107 2.476L4.147 13h.986l.007-2.607.007-2.606H3.906l-.259.94a88.752 88.752 0 0 0-.343 1.28c-.046.187-.092.34-.103.34-.01 0-.051-.141-.091-.314a54.525 54.525 0 0 0-.339-1.269c-.145-.525-.264-.96-.264-.966a9.03 9.03 0 0 0-.627-.011h-.627l.007 2.606m4.933 0L6.2 13h1.173l.007-.884.007-.883.58-.013c.488-.011.614-.022.793-.071.628-.173 1.054-.54 1.238-1.069.086-.244.107-.79.044-1.076-.127-.569-.521-.953-1.139-1.109-.372-.094-.595-.108-1.665-.108H6.186l.007 2.606m6.545-2.386c-.064.086-1.864 2.683-2 2.886-.069.103-.071.117-.071.5v.394h2.452l.007.606.007.607.54.007.54.007V11.787h.64v-.907h-.64V7.92h-1.41l-.065.087m-4.275.774c.191.062.327.168.396.309.051.102.061.167.061.379 0 .231-.008.27-.081.413a.74.74 0 0 1-.434.362 3.752 3.752 0 0 1-.558.042l-.46.012V8.714l.473.013c.327.008.513.025.603.054m4.7.212a17.88 17.88 0 0 0-.034.974l-.018.913h-.635c-.35 0-.636-.006-.636-.014s.177-.271.393-.585c.217-.314.506-.746.643-.959.233-.364.326-.47.287-.329M1.292 14.048a.485.485 0 0 0-.276.353c-.038.175-.038 1.023 0 1.198.035.163.13.285.276.351.104.047.362.049 6.708.049s6.604-.002 6.708-.049a.479.479 0 0 0 .276-.351c.038-.176.038-1.023 0-1.2-.094-.436-.651-.536-.907-.162-.057.083-.065.125-.072.434l-.009.342H2.004l-.009-.344c-.009-.381-.022-.414-.213-.569a.493.493 0 0 0-.49-.052" fill-rule="evenodd" fill="#000"/></svg>