<svg xmlns="http://www.w3.org/2000/svg" width="24" height="24" fill="none" viewBox="0 0 24 24">
  <path stroke="currentColor" stroke-linecap="round" stroke-linejoin="round" d="M21.5 21v2.5h-18V21M3.5 10.5v-9h12l6 6v3"/>
  <path stroke="currentColor" stroke-linecap="round" stroke-linejoin="round" d="M15.5 1.5v6h6M23.5 10.5h-22v10h22v-10Z"/>
  <path fill="currentColor" d="M6.04 18v-5.216h3.457v.992H7.225v1.048h1.928v.984H7.225v1.2h2.352V18H6.04ZM10.246 18l1.52-2.68-1.432-2.536h1.32l.504.984c.058.117.12.245.184.384s.136.29.216.456h.032c.058-.165.117-.317.176-.456.058-.139.117-.267.176-.384l.464-.984h1.264l-1.432 2.592L14.758 18h-1.312l-.568-1.064-.208-.408a110.45 110.45 0 0 0-.208-.448h-.032c-.064.16-.128.31-.192.448-.064.133-.128.27-.192.408L11.502 18h-1.256ZM15.634 18v-5.216h3.456v.992H16.82v1.048h1.928v.984h-1.928v1.2h2.352V18h-3.537Z"/>
</svg>
