<svg xmlns="http://www.w3.org/2000/svg" width="16" height="16" fill="currentColor">
  <path d="M12.63 13.096c-.47 0-.891-.104-1.265-.312a2.201 2.201 0 0 1-.88-.912c-.213-.405-.32-.896-.32-1.472 0-.427.062-.808.184-1.144.128-.336.304-.621.528-.856.23-.24.494-.421.792-.544.3-.123.622-.184.968-.184.374 0 .691.067.952.2.262.133.472.288.632.464l-.496.568a1.409 1.409 0 0 0-1.056-.424c-.309 0-.58.077-.816.232-.234.15-.416.365-.544.648-.128.283-.192.621-.192 1.016s.062.736.184 1.024c.123.288.302.51.536.664.24.15.534.224.88.224.15 0 .291-.019.424-.056a.914.914 0 0 0 .328-.176v-1.128h-.992v-.76h1.824v2.304c-.176.176-.41.325-.704.448-.288.117-.61.176-.968.176ZM7.13 13l-1.6-5.232h.984l.704 2.632c.054.197.104.39.152.576l.144.552.168.568h.032a113.748 113.748 0 0 0 .296-1.12c.054-.187.107-.379.16-.576l.76-2.632h.953L8.226 13H7.13ZM3.395 13.096c-.363 0-.707-.067-1.032-.2a2.697 2.697 0 0 1-.856-.568l.504-.608c.187.181.403.323.648.424.25.096.501.144.752.144.299 0 .525-.061.68-.184a.592.592 0 0 0 .232-.488.53.53 0 0 0-.104-.344.848.848 0 0 0-.288-.232 3.902 3.902 0 0 0-.416-.192l-.72-.312a2.84 2.84 0 0 1-.504-.288 1.611 1.611 0 0 1-.4-.448 1.326 1.326 0 0 1-.152-.656c0-.277.075-.525.224-.744.155-.224.363-.4.624-.528.267-.133.57-.2.912-.2.315 0 .61.059.888.176.283.112.523.267.72.464l-.488.608a2.068 2.068 0 0 0-.536-.32 1.468 1.468 0 0 0-.584-.12c-.245 0-.445.056-.6.168a.52.52 0 0 0-.224.448c0 .133.037.245.112.336.08.085.184.16.312.224.133.059.27.117.408.176l.712.296c.208.09.392.197.552.32.16.123.283.272.368.448.09.176.136.392.136.648 0 .283-.075.541-.224.776-.15.235-.365.424-.648.568-.277.139-.613.208-1.008.208Z"/>
  <path fill-rule="evenodd" d="M1 0h8.707L15 5.293V7h-1V6H9V1H2v6H1V0Zm9 1.707L13.293 5H10V1.707ZM15 14v2H1v-2h1v1h12v-1h1Z" clip-rule="evenodd"/>
</svg>
