<svg xmlns="http://www.w3.org/2000/svg" width="24" height="24" fill="none"><path d="M3.252 1.078C2.984 1.242 3 .948 3 5.698V10h-.81c-.733 0-.822.008-.938.078-.27.165-.252-.215-.252 5.43 0 5 .002 5.115.078 5.24.142.232.229.252 1.12.252H3v1.31c0 1.229.005 1.318.078 1.438.167.274-.638.252 9.422.252s9.255.022 9.422-.252c.073-.12.078-.209.078-1.438V21h.81c.733 0 .822-.008.938-.078.27-.165.252.214.252-5.422s.018-5.257-.252-5.422c-.116-.07-.205-.078-.938-.078H22V7.301L18.85 4.15 15.699 1H9.54c-6.039 0-6.163.002-6.288.078M15 4.81c0 2.716.003 2.814.078 2.938.161.263.028.252 3.12.252H21v2H4V2h11v2.81m3.16.05L20.3 7H16V4.86c0-1.177.005-2.14.01-2.14.006 0 .973.963 2.15 2.14M23 15.5V20H2v-9h21v4.5m-16.96-.1V18h3.562l-.011-.49-.011-.49-1.17-.011-1.17-.01V15.8h1.92v-.96H7.24V13.801l1.13-.01 1.13-.011.011-.49.011-.49H6.04v2.6m4.32-2.581c0 .01.316.577.702 1.26l.703 1.241-.708 1.25c-.389.687-.732 1.29-.763 1.34l-.056.09h1.27l.404-.81c.221-.445.431-.881.466-.967l.064-.157.331.657c.183.361.409.797.503.967l.171.31h1.322l-.058-.09c-.188-.291-1.444-2.496-1.444-2.535 0-.026.309-.606.686-1.29.378-.683.687-1.252.687-1.264 0-.012-.28-.021-.622-.021h-.621l-.262.55c-.144.302-.325.703-.403.89a6.8 6.8 0 0 1-.152.352c-.005.006-.212-.394-.459-.89l-.449-.902h-.656c-.361 0-.656.008-.656.019m5.28 2.581V18h3.52v-1h-2.32v-1.2h1.92v-.96h-1.92V13.8h2.24v-1h-3.44v2.6M21 22v1H4v-2h17v1" fill-rule="evenodd" fill="#000"/></svg>