<svg width="24" height="24" fill="none" viewBox="0 0 24 24" xmlns="http://www.w3.org/2000/svg"><path fill-rule="evenodd" clip-rule="evenodd" d="M3 1H3.5H14.5H14.7071L14.8536 1.14645L20.8536 7.14645L21 7.29289V7.5V10H22.5H23V10.5V20.5V21H22.5H21V23.5V24H20.5H3.5H3V23.5V21H1.5H1V20.5V10.5V10H1.5H3V1.5V1ZM20 8V10H4V2H14V7.5V8H14.5H20ZM4 21H20V23H4V21ZM2 11H3H4H20H21H22V20H2V11ZM15 2.70711V7H19.2929L15 2.70711ZM7.18869 18.096C6.83669 18.096 6.48736 18.032 6.14069 17.904C5.79936 17.776 5.48736 17.5893 5.20469 17.344L5.88469 16.536C6.08202 16.696 6.29802 16.8267 6.53269 16.928C6.77269 17.0293 7.01802 17.08 7.26869 17.08C7.51936 17.08 7.70336 17.0373 7.82069 16.952C7.94336 16.8667 8.00469 16.7573 8.00469 16.624C8.00469 16.5013 7.97269 16.4053 7.90869 16.336C7.84469 16.2613 7.75136 16.1973 7.62869 16.144C7.50602 16.0853 7.36202 16.0213 7.19669 15.952L6.52469 15.664C6.33269 15.5893 6.15136 15.4907 5.98069 15.368C5.81002 15.24 5.67136 15.0853 5.56469 14.904C5.46336 14.7173 5.41269 14.496 5.41269 14.24C5.41269 13.952 5.49269 13.6933 5.65269 13.464C5.81802 13.2293 6.04202 13.0427 6.32469 12.904C6.61269 12.76 6.94602 12.688 7.32469 12.688C7.63936 12.688 7.94869 12.7467 8.25269 12.864C8.55669 12.9813 8.82602 13.152 9.06069 13.376L8.46069 14.12C8.27936 13.9867 8.09802 13.8853 7.91669 13.816C7.73536 13.7413 7.51669 13.704 7.26069 13.704C7.06869 13.704 6.91136 13.744 6.78869 13.824C6.66602 13.904 6.60469 14.0213 6.60469 14.176C6.60469 14.2773 6.64202 14.3627 6.71669 14.432C6.79136 14.5013 6.89269 14.5627 7.02069 14.616C7.14869 14.6693 7.29536 14.728 7.46069 14.792L8.09269 15.064C8.32736 15.1493 8.52736 15.256 8.69269 15.384C8.85802 15.5067 8.98602 15.6587 9.07669 15.84C9.16736 16.0213 9.21269 16.2347 9.21269 16.48C9.21269 16.768 9.13269 17.0347 8.97269 17.28C8.81802 17.5253 8.58869 17.7227 8.28469 17.872C7.98602 18.0213 7.62069 18.096 7.18869 18.096ZM9.67356 18L11.2976 12.784H12.7056L14.3296 18H13.0816L12.7659 16.76H11.193L10.8736 18H9.67356ZM12.4096 15.36L12.5317 15.84H11.4299L11.5536 15.36C11.6229 15.0987 11.6922 14.8213 11.7616 14.528C11.8309 14.2347 11.8976 13.952 11.9616 13.68H11.9936C12.0576 13.952 12.1269 14.2347 12.2016 14.528C12.2762 14.8213 12.3456 15.0987 12.4096 15.36ZM14.9984 12.784V18H16.1744V16.232H16.8464C17.2144 16.232 17.5531 16.1707 17.8624 16.048C18.1718 15.92 18.4198 15.7253 18.6064 15.464C18.7931 15.2027 18.8864 14.8693 18.8864 14.464C18.8864 14.0427 18.7931 13.7093 18.6064 13.464C18.4251 13.2187 18.1798 13.0453 17.8704 12.944C17.5664 12.8373 17.2251 12.784 16.8464 12.784H14.9984ZM16.7744 15.296H16.1744V13.72H16.7744C17.0891 13.72 17.3264 13.776 17.4864 13.888C17.6518 13.9947 17.7344 14.1867 17.7344 14.464C17.7344 14.7307 17.6544 14.936 17.4944 15.08C17.3398 15.224 17.0998 15.296 16.7744 15.296Z" fill="#1D1D1D"/></svg>
