<svg xmlns="http://www.w3.org/2000/svg" width="16" height="16" fill="none" viewBox="0 0 16 16">
  <path fill="#1D1D1D" d="m12.732 13-1.6-5.232h.984l.704 2.632c.053.197.104.39.152.576l.144.552.168.568h.032a117.099 117.099 0 0 0 .296-1.12c.053-.187.107-.379.16-.576l.76-2.632h.952L13.828 13h-1.096ZM7.172 13V7.768H8.1v2.376h.024l1.864-2.376h1.032l-1.608 2.04L11.292 13h-1.024l-1.416-2.464-.752.936V13h-.928ZM1.21 13V7.768h1.113l.896 2.56a11.852 11.852 0 0 1 .304 1.024h.032c.048-.192.093-.368.136-.528.048-.165.099-.33.152-.496l.896-2.56h1.104V13h-.856v-2.384c0-.165.005-.355.016-.568a23.178 23.178 0 0 1 .12-1.192H5.09l-.416 1.328-.848 2.336h-.624l-.848-2.336-.4-1.328h-.032c.021.16.04.347.056.56.021.208.037.419.048.632.016.213.024.403.024.568V13h-.84Z"/>
  <path fill="#1D1D1D" fill-rule="evenodd" d="M1 0h8.707L15 5.293V7h-1V6H9V1H2v6H1V0Zm9 1.707L13.293 5H10V1.707ZM15 14v2H1v-2h1v1h12v-1h1Z" clip-rule="evenodd"/>
</svg>
