<svg xmlns="http://www.w3.org/2000/svg" width="16" height="16" fill="none"><path d="M1.292.05a.479.479 0 0 0-.276.351c-.041.191-.041 15.007 0 15.198.035.163.13.285.276.351.104.047.362.049 6.708.049s6.604-.002 6.708-.049a.476.476 0 0 0 .277-.356c.021-.099.027-1.624.022-5.181L15 5.373l-.072-.12c-.107-.18-5.102-5.16-5.227-5.212-.088-.036-.569-.041-4.2-.04-3.921 0-4.106.002-4.209.049m7.695 3.189c0 1.504.009 2.269.029 2.36.035.163.13.285.276.351.102.046.234.049 2.408.049L14 6v9.013H2v-14h6.987v2.226m2.666.134 1.64 1.64H10v-1.64c0-.902.003-1.64.007-1.64.003 0 .744.738 1.646 1.64m-1.448 4.335a2.268 2.268 0 0 0-.938.343 2.052 2.052 0 0 0-.491.535c-.214.4-.218.907-.013 1.314.086.17.371.454.579.577.084.05.465.225.846.39.381.165.741.331.799.37a.447.447 0 0 1 .206.411c-.035.305-.329.455-.833.424-.38-.024-.739-.156-1.101-.409a2.304 2.304 0 0 0-.178-.116c-.005 0-.161.179-.346.399l-.336.399.145.114c.318.249.687.429 1.128.547.236.063.307.07.728.07.542 0 .739-.04 1.119-.227.174-.085.272-.157.427-.313.321-.323.454-.639.454-1.073-.001-.503-.201-.873-.627-1.155-.14-.093-.698-.346-1.275-.577-.379-.152-.505-.222-.6-.33-.072-.082-.085-.117-.084-.235 0-.311.227-.455.707-.449.367.004.708.114 1.014.324.067.046.125.08.129.075l.292-.366c.156-.195.284-.365.284-.376 0-.04-.325-.273-.539-.387a2.617 2.617 0 0 0-.956-.279 3.574 3.574 0 0 0-.314-.024c-.025.001-.126.013-.226.024m-6.098.572v.493h2.057l-.01 1.34c-.009 1.151-.016 1.359-.053 1.47-.073.214-.162.324-.333.408-.138.067-.183.076-.408.075-.232-.001-.269-.008-.436-.089a1.66 1.66 0 0 1-.38-.276l-.197-.188-.222.237c-.122.13-.273.293-.336.363l-.115.126.085.106c.407.514 1.052.777 1.814.74.579-.028.927-.166 1.256-.495.225-.226.332-.416.431-.769.058-.204.059-.243.067-2.121l.008-1.913H4.107v.493" fill-rule="evenodd" fill="#000"/></svg>