<svg xmlns="http://www.w3.org/2000/svg" width="24" height="24" fill="none"><path d="M3.252 1.078C2.984 1.242 3 .948 3 5.698V10h-.81c-.733 0-.822.008-.938.078-.27.165-.252-.215-.252 5.43 0 5 .002 5.115.078 5.24.142.232.229.252 1.12.252H3v1.31c0 1.229.005 1.318.078 1.438.167.274-.638.252 9.422.252s9.255.022 9.422-.252c.073-.12.078-.209.078-1.438V21h.81c.733 0 .822-.008.938-.078.27-.165.252.214.252-5.422s.018-5.257-.252-5.422c-.116-.07-.205-.078-.938-.078H22V7.301L18.85 4.15 15.699 1H9.54c-6.039 0-6.163.002-6.288.078M15 4.81c0 2.716.003 2.814.078 2.938.161.263.028.252 3.12.252H21v2H4V2h11v2.81m3.16.05L20.3 7H16V4.86c0-1.177.005-2.14.01-2.14.006 0 .973.963 2.15 2.14M23 15.5V20H2v-9h21v4.5m-5.944-2.782c-.475.074-.837.254-1.142.564-.285.293-.394.56-.394.972 0 .4.085.624.344.904.246.266.464.389 1.386.782.719.307.83.397.83.676 0 .595-1.078.627-1.91.056-.094-.064-.188-.106-.209-.093a5.906 5.906 0 0 0-.348.389l-.309.365.158.136c.218.189.736.436 1.114.531.358.09.969.107 1.312.036a1.974 1.974 0 0 0 1.003-.554c.292-.315.4-.589.403-1.027.002-.288-.013-.355-.128-.588-.214-.436-.396-.561-1.463-1.005-.936-.39-.983-.424-.983-.706 0-.323.253-.459.796-.426.355.022.57.092.876.285l.162.102.3-.368c.165-.202.291-.38.282-.396a3.155 3.155 0 0 0-.318-.229c-.495-.331-1.202-.494-1.762-.406M6.04 15.4V18h3.562l-.011-.49-.011-.49-1.17-.011-1.17-.01V15.8h1.92v-.96H7.24V13.801l1.13-.01 1.13-.011.011-.49.011-.49H6.04v2.6m4.64 0V18h1.2v-1.749l.59-.021c.488-.017.646-.039.913-.125.631-.203 1.028-.617 1.16-1.212.181-.814-.122-1.547-.766-1.855-.437-.208-.672-.237-1.947-.237l-1.15-.001v2.6m2.191-1.638a.935.935 0 0 1 .341.162c.4.329.251 1.09-.253 1.292-.093.037-.352.075-.619.09l-.46.026V13.72h.398c.219 0 .486.019.593.042M21 22v1H4v-2h17v1" fill-rule="evenodd" fill="#000"/></svg>