<svg xmlns="http://www.w3.org/2000/svg" width="16" height="16" fill="none" viewBox="0 0 16 16"><path stroke="currentColor" stroke-linecap="square" d="M14.5 13.5v2h-13v-1M1.5 6V.5h8l5 5V6"/><path stroke="currentColor" stroke-linecap="square" d="M9.5 1v4.5H14"/><path fill="currentColor" d="M2.5 13 .926 7.784h1.248l.624 2.432c.08.288.149.568.208.84.064.267.133.544.208.832h.032c.085-.288.157-.565.216-.832.064-.272.133-.552.208-.84l.616-2.432h1.2L3.917 13H2.5Zm3.662 0V7.784h1.44c.506 0 .946.09 1.32.272.378.181.672.464.88.848.208.379.312.867.312 1.464s-.104 1.09-.312 1.48a1.99 1.99 0 0 1-.856.872c-.368.187-.792.28-1.272.28H6.162Zm1.184-.952h.192c.277 0 .517-.053.72-.16.202-.107.36-.283.472-.528.117-.245.176-.576.176-.992 0-.416-.06-.741-.176-.976a.994.994 0 0 0-.472-.504 1.593 1.593 0 0 0-.72-.152h-.192v3.312Zm3.892.952V7.784h3.464v.992h-2.288v1.208h1.952v.992h-1.952V13h-1.176Z"/></svg>