<svg xmlns="http://www.w3.org/2000/svg" width="16" height="16" fill="none"><path d="M1.292.05a.479.479 0 0 0-.276.351c-.041.189-.041 7.009 0 7.198.035.163.13.285.276.351.199.09.386.058.545-.092.173-.164.163.064.163-3.55V1.013h6.987v2.226c0 1.504.009 2.269.029 2.36.035.163.13.285.276.351.102.046.234.049 2.408.049L14 6l.001.3c0 .329.037.457.168.577.133.123.399.152.568.062a.707.707 0 0 0 .243-.293c.011-.04.02-.343.02-.673v-.6l-.072-.12c-.107-.18-5.102-5.16-5.227-5.212-.088-.036-.569-.041-4.2-.04-3.921 0-4.106.002-4.209.049m10.361 3.323 1.64 1.64H10v-1.64c0-.902.003-1.64.007-1.64.003 0 .744.738 1.646 1.64M3.56 7.697c-.947.08-1.65.547-2.041 1.355-.325.673-.376 1.687-.121 2.436.21.617.61 1.088 1.149 1.354.32.158.591.224 1.001.243.669.031 1.169-.144 1.62-.567l.201-.188-.302-.332-.323-.355c-.012-.013-.082.031-.159.1a1.25 1.25 0 0 1-.735.329c-.644.044-1.147-.354-1.336-1.059-.067-.249-.066-1.009.002-1.251.118-.424.399-.792.724-.951.151-.073.179-.078.493-.078.308 0 .346.006.49.074.086.04.216.116.288.17l.132.097.128-.144.316-.357.19-.213-.072-.075c-.095-.099-.451-.326-.663-.422a2.195 2.195 0 0 0-.982-.166m4.245.011c-.46.054-.841.233-1.155.544-.316.314-.437.59-.437 1.001 0 .484.211.869.633 1.157.108.074.463.246.88.427.788.342.912.408.997.527.091.127.099.331.019.449-.14.205-.378.284-.782.259-.38-.024-.739-.156-1.101-.409a2.404 2.404 0 0 0-.177-.116c-.005 0-.16.179-.345.398L6 12.343l.117.096c.306.251.755.466 1.211.581.332.084 1.038.083 1.352-.002.36-.097.633-.249.866-.481.323-.323.454-.633.454-1.07 0-.536-.221-.923-.685-1.197-.163-.096-.739-.351-1.278-.565-.312-.124-.448-.2-.539-.304-.072-.082-.085-.117-.084-.235 0-.307.224-.452.693-.448a1.81 1.81 0 0 1 1.032.323.577.577 0 0 0 .126.074l.29-.36c.157-.193.285-.363.285-.377 0-.044-.377-.314-.579-.415a2.736 2.736 0 0 0-.916-.255 3.574 3.574 0 0 0-.314-.024c-.025.001-.126.013-.226.024m4.8 0c-.629.074-1.206.436-1.445.905a1.341 1.341 0 0 0-.147.647c0 .527.265.958.76 1.234.091.051.469.224.839.385.371.16.722.323.78.361.198.132.264.423.134.598-.135.183-.381.258-.766.234-.382-.024-.739-.156-1.104-.41-.201-.14-.135-.179-.559.325-.336.398-.334.352-.021.568a2.953 2.953 0 0 0 1.844.53c.581-.024 1.036-.186 1.37-.488.616-.558.69-1.519.158-2.059-.216-.219-.385-.314-1.085-.609-.978-.412-1.005-.426-1.104-.568-.057-.082-.06-.295-.006-.4.085-.166.298-.245.654-.243.375.002.716.109 1.024.321l.119.081.234-.287.295-.362a.34.34 0 0 0 .061-.096c0-.03-.249-.219-.439-.333-.433-.261-1.077-.396-1.596-.334M1.293 13.044a.78.78 0 0 0-.249.249c-.038.07-.045.211-.052 1.116-.006.695.002 1.083.022 1.18a.48.48 0 0 0 .278.361c.104.047.362.049 6.708.049s6.604-.002 6.708-.049a.482.482 0 0 0 .279-.363c.02-.096.027-.413.021-.927L15 13.88l-.071-.12a.49.49 0 0 0-.44-.249c-.164.002-.276.061-.393.205l-.083.102-.008.598-.009.597H2v-.801c0-.841-.009-.916-.128-1.047-.12-.133-.437-.199-.579-.121" fill-rule="evenodd" fill="#000"/></svg>