<svg xmlns="http://www.w3.org/2000/svg" width="24" height="24" fill="none" viewBox="0 0 24 24"><path stroke="currentColor" stroke-linecap="round" stroke-linejoin="round" d="M21.5 21v2.5h-18V21M3.5 10.5v-9h12l6 6v3"/><path stroke="currentColor" stroke-linecap="round" stroke-linejoin="round" d="M15.5 1.5v6h6M23.5 10.5h-22v10h22v-10Z"/><path fill="currentColor" d="M5.905 18v-5.216h1.848c.378 0 .72.053 1.024.16.309.101.554.275.736.52.186.245.28.579.28 1 0 .405-.094.739-.28 1a1.685 1.685 0 0 1-.744.584c-.31.123-.648.184-1.016.184H7.08V18H5.905Zm1.176-2.704h.6c.325 0 .565-.072.72-.216.16-.144.24-.35.24-.616 0-.277-.083-.47-.248-.576-.16-.112-.398-.168-.712-.168h-.6v1.576ZM10.662 18v-5.216h1.44c.506 0 .946.09 1.32.272.378.181.671.464.88.848.207.379.312.867.312 1.464s-.105 1.09-.313 1.48a1.99 1.99 0 0 1-.856.872c-.367.187-.792.28-1.271.28h-1.512Zm1.183-.952h.192c.278 0 .518-.053.72-.16.203-.107.36-.283.473-.528.117-.245.175-.576.175-.992 0-.416-.058-.741-.175-.976a.994.994 0 0 0-.473-.504 1.593 1.593 0 0 0-.72-.152h-.192v3.312ZM15.738 18v-5.216h3.464v.992h-2.288v1.208h1.952v.992h-1.952V18h-1.176Z"/></svg>