<svg xmlns="http://www.w3.org/2000/svg" width="16" height="16" fill="none"><path d="M1.292.05a.478.478 0 0 0-.277.357C.994.505.988 1.464.993 3.587c.006 2.802.011 3.046.052 3.122.061.11.218.246.309.266l.105.026c.063.019.304-.061.372-.124a.65.65 0 0 0 .119-.17c.046-.102.049-.242.049-2.9L2 1.013h6.987v2.226c0 1.504.009 2.269.029 2.36.035.163.13.285.276.351.102.046.234.049 2.408.049L14 6v1.801c0 1.976-.006 1.897.163 2.057.159.15.346.182.545.092a.483.483 0 0 0 .278-.358c.02-.098.027-.77.021-2.18L15 5.373l-.072-.12c-.107-.18-5.102-5.16-5.227-5.212-.088-.036-.569-.041-4.2-.04-3.921 0-4.106.002-4.209.049m10.361 3.323 1.64 1.64H10v-1.64c0-.902.003-1.64.007-1.64.003 0 .744.738 1.646 1.64M1.049 7.807c.196.334 1.404 2.495 1.404 2.513 0 .014-.33.607-.733 1.318-.404.71-.741 1.311-.75 1.334-.014.037.052.041.597.041.458 0 .62-.008.64-.033.053-.066.667-1.292.794-1.587.071-.165.137-.297.147-.294.009.004.18.326.379.714.198.389.419.815.49.947l.13.24.646.007c.392.004.647-.003.647-.018 0-.014-.337-.607-.749-1.319l-.749-1.295.709-1.282c.39-.706.709-1.289.709-1.295 0-.007-.283-.009-.63-.005L4.1 7.8l-.29.613c-.159.338-.341.743-.403.9-.063.158-.123.287-.134.287-.012 0-.033-.033-.048-.073a33.71 33.71 0 0 0-.444-.907l-.416-.833h-.664c-.365 0-.659.009-.652.02m5.011 2.586L6.067 13l.489.007.49.008-.014-1.288a28.041 28.041 0 0 0-.055-1.74c-.023-.25-.048-.58-.056-.734l-.015-.28.212.76c.117.418.295 1.012.395 1.32l.182.56h.58L8.47 11c.108-.337.288-.934.401-1.327.112-.392.209-.708.214-.703.006.005-.008.218-.029.473a24.436 24.436 0 0 0-.108 2.49L8.947 13h.986l.007-2.607.007-2.606H8.704L8.419 8.82c-.157.568-.31 1.144-.341 1.28-.031.136-.065.247-.075.247-.01 0-.053-.141-.095-.314a64.218 64.218 0 0 0-.338-1.267c-.145-.525-.263-.96-.263-.967 0-.007-.282-.012-.627-.012h-.627l.007 2.606m5.193.007v2.613h3.494V12h-2.32V7.787h-1.174V10.4m-9.961 3.648a.485.485 0 0 0-.276.353c-.038.175-.038 1.023 0 1.198.035.163.13.285.276.351.104.047.362.049 6.708.049s6.604-.002 6.708-.049a.479.479 0 0 0 .276-.351c.038-.176.038-1.023 0-1.2-.094-.436-.651-.536-.907-.162-.057.083-.065.125-.072.434l-.009.342H2.004l-.009-.344c-.009-.381-.022-.414-.213-.569a.493.493 0 0 0-.49-.052" fill-rule="evenodd" fill="#000"/></svg>