<svg xmlns="http://www.w3.org/2000/svg" width="24" height="24" fill="none" viewBox="0 0 24 24"><path stroke="currentColor" stroke-linecap="square" d="M20.5 21v2.5h-17V21M3.5 10.5v-9h11l6 6v3"/><path stroke="currentColor" stroke-linecap="square" d="M14.5 2v5.5H20M22.5 10.5h-21v10h21v-10Z"/><path fill="currentColor" d="m6.5 18-1.575-5.216h1.248l.624 2.432c.08.288.149.568.208.84.064.267.133.544.208.832h.032c.085-.288.157-.565.216-.832.064-.272.133-.552.208-.84l.616-2.432h1.2L7.917 18H6.5Zm3.662 0v-5.216h1.44c.506 0 .946.09 1.32.272.378.181.672.464.88.848.208.379.312.867.312 1.464s-.104 1.09-.312 1.48a1.99 1.99 0 0 1-.856.872c-.368.187-.792.28-1.272.28h-1.512Zm1.184-.952h.192c.277 0 .517-.053.72-.16.202-.107.36-.283.472-.528.117-.245.176-.576.176-.992 0-.416-.06-.741-.176-.976a.995.995 0 0 0-.472-.504 1.593 1.593 0 0 0-.72-.152h-.192v3.312Zm3.892.952v-5.216h3.464v.992h-2.288v1.208h1.952v.992h-1.952V18h-1.176Z"/></svg>