<svg xmlns="http://www.w3.org/2000/svg" width="16" height="16" fill="none" viewBox="0 0 16 16"><path stroke="currentColor" fill="none" stroke-linecap="round" stroke-linejoin="round" d="M14.5 14v1.5h-13V14M1.5 7V.5h8l5 5v1"/><path stroke="currentColor" fill="none" stroke-linecap="round" stroke-linejoin="round" d="M9.5.5v5h5"/><path fill="currentColor" d="M3.189 13.096c-.352 0-.702-.064-1.048-.192a3.055 3.055 0 0 1-.936-.56l.68-.808c.197.16.413.29.648.392.24.101.485.152.736.152.25 0 .434-.043.552-.128a.385.385 0 0 0 .184-.328.409.409 0 0 0-.096-.288.763.763 0 0 0-.28-.192 9.934 9.934 0 0 0-.432-.192l-.672-.288a2.448 2.448 0 0 1-.544-.296 1.57 1.57 0 0 1-.416-.464 1.372 1.372 0 0 1-.152-.664c0-.288.08-.547.24-.776a1.74 1.74 0 0 1 .672-.56 2.208 2.208 0 0 1 1-.216c.314 0 .624.059.928.176.304.117.573.288.808.512l-.6.744a2.324 2.324 0 0 0-.544-.304 1.721 1.721 0 0 0-.656-.112.85.85 0 0 0-.472.12.394.394 0 0 0-.184.352c0 .101.037.187.112.256.074.07.176.13.304.184.128.053.274.112.44.176l.632.272c.234.085.434.192.6.32.165.123.293.275.384.456.09.181.136.395.136.64 0 .288-.08.555-.24.8a1.642 1.642 0 0 1-.688.592c-.299.15-.664.224-1.096.224ZM7.298 13 5.722 7.784H6.97l.624 2.432c.08.288.149.568.208.84.064.267.133.544.208.832h.032c.085-.288.157-.565.216-.832.064-.272.133-.552.208-.84l.616-2.432h1.2L8.714 13H7.298ZM13.143 13.096c-.443 0-.846-.099-1.209-.296a2.188 2.188 0 0 1-.864-.896c-.213-.4-.32-.893-.32-1.48 0-.581.107-1.075.32-1.48.214-.41.502-.723.864-.936.369-.213.777-.32 1.225-.32.351 0 .653.07.903.208.251.133.46.285.625.456l-.648.728a1.495 1.495 0 0 0-.368-.272 1.107 1.107 0 0 0-.512-.104.976.976 0 0 0-.609.208 1.348 1.348 0 0 0-.432.576c-.1.25-.152.55-.152.896 0 .357.046.664.136.92.091.25.23.443.416.576.187.133.416.2.688.2.102 0 .198-.013.289-.04a.498.498 0 0 0 .224-.12v-.896h-.76v-.96h1.816v2.4c-.177.165-.411.312-.705.44a2.26 2.26 0 0 1-.928.192Z"/></svg>