<svg xmlns="http://www.w3.org/2000/svg" width="16" height="16" fill="none" viewBox="0 0 16 16">
  <path fill="#1D1D1D" d="M11.27 13V7.768h3.16v.784h-2.232v1.48H14.1v.784h-1.904V13h-.927ZM6.27 13V7.768h1.4c.533 0 .989.096 1.367.288.38.192.67.48.872.864.203.384.304.864.304 1.44s-.1 1.061-.304 1.456c-.197.39-.482.685-.856.888-.373.197-.818.296-1.336.296H6.27Zm.927-.752h.408c.352 0 .651-.067.896-.2.251-.139.44-.347.568-.624.128-.277.192-.632.192-1.064 0-.427-.064-.776-.192-1.048a1.245 1.245 0 0 0-.568-.6c-.245-.128-.544-.192-.896-.192h-.408v3.728ZM2.884 13l-1.6-5.232h.984l.704 2.632c.054.197.104.39.152.576l.144.552.168.568h.032a113.748 113.748 0 0 0 .296-1.12c.054-.187.107-.379.16-.576l.76-2.632h.952L3.98 13H2.884Z"/>
  <path fill="#1D1D1D" fill-rule="evenodd" d="M1 0h8.707L15 5.293V7h-1V6H9V1H2v6H1V0Zm9 1.707L13.293 5H10V1.707ZM15 13v3H1v-2h1v1h12v-2h1Z" clip-rule="evenodd"/>
</svg>
