<svg xmlns="http://www.w3.org/2000/svg" width="16" height="16" fill="currentColor" viewBox="0 0 16 16">
  <path d="M11.728 13V8.552h-1.512v-.784h3.952v.784h-1.512V13h-.928ZM5.94 13l1.488-2.696-1.392-2.536h1.032l.576 1.16c.07.117.133.24.192.368s.128.272.208.432h.032c.064-.16.123-.304.176-.432.059-.128.117-.25.176-.368l.552-1.16h.984l-1.392 2.576L10.06 13H9.028l-.64-1.232c-.07-.139-.139-.275-.208-.408a15.95 15.95 0 0 0-.216-.448h-.032c-.064.16-.128.31-.192.448-.064.133-.128.27-.192.408L6.924 13H5.94ZM3.345 13V8.552H1.833v-.784h3.952v.784H4.273V13h-.928Z"/>
  <path fill-rule="evenodd" d="M1 0h8.707L15 5.293V7h-1V6H9V1H2v6H1V0Zm9 1.707L13.293 5H10V1.707ZM15 12v4H1v-2h1v1h12v-3h1Z" clip-rule="evenodd"/>
</svg>
