<svg width="24" height="24" fill="none" xmlns="http://www.w3.org/2000/svg"><path d="M3 5.5V10H1v11h2v3h18v-3h2V10h-2V7.3l-3.15-3.15L14.7 1H3v4.5M14 5v3h6v2H4V2h10v3m3.16-.14L19.3 7H15V4.86c0-1.177.005-2.14.01-2.14.006 0 .973.963 2.15 2.14M22 15.5V20H2v-9h20v4.5M6.949 12.718a1.96 1.96 0 0 0-1.083.517c-.547.515-.608 1.302-.146 1.885.179.226.484.41 1.147.695.842.36 1.002.447 1.072.583.213.413-.152.719-.799.67-.381-.029-.755-.178-1.193-.478-.062-.043-.085-.035-.16.056-.048.059-.199.242-.337.407l-.25.3.19.14c.531.389 1.14.587 1.808.587.688 0 1.18-.173 1.554-.547.295-.295.419-.581.44-1.013.021-.447-.076-.721-.354-.998-.22-.22-.427-.329-1.318-.698-.752-.31-.945-.456-.907-.688.051-.314.294-.435.814-.408.303.016.373.036.693.199l.355.181.286-.358.286-.357-.093-.1c-.381-.405-1.304-.669-2.005-.575m4.331.102c0 .011-.351 1.149-.781 2.53l-.803 2.58c-.02.065.026.07.581.07h.601l.028-.11.154-.61.125-.5.784-.011.784-.011.042.131c.023.072.079.284.125.471.047.187.102.408.124.49l.039.15h.621c.573 0 .62-.005.601-.07l-.785-2.53-.785-2.53c-.018-.063-.089-.07-.738-.07-.394 0-.717.009-.717.02M15 15.4V18h1.16v-1.76h.456c.884 0 1.481-.202 1.862-.629.268-.301.369-.57.393-1.045.024-.469-.06-.814-.263-1.079-.19-.249-.267-.312-.552-.45-.42-.204-.675-.236-1.926-.236L15 12.8v2.6m-2.743-.65c.145.576.263 1.057.263 1.069 0 .011-.245.021-.545.021h-.544l.024-.09c.031-.113.459-1.857.488-1.985.011-.052.028-.087.036-.079.009.008.134.487.278 1.064m5.121-.909c.252.127.342.291.341.618-.001.421-.185.691-.534.785a3.297 3.297 0 0 1-.585.05l-.42.006-.011-.795-.011-.795.512.016c.445.014.536.029.708.115M20 22v1H4v-2h16v1" fill-rule="evenodd" fill="#000"/></svg>