<svg xmlns="http://www.w3.org/2000/svg" width="16" height="16" fill="none" viewBox="0 0 16 16"><path fill="currentColor" fill-rule="evenodd" d="M1.5 0H1v7h1V1h7v5h5v1h1V5.293l-.146-.147-5-5L9.707 0H1.5ZM10 5V1.707L13.293 5H10Zm5 7.5V12h-1v3H2v-1H1v2h14v-3.5Zm-12.86.404c.347.128.697.192 1.049.192.432 0 .797-.075 1.096-.224.304-.15.533-.347.688-.592.16-.245.24-.512.24-.8 0-.245-.046-.459-.136-.64a1.267 1.267 0 0 0-.384-.456 2.201 2.201 0 0 0-.6-.32l-.632-.272a18.847 18.847 0 0 1-.44-.176 1.02 1.02 0 0 1-.304-.184.336.336 0 0 1-.112-.256c0-.155.061-.272.184-.352a.85.85 0 0 1 .472-.12c.256 0 .474.037.656.112.181.07.362.17.544.304l.6-.744a2.421 2.421 0 0 0-.808-.512 2.558 2.558 0 0 0-.928-.176c-.379 0-.712.072-1 .216a1.74 1.74 0 0 0-.672.56c-.16.23-.24.488-.24.776 0 .256.05.477.152.664.106.181.245.336.416.464.17.123.352.221.544.296l.672.288c.165.07.309.133.432.192a.76.76 0 0 1 .28.192c.064.07.096.165.096.288a.385.385 0 0 1-.184.328c-.118.085-.302.128-.552.128-.251 0-.496-.05-.736-.152a2.762 2.762 0 0 1-.648-.392l-.68.808c.282.245.594.432.936.56ZM7.41 13V8.776H5.85v-.992h4.304v.992h-1.56V13H7.41Zm3.588 0V7.784h1.848c.38 0 .72.053 1.024.16.31.101.555.275.736.52.187.245.28.579.28 1 0 .405-.093.739-.28 1a1.684 1.684 0 0 1-.744.584c-.309.123-.648.184-1.016.184h-.672V13h-1.176Zm1.176-2.704h.6c.326 0 .566-.072.72-.216.16-.144.24-.35.24-.616 0-.277-.082-.47-.248-.576-.16-.112-.397-.168-.712-.168h-.6v1.576Z" clip-rule="evenodd"/></svg>