<svg xmlns="http://www.w3.org/2000/svg" width="24" height="24" fill="none"><path d="M3.252 1.078C2.984 1.242 3 .948 3 5.698V10h-.81c-.733 0-.822.008-.938.078-.27.165-.252-.215-.252 5.43 0 5 .002 5.115.078 5.24.142.232.229.252 1.12.252H3v1.31c0 1.229.005 1.318.078 1.438.167.274-.638.252 9.422.252s9.255.022 9.422-.252c.073-.12.078-.209.078-1.438V21h.81c.733 0 .822-.008.938-.078.27-.165.252.214.252-5.422s.018-5.257-.252-5.422c-.116-.07-.205-.078-.938-.078H22V7.301L18.85 4.15 15.699 1H9.54c-6.039 0-6.163.002-6.288.078M15 4.81c0 2.716.003 2.814.078 2.938.161.263.028.252 3.12.252H21v2H4V2h11v2.81m3.16.05L20.3 7H16V4.86c0-1.177.005-2.14.01-2.14.006 0 .973.963 2.15 2.14M23 15.5V20H2v-9h21v4.5m-5.827-2.761c-.895.163-1.585.853-1.838 1.841-.106.414-.096 1.329.018 1.752.127.466.329.818.648 1.126.827.799 2.183.847 3.149.111l.13-.098V15.08h-1.843l.012.47.011.47.37.012.37.011v.91l-.18.069a.853.853 0 0 1-.415.048c-.751-.068-1.123-.622-1.124-1.67 0-1.035.453-1.68 1.181-1.68.299 0 .461.051.703.222l.186.131.294-.339c.162-.186.3-.353.307-.372.021-.06-.328-.325-.612-.464a1.987 1.987 0 0 0-.56-.177c-.349-.049-.448-.047-.807.018M5.92 15.4V18h1.16v-1.749l.59-.021c.49-.017.645-.039.916-.126.565-.182.947-.535 1.122-1.038.109-.311.097-.971-.023-1.274a1.483 1.483 0 0 0-.698-.751c-.422-.208-.68-.24-1.937-.24L5.92 12.8v2.6m4.72-.001V18h1.12v-1.127c0-.88-.018-1.285-.082-1.845-.046-.394-.076-.723-.067-.732.008-.008.12.25.249.574.129.325.474 1.157.765 1.85l.531 1.26.602.011.602.011V12.8h-1.12v1.09c.001.82.02 1.267.08 1.806.044.394.079.745.078.78 0 .035-.161-.332-.355-.816-.195-.484-.542-1.321-.772-1.86l-.417-.98-.607-.011-.607-.011v2.601m-2.561-1.636c.099.023.24.088.314.145.434.33.268 1.147-.27 1.327a3.53 3.53 0 0 1-.59.071l-.453.026V13.72l.41.001c.225.001.491.02.589.042M21 22v1H4v-2h17v1" fill-rule="evenodd" fill="#000"/></svg>