<svg xmlns="http://www.w3.org/2000/svg" width="16" height="16" fill="none" viewBox="0 0 16 16"><path stroke="currentColor" stroke-linecap="round" stroke-linejoin="round" d="M14.5 14v1.5h-13v-1M1.5 6.5v-6h8l5 5v1"/><path stroke="currentColor" stroke-linecap="round" stroke-linejoin="round" d="M9.5.5v5h5"/><path fill="currentColor" d="M1.365 13V7.784h1.44c.506 0 .946.09 1.32.272.378.181.672.464.88.848.208.379.312.867.312 1.464s-.104 1.09-.312 1.48a1.99 1.99 0 0 1-.856.872c-.368.187-.792.28-1.272.28H1.365Zm1.184-.952h.192c.277 0 .517-.053.72-.16.202-.107.36-.283.472-.528.117-.245.176-.576.176-.992 0-.416-.059-.741-.176-.976a.994.994 0 0 0-.472-.504 1.593 1.593 0 0 0-.72-.152h-.192v3.312ZM8.002 13.096c-.416 0-.782-.104-1.096-.312-.315-.208-.56-.512-.736-.912-.176-.405-.264-.907-.264-1.504 0-.581.088-1.07.264-1.464.176-.4.42-.701.736-.904.314-.208.68-.312 1.096-.312.416 0 .78.104 1.096.312.314.203.56.504.736.904.176.395.264.883.264 1.464 0 .597-.088 1.099-.264 1.504-.176.4-.422.704-.736.912-.315.208-.68.312-1.096.312Zm0-1.016a.659.659 0 0 0 .472-.192c.133-.133.234-.325.304-.576.074-.256.112-.57.112-.944 0-.363-.038-.667-.112-.912-.07-.245-.171-.432-.304-.56a.659.659 0 0 0-.472-.192.659.659 0 0 0-.472.192c-.134.128-.238.315-.312.56-.07.245-.104.55-.104.912 0 .373.034.688.104.944.074.25.178.443.312.576.133.128.29.192.472.192ZM13.246 13.096a2.58 2.58 0 0 1-.928-.168 2.209 2.209 0 0 1-.768-.504 2.45 2.45 0 0 1-.528-.84 3.245 3.245 0 0 1-.192-1.16c0-.576.11-1.067.328-1.472.224-.41.523-.723.896-.936.38-.219.8-.328 1.264-.328.331 0 .63.07.896.208.267.133.488.285.664.456l-.648.728a1.364 1.364 0 0 0-.408-.272 1.15 1.15 0 0 0-.504-.104c-.245 0-.464.07-.656.208a1.35 1.35 0 0 0-.456.576c-.112.25-.168.55-.168.896 0 .357.056.664.168.92.112.25.267.443.464.576.203.133.435.2.696.2.192 0 .366-.043.52-.128a1.68 1.68 0 0 0 .424-.336l.648.712c-.213.25-.464.443-.752.576a2.338 2.338 0 0 1-.96.192Z"/></svg>