<svg xmlns="http://www.w3.org/2000/svg" width="16" height="16" fill="none"><path d="M1.292.05a.479.479 0 0 0-.277.356C.994.505.988 1.536.993 3.84c.008 3.67-.009 3.365.192 3.541.23.202.623.119.758-.161L2 7.103v-6.09h6.987v2.226c0 1.504.009 2.269.029 2.36.035.163.13.285.276.351.102.046.234.049 2.408.049L14 6v1.801c0 1.976-.006 1.897.163 2.057.159.15.346.182.545.092a.483.483 0 0 0 .278-.358c.02-.098.027-.77.021-2.18L15 5.373l-.072-.12c-.107-.18-5.102-5.16-5.227-5.212-.088-.036-.569-.041-4.2-.04-3.921 0-4.106.002-4.209.049m10.361 3.323 1.64 1.64H10v-1.64c0-.902.003-1.64.007-1.64.003 0 .744.738 1.646 1.64M2.994 7.708c-.242.03-.555.133-.781.258-.244.136-.556.454-.659.674a1.376 1.376 0 0 0 .204 1.526c.187.211.453.364 1.168.671.959.411 1.046.472 1.067.742.01.116.001.157-.051.234-.127.186-.334.267-.683.267-.372-.001-.77-.135-1.154-.388a6.569 6.569 0 0 0-.226-.145c-.002 0-.151.174-.331.388-.185.22-.32.403-.312.424.007.019.089.09.182.156a3.004 3.004 0 0 0 1.915.571c.622-.024 1.054-.192 1.417-.551.317-.315.459-.649.456-1.074-.004-.508-.201-.871-.626-1.154-.141-.093-.682-.337-1.282-.577-.38-.152-.505-.221-.603-.333-.082-.092-.087-.109-.076-.255.009-.133.024-.169.101-.248a.628.628 0 0 1 .218-.136c.166-.055.583-.053.802.004.155.04.479.191.647.302l.08.053.289-.361c.158-.198.282-.376.275-.394-.022-.059-.361-.297-.56-.395a2.714 2.714 0 0 0-1.477-.259m4.734.001a1.884 1.884 0 0 0-1.369.849c-.313.484-.447 1.023-.448 1.802-.001.874.17 1.501.542 1.991.218.288.551.535.849.628.134.043.148.055.224.207.297.59.74.978 1.314 1.149.207.062.291.073.613.075.319.003.401-.005.56-.056a1.8 1.8 0 0 0 .221-.082c.048-.032-.155-.874-.21-.868-.02.002-.109.023-.197.047-.189.052-.367.039-.64-.044a.654.654 0 0 1-.34-.21.876.876 0 0 1-.154-.179c0-.014.075-.062.167-.105.626-.296 1.028-.902 1.182-1.78.065-.365.065-1.154.002-1.505-.242-1.337-1.1-2.048-2.316-1.919m3.525 2.691v2.613h3.494V12h-2.32V7.787h-1.174V10.4M8.337 8.799c.258.148.449.539.518 1.058.041.307.017 1.099-.041 1.37-.053.243-.188.54-.31.679a.678.678 0 0 1-1.008 0c-.127-.145-.259-.44-.315-.706-.068-.324-.068-1.281 0-1.587.061-.277.173-.511.317-.668.154-.168.281-.224.515-.224.159 0 .208.011.324.078m-6.948 4.713a.558.558 0 0 0-.328.255c-.059.109-.061.141-.069.893-.006.514.001.831.021.927a.482.482 0 0 0 .279.363c.104.047.362.049 6.708.049s6.604-.002 6.708-.049a.479.479 0 0 0 .276-.351c.038-.176.038-1.023 0-1.2-.094-.436-.651-.536-.907-.162-.057.083-.065.125-.072.434l-.009.342H2.004l-.009-.597-.008-.598-.083-.102a.727.727 0 0 0-.16-.147.637.637 0 0 0-.355-.057" fill-rule="evenodd" fill="#000"/></svg>