<svg xmlns="http://www.w3.org/2000/svg" width="24" height="24" fill="none"><path d="M3.252 1.078C2.984 1.242 3 .948 3 5.698V10h-.81c-.733 0-.822.008-.938.078-.27.165-.252-.215-.252 5.43 0 5 .002 5.115.078 5.24.142.232.229.252 1.12.252H3v1.31c0 1.229.005 1.318.078 1.438.167.274-.638.252 9.422.252s9.255.022 9.422-.252c.073-.12.078-.209.078-1.438V21h.81c.733 0 .822-.008.938-.078.27-.165.252.214.252-5.422s.018-5.257-.252-5.422c-.116-.07-.205-.078-.938-.078H22V7.301L18.85 4.15 15.699 1H9.54c-6.039 0-6.163.002-6.288.078M15 4.81c0 2.716.003 2.814.078 2.938.161.263.028.252 3.12.252H21v2H4V2h11v2.81m3.16.05L20.3 7H16V4.86c0-1.177.005-2.14.01-2.14.006 0 .973.963 2.15 2.14M23 15.5V20H2v-9h21v4.5m-5.827-2.761c-.895.163-1.585.853-1.838 1.841-.106.414-.096 1.329.018 1.752.127.466.329.818.648 1.126.827.799 2.183.847 3.149.111l.13-.098V15.08h-1.843l.012.47.011.47.37.012.37.011v.91l-.18.069a.853.853 0 0 1-.415.048c-.751-.068-1.123-.622-1.124-1.67 0-1.035.453-1.68 1.181-1.68.299 0 .461.051.703.222l.186.131.294-.339c.162-.186.3-.353.307-.372.021-.06-.328-.325-.612-.464a1.987 1.987 0 0 0-.56-.177c-.349-.049-.448-.047-.807.018M5.76 15.399V18h1.012l-.024-1.27a36.604 36.604 0 0 0-.088-1.985 9.06 9.06 0 0 1-.048-.73c.008-.009.09.268.183.613.092.346.267.941.389 1.322l.221.693.286-.011.285-.012.192-.6c.105-.33.285-.928.399-1.329.114-.401.213-.724.22-.717.007.007-.005.2-.027.429-.08.846-.12 1.72-.12 2.646V18h1v-5.2H8.406l-.061.21c-.186.649-.508 1.84-.548 2.03-.077.368-.099.356-.218-.125-.062-.25-.215-.824-.341-1.275l-.228-.82-.625-.011-.625-.011v2.601m4.92.001V18h1.2v-1.749l.59-.021c.488-.017.646-.039.913-.125.631-.203 1.028-.617 1.16-1.212.181-.814-.122-1.547-.766-1.855-.437-.208-.672-.237-1.947-.237l-1.15-.001v2.6m2.191-1.638a.935.935 0 0 1 .341.162c.4.329.251 1.09-.253 1.292-.093.037-.352.075-.619.09l-.46.026V13.72h.398c.219 0 .486.019.593.042M21 22v1H4v-2h17v1" fill-rule="evenodd" fill="#000"/></svg>