<svg xmlns="http://www.w3.org/2000/svg" width="24" height="24" fill="none" viewBox="0 0 24 24"><path stroke="currentColor" stroke-linecap="round" stroke-linejoin="round" d="M21.5 21v2.5h-18V21M3.5 10.5v-9h12l6 6v3"/><path stroke="currentColor" stroke-linecap="round" stroke-linejoin="round" d="M15.5 1.5v6h6M23.5 10.5h-22v10h22v-10Z"/><path fill="currentColor" d="M6.04 18v-5.216h3.457v.992H7.225v1.048h1.928v.984H7.225v1.2h2.352V18H6.04ZM10.702 18v-5.216h1.848c.378 0 .72.053 1.024.16.309.101.554.275.736.52.186.245.28.579.28 1 0 .405-.094.739-.28 1a1.685 1.685 0 0 1-.744.584c-.31.123-.648.184-1.016.184h-.672V18h-1.176Zm1.176-2.704h.6c.325 0 .565-.072.72-.216.16-.144.24-.35.24-.616 0-.277-.083-.47-.248-.576-.16-.112-.398-.168-.712-.168h-.6v1.576ZM17.282 18.096c-.352 0-.7-.064-1.047-.192a3.055 3.055 0 0 1-.936-.56l.68-.808c.197.16.413.29.648.392.24.101.485.152.736.152.25 0 .434-.043.552-.128a.386.386 0 0 0 .184-.328.408.408 0 0 0-.096-.288.761.761 0 0 0-.28-.192 9.738 9.738 0 0 0-.432-.192l-.672-.288a2.45 2.45 0 0 1-.544-.296 1.57 1.57 0 0 1-.416-.464 1.371 1.371 0 0 1-.152-.664c0-.288.08-.547.24-.776a1.74 1.74 0 0 1 .672-.56 2.208 2.208 0 0 1 1-.216c.314 0 .623.059.927.176.305.117.574.288.808.512l-.6.744a2.326 2.326 0 0 0-.543-.304 1.721 1.721 0 0 0-.656-.112c-.192 0-.35.04-.473.12a.394.394 0 0 0-.184.352c0 .101.038.187.113.256.074.07.175.13.303.184.128.053.275.112.44.176l.633.272c.234.085.434.192.6.32.165.123.293.275.384.456.09.181.136.395.136.64 0 .288-.08.555-.24.8a1.643 1.643 0 0 1-.689.592c-.298.15-.663.224-1.096.224Z"/></svg>