<svg xmlns="http://www.w3.org/2000/svg" width="24" height="24" fill="none" viewBox="0 0 24 24"><path stroke="currentColor" stroke-linecap="round" stroke-linejoin="round" d="M21.5 21v2.5h-18V21M3.5 10.5v-9h12l6 6v3"/><path stroke="currentColor" stroke-linecap="round" stroke-linejoin="round" d="M15.5 1.5v6h6M23.5 10.5h-22v10h22v-10Z"/><path fill="currentColor" d="M7.113 18v-4.224h-1.56v-.992h4.304v.992h-1.56V18H7.113ZM10.245 18l1.52-2.68-1.431-2.536h1.32l.504.984c.058.117.12.245.184.384.063.139.135.29.215.456h.032c.06-.165.118-.317.176-.456.06-.139.118-.267.176-.384l.464-.984h1.264l-1.431 2.592L14.758 18h-1.313l-.568-1.064c-.069-.139-.138-.275-.208-.408a110.45 110.45 0 0 0-.208-.448h-.031c-.064.16-.128.31-.192.448-.064.133-.128.27-.192.408L11.502 18h-1.257ZM16.706 18v-4.224h-1.56v-.992h4.304v.992h-1.56V18h-1.184Z"/></svg>