<svg xmlns="http://www.w3.org/2000/svg" width="24" height="24" fill="none"><path d="M3.252 1.078C2.984 1.242 3 .948 3 5.698V10h-.81c-.733 0-.822.008-.938.078-.27.165-.252-.215-.252 5.43 0 5 .002 5.115.078 5.24.142.232.229.252 1.12.252H3v1.31c0 1.229.005 1.318.078 1.438.167.274-.638.252 9.422.252s9.255.022 9.422-.252c.073-.12.078-.209.078-1.438V21h.81c.733 0 .822-.008.938-.078.27-.165.252.214.252-5.422s.018-5.257-.252-5.422c-.116-.07-.205-.078-.938-.078H22V7.301L18.85 4.15 15.699 1H9.54c-6.039 0-6.163.002-6.288.078M15 4.81c0 2.716.003 2.814.078 2.938.161.263.028.252 3.12.252H21v2H4V2h11v2.81m3.16.05L20.3 7H16V4.86c0-1.177.005-2.14.01-2.14.006 0 .973.963 2.15 2.14M23 15.5V20H2v-9h21v4.5M7.32 12.722a2.385 2.385 0 0 0-.513.182c-.541.265-.896.743-1.093 1.476-.126.466-.127 1.488-.003 1.989.276 1.108.979 1.715 1.989 1.715.616 0 1.039-.178 1.431-.601.259-.28.433-.614.555-1.063.119-.44.131-1.523.021-1.991-.085-.365-.322-.859-.524-1.095a2.021 2.021 0 0 0-.826-.538 2.627 2.627 0 0 0-1.037-.074m3.04.578v.5h1.56V18h1.16v-4.2h1.56v-1h-4.28v.5m5.36 2.1V18h1.2v-1.999l.97-.01.97-.011.011-.49.011-.49H16.92v-1.2h2.28v-1h-3.48v2.6m-7.724-1.622c.31.16.502.563.571 1.203.114 1.041-.203 1.988-.697 2.08-.469.087-.824-.231-.969-.869-.083-.364-.082-1.266.002-1.635.073-.317.25-.61.453-.746a.73.73 0 0 1 .64-.033M21 22v1H4v-2h17v1" fill-rule="evenodd" fill="#000"/></svg>