<svg xmlns="http://www.w3.org/2000/svg" width="24" height="24" fill="none" viewBox="0 0 24 24"><path stroke="currentColor" stroke-linecap="round" stroke-linejoin="round" d="M21.5 21v2.5h-18V21M3.5 10.5v-9h12l6 6v3"/><path stroke="currentColor" stroke-linecap="round" stroke-linejoin="round" d="M15.5 1.5v6h6M23.5 10.5h-22v10h22v-10Z"/><path fill="currentColor" d="m5.449 18 1.52-2.68-1.432-2.536h1.32l.504.984c.058.117.12.245.184.384s.136.29.216.456h.032c.058-.165.117-.317.176-.456.058-.139.117-.267.176-.384l.464-.984h1.264L8.44 15.376 9.96 18H8.649l-.568-1.064c-.07-.139-.139-.275-.208-.408l-.208-.448h-.032c-.064.16-.128.31-.192.448-.064.133-.128.27-.192.408L6.705 18H5.449ZM10.566 18v-5.216h1.232l.512 1.848.176.72h.032l.176-.72.512-1.848h1.232V18h-.992v-1.616c0-.144.005-.323.016-.536.01-.219.024-.445.04-.68l.048-.672c.02-.213.037-.39.048-.528h-.024l-.4 1.392-.4 1.256h-.576l-.408-1.256-.376-1.392h-.024l.04.528c.02.213.04.437.056.672.016.235.029.461.04.68.01.213.016.392.016.536V18h-.976ZM15.755 18v-5.216h1.175v4.224h2.32V18h-3.495Z"/></svg>