<svg xmlns="http://www.w3.org/2000/svg" width="24" height="24" fill="none" viewBox="0 0 24 24"><path stroke="currentColor" stroke-linecap="round" stroke-linejoin="round" d="M21.5 21v2.5h-18V21M3.5 10.5v-9h12l6 6v3"/><path stroke="currentColor" stroke-linecap="round" stroke-linejoin="round" d="M15.5 1.5v6h6M23.5 10.5h-22v10h22v-10Z"/><path fill="currentColor" d="M5.753 18v-.712l2.44-3.52H5.985v-.984h3.664v.712l-2.44 3.512H9.68V18H5.753ZM10.694 18v-.992h1.216v-3.232h-1.216v-.992h3.616v.992h-1.216v3.232h1.216V18h-3.616ZM15.498 18v-5.216h1.848c.38 0 .72.053 1.024.16.31.101.555.275.736.52.187.245.28.579.28 1 0 .405-.093.739-.28 1a1.684 1.684 0 0 1-.744.584c-.309.123-.648.184-1.016.184h-.672V18h-1.176Zm1.176-2.704h.6c.326 0 .566-.072.72-.216.16-.144.24-.35.24-.616 0-.277-.082-.47-.248-.576-.16-.112-.397-.168-.712-.168h-.6v1.576Z"/></svg>