<svg xmlns="http://www.w3.org/2000/svg" width="16" height="16" fill="currentColor">
  <path d="M12.854 13V9.076h.696v3.336h1.632V13h-2.328ZM8.384 13V9.076h.834l.672 1.92a8.879 8.879 0 0 1 .228.768h.024c.036-.144.07-.276.102-.396.036-.124.074-.248.114-.372l.672-1.92h.828V13h-.642v-1.788c0-.124.004-.266.012-.426a17.402 17.402 0 0 1 .09-.894h-.024l-.312.996-.636 1.752h-.468l-.636-1.752-.3-.996h-.024c.016.12.03.26.042.42.016.156.028.314.036.474.012.16.018.302.018.426V13h-.63ZM5.9 13V9.664H4.766v-.588H7.73v.588H6.596V13H5.9ZM1.13 13V9.076h.696v1.578h1.59V9.076h.696V13h-.696v-1.74h-1.59V13H1.13Z"/>
  <path fill-rule="evenodd" d="M1 14h1v1h12v-1h1v2H1v-2ZM1 0h8.707L15 5.293V8h-1V6H9V1H2v7H1V0Zm9 1.707L13.293 5H10V1.707Z" clip-rule="evenodd"/>
</svg>
