<svg xmlns="http://www.w3.org/2000/svg" width="16" height="16" fill="none"><path d="M1.292.05a.478.478 0 0 0-.277.357C.994.505.988 1.464.993 3.587c.006 2.802.011 3.046.052 3.122.061.11.218.246.309.266l.105.026c.063.019.304-.061.372-.124a.65.65 0 0 0 .119-.17c.046-.102.049-.242.049-2.9L2 1.013h6.987v2.226c0 1.504.009 2.269.029 2.36.035.163.13.285.276.351.102.046.234.049 2.408.049L14 6l.001.3c0 .329.037.457.168.577.133.123.399.152.568.062a.707.707 0 0 0 .243-.293c.011-.04.02-.343.02-.673v-.6l-.072-.12c-.107-.18-5.102-5.16-5.227-5.212-.088-.036-.569-.041-4.2-.04-3.921 0-4.106.002-4.209.049m10.361 3.323 1.64 1.64H10v-1.64c0-.902.003-1.64.007-1.64.003 0 .744.738 1.646 1.64m1.223 4.335c-1.093.119-1.865.891-2.079 2.079a4.653 4.653 0 0 0-.036.64c0 .472.031.709.139 1.053.174.556.53 1.02.993 1.295.209.123.58.251.854.294.276.043.762.017 1.013-.055.26-.074.637-.26.847-.417l.166-.126V10.08H12.96v.96h.747v.91l-.127.056a1.057 1.057 0 0 1-.317.068c-.575.038-1.027-.294-1.191-.874-.111-.392-.127-1.083-.033-1.464.136-.552.532-.957.988-1.012.342-.041.646.044.885.248.06.052.116.095.123.095.007 0 .154-.158.327-.35.255-.285.309-.358.286-.394-.05-.08-.392-.322-.607-.429-.345-.173-.727-.234-1.165-.186m-11.163.565.007.487 1.02.007 1.02.007-.001 1.233c0 .678-.012 1.314-.026 1.414-.015.099-.057.24-.093.313-.185.365-.756.455-1.213.192a1.983 1.983 0 0 1-.299-.24l-.179-.172-.209.223-.338.362-.128.14.112.134c.241.288.5.464.867.588.427.145.87.172 1.32.08.745-.154 1.203-.65 1.332-1.442.017-.108.028-.854.028-1.992v-1.82H1.705l.008.486m4.48 2.12L6.2 13h1.173l.007-.884.007-.883.58-.013c.488-.011.614-.022.793-.071.628-.173 1.054-.54 1.238-1.069.086-.244.107-.79.044-1.076-.127-.569-.521-.953-1.139-1.109-.372-.094-.595-.108-1.665-.108H6.186l.007 2.606m2.27-1.612c.191.062.327.168.396.309.051.102.061.167.061.379 0 .231-.008.27-.081.413a.74.74 0 0 1-.434.362 3.752 3.752 0 0 1-.558.042l-.46.012V8.714l.473.013c.327.008.513.025.603.054m-7.074 4.731a.558.558 0 0 0-.328.255c-.059.109-.061.141-.069.893-.006.514.001.831.021.927a.482.482 0 0 0 .279.363c.104.047.362.049 6.708.049s6.604-.002 6.708-.049a.482.482 0 0 0 .279-.363c.02-.096.027-.413.021-.927L15 13.88l-.071-.12a.49.49 0 0 0-.44-.249c-.164.002-.276.061-.393.205l-.083.102-.008.598-.009.597H2.004l-.009-.597-.008-.598-.083-.102a.727.727 0 0 0-.16-.147.637.637 0 0 0-.355-.057" fill-rule="evenodd" fill="#000"/></svg>