<svg xmlns="http://www.w3.org/2000/svg" width="16" height="16" fill="none"><path d="M1.292.05a.479.479 0 0 0-.276.351c-.041.189-.041 7.009 0 7.198.035.163.13.285.276.351.199.09.386.058.545-.092.173-.164.163.064.163-3.55V1.013h6.987v2.226c0 1.504.009 2.269.029 2.36.035.163.13.285.276.351.102.046.234.049 2.408.049L14 6l.001.3c0 .329.037.457.168.577.133.123.399.152.568.062a.707.707 0 0 0 .243-.293c.011-.04.02-.343.02-.673v-.6l-.072-.12c-.107-.18-5.102-5.16-5.227-5.212-.088-.036-.569-.041-4.2-.04-3.921 0-4.106.002-4.209.049m10.361 3.323 1.64 1.64H10v-1.64c0-.902.003-1.64.007-1.64.003 0 .744.738 1.646 1.64M2.498 7.807c-.01.017-1.573 5.023-1.611 5.16-.012.043.028.046.59.046.332 0 .603-.006.603-.014 0-.017.228-.904.282-1.099l.039-.14h1.565l.109.42.159.62.049.2.622.007.621.007-.012-.06c-.007-.033-.371-1.21-.809-2.614l-.796-2.553h-.7c-.384 0-.705.009-.711.02m3.236 0c0 .011.352 1.184.782 2.606L7.297 13l.699.007.698.007.027-.06c.032-.072 1.546-5.109 1.546-5.143 0-.014-.261-.024-.595-.024h-.594l-.487 1.94c-.567 2.254-.544 2.166-.564 2.166-.009 0-.074-.237-.145-.526-.07-.29-.253-1.013-.405-1.607l-.391-1.527-.113-.446h-.62c-.341 0-.62.009-.619.02m5.253.473v.493h1.226V12h-1.228l.008.5.007.5h3.6l.007-.5.008-.5h-1.228V8.773h1.226v-.986h-3.626v.493m-7.774.473c.02.091.491 1.971.51 2.04l.017.06h-.55c-.303 0-.55-.006-.55-.013 0-.007.089-.37.198-.807.108-.436.225-.916.26-1.066.062-.275.089-.325.115-.214m-1.921 5.295a.485.485 0 0 0-.276.353c-.038.175-.038 1.023 0 1.198.035.163.13.285.276.351.104.047.362.049 6.708.049s6.604-.002 6.708-.049a.479.479 0 0 0 .276-.351c.038-.176.038-1.023 0-1.2-.094-.436-.651-.536-.907-.162-.057.083-.065.125-.072.434l-.009.342H2.004l-.009-.344c-.009-.381-.022-.414-.213-.569a.493.493 0 0 0-.49-.052" fill-rule="evenodd" fill="#000"/></svg>