<svg xmlns="http://www.w3.org/2000/svg" width="16" height="16" fill="none" viewBox="0 0 16 16"><path stroke="currentColor" fill="none" stroke-linecap="round" stroke-linejoin="round" d="M14.5 14.5v1h-13v-1M1.5 7V.5h8l5 5V8"/><path stroke="currentColor" fill="none" stroke-linecap="round" stroke-linejoin="round" d="M9.5.5v5h5"/><path fill="currentColor" d="M.653 13V8.436h1.03V10.2h1.245V8.436h1.03V13h-1.03v-1.904H1.682V13H.653ZM5.585 13V9.304H4.22v-.868h3.766v.868H6.62V13H5.585ZM8.206 13V8.436h1.078l.448 1.617.154.63h.028l.154-.63.448-1.617h1.078V13h-.868v-1.414c0-.126.005-.282.014-.469.01-.191.021-.39.035-.595l.042-.588c.019-.187.033-.34.042-.462h-.021l-.35 1.218-.35 1.099h-.504l-.357-1.099-.329-1.218h-.021l.035.462c.019.187.035.383.049.588.014.205.026.404.035.595.01.187.014.343.014.469V13h-.854ZM12.346 13V8.436h1.03v3.696h2.03V13h-3.06Z"/></svg>