<svg xmlns="http://www.w3.org/2000/svg" width="16" height="16" fill="none" viewBox="0 0 16 16"><path stroke="currentColor" stroke-linecap="round" stroke-linejoin="round" d="M14.5 14.5v1h-13v-1M1.5 6.5v-6h8l5 5v1"/><path stroke="currentColor" stroke-linecap="round" stroke-linejoin="round" d="M9.5.5v5h5"/><path fill="currentColor" d="M1.54 13V7.784h3.457v.992H2.725v1.048h1.928v.984H2.725v1.2h2.352V13H1.54ZM5.746 13l1.52-2.68-1.432-2.536h1.32l.504.984c.058.117.12.245.184.384s.136.29.216.456h.032c.058-.165.117-.317.176-.456.058-.139.117-.267.176-.384l.464-.984h1.264l-1.432 2.592L10.258 13H8.946l-.568-1.064-.208-.408-.208-.448H7.93c-.064.16-.128.31-.192.448-.064.133-.128.27-.192.408L7.002 13H5.746ZM11.134 13V7.784h3.457v.992h-2.272v1.048h1.927v.984h-1.928v1.2h2.353V13h-3.537Z"/></svg>