<svg xmlns="http://www.w3.org/2000/svg" width="16" height="16" fill="none"><path d="M1.292.05a.479.479 0 0 0-.276.351c-.041.189-.041 7.009 0 7.198.035.163.13.285.276.351.199.09.386.058.545-.092.173-.164.163.064.163-3.55V1.013h6.987v2.226c0 1.504.009 2.269.029 2.36.035.163.13.285.276.351.102.046.234.049 2.408.049L14 6l.001.3c0 .329.037.457.168.577.133.123.399.152.568.062a.707.707 0 0 0 .243-.293c.011-.04.02-.343.02-.673v-.6l-.072-.12c-.107-.18-5.102-5.16-5.227-5.212-.088-.036-.569-.041-4.2-.04-3.921 0-4.106.002-4.209.049m10.361 3.323 1.64 1.64H10v-1.64c0-.902.003-1.64.007-1.64.003 0 .744.738 1.646 1.64M3.56 7.697c-.947.08-1.65.547-2.041 1.355-.325.673-.376 1.687-.121 2.436.21.617.61 1.088 1.149 1.354.32.158.591.224 1.001.243.669.031 1.169-.144 1.62-.567l.201-.188-.302-.332-.323-.355c-.012-.013-.082.031-.159.1a1.25 1.25 0 0 1-.735.329c-.644.044-1.147-.354-1.336-1.059-.067-.249-.066-1.009.002-1.251.118-.424.399-.792.724-.951.151-.073.179-.078.493-.078.308 0 .346.006.49.074.086.04.216.116.288.17l.132.097.128-.144.316-.357.19-.213-.072-.075c-.095-.099-.451-.326-.663-.422a2.195 2.195 0 0 0-.982-.166m4.245.011c-.46.054-.841.233-1.155.544-.316.314-.437.59-.437 1.001 0 .484.211.869.633 1.157.108.074.463.246.88.427.788.342.912.408.997.527.091.127.099.331.019.449-.14.205-.378.284-.782.259-.38-.024-.739-.156-1.101-.409a2.404 2.404 0 0 0-.177-.116c-.005 0-.16.179-.345.398L6 12.343l.117.096c.306.251.755.466 1.211.581.332.084 1.038.083 1.352-.002.36-.097.633-.249.866-.481.323-.323.454-.633.454-1.07 0-.536-.221-.923-.685-1.197-.163-.096-.739-.351-1.278-.565-.312-.124-.448-.2-.539-.304-.072-.082-.085-.117-.084-.235 0-.307.224-.452.693-.448a1.81 1.81 0 0 1 1.032.323.577.577 0 0 0 .126.074l.29-.36c.157-.193.285-.363.285-.377 0-.044-.377-.314-.579-.415a2.736 2.736 0 0 0-.916-.255 3.574 3.574 0 0 0-.314-.024c-.025.001-.126.013-.226.024m2.73.112c0 .018.351 1.191.78 2.607L12.094 13l.691.007c.38.004.701-.002.712-.014.017-.016 1.502-4.915 1.56-5.146l.015-.06h-.602c-.332 0-.603.006-.603.013 0 .051-1.019 4.056-1.036 4.073-.013.013-.151-.491-.308-1.119-.156-.627-.39-1.549-.519-2.047L11.77 7.8l-.618-.007c-.486-.006-.618 0-.617.027m3.736 4.742a.565.565 0 0 0-.187.167l-.071.107-.007 1.089-.008 1.088H2v-.801c0-.841-.009-.916-.128-1.047a.543.543 0 0 0-.379-.152c-.151 0-.216.026-.329.13-.166.154-.163.133-.172 1.266-.006.695.002 1.083.022 1.18a.48.48 0 0 0 .278.361c.104.047.362.049 6.708.049s6.604-.002 6.708-.049a.48.48 0 0 0 .278-.36c.02-.097.027-.553.022-1.42-.008-1.215-.011-1.282-.061-1.382a.5.5 0 0 0-.676-.226" fill-rule="evenodd" fill="#000"/></svg>