<svg xmlns="http://www.w3.org/2000/svg" width="16" height="16" fill="none"><path d="M1.292.05a.479.479 0 0 0-.276.351c-.041.191-.041 15.007 0 15.198.035.163.13.285.276.351.104.047.362.049 6.708.049s6.604-.002 6.708-.049a.476.476 0 0 0 .277-.356c.021-.099.027-1.624.022-5.181-.007-4.848-.009-5.043-.056-5.133-.058-.109-4.955-5.023-5.15-5.168L9.668.013 5.534.007C1.567.001 1.396.003 1.292.05m7.695 3.189c0 1.504.009 2.269.029 2.36.035.163.13.285.276.351.102.046.234.049 2.408.049L14 6v9.013H2v-14h6.987v2.226m2.666.134 1.64 1.64H10v-1.64c0-.902.003-1.64.007-1.64.003 0 .744.738 1.646 1.64" fill-rule="evenodd" fill="#000"/></svg>