<svg xmlns="http://www.w3.org/2000/svg" width="24" height="24" fill="none"><path d="M3.252 1.078C2.984 1.242 3 .948 3 5.698V10h-.81c-.733 0-.822.008-.938.078-.27.165-.252-.215-.252 5.43 0 5 .002 5.115.078 5.24.142.232.229.252 1.12.252H3v1.31c0 1.229.005 1.318.078 1.438.167.274-.638.252 9.422.252s9.255.022 9.422-.252c.073-.12.078-.209.078-1.438V21h.81c.733 0 .822-.008.938-.078.27-.165.252.214.252-5.422s.018-5.257-.252-5.422c-.116-.07-.205-.078-.938-.078H22V7.301L18.85 4.15 15.699 1H9.54c-6.039 0-6.163.002-6.288.078M15 4.81c0 2.716.003 2.814.078 2.938.161.263.028.252 3.12.252H21v2H4V2h11v2.81m3.16.05L20.3 7H16V4.86c0-1.177.005-2.14.01-2.14.006 0 .973.963 2.15 2.14M23 15.5V20H2v-9h21v4.5m-19.48-.1V18h1.16v-1.749l.59-.021c.49-.017.645-.039.916-.126.565-.182.947-.535 1.122-1.038.11-.316.097-.97-.026-1.284-.182-.464-.621-.795-1.222-.922-.208-.044-.569-.059-1.41-.059L3.52 12.8v2.6m4.76 0V18h1.2v-1.749l.59-.021c.486-.017.646-.039.906-.123.553-.179.924-.508 1.11-.983.128-.324.127-1.006-.001-1.332a1.48 1.48 0 0 0-.698-.751c-.424-.208-.679-.24-1.957-.24L8.28 12.8v2.6m4.48-2.1v.5h1.56V18h1.16v-4.2h1.56v-1h-4.28v.5m4.8-.477c0 .013.315.58.7 1.261l.699 1.237-.744 1.31-.762 1.339c-.01.017.268.03.617.03h.635l.448-.91c.246-.501.447-.933.447-.96 0-.13.085.006.39.623.182.367.403.797.491.957l.162.29H21.956l-.343-.59-.76-1.314-.417-.724.702-1.268a62.16 62.16 0 0 0 .702-1.286c0-.01-.28-.018-.622-.018h-.623l-.291.61a19.726 19.726 0 0 0-.525 1.184c-.007.007-.216-.394-.464-.89l-.452-.904h-.651c-.359 0-.652.01-.652.023m-11.881.94c.099.023.24.088.314.145.434.33.268 1.147-.27 1.327a3.53 3.53 0 0 1-.59.071l-.453.026V13.72l.41.001c.225.001.491.02.589.042m4.792-.001a.935.935 0 0 1 .341.162c.4.329.251 1.09-.253 1.292-.093.037-.352.075-.619.09l-.46.026V13.72h.398c.219 0 .486.019.593.042M21 22v1H4v-2h17v1" fill-rule="evenodd" fill="#000"/></svg>