<svg xmlns="http://www.w3.org/2000/svg" width="16" height="16" fill="none" viewBox="0 0 16 16"><path stroke="currentColor" stroke-linecap="round" stroke-linejoin="round" d="M14.5 12.5v3h-13V14M1.5 7V.5h8l5 5v1"/><path stroke="currentColor" stroke-linecap="round" stroke-linejoin="round" d="M9.5.5v5h5"/><path fill="currentColor" d="M3.205 13.096c-.416 0-.782-.104-1.096-.312-.315-.208-.56-.512-.736-.912-.176-.405-.264-.907-.264-1.504 0-.581.088-1.07.264-1.464.176-.4.421-.701.736-.904.314-.208.68-.312 1.096-.312.416 0 .781.104 1.096.312.314.203.56.504.736.904.176.395.264.883.264 1.464 0 .597-.088 1.099-.264 1.504-.176.4-.422.704-.736.912-.315.208-.68.312-1.096.312Zm0-1.016a.659.659 0 0 0 .472-.192c.133-.133.234-.325.304-.576.074-.256.112-.57.112-.944 0-.363-.038-.667-.112-.912-.07-.245-.171-.432-.304-.56a.659.659 0 0 0-.472-.192.659.659 0 0 0-.472.192c-.134.128-.238.315-.312.56-.07.245-.104.55-.104.912 0 .373.034.688.104.944.074.25.178.443.312.576.133.128.29.192.472.192ZM7.41 13V8.776H5.85v-.992h4.304v.992h-1.56V13H7.41ZM11.239 13V7.784h3.463v.992h-2.287v1.208h1.952v.992h-1.953V13H11.24Z"/></svg>