<svg xmlns="http://www.w3.org/2000/svg" width="16" height="16" fill="none" viewBox="0 0 16 16"><path stroke="currentColor" stroke-linecap="round" stroke-linejoin="round" d="M14.5 14.5v1h-13V14M1.5 7V.5h8l5 5v4"/><path stroke="currentColor" stroke-linecap="round" stroke-linejoin="round" d="M9.5.5v5h5"/><path fill="currentColor" d="M3.189 13.096c-.352 0-.702-.064-1.048-.192a3.055 3.055 0 0 1-.936-.56l.68-.808c.197.16.413.29.648.392.24.101.485.152.736.152.25 0 .434-.043.552-.128a.385.385 0 0 0 .184-.328.409.409 0 0 0-.096-.288.763.763 0 0 0-.28-.192 9.934 9.934 0 0 0-.432-.192l-.672-.288a2.448 2.448 0 0 1-.544-.296 1.57 1.57 0 0 1-.416-.464 1.372 1.372 0 0 1-.152-.664c0-.288.08-.547.24-.776a1.74 1.74 0 0 1 .672-.56 2.208 2.208 0 0 1 1-.216c.314 0 .624.059.928.176.304.117.573.288.808.512l-.6.744a2.324 2.324 0 0 0-.544-.304 1.721 1.721 0 0 0-.656-.112.85.85 0 0 0-.472.12.394.394 0 0 0-.184.352c0 .101.037.187.112.256.074.07.176.13.304.184.128.053.274.112.44.176l.632.272c.234.085.434.192.6.32.165.123.293.275.384.456.09.181.136.395.136.64 0 .288-.08.555-.24.8a1.642 1.642 0 0 1-.688.592c-.299.15-.664.224-1.096.224ZM8.002 13.096c-.416 0-.782-.104-1.096-.312-.315-.208-.56-.512-.736-.912-.176-.405-.264-.907-.264-1.504 0-.581.088-1.07.264-1.464.176-.4.42-.701.736-.904.314-.208.68-.312 1.096-.312.416 0 .78.104 1.096.312.314.203.56.504.736.904.176.395.264.883.264 1.464 0 .597-.088 1.099-.264 1.504-.176.4-.422.704-.736.912-.315.208-.68.312-1.096.312Zm0-.96a.659.659 0 0 0 .472-.192c.133-.128.234-.32.304-.576.074-.261.112-.595.112-1 0-.363-.038-.667-.112-.912-.07-.245-.171-.432-.304-.56a.659.659 0 0 0-.472-.192.659.659 0 0 0-.472.192c-.134.128-.238.315-.312.56-.07.245-.104.55-.104.912 0 .405.034.739.104 1 .074.256.178.448.312.576.133.128.29.192.472.192Zm1.496 2.288c-.518 0-.952-.136-1.304-.408a2.354 2.354 0 0 1-.76-1.048l1.192-.12a.854.854 0 0 0 .592.576c.138.037.28.056.424.056.08 0 .154-.01.224-.032.074-.021.138-.045.192-.072l.208.88a1.297 1.297 0 0 1-.32.12 1.86 1.86 0 0 1-.448.048ZM11.255 13V7.784h1.175v4.224h2.32V13h-3.495Z"/></svg>