<svg xmlns="http://www.w3.org/2000/svg" width="16" height="16" fill="currentColor" viewBox="0 0 16 16">
  <path d="M1.305 7.768V13h.84v-2.384c0-.165-.008-.355-.024-.568-.011-.213-.027-.424-.048-.632a9.904 9.904 0 0 0-.056-.56h.032l.4 1.328.848 2.336h.624l.848-2.336.416-1.328h.032a23.178 23.178 0 0 0-.12 1.192c-.011.213-.016.403-.016.568V13h.856V7.768H4.833l-.896 2.56c-.054.165-.104.33-.152.496-.043.16-.088.336-.136.528h-.032a11.838 11.838 0 0 0-.304-1.024l-.896-2.56H1.305Z"/>
  <path fill-rule="evenodd" d="M7.266 13V7.768h1.648c.389 0 .736.05 1.04.152.304.101.544.27.72.504.176.235.264.555.264.96 0 .384-.088.701-.264.952-.171.25-.408.437-.712.56a2.653 2.653 0 0 1-1.016.184h-.752V13h-.928Zm.928-2.664h.68c.389 0 .677-.08.864-.24.192-.16.288-.397.288-.712 0-.33-.102-.557-.304-.68-.198-.128-.491-.192-.88-.192h-.648v1.824ZM13.65 13v-1.312h-2.248v-.624l2.016-3.152h1.096v3.064h.64v.712h-.64V13h-.864Zm0-3.176v1.152h-1.336l.928-1.416.216-.4c.07-.133.136-.264.2-.392h.032c-.005.144-.013.32-.024.528-.01.208-.016.384-.016.528ZM1 0h8.707L15 5.293V7h-1V6H9V1H2v6H1V0Zm9 1.707L13.293 5H10V1.707ZM15 14v2H1v-2h1v1h12v-1h1Z" clip-rule="evenodd"/>
</svg>
