<svg xmlns="http://www.w3.org/2000/svg" width="24" height="24" fill="none"><path d="M3.252 1.078C2.978 1.246 3 .227 3 12.508c0 10.95.001 11.114.078 11.24.167.274-.638.252 9.422.252s9.255.022 9.422-.252c.076-.126.078-.265.078-8.288V7.301L18.85 4.15 15.699 1H9.54c-6.039 0-6.163.002-6.288.078M15 4.81c0 2.716.003 2.814.078 2.938.161.263.028.252 3.12.252H21v15H4V2h11v2.81m3.16.05L20.3 7H16V4.86c0-1.177.005-2.14.01-2.14.006 0 .973.963 2.15 2.14M7.252 7.078a.478.478 0 0 0-.174.67c.158.258.099.252 2.43.252 2.024 0 2.117-.004 2.24-.078A.54.54 0 0 0 12 7.5a.54.54 0 0 0-.252-.422C11.625 7.004 11.532 7 9.5 7s-2.125.004-2.248.078m0 5a.478.478 0 0 0-.174.67c.165.27-.215.252 5.43.252 5 0 5.115-.002 5.24-.078a.485.485 0 0 0 0-.844c-.125-.076-.24-.078-5.248-.078s-5.123.002-5.248.078m0 5a.478.478 0 0 0-.174.67c.165.27-.215.252 5.43.252 5 0 5.115-.002 5.24-.078a.485.485 0 0 0 0-.844c-.125-.076-.24-.078-5.248-.078s-5.123.002-5.248.078" fill-rule="evenodd" fill="#000"/></svg>