<svg xmlns="http://www.w3.org/2000/svg" width="16" height="16" fill="currentColor" viewBox="0 0 16 16">
  <path d="M11.402 13V7.768h3.16v.784H12.33v1.48h1.904v.784H12.33V13h-.928ZM8.091 13V8.552H6.58v-.784h3.952v.784H9.02V13h-.928ZM3.88 13.096c-.454 0-.854-.11-1.2-.328a2.284 2.284 0 0 1-.816-.944c-.192-.41-.288-.899-.288-1.464s.096-1.048.288-1.448c.197-.4.469-.707.816-.92.346-.213.746-.32 1.2-.32.458 0 .86.107 1.208.32.346.213.616.52.808.92.197.4.296.883.296 1.448s-.1 1.053-.296 1.464a2.23 2.23 0 0 1-.808.944c-.347.219-.75.328-1.208.328Zm0-.808c.277 0 .514-.077.712-.232.202-.16.36-.384.472-.672.112-.293.168-.635.168-1.024 0-.39-.056-.723-.168-1a1.436 1.436 0 0 0-.472-.648 1.12 1.12 0 0 0-.712-.232c-.272 0-.51.077-.712.232-.203.15-.36.365-.472.648-.112.277-.168.61-.168 1s.056.73.168 1.024c.112.288.269.512.472.672.202.155.44.232.712.232Z"/>
  <path fill-rule="evenodd" d="M1 0h8.707L15 5.293V7h-1V6H9V1H2v6H1V0Zm9 1.707L13.293 5H10V1.707ZM15 13v3H1v-2h1v1h12v-2h1Z" clip-rule="evenodd"/>
</svg>
