<svg xmlns="http://www.w3.org/2000/svg" width="24" height="24" fill="none"><path d="M3.252 1.078C2.984 1.242 3 .948 3 5.698V10h-.81c-.733 0-.822.008-.938.078-.27.165-.252-.215-.252 5.43 0 5 .002 5.115.078 5.24.142.232.229.252 1.12.252H3v1.31c0 1.229.005 1.318.078 1.438.167.274-.638.252 9.422.252s9.255.022 9.422-.252c.073-.12.078-.209.078-1.438V21h.81c.733 0 .822-.008.938-.078.27-.165.252.214.252-5.422s.018-5.257-.252-5.422c-.116-.07-.205-.078-.938-.078H22V7.301L18.85 4.15 15.699 1H9.54c-6.039 0-6.163.002-6.288.078M15 4.81c0 2.716.003 2.814.078 2.938.161.263.028.252 3.12.252H21v2H4V2h11v2.81m3.16.05L20.3 7H16V4.86c0-1.177.005-2.14.01-2.14.006 0 .973.963 2.15 2.14M23 15.5V20H2v-9h21v4.5M7.722 12.741a2.422 2.422 0 0 0-1.243.66c-.711.721-.94 1.93-.581 3.066.316.998 1.167 1.613 2.242 1.618.563.002 1.006-.14 1.391-.446.345-.275.347-.285.116-.55a6.789 6.789 0 0 0-.321-.345l-.122-.115-.143.125c-.269.236-.448.305-.801.305-.271.001-.355-.016-.55-.112-.495-.243-.748-.772-.749-1.569-.002-1.01.499-1.658 1.281-1.658.27 0 .495.072.733.236l.173.12.296-.34c.163-.187.302-.356.308-.375.02-.055-.388-.345-.673-.478a2.545 2.545 0 0 0-.939-.199 4.253 4.253 0 0 0-.418.057m4.534-.023c-.46.072-.829.25-1.114.536-.276.278-.39.528-.413.912-.027.434.063.697.337.993.241.261.413.358 1.345.761.762.33.869.415.869.698 0 .586-1.084.624-1.896.065a1.34 1.34 0 0 0-.198-.123c-.01 0-.168.174-.351.386l-.332.386.159.137c.218.189.736.436 1.114.531.386.098 1.01.106 1.38.018a1.86 1.86 0 0 0 .942-.543c.281-.304.397-.592.399-.995.002-.39-.093-.662-.318-.913-.207-.23-.452-.363-1.411-.767-.75-.316-.848-.39-.848-.636 0-.306.218-.444.7-.444.34 0 .645.09.95.279l.19.118.299-.369.3-.368-.15-.129c-.461-.399-1.318-.633-1.953-.533m4.8 0c-.475.074-.837.254-1.142.564-.285.293-.394.56-.394.972 0 .4.085.624.344.904.246.266.464.389 1.386.782.719.307.83.397.83.676 0 .595-1.078.627-1.91.056-.094-.064-.188-.106-.209-.093a5.906 5.906 0 0 0-.348.389l-.309.365.158.136c.218.189.736.436 1.114.531.358.09.969.107 1.312.036a1.974 1.974 0 0 0 1.003-.554c.292-.315.4-.589.403-1.027.002-.288-.013-.355-.128-.588-.214-.436-.396-.561-1.463-1.005-.936-.39-.983-.424-.983-.706 0-.323.253-.459.796-.426.355.022.57.092.876.285l.162.102.3-.368c.165-.202.291-.38.282-.396a3.155 3.155 0 0 0-.318-.229c-.495-.331-1.202-.494-1.762-.406M21 22v1H4v-2h17v1" fill-rule="evenodd" fill="#000"/></svg>