<svg width="16" height="16" viewBox="0 0 16 16" fill="none" xmlns="http://www.w3.org/2000/svg">
<path fill-rule="evenodd" clip-rule="evenodd" d="M1.5 0H1V0.5V6V6.5H2V6V1H9V5.5V6H9.5H14V6.5H15V6V5.5V5.29289L14.8536 5.14645L9.85355 0.146447L9.70711 0H9.5H1.5ZM10 5V1.70711L13.2929 5H10ZM2 14.5V14H1V14.5V15.5V16H1.5H14.5H15V15.5V14.5V14H14V14.5V15H2V14.5ZM10.93 7.78V12.996H12.442C12.922 12.996 13.346 12.9027 13.714 12.716C14.082 12.524 14.3673 12.2333 14.57 11.844C14.778 11.4547 14.882 10.9613 14.882 10.364C14.882 9.76667 14.778 9.27867 14.57 8.9C14.362 8.516 14.0687 8.23333 13.69 8.052C13.3167 7.87067 12.8767 7.78 12.37 7.78H10.93ZM12.306 12.044H12.114V8.732H12.306C12.5833 8.732 12.8233 8.78267 13.026 8.884C13.2287 8.98 13.386 9.148 13.498 9.388C13.6153 9.62267 13.674 9.948 13.674 10.364C13.674 10.78 13.6153 11.1107 13.498 11.356C13.386 11.6013 13.2287 11.7773 13.026 11.884C12.8233 11.9907 12.5833 12.044 12.306 12.044ZM6.15997 12.996V7.78H7.36797L8.46397 10.372L8.91197 11.524H8.94397C8.91731 11.2467 8.88264 10.9373 8.83997 10.596C8.79731 10.2547 8.77597 9.932 8.77597 9.628V7.78H9.90397V12.996H8.69597L7.59997 10.396L7.15197 9.26H7.11997C7.14664 9.54267 7.18131 9.852 7.22397 10.188C7.26664 10.5187 7.28797 10.8387 7.28797 11.148V12.996H6.15997ZM0.924683 7.784L2.50068 13H3.91668L5.48468 7.784H4.28468L3.66868 10.216C3.59402 10.504 3.52468 10.784 3.46068 11.056C3.40202 11.3227 3.33002 11.6 3.24468 11.888H3.21268C3.13802 11.6 3.06868 11.3227 3.00468 11.056C2.94602 10.784 2.87668 10.504 2.79668 10.216L2.17268 7.784H0.924683Z" fill="#0A8276"/>
</svg>
