<svg xmlns="http://www.w3.org/2000/svg" width="16" height="16" fill="none" viewBox="0 0 16 16">
  <path fill="#1D1D1D" d="m12.062 13 1.116-2.022-1.044-1.902h.774l.432.87c.052.088.1.18.144.276.044.096.096.204.156.324h.024l.132-.324c.044-.096.088-.188.132-.276l.414-.87h.738l-1.044 1.932L15.152 13h-.774l-.48-.924a21.644 21.644 0 0 0-.156-.306 11.996 11.996 0 0 0-.162-.336h-.024c-.048.12-.096.232-.144.336l-.144.306L12.8 13h-.738ZM10.639 13.072c-.332 0-.634-.078-.906-.234a1.687 1.687 0 0 1-.643-.684c-.155-.304-.233-.672-.233-1.104 0-.32.046-.606.138-.858.091-.256.22-.472.384-.648a1.725 1.725 0 0 1 1.271-.54c.248 0 .468.05.66.15.192.096.35.212.474.348l-.372.426a1.001 1.001 0 0 0-.336-.234.954.954 0 0 0-.408-.084.97.97 0 0 0-.563.174c-.165.116-.295.28-.39.492a1.821 1.821 0 0 0-.145.756c0 .3.046.558.139.774.091.212.222.376.39.492.168.112.364.168.588.168a.968.968 0 0 0 .45-.102 1.37 1.37 0 0 0 .36-.27l.354.414c-.16.184-.34.324-.54.42-.2.096-.425.144-.672.144ZM6.542 13.072c-.34 0-.64-.082-.9-.246a1.713 1.713 0 0 1-.612-.708c-.144-.308-.216-.674-.216-1.098 0-.424.072-.786.216-1.086.148-.3.352-.53.612-.69.26-.16.56-.24.9-.24.344 0 .646.08.906.24.26.16.462.39.606.69.148.3.222.662.222 1.086 0 .424-.074.79-.222 1.098-.144.304-.346.54-.606.708-.26.164-.562.246-.906.246Zm0-.606a.84.84 0 0 0 .534-.174c.152-.12.27-.288.354-.504.084-.22.126-.476.126-.768 0-.292-.042-.542-.126-.75a1.077 1.077 0 0 0-.354-.486.84.84 0 0 0-.534-.174.855.855 0 0 0-.534.174c-.152.112-.27.274-.354.486a2.002 2.002 0 0 0-.126.75c0 .292.042.548.126.768.084.216.202.384.354.504.152.116.33.174.534.174ZM1.268 13V9.076h1.05c.4 0 .742.072 1.026.216.284.144.502.36.654.648.152.288.228.648.228 1.08 0 .432-.076.796-.228 1.092a1.52 1.52 0 0 1-.642.666c-.28.148-.614.222-1.002.222H1.268Zm.696-.564h.306c.264 0 .488-.05.672-.15a.993.993 0 0 0 .426-.468c.096-.208.144-.474.144-.798 0-.32-.048-.582-.144-.786a.934.934 0 0 0-.426-.45 1.438 1.438 0 0 0-.672-.144h-.306v2.796Z"/>
  <path fill="#1D1D1D" fill-rule="evenodd" d="M1 0h8.707L15 5.293V8h-1V6H9V1H2v7H1V0Zm9 1.707L13.293 5H10V1.707ZM15 14v2H1v-2h1v1h12v-1h1Z" clip-rule="evenodd"/>
</svg>
