<svg xmlns="http://www.w3.org/2000/svg" width="16" height="16" fill="currentColor">
  <path d="M10.68 13V7.768h1.016l1.568 2.88c.096.176.186.365.272.568.09.203.176.408.256.616h.032a71.267 71.267 0 0 0-.072-.88c-.027-.31-.04-.608-.04-.896V7.768h.888V13h-1.016l-1.568-2.88a11.202 11.202 0 0 1-.288-.568c-.091-.203-.176-.408-.256-.616h-.032c.032.272.061.563.088.872.026.304.04.605.04.904V13h-.888ZM5.68 13V7.768h1.4c.533 0 .989.096 1.368.288.378.192.669.48.872.864.202.384.304.864.304 1.44s-.102 1.061-.304 1.456c-.198.39-.483.685-.856.888-.374.197-.819.296-1.336.296H5.68Zm.928-.752h.408c.352 0 .65-.067.896-.2.25-.139.44-.347.568-.624.128-.277.192-.632.192-1.064 0-.427-.064-.776-.192-1.048a1.245 1.245 0 0 0-.568-.6c-.246-.128-.544-.192-.896-.192h-.408v3.728ZM2.295 13l-1.6-5.232h.984l.704 2.632c.053.197.104.39.152.576l.144.552.168.568h.032a113.748 113.748 0 0 0 .296-1.12c.053-.187.106-.379.16-.576l.76-2.632h.952L3.39 13H2.295Z"/>
  <path fill-rule="evenodd" d="M1 0h8.707L15 5.293V7h-1V6H9V1H2v6H1V0Zm9 1.707L13.293 5H10V1.707ZM15 14v2H1v-2h1v1h12v-1h1Z" clip-rule="evenodd"/>
</svg>
