<svg xmlns="http://www.w3.org/2000/svg" width="16" height="16" fill="none"><path d="M1.292.05a.478.478 0 0 0-.277.357C.994.505.988 1.464.993 3.587c.006 2.802.011 3.046.052 3.122.061.11.218.246.309.266l.105.026c.063.019.304-.061.372-.124a.65.65 0 0 0 .119-.17c.046-.102.049-.242.049-2.9L2 1.013h6.987v2.226c0 1.504.009 2.269.029 2.36.035.163.13.285.276.351.102.046.234.049 2.408.049L14 6l.001.3c0 .329.037.457.168.577.133.123.399.152.568.062a.707.707 0 0 0 .243-.293c.011-.04.02-.343.02-.673v-.6l-.072-.12c-.107-.18-5.102-5.16-5.227-5.212-.088-.036-.569-.041-4.2-.04-3.921 0-4.106.002-4.209.049m10.361 3.323 1.64 1.64H10v-1.64c0-.902.003-1.64.007-1.64.003 0 .744.738 1.646 1.64M7.728 7.709c-.791.084-1.417.65-1.673 1.513-.14.471-.191 1.292-.111 1.805.162 1.053.642 1.717 1.429 1.979.195.065.25.071.627.071s.432-.006.627-.071c.304-.102.53-.243.76-.474a2.04 2.04 0 0 0 .482-.757c.288-.745.308-1.863.048-2.642-.338-1.013-1.141-1.535-2.189-1.424M1.26 10.393 1.267 13l.486.007.487.008v-1.048a22.382 22.382 0 0 0-.096-2.356 7.142 7.142 0 0 1-.033-.571c.005-.034.092.247.193.625.102.378.277.971.39 1.318l.204.63h.579l.216-.68c.119-.374.299-.97.4-1.326.101-.355.188-.641.194-.636.005.006-.009.231-.031.5a24.088 24.088 0 0 0-.107 2.476L4.147 13h.986l.007-2.607.007-2.606H3.906l-.259.94a88.752 88.752 0 0 0-.343 1.28c-.046.187-.092.34-.103.34-.01 0-.051-.141-.091-.314a54.525 54.525 0 0 0-.339-1.269c-.145-.525-.264-.96-.264-.966a9.03 9.03 0 0 0-.627-.011h-.627l.007 2.606m9.275-2.573c0 .018.351 1.191.78 2.607L12.094 13l.691.007c.38.004.701-.002.712-.014.017-.016 1.502-4.915 1.56-5.146l.015-.06h-.602c-.332 0-.603.006-.603.013 0 .051-1.019 4.056-1.036 4.073-.013.013-.151-.491-.308-1.119-.156-.627-.39-1.549-.519-2.047L11.77 7.8l-.618-.007c-.486-.006-.618 0-.617.027m-2.198.979c.251.144.446.531.514 1.024.066.474.018 1.225-.1 1.565-.169.487-.379.677-.751.678-.171.001-.218-.01-.324-.072-.231-.136-.408-.439-.495-.847-.068-.322-.068-1.228 0-1.534.061-.277.172-.511.317-.668.154-.168.281-.224.515-.224.159 0 .208.011.324.078m5.943 4.256a.445.445 0 0 0-.23.238c-.044.096-.049.188-.049.914l-.001.806H2v-.307c0-.362-.026-.442-.187-.58a.486.486 0 0 0-.796.269c-.039.18-.04 1.026-.001 1.204.035.163.13.285.276.351.104.047.362.049 6.708.049s6.604-.002 6.708-.049a.48.48 0 0 0 .278-.361c.046-.22.026-2.193-.023-2.282a.726.726 0 0 0-.248-.256.638.638 0 0 0-.435.004" fill-rule="evenodd" fill="#000"/></svg>