<svg xmlns="http://www.w3.org/2000/svg" width="24" height="24" fill="none" viewBox="0 0 24 24"><path stroke="currentColor" fill="none" stroke-linecap="round" stroke-linejoin="round" d="M21.5 21v2.5h-18V21M3.5 10.5v-9h12l6 6v3"/><path stroke="currentColor" fill="none" stroke-linecap="round" stroke-linejoin="round" d="M15.5 1.5v6h6M23.5 10.5h-22v10h22v-10Z"/><path fill="currentColor" d="M5.09 18.096c-.288 0-.589-.064-.904-.192-.309-.128-.578-.352-.808-.672l.68-.728c.15.187.31.33.48.432.171.096.342.144.512.144.267 0 .467-.07.6-.208.139-.139.208-.387.208-.744v-2.36h-2.04v-.984h3.216v3.44c0 .341-.064.653-.192.936-.122.283-.325.51-.608.68-.277.17-.658.256-1.144.256ZM10.087 18.096c-.352 0-.701-.064-1.048-.192a3.057 3.057 0 0 1-.936-.56l.68-.808c.197.16.414.29.648.392.24.101.486.152.736.152s.435-.043.552-.128a.386.386 0 0 0 .184-.328.408.408 0 0 0-.096-.288.761.761 0 0 0-.28-.192 9.738 9.738 0 0 0-.432-.192l-.672-.288a2.452 2.452 0 0 1-.544-.296 1.57 1.57 0 0 1-.416-.464 1.372 1.372 0 0 1-.152-.664c0-.288.08-.547.24-.776a1.74 1.74 0 0 1 .672-.56 2.208 2.208 0 0 1 1-.216c.315 0 .624.059.928.176.304.117.574.288.808.512l-.6.744a2.326 2.326 0 0 0-.544-.304 1.721 1.721 0 0 0-.656-.112.85.85 0 0 0-.472.12.394.394 0 0 0-.184.352c0 .101.037.187.112.256.075.07.176.13.304.184.128.053.275.112.44.176l.632.272c.235.085.435.192.6.32.166.123.293.275.384.456.09.181.136.395.136.64 0 .288-.08.555-.24.8a1.643 1.643 0 0 1-.688.592c-.299.15-.664.224-1.096.224ZM14.9 18.096c-.416 0-.781-.104-1.096-.312-.315-.208-.56-.512-.736-.912-.176-.405-.264-.907-.264-1.504 0-.581.088-1.07.264-1.464.176-.4.421-.701.736-.904.315-.208.68-.312 1.096-.312.416 0 .781.104 1.096.312.315.203.56.504.736.904.176.395.264.883.264 1.464 0 .597-.088 1.099-.264 1.504-.176.4-.421.704-.736.912-.315.208-.68.312-1.096.312Zm0-1.016a.659.659 0 0 0 .472-.192c.133-.133.235-.325.304-.576.075-.256.112-.57.112-.944 0-.363-.037-.667-.112-.912-.07-.245-.17-.432-.304-.56a.659.659 0 0 0-.472-.192.66.66 0 0 0-.472.192c-.133.128-.237.315-.312.56-.07.245-.104.55-.104.912 0 .373.035.688.104.944.075.25.179.443.312.576a.66.66 0 0 0 .472.192ZM17.825 18v-5.216h1.208l1.096 2.592.448 1.152h.032a32.673 32.673 0 0 0-.104-.928 7.834 7.834 0 0 1-.064-.968v-1.848h1.128V18H20.36l-1.096-2.6-.448-1.136h-.032c.027.283.061.592.104.928.043.33.064.65.064.96V18h-1.128Z"/></svg>