<svg xmlns="http://www.w3.org/2000/svg" width="16" height="16" fill="none" viewBox="0 0 16 16"><path stroke="currentColor" fill="none" stroke-linecap="round" stroke-linejoin="round" d="M14.5 14.5v1h-13v-1M1.5 7.5v-7h8l5 5v1"/><path stroke="currentColor" fill="none" stroke-linecap="round" stroke-linejoin="round" d="M9.5.5v5h5"/><path fill="currentColor" d="M.877 13 2.5 7.784h1.408L5.533 13H4.285l-.672-2.64a93.945 93.945 0 0 0-.208-.832 48.119 48.119 0 0 1-.208-.848h-.032l-.2.848c-.07.293-.139.57-.208.832L2.077 13h-1.2Zm1.072-1.24v-.92h2.496v.92H1.949ZM7.298 13 5.722 7.784H6.97l.624 2.432c.08.288.149.568.208.84.064.267.133.544.208.832h.032c.085-.288.157-.565.216-.832.064-.272.133-.552.208-.84l.616-2.432h1.2L8.714 13H7.298ZM10.99 13v-.992h1.216V8.776H10.99v-.992h3.616v.992H13.39v3.232h1.216V13H10.99Z"/></svg>