<svg xmlns="http://www.w3.org/2000/svg" width="24" height="24" fill="none" viewBox="0 0 24 24"><path stroke="currentColor" fill="none" stroke-linecap="round" stroke-linejoin="round" d="M21.5 21v2.5h-18V21M3.5 10.5v-9h12l6 6v3"/><path stroke="currentColor" fill="none" stroke-linecap="round" stroke-linejoin="round" d="M15.5 1.5v6h6M23.5 10.5h-22v10h22v-10Z"/><path fill="currentColor" d="M5.769 18v-5.216H7l.512 1.848.176.72h.032l.176-.72.512-1.848H9.64V18h-.992v-1.616c0-.144.005-.323.016-.536.01-.219.024-.445.04-.68l.048-.672c.021-.213.037-.39.048-.528h-.024l-.4 1.392-.4 1.256H7.4l-.408-1.256-.376-1.392h-.024l.04.528c.021.213.04.437.056.672.016.235.029.461.04.68.01.213.016.392.016.536V18h-.976ZM10.646 18v-5.216h1.192v2.136h.024l1.544-2.136h1.304l-2.872 3.792V18h-1.192Zm2.904 0-1.216-2.424.696-.92L14.854 18H13.55ZM16.594 18l-1.576-5.216h1.248l.624 2.432c.08.288.15.568.208.84.064.267.134.544.208.832h.032c.086-.288.158-.565.216-.832.064-.272.134-.552.208-.84l.616-2.432h1.2L18.01 18h-1.416Z"/></svg>