<svg xmlns="http://www.w3.org/2000/svg" width="16" height="16" fill="none"><path d="M1.292.05a.479.479 0 0 0-.277.356C.994.505.988 1.536.993 3.84c.008 3.67-.009 3.365.192 3.541.23.202.623.119.758-.161L2 7.103v-6.09h6.987v2.226c0 1.504.009 2.269.029 2.36.035.163.13.285.276.351.102.046.234.049 2.408.049L14 6l.001.3c0 .329.037.457.168.577.133.123.399.152.568.062a.707.707 0 0 0 .243-.293c.011-.04.02-.343.02-.673v-.6l-.072-.12c-.107-.18-5.102-5.16-5.227-5.212-.088-.036-.569-.041-4.2-.04-3.921 0-4.106.002-4.209.049m10.361 3.323 1.64 1.64H10v-1.64c0-.902.003-1.64.007-1.64.003 0 .744.738 1.646 1.64M2.994 7.708c-.242.03-.555.133-.781.258-.244.136-.556.454-.659.674a1.376 1.376 0 0 0 .204 1.526c.187.211.453.364 1.168.671.959.411 1.046.472 1.067.742.01.116.001.157-.051.234-.127.186-.334.267-.683.267-.372-.001-.77-.135-1.154-.388a6.569 6.569 0 0 0-.226-.145c-.002 0-.151.174-.331.388-.185.22-.32.403-.312.424.007.019.089.09.182.156a3.004 3.004 0 0 0 1.915.571c.622-.024 1.054-.192 1.417-.551.317-.315.459-.649.456-1.074-.004-.508-.201-.871-.626-1.154-.141-.093-.682-.337-1.282-.577-.38-.152-.505-.221-.603-.333-.082-.092-.087-.109-.076-.255.009-.133.024-.169.101-.248a.628.628 0 0 1 .218-.136c.166-.055.583-.053.802.004.155.04.479.191.647.302l.08.053.289-.361c.158-.198.282-.376.275-.394-.022-.059-.361-.297-.56-.395a2.714 2.714 0 0 0-1.477-.259m9.882.001c-1.09.115-1.865.89-2.079 2.078a4.653 4.653 0 0 0-.036.64c0 .472.031.709.139 1.053.174.556.53 1.02.993 1.295.209.123.581.251.854.294.285.044.738.019 1.009-.055.262-.072.65-.263.865-.426l.152-.114V10.08H12.96v.96h.747v.91l-.127.056a1.057 1.057 0 0 1-.317.068c-.575.038-1.027-.294-1.191-.874-.111-.392-.127-1.083-.033-1.464.136-.552.532-.957.988-1.012.342-.041.646.044.885.248.06.052.116.095.123.095.007 0 .157-.162.335-.359l.322-.358-.143-.123a2.81 2.81 0 0 0-.748-.44 2.996 2.996 0 0 0-.681-.103l-.244.025m-7.142.098c0 .011.352 1.184.782 2.606L7.297 13l.699.007.698.007.027-.06c.032-.072 1.546-5.109 1.546-5.143 0-.014-.261-.024-.595-.024h-.594l-.487 1.94c-.567 2.254-.544 2.166-.564 2.166-.009 0-.074-.237-.145-.526-.07-.29-.253-1.013-.405-1.607l-.391-1.527-.113-.446h-.62c-.341 0-.62.009-.619.02m-4.345 5.705a.558.558 0 0 0-.328.255c-.059.109-.061.141-.069.893-.006.514.001.831.021.927a.482.482 0 0 0 .279.363c.104.047.362.049 6.708.049s6.604-.002 6.708-.049a.482.482 0 0 0 .279-.363c.02-.096.027-.413.021-.927L15 13.88l-.071-.12a.49.49 0 0 0-.44-.249c-.164.002-.276.061-.393.205l-.083.102-.008.598-.009.597H2.004l-.009-.597-.008-.598-.083-.102a.727.727 0 0 0-.16-.147.637.637 0 0 0-.355-.057" fill-rule="evenodd" fill="#000"/></svg>