<svg xmlns="http://www.w3.org/2000/svg" width="16" height="16" fill="none"><path d="M1.292.05a.478.478 0 0 0-.277.357C.994.505.988 1.464.993 3.587c.006 2.802.011 3.046.052 3.122.061.11.218.246.309.266l.105.026c.063.019.304-.061.372-.124a.65.65 0 0 0 .119-.17c.046-.102.049-.242.049-2.9L2 1.013h6.987v2.226c0 1.504.009 2.269.029 2.36.035.163.13.285.276.351.102.046.234.049 2.408.049L14 6l.001.3c0 .329.037.457.168.577.133.123.399.152.568.062a.707.707 0 0 0 .243-.293c.011-.04.02-.343.02-.673v-.6l-.072-.12c-.107-.18-5.102-5.16-5.227-5.212-.088-.036-.569-.041-4.2-.04-3.921 0-4.106.002-4.209.049m10.361 3.323 1.64 1.64H10v-1.64c0-.902.003-1.64.007-1.64.003 0 .744.738 1.646 1.64m1.223 4.335c-1.093.119-1.865.891-2.079 2.079a4.653 4.653 0 0 0-.036.64c0 .472.031.709.139 1.053.174.556.53 1.02.993 1.295.209.123.58.251.854.294.276.043.762.017 1.013-.055.26-.074.637-.26.847-.417l.166-.126V10.08H12.96v.96h.747v.91l-.127.056a1.057 1.057 0 0 1-.317.068c-.575.038-1.027-.294-1.191-.874-.111-.392-.127-1.083-.033-1.464.136-.552.532-.957.988-1.012.342-.041.646.044.885.248.06.052.116.095.123.095.007 0 .154-.158.327-.35.255-.285.309-.358.286-.394-.05-.08-.392-.322-.607-.429-.345-.173-.727-.234-1.165-.186M1.26 10.393 1.267 13l.486.007.487.008v-1.048a22.382 22.382 0 0 0-.096-2.356 7.142 7.142 0 0 1-.033-.571c.005-.034.092.247.193.625.102.378.277.971.39 1.318l.204.63h.579l.216-.68c.119-.374.299-.97.4-1.326.101-.355.188-.641.194-.636.005.006-.009.231-.031.5a24.088 24.088 0 0 0-.107 2.476L4.147 13h.986l.007-2.607.007-2.606H3.906l-.259.94a88.752 88.752 0 0 0-.343 1.28c-.046.187-.092.34-.103.34-.01 0-.051-.141-.091-.314a54.525 54.525 0 0 0-.339-1.269c-.145-.525-.264-.96-.264-.966a9.03 9.03 0 0 0-.627-.011h-.627l.007 2.606m4.933 0L6.2 13h1.173l.007-.884.007-.883.58-.013c.488-.011.614-.022.793-.071.628-.173 1.054-.54 1.238-1.069.086-.244.107-.79.044-1.076-.127-.569-.521-.953-1.139-1.109-.372-.094-.595-.108-1.665-.108H6.186l.007 2.606m2.27-1.612c.191.062.327.168.396.309.051.102.061.167.061.379 0 .231-.008.27-.081.413a.74.74 0 0 1-.434.362 3.752 3.752 0 0 1-.558.042l-.46.012V8.714l.473.013c.327.008.513.025.603.054m5.918 4.737a.506.506 0 0 0-.293.206l-.075.098-.008.596-.009.595H2v-.307c0-.362-.026-.442-.187-.58a.486.486 0 0 0-.796.269c-.039.18-.04 1.026-.001 1.204.035.163.13.285.276.351.104.047.362.049 6.708.049s6.604-.002 6.708-.049a.482.482 0 0 0 .279-.363c.02-.096.027-.413.021-.927L15 13.88l-.071-.12a.516.516 0 0 0-.548-.242" fill-rule="evenodd" fill="#000"/></svg>