<svg xmlns="http://www.w3.org/2000/svg" width="16" height="16" fill="none"><path d="M1.292.05a.478.478 0 0 0-.277.357C.994.505.988 1.464.993 3.587c.006 2.802.011 3.046.052 3.122.061.11.218.246.309.266l.105.026c.063.019.304-.061.372-.124a.65.65 0 0 0 .119-.17c.046-.102.049-.242.049-2.9L2 1.013h6.987v2.226c0 1.504.009 2.269.029 2.36.035.163.13.285.276.351.102.046.234.049 2.408.049L14 6l.001.3c0 .329.037.457.168.577.133.123.399.152.568.062a.707.707 0 0 0 .243-.293c.011-.04.02-.343.02-.673v-.6l-.072-.12c-.107-.18-5.102-5.16-5.227-5.212-.088-.036-.569-.041-4.2-.04-3.921 0-4.106.002-4.209.049m10.361 3.323 1.64 1.64H10v-1.64c0-.902.003-1.64.007-1.64.003 0 .744.738 1.646 1.64m-10.24 7.028v2.613l.58-.007.58-.007.007-.884.007-.883.58-.013c.666-.014.851-.05 1.232-.237.173-.085.273-.159.429-.315.33-.33.458-.669.458-1.215.001-.962-.51-1.487-1.592-1.638-.116-.016-.652-.028-1.243-.028H1.413v2.614m4.747.002v2.617l.953-.014c.816-.012.988-.021 1.194-.067 1.021-.223 1.622-.91 1.774-2.025.053-.395.021-1.102-.065-1.434-.213-.818-.711-1.345-1.484-1.569-.348-.101-.637-.124-1.539-.124H6.16v2.616m5.073-.01L11.24 13h1.173l.007-1.006.007-1.007.967-.007.966-.007.007-.486.008-.487h-1.948V8.773h2.266v-.986h-3.467l.007 2.606M3.556 8.76c.392.083.552.262.572.638.021.398-.1.633-.405.788l-.184.094-.476.009-.476.01V8.72h.393c.241.001.464.016.576.04m4.405.027c.485.125.768.431.886.957.059.263.058.998-.001 1.262-.093.417-.318.741-.614.887a1.758 1.758 0 0 1-.705.16H7.36V8.747h.221c.122 0 .293.018.38.04m6.399 3.236a.576.576 0 0 0-.281.211l-.066.095-.007 1.342-.007 1.342H2v-.307c0-.362-.026-.442-.187-.58a.486.486 0 0 0-.796.269c-.039.18-.04 1.026-.001 1.204.035.163.13.285.276.351.104.047.362.049 6.708.049s6.604-.002 6.708-.049a.479.479 0 0 0 .276-.351c.04-.185.04-3.013 0-3.198a.59.59 0 0 0-.099-.219.524.524 0 0 0-.525-.159" fill-rule="evenodd" fill="#000"/></svg>