<svg xmlns="http://www.w3.org/2000/svg" width="16" height="16" fill="none" viewBox="0 0 16 16">
  <path stroke="currentColor" stroke-linecap="round" stroke-linejoin="round" d="M14.5 14.5v1h-13v-1M1.5 7V.5h8l5 5V7"/>
  <path stroke="currentColor" stroke-linecap="round" stroke-linejoin="round" d="M9.5.5v5h5"/>
  <path fill="currentColor" d="m.331 13 1.33-2.345L.408 8.436h1.155l.441.861c.052.103.105.215.161.336.056.121.12.254.19.4h.027a7.233 7.233 0 0 1 .308-.736l.406-.861h1.106L2.95 10.704 4.28 13H3.131l-.497-.93a24.55 24.55 0 0 0-.182-.358 98.744 98.744 0 0 0-.182-.392h-.028c-.056.14-.112.27-.168.392l-.168.357L1.43 13H.331ZM4.752 13V8.436H5.78v3.696h2.03V13H4.75ZM9.886 13.084a2.63 2.63 0 0 1-1.736-.658l.595-.707c.173.14.362.254.567.343.21.089.425.133.644.133.22 0 .38-.037.483-.112a.337.337 0 0 0 .161-.287.357.357 0 0 0-.084-.252.665.665 0 0 0-.245-.168 8.451 8.451 0 0 0-.378-.168l-.588-.252a2.15 2.15 0 0 1-.476-.259 1.375 1.375 0 0 1-.364-.406 1.2 1.2 0 0 1-.133-.58c0-.253.07-.48.21-.68.145-.205.34-.369.588-.49.252-.126.544-.189.875-.189.275 0 .546.051.812.154.266.103.502.252.707.448l-.525.651a2.036 2.036 0 0 0-.476-.266 1.507 1.507 0 0 0-.574-.098.743.743 0 0 0-.413.105.345.345 0 0 0-.161.308c0 .089.033.163.098.224.065.06.154.114.266.161.112.047.24.098.385.154l.553.238c.205.075.38.168.525.28.145.107.257.24.336.4.08.158.119.344.119.56 0 .251-.07.484-.21.7a1.439 1.439 0 0 1-.602.517c-.261.13-.581.196-.96.196ZM11.723 13l1.33-2.345L11.8 8.436h1.155l.441.861c.052.103.105.215.161.336.056.121.12.254.19.4h.027a5.92 5.92 0 0 1 .308-.735l.406-.862h1.106l-1.253 2.268L15.671 13h-1.148l-.497-.93c-.06-.122-.121-.241-.182-.358a89.7 89.7 0 0 0-.182-.392h-.028c-.056.14-.112.27-.168.392l-.168.357-.476.931h-1.099Z"/>
</svg>
