<svg xmlns="http://www.w3.org/2000/svg" width="24" height="24" fill="none" viewBox="0 0 24 24">
  <path stroke="currentColor" stroke-linecap="round" stroke-linejoin="round" d="M21.5 21v2.5h-18V21M3.5 10.5v-9h12l6 6v3"/>
  <path stroke="currentColor" stroke-linecap="round" stroke-linejoin="round" d="M15.5 1.5v6h6M23.5 10.5h-22v10h22v-10Z"/>
  <path fill="currentColor" d="M7.689 18.096c-.352 0-.702-.064-1.048-.192a3.057 3.057 0 0 1-.936-.56l.68-.808c.197.16.413.29.648.392.24.101.485.152.736.152.25 0 .434-.043.552-.128a.385.385 0 0 0 .184-.328.408.408 0 0 0-.096-.288.76.76 0 0 0-.28-.192 9.697 9.697 0 0 0-.432-.192l-.672-.288a2.452 2.452 0 0 1-.544-.296 1.571 1.571 0 0 1-.416-.464 1.372 1.372 0 0 1-.152-.664c0-.288.08-.547.24-.776a1.74 1.74 0 0 1 .672-.56 2.208 2.208 0 0 1 1-.216c.314 0 .624.059.928.176.304.117.573.288.808.512l-.6.744a2.324 2.324 0 0 0-.544-.304 1.72 1.72 0 0 0-.656-.112.85.85 0 0 0-.472.12.394.394 0 0 0-.184.352c0 .101.037.187.112.256.074.07.176.13.304.184.128.053.274.112.44.176l.632.272c.234.085.434.192.6.32.165.123.293.275.384.456.09.181.136.395.136.64 0 .288-.08.555-.24.8a1.643 1.643 0 0 1-.688.592c-.299.15-.664.224-1.096.224ZM11.798 18l-1.576-5.216h1.248l.624 2.432c.08.288.149.568.208.84.064.267.133.544.208.832h.032c.085-.288.157-.565.216-.832.064-.272.133-.552.208-.84l.616-2.432h1.2L13.214 18h-1.416ZM17.642 18.096c-.442 0-.845-.099-1.207-.296a2.189 2.189 0 0 1-.864-.896c-.214-.4-.32-.893-.32-1.48 0-.581.106-1.075.32-1.48.213-.41.5-.723.864-.936.367-.213.776-.32 1.224-.32.352 0 .653.07.904.208.25.133.458.285.623.456l-.648.728a1.494 1.494 0 0 0-.367-.272 1.107 1.107 0 0 0-.512-.104.976.976 0 0 0-.608.208 1.347 1.347 0 0 0-.432.576c-.102.25-.152.55-.152.896 0 .357.045.664.136.92.09.25.229.443.415.576.187.133.416.2.688.2.102 0 .198-.013.288-.04a.5.5 0 0 0 .224-.12v-.896h-.76v-.96h1.817v2.4c-.176.165-.411.312-.704.44a2.26 2.26 0 0 1-.929.192Z"/>
</svg>
