<svg xmlns="http://www.w3.org/2000/svg" width="24" height="24" fill="none" viewBox="0 0 24 24">
  <path stroke="currentColor" stroke-linecap="round" stroke-linejoin="round" d="M21.5 21v2.5h-18V21M3.5 10.5v-9h12l6 6v3"/>
  <path stroke="currentColor" stroke-linecap="round" stroke-linejoin="round" d="M15.5 1.5v6h6M23.5 10.5h-22v10h22v-10Z"/>
  <path fill="currentColor" d="M9.887 18.096c-.288 0-.59-.064-.904-.192-.31-.128-.579-.352-.808-.672l.68-.728c.15.187.31.33.48.432.17.096.341.144.512.144.267 0 .467-.07.6-.208.139-.139.208-.387.208-.744v-2.36h-2.04v-.984h3.216v3.44c0 .341-.064.653-.192.936-.122.283-.325.51-.608.68-.277.17-.659.256-1.144.256ZM14.884 18.096c-.352 0-.701-.064-1.048-.192a3.057 3.057 0 0 1-.936-.56l.68-.808c.197.16.413.29.648.392.24.101.485.152.736.152.25 0 .435-.043.552-.128a.385.385 0 0 0 .184-.328.408.408 0 0 0-.096-.288.76.76 0 0 0-.28-.192 9.635 9.635 0 0 0-.432-.192l-.672-.288a2.452 2.452 0 0 1-.544-.296 1.572 1.572 0 0 1-.416-.464 1.372 1.372 0 0 1-.152-.664c0-.288.08-.547.24-.776.165-.235.39-.421.672-.56a2.208 2.208 0 0 1 1-.216c.315 0 .624.059.928.176.304.117.573.288.808.512l-.6.744a2.322 2.322 0 0 0-.544-.304 1.72 1.72 0 0 0-.656-.112.85.85 0 0 0-.472.12.394.394 0 0 0-.184.352c0 .101.037.187.112.256.075.07.176.13.304.184.128.053.275.112.44.176l.632.272a2.2 2.2 0 0 1 .6.32c.165.123.293.275.384.456.09.181.136.395.136.64 0 .288-.08.555-.24.8a1.642 1.642 0 0 1-.688.592c-.299.15-.664.224-1.096.224Z"/>
</svg>
