<svg xmlns="http://www.w3.org/2000/svg" width="16" height="16">
  <path fill-rule="evenodd" d="M1 0h8.707L15 5.293V7h-1V6H9V1H2v6H1V0Zm9 1.707V5h3.293L10 1.707ZM14 15v-1.5h1V16H1v-2h1v1h12Z" clip-rule="evenodd"/>
  <path d="M12.118 13V8.552h-1.512v-.784h3.952v.784h-1.512V13h-.928ZM6.555 13V7.768h1.648c.389 0 .736.05 1.04.152.304.101.544.27.72.504.176.235.264.555.264.96 0 .384-.088.701-.264.952-.171.25-.408.437-.712.56a2.653 2.653 0 0 1-1.016.184h-.752V13h-.928Zm.928-2.664h.68c.389 0 .677-.08.864-.24.192-.16.288-.397.288-.712 0-.33-.102-.557-.304-.68-.198-.128-.491-.192-.88-.192h-.648v1.824ZM1.898 13V7.768h1.648c.39 0 .736.05 1.04.152.304.101.544.27.72.504.176.235.264.555.264.96 0 .384-.088.701-.264.952-.17.25-.408.437-.712.56a2.653 2.653 0 0 1-1.016.184h-.752V13h-.928Zm.928-2.664h.68c.39 0 .678-.08.864-.24.192-.16.288-.397.288-.712 0-.33-.101-.557-.304-.68-.197-.128-.49-.192-.88-.192h-.648v1.824Z"/>
</svg>
