<svg xmlns="http://www.w3.org/2000/svg" width="24" height="24" fill="none"><path d="M3.252 1.078C2.984 1.242 3 .948 3 5.698V10h-.81c-.733 0-.822.008-.938.078-.27.165-.252-.215-.252 5.43 0 5 .002 5.115.078 5.24.142.232.229.252 1.12.252H3v1.31c0 1.229.005 1.318.078 1.438.167.274-.638.252 9.422.252s9.255.022 9.422-.252c.073-.12.078-.209.078-1.438V21h.81c.733 0 .822-.008.938-.078.27-.165.252.214.252-5.422s.018-5.257-.252-5.422c-.116-.07-.205-.078-.938-.078H22V7.301L18.85 4.15 15.699 1H9.54c-6.039 0-6.163.002-6.288.078M15 4.81c0 2.716.003 2.814.078 2.938.161.263.028.252 3.12.252H21v2H4V2h11v2.81m3.16.05L20.3 7H16V4.86c0-1.177.005-2.14.01-2.14.006 0 .973.963 2.15 2.14M23 15.5V20H2v-9h21v4.5m-17.24-.101V18h1.012l-.024-1.27a36.604 36.604 0 0 0-.088-1.985 9.06 9.06 0 0 1-.048-.73c.008-.009.09.268.183.613.092.346.267.941.389 1.322l.221.693.286-.011.285-.012.192-.6c.105-.33.285-.928.399-1.329.114-.401.213-.724.22-.717.007.007-.005.2-.027.429-.08.846-.12 1.72-.12 2.646V18h1v-5.2H8.406l-.061.21c-.186.649-.508 1.84-.548 2.03-.077.368-.099.356-.218-.125-.062-.25-.215-.824-.341-1.275l-.228-.82-.625-.011-.625-.011v2.601m4.88.001V18h1.2v-1.43l.298-.389.298-.389.552 1.104.551 1.104h.654c.36 0 .648-.015.64-.033-.007-.019-.389-.723-.849-1.566-.654-1.198-.828-1.546-.796-1.596.022-.036.354-.479.738-.985s.712-.943.728-.97c.024-.039-.11-.05-.622-.048l-.652.002-.76 1.059-.76 1.058-.011-1.061-.01-1.06H10.64v2.6m4.4-2.57c0 .017.348 1.182.774 2.59l.773 2.56h1.431l.77-2.56c.423-1.408.77-2.573.771-2.59 0-.017-.266-.03-.593-.03h-.593l-.391 1.55-.513 2.04c-.068.27-.134.49-.146.49-.013 0-.162-.563-.333-1.25-.17-.688-.402-1.605-.516-2.04l-.205-.79h-.615c-.338 0-.614.013-.614.03M21 22v1H4v-2h17v1" fill-rule="evenodd" fill="#000"/></svg>