<svg xmlns="http://www.w3.org/2000/svg" width="16" height="16" fill="currentColor" viewBox="0 0 16 16">
  <path d="M2.422 12.896c.325.133.67.2 1.032.2.394 0 .73-.07 1.008-.208.282-.144.498-.333.648-.568.15-.235.224-.493.224-.776 0-.256-.046-.472-.136-.648a1.241 1.241 0 0 0-.368-.448 2.63 2.63 0 0 0-.552-.32l-.712-.296a31.367 31.367 0 0 1-.408-.176 1.09 1.09 0 0 1-.312-.224.511.511 0 0 1-.112-.336.52.52 0 0 1 .224-.448c.154-.112.354-.168.6-.168.202 0 .397.04.584.12.186.075.365.181.536.32l.488-.608a2.094 2.094 0 0 0-.72-.464 2.255 2.255 0 0 0-.888-.176c-.342 0-.646.067-.912.2-.262.128-.47.304-.624.528-.15.219-.224.467-.224.744 0 .256.05.475.152.656.106.176.24.325.4.448.165.117.333.213.504.288l.72.312c.16.064.298.128.416.192a.848.848 0 0 1 .288.232c.07.085.104.2.104.344a.592.592 0 0 1-.232.488c-.155.123-.382.184-.68.184a2.09 2.09 0 0 1-.752-.144 2.036 2.036 0 0 1-.648-.424l-.504.608c.25.245.536.435.856.568Z"/>
  <path fill-rule="evenodd" d="M5.605 13 7.31 7.768h1.088L10.101 13h-.976l-.407-1.416H6.96L6.55 13h-.945Zm2.472-3.64c.08.293.163.579.248.856l.184.64H7.171l.186-.64c.085-.277.165-.56.24-.848.08-.293.155-.587.224-.88h.032c.075.288.15.579.224.872ZM10.746 13V7.768h1.648c.39 0 .736.05 1.04.152.304.101.544.27.72.504.176.235.264.555.264.96 0 .384-.088.701-.264.952-.17.25-.408.437-.712.56a2.653 2.653 0 0 1-1.016.184h-.752V13h-.928Zm.928-2.664h.68c.39 0 .677-.08.864-.24.192-.16.288-.397.288-.712 0-.33-.101-.557-.304-.68-.197-.128-.49-.192-.88-.192h-.648v1.824ZM1 0h8.707L15 5.293V7h-1V6H9V1H2v6H1V0Zm9 1.707V5h3.293L10 1.707Z" clip-rule="evenodd"/>
  <path fill-rule="evenodd" d="M14 15v-3h1v4H1v-2h1v1h12Z" clip-rule="evenodd"/>
</svg>
