<svg xmlns="http://www.w3.org/2000/svg" width="24" height="24" fill="none"><path d="M3.252 1.078C2.984 1.242 3 .948 3 5.698V10h-.81c-.733 0-.822.008-.938.078-.27.165-.252-.215-.252 5.43 0 5 .002 5.115.078 5.24.142.232.229.252 1.12.252H3v1.31c0 1.229.005 1.318.078 1.438.167.274-.638.252 9.422.252s9.255.022 9.422-.252c.073-.12.078-.209.078-1.438V21h.81c.733 0 .822-.008.938-.078.27-.165.252.214.252-5.422s.018-5.257-.252-5.422c-.116-.07-.205-.078-.938-.078H22V7.301L18.85 4.15 15.699 1H9.54c-6.039 0-6.163.002-6.288.078M15 4.81c0 2.716.003 2.814.078 2.938.161.263.028.252 3.12.252H21v2H4V2h11v2.81m3.16.05L20.3 7H16V4.86c0-1.177.005-2.14.01-2.14.006 0 .973.963 2.15 2.14M23 15.5V20H2v-9h21v4.5m-17.24-.101V18h1.012l-.024-1.27a36.604 36.604 0 0 0-.088-1.985 9.06 9.06 0 0 1-.048-.73c.008-.009.09.268.183.613.092.346.267.941.389 1.322l.221.693.286-.011.285-.012.192-.6c.105-.33.285-.928.399-1.329.114-.401.213-.724.22-.717.007.007-.005.2-.027.429-.08.846-.12 1.72-.12 2.646V18h1v-5.2H8.406l-.061.21c-.186.649-.508 1.84-.548 2.03-.077.368-.099.356-.218-.125-.062-.25-.215-.824-.341-1.275l-.228-.82-.625-.011-.625-.011v2.601m4.92.001V18h1.2v-1.749l.59-.021c.488-.017.646-.039.913-.125.631-.203 1.028-.617 1.16-1.212.181-.814-.122-1.547-.766-1.855-.437-.208-.672-.237-1.947-.237l-1.15-.001v2.6m5.837-2.499c-.405.098-1.141.487-1.108.586.007.02.136.188.287.373l.275.336.125-.094c.364-.273.846-.399 1.241-.325.195.036.414.235.446.403.08.426-.234.694-.913.779a7.97 7.97 0 0 1-.379.041c-.038 0-.051.106-.051.42v.42l.31.001c.759.001 1.21.264 1.21.704 0 .364-.372.598-.94.59-.367-.004-.659-.099-.987-.32a21.438 21.438 0 0 0-.234-.156c-.016-.009-.15.148-.299.35l-.271.368.175.156c.677.6 2.069.737 2.95.29.264-.134.545-.395.642-.596.361-.744.042-1.474-.775-1.777-.1-.037-.181-.079-.181-.093 0-.013.076-.059.169-.101.269-.121.522-.345.646-.573.097-.178.114-.256.112-.494-.008-.829-.728-1.355-1.843-1.346a3.38 3.38 0 0 0-.607.058m-3.646.861a.935.935 0 0 1 .341.162c.4.329.251 1.09-.253 1.292-.093.037-.352.075-.619.09l-.46.026V13.72h.398c.219 0 .486.019.593.042M21 22v1H4v-2h17v1" fill-rule="evenodd" fill="#000"/></svg>