<svg xmlns="http://www.w3.org/2000/svg" width="16" height="16" fill="none"><path d="M1.292.05a.479.479 0 0 0-.276.351c-.041.189-.041 7.009 0 7.198.035.163.13.285.276.351.199.09.386.058.545-.092.173-.164.163.064.163-3.55V1.013h6.987v2.226c0 1.504.009 2.269.029 2.36.035.163.13.285.276.351.102.046.234.049 2.408.049L14 6l.001.3c0 .329.037.457.168.577.133.123.399.152.568.062a.707.707 0 0 0 .243-.293c.011-.04.02-.343.02-.673v-.6l-.072-.12c-.107-.18-5.102-5.16-5.227-5.212-.088-.036-.569-.041-4.2-.04-3.921 0-4.106.002-4.209.049m10.361 3.323 1.64 1.64H10v-1.64c0-.902.003-1.64.007-1.64.003 0 .744.738 1.646 1.64m1.48 4.324c-.815.069-1.453.439-1.872 1.084-.307.471-.459 1.121-.427 1.818.071 1.521 1.022 2.494 2.437 2.494.599 0 1.099-.196 1.524-.6l.169-.16-.323-.353-.324-.353-.16.134c-.341.283-.672.373-1.069.289-.507-.106-.884-.538-.998-1.144-.066-.35-.04-.956.053-1.241.125-.386.395-.715.705-.86.14-.066.179-.072.485-.071.303 0 .347.006.48.069.081.038.204.113.274.166.07.054.136.097.147.096.01-.002.159-.161.33-.354.355-.402.351-.359.059-.568-.467-.334-.987-.49-1.49-.446m-10.635.11c-.01.017-1.573 5.023-1.611 5.16-.012.043.028.046.59.046.332 0 .603-.006.603-.014 0-.017.228-.904.282-1.099l.039-.14h1.565l.109.42.159.62.049.2.622.007.621.007-.012-.06c-.007-.033-.371-1.21-.809-2.614l-.796-2.553h-.7c-.384 0-.705.009-.711.02m3.995 2.554c-.44 1.416-.804 2.591-.808 2.613-.008.034.075.039.578.039.387 0 .593-.009.605-.028.009-.016.086-.295.17-.62l.153-.592.787-.007.787-.007.158.621.158.62.62.007c.34.004.619-.002.619-.013.001-.011-.362-1.188-.806-2.614l-.807-2.593H7.293l-.8 2.574m-3.28-1.608c.02.091.491 1.971.51 2.04l.017.06h-.55c-.303 0-.55-.006-.55-.013 0-.007.089-.37.198-.807.108-.436.225-.916.26-1.066.062-.275.089-.325.115-.214M8.26 9.759c.146.586.26 1.072.252 1.08-.022.023-1.072.017-1.072-.006 0-.011.089-.374.197-.807.109-.432.225-.909.258-1.059.033-.151.069-.274.079-.274.011 0 .139.48.286 1.066m6.121 3.759a.506.506 0 0 0-.293.206l-.075.098-.008.596-.009.595H2v-.307c0-.362-.026-.442-.187-.58a.486.486 0 0 0-.796.269c-.039.18-.04 1.026-.001 1.204.035.163.13.285.276.351.104.047.362.049 6.708.049s6.604-.002 6.708-.049a.482.482 0 0 0 .279-.363c.02-.096.027-.413.021-.927L15 13.88l-.071-.12a.516.516 0 0 0-.548-.242" fill-rule="evenodd" fill="#000"/></svg>