<svg xmlns="http://www.w3.org/2000/svg" width="16" height="16" fill="none"><path d="M1.292.05a.479.479 0 0 0-.277.356C.994.505.988 1.536.993 3.84c.008 3.67-.009 3.365.192 3.541.23.202.623.119.758-.161L2 7.103v-6.09h6.987v2.226c0 1.504.009 2.269.029 2.36.035.163.13.285.276.351.102.046.234.049 2.408.049L14 6l.001.3c0 .329.037.457.168.577.133.123.399.152.568.062a.707.707 0 0 0 .243-.293c.011-.04.02-.343.02-.673v-.6l-.072-.12c-.107-.18-5.102-5.16-5.227-5.212-.088-.036-.569-.041-4.2-.04-3.921 0-4.106.002-4.209.049m10.361 3.323 1.64 1.64H10v-1.64c0-.902.003-1.64.007-1.64.003 0 .744.738 1.646 1.64M2.931 7.709c-.438.046-.784.218-1.119.555-.478.482-.696 1.142-.696 2.109.001 1.417.5 2.315 1.464 2.63.213.07.266.077.62.077.331 0 .416-.009.587-.062.793-.248 1.273-.866 1.459-1.881.063-.345.062-1.194-.002-1.524-.167-.864-.539-1.42-1.16-1.732-.293-.147-.749-.215-1.153-.172m2.909.571v.493h1.573v4.24h1.174v-4.24h1.573v-.986H5.84v.493m5.393 2.113L11.24 13h1.173l.007-1.006.007-1.007.967-.007.966-.007.007-.486.008-.487h-1.948V8.773h2.266v-.986h-3.467l.007 2.606M3.535 8.798c.157.09.249.201.359.433.143.304.173.503.172 1.156 0 .656-.039.896-.199 1.211-.173.343-.35.467-.669.468-.179.001-.217-.009-.333-.08-.227-.14-.392-.433-.481-.851-.058-.27-.078-.906-.039-1.238.053-.458.159-.742.357-.957.15-.163.279-.219.511-.219.158 0 .208.012.322.077m10.825 3.225a.576.576 0 0 0-.281.211l-.066.095-.007 1.342-.007 1.342H2.004l-.009-.597-.008-.598-.083-.102c-.121-.15-.231-.205-.408-.205a.477.477 0 0 0-.435.256c-.059.109-.061.141-.069.893-.006.514.001.831.021.927a.482.482 0 0 0 .279.363c.104.047.362.049 6.708.049s6.604-.002 6.708-.049a.479.479 0 0 0 .276-.351c.04-.185.04-3.013 0-3.198a.59.59 0 0 0-.099-.219.524.524 0 0 0-.525-.159" fill-rule="evenodd" fill="#000"/></svg>