<svg xmlns="http://www.w3.org/2000/svg" width="24" height="24" fill="none"><path d="M3 5.5V10H1v11h2v3h18v-3h2V10h-2V7.3l-3.15-3.15L14.7 1H3v4.5M14 5v3h6v2H4V2h10v3m3.16-.14L19.3 7H15V4.86c0-1.177.005-2.14.01-2.14.006 0 .973.963 2.15 2.14M22 15.5V20H2v-9h20v4.5M5.019 13.102c.052.166.406 1.336.787 2.6L6.499 18h1.418l.057-.19c.358-1.196 1.481-4.922 1.496-4.96.014-.039-.118-.05-.584-.05h-.602l-.036.13c-.02.072-.248.976-.507 2.01-.259 1.034-.484 1.894-.5 1.911-.015.018-.204-.666-.419-1.52l-.516-2.041-.123-.49H4.926l.093.302m5.141 2.301v2.604l1.05-.016c1.001-.015 1.064-.02 1.36-.119.745-.249 1.202-.751 1.438-1.58.117-.411.127-1.359.019-1.789-.165-.661-.555-1.167-1.107-1.437-.463-.227-.72-.265-1.81-.265l-.95-.001v2.603m5.08-.003V18h1.16v-2h1.96v-.999l-.97-.01-.97-.011-.011-.589-.011-.59 1.151-.01 1.151-.011.011-.49.011-.49H15.24v2.6m-3.137-1.573c.273.093.582.408.675.687.17.511.145 1.406-.051 1.823-.216.459-.526.664-1.057.695l-.31.018v-3.29h.273c.15 0 .361.03.47.067M20 22v1H4v-2h16v1" fill-rule="evenodd" fill="#000"/></svg>