<svg xmlns="http://www.w3.org/2000/svg" width="16" height="16" fill="none"><path d="M1.292.05a.478.478 0 0 0-.277.357C.994.505.988 1.464.993 3.587c.006 2.802.011 3.046.052 3.122.061.11.218.246.309.266l.105.026c.063.019.304-.061.372-.124a.65.65 0 0 0 .119-.17c.046-.102.049-.242.049-2.9L2 1.013h6.987v2.226c0 1.504.009 2.269.029 2.36.035.163.13.285.276.351.102.046.234.049 2.408.049L14 6l.001.3c0 .329.037.457.168.577.133.123.399.152.568.062a.707.707 0 0 0 .243-.293c.011-.04.02-.343.02-.673v-.6l-.072-.12c-.107-.18-5.102-5.16-5.227-5.212-.088-.036-.569-.041-4.2-.04-3.921 0-4.106.002-4.209.049m10.361 3.323 1.64 1.64H10v-1.64c0-.902.003-1.64.007-1.64.003 0 .744.738 1.646 1.64m.952 4.335c-.623.073-1.209.439-1.444.904-.195.386-.199.87-.009 1.274.076.16.386.472.589.591.085.05.466.225.847.39.381.165.742.332.802.372.2.133.266.423.136.599-.135.183-.381.258-.766.234-.382-.024-.739-.156-1.104-.41-.201-.14-.135-.179-.559.325-.336.399-.335.352-.013.574.538.372 1.19.556 1.86.525.559-.027 1.019-.194 1.346-.489.614-.556.689-1.519.162-2.058-.211-.214-.393-.317-1.089-.61-.978-.412-1.005-.426-1.104-.568-.057-.083-.06-.295-.006-.401a.524.524 0 0 1 .167-.152c.114-.067.156-.075.422-.084.418-.013.753.083 1.089.314l.118.082.118-.14c.232-.277.473-.586.473-.607 0-.039-.354-.29-.561-.398a2.646 2.646 0 0 0-.954-.268 4.422 4.422 0 0 0-.312-.023l-.208.024M1.547 10.4v2.614l1.766-.007L5.08 13v-.987l-1.18-.007-1.18-.007V10.8h1.947v-.959L3.7 9.834l-.967-.007-.007-.527-.007-.527h2.294v-.986H1.547V10.4m4.646-.007L6.2 13h1.173l.007-.884.007-.883.58-.013c.488-.011.614-.022.793-.071.628-.173 1.054-.54 1.238-1.069.086-.244.107-.79.044-1.076-.127-.569-.521-.953-1.139-1.109-.372-.094-.595-.108-1.665-.108H6.186l.007 2.606m2.27-1.612c.191.062.327.168.396.309.051.102.061.167.061.379 0 .231-.008.27-.081.413a.74.74 0 0 1-.434.362 3.752 3.752 0 0 1-.558.042l-.46.012V8.714l.473.013c.327.008.513.025.603.054m5.918 4.737a.506.506 0 0 0-.293.206l-.075.098-.008.596-.009.595H2v-.307c0-.362-.026-.442-.187-.58a.486.486 0 0 0-.796.269c-.039.18-.04 1.026-.001 1.204.035.163.13.285.276.351.104.047.362.049 6.708.049s6.604-.002 6.708-.049a.482.482 0 0 0 .279-.363c.02-.096.027-.413.021-.927L15 13.88l-.071-.12a.516.516 0 0 0-.548-.242" fill-rule="evenodd" fill="#000"/></svg>