<svg xmlns="http://www.w3.org/2000/svg" width="16" height="16" fill="none"><path d="M1.292.05a.478.478 0 0 0-.277.357C.994.505.988 1.464.993 3.587c.006 2.802.011 3.046.052 3.122.061.11.218.246.309.266l.105.026c.063.019.304-.061.372-.124a.65.65 0 0 0 .119-.17c.046-.102.049-.242.049-2.9L2 1.013h6.987v2.226c0 1.504.009 2.269.029 2.36.035.163.13.285.276.351.102.046.234.049 2.408.049L14 6v.552c0 .507.005.56.057.668a.485.485 0 0 0 .394.267c.175.017.3-.03.411-.153.141-.155.156-.277.146-1.18L15 5.373l-.072-.12c-.107-.18-5.102-5.16-5.227-5.212-.088-.036-.569-.041-4.2-.04-3.921 0-4.106.002-4.209.049m10.361 3.323 1.64 1.64H10v-1.64c0-.902.003-1.64.007-1.64.003 0 .744.738 1.646 1.64M1.26 10.393 1.267 13l.486.007.487.008v-1.048a22.382 22.382 0 0 0-.096-2.356 7.142 7.142 0 0 1-.033-.571c.005-.034.092.247.193.625.102.378.277.971.39 1.318l.204.63h.579l.216-.68c.119-.374.299-.97.4-1.326.101-.355.188-.641.194-.636.005.006-.009.231-.031.5a24.088 24.088 0 0 0-.107 2.476L4.147 13h.986l.007-2.607.007-2.606H3.906l-.259.94a88.752 88.752 0 0 0-.343 1.28c-.046.187-.092.34-.103.34-.01 0-.051-.141-.091-.314a54.525 54.525 0 0 0-.339-1.269c-.145-.525-.264-.96-.264-.966a9.03 9.03 0 0 0-.627-.011h-.627l.007 2.606m4.933 0L6.2 13h1.173l.007-.884.007-.883.58-.013c.488-.011.614-.022.793-.071.628-.173 1.054-.54 1.238-1.069.086-.244.107-.79.044-1.076-.127-.569-.521-.953-1.139-1.109-.372-.094-.595-.108-1.665-.108H6.186l.007 2.606m5.887-2.511a3.16 3.16 0 0 0-1.087.507l-.114.086.282.342c.155.189.296.343.313.343.018 0 .12-.057.226-.128.316-.209.5-.268.847-.27.254-.001.312.007.436.063.17.076.287.22.311.386.063.416-.342.721-1.001.753-.417.021-.376-.029-.367.443l.007.406.32.017c.375.02.554.05.774.131.505.187.595.77.159 1.04-.209.129-.693.174-1.029.096-.237-.055-.401-.13-.659-.302-.124-.082-.232-.138-.245-.125-.042.044-.484.658-.497.691-.007.017.057.094.142.171.199.178.61.382.955.474.242.064.313.071.76.072.459.001.512-.004.76-.073.377-.104.62-.232.849-.446.315-.294.432-.576.413-.996a1.052 1.052 0 0 0-.254-.678c-.118-.145-.41-.337-.653-.432a1.539 1.539 0 0 1-.197-.086c-.008-.009.073-.06.18-.114.55-.275.8-.648.762-1.139-.048-.631-.507-1.072-1.28-1.232-.255-.053-.87-.053-1.113 0m-3.617.899c.191.062.327.168.396.309.051.102.061.167.061.379 0 .231-.008.27-.081.413a.74.74 0 0 1-.434.362 3.752 3.752 0 0 1-.558.042l-.46.012V8.714l.473.013c.327.008.513.025.603.054m5.918 4.737a.506.506 0 0 0-.293.206l-.075.098-.008.596-.009.595H2v-.307c0-.362-.026-.442-.187-.58a.486.486 0 0 0-.796.269c-.039.18-.04 1.026-.001 1.204.035.163.13.285.276.351.104.047.362.049 6.708.049s6.604-.002 6.708-.049a.482.482 0 0 0 .279-.363c.02-.096.027-.413.021-.927L15 13.88l-.071-.12a.516.516 0 0 0-.548-.242" fill-rule="evenodd" fill="#000"/></svg>