<svg xmlns="http://www.w3.org/2000/svg" width="24" height="24" fill="none"><path d="M3.252 1.078C2.984 1.242 3 .948 3 5.698V10h-.81c-.733 0-.822.008-.938.078-.27.165-.252-.215-.252 5.43 0 5 .002 5.115.078 5.24.142.232.229.252 1.12.252H3v1.31c0 1.229.005 1.318.078 1.438.167.274-.638.252 9.422.252s9.255.022 9.422-.252c.073-.12.078-.209.078-1.438V21h.81c.733 0 .822-.008.938-.078.27-.165.252.214.252-5.422s.018-5.257-.252-5.422c-.116-.07-.205-.078-.938-.078H22V7.301L18.85 4.15 15.699 1H9.54c-6.039 0-6.163.002-6.288.078M15 4.81c0 2.716.003 2.814.078 2.938.161.263.028.252 3.12.252H21v2H4V2h11v2.81m3.16.05L20.3 7H16V4.86c0-1.177.005-2.14.01-2.14.006 0 .973.963 2.15 2.14M23 15.5V20H2v-9h21v4.5m-17.08-.1V18h1.16v-1.749l.59-.021c.49-.017.645-.039.916-.126.565-.182.947-.535 1.122-1.038.109-.311.097-.971-.023-1.274a1.483 1.483 0 0 0-.698-.751c-.422-.208-.68-.24-1.937-.24L5.92 12.8v2.6m4.72-.003V18h.922c1.058 0 1.369-.045 1.829-.265.588-.281 1.007-.866 1.153-1.611.102-.523.064-1.4-.08-1.824a2.16 2.16 0 0 0-.549-.892c-.224-.22-.427-.338-.819-.475-.309-.108-.34-.111-1.386-.125l-1.07-.015v2.604m5.08.003V18h1.2v-1.999l.97-.01.97-.011.011-.49.011-.49H16.92v-1.2h2.28v-1h-3.48v2.6m-7.641-1.637c.099.023.24.088.314.145.434.33.268 1.147-.27 1.327a3.53 3.53 0 0 1-.59.071l-.453.026V13.72l.41.001c.225.001.491.02.589.042m4.661.126c.243.125.343.229.474.491.143.285.201.68.175 1.178-.051.954-.448 1.429-1.233 1.474l-.316.018v-3.3l.35.018c.274.014.393.04.55.121M21 22v1H4v-2h17v1" fill-rule="evenodd" fill="#000"/></svg>