<svg xmlns="http://www.w3.org/2000/svg" width="24" height="24" fill="none"><path d="M3.252 1.078C2.984 1.242 3 .948 3 5.698V10h-.81c-.733 0-.822.008-.938.078-.27.165-.252-.215-.252 5.43 0 5 .002 5.115.078 5.24.142.232.229.252 1.12.252H3v1.31c0 1.229.005 1.318.078 1.438.167.274-.638.252 9.422.252s9.255.022 9.422-.252c.073-.12.078-.209.078-1.438V21h.81c.733 0 .822-.008.938-.078.27-.165.252.214.252-5.422s.018-5.257-.252-5.422c-.116-.07-.205-.078-.938-.078H22V7.301L18.85 4.15 15.699 1H9.54c-6.039 0-6.163.002-6.288.078M15 4.81c0 2.716.003 2.814.078 2.938.161.263.028.252 3.12.252H21v2H4V2h11v2.81m3.16.05L20.3 7H16V4.86c0-1.177.005-2.14.01-2.14.006 0 .973.963 2.15 2.14M23 15.5V20H2v-9h21v4.5M5.567 12.833c.007.018.325.585.706 1.26l.692 1.227-.201.357c-.11.196-.452.799-.76 1.34L5.446 18H6.711l.357-.71c.197-.391.407-.826.467-.969l.11-.258.269.538c.148.297.373.733.501.969l.231.43H9.967l-.079-.13c-.335-.553-1.421-2.458-1.421-2.493 0-.024.309-.603.686-1.286.378-.683.687-1.253.687-1.266 0-.014-.279-.025-.619-.025h-.62l-.263.55c-.145.302-.328.708-.405.9-.078.193-.147.35-.153.35-.007 0-.212-.405-.456-.9l-.445-.9h-.663c-.364 0-.657.015-.649.033M10.56 15.4V18h1.012l-.023-1.23a37.508 37.508 0 0 0-.089-1.984 9.813 9.813 0 0 1-.051-.768c.007-.008.093.278.189.634.097.356.272.95.391 1.32l.215.671.285-.011.285-.012.207-.648c.114-.356.294-.954.4-1.329a9.17 9.17 0 0 1 .205-.671c.006.006-.006.182-.026.39-.078.8-.12 1.735-.12 2.668V18h1v-5.2h-.616c-.46 0-.62.013-.635.051-.011.028-.158.563-.327 1.19-.17.626-.322 1.184-.339 1.239-.026.088-.036.073-.082-.12a93.528 93.528 0 0 0-.605-2.23l-.042-.13H10.56v2.6m5.2 0V18h3.48v-1h-2.32v-4.2h-1.16v2.6M21 22v1H4v-2h17v1" fill-rule="evenodd" fill="#000"/></svg>