<svg xmlns="http://www.w3.org/2000/svg" width="24" height="24" fill="none"><path d="M3.252 1.078C2.984 1.242 3 .948 3 5.698V10h-.81c-.733 0-.822.008-.938.078-.27.165-.252-.215-.252 5.43 0 5 .002 5.115.078 5.24.142.232.229.252 1.12.252H3v1.31c0 1.229.005 1.318.078 1.438.167.274-.638.252 9.422.252s9.255.022 9.422-.252c.073-.12.078-.209.078-1.438V21h.81c.733 0 .822-.008.938-.078.27-.165.252.214.252-5.422s.018-5.257-.252-5.422c-.116-.07-.205-.078-.938-.078H22V7.301L18.85 4.15 15.699 1H9.54c-6.039 0-6.163.002-6.288.078M15 4.81c0 2.716.003 2.814.078 2.938.161.263.028.252 3.12.252H21v2H4V2h11v2.81m3.16.05L20.3 7H16V4.86c0-1.177.005-2.14.01-2.14.006 0 .973.963 2.15 2.14M23 15.5V20H2v-9h21v4.5m-17.12-.1V18h1.16v-1.88l.31.001h.31l.497.94.498.939h.652c.359 0 .653-.008.653-.017 0-.009-.263-.481-.584-1.049-.322-.567-.567-1.037-.546-1.044.129-.043.417-.265.542-.418.237-.289.318-.519.34-.958.035-.724-.213-1.202-.765-1.473-.422-.208-.68-.24-1.937-.24L5.88 12.8v2.6m5.899-2.551c-.01.028-.376 1.198-.812 2.601L10.173 18h1.21l.153-.62.152-.62h1.584l.152.62.153.62H14.83l-.333-1.07-.806-2.59-.474-1.52-.709-.011c-.546-.008-.714.001-.729.04M15.44 15.4V18h1.2v-1.883l.31.011.31.012.493.93.493.93H19.563l-.048-.09c-.026-.05-.29-.521-.588-1.048-.297-.527-.521-.964-.497-.972.14-.047.438-.291.572-.468.243-.322.293-.493.295-1.023.003-.443-.002-.471-.129-.728a1.35 1.35 0 0 0-.675-.657c-.389-.182-.663-.213-1.903-.213l-1.15-.001v2.6m-2.67-.61.26 1.05H11.935l.252-1.01c.139-.555.253-1.045.253-1.088 0-.202.089.079.33 1.048m-4.563-.961c.221.099.316.229.343.469.028.252-.017.44-.14.587-.175.207-.404.284-.919.306l-.451.02V13.71l.49.018c.385.013.53.035.677.101m9.6 0c.291.13.394.36.335.749-.06.406-.363.583-1.051.613l-.451.02V13.71l.49.018c.385.013.53.035.677.101M21 22v1H4v-2h17v1" fill-rule="evenodd" fill="#000"/></svg>