<svg xmlns="http://www.w3.org/2000/svg" width="16" height="16" fill="none" viewBox="0 0 16 16">
  <path fill="#1D1D1D" fill-rule="evenodd" d="M1 0h8.707L15 5.293V7h-1V6H9V1H2v7H1V0Zm9 1.707V5h3.293L10 1.707ZM14 15v-1.5h1V16H1v-2h1v1h12Z" clip-rule="evenodd"/>
  <path fill="#1D1D1D" d="M12.87 13.096c-.443 0-.846-.104-1.208-.312a2.248 2.248 0 0 1-.856-.912c-.208-.405-.312-.896-.312-1.472 0-.427.06-.808.184-1.144.122-.341.293-.63.512-.864a2.3 2.3 0 0 1 1.696-.72c.33 0 .624.067.88.2.256.128.466.283.632.464l-.496.568a1.336 1.336 0 0 0-.448-.312 1.272 1.272 0 0 0-.544-.112c-.278 0-.528.077-.752.232a1.577 1.577 0 0 0-.52.656c-.128.283-.192.619-.192 1.008 0 .4.06.744.184 1.032.122.283.296.501.52.656.224.15.485.224.784.224.224 0 .424-.045.6-.136.176-.09.336-.21.48-.36l.472.552a2.236 2.236 0 0 1-.72.56 2.044 2.044 0 0 1-.896.192Z"/>
  <path fill="#1D1D1D" fill-rule="evenodd" d="m5.736 12.898 1.67-5.13h1.089L10.199 13h-.976l-.407-1.416H7.058L6.647 13H4.793l-.407-1.416H2.628L2.218 13h-.945l1.704-5.232h1.088l1.67 5.13Zm-2.897-2.042.186-.64c.085-.277.165-.56.24-.848.08-.293.155-.587.224-.88h.032c.075.288.15.579.224.872.08.293.163.579.248.856l.184.64H2.839Zm5.584-.64.184.64H7.269l.186-.64c.085-.277.165-.56.24-.848.08-.293.154-.587.224-.88h.032c.074.288.15.579.224.872.08.293.162.579.248.856Z" clip-rule="evenodd"/>
</svg>
