<svg xmlns="http://www.w3.org/2000/svg" width="16" height="16" fill="none"><path d="M1.292.05a.479.479 0 0 0-.277.356C.994.505.988 1.536.993 3.84c.008 3.67-.009 3.365.192 3.541.23.202.623.119.758-.161L2 7.103v-6.09h6.987v2.226c0 1.504.009 2.269.029 2.36.035.163.13.285.276.351.102.046.234.049 2.408.049L14 6l.001.3c0 .329.037.457.168.577.133.123.399.152.568.062a.707.707 0 0 0 .243-.293c.011-.04.02-.343.02-.673v-.6l-.072-.12c-.107-.18-5.102-5.16-5.227-5.212-.088-.036-.569-.041-4.2-.04-3.921 0-4.106.002-4.209.049m10.361 3.323 1.64 1.64H10v-1.64c0-.902.003-1.64.007-1.64.003 0 .744.738 1.646 1.64M3.272 7.71c-.49.047-.981.273-1.327.61-.454.442-.692.978-.772 1.733-.09.856.114 1.673.56 2.237.251.317.723.612 1.16.726a3.08 3.08 0 0 0 1.02.052c.368-.06.806-.249 1.12-.485l.14-.105V10.08H3.359l.007.473.007.474.381.007.381.007-.008.446-.007.446-.128.064c-.353.175-.935.054-1.218-.253a1.515 1.515 0 0 1-.202-.312c-.143-.302-.181-.523-.181-1.045 0-.514.044-.736.201-1.035.155-.295.472-.561.738-.618a1.79 1.79 0 0 1 .295-.018c.255.001.448.069.667.234l.158.119.104-.115.322-.358.218-.244-.124-.109c-.496-.437-1.015-.6-1.698-.533m2.915.57v.493h1.226V12H6.185l.008.5.007.5 1.807.007 1.806.007V12H8.587V8.773h1.226v-.986H6.187v.493m5.046 2.113L11.24 13h1.173l.007-1.006.007-1.007.967-.007.966-.007.007-.486.008-.487h-1.948V8.773h2.266v-.986h-3.467l.007 2.606m3.127 1.63a.576.576 0 0 0-.281.211l-.066.095-.007 1.342-.007 1.342H2v-.801c0-.841-.009-.916-.128-1.047a.543.543 0 0 0-.379-.152c-.151 0-.216.026-.329.13-.166.154-.163.133-.172 1.266-.006.695.002 1.083.022 1.18a.48.48 0 0 0 .278.361c.104.047.362.049 6.708.049s6.604-.002 6.708-.049a.479.479 0 0 0 .276-.351c.04-.185.04-3.013 0-3.198a.59.59 0 0 0-.099-.219.524.524 0 0 0-.525-.159" fill-rule="evenodd" fill="#000"/></svg>