<svg xmlns="http://www.w3.org/2000/svg" width="16" height="16" fill="none"><path d="M1.292.05a.479.479 0 0 0-.276.351c-.041.191-.041 15.007 0 15.198.035.163.13.285.276.351.104.047.362.049 6.708.049s6.604-.002 6.708-.049a.476.476 0 0 0 .277-.356c.021-.099.027-1.624.022-5.181L15 5.373l-.072-.12c-.107-.18-5.102-5.16-5.227-5.212-.088-.036-.569-.041-4.2-.04-3.921 0-4.106.002-4.209.049m7.695 3.189c0 1.504.009 2.269.029 2.36.035.163.13.285.276.351.102.046.234.049 2.408.049L14 6v9.013H2v-14h6.987v2.226m2.666.134 1.64 1.64H10v-1.64c0-.902.003-1.64.007-1.64.003 0 .744.738 1.646 1.64M4.28 5.055a.445.445 0 0 0-.23.238.5.5 0 0 0-.013.395.66.66 0 0 0 .291.284c.049.018.463.028 1.174.027 1.01 0 1.107-.004 1.205-.049a.65.65 0 0 0 .17-.119c.063-.068.143-.309.124-.372a2.71 2.71 0 0 1-.026-.105c-.019-.089-.156-.25-.258-.302-.115-.06-2.322-.057-2.437.003m.08 2.967c-.492.162-.464.854.039.962.193.041 7.009.041 7.202 0a.495.495 0 0 0 .392-.547c-.015-.138-.069-.222-.217-.342l-.101-.082-3.631-.004c-1.997-.002-3.655.004-3.684.013m-.08 3.033a.445.445 0 0 0-.23.238.5.5 0 0 0-.013.395.66.66 0 0 0 .291.284c.052.019 1.201.028 3.675.028 3.948 0 3.69.011 3.855-.163a.46.46 0 0 0 .101-.524.426.426 0 0 0-.231-.249c-.096-.049-.22-.051-3.734-.051-3.243.001-3.643.005-3.714.042" fill-rule="evenodd" fill="#000"/></svg>