<svg xmlns="http://www.w3.org/2000/svg" width="12" height="12" fill="none"><path d="M1.347.029a.513.513 0 0 0-.283.229L1.01.35l-.005 5.607c-.004 3.707.002 5.633.015 5.682.029.11.125.231.234.295l.096.056h9.3l.094-.055a.516.516 0 0 0 .227-.27c.023-.062.027-.801.028-4.175 0-4.07 0-4.101-.04-4.19C10.898 3.165 7.852.116 7.71.048L7.61 0 4.52.002c-2.468 0-3.107.006-3.173.027m5.657 2.296L7.01 3.65l.055.094a.516.516 0 0 0 .27.227c.06.022.341.027 1.37.028L10 4v7H2V1H6.999l.005 1.325m1.646.035.64.64H8v-.64c0-.352.002-.64.005-.64s.293.288.645.64" fill-rule="evenodd" fill="#000"/></svg>