<svg xmlns="http://www.w3.org/2000/svg" width="16" height="16" fill="none" viewBox="0 0 16 16"><path stroke="currentColor" fill="none" stroke-linecap="round" stroke-linejoin="round" d="M14.5 12.5v3h-13v-1M1.5 6.5v-6h8l5 5v1"/><path stroke="currentColor" fill="none" stroke-linecap="round" stroke-linejoin="round" d="M9.5.5v5h5"/><path fill="currentColor" d="M1.365 13V7.784h1.848c.368 0 .704.05 1.008.152.304.096.546.264.728.504.186.235.28.557.28.968 0 .4-.094.725-.28.976-.182.25-.424.437-.728.56-.304.117-.64.176-1.008.176H2.54V13H1.365Zm1.176-2.816h.576c.31 0 .544-.064.704-.192.165-.133.248-.328.248-.584 0-.256-.083-.435-.248-.536-.16-.101-.395-.152-.704-.152H2.54v1.464Zm.456.632.816-.76L5.477 13h-1.32l-1.16-2.184ZM7.41 13V8.776H5.85v-.992h4.304v.992h-1.56V13H7.41ZM11.239 13V7.784h3.463v.992h-2.287v1.208h1.952v.992h-1.953V13H11.24Z"/></svg>