<svg xmlns="http://www.w3.org/2000/svg" width="16" height="16" fill="currentColor">
  <path d="M12.649 13.096c-.47 0-.89-.104-1.264-.312a2.2 2.2 0 0 1-.88-.912c-.213-.405-.32-.896-.32-1.472 0-.427.061-.808.184-1.144.128-.336.304-.621.528-.856.23-.24.493-.421.792-.544.299-.123.621-.184.968-.184.373 0 .69.067.952.2.261.133.472.288.632.464l-.496.568a1.41 1.41 0 0 0-1.056-.424c-.31 0-.581.077-.816.232-.235.15-.416.365-.544.648-.128.283-.192.621-.192 1.016s.061.736.184 1.024c.123.288.301.51.536.664.24.15.533.224.88.224.15 0 .29-.019.424-.056a.915.915 0 0 0 .328-.176v-1.128h-.992v-.76h1.824v2.304c-.176.176-.41.325-.704.448-.288.117-.61.176-.968.176ZM5.8 13V7.768H7.45c.39 0 .736.05 1.04.152.304.101.544.27.72.504.176.235.264.555.264.96 0 .384-.088.701-.264.952-.17.25-.408.437-.712.56a2.653 2.653 0 0 1-1.016.184h-.752V13H5.8Zm.929-2.664h.68c.39 0 .677-.08.864-.24.192-.16.288-.397.288-.712 0-.33-.102-.557-.304-.68-.198-.128-.49-.192-.88-.192h-.648v1.824ZM2.88 13.096c-.342 0-.638-.072-.888-.216-.246-.15-.446-.379-.6-.688l.6-.408c.09.165.205.29.344.376a.895.895 0 0 0 .464.128c.26 0 .453-.077.576-.232.128-.155.192-.424.192-.808v-3.48h.928v3.56c0 .325-.056.621-.168.888-.112.267-.288.48-.528.64-.235.16-.542.24-.92.24Z"/>
  <path fill-rule="evenodd" d="M1 0h8.707L15 5.293V7h-1V6H9V1H2v7H1V0Zm9 1.707V5h3.293L10 1.707ZM14 15v-1h1v2H1v-2h1v1h12Z" clip-rule="evenodd"/>
</svg>
