<svg xmlns="http://www.w3.org/2000/svg" width="16" height="16" fill="none" viewBox="0 0 16 16"><path stroke="currentColor" fill="none" stroke-linecap="round" stroke-linejoin="round" d="M14.5 13.5v2h-13v-1M1.5 6.5v-6h8l5 5v1"/><path stroke="currentColor" fill="none" stroke-linecap="round" stroke-linejoin="round" d="M9.5.5v5h5"/><path fill="currentColor" d="M1.269 13V7.784H2.5l.512 1.848.176.72h.032l.176-.72.512-1.848H5.14V13h-.992v-1.616c0-.144.005-.323.016-.536.01-.219.024-.445.04-.68l.048-.672c.021-.213.037-.39.048-.528h-.024l-.4 1.392-.4 1.256H2.9l-.408-1.256-.376-1.392h-.024l.04.528c.021.213.04.437.056.672.016.235.029.461.04.68.01.213.016.392.016.536V13h-.976ZM6.146 13V7.784h1.192V9.92h.024l1.544-2.136h1.304l-2.872 3.792V13H6.146Zm2.904 0-1.216-2.424.696-.92L10.354 13H9.05ZM12.094 13l-1.576-5.216h1.248l.624 2.432c.08.288.15.568.208.84.064.267.134.544.208.832h.032c.086-.288.158-.565.216-.832.064-.272.134-.552.208-.84l.616-2.432h1.2L13.51 13h-1.416Z"/></svg>