<svg xmlns="http://www.w3.org/2000/svg" width="24" height="24" fill="none"><path d="M3.252 1.078C2.984 1.242 3 .948 3 5.698V10h-.81c-.733 0-.822.008-.938.078-.27.165-.252-.215-.252 5.43 0 5 .002 5.115.078 5.24.142.232.229.252 1.12.252H3v1.31c0 1.229.005 1.318.078 1.438.167.274-.638.252 9.422.252s9.255.022 9.422-.252c.073-.12.078-.209.078-1.438V21h.81c.733 0 .822-.008.938-.078.27-.165.252.214.252-5.422s.018-5.257-.252-5.422c-.116-.07-.205-.078-.938-.078H22V7.301L18.85 4.15 15.699 1H9.54c-6.039 0-6.163.002-6.288.078M15 4.81c0 2.716.003 2.814.078 2.938.161.263.028.252 3.12.252H21v2H4V2h11v2.81m3.16.05L20.3 7H16V4.86c0-1.177.005-2.14.01-2.14.006 0 .973.963 2.15 2.14M23 15.5V20H2v-9h21v4.5M6.98 12.849c-.07.195-1.58 5.081-1.58 5.112 0 .024.231.039.59.039h.59l.158-.62.158-.62h1.576l.152.62.153.62h1.254l-.176-.57c-.096-.313-.459-1.479-.806-2.59l-.63-2.02-.71-.011c-.547-.008-.715.001-.729.04m3.261-.019c.001.017.35 1.182.776 2.59l.774 2.56.715.01.714.011.753-2.52c.415-1.385.763-2.555.775-2.6.021-.079.004-.081-.576-.081h-.598l-.513 2.042c-.283 1.123-.527 2.027-.543 2.01-.015-.018-.094-.302-.173-.632-.08-.33-.295-1.185-.479-1.9l-.361-1.41-.027-.11h-.619c-.34 0-.619.013-.618.03m5.248.46.011.49.61.011.61.011V17h-1.24v1h3.64v-1h-1.24v-3.198l.61-.011.61-.011.011-.49.011-.49h-3.644l.011.49m-7.51 1.54.252 1.01H7.14l.267-1.07c.309-1.24.277-1.131.301-1.03l.271 1.09M21 22v1H4v-2h17v1" fill-rule="evenodd" fill="#000"/></svg>