<svg xmlns="http://www.w3.org/2000/svg" width="24" height="24" fill="none"><path d="M3.252 1.078C2.984 1.242 3 .948 3 5.698V10h-.81c-.733 0-.822.008-.938.078-.27.165-.252-.215-.252 5.43 0 5 .002 5.115.078 5.24.142.232.229.252 1.12.252H3v1.31c0 1.229.005 1.318.078 1.438.167.274-.638.252 9.422.252s9.255.022 9.422-.252c.073-.12.078-.209.078-1.438V21h.81c.733 0 .822-.008.938-.078.27-.165.252.214.252-5.422s.018-5.257-.252-5.422c-.116-.07-.205-.078-.938-.078H22V7.301L18.85 4.15 15.699 1H9.54c-6.039 0-6.163.002-6.288.078M15 4.81c0 2.716.003 2.814.078 2.938.161.263.028.252 3.12.252H21v2H4V2h11v2.81m3.16.05L20.3 7H16V4.86c0-1.177.005-2.14.01-2.14.006 0 .973.963 2.15 2.14M23 15.5V20H2v-9h21v4.5M7.455 12.718c-.704.111-1.287.544-1.471 1.093a1.398 1.398 0 0 0 .29 1.36c.236.252.36.322 1.244.706.853.37.962.452.962.725 0 .149-.022.209-.105.292-.319.319-1.166.219-1.791-.211a1.324 1.324 0 0 0-.199-.123c-.012 0-.169.175-.348.389l-.327.389.155.134c.216.186.735.433 1.111.528.386.098 1.01.106 1.38.018.974-.229 1.551-1.109 1.29-1.969-.164-.537-.434-.738-1.681-1.253-.706-.291-.845-.393-.845-.623 0-.309.219-.453.689-.453.358 0 .615.071.921.256l.231.138.301-.367.302-.367-.152-.129a2.726 2.726 0 0 0-.912-.466c-.306-.078-.782-.109-1.045-.067m4.665.007c-.121.02-.348.097-.505.171-.723.343-1.145 1.129-1.203 2.244-.037.71.071 1.334.322 1.86.209.438.692.863 1.152 1.013.037.012.127.135.2.273.383.72 1.067 1.128 1.894 1.129.338.001.78-.095.78-.168 0-.063-.192-.812-.213-.833-.012-.013-.081-.003-.151.021-.321.112-.807.003-1.045-.234-.083-.084-.151-.167-.151-.186 0-.019.086-.07.19-.112.277-.113.724-.573.885-.911.244-.513.298-.808.298-1.612 0-.612-.013-.767-.085-1.032-.191-.695-.574-1.202-1.095-1.447a2.023 2.023 0 0 0-1.273-.176m3.64 2.675V18h3.48v-1h-2.32v-4.2h-1.16v2.6m-2.968-1.624c.395.207.58.719.579 1.604-.001.961-.178 1.474-.579 1.684-.158.082-.467.071-.621-.023-.314-.191-.481-.589-.527-1.255-.09-1.303.223-2.065.848-2.066.106 0 .241.025.3.056M21 22v1H4v-2h17v1" fill-rule="evenodd" fill="#000"/></svg>