<svg xmlns="http://www.w3.org/2000/svg" width="16" height="16" fill="none" viewBox="0 0 16 16"><path stroke="currentColor" fill="none" stroke-linecap="round" stroke-linejoin="round" d="M14.5 14.5v1h-13v-1M1.5 6.5v-6h8l5 5v4"/><path stroke="currentColor" fill="none" stroke-linecap="round" stroke-linejoin="round" d="M9.5.5v5h5"/><path fill="currentColor" d="m.949 13 1.52-2.68-1.432-2.536h1.32l.504.984c.058.117.12.245.184.384s.136.29.216.456h.032a8.28 8.28 0 0 1 .176-.456c.058-.139.117-.267.176-.384l.464-.984h1.264L3.94 10.376 5.46 13H4.149l-.568-1.064c-.07-.139-.139-.275-.208-.408l-.208-.448h-.032c-.064.16-.128.31-.192.448-.064.133-.128.27-.192.408L2.205 13H.949ZM6.066 13V7.784h1.232l.512 1.848.176.72h.032l.176-.72.512-1.848h1.232V13h-.992v-1.616c0-.144.005-.323.016-.536.01-.219.024-.445.04-.68l.048-.672c.02-.213.037-.39.048-.528h-.024l-.4 1.392-.4 1.256h-.576L7.29 10.36l-.376-1.392H6.89l.04.528c.02.213.04.437.056.672.016.235.029.461.04.68.01.213.016.392.016.536V13h-.976ZM11.255 13V7.784h1.175v4.224h2.32V13h-3.495Z"/></svg>