<svg xmlns="http://www.w3.org/2000/svg" width="16" height="16" fill="none" viewBox="0 0 16 16"><path stroke="currentColor" stroke-linecap="round" stroke-linejoin="round" d="M14.5 14.5v1h-13v-1M1.5 6.5v-6h8l5 5v1"/><path stroke="currentColor" stroke-linecap="round" stroke-linejoin="round" d="M9.5.5v5h5"/><path fill="currentColor" d="M1.365 13V7.784h1.848c.368 0 .704.05 1.008.152.304.096.546.264.728.504.186.235.28.557.28.968 0 .4-.094.725-.28.976-.182.25-.424.437-.728.56-.304.117-.64.176-1.008.176H2.54V13H1.365Zm1.176-2.816h.576c.309 0 .544-.064.704-.192.165-.133.248-.328.248-.584 0-.256-.083-.435-.248-.536-.16-.101-.395-.152-.704-.152H2.54v1.464Zm.456.632.816-.76L5.477 13h-1.32l-1.16-2.184ZM5.674 13l1.624-5.216h1.408L10.33 13H9.082l-.672-2.64a94.837 94.837 0 0 0-.208-.832 48.097 48.097 0 0 1-.208-.848h-.032l-.2.848c-.07.293-.14.57-.208.832L6.874 13h-1.2Zm1.072-1.24v-.92h2.496v.92H6.746ZM10.958 13V7.784h1.848c.368 0 .704.05 1.008.152.304.096.547.264.728.504.187.235.28.557.28.968 0 .4-.093.725-.28.976-.18.25-.424.437-.728.56-.304.117-.64.176-1.008.176h-.672V13h-1.176Zm1.176-2.816h.576c.31 0 .544-.064.704-.192.166-.133.248-.328.248-.584 0-.256-.082-.435-.248-.536-.16-.101-.394-.152-.704-.152h-.576v1.464Zm.456.632.816-.76L15.07 13h-1.32l-1.16-2.184Z"/></svg>