<svg width="16" height="16" fill="none" xmlns="http://www.w3.org/2000/svg"><path d="M.993 3.5 1 7l.5.007.5.008V1.013h6.987V6H14V7.015l.5-.008L15 7l.007-.853.007-.852-2.647-2.648L9.72 0H.986l.007 3.5m10.66-.127 1.64 1.64H10v-1.64c0-.902.003-1.64.007-1.64.003 0 .744.738 1.646 1.64M3.027 7.708a1.967 1.967 0 0 0-1.156.519c-.305.288-.458.624-.458 1.007 0 .505.213.895.649 1.186.112.075.447.238.805.391.94.402 1.037.458 1.105.637.104.276-.075.535-.42.607-.441.092-1.015-.059-1.496-.393-.164-.115-.172-.117-.216-.071-.025.027-.179.207-.342.401l-.297.351.14.111c.312.25.739.454 1.18.564.342.086 1.044.086 1.359 0 .363-.098.638-.251.87-.482.318-.317.459-.651.456-1.075-.004-.508-.201-.871-.626-1.154-.141-.093-.682-.337-1.282-.577-.38-.152-.505-.221-.603-.333-.082-.092-.087-.109-.076-.255.009-.133.024-.17.1-.248a.652.652 0 0 1 .21-.133c.155-.053.575-.053.798-.001.173.041.451.17.63.292.057.039.112.062.123.05.204-.236.561-.714.551-.74-.022-.059-.36-.297-.56-.395a2.646 2.646 0 0 0-1.444-.259m3.469 2.646a824.692 824.692 0 0 0-.81 2.613c-.011.043.029.046.576.046.388 0 .594-.009.606-.028.009-.016.086-.295.17-.62l.153-.592.787-.007.787-.007.158.621.157.62.62.007c.341.004.62-.002.62-.013s-.363-1.188-.806-2.614l-.807-2.593H7.293l-.797 2.567m4.497.037L11 13h1.173l.007-.884.007-.883.58-.014c.485-.011.614-.023.791-.071.87-.239 1.323-.814 1.322-1.679-.002-.912-.403-1.393-1.35-1.619-.151-.036-.391-.046-1.363-.056l-1.181-.012.007 2.609M8.26 9.759c.146.586.26 1.072.252 1.08-.022.023-1.072.017-1.072-.006 0-.011.089-.374.197-.807.109-.432.225-.909.258-1.059.033-.151.069-.274.079-.274.011 0 .139.48.286 1.066m5.02-.97c.095.032.19.092.27.17.105.102.13.146.157.281.064.311-.01.632-.186.808-.192.192-.39.245-.928.245h-.406V8.714l.473.012c.369.01.506.024.62.063m.72 4.718v1.506H2V14H.987v2h14.026v-4H14v1.507" fill-rule="evenodd" fill="#000"/></svg>