<svg xmlns="http://www.w3.org/2000/svg" width="16" height="16" fill="none" viewBox="0 0 16 16"><path stroke="currentColor" stroke-linecap="round" stroke-linejoin="round" d="M14.5 13.5v2h-13v-2M1.5 6.5v-6h8l5 5v1"/><path stroke="currentColor" stroke-linecap="round" stroke-linejoin="round" d="M9.5.5v5h5"/><path fill="currentColor" d="M2.613 13V8.776h-1.56v-.992h4.304v.992h-1.56V13H2.613ZM5.746 13l1.52-2.68-1.432-2.536h1.32l.504.984c.058.117.12.245.184.384s.136.29.216.456h.032c.058-.165.117-.317.176-.456.058-.139.117-.267.176-.384l.464-.984h1.263l-1.431 2.592L10.258 13H8.946l-.568-1.064a29.6 29.6 0 0 0-.208-.408l-.208-.448H7.93c-.064.16-.128.31-.192.448-.064.133-.128.27-.192.408L7.002 13H5.746ZM12.206 13V8.776h-1.56v-.992h4.304v.992h-1.56V13h-1.184Z"/></svg>