<svg xmlns="http://www.w3.org/2000/svg" width="16" height="16" fill="none"><path d="M1.292.05a.478.478 0 0 0-.277.357C.994.505.988 1.464.993 3.587c.006 2.802.011 3.046.052 3.122.061.11.218.246.309.266l.105.026c.063.019.304-.061.372-.124a.65.65 0 0 0 .119-.17c.046-.102.049-.242.049-2.9L2 1.013h6.987v2.226c0 1.504.009 2.269.029 2.36.035.163.13.285.276.351.102.046.234.049 2.408.049L14 6l.001.3c0 .329.037.457.168.577.133.123.399.152.568.062a.707.707 0 0 0 .243-.293c.011-.04.02-.343.02-.673v-.6l-.072-.12c-.107-.18-5.102-5.16-5.227-5.212-.088-.036-.569-.041-4.2-.04-3.921 0-4.106.002-4.209.049m10.361 3.323 1.64 1.64H10v-1.64c0-.902.003-1.64.007-1.64.003 0 .744.738 1.646 1.64M1.547 10.4v2.614l1.766-.007L5.08 13v-.987l-1.18-.007-1.18-.007V10.8h1.947v-.959L3.7 9.834l-.967-.007-.007-.527-.007-.527h2.294v-.986H1.547V10.4M5.87 7.847l.708 1.257c.371.658.675 1.205.675 1.216 0 .01-.336.612-.746 1.336a62.085 62.085 0 0 0-.747 1.337c0 .011.275.02.61.02.456 0 .617-.008.637-.033.042-.051.734-1.445.834-1.68a.936.936 0 0 1 .104-.206c.008 0 .114.201.235.446.121.246.343.675.494.953l.273.507.646.007c.383.004.647-.003.647-.017 0-.014-.319-.575-.709-1.247-.39-.673-.727-1.257-.749-1.298-.038-.074-.028-.095.663-1.345.386-.698.706-1.279.711-1.292.005-.012-.277-.019-.625-.015l-.634.007-.314.667c-.173.366-.354.771-.402.899-.048.129-.097.234-.109.234-.012 0-.064-.093-.115-.207a38.15 38.15 0 0 0-.445-.906l-.352-.7H5.838l.032.06m5.257 2.546L11.133 13l1.767.007 1.767.007V12H12.32v-1.2h1.92v-.96h-1.92V8.773h2.267v-.986H11.12l.007 2.606m-9.835 3.655a.485.485 0 0 0-.276.353c-.038.175-.038 1.023 0 1.198.035.163.13.285.276.351.104.047.362.049 6.708.049s6.604-.002 6.708-.049a.479.479 0 0 0 .276-.351c.038-.176.038-1.023 0-1.2-.094-.436-.651-.536-.907-.162-.057.083-.065.125-.072.434l-.009.342H2.004l-.009-.344c-.009-.381-.022-.414-.213-.569a.493.493 0 0 0-.49-.052" fill-rule="evenodd" fill="#000"/></svg>