<svg width="24" height="24" fill="none" viewBox="0 0 24 24" xmlns="http://www.w3.org/2000/svg"><path d="M20.5 21V23.5H3.5V21" stroke="currentColor" stroke-linecap="square"/><path d="M3.5 10.5V1.5H14.5L20.5 7.5V10.5" stroke="currentColor" stroke-linecap="square"/><path d="M14.5 2V7.5H20" stroke="currentColor" stroke-linecap="square"/><path d="M22.5 10.5H1.5V20.5H22.5V10.5Z" stroke="currentColor" stroke-linecap="square"/><path d="M7.18871 18.096C6.83671 18.096 6.48738 18.032 6.14071 17.904C5.79938 17.776 5.48738 17.5893 5.20471 17.344L5.88471 16.536C6.08205 16.696 6.29805 16.8267 6.53271 16.928C6.77271 17.0293 7.01805 17.08 7.26871 17.08C7.51938 17.08 7.70338 17.0373 7.82071 16.952C7.94338 16.8667 8.00471 16.7573 8.00471 16.624C8.00471 16.5013 7.97271 16.4053 7.90871 16.336C7.84471 16.2613 7.75138 16.1973 7.62871 16.144C7.50605 16.0853 7.36205 16.0213 7.19671 15.952L6.52471 15.664C6.33271 15.5893 6.15138 15.4907 5.98071 15.368C5.81005 15.24 5.67138 15.0853 5.56471 14.904C5.46338 14.7173 5.41271 14.496 5.41271 14.24C5.41271 13.952 5.49271 13.6933 5.65271 13.464C5.81805 13.2293 6.04205 13.0427 6.32471 12.904C6.61271 12.76 6.94605 12.688 7.32471 12.688C7.63938 12.688 7.94871 12.7467 8.25271 12.864C8.55671 12.9813 8.82605 13.152 9.06071 13.376L8.46071 14.12C8.27938 13.9867 8.09805 13.8853 7.91671 13.816C7.73538 13.7413 7.51671 13.704 7.26071 13.704C7.06871 13.704 6.91138 13.744 6.78871 13.824C6.66605 13.904 6.60471 14.0213 6.60471 14.176C6.60471 14.2773 6.64205 14.3627 6.71671 14.432C6.79138 14.5013 6.89271 14.5627 7.02071 14.616C7.14871 14.6693 7.29538 14.728 7.46071 14.792L8.09271 15.064C8.32738 15.1493 8.52738 15.256 8.69271 15.384C8.85805 15.5067 8.98605 15.6587 9.07671 15.84C9.16738 16.0213 9.21271 16.2347 9.21271 16.48C9.21271 16.768 9.13271 17.0347 8.97271 17.28C8.81805 17.5253 8.58871 17.7227 8.28471 17.872C7.98605 18.0213 7.62071 18.096 7.18871 18.096Z" fill="currentColor"/><path d="M9.67359 18L11.2976 12.784H12.7056L14.3296 18H13.0816L12.4096 15.36C12.3456 15.0987 12.2763 14.8213 12.2016 14.528C12.1269 14.2347 12.0576 13.952 11.9936 13.68H11.9616C11.8976 13.952 11.8309 14.2347 11.7616 14.528C11.6923 14.8213 11.6229 15.0987 11.5536 15.36L10.8736 18H9.67359ZM10.7456 16.76V15.84H13.2416V16.76H10.7456Z" fill="currentColor"/><path d="M14.9985 18V12.784H16.8465C17.2251 12.784 17.5665 12.8373 17.8705 12.944C18.1798 13.0453 18.4251 13.2187 18.6065 13.464C18.7931 13.7093 18.8865 14.0427 18.8865 14.464C18.8865 14.8693 18.7931 15.2027 18.6065 15.464C18.4198 15.7253 18.1718 15.92 17.8625 16.048C17.5531 16.1707 17.2145 16.232 16.8465 16.232H16.1745V18H14.9985ZM16.1745 15.296H16.7745C17.0998 15.296 17.3398 15.224 17.4945 15.08C17.6545 14.936 17.7345 14.7307 17.7345 14.464C17.7345 14.1867 17.6518 13.9947 17.4865 13.888C17.3265 13.776 17.0891 13.72 16.7745 13.72H16.1745V15.296Z" fill="currentColor"/></svg>
