<svg xmlns="http://www.w3.org/2000/svg" width="16" height="16" fill="none"><path d="M1.292.05a.478.478 0 0 0-.277.357C.994.505.988 1.464.993 3.587c.006 2.802.011 3.046.052 3.122.061.11.218.246.309.266l.105.026c.063.019.304-.061.372-.124a.65.65 0 0 0 .119-.17c.046-.102.049-.242.049-2.9L2 1.013h6.987v2.226c0 1.504.009 2.269.029 2.36.035.163.13.285.276.351.102.046.234.049 2.408.049L14 6l.001.3c0 .329.037.457.168.577.133.123.399.152.568.062a.707.707 0 0 0 .243-.293c.011-.04.02-.343.02-.673v-.6l-.072-.12c-.107-.18-5.102-5.16-5.227-5.212-.088-.036-.569-.041-4.2-.04-3.921 0-4.106.002-4.209.049m10.361 3.323 1.64 1.64H10v-1.64c0-.902.003-1.64.007-1.64.003 0 .744.738 1.646 1.64m-10.286 7.02L1.373 13l.58.007.58.007V11.12l.314.001h.313l.498.94.498.939.655.007c.361.004.655-.002.655-.013s-.262-.483-.582-1.047l-.582-1.027.158-.095c.504-.304.766-.79.766-1.425 0-.492-.117-.802-.411-1.094-.215-.214-.418-.326-.748-.411-.36-.093-.575-.107-1.66-.108H1.36l.007 2.606M5.84 8.28v.493h1.573v4.24h1.174v-4.24h1.573v-.986H5.84v.493m5.393 2.113L11.24 13h1.173l.007-1.006.007-1.007.967-.007.966-.007.007-.486.008-.487h-1.948V8.773h2.266v-.986h-3.467l.007 2.606M3.506 8.76c.243.052.406.154.485.304.052.097.062.158.062.347-.001.266-.047.395-.195.542-.169.17-.338.214-.865.228l-.46.012V8.72h.394c.243.001.464.016.579.04m10.854 3.263a.576.576 0 0 0-.281.211l-.066.095-.007 1.342-.007 1.342H2v-.307c0-.362-.026-.442-.187-.58a.486.486 0 0 0-.796.269c-.039.18-.04 1.026-.001 1.204.035.163.13.285.276.351.104.047.362.049 6.708.049s6.604-.002 6.708-.049a.479.479 0 0 0 .276-.351c.04-.185.04-3.013 0-3.198a.59.59 0 0 0-.099-.219.524.524 0 0 0-.525-.159" fill-rule="evenodd" fill="#000"/></svg>