<svg xmlns="http://www.w3.org/2000/svg" width="16" height="16" fill="none" viewBox="0 0 16 16"><path stroke="currentColor" stroke-linecap="round" stroke-linejoin="round" d="M14.5 14.5v1h-13v-1M1.5 7V.5h8l5 5V7"/><path stroke="currentColor" stroke-linecap="round" stroke-linejoin="round" d="M9.5.5v5h5"/><path fill="currentColor" d="M2.116 13.084c-.252 0-.515-.056-.79-.168a1.65 1.65 0 0 1-.708-.588l.595-.637c.131.163.271.29.42.378.15.084.3.126.448.126.234 0 .409-.06.525-.182.122-.121.182-.338.182-.651V9.297H1.003v-.861h2.814v3.01c0 .299-.056.572-.168.819a1.282 1.282 0 0 1-.532.595c-.242.15-.576.224-1 .224ZM6.089 13.084a2.63 2.63 0 0 1-1.736-.658l.595-.707c.172.14.361.254.567.343.21.089.424.133.644.133.22 0 .38-.037.483-.112a.337.337 0 0 0 .16-.287.358.358 0 0 0-.083-.252.667.667 0 0 0-.245-.168 8.639 8.639 0 0 0-.378-.168l-.588-.252a2.141 2.141 0 0 1-.476-.259 1.374 1.374 0 0 1-.364-.406 1.2 1.2 0 0 1-.133-.581c0-.252.07-.478.21-.679.144-.205.34-.369.588-.49.252-.126.543-.189.875-.189.275 0 .546.051.812.154.266.103.501.252.707.448l-.525.651a2.033 2.033 0 0 0-.476-.266 1.506 1.506 0 0 0-.574-.098.743.743 0 0 0-.413.105.345.345 0 0 0-.161.308c0 .089.032.163.098.224.065.06.154.114.266.161.112.047.24.098.385.154l.553.238c.205.075.38.168.525.28.144.107.256.24.336.399.08.159.119.345.119.56 0 .252-.07.485-.21.7a1.437 1.437 0 0 1-.602.518c-.262.13-.581.196-.96.196ZM9.9 13.084c-.364 0-.684-.091-.959-.273-.275-.182-.49-.448-.644-.798-.154-.355-.231-.793-.231-1.316 0-.509.077-.936.231-1.281.154-.35.369-.614.644-.791.275-.182.595-.273.959-.273s.684.091.959.273c.275.177.49.441.644.791.154.345.231.772.231 1.281 0 .523-.077.961-.231 1.316-.154.35-.369.616-.644.798a1.699 1.699 0 0 1-.959.273Zm0-.889a.577.577 0 0 0 .413-.168 1.12 1.12 0 0 0 .266-.504c.065-.224.098-.5.098-.826a2.78 2.78 0 0 0-.098-.798c-.06-.215-.15-.378-.266-.49a.577.577 0 0 0-.413-.168.577.577 0 0 0-.413.168 1.116 1.116 0 0 0-.273.49 2.98 2.98 0 0 0-.091.798c0 .327.03.602.091.826.065.22.156.387.273.504a.577.577 0 0 0 .413.168ZM12.06 13V8.436h1.056l.96 2.268.391 1.008h.028a29.335 29.335 0 0 0-.09-.812 6.83 6.83 0 0 1-.057-.847V8.436h.987V13h-1.057l-.959-2.275-.392-.994H12.9c.024.247.054.518.091.812.038.29.056.57.056.84V13h-.987Z"/></svg>