<svg xmlns="http://www.w3.org/2000/svg" width="16" height="16" fill="currentColor">
  <path d="M13.659 13.096c-.443 0-.846-.104-1.208-.312a2.25 2.25 0 0 1-.856-.912c-.208-.405-.312-.896-.312-1.472 0-.427.061-.808.184-1.144a2.48 2.48 0 0 1 .512-.864 2.3 2.3 0 0 1 1.696-.72c.33 0 .624.067.88.2.256.128.466.283.632.464l-.496.568a1.334 1.334 0 0 0-.448-.312 1.272 1.272 0 0 0-.544-.112c-.278 0-.528.077-.752.232a1.578 1.578 0 0 0-.52.656c-.128.283-.192.619-.192 1.008 0 .4.061.744.184 1.032.122.283.296.501.52.656.224.15.485.224.784.224.224 0 .424-.045.6-.136.176-.09.336-.21.48-.36l.472.552a2.234 2.234 0 0 1-.72.56 2.044 2.044 0 0 1-.896.192ZM8.196 13.096c-.453 0-.853-.11-1.2-.328a2.284 2.284 0 0 1-.816-.944c-.192-.41-.288-.899-.288-1.464s.096-1.048.288-1.448c.197-.4.47-.707.816-.92.347-.213.747-.32 1.2-.32.459 0 .861.107 1.208.32.347.213.616.52.808.92.197.4.296.883.296 1.448s-.099 1.053-.296 1.464a2.23 2.23 0 0 1-.808.944c-.347.219-.75.328-1.208.328Zm0-.808c.277 0 .515-.077.712-.232.203-.16.36-.384.472-.672.112-.293.168-.635.168-1.024 0-.39-.056-.723-.168-1a1.436 1.436 0 0 0-.472-.648 1.12 1.12 0 0 0-.712-.232c-.272 0-.51.077-.712.232-.203.15-.36.365-.472.648-.112.277-.168.61-.168 1s.056.73.168 1.024c.112.288.27.512.472.672.203.155.44.232.712.232ZM1.164 13V7.768h1.4c.533 0 .99.096 1.368.288.379.192.67.48.872.864.203.384.304.864.304 1.44s-.101 1.061-.304 1.456c-.197.39-.483.685-.856.888-.373.197-.819.296-1.336.296H1.164Zm.928-.752H2.5c.352 0 .65-.067.896-.2.25-.139.44-.347.568-.624.128-.277.192-.632.192-1.064 0-.427-.064-.776-.192-1.048a1.245 1.245 0 0 0-.568-.6c-.245-.128-.544-.192-.896-.192h-.408v3.728Z"/>
  <path fill-rule="evenodd" d="M1 0h8.707L15 5.293V7h-1V6H9V1H2v6H1V0Zm9 1.707L13.293 5H10V1.707ZM15 14v2H1v-2h1v1h12v-1h1Z" clip-rule="evenodd"/>
</svg>
