<svg xmlns="http://www.w3.org/2000/svg" width="24" height="24" fill="none" viewBox="0 0 24 24"><path stroke="currentColor" fill="none" stroke-linecap="round" stroke-linejoin="round" d="M21.5 21v2.5h-18V21M3.5 10.5v-9h12l6 6v3"/><path stroke="currentColor" fill="none" stroke-linecap="round" stroke-linejoin="round" d="M15.5 1.5v6h6M23.5 10.5h-22v10h22v-10Z"/><path fill="currentColor" d="M8.153 18.096a2.58 2.58 0 0 1-.928-.168 2.209 2.209 0 0 1-.768-.504 2.45 2.45 0 0 1-.528-.84 3.245 3.245 0 0 1-.192-1.16c0-.576.109-1.067.328-1.472.224-.41.522-.723.896-.936.378-.219.8-.328 1.264-.328.33 0 .629.07.896.208.266.133.488.285.664.456l-.648.728a1.366 1.366 0 0 0-.408-.272 1.15 1.15 0 0 0-.504-.104c-.246 0-.464.07-.656.208a1.35 1.35 0 0 0-.456.576c-.112.25-.168.55-.168.896 0 .357.056.664.168.92.112.25.266.443.464.576.202.133.434.2.696.2.192 0 .365-.043.52-.128a1.68 1.68 0 0 0 .424-.336l.648.712c-.214.25-.464.443-.752.576a2.338 2.338 0 0 1-.96.192ZM12.486 18.096c-.352 0-.702-.064-1.048-.192a3.055 3.055 0 0 1-.936-.56l.68-.808c.197.16.413.29.648.392.24.101.485.152.736.152.25 0 .434-.043.552-.128a.386.386 0 0 0 .184-.328.408.408 0 0 0-.096-.288.761.761 0 0 0-.28-.192 9.738 9.738 0 0 0-.432-.192l-.672-.288a2.45 2.45 0 0 1-.544-.296 1.57 1.57 0 0 1-.416-.464 1.371 1.371 0 0 1-.152-.664c0-.288.08-.547.24-.776a1.74 1.74 0 0 1 .672-.56 2.208 2.208 0 0 1 1-.216c.314 0 .624.059.928.176.304.117.573.288.808.512l-.6.744a2.326 2.326 0 0 0-.544-.304 1.721 1.721 0 0 0-.656-.112c-.192 0-.35.04-.472.12a.394.394 0 0 0-.184.352c0 .101.037.187.112.256.074.07.176.13.304.184.128.053.274.112.44.176l.632.272c.234.085.434.192.6.32.165.123.293.275.384.456.09.181.136.395.136.64 0 .288-.08.555-.24.8a1.643 1.643 0 0 1-.688.592c-.3.15-.664.224-1.096.224ZM17.282 18.096c-.352 0-.7-.064-1.048-.192a3.057 3.057 0 0 1-.936-.56l.68-.808c.198.16.414.29.648.392.24.101.486.152.736.152.251 0 .435-.043.552-.128a.385.385 0 0 0 .184-.328.408.408 0 0 0-.096-.288.76.76 0 0 0-.28-.192 9.635 9.635 0 0 0-.432-.192l-.672-.288a2.452 2.452 0 0 1-.544-.296 1.572 1.572 0 0 1-.416-.464 1.372 1.372 0 0 1-.152-.664c0-.288.08-.547.24-.776.166-.235.39-.421.672-.56a2.208 2.208 0 0 1 1-.216c.315 0 .624.059.928.176.304.117.574.288.808.512l-.6.744a2.322 2.322 0 0 0-.544-.304 1.72 1.72 0 0 0-.656-.112.85.85 0 0 0-.472.12.394.394 0 0 0-.184.352c0 .101.038.187.112.256.075.07.176.13.304.184.128.053.275.112.44.176l.632.272a2.2 2.2 0 0 1 .6.32c.166.123.294.275.384.456.091.181.136.395.136.64 0 .288-.08.555-.24.8a1.642 1.642 0 0 1-.688.592c-.298.15-.664.224-1.096.224Z"/></svg>