<svg xmlns="http://www.w3.org/2000/svg" width="24" height="24" fill="none"><path d="M3.252 1.078C2.984 1.242 3 .948 3 5.698V10h-.81c-.733 0-.822.008-.938.078-.27.165-.252-.215-.252 5.43 0 5 .002 5.115.078 5.24.142.232.229.252 1.12.252H3v1.31c0 1.229.005 1.318.078 1.438.167.274-.638.252 9.422.252s9.255.022 9.422-.252c.073-.12.078-.209.078-1.438V21h.81c.733 0 .822-.008.938-.078.27-.165.252.214.252-5.422s.018-5.257-.252-5.422c-.116-.07-.205-.078-.938-.078H22V7.301L18.85 4.15 15.699 1H9.54c-6.039 0-6.163.002-6.288.078M15 4.81c0 2.716.003 2.814.078 2.938.161.263.028.252 3.12.252H21v2H4V2h11v2.81m3.16.05L20.3 7H16V4.86c0-1.177.005-2.14.01-2.14.006 0 .973.963 2.15 2.14M23 15.5V20H2v-9h21v4.5m-8.344-2.782c-.46.072-.829.249-1.115.536-.281.282-.391.524-.413.909-.025.438.064.7.338.996.241.261.413.358 1.345.761.762.33.869.415.869.698 0 .594-1.076.626-1.907.057a1.26 1.26 0 0 0-.187-.115c-.01 0-.168.174-.351.386l-.332.386.159.137c.218.189.736.436 1.114.531.358.09.969.107 1.312.036.968-.2 1.593-1.065 1.378-1.907a1.23 1.23 0 0 0-.434-.7c-.211-.171-.381-.256-1.264-.628-.749-.317-.848-.391-.848-.637 0-.306.218-.444.7-.444.34 0 .645.09.95.279l.19.118.299-.369.3-.368-.13-.113c-.193-.168-.576-.37-.872-.46-.309-.094-.811-.135-1.101-.089M8.6 13.28v.48h2.04l-.001 1.37c-.001 1.246-.007 1.384-.075 1.53-.13.282-.361.42-.703.42-.275 0-.527-.111-.779-.344l-.232-.215-.325.338c-.179.187-.325.361-.325.388 0 .09.459.497.681.604.625.303 1.52.314 2.086.026.237-.121.542-.444.657-.694.199-.435.215-.622.215-2.573l.001-1.81H8.6v.48M21 22v1H4v-2h17v1" fill-rule="evenodd" fill="#000"/></svg>