<svg xmlns="http://www.w3.org/2000/svg" width="16" height="16" fill="none" viewBox="0 0 16 16"><path stroke="currentColor" fill="none" stroke-linecap="round" stroke-linejoin="round" d="M14.5 12.5v3h-13v-1M1.5 6.5v-6h8l5 5v1"/><path stroke="currentColor" fill="none" stroke-linecap="round" stroke-linejoin="round" d="M9.5.5v5h5"/><path fill="currentColor" d="M1.253 13v-.712l2.44-3.52H1.485v-.984h3.664v.712l-2.44 3.512H5.18V13H1.253ZM6.194 13v-.992H7.41V8.776H6.194v-.992H9.81v.992H8.594v3.232H9.81V13H6.194ZM10.998 13V7.784h1.848c.38 0 .72.053 1.024.16.31.101.555.275.736.52.187.245.28.579.28 1 0 .405-.093.739-.28 1a1.684 1.684 0 0 1-.744.584c-.309.123-.648.184-1.016.184h-.672V13h-1.176Zm1.176-2.704h.6c.326 0 .566-.072.72-.216.16-.144.24-.35.24-.616 0-.277-.082-.47-.248-.576-.16-.112-.397-.168-.712-.168h-.6v1.576Z"/></svg>