<svg xmlns="http://www.w3.org/2000/svg" width="24" height="24" fill="none" viewBox="0 0 24 24">
  <path stroke="currentColor" stroke-linecap="round" stroke-linejoin="round" d="M21.5 21v2.5h-18V21M3.5 10.5v-9h12l6 6v3"/>
  <path stroke="currentColor" stroke-linecap="round" stroke-linejoin="round" d="M15.5 1.5v6h6M23.5 10.5h-22v10h22v-10Z"/>
  <path fill="currentColor" d="M3.418 18v-5.216h1.176V14.8h1.424v-2.016h1.176V18H6.018v-2.176H4.594V18H3.418ZM9.511 18v-4.224h-1.56v-.992h4.304v.992h-1.56V18H9.511ZM12.964 18v-5.216h1.232l.512 1.848.176.72h.032l.176-.72.512-1.848h1.232V18h-.992v-1.616c0-.144.005-.323.016-.536.01-.219.024-.445.04-.68l.048-.672c.021-.213.037-.39.048-.528h-.024l-.4 1.392-.4 1.256h-.576l-.408-1.256-.376-1.392h-.024l.04.528c.021.213.04.437.056.672.016.235.03.461.04.68.01.213.016.392.016.536V18h-.976ZM18.153 18v-5.216h1.176v4.224h2.32V18h-3.496Z"/>
</svg>
