<svg xmlns="http://www.w3.org/2000/svg" width="16" height="16" fill="currentColor" viewBox="0 0 16 16">
  <path d="M2.277 12.896c.326.133.67.2 1.032.2.395 0 .73-.07 1.008-.208.283-.144.499-.333.648-.568.15-.235.224-.493.224-.776 0-.256-.045-.472-.136-.648a1.241 1.241 0 0 0-.368-.448 2.63 2.63 0 0 0-.552-.32l-.712-.296a31.23 31.23 0 0 1-.408-.176 1.09 1.09 0 0 1-.312-.224.511.511 0 0 1-.112-.336.52.52 0 0 1 .224-.448c.155-.112.355-.168.6-.168.203 0 .398.04.584.12.187.075.366.181.536.32l.488-.608a2.094 2.094 0 0 0-.72-.464 2.255 2.255 0 0 0-.888-.176c-.341 0-.645.067-.912.2-.261.128-.47.304-.624.528-.15.219-.224.467-.224.744 0 .256.05.475.152.656.107.176.24.325.4.448.166.117.334.213.504.288l.72.312a3.9 3.9 0 0 1 .416.192.848.848 0 0 1 .288.232c.07.085.104.2.104.344a.592.592 0 0 1-.232.488c-.154.123-.381.184-.68.184a2.09 2.09 0 0 1-.752-.144 2.036 2.036 0 0 1-.648-.424l-.504.608c.25.245.536.435.856.568Z"/>
  <path fill-rule="evenodd" d="M6.973 12.768c.231.146.487.243.766.292.162.365.41.673.746.924.362.272.813.408 1.352.408.18 0 .344-.016.488-.048.149-.032.266-.07.352-.112l-.168-.672c-.075.021-.16.037-.257.048-.09.016-.194.024-.311.024-.187 0-.366-.027-.536-.08a1.21 1.21 0 0 1-.456-.24 1.065 1.065 0 0 1-.225-.276c.234-.053.45-.143.649-.268.346-.224.618-.539.816-.944.197-.41.296-.899.296-1.464 0-.56-.1-1.04-.296-1.44a2.173 2.173 0 0 0-.816-.928 2.243 2.243 0 0 0-1.2-.32c-.454 0-.854.107-1.2.32a2.174 2.174 0 0 0-.816.928c-.192.4-.288.88-.288 1.44 0 .565.096 1.053.288 1.464.197.405.469.72.816.944Zm1.2-.432c.277 0 .517-.08.72-.24.202-.16.357-.387.464-.68.112-.293.168-.645.168-1.056 0-.39-.056-.723-.168-1a1.386 1.386 0 0 0-.464-.648 1.153 1.153 0 0 0-.72-.232c-.272 0-.51.077-.712.232-.203.15-.36.365-.472.648-.112.277-.168.61-.168 1 0 .41.056.763.168 1.056.112.293.269.52.472.68.202.16.44.24.712.24Z" clip-rule="evenodd"/>
  <path d="M11.531 13V7.768h.928v4.448h2.176V13h-3.104Z"/>
  <path fill-rule="evenodd" d="M1 0h8.707L15 5.293V7h-1V6H9V1H2v6H1V0Zm9 1.707L13.293 5H10V1.707ZM15 14v2H1v-2h1v1h12v-1h1Z" clip-rule="evenodd"/>
</svg>
