<svg xmlns="http://www.w3.org/2000/svg" width="16" height="16" fill="none"><path d="M1.292.05a.479.479 0 0 0-.277.356C.994.505.988 1.536.993 3.84c.008 3.67-.009 3.365.192 3.541.23.202.623.119.758-.161L2 7.103v-6.09h6.987v2.226c0 1.504.009 2.269.029 2.36.035.163.13.285.276.351.102.046.234.049 2.408.049L14 6v.552c0 .507.005.56.057.668a.485.485 0 0 0 .394.267c.175.017.3-.03.411-.153.141-.155.156-.277.146-1.18L15 5.373l-.072-.12c-.107-.18-5.102-5.16-5.227-5.212-.088-.036-.569-.041-4.2-.04-3.921 0-4.106.002-4.209.049m10.361 3.323 1.64 1.64H10v-1.64c0-.902.003-1.64.007-1.64.003 0 .744.738 1.646 1.64m-5.64 5.001c-.373.057-.645.201-.934.491a1.48 1.48 0 0 0-.327.443c-.219.444-.311 1.032-.268 1.71.068 1.07.558 1.795 1.358 2.011.265.071.706.066.958-.012.295-.091.498-.209.695-.404.424-.417.638-1.058.638-1.906 0-.84-.197-1.437-.613-1.855a1.576 1.576 0 0 0-.735-.436 2.368 2.368 0 0 0-.772-.042m4.227 0c-.919.127-1.604.786-1.804 1.733-.067.321-.067.975 0 1.266.189.816.669 1.382 1.356 1.6.741.235 1.495.092 2.028-.386a.747.747 0 0 0 .153-.165c0-.015-.122-.162-.272-.328l-.273-.301-.134.118c-.209.184-.383.257-.64.27-.738.039-1.214-.534-1.214-1.461 0-.652.258-1.167.69-1.38.136-.067.177-.073.443-.073.278 0 .302.004.456.085a1.7 1.7 0 0 1 .243.152l.08.068.284-.317.283-.317-.091-.08a2.183 2.183 0 0 0-.805-.442 2.408 2.408 0 0 0-.783-.042m-9.346.082a96.42 96.42 0 0 0-.008 2.291L.893 13h.827c.897 0 1.046-.018 1.427-.166.641-.251 1.057-.828 1.174-1.63.047-.323.019-.994-.053-1.284-.144-.574-.471-.995-.961-1.237-.402-.198-.601-.229-1.58-.248-.687-.014-.821-.01-.833.021m11.135.03.619 1.1c.323.571.588 1.052.588 1.068 0 .016-.29.54-.645 1.165-.354.625-.644 1.15-.644 1.166 0 .021.159.027.537.022l.537-.007.257-.498c.142-.274.323-.649.403-.833.08-.184.155-.335.166-.335.012 0 .063.092.115.206.052.114.245.492.43.84l.335.633h.572c.32 0 .568-.01.563-.023-.005-.013-.303-.532-.662-1.153a35.418 35.418 0 0 1-.648-1.145c.003-.009.282-.516.62-1.127.338-.612.615-1.118.615-1.126 0-.007-.249-.01-.552-.006l-.551.007-.252.533c-.138.294-.297.648-.354.787a1.485 1.485 0 0 1-.117.253c-.008 0-.192-.354-.408-.786l-.393-.787-.581-.007-.581-.007.031.06m-5.473.819c.204.104.35.324.451.679.036.13.046.274.046.723 0 .503-.006.581-.06.768-.142.49-.356.712-.686.712a.516.516 0 0 1-.423-.175c-.241-.248-.342-.628-.345-1.292-.002-.627.082-.977.301-1.253a.611.611 0 0 1 .716-.162m-4.067.015c.416.108.643.358.752.828.054.233.055.843.002 1.097a1.492 1.492 0 0 1-.282.603c-.165.188-.5.312-.842.312h-.172V9.28h.194c.107 0 .263.018.348.04m-1.197 4.728a.485.485 0 0 0-.276.353c-.038.175-.038 1.023 0 1.198.035.163.13.285.276.351.104.047.362.049 6.708.049s6.604-.002 6.708-.049a.479.479 0 0 0 .276-.351c.038-.176.038-1.023 0-1.2-.094-.436-.651-.536-.907-.162-.057.083-.065.125-.072.434l-.009.342H2.004l-.009-.344c-.009-.381-.022-.414-.213-.569a.493.493 0 0 0-.49-.052" fill-rule="evenodd" fill="#000"/></svg>