<svg xmlns="http://www.w3.org/2000/svg" width="16" height="16" fill="none" viewBox="0 0 16 16">
  <path fill="#1D1D1D" d="M11.453 13V7.768h3.16v.784h-2.232v1.48h1.904v.784h-1.904V13h-.928ZM6.453 13V7.768h1.4c.533 0 .99.096 1.368.288.379.192.67.48.872.864.203.384.304.864.304 1.44s-.101 1.061-.304 1.456c-.197.39-.483.685-.856.888-.373.197-.819.296-1.336.296H6.453Zm.928-.752h.408c.352 0 .65-.067.896-.2.25-.139.44-.347.568-.624.128-.277.192-.632.192-1.064 0-.427-.064-.776-.192-1.048a1.245 1.245 0 0 0-.568-.6c-.245-.128-.544-.192-.896-.192h-.408v3.728ZM1.797 13V7.768h1.648c.39 0 .736.05 1.04.152.304.101.544.27.72.504.176.235.264.555.264.96 0 .384-.088.701-.264.952-.17.25-.408.437-.712.56a2.653 2.653 0 0 1-1.016.184h-.752V13h-.928Zm.928-2.664h.68c.39 0 .677-.08.864-.24.192-.16.288-.397.288-.712 0-.33-.102-.557-.304-.68-.198-.128-.49-.192-.88-.192h-.648v1.824Z"/>
  <path fill="#1D1D1D" fill-rule="evenodd" d="M1 0h8.707L15 5.293V7h-1V6H9V1H2v6H1V0Zm9 1.707L13.293 5H10V1.707ZM15 13v3H1v-2h1v1h12v-2h1Z" clip-rule="evenodd"/>
</svg>
