<svg xmlns="http://www.w3.org/2000/svg" width="24" height="24" fill="none"><path d="M3.252 1.078C2.984 1.242 3 .948 3 5.698V10h-.81c-.733 0-.822.008-.938.078-.27.165-.252-.215-.252 5.43 0 5 .002 5.115.078 5.24.142.232.229.252 1.12.252H3v1.31c0 1.229.005 1.318.078 1.438.167.274-.638.252 9.422.252s9.255.022 9.422-.252c.073-.12.078-.209.078-1.438V21h.81c.733 0 .822-.008.938-.078.27-.165.252.214.252-5.422s.018-5.257-.252-5.422c-.116-.07-.205-.078-.938-.078H22V7.301L18.85 4.15 15.699 1H9.54c-6.039 0-6.163.002-6.288.078M15 4.81c0 2.716.003 2.814.078 2.938.161.263.028.252 3.12.252H21v2H4V2h11v2.81m3.16.05L20.3 7H16V4.86c0-1.177.005-2.14.01-2.14.006 0 .973.963 2.15 2.14M23 15.5V20H2v-9h21v4.5M9.856 12.718c-.46.072-.829.25-1.114.536-.276.278-.39.528-.413.912-.026.425.063.695.323.98.251.274.367.341 1.271.732.843.366.957.453.957.737 0 .591-1.079.63-1.896.068a1.34 1.34 0 0 0-.198-.123c-.01 0-.168.174-.35.387l-.331.387.158.136c.218.188.736.435 1.113.53.384.097 1.009.106 1.375.02.545-.129.995-.475 1.219-.937.109-.227.127-.307.128-.583a1.668 1.668 0 0 0-.07-.527 1.435 1.435 0 0 0-.563-.672c-.162-.095-.835-.397-1.475-.661-.353-.145-.47-.264-.47-.476 0-.304.219-.444.691-.444.356 0 .613.072.92.256l.23.139.299-.368.299-.367-.15-.129c-.461-.399-1.318-.633-1.953-.533m4.664.007c-.566.093-1.087.483-1.372 1.026-.261.496-.321.801-.321 1.629 0 .613.013.767.086 1.034.298 1.087.991 1.67 1.987 1.67.996 0 1.69-.584 1.987-1.67.118-.433.128-1.569.018-1.994-.192-.741-.578-1.268-1.112-1.519a2.023 2.023 0 0 0-1.273-.176M3.8 13.28v.48h2.04v1.354c0 .903-.015 1.399-.045 1.49a.742.742 0 0 1-.454.441c-.362.098-.757-.027-1.102-.349l-.189-.177-.325.343c-.179.189-.325.364-.325.389 0 .025.104.146.231.27.395.384.881.562 1.529.561 1.001-.002 1.574-.417 1.801-1.305.073-.287.079-.447.079-2.143V12.8H3.8v.48m14.04 2.119V18h1.12v-1.087c0-.839-.019-1.251-.082-1.804a8.67 8.67 0 0 1-.07-.777c.006-.033.107.182.223.478.115.297.459 1.131.764 1.855l.554 1.315.606.011.605.011V12.8h-1.128l.019 1.33c.013.924.039 1.481.086 1.825.036.272.061.512.054.533-.008.022-.125-.246-.261-.594a99.538 99.538 0 0 0-.764-1.854l-.516-1.22-.605-.011-.605-.011v2.601m-2.648-1.623c.395.207.577.714.576 1.604-.001.803-.16 1.328-.474 1.568-.125.095-.186.112-.394.112-.208 0-.269-.017-.394-.113-.144-.11-.347-.452-.401-.679-.066-.273-.098-.91-.065-1.289.054-.617.225-.994.538-1.184.147-.09.46-.099.614-.019M21 22v1H4v-2h17v1" fill-rule="evenodd" fill="#000"/></svg>