<svg xmlns="http://www.w3.org/2000/svg" width="16" height="16" fill="currentColor" viewBox="0 0 16 16">
  <path d="M11.665 13V9.076h.762l1.176 2.16c.072.132.14.274.204.426.068.152.132.306.192.462h.024a54.484 54.484 0 0 0-.054-.66 7.83 7.83 0 0 1-.03-.672V9.076h.666V13h-.762l-1.176-2.16a8.403 8.403 0 0 1-.216-.426 9.353 9.353 0 0 1-.192-.462h-.024c.024.204.046.422.066.654.02.228.03.454.03.678V13h-.666ZM9.146 13.072c-.34 0-.64-.082-.9-.246a1.713 1.713 0 0 1-.612-.708c-.144-.308-.216-.674-.216-1.098 0-.424.072-.786.216-1.086.148-.3.352-.53.612-.69.26-.16.56-.24.9-.24.344 0 .646.08.906.24.26.16.462.39.606.69.148.3.222.662.222 1.086 0 .424-.074.79-.222 1.098-.144.304-.346.54-.606.708-.26.164-.562.246-.906.246Zm0-.606a.84.84 0 0 0 .534-.174c.152-.12.27-.288.354-.504.084-.22.126-.476.126-.768 0-.292-.042-.542-.126-.75a1.077 1.077 0 0 0-.354-.486.84.84 0 0 0-.534-.174.855.855 0 0 0-.534.174c-.152.112-.27.274-.354.486a2.002 2.002 0 0 0-.126.75c0 .292.042.548.126.768.084.216.202.384.354.504.152.116.33.174.534.174ZM5.498 13.072c-.272 0-.53-.05-.774-.15-.24-.1-.454-.242-.642-.426l.378-.456c.14.136.303.242.487.318.188.072.375.108.564.108.223 0 .393-.046.51-.138a.444.444 0 0 0 .173-.366.397.397 0 0 0-.077-.258.637.637 0 0 0-.216-.174 2.926 2.926 0 0 0-.313-.144l-.54-.234a2.127 2.127 0 0 1-.378-.216 1.208 1.208 0 0 1-.3-.336.994.994 0 0 1-.114-.492c0-.208.056-.394.168-.558.116-.168.272-.3.468-.396.2-.1.428-.15.684-.15.237 0 .459.044.667.132.212.084.391.2.54.348l-.367.456a1.55 1.55 0 0 0-.402-.24 1.1 1.1 0 0 0-.438-.09.749.749 0 0 0-.45.126.39.39 0 0 0-.168.336c0 .1.029.184.085.252.06.064.138.12.234.168l.305.132.535.222c.155.068.293.148.413.24a.93.93 0 0 1 .276.336c.069.132.103.294.103.486 0 .212-.056.406-.168.582a1.21 1.21 0 0 1-.486.426c-.208.104-.46.156-.756.156ZM2.162 13.072c-.256 0-.478-.054-.666-.162a1.222 1.222 0 0 1-.45-.516l.45-.306a.738.738 0 0 0 .258.282.671.671 0 0 0 .348.096c.196 0 .34-.058.432-.174.096-.116.144-.318.144-.606v-2.61h.696v2.67c0 .244-.042.466-.126.666-.084.2-.216.36-.396.48-.176.12-.406.18-.69.18Z"/>
  <path fill-rule="evenodd" d="M1 0h8.707L15 5.293V8h-1V6H9V1H2v7H1V0Zm9 1.707V5h3.293L10 1.707ZM14 15v-1h1v2H1v-2h1v1h12Z" clip-rule="evenodd"/>
</svg>
