<svg xmlns="http://www.w3.org/2000/svg" width="24" height="24" fill="none"><path d="M3.252 1.078C2.984 1.242 3 .948 3 5.698V10h-.81c-.733 0-.822.008-.938.078-.27.165-.252-.215-.252 5.43 0 5 .002 5.115.078 5.24.142.232.229.252 1.12.252H3v1.31c0 1.229.005 1.318.078 1.438.167.274-.638.252 9.422.252s9.255.022 9.422-.252c.073-.12.078-.209.078-1.438V21h.81c.733 0 .822-.008.938-.078.27-.165.252.214.252-5.422s.018-5.257-.252-5.422c-.116-.07-.205-.078-.938-.078H22V7.301L18.85 4.15 15.699 1H9.54c-6.039 0-6.163.002-6.288.078M15 4.81c0 2.716.003 2.814.078 2.938.161.263.028.252 3.12.252H21v2H4V2h11v2.81m3.16.05L20.3 7H16V4.86c0-1.177.005-2.14.01-2.14.006 0 .973.963 2.15 2.14M23 15.5V20H2v-9h21v4.5M6 13.28v.48h1.08c.594 0 1.08.011 1.08.025 0 .014-.54.806-1.2 1.759l-1.2 1.733V18h3.92v-1H8.46c-.671 0-1.22-.008-1.22-.017 0-.009.54-.795 1.2-1.745l1.2-1.728v-.71H6v.48m4.689.01.011.49.61.011.61.011V17h-1.24v1h3.64v-1h-1.24v-3.198l.61-.011.61-.011.011-.49.011-.49h-3.644l.011.49m4.791 2.11V18h1.2v-1.749l.59-.021c.489-.017.645-.039.91-.125.367-.119.484-.189.749-.45.24-.235.375-.511.436-.889.056-.341.005-.78-.122-1.068-.113-.255-.37-.511-.656-.652-.433-.213-.698-.246-1.97-.246H15.48v2.6m2.4-1.557c.273.153.338.27.337.608-.002.308-.057.462-.224.617-.163.153-.369.21-.851.238l-.462.026V13.709l.513.019c.448.016.535.031.687.115M21 22v1H4v-2h17v1" fill-rule="evenodd" fill="#000"/></svg>