<svg xmlns="http://www.w3.org/2000/svg" width="24" height="24" fill="none"><path d="M3.252 1.078C2.984 1.242 3 .948 3 5.698V10h-.81c-.733 0-.822.008-.938.078-.27.165-.252-.215-.252 5.43 0 5 .002 5.115.078 5.24.142.232.229.252 1.12.252H3v1.31c0 1.229.005 1.318.078 1.438.167.274-.638.252 9.422.252s9.255.022 9.422-.252c.073-.12.078-.209.078-1.438V21h.81c.733 0 .822-.008.938-.078.27-.165.252.214.252-5.422s.018-5.257-.252-5.422c-.116-.07-.205-.078-.938-.078H22V7.301L18.85 4.15 15.699 1H9.54c-6.039 0-6.163.002-6.288.078M15 4.81c0 2.716.003 2.814.078 2.938.161.263.028.252 3.12.252H21v2H4V2h11v2.81m3.16.05L20.3 7H16V4.86c0-1.177.005-2.14.01-2.14.006 0 .973.963 2.15 2.14M23 15.5V20H2v-9h21v4.5M7.679 12.722c-1.113.164-1.851 1.011-2.003 2.297-.084.717.077 1.551.397 2.044.72 1.112 2.31 1.362 3.437.54l.17-.124V15.08h-1.8v.96h.76v.439c0 .423-.004.442-.099.504a.948.948 0 0 1-.332.086c-.575.052-1.023-.255-1.211-.83-.086-.262-.098-.368-.095-.859.003-.618.067-.88.286-1.178.255-.346.516-.482.92-.481.296.001.506.075.716.253l.126.105.322-.365.321-.366-.187-.156c-.278-.231-.7-.425-1.027-.471a1.837 1.837 0 0 0-.701.001m3.01.568.011.49.61.011.61.011V17h-1.24v1h3.64v-1h-1.24v-3.198l.61-.011.61-.011.011-.49.011-.49h-3.644l.011.49m5.031 2.11V18h1.2v-1.999l.97-.01.97-.011.011-.49.011-.49H16.92v-1.2h2.28v-1h-3.48v2.6M21 22v1H4v-2h17v1" fill-rule="evenodd" fill="#000"/></svg>