<svg xmlns="http://www.w3.org/2000/svg" width="24" height="24" fill="none" viewBox="0 0 24 24"><path stroke="currentColor" stroke-linecap="round" stroke-linejoin="round" d="M21.5 21v2.5h-18V21M3.5 10.5v-9h12l6 6v3"/><path stroke="currentColor" stroke-linecap="round" stroke-linejoin="round" d="M15.5 1.5v6h6M23.5 10.5h-22v10h22v-10Z"/><path fill="currentColor" d="M5.377 18 7 12.784h1.408L10.033 18H8.785l-.672-2.64a94.566 94.566 0 0 0-.208-.832 48.032 48.032 0 0 1-.208-.848h-.032l-.2.848c-.07.293-.139.57-.208.832L6.577 18h-1.2Zm1.072-1.24v-.92h2.496v.92H6.449ZM10.174 18l1.624-5.216h1.408L14.83 18h-1.248l-.672-2.64a97.112 97.112 0 0 0-.208-.832 47.769 47.769 0 0 1-.208-.848h-.032l-.2.848c-.07.293-.14.57-.208.832l-.68 2.64h-1.2Zm1.072-1.24v-.92h2.496v.92h-2.496ZM17.746 18.096a2.58 2.58 0 0 1-.928-.168 2.209 2.209 0 0 1-.768-.504 2.45 2.45 0 0 1-.528-.84 3.245 3.245 0 0 1-.192-1.16c0-.576.11-1.067.328-1.472.224-.41.523-.723.896-.936.38-.219.8-.328 1.264-.328.331 0 .63.07.896.208.267.133.488.285.664.456l-.648.728a1.364 1.364 0 0 0-.408-.272 1.15 1.15 0 0 0-.504-.104c-.245 0-.464.07-.656.208a1.35 1.35 0 0 0-.456.576c-.112.25-.168.55-.168.896 0 .357.056.664.168.92.112.25.267.443.464.576.203.133.435.2.696.2.192 0 .366-.043.52-.128a1.68 1.68 0 0 0 .424-.336l.648.712c-.213.25-.464.443-.752.576a2.338 2.338 0 0 1-.96.192Z"/></svg>