<svg xmlns="http://www.w3.org/2000/svg" width="16" height="16" fill="none" viewBox="0 0 16 16">
  <path stroke="currentColor" stroke-linecap="round" stroke-linejoin="round" d="M14.5 14.5v1h-13v-1M1.5 7V.5h8l5 5V7"/>
  <path stroke="currentColor" stroke-linecap="round" stroke-linejoin="round" d="M9.5.5v5h5"/>
  <path fill="currentColor" d="M.895 13V8.436h1.26c.444 0 .829.08 1.155.238.332.159.588.406.77.742.182.331.273.758.273 1.281 0 .523-.09.954-.273 1.295-.177.34-.427.595-.749.763A2.428 2.428 0 0 1 2.218 13H.895Zm1.036-.833H2.1c.243 0 .453-.047.63-.14a.94.94 0 0 0 .413-.462c.103-.215.154-.504.154-.868s-.05-.649-.154-.854a.87.87 0 0 0-.413-.441 1.394 1.394 0 0 0-.63-.133h-.168v2.898ZM6.303 13.084c-.364 0-.684-.09-.96-.273-.275-.182-.49-.448-.643-.798-.154-.355-.231-.793-.231-1.316 0-.509.077-.936.23-1.28.155-.35.37-.615.645-.792.275-.182.595-.273.959-.273s.683.091.959.273c.275.177.49.441.644.791.154.345.23.772.23 1.281 0 .523-.076.961-.23 1.316-.154.35-.369.616-.644.798a1.699 1.699 0 0 1-.96.273Zm0-.889a.577.577 0 0 0 .413-.168c.116-.117.205-.285.266-.504.065-.224.098-.5.098-.826 0-.317-.033-.583-.098-.798-.061-.215-.15-.378-.266-.49a.577.577 0 0 0-.413-.168.577.577 0 0 0-.413.168 1.116 1.116 0 0 0-.273.49 2.98 2.98 0 0 0-.091.798c0 .327.03.602.09.826.066.22.157.387.274.504a.577.577 0 0 0 .413.168ZM10.492 13.084c-.285 0-.555-.049-.812-.147a1.933 1.933 0 0 1-.672-.44c-.196-.202-.35-.447-.462-.736a2.84 2.84 0 0 1-.168-1.015c0-.504.096-.933.287-1.288.196-.36.457-.632.784-.819.331-.191.7-.287 1.106-.287.29 0 .55.06.784.182.233.117.427.25.581.399l-.567.637a1.196 1.196 0 0 0-.357-.238 1.006 1.006 0 0 0-.441-.091.956.956 0 0 0-.574.182 1.181 1.181 0 0 0-.399.504c-.098.22-.147.48-.147.784a2 2 0 0 0 .147.805c.098.22.233.387.406.504.177.117.38.175.609.175.168 0 .32-.037.455-.112.135-.075.259-.173.371-.294l.567.623c-.187.22-.406.387-.658.504a2.046 2.046 0 0 1-.84.168Z"/>
  <path fill="currentColor" d="m11.923 13 1.33-2.345L12 8.436h1.155l.441.861c.052.103.105.215.161.336.056.121.12.254.19.4h.027a5.92 5.92 0 0 1 .308-.735l.406-.862h1.106l-1.253 2.268L15.871 13h-1.148l-.497-.93c-.06-.122-.121-.241-.182-.358a89.7 89.7 0 0 0-.182-.392h-.028c-.056.14-.112.27-.168.392l-.168.357-.476.931h-1.099Z"/>
</svg>
