<svg xmlns="http://www.w3.org/2000/svg" width="24" height="24" fill="none"><path d="M3.252 1.078C2.984 1.242 3 .948 3 5.698V10h-.81c-.733 0-.822.008-.938.078-.27.165-.252-.215-.252 5.43 0 5 .002 5.115.078 5.24.142.232.229.252 1.12.252H3v1.31c0 1.229.005 1.318.078 1.438.167.274-.638.252 9.422.252s9.255.022 9.422-.252c.073-.12.078-.209.078-1.438V21h.81c.733 0 .822-.008.938-.078.27-.165.252.214.252-5.422s.018-5.257-.252-5.422c-.116-.07-.205-.078-.938-.078H22V7.301L18.85 4.15 15.699 1H9.54c-6.039 0-6.163.002-6.288.078M15 4.81c0 2.716.003 2.814.078 2.938.161.263.028.252 3.12.252H21v2H4V2h11v2.81m3.16.05L20.3 7H16V4.86c0-1.177.005-2.14.01-2.14.006 0 .973.963 2.15 2.14M23 15.5V20H2v-9h21v4.5m-19.6-.1V18h1.2v-2.16H6V18h1.2v-5.2H6v2H4.6v-2H3.4v2.6m4.56-2.1v.5h1.56V18h1.2v-4.198l.77-.011.77-.011.011-.49.011-.49H7.96v.5m5 2.1V18h1l-.001-.79c0-.829-.045-1.801-.123-2.662-.025-.281-.038-.519-.029-.528.009-.009.086.248.171.571.085.324.261.918.39 1.321l.236.731.284-.011.283-.012.135-.42c.075-.231.252-.814.393-1.295.247-.84.336-1.084.284-.785-.063.363-.142 1.962-.143 2.87V18h1v-5.2h-1.238l-.059.21c-.21.74-.432 1.549-.523 1.91a6.82 6.82 0 0 1-.118.431 2.143 2.143 0 0 1-.099-.34 83.294 83.294 0 0 0-.569-2.081l-.04-.13H12.96v2.6m5.2 0V18h3.48v-1h-2.32v-4.2h-1.16v2.6M21 22v1H4v-2h17v1" fill-rule="evenodd" fill="#000"/></svg>