<svg xmlns="http://www.w3.org/2000/svg" width="24" height="24" viewBox="0 0 24 24" fill="none">
<path d="M21.5 21V23.5H3.5V21" stroke="#0A8276" stroke-linecap="round" stroke-linejoin="round"/>
<path d="M3.5 10.5V1.5H15.5L21.5 7.5V10.5" stroke="#0A8276" stroke-linecap="round" stroke-linejoin="round"/>
<path d="M15.5 1.5V7.5H21.5" stroke="#0A8276" stroke-linecap="round" stroke-linejoin="round"/>
<path d="M23.5 10.5H1.5V20.5H23.5V10.5Z" stroke="#0A8276" stroke-linecap="round" stroke-linejoin="round"/>
<path d="M5.75293 18.0002V17.2882L8.19293 13.7682H5.98493V12.7842H9.64893V13.4962L7.20893 17.0082H9.68093V18.0002H5.75293Z" fill="#0A8276"/>
<path d="M10.6938 18.0002V17.0082H11.9098V13.7762H10.6938V12.7842H14.3098V13.7762H13.0938V17.0082H14.3098V18.0002H10.6938Z" fill="#0A8276"/>
<path d="M15.4987 18.0002V12.7842H17.3467C17.7253 12.7842 18.0667 12.8375 18.3707 12.9442C18.68 13.0455 18.9253 13.2188 19.1067 13.4642C19.2933 13.7095 19.3867 14.0428 19.3867 14.4642C19.3867 14.8695 19.2933 15.2028 19.1067 15.4642C18.92 15.7255 18.672 15.9202 18.3627 16.0482C18.0533 16.1708 17.7147 16.2322 17.3467 16.2322H16.6747V18.0002H15.4987ZM16.6747 15.2962H17.2747C17.6 15.2962 17.84 15.2242 17.9947 15.0802C18.1547 14.9362 18.2347 14.7308 18.2347 14.4642C18.2347 14.1868 18.152 13.9948 17.9867 13.8882C17.8267 13.7762 17.5893 13.7202 17.2747 13.7202H16.6747V15.2962Z" fill="#0A8276"/>
</svg>