<svg xmlns="http://www.w3.org/2000/svg" width="24" height="24" fill="none" viewBox="0 0 24 24"><path fill="currentColor" fill-rule="evenodd" d="M3 1h11.707l.147.146 6 6 .146.147V10h2v11h-2v3H3v-3H1V10h2V1Zm17 7v2H4V2h10v6h6ZM4 21h16v2H4v-2ZM2 11h20v9H2v-9Zm13-8.293V7h4.293L15 2.707ZM6.5 18l-1.575-5.216h1.248l.624 2.432c.08.288.149.568.208.84.064.267.133.544.208.832h.032c.085-.288.157-.565.216-.832.064-.272.133-.552.208-.84l.616-2.432h1.2L7.917 18H6.5Zm3.662 0v-5.216h1.44c.506 0 .946.09 1.32.272.378.181.672.464.88.848.208.379.312.867.312 1.464s-.104 1.09-.312 1.48a1.99 1.99 0 0 1-.856.872c-.368.187-.792.28-1.272.28h-1.512Zm1.184-.952h.192c.277 0 .517-.053.72-.16.202-.107.36-.283.472-.528.117-.245.176-.576.176-.992 0-.416-.06-.741-.176-.976a.995.995 0 0 0-.472-.504 1.593 1.593 0 0 0-.72-.152h-.192v3.312Zm3.58-4.264V18h1.128v-1.848c0-.31-.02-.63-.064-.96a29.41 29.41 0 0 1-.104-.928h.032l.448 1.136 1.096 2.6h1.208v-5.216h-1.128v1.848c0 .304.022.627.064.968.043.341.078.65.104.928h-.032l-.448-1.152-1.096-2.592h-1.208Z" clip-rule="evenodd"/></svg>