<svg xmlns="http://www.w3.org/2000/svg" width="16" height="16" fill="none" viewBox="0 0 16 16"><path stroke="currentColor" fill="none" stroke-linecap="round" stroke-linejoin="round" d="M14.5 12.5v3h-13v-1M1.5 6.5v-6h8l5 5v1"/><path stroke="currentColor" fill="none" stroke-linecap="round" stroke-linejoin="round" d="M9.5.5v5h5"/><path fill="currentColor" d="M1.405 13V7.784h1.848c.378 0 .72.053 1.024.16.309.101.554.275.736.52.186.245.28.579.28 1 0 .405-.094.739-.28 1a1.685 1.685 0 0 1-.744.584c-.31.123-.648.184-1.016.184H2.58V13H1.405Zm1.176-2.704h.6c.325 0 .565-.072.72-.216.16-.144.24-.35.24-.616 0-.277-.083-.47-.248-.576-.16-.112-.398-.168-.712-.168h-.6v1.576ZM6.162 13V7.784h1.44c.506 0 .946.09 1.32.272.378.181.672.464.88.848.207.379.312.867.312 1.464s-.105 1.09-.312 1.48a1.99 1.99 0 0 1-.856.872c-.368.187-.792.28-1.272.28H6.162Zm1.184-.952h.192c.277 0 .517-.053.72-.16.202-.107.36-.283.472-.528.117-.245.176-.576.176-.992 0-.416-.06-.741-.176-.976a.994.994 0 0 0-.472-.504 1.593 1.593 0 0 0-.72-.152h-.192v3.312ZM11.238 13V7.784h3.464v.992h-2.288v1.208h1.952v.992h-1.952V13h-1.176Z"/></svg>