<svg xmlns="http://www.w3.org/2000/svg" width="24" height="24" fill="none" viewBox="0 0 24 24"><path stroke="currentColor" stroke-linecap="round" stroke-linejoin="round" d="M21.5 21v2.5h-18V21M3.5 10.5v-9h12l6 6v3"/><path stroke="currentColor" stroke-linecap="round" stroke-linejoin="round" d="M15.5 1.5v6h6M23.5 10.5h-22v10h22v-10Z"/><path fill="currentColor" d="M8.049 18.096c-.443 0-.846-.099-1.208-.296a2.19 2.19 0 0 1-.864-.896c-.214-.4-.32-.893-.32-1.48 0-.581.106-1.075.32-1.48.213-.41.501-.723.864-.936.368-.213.776-.32 1.224-.32.352 0 .653.07.904.208.25.133.458.285.624.456l-.648.728a1.493 1.493 0 0 0-.368-.272 1.107 1.107 0 0 0-.512-.104.976.976 0 0 0-.608.208 1.349 1.349 0 0 0-.432.576c-.102.25-.152.55-.152.896 0 .357.045.664.136.92.09.25.229.443.416.576.186.133.416.2.688.2.101 0 .197-.013.288-.04a.5.5 0 0 0 .224-.12v-.896h-.76v-.96H9.68v2.4c-.176.165-.411.312-.704.44a2.259 2.259 0 0 1-.928.192ZM10.694 18v-.992h1.216v-3.232h-1.216v-.992h3.616v.992h-1.216v3.232h1.216V18h-3.616ZM15.738 18v-5.216h3.464v.992h-2.288v1.208h1.952v.992h-1.952V18h-1.176Z"/></svg>