<svg xmlns="http://www.w3.org/2000/svg" width="16" height="16" fill="none"><path d="M1.292.05a.478.478 0 0 0-.277.357C.994.505.988 1.464.993 3.587c.006 2.802.011 3.046.052 3.122.061.11.218.246.309.266l.105.026c.063.019.304-.061.372-.124a.65.65 0 0 0 .119-.17c.046-.102.049-.242.049-2.9L2 1.013h6.987v2.226c0 1.504.009 2.269.029 2.36.035.163.13.285.276.351.102.046.234.049 2.408.049L14 6l.001.3c0 .329.037.457.168.577.133.123.399.152.568.062a.707.707 0 0 0 .243-.293c.011-.04.02-.343.02-.673v-.6l-.072-.12c-.107-.18-5.102-5.16-5.227-5.212-.088-.036-.569-.041-4.2-.04-3.921 0-4.106.002-4.209.049m10.361 3.323 1.64 1.64H10v-1.64c0-.902.003-1.64.007-1.64.003 0 .744.738 1.646 1.64M7.728 7.709c-.791.084-1.417.65-1.673 1.513-.14.471-.191 1.292-.111 1.805.162 1.053.642 1.717 1.429 1.979.195.065.25.071.627.071s.432-.006.627-.071c.304-.102.53-.243.76-.474a2.04 2.04 0 0 0 .482-.757c.288-.745.308-1.863.048-2.642-.338-1.013-1.141-1.535-2.189-1.424m5.405-.012c-.815.069-1.453.439-1.872 1.084-.307.471-.459 1.121-.427 1.818.071 1.521 1.022 2.494 2.437 2.494.599 0 1.099-.196 1.524-.6l.169-.16-.323-.353-.324-.353-.16.134c-.341.283-.672.373-1.069.289-.507-.106-.884-.538-.998-1.144-.066-.35-.04-.956.053-1.241.125-.386.395-.715.705-.86.14-.066.179-.072.485-.071.303 0 .347.006.48.069.081.038.204.113.274.166.07.054.136.097.147.096.01-.002.159-.161.33-.354.355-.402.351-.359.059-.568-.467-.334-.987-.49-1.49-.446M1.367 10.393 1.373 13l.934-.002c.835-.002.96-.008 1.187-.057.498-.107.838-.283 1.149-.596.311-.312.53-.773.621-1.303.054-.32.056-.996.003-1.322-.153-.942-.678-1.561-1.535-1.809-.348-.101-.637-.124-1.539-.124H1.36l.007 2.606m6.97-1.594c.251.144.446.531.514 1.024.066.474.018 1.225-.1 1.565-.169.487-.379.677-.751.678-.171.001-.218-.01-.324-.072-.231-.136-.408-.439-.495-.847-.068-.322-.068-1.228 0-1.534.061-.277.172-.511.317-.668.154-.168.281-.224.515-.224.159 0 .208.011.324.078m-5.044.025c.59.211.849.761.805 1.709-.032.707-.256 1.161-.673 1.369a1.912 1.912 0 0 1-.704.151H2.56V8.74l.287.014c.196.009.337.031.446.07m11.088 4.694a.506.506 0 0 0-.293.206l-.075.098-.008.596-.009.595H2v-.307c0-.362-.026-.442-.187-.58a.486.486 0 0 0-.796.269c-.039.18-.04 1.026-.001 1.204.035.163.13.285.276.351.104.047.362.049 6.708.049s6.604-.002 6.708-.049a.482.482 0 0 0 .279-.363c.02-.096.027-.413.021-.927L15 13.88l-.071-.12a.516.516 0 0 0-.548-.242" fill-rule="evenodd" fill="#000"/></svg>