<svg width="16" height="16" fill="none" xmlns="http://www.w3.org/2000/svg"><path d="M.993 3.247 1 6.493l.5.008.5.007V1.013h6.987V6H14v.508l.5-.007.5-.008.007-.599.007-.599-2.647-2.647L9.72 0H.986l.007 3.247m10.66.126 1.64 1.64H10v-1.64c0-.902.003-1.64.007-1.64.003 0 .744.738 1.646 1.64M.944 7.847c.008.033.362 1.206.786 2.606L2.5 13l.706.007.706.007.191-.634c.106-.348.459-1.524.786-2.613l.594-1.98H4.28l-.436 1.74c-.56 2.234-.594 2.366-.615 2.366-.009 0-.067-.207-.129-.46s-.295-1.177-.519-2.053l-.407-1.593H.928l.016.06m5.216 2.54v2.6h1.12v-1.154c0-1.102-.004-1.184-.08-1.858a10.89 10.89 0 0 1-.067-.717c.007-.007.023.017.037.052.205.531.633 1.575 1.025 2.503l.49 1.16.617.007.618.008V7.787H8.769l.012 1.246c.01 1.146.017 1.292.082 1.807.071.57.082.701.055.674-.008-.008-.11-.259-.226-.558A98.99 98.99 0 0 0 7.927 9.1l-.554-1.313H6.16v2.6m4.773-.003v2.603h.931c1 0 1.163-.016 1.549-.147.275-.093.509-.232.711-.421.513-.48.755-1.137.756-2.05 0-.58-.083-.996-.279-1.396-.277-.565-.726-.913-1.414-1.098-.262-.07-.284-.071-1.26-.082l-.994-.011v2.602m1.766-1.607c.368.077.624.272.783.595.137.279.179.516.178 1.001-.001.49-.044.725-.184 1.012-.212.432-.528.618-1.123.659l-.246.017V8.747h.225c.124 0 .289.013.367.03M.987 15v1h14.026v-2H14v1.013H2V14H.987v1" fill="#0A8276" fill-rule="evenodd"/></svg>