<svg xmlns="http://www.w3.org/2000/svg" width="16" height="16" fill="none"><path d="M1.292.05a.478.478 0 0 0-.277.357C.994.505.988 1.464.993 3.587c.006 2.802.011 3.046.052 3.122.061.11.218.246.309.266l.105.026c.063.019.304-.061.372-.124a.65.65 0 0 0 .119-.17c.046-.102.049-.242.049-2.9L2 1.013h6.987v2.226c0 1.504.009 2.269.029 2.36.035.163.13.285.276.351.102.046.234.049 2.408.049L14 6l.001.3c0 .329.037.457.168.577.133.123.399.152.568.062a.707.707 0 0 0 .243-.293c.011-.04.02-.343.02-.673v-.6l-.072-.12c-.107-.18-5.102-5.16-5.227-5.212-.088-.036-.569-.041-4.2-.04-3.921 0-4.106.002-4.209.049m10.361 3.323 1.64 1.64H10v-1.64c0-.902.003-1.64.007-1.64.003 0 .744.738 1.646 1.64m1.223 4.335c-1.093.119-1.865.891-2.079 2.079a4.653 4.653 0 0 0-.036.64c0 .472.031.709.139 1.053.174.556.53 1.02.993 1.295.209.123.58.251.854.294.276.043.762.017 1.013-.055.26-.074.637-.26.847-.417l.166-.126V10.08H12.96v.96h.747v.91l-.127.056a1.057 1.057 0 0 1-.317.068c-.575.038-1.027-.294-1.191-.874-.111-.392-.127-1.083-.033-1.464.136-.552.532-.957.988-1.012.342-.041.646.044.885.248.06.052.116.095.123.095.007 0 .154-.158.327-.35.255-.285.309-.358.286-.394-.05-.08-.392-.322-.607-.429-.345-.173-.727-.234-1.165-.186M1.413 10.401v2.613l.58-.007.58-.007.007-.884.007-.883.58-.013c.666-.014.851-.05 1.232-.237.173-.085.273-.159.429-.315.33-.33.458-.669.458-1.215.001-.962-.51-1.487-1.592-1.638-.116-.016-.652-.028-1.243-.028H1.413v2.614m4.72-.002v2.614h1.124l-.01-1.286c-.01-1.121-.018-1.344-.068-1.727-.088-.674-.094-.737-.063-.707.015.015.12.261.232.547.164.418 1.175 2.838 1.296 3.106l.031.067h1.192V7.787H8.742l.012 1.273c.01 1.088.019 1.336.067 1.7.082.634.095.777.066.747a9.873 9.873 0 0 1-.269-.654 91.387 91.387 0 0 0-.759-1.84L7.345 7.8l-.606-.007-.606-.007v2.613M3.556 8.76c.392.083.552.262.572.638.021.398-.1.633-.405.788l-.184.094-.476.009-.476.01V8.72h.393c.241.001.464.016.576.04m10.825 4.758a.506.506 0 0 0-.293.206l-.075.098-.008.596-.009.595H2v-.307c0-.362-.026-.442-.187-.58a.486.486 0 0 0-.796.269c-.039.18-.04 1.026-.001 1.204.035.163.13.285.276.351.104.047.362.049 6.708.049s6.604-.002 6.708-.049a.482.482 0 0 0 .279-.363c.02-.096.027-.413.021-.927L15 13.88l-.071-.12a.516.516 0 0 0-.548-.242" fill-rule="evenodd" fill="#000"/></svg>