<svg xmlns="http://www.w3.org/2000/svg" width="24" height="24" fill="none"><path d="M3.252 1.078C2.984 1.242 3 .948 3 5.698V10h-.81c-.733 0-.822.008-.938.078-.27.165-.252-.215-.252 5.43 0 5 .002 5.115.078 5.24.142.232.229.252 1.12.252H3v1.31c0 1.229.005 1.318.078 1.438.167.274-.638.252 9.422.252s9.255.022 9.422-.252c.073-.12.078-.209.078-1.438V21h.81c.733 0 .822-.008.938-.078.27-.165.252.214.252-5.422s.018-5.257-.252-5.422c-.116-.07-.205-.078-.938-.078H22V7.301L18.85 4.15 15.699 1H9.54c-6.039 0-6.163.002-6.288.078M15 4.81c0 2.716.003 2.814.078 2.938.161.263.028.252 3.12.252H21v2H4V2h11v2.81m3.16.05L20.3 7H16V4.86c0-1.177.005-2.14.01-2.14.006 0 .973.963 2.15 2.14M23 15.5V20H2v-9h21v4.5m-10.88-2.775c-.121.02-.348.097-.505.171-.723.343-1.145 1.129-1.203 2.244-.064 1.231.311 2.2 1.029 2.66.58.373 1.481.384 2.092.026.252-.147.603-.545.746-.844.239-.501.294-.801.294-1.602 0-.612-.013-.767-.085-1.032-.191-.695-.574-1.202-1.095-1.447a2.023 2.023 0 0 0-1.273-.176m5.269-.001c-.273.04-.626.176-.935.362-.457.274-.851.839-1.021 1.462-.122.445-.122 1.299 0 1.744.241.884.854 1.513 1.682 1.727.302.078.901.087 1.185.019.331-.08.688-.27.93-.496l.229-.212-.313-.345a4.141 4.141 0 0 0-.334-.345.806.806 0 0 0-.158.12 1.188 1.188 0 0 1-1.139.266c-.626-.182-.956-.742-.955-1.62.001-.643.154-1.087.475-1.376.237-.215.393-.281.711-.301.33-.022.556.04.823.223l.171.118.318-.361.319-.36-.159-.134c-.255-.216-.76-.448-1.078-.493a2.018 2.018 0 0 0-.751.002M5.88 15.397V18h.902c.65 0 .987-.017 1.21-.061 1.065-.213 1.703-.986 1.802-2.185.07-.852-.078-1.562-.43-2.057-.282-.398-.586-.613-1.104-.781-.255-.083-.372-.092-1.33-.107l-1.05-.016v2.604m6.912-1.621c.395.207.58.719.579 1.604-.002 1.048-.284 1.643-.803 1.689-.517.045-.856-.427-.922-1.284-.098-1.287.22-2.064.846-2.065.106 0 .241.025.3.056m-4.833.126c.421.227.595.588.63 1.303.025.516-.033.887-.187 1.19-.213.418-.522.606-1.052.637l-.31.018v-3.3l.35.017c.292.014.386.036.569.135M21 22v1H4v-2h17v1" fill-rule="evenodd" fill="#000"/></svg>