<svg xmlns="http://www.w3.org/2000/svg" width="16" height="16" fill="none" viewBox="0 0 16 16">
  <path fill="#1D1D1D" fill-rule="evenodd" d="M1 0h8.707L15 5.293V16H1V0Zm1 1v14h12V6H9V1H2Zm8 .707L13.293 5H10V1.707Z" clip-rule="evenodd"/>
  <path fill="#1D1D1D" d="M9.989 13.096c-.363 0-.707-.067-1.032-.2a2.697 2.697 0 0 1-.856-.568l.504-.608c.187.181.403.323.648.424.25.096.501.144.752.144.298 0 .525-.061.68-.184a.592.592 0 0 0 .232-.488.53.53 0 0 0-.104-.344.85.85 0 0 0-.288-.232 3.907 3.907 0 0 0-.416-.192l-.72-.312a2.84 2.84 0 0 1-.504-.288 1.611 1.611 0 0 1-.4-.448 1.325 1.325 0 0 1-.152-.656c0-.277.075-.525.224-.744.155-.224.363-.4.624-.528.267-.133.57-.2.912-.2.315 0 .61.059.888.176.283.112.523.267.72.464l-.488.608a2.07 2.07 0 0 0-.536-.32 1.468 1.468 0 0 0-.584-.12c-.245 0-.445.056-.6.168a.52.52 0 0 0-.224.448c0 .133.037.245.112.336.08.085.184.16.312.224.133.059.27.117.408.176l.712.296c.208.09.392.197.552.32.16.123.283.272.368.448.09.176.136.392.136.648 0 .283-.075.541-.224.776-.15.235-.365.424-.648.568-.277.139-.614.208-1.008.208ZM5.54 13.096c-.342 0-.638-.072-.888-.216-.246-.15-.446-.379-.6-.688l.6-.408c.09.165.205.29.344.376a.895.895 0 0 0 .464.128c.261 0 .453-.077.576-.232.128-.155.192-.424.192-.808v-3.48h.928v3.56c0 .325-.056.621-.168.888-.112.267-.288.48-.528.64-.235.16-.542.24-.92.24Z"/>
</svg>
