<svg xmlns="http://www.w3.org/2000/svg" width="16" height="16" fill="none"><path d="M1.292.05a.479.479 0 0 0-.277.356C.994.505.988 1.536.993 3.84c.008 3.67-.009 3.365.192 3.541.23.202.623.119.758-.161L2 7.103v-6.09h6.987v2.226c0 1.504.009 2.269.029 2.36.035.163.13.285.276.351.102.046.234.049 2.408.049L14 6v.552c0 .507.005.56.057.668a.485.485 0 0 0 .394.267c.175.017.3-.03.411-.153.141-.155.156-.277.146-1.18L15 5.373l-.072-.12c-.107-.18-5.102-5.16-5.227-5.212-.088-.036-.569-.041-4.2-.04-3.921 0-4.106.002-4.209.049m10.361 3.323 1.64 1.64H10v-1.64c0-.902.003-1.64.007-1.64.003 0 .744.738 1.646 1.64M5.898 8.375c-.664.086-1.207.528-1.338 1.088-.043.185-.022.482.049.68.128.358.408.599.987.85 1.041.45 1.095.479 1.162.62.093.196.016.406-.185.507-.146.073-.554.088-.79.028a2.383 2.383 0 0 1-.69-.322.988.988 0 0 0-.141-.093c-.024 0-.579.664-.579.693 0 .044.374.295.6.402.872.414 1.936.315 2.484-.231.486-.484.539-1.25.12-1.721-.172-.193-.368-.306-.975-.56-.748-.313-.894-.388-.971-.503-.116-.174-.038-.387.183-.5.096-.049.161-.06.359-.06.134 0 .311.018.395.04.157.041.428.167.56.26.041.029.078.049.082.043l.252-.311a3.44 3.44 0 0 0 .245-.322c0-.041-.155-.165-.363-.29a2.223 2.223 0 0 0-.881-.299 1.753 1.753 0 0 0-.565.001m3.707.001a1.71 1.71 0 0 0-.931.471c-.454.466-.673 1.271-.595 2.189.092 1.091.561 1.777 1.361 1.993.264.072.705.066.96-.012.488-.15.816-.435 1.061-.925.351-.7.366-1.954.032-2.696-.223-.495-.632-.857-1.108-.98a2.355 2.355 0 0 0-.78-.04m-8.607.085a4.151 4.151 0 0 0-.005.434L1 9.293l.888.007.887.007-.007 1.221-.008 1.22-.068.133a.505.505 0 0 1-.198.212c-.121.075-.148.08-.385.08-.227 0-.273-.008-.411-.076a1.616 1.616 0 0 1-.324-.234l-.168-.157-.185.194c-.102.106-.237.25-.3.32l-.115.127.21.207c.241.236.429.345.771.448.208.063.285.072.586.071.558-.001.89-.115 1.188-.406.179-.176.264-.316.364-.6l.074-.214.008-1.713.009-1.713H2.414c-1.123 0-1.405.007-1.416.034m11.062 2.252L12.067 13l.486.007.487.008v-1.03c0-.935-.006-1.084-.068-1.616a7.223 7.223 0 0 1-.058-.616c.005-.017.08.148.165.368a139.99 139.99 0 0 0 1.178 2.819l.038.073h1.038V8.427h-.986v.975c0 .867.007 1.045.068 1.591.037.339.064.639.06.669-.005.029-.091-.162-.192-.425a81.716 81.716 0 0 0-.677-1.644l-.493-1.166h-1.06l.007 2.286m-1.906-1.409c.207.107.334.298.439.661.054.188.06.262.058.755-.002.472-.01.575-.059.756-.132.478-.361.711-.703.711-.347 0-.599-.292-.707-.818-.062-.306-.063-1.02 0-1.312.08-.376.242-.644.451-.748a.66.66 0 0 1 .521-.005m-8.862 4.744a.485.485 0 0 0-.276.353c-.038.175-.038 1.023 0 1.198.035.163.13.285.276.351.104.047.362.049 6.708.049s6.604-.002 6.708-.049a.479.479 0 0 0 .276-.351c.038-.176.038-1.023 0-1.2-.094-.436-.651-.536-.907-.162-.057.083-.065.125-.072.434l-.009.342H2.004l-.009-.344c-.009-.381-.022-.414-.213-.569a.493.493 0 0 0-.49-.052" fill-rule="evenodd" fill="#000"/></svg>