<svg xmlns="http://www.w3.org/2000/svg" width="16" height="16" fill="none"><path d="M.993 3.5 1 7l.5.007.5.008V1.013h6.987V6H14V7.015l.5-.008L15 7l.007-.853.007-.852-2.647-2.648L9.72 0H.986l.007 3.5m10.66-.127 1.64 1.64H10v-1.64c0-.902.003-1.64.007-1.64.003 0 .744.738 1.646 1.64M3.022 7.71c-.782.083-1.446.606-1.579 1.245-.065.313-.012.707.128.952.217.379.461.546 1.355.93.959.411 1.046.472 1.067.742.028.339-.289.527-.833.493-.38-.024-.703-.143-1.091-.403a3.384 3.384 0 0 0-.189-.122c-.017 0-.653.774-.653.796 0 .051.363.299.626.429.488.241.95.338 1.49.314.61-.027 1.058-.202 1.407-.55.318-.317.459-.651.456-1.075-.004-.532-.228-.917-.693-1.191-.162-.096-.739-.351-1.276-.565-.314-.124-.448-.2-.542-.308-.082-.092-.087-.109-.076-.255.009-.133.024-.169.101-.248.123-.128.293-.179.588-.176.387.003.653.086 1.053.332l.107.066.288-.36c.168-.21.282-.376.274-.397-.023-.06-.354-.291-.561-.392a2.626 2.626 0 0 0-1.447-.257m2.818.57v.493h1.573v4.24h1.174v-4.24h1.573v-.986H5.84v.493m5.153 2.111L11 13h1.173l.007-.884.007-.883.58-.014c.485-.011.614-.023.791-.071.87-.239 1.323-.814 1.322-1.679-.002-.912-.403-1.393-1.35-1.619-.151-.036-.391-.046-1.363-.056l-1.181-.012.007 2.609m2.287-1.602a.753.753 0 0 1 .27.17c.105.102.13.146.157.281.064.311-.01.632-.186.808-.192.192-.39.245-.928.245h-.406v-1.58l.473.014c.364.01.507.024.62.062m.72 4.718v1.506H2V14H.987v2h14.026v-4H14v1.507" fill="currentColor" fill-rule="evenodd"/></svg>