<svg xmlns="http://www.w3.org/2000/svg" width="16" height="16" fill="none"><path d="M1.292.05a.478.478 0 0 0-.277.357C.994.505.988 1.464.993 3.587c.006 2.802.011 3.046.052 3.122.061.11.218.246.309.266l.105.026c.063.019.304-.061.372-.124a.65.65 0 0 0 .119-.17c.046-.102.049-.242.049-2.9L2 1.013h6.987v2.226c0 1.504.009 2.269.029 2.36.035.163.13.285.276.351.102.046.234.049 2.408.049L14 6l.001.3c0 .329.037.457.168.577.133.123.399.152.568.062a.707.707 0 0 0 .243-.293c.011-.04.02-.343.02-.673v-.6l-.072-.12c-.107-.18-5.102-5.16-5.227-5.212-.088-.036-.569-.041-4.2-.04-3.921 0-4.106.002-4.209.049m10.361 3.323 1.64 1.64H10v-1.64c0-.902.003-1.64.007-1.64.003 0 .744.738 1.646 1.64m-10.286 7.02L1.373 13l.58.007.58.007V11.12l.314.001h.313l.498.94.498.939.655.007c.361.004.655-.002.655-.013s-.262-.483-.582-1.047l-.582-1.027.158-.095c.504-.304.766-.79.766-1.425 0-.492-.117-.802-.411-1.094-.215-.214-.418-.326-.748-.411-.36-.093-.575-.107-1.66-.108H1.36l.007 2.606m5.126-.032c-.44 1.416-.804 2.591-.808 2.613-.008.034.075.039.578.039.387 0 .593-.009.605-.028.009-.016.086-.295.17-.62l.153-.592.787-.007.787-.007.158.621.158.62.62.007c.34.004.619-.002.619-.013.001-.011-.362-1.188-.806-2.614l-.807-2.593H7.293l-.8 2.574m4.467.039v2.613h1.173v-1.895l.312.008.312.007.496.934.496.933.659.007c.362.004.659.002.659-.004 0-.007-.25-.454-.556-.994a170.81 170.81 0 0 1-.586-1.04c-.029-.053-.019-.064.118-.141.322-.182.582-.496.694-.837.063-.191.072-.262.074-.578.002-.301-.007-.39-.057-.547-.188-.599-.683-.946-1.501-1.052-.11-.014-.671-.026-1.246-.027H10.96V10.4m-2.7-.641c.146.586.26 1.072.252 1.08-.022.023-1.072.017-1.072-.006 0-.011.089-.374.197-.807.109-.432.225-.909.258-1.059.033-.151.069-.274.079-.274.011 0 .139.48.286 1.066M3.506 8.76c.243.052.406.154.485.304.052.097.062.158.062.347-.001.266-.047.395-.195.542-.169.17-.338.214-.865.228l-.46.012V8.72h.394c.243.001.464.016.579.04m9.716.025c.305.096.447.321.426.675-.015.244-.075.379-.231.52-.165.149-.32.186-.837.2l-.447.012V8.713l.474.014c.336.01.514.026.615.058m-11.93 5.263a.485.485 0 0 0-.276.353c-.038.175-.038 1.023 0 1.198.035.163.13.285.276.351.104.047.362.049 6.708.049s6.604-.002 6.708-.049a.479.479 0 0 0 .276-.351c.038-.176.038-1.023 0-1.2-.094-.436-.651-.536-.907-.162-.057.083-.065.125-.072.434l-.009.342H2.004l-.009-.344c-.009-.381-.022-.414-.213-.569a.493.493 0 0 0-.49-.052" fill-rule="evenodd" fill="#000"/></svg>