<svg xmlns="http://www.w3.org/2000/svg" width="16" height="16" fill="none"><path d="M.993 3.247 1 6.493l.5.008.5.007V1.013h6.987V6H14v.508l.5-.007.5-.008.007-.599.007-.599-2.647-2.647L9.72 0H.986l.007 3.247m10.66.126 1.64 1.64H10v-1.64c0-.902.003-1.64.007-1.64.003 0 .744.738 1.646 1.64M.944 7.847l.786 2.606L2.499 13l.71.007.709.007.027-.1c.015-.055.368-1.232.784-2.614l.757-2.514-.601.007-.602.007-.035.133-.504 1.998c-.258 1.026-.479 1.89-.491 1.92-.017.044-.024.047-.037.016a95.063 95.063 0 0 1-.375-1.467c-.198-.785-.428-1.694-.512-2.02l-.153-.593H.928l.016.06m5.216 2.556v2.617l.953-.014c.816-.012.988-.021 1.194-.067 1.021-.223 1.622-.91 1.774-2.025.053-.395.021-1.102-.065-1.434-.213-.818-.711-1.345-1.484-1.569-.348-.101-.637-.124-1.539-.124H6.16v2.616m4.773-.004v2.614h1.124l-.011-1.273c-.009-1.092-.019-1.334-.066-1.7-.084-.643-.096-.777-.066-.747.015.015.124.273.242.574.118.302.46 1.13.76 1.84L13.462 13l.602.007.603.007V7.787h-1.124l.011 1.286c.009 1.116.018 1.345.068 1.727.086.666.092.737.063.707a10.752 10.752 0 0 1-.282-.68 90.517 90.517 0 0 0-.759-1.84L12.141 7.8l-.604-.007-.604-.007v2.613M7.961 8.787c.485.125.768.431.886.957.059.263.058.998-.001 1.262-.093.417-.318.741-.614.887a1.758 1.758 0 0 1-.705.16H7.36V8.747h.221c.122 0 .293.018.38.04M.987 15v1h14.026v-2H14v1.013H2V14H.987v1" fill="currentColor" fill-rule="evenodd"/></svg>