<svg xmlns="http://www.w3.org/2000/svg" width="24" height="24" fill="none" viewBox="0 0 24 24"><path stroke="currentColor" stroke-linecap="round" stroke-linejoin="round" d="M21.5 21v2.5h-18V21M3.5 10.5v-9h12l6 6v3"/><path stroke="currentColor" stroke-linecap="round" stroke-linejoin="round" d="M15.5 1.5v6h6M23.5 10.5h-22v10h22v-10Z"/><path fill="currentColor" d="M7.489 18.096c-.288 0-.59-.064-.904-.192-.31-.128-.579-.352-.808-.672l.68-.728c.149.187.309.33.48.432.17.096.341.144.512.144.266 0 .466-.07.6-.208.138-.139.208-.387.208-.744v-2.36h-2.04v-.984h3.216v3.44c0 .341-.064.653-.192.936-.123.283-.326.51-.608.68-.278.17-.659.256-1.144.256ZM10.701 18v-5.216h1.848c.38 0 .72.053 1.024.16.31.101.555.275.736.52.187.245.28.579.28 1 0 .405-.093.739-.28 1a1.684 1.684 0 0 1-.743.584c-.31.123-.649.184-1.017.184h-.671V18H10.7Zm1.176-2.704h.6c.326 0 .566-.072.72-.216.16-.144.24-.35.24-.616 0-.277-.082-.47-.247-.576-.16-.112-.398-.168-.713-.168h-.6v1.576ZM17.642 18.096c-.442 0-.845-.099-1.208-.296a2.19 2.19 0 0 1-.864-.896c-.213-.4-.32-.893-.32-1.48 0-.581.107-1.075.32-1.48.214-.41.502-.723.864-.936.368-.213.776-.32 1.224-.32.352 0 .654.07.904.208.251.133.46.285.624.456l-.648.728a1.492 1.492 0 0 0-.368-.272 1.107 1.107 0 0 0-.512-.104.976.976 0 0 0-.608.208 1.349 1.349 0 0 0-.432.576c-.1.25-.152.55-.152.896 0 .357.046.664.136.92.091.25.23.443.416.576.187.133.416.2.688.2.102 0 .198-.013.288-.04a.5.5 0 0 0 .224-.12v-.896h-.76v-.96h1.816v2.4c-.176.165-.41.312-.704.44a2.259 2.259 0 0 1-.928.192Z"/></svg>