<svg xmlns="http://www.w3.org/2000/svg" width="16" height="16" fill="none" viewBox="0 0 16 16"><path stroke="currentColor" fill="none" stroke-linecap="round" stroke-linejoin="round" d="M14.5 14.5v1h-13v-1M1.5 7V.5h8l5 5V7"/><path stroke="currentColor" fill="none" stroke-linecap="round" stroke-linejoin="round" d="M9.5.5v5h5"/><path fill="currentColor" d="M2.116 13.084c-.252 0-.515-.056-.79-.168a1.65 1.65 0 0 1-.708-.588l.595-.637c.131.163.271.29.42.378.15.084.3.126.448.126.234 0 .409-.06.525-.182.122-.121.182-.338.182-.65V9.296H1.003v-.861h2.814v3.01c0 .299-.056.572-.168.82a1.283 1.283 0 0 1-.532.594c-.242.15-.576.224-1 .224ZM6.089 13.084a2.63 2.63 0 0 1-1.736-.658l.595-.707c.172.14.361.254.567.343.21.089.424.133.644.133.22 0 .38-.037.483-.112a.337.337 0 0 0 .16-.287.357.357 0 0 0-.083-.252.665.665 0 0 0-.245-.168 8.405 8.405 0 0 0-.378-.168l-.588-.252a2.15 2.15 0 0 1-.476-.259 1.375 1.375 0 0 1-.364-.406 1.2 1.2 0 0 1-.133-.58c0-.253.07-.48.21-.68.144-.205.34-.369.588-.49.252-.126.543-.189.875-.189.275 0 .546.051.812.154.266.103.501.252.707.448l-.525.651a2.034 2.034 0 0 0-.476-.266 1.506 1.506 0 0 0-.574-.098.743.743 0 0 0-.413.105.345.345 0 0 0-.161.308c0 .089.032.163.098.224.065.06.154.114.266.161.112.047.24.098.385.154l.553.238c.205.075.38.168.525.28.144.107.256.24.336.4.08.158.119.344.119.56 0 .251-.07.484-.21.7a1.438 1.438 0 0 1-.602.517c-.262.13-.581.196-.96.196ZM9.9 13.084c-.364 0-.684-.09-.959-.273-.275-.182-.49-.448-.644-.798-.154-.355-.231-.793-.231-1.316 0-.509.077-.936.231-1.28.154-.35.369-.615.644-.792.275-.182.595-.273.959-.273s.684.091.959.273c.275.177.49.441.644.791.154.345.231.772.231 1.281 0 .523-.077.961-.231 1.316-.154.35-.369.616-.644.798a1.699 1.699 0 0 1-.959.273Zm0-.889a.577.577 0 0 0 .413-.168c.117-.117.205-.285.266-.504.065-.224.098-.5.098-.826a2.78 2.78 0 0 0-.098-.798c-.06-.215-.15-.378-.266-.49a.577.577 0 0 0-.413-.168.577.577 0 0 0-.413.168 1.116 1.116 0 0 0-.273.49 2.98 2.98 0 0 0-.091.798c0 .327.03.602.091.826.065.22.156.387.273.504a.577.577 0 0 0 .413.168ZM12.06 13V8.436h1.056l.96 2.268.391 1.008h.028a29.25 29.25 0 0 0-.09-.812 6.83 6.83 0 0 1-.057-.847V8.436h.987V13h-1.057l-.959-2.275-.392-.994H12.9c.024.247.054.518.091.812.038.29.056.57.056.84V13h-.987Z"/></svg>