<svg xmlns="http://www.w3.org/2000/svg" width="16" height="16" fill="none" viewBox="0 0 16 16"><path fill="currentColor" fill-rule="evenodd" d="M1.5 0H1v6.5h1V1h7v5h5v.5h1V5.293l-.146-.147-5-5L9.707 0H1.5ZM10 5V1.707L13.293 5H10Zm-8 9.5V14H1v2h14v-2h-1v1H2v-.5Zm.5-1.5L.926 7.784h1.248l.624 2.432c.08.288.149.568.208.84.064.267.133.544.208.832h.032c.085-.288.157-.565.216-.832.064-.272.133-.552.208-.84l.616-2.432h1.2L3.917 13H2.5Zm3.662 0V7.784h1.44c.506 0 .946.09 1.32.272.378.181.672.464.88.848.208.379.312.867.312 1.464s-.104 1.09-.312 1.48a1.99 1.99 0 0 1-.856.872c-.368.187-.792.28-1.272.28H6.162Zm1.184-.952h.192c.277 0 .517-.053.72-.16.202-.107.36-.283.472-.528.117-.245.176-.576.176-.992 0-.416-.06-.741-.176-.976a.994.994 0 0 0-.472-.504 1.593 1.593 0 0 0-.72-.152h-.192v3.312Zm3.58-4.264V13h1.128v-1.848c0-.31-.02-.63-.064-.96a29.423 29.423 0 0 1-.104-.928h.032l.448 1.136 1.096 2.6h1.208V7.784h-1.128v1.848c0 .304.022.627.064.968.043.341.078.65.104.928h-.032l-.448-1.152-1.096-2.592h-1.208Z" clip-rule="evenodd"/></svg>