<svg width="55" height="36" fill="none" xmlns="http://www.w3.org/2000/svg"><path d="M16.541.099c-4.451.322-8.97 2.575-11.955 5.96-1.568 1.779-2.904 4.076-3.612 6.212a18.06 18.06 0 0 0 3.612 17.695c2.522 2.86 6.096 4.901 9.989 5.704l1.054.217h23.742l1.054-.217c4.631-.955 8.548-3.505 11.296-7.352.773-1.081 1.892-3.302 2.322-4.605a18.419 18.419 0 0 0 0-11.402c-.43-1.302-1.549-3.523-2.322-4.604-1.795-2.514-3.948-4.373-6.629-5.723C42.879.869 40.717.271 38.261.093c-1.504-.108-20.209-.103-21.72.006m2.23 10.035.204.143v6.488l-.204.142c-.165.116-.5.143-1.767.143-2.1 0-1.971.109-1.971-1.655v-1.37h-1.308c-1.037 0-1.352-.03-1.513-.143-.241-.169-.263-.464-.052-.698.134-.148.311-.167 1.513-.167h1.36v-1.37c0-1.764-.129-1.655 1.971-1.655 1.267 0 1.602.027 1.767.142m-2.729 3.387v2.521H17.967V11H16.042v2.521m11.739-.409c.218.116.238.565.033.769-.125.125-.553.144-3.3.144-3.033 0-3.163-.007-3.339-.183-.223-.223-.233-.435-.032-.658.142-.156.367-.167 3.306-.167 1.999 0 3.22.034 3.332.095m12.552 3.984v3.987h1.834V22h-5.042v-.917h2.017v-6.6h-1.65v-.365c0-.323.028-.371.252-.42.409-.091 1.341-.402 1.489-.498.076-.049.354-.089.619-.09l.481-.002v3.988m-15.476 2.122c.148.134.168.31.168 1.467V22h1.263c.995 0 1.306.03 1.467.143.261.183.277.636.026.77-.098.053-.753.095-1.467.095h-1.289v1.329c0 1.803.127 1.696-2.017 1.696-1.527 0-1.663-.013-1.833-.183-.176-.176-.183-.306-.183-3.306 0-1.977.034-3.188.095-3.3.088-.166.208-.177 1.849-.177 1.503 0 1.778.021 1.921.151M22 22.504v2.521h2.017v-5.042H22v2.521m-3.229-.361a.474.474 0 0 1 .06.721c-.125.126-.555.144-3.316.144-2.822 0-3.19-.016-3.339-.151-.228-.207-.211-.541.036-.714.175-.123.644-.143 3.28-.143 2.635 0 3.105.02 3.279.143" fill="#0A8276" fill-rule="evenodd"/></svg>