<svg xmlns="http://www.w3.org/2000/svg" width="16" height="16" fill="none"><path d="M.36.023a.572.572 0 0 0-.281.211L.013.329.006 1.958C.001 3.161.007 3.607.03 3.666a.65.65 0 0 0 .11.165c.044.046 1.38.951 2.97 2.011L6 7.769v3.916c0 4.297-.011 4.008.163 4.173.151.143.334.18.513.105.121-.05 3.05-2.003 3.159-2.106.175-.164.165.025.165-3.176V7.769l2.89-1.927c1.59-1.06 2.926-1.965 2.97-2.011a.65.65 0 0 0 .11-.165c.023-.059.029-.506.024-1.711C15.987.354 15.986.323 15.932.25a1.202 1.202 0 0 0-.156-.155l-.101-.082L8.044.009C3.847.007.389.013.36.023m14.627 2.106v1.116l-2.859 1.904A216.457 216.457 0 0 0 9.18 7.131c-.194.168-.179-.086-.187 3.178l-.008 2.937-.985.656-.986.657-.007-3.593c-.008-3.997.008-3.666-.187-3.835-.049-.043-1.376-.935-2.948-1.982L1.013 3.245V1.013h13.974v1.116" fill-rule="evenodd" fill="#000"/></svg>