<svg width="51" height="36" viewBox="0 0 51 36" fill="none" xmlns="http://www.w3.org/2000/svg">
<rect x="0.5" y="0.5" width="50" height="35" rx="17.5" fill="white"/>
<path d="M22.5 22.5H25.5" stroke="#1D1D1D" stroke-linecap="round" stroke-linejoin="round"/>
<path d="M10.5 13.5H13.5" stroke="#1D1D1D" stroke-linecap="round" stroke-linejoin="round"/>
<path d="M19.5 13.5H25.5" stroke="#1D1D1D" stroke-linecap="round" stroke-linejoin="round"/>
<path d="M16.5 10.5H13.5V16.5H16.5V10.5Z" stroke="#1D1D1D" stroke-linecap="round" stroke-linejoin="round"/>
<path d="M22.5 19.5H19.5V25.5H22.5V19.5Z" stroke="#1D1D1D" stroke-linecap="round" stroke-linejoin="round"/>
<path d="M10.5 22.5H16.5" stroke="#1D1D1D" stroke-linecap="round" stroke-linejoin="round"/>
<path d="M37.5065 22.168C36.6105 22.168 35.9058 21.7667 35.3925 20.964C34.8885 20.152 34.6365 18.9993 34.6365 17.506C34.6365 16.0033 34.8885 14.86 35.3925 14.076C35.9058 13.292 36.6105 12.9 37.5065 12.9C38.3932 12.9 39.0885 13.2967 39.5925 14.09C40.1058 14.874 40.3625 16.0127 40.3625 17.506C40.3625 18.9993 40.1058 20.152 39.5925 20.964C39.0885 21.7667 38.3932 22.168 37.5065 22.168ZM37.5065 21.244C37.8518 21.244 38.1552 21.1133 38.4165 20.852C38.6778 20.5907 38.8785 20.1847 39.0185 19.634C39.1678 19.0833 39.2425 18.374 39.2425 17.506C39.2425 16.6287 39.1678 15.9193 39.0185 15.378C38.8785 14.8367 38.6778 14.4447 38.4165 14.202C38.1552 13.95 37.8518 13.824 37.5065 13.824C37.1518 13.824 36.8438 13.95 36.5825 14.202C36.3212 14.4447 36.1158 14.8367 35.9665 15.378C35.8265 15.9193 35.7565 16.6287 35.7565 17.506C35.7565 18.374 35.8265 19.0833 35.9665 19.634C36.1158 20.1847 36.3212 20.5907 36.5825 20.852C36.8438 21.1133 37.1518 21.244 37.5065 21.244Z" fill="#1D1D1D"/>
<rect x="0.5" y="0.5" width="50" height="35" rx="17.5" stroke="#BFBBBB"/>
</svg>
