<svg xmlns="http://www.w3.org/2000/svg" width="24" height="24" fill="none"><path d="M2.252 2.078C2 2.232 2 2.229 2 4c0 1.341.01 1.623.059 1.719.033.063 1.833 1.667 4 3.563L10 12.73v4.945c0 4.834.002 4.948.078 5.073a.482.482 0 0 0 .653.187c.069-.036.798-.514 1.619-1.062 1.05-.7 1.516-1.033 1.571-1.124.077-.126.079-.223.079-4.076v-3.948l3.951-3.457c2.173-1.902 3.973-3.506 4-3.565.036-.078.049-.534.049-1.707 0-1.766 0-1.764-.252-1.918C21.622 2.002 21.471 2 12 2s-9.622.002-9.748.078M21 4.137v1.138l-3.951 3.457c-2.173 1.902-3.973 3.506-4 3.565-.038.082-.049 1.031-.049 4.025v3.918l-.99.66-.99.66-.02-4.61c-.011-2.535-.036-4.642-.055-4.682-.019-.039-1.815-1.629-3.99-3.532L3 5.275V3h18v1.137" fill-rule="evenodd" fill="#000"/></svg>