<svg width="55" height="36" viewBox="0 0 55 36" fill="none" xmlns="http://www.w3.org/2000/svg">
<path d="M0.5 18C0.5 8.33502 8.33502 0.5 18 0.5H37C46.665 0.5 54.5 8.33502 54.5 18C54.5 27.665 46.665 35.5 37 35.5H18C8.33502 35.5 0.5 27.665 0.5 18Z" fill="#0A8276"/>
<path d="M0.5 18C0.5 8.33502 8.33502 0.5 18 0.5H37C46.665 0.5 54.5 8.33502 54.5 18C54.5 27.665 46.665 35.5 37 35.5H18C8.33502 35.5 0.5 27.665 0.5 18Z" stroke="#0A8276"/>
<path d="M24.5 22.5H27.5" stroke="white" stroke-linecap="round" stroke-linejoin="round"/>
<path d="M12.5 13.5H15.5" stroke="white" stroke-linecap="round" stroke-linejoin="round"/>
<path d="M21.5 13.5H27.5" stroke="white" stroke-linecap="round" stroke-linejoin="round"/>
<path d="M18.5 10.5H15.5V16.5H18.5V10.5Z" stroke="white" stroke-linecap="round" stroke-linejoin="round"/>
<path d="M24.5 19.5H21.5V25.5H24.5V19.5Z" stroke="white" stroke-linecap="round" stroke-linejoin="round"/>
<path d="M12.5 22.5H18.5" stroke="white" stroke-linecap="round" stroke-linejoin="round"/>
<path d="M37.1265 22V21.048H39.1705V14.468H37.5465V13.726C38.3585 13.586 38.9465 13.362 39.4365 13.068H40.3185V21.048H42.1665V22H37.1265Z" fill="white"/>
</svg>
