<svg width="51" height="36" fill="none" xmlns="http://www.w3.org/2000/svg"><path d="M13.146 10.185c-.119.131-.141.368-.141 1.488v1.332h-1.299c-1.458 0-1.676.066-1.676.51s.218.51 1.676.51h1.299v1.347c0 1.197.017 1.362.155 1.487.134.121.394.141 1.866.141 1.67 0 1.712-.004 1.842-.189.114-.163.132-.621.132-3.296s-.018-3.133-.132-3.296c-.13-.185-.171-.189-1.857-.189-1.563 0-1.738.015-1.865.155m2.834 3.33v2.55h-1.955v-5.1h1.955v2.55m20.728-.467c-.805.259-1.504 1.124-1.828 2.263-.203.714-.253 3.084-.084 3.984.275 1.462 1.014 2.489 1.995 2.775 1.604.466 2.931-.569 3.394-2.647.207-.928.178-3.123-.053-3.981-.305-1.135-.831-1.904-1.554-2.273-.454-.232-1.347-.289-1.87-.121m-17.479.089a.471.471 0 0 0 0 .756c.163.114.623.132 3.315.132 3.013 0 3.132-.006 3.296-.17.221-.221.216-.461-.016-.677-.18-.168-.284-.173-3.296-.173-2.677 0-3.136.018-3.299.132m18.943.911c.579.391.856 1.04 1.023 2.394.18 1.465-.088 3.426-.567 4.151-.323.487-.672.673-1.193.635-1.195-.088-1.705-1.356-1.629-4.046.043-1.549.19-2.223.602-2.764.432-.565 1.226-.732 1.764-.37m-18.998 5.126c-.117.116-.134.539-.134 3.351s.017 3.235.134 3.351c.199.199 3.443.199 3.642 0 .111-.11.134-.37.134-1.487v-1.354h1.36c1.247 0 1.374-.014 1.53-.17.221-.221.216-.461-.016-.677-.171-.159-.295-.173-1.53-.173H22.95v-1.354c0-1.117-.023-1.377-.134-1.487-.199-.199-3.443-.199-3.642 0m2.799 3.351v2.508h-1.955l-.023-2.422c-.013-1.332-.004-2.471.02-2.531.031-.084.276-.105 1-.087l.958.025v2.507m-11.754-.378a.45.45 0 0 0-.189.378c0 .502.052.51 3.504.51 3.013 0 3.132-.006 3.296-.17.094-.094.17-.246.17-.34 0-.094-.076-.246-.17-.34-.164-.164-.283-.17-3.296-.17-2.692 0-3.152.018-3.315.132" fill-rule="evenodd" fill="#000"/></svg>