<svg xmlns="http://www.w3.org/2000/svg" width="16" height="16" fill="currentColor" viewBox="0 0 16 16">
  <path d="M15 5.293V16H1V0h8.707L15 5.293ZM2 15h12V6H9V1H2v14Zm9-4.5a1.5 1.5 0 0 1 1.5 1.5v1.5h-6V12A1.5 1.5 0 0 1 8 10.5h3Zm-3 1a.5.5 0 0 0-.5.5v.5h4V12a.5.5 0 0 0-.5-.5H8ZM9.5 7a1.5 1.5 0 1 1 0 3 1.5 1.5 0 0 1 0-3Zm0 1a.5.5 0 1 0 0 1 .5.5 0 0 0 0-1ZM5.598 2.816c.298 0 .557.064.775.192.219.122.393.285.52.488l-.488.424a1.055 1.055 0 0 0-.336-.288.904.904 0 0 0-.423-.096.896.896 0 0 0-.625.232c-.17.149-.301.368-.392.656a2.59 2.59 0 0 0-.06.248h1.869v.544H4.506a5.024 5.024 0 0 0 .002.48h1.608v.544h-1.54c.017.084.037.163.06.24.091.287.222.509.392.664.171.154.377.232.617.232.175 0 .33-.04.463-.12.134-.08.25-.197.352-.352l.488.344a1.63 1.63 0 0 1-.544.624c-.229.15-.496.224-.8.224-.394 0-.747-.101-1.056-.304-.304-.208-.544-.507-.72-.896a2.886 2.886 0 0 1-.192-.656h-.512v-.496l.453-.039a5.19 5.19 0 0 1 .002-.49h-.455V4.72l.52-.044c.043-.228.107-.438.192-.628.181-.4.424-.704.728-.912.304-.213.649-.32 1.033-.32ZM10 5h3.293L10 1.707V5Z"/>
</svg>
