<svg xmlns="http://www.w3.org/2000/svg" width="16" height="16" fill="currentColor"><path fill="currentColor" d="M9.694 0H1v16h13V4.378L9.694 0Zm.2 1.187 2.938 2.987H9.895V1.187Zm3.422 14.117H1.684V.696h7.527V4.87h4.105v10.434Zm-2.576-4.869H8.705c-.852 0-1.547.706-1.547 1.576v2.25h5.131v-2.25c0-.87-.694-1.576-1.55-1.576Zm-2.035.696h2.035c.479 0 .865.393.865.88v1.554H7.84v-1.554c0-.487.39-.88.866-.88ZM9.74 6.609c-.94 0-1.71.779-1.71 1.739 0 .956.77 1.739 1.71 1.739.944 0 1.71-.783 1.71-1.74 0-.96-.766-1.738-1.71-1.738Zm0 2.779a1.032 1.032 0 0 1-1.023-1.04c0-.574.459-1.044 1.023-1.044.568 0 1.026.47 1.026 1.044 0 .574-.458 1.04-1.026 1.04Zm-7.03 1.047h3.42v.695h-3.42v-.695Zm0 1.391h2.736v.696H2.711v-.696Zm3.165-9.739c.304 0 .553.063.762.192l.292.182.357-.594-.293-.181c-.319-.198-.684-.295-1.118-.295-1.093 0-1.953.69-2.296 1.74H2.407v.695h1.03c-.011.114-.018.23-.018.348 0 .119.007.234.018.348H2.368v.695H3.58c.343 1.05 1.203 1.74 2.296 1.74.361 0 .74-.098 1.095-.282l.305-.158-.31-.62-.306.158c-.259.135-.53.206-.784.206-.712 0-1.277-.4-1.565-1.044h1.44v-.695H4.125a2.865 2.865 0 0 1-.022-.348c0-.12.008-.236.022-.348H5.79V3.13H4.311c.288-.643.853-1.043 1.565-1.043Z"/></svg>