<svg xmlns="http://www.w3.org/2000/svg" width="16" height="16" fill="currentColor">
  <path fill-rule="evenodd" d="m7.978 0 6.478 2.16v7.335c0 2.258-1.686 3.883-3.212 4.9a14.534 14.534 0 0 1-2.947 1.495l-.085.03-.022.009-.033.011-.014.005-.165.055-.158-.053-.021-.007a13.985 13.985 0 0 1-.957-.384 14.534 14.534 0 0 1-2.13-1.162C3.187 13.378 1.5 11.753 1.5 9.494V2.16L7.978 0Zm0 1.05L2.497 2.879v6.617c0 1.729 1.303 3.094 2.768 4.07a13.554 13.554 0 0 0 2.713 1.38l.08-.03a13.552 13.552 0 0 0 2.634-1.35c1.464-.976 2.768-2.341 2.768-4.07V2.878L7.978 1.05Zm.79 1.05L8.49 3.489c-.24 1.198-.234 2.128-.064 2.922.1.462.256.89.464 1.307a17.81 17.81 0 0 1 .663-1.55L10 5.272l.447.894.055.11c.471.941.998 1.992.998 3.114a3.5 3.5 0 0 1-7 0v-.097c.008-.758.16-3.77 3.18-6.287L8.768 2.1ZM7.317 4.755C5.5 6.845 5.5 8.99 5.5 9.387a2.5 2.5 0 1 0 5 .004c0-.594-.196-1.18-.48-1.813a25.437 25.437 0 0 0-.524 1.408l-.02.06-.325.973-.567-.85c-.522-.784-.93-1.593-1.135-2.548a6.979 6.979 0 0 1-.132-1.866Z" clip-rule="evenodd"/>
</svg>
