<svg xmlns="http://www.w3.org/2000/svg" width="16" height="16" fill="none"><path d="M2.36.023a.576.576 0 0 0-.281.211l-.066.095-.007 7.602c-.004 4.181-.001 7.642.008 7.691.019.107.181.293.298.342a.524.524 0 0 0 .573-.146.59.59 0 0 0 .099-.219c.02-.092.029-.997.029-2.867V10h5.295c4.443 0 5.307-.006 5.38-.037A.538.538 0 0 0 14 9.471c0-.056-.318-.72-.97-2.024l-.97-1.94.97-1.941c1.04-2.08 1.021-2.033.929-2.253a.426.426 0 0 0-.231-.249c-.096-.049-.251-.051-5.407-.051H3.013V.775c0-.436-.078-.622-.305-.725A.515.515 0 0 0 2.36.023m9.491 3.664c-.768 1.538-.843 1.698-.843 1.82 0 .121.074.28.83 1.793.456.914.829 1.673.829 1.687 0 .017-1.684.026-4.827.026H3.013V2h9.68l-.842 1.687" fill-rule="evenodd" fill="#000"/></svg>