<svg xmlns="http://www.w3.org/2000/svg" width="24" height="24" fill="none"><path d="M3.252 1.078C2.978 1.246 3 .227 3 12.508c0 10.95.001 11.114.078 11.24.2.328.644.328.844 0 .076-.125.078-.23.078-3.938V16h8.81c8.667 0 8.812-.002 8.938-.078a.546.546 0 0 0 .254-.43c.001-.07-.55-1.218-1.465-3.052l-1.466-2.941 1.464-2.93C21.493 4.653 22 3.596 22 3.517a.537.537 0 0 0-.252-.439C21.622 3.002 21.477 3 12.81 3H4v-.81c0-.733-.008-.822-.078-.938a.478.478 0 0 0-.67-.174M19.34 6.681C18.358 8.646 18 9.399 18 9.5c0 .101.358.854 1.34 2.819L20.68 15H4V4h16.68l-1.34 2.681" fill-rule="evenodd" fill="#000"/></svg>