<svg xmlns="http://www.w3.org/2000/svg" width="16" height="16" fill="none"><path d="M2.538 1.054c-.621.135-1.226.68-1.426 1.286a2.735 2.735 0 0 0-.098.451c-.037.323-.037 10.095 0 10.418.056.485.247.876.593 1.215.34.333.708.507 1.184.562.323.037 10.095.037 10.418 0a1.938 1.938 0 0 0 1.215-.593c.34-.348.511-.715.564-1.212.018-.172.025-1.553.02-4.034-.008-3.612-.01-3.778-.057-3.867-.078-.147-4.118-4.176-4.237-4.226-.088-.036-.552-.04-4.053-.039-3.243.002-3.985.009-4.123.039m9.603 2.807 1.86 1.86-.007 3.76-.007 3.759-.075.16a1.13 1.13 0 0 1-.509.511l-.163.076H2.76l-.163-.076a1.13 1.13 0 0 1-.509-.511l-.075-.16V2.76l.075-.16c.132-.283.416-.517.695-.572.061-.012 1.772-.023 3.804-.025L10.28 2l1.861 1.861M8.993 5.5 9 7l.5.007.5.008V4H8.986l.007 1.5M4.28 9.055a.445.445 0 0 0-.23.238c-.046.1-.049.218-.049 1.914L4 13.015l.5-.008L5 13l.007-1.5.007-1.5h5.972l.007 1.5L11 13l.5.007.5.008v-1.802c0-1.561-.005-1.814-.041-1.9a.426.426 0 0 0-.231-.249c-.096-.049-.22-.051-3.734-.051-3.243.001-3.643.005-3.714.042" fill-rule="evenodd" fill="#000"/></svg>