<svg xmlns="http://www.w3.org/2000/svg" width="24" height="24" fill="none"><path d="M7.642 2.044c-.347.068-.756.299-1.038.588C6.133 3.113 6 3.504 6 4.408V5h.993l.014-.61c.013-.535.025-.63.102-.775a1.26 1.26 0 0 1 .506-.507l.165-.088 4.759-.011 4.759-.01 1.852 1.85L21.001 6.7l-.01 4.76-.011 4.76-.088.165a1.26 1.26 0 0 1-.507.506c-.145.077-.24.089-.775.102l-.61.014V18h.592c.916 0 1.302-.134 1.788-.62.301-.301.46-.573.559-.958.089-.349.093-9.966.004-10.134-.07-.13-4.126-4.181-4.25-4.244-.107-.054-9.775-.054-10.051 0M16 6v1h1V5h-1v1m-12.358.044a2.613 2.613 0 0 0-.476.176c-.358.17-.769.566-.935.901C1.987 7.613 2 7.237 2 14s-.013 6.386.231 6.88c.141.286.603.748.889.889.494.244.117.231 6.88.231s6.386.013 6.88-.231c.286-.141.748-.603.889-.889.241-.488.231-.243.231-5.59 0-4.175-.008-4.91-.057-5.002-.07-.13-4.126-4.181-4.25-4.244-.107-.054-9.775-.054-10.051 0m11.509 2.807 1.851 1.851-.011 4.759-.011 4.759-.088.165a1.262 1.262 0 0 1-.507.507l-.165.088H3.78l-.165-.088a1.262 1.262 0 0 1-.507-.507l-.088-.165-.011-6.134c-.006-3.996.004-6.185.03-6.282.056-.206.251-.486.418-.598.314-.211.099-.202 5.143-.204L13.3 7l1.851 1.851M12 10.5V12h1V9h-1v1.5m-6.748 3.578c-.26.159-.252.08-.252 2.62V19h1v-4h8v4h1v-2.31c0-2.221-.003-2.315-.078-2.438-.164-.269.162-.252-4.93-.252-4.504 0-4.615.002-4.74.078" fill-rule="evenodd" fill="#000"/></svg>