<svg xmlns="http://www.w3.org/2000/svg" width="16" height="16" fill="none"><path d="M4 1.507V2h6.787l1.606 1.607L14 5.213V12h1.013V8.521c0-2.417-.009-3.521-.029-3.62l-.029-.141-1.831-1.836c-1.059-1.063-1.867-1.852-1.916-1.873-.073-.032-.656-.038-3.647-.038H4v.494m-1.755 1.56c-.569.15-1.035.626-1.198 1.226C1.003 4.456 1 4.749 1 9c0 4.251.003 4.544.047 4.707a1.763 1.763 0 0 0 1.246 1.246c.163.044.456.047 4.707.047 4.251 0 4.544-.003 4.707-.047a1.773 1.773 0 0 0 1.245-1.233c.043-.148.047-.409.055-3.411.006-2.325 0-3.294-.022-3.4l-.03-.149-1.831-1.836c-1.059-1.062-1.867-1.852-1.916-1.873-.073-.032-.622-.037-3.427-.036-3.203.001-3.349.003-3.536.052m8.149 2.54 1.607 1.607-.007 3.133-.007 3.133-.079.142a.72.72 0 0 1-.389.338c-.17.06-8.868.06-9.038 0a.72.72 0 0 1-.389-.338l-.079-.142V4.52l.083-.147a.793.793 0 0 1 .42-.344c.048-.014 1.41-.025 3.177-.027L8.787 4l1.607 1.607M6.987 7v1H8V6H6.987v1m-3.721 3.021a.654.654 0 0 0-.246.294c-.011.04-.02.66-.02 1.378V13l.5.007.5.008v-2.064l.684.018c.377.01 1.499.018 2.493.018h1.809l.007 1.006L9 13l.5.007.5.008v-1.309c0-1.038-.007-1.325-.036-1.394a.71.71 0 0 0-.297-.285c-.033-.013-1.468-.031-3.19-.041-3.07-.017-3.132-.016-3.211.035" fill-rule="evenodd" fill="#000"/></svg>