<svg xmlns="http://www.w3.org/2000/svg" width="24" height="24" fill="none"><path d="M3.96 2.062a2.885 2.885 0 0 0-1.128.577c-.3.268-.593.713-.714 1.083l-.098.298v16l.111.3c.265.72.826 1.282 1.549 1.549l.3.111h16.04l.3-.111a2.604 2.604 0 0 0 1.549-1.549l.111-.3.011-6.28c.006-3.454.001-6.325-.012-6.38-.027-.112-5.088-5.208-5.267-5.303-.159-.084-12.358-.08-12.752.005m14.691 3.289 2.351 2.351-.011 6.079-.011 6.079-.112.24a1.698 1.698 0 0 1-.764.767l-.244.113H4.14l-.244-.113a1.698 1.698 0 0 1-.764-.767l-.112-.24V4.14l.112-.24c.198-.425.624-.776 1.042-.858.091-.018 2.857-.035 6.146-.038L16.3 3l2.351 2.351M14 7.5V9h1V6h-1v1.5m-7.748 4.578c-.265.162-.252-.025-.252 3.62V19h1v-6h10v6h1v-3.302c0-3.645.013-3.458-.252-3.62C17.623 12.002 17.504 12 12 12c-5.504 0-5.623.002-5.748.078" fill-rule="evenodd" fill="#000"/></svg>