<svg xmlns="http://www.w3.org/2000/svg" width="24" height="24" fill="none" viewBox="0 0 24 24"><path stroke="currentColor" stroke-linecap="square" stroke-linejoin="round" d="M5.5 18.5v-4h9v4"/><path stroke="currentColor" stroke-linecap="round" stroke-linejoin="round" d="M15.921 21.5H4.08A1.579 1.579 0 0 1 2.5 19.921V8.08A1.579 1.579 0 0 1 4.079 6.5H13.5l4 4v9.421a1.579 1.579 0 0 1-1.579 1.579Z"/><path stroke="currentColor" stroke-linecap="square" stroke-linejoin="round" d="M12.5 9.5v2M6.5 4.5v-.421A1.579 1.579 0 0 1 8.079 2.5H17.5l4 4v9.421a1.579 1.579 0 0 1-1.579 1.579H19.5M16.5 5.5v1"/></svg>