<svg xmlns="http://www.w3.org/2000/svg" width="16" height="16" fill="none" viewBox="0 0 16 16"><path fill="currentColor" fill-rule="evenodd" d="M.5 0a.5.5 0 0 0-.5.5v11A2.5 2.5 0 0 0 2.5 14h3a.5.5 0 0 0 0-1h-3A1.5 1.5 0 0 1 1 11.5V1h4.232l1.852 2.777A.5.5 0 0 0 7.5 4H15v2.5a.5.5 0 0 0 1 0v-3a.5.5 0 0 0-.5-.5H7.768L5.916.223A.5.5 0 0 0 5.5 0h-5ZM8 11.5a3.5 3.5 0 1 1 7 0 3.5 3.5 0 0 1-7 0ZM11.5 7a4.5 4.5 0 1 0 0 9 4.5 4.5 0 0 0 0-9Zm1.768 2.732a.5.5 0 0 1 0 .707l-1.06 1.061 1.06 1.06a.5.5 0 1 1-.707.708l-1.061-1.06-1.06 1.06a.5.5 0 0 1-.708-.707l1.06-1.061-1.06-1.06a.5.5 0 1 1 .707-.708l1.061 1.06 1.06-1.06a.5.5 0 0 1 .708 0Z" clip-rule="evenodd"/></svg>