<svg xmlns="http://www.w3.org/2000/svg" width="24" height="24" fill="none"><path d="M1.252 2.078c-.275.168-.254-.668-.242 9.631l.01 9.311.111.3c.265.72.826 1.282 1.549 1.549l.3.111h19.04l.3-.111a2.604 2.604 0 0 0 1.549-1.549l.111-.3.011-7.311c.011-8.086.031-7.463-.243-7.631-.125-.076-.245-.078-5.568-.08l-5.44-.001-1.44-1.925c-.835-1.117-1.49-1.956-1.56-1.998C9.626 2.004 9.426 2 5.5 2c-4.016 0-4.123.002-4.248.078m9.448 2.85c.835 1.117 1.49 1.956 1.56 1.998.115.071.349.074 5.431.074h5.31l-.01 6.93-.011 6.93-.112.24a1.698 1.698 0 0 1-.764.767l-.244.113H3.14l-.244-.113a1.698 1.698 0 0 1-.764-.767l-.112-.24-.011-8.93L1.999 3l3.63.002 3.631.001 1.44 1.925" fill-rule="evenodd" fill="#000"/></svg>