<svg xmlns="http://www.w3.org/2000/svg" width="24" height="24" fill="none"><path d="M1.252 2.078C.978 2.245 1 1.43 1 11.592c0 9.021.001 9.201.079 9.504a2.478 2.478 0 0 0 1.283 1.619c.62.305-.155.284 10.138.284 7.96 0 9.279-.009 9.52-.059a2.502 2.502 0 0 0 1.695-1.302c.303-.614.284-.074.284-8.07.001-7.923.021-7.324-.251-7.49-.125-.076-.245-.078-5.568-.08l-5.44-.001-1.44-1.925c-.835-1.117-1.49-1.956-1.56-1.998C9.626 2.004 9.426 2 5.5 2c-4.016 0-4.123.002-4.248.078m9.448 2.85c.835 1.117 1.49 1.956 1.56 1.998.115.071.349.074 5.431.074h5.31l-.01 6.93-.011 6.93-.112.24a1.698 1.698 0 0 1-.764.767l-.244.113H3.14l-.244-.113a1.698 1.698 0 0 1-.764-.767l-.112-.24-.01-8.93L1.999 3l3.631.002 3.63.001 1.44 1.925m-1.448 9.15a.478.478 0 0 0-.174.67c.161.264-.005.252 3.43.252 3.016 0 3.116-.003 3.24-.078a.485.485 0 0 0 0-.844c-.124-.075-.224-.078-3.248-.078s-3.124.003-3.248.078" fill="currentColor" fill-rule="evenodd"/></svg>