<svg xmlns="http://www.w3.org/2000/svg" width="24" height="24" fill="none"><path d="M1.252 2.078C.979 2.245 1 1.545 1 10.508c0 7.975.002 8.114.078 8.24.2.328.644.328.844 0 .076-.126.078-.263.078-7.938V3h6.227l.947 1.421c.666.999.986 1.444 1.077 1.5.126.077.223.079 4.749.079 4.512 0 4.623-.002 4.748-.078a.485.485 0 0 0 0-.844C19.623 5.002 19.513 5 15.197 5h-4.424l-.947-1.421c-.666-.999-.986-1.444-1.077-1.5C8.623 2.002 8.531 2 5 2c-3.52 0-3.624.002-3.748.078M6.249 9.08a.578.578 0 0 0-.19.21c-.033.071-.736 3.064-1.563 6.65C3.44 20.52 3 22.5 3.015 22.595a.494.494 0 0 0 .093.214c.183.202-.332.191 8.9.191 8.526 0 8.613-.001 8.743-.08a.578.578 0 0 0 .19-.21C21.006 22.569 24 9.621 24 9.481c0-.137-.114-.318-.252-.403C23.622 9.002 23.479 9 15 9c-8.534 0-8.621.001-8.751.08m16.489 1.49-1.385 6L20.1 22H4.131l.131-.57 1.385-6L6.9 10H22.869l-.131.57" fill="currentColor" fill-rule="evenodd"/></svg>