<svg xmlns="http://www.w3.org/2000/svg" width="16" height="16" fill="none"><path d="M.307.051a.52.52 0 0 0-.281.297C-.01.476-.009 11.525.027 11.657a.542.542 0 0 0 .386.331.497.497 0 0 0 .571-.388c.021-.096.029-1.675.029-5.361V1.013h3.188l.426.858c.234.472.461.899.504.948.168.196-.131.18 3.556.188L12 3.014l.001.793c0 .888.01.944.19 1.081.087.066.29.131.352.112a2.37 2.37 0 0 1 .103-.025c.091-.02.248-.156.309-.266.04-.073.046-.204.053-1.119.005-.676-.002-1.084-.021-1.172a.503.503 0 0 0-.277-.367c-.106-.048-.247-.05-3.503-.05L5.813 2l-.429-.86c-.236-.473-.46-.9-.497-.95A.542.542 0 0 0 4.71.051c-.104-.047-.216-.05-2.203-.05-1.982 0-2.099.003-2.2.05m4 6a.648.648 0 0 0-.178.126c-.053.057-.463 1.121-1.596 4.143-1.611 4.296-1.58 4.205-1.484 4.391a.665.665 0 0 0 .305.269c.04.011 2.593.02 5.673.02 5.219 0 5.605-.003 5.682-.045.2-.11.168-.03 1.766-4.293C15.451 8.059 16 6.56 16 6.499a.489.489 0 0 0-.307-.448c-.102-.048-.311-.05-5.693-.05s-5.591.002-5.693.05M14.71 7.18a4022.1 4022.1 0 0 1-1.309 3.493L12.153 14H2.22l1.31-3.493 1.31-3.494h9.933l-.063.167" fill="currentColor" fill-rule="evenodd"/></svg>