<svg xmlns="http://www.w3.org/2000/svg" width="16" height="16" fill="none"><path d="M.28 1.055a.445.445 0 0 0-.23.238c-.047.103-.049.339-.049 6.008C0 13.73-.008 13.385.145 13.762c.232.57.772 1.032 1.396 1.192.167.043.591.046 6.459.046 5.868 0 6.292-.003 6.459-.046.624-.161 1.164-.622 1.396-1.193.152-.375.147-.18.139-5.006-.007-4.43-.007-4.431-.062-4.505a1.202 1.202 0 0 0-.156-.155l-.101-.082L11.718 4 7.76 3.987 6.807 2.56c-.819-1.225-.969-1.435-1.06-1.486l-.107-.06H3c-2.342 0-2.649.004-2.72.041m5.867 2.311c.498.751.941 1.405.984 1.454.169.196-.187.179 4.049.187l3.807.007-.007 4.127-.007 4.126-.071.153c-.079.167-.281.387-.425.461-.236.123-.001.118-6.477.118s-6.241.005-6.477-.118c-.144-.074-.346-.294-.425-.461l-.071-.153-.007-5.634L1.013 2l2.113.001H5.24l.907 1.365" fill-rule="evenodd" fill="#000"/></svg>