<svg xmlns="http://www.w3.org/2000/svg" width="16" height="16" fill="none"><path d="M.307.05a.525.525 0 0 0-.281.298C.009.407 0 2.479 0 6.093c.001 5.407.003 5.664.05 5.894a2.509 2.509 0 0 0 1.963 1.963c.219.045.386.049 1.894.05 1.032 0 1.689-.01 1.75-.027a.542.542 0 0 0 .331-.386.48.48 0 0 0-.253-.519c-.095-.049-.188-.052-1.791-.06L2.253 13l-.208-.074a1.514 1.514 0 0 1-.857-.715c-.188-.356-.175.083-.175-5.843V1.013l2.114.001 2.113.001.96 1.433c.891 1.329.969 1.436 1.079 1.492l.119.06h7.586l.008 1.313c.007 1.177.013 1.322.053 1.396.061.11.218.246.309.266l.103.025c.062.019.265-.046.352-.112a.546.546 0 0 0 .14-.178c.047-.103.05-.205.05-1.704.001-1.375-.005-1.608-.04-1.693a.435.435 0 0 0-.212-.242c-.073-.04-.427-.046-4.027-.058L7.773 3l-.946-1.412C6.194.645 5.846.149 5.778.094L5.675.013 3.044.007C.528.001.409.003.307.05m10.518 7.003a4.51 4.51 0 0 0-1.838.721c-1.842 1.229-2.504 3.654-1.547 5.66a4.5 4.5 0 0 0 6.42 1.896 4.497 4.497 0 0 0 2.132-3.997c-.081-2.077-1.536-3.798-3.587-4.242-.338-.073-1.233-.095-1.58-.038m1.442 1.037c.673.155 1.207.45 1.695.936.532.53.866 1.175.986 1.903.066.4.043 1.036-.051 1.408-.25.993-.93 1.84-1.844 2.296a3.492 3.492 0 0 1-4.119-.759 3.47 3.47 0 0 1-.857-1.663 4.13 4.13 0 0 1-.015-1.363 3.523 3.523 0 0 1 2.991-2.82 4.378 4.378 0 0 1 1.214.062m-.974.954a.78.78 0 0 0-.249.249c-.038.069-.045.197-.052.9l-.009.82h-.813c-.657 0-.827.008-.887.039-.102.052-.239.213-.258.302a2.37 2.37 0 0 1-.025.103c-.019.062.046.265.112.352.137.18.193.19 1.081.19l.794.001v.732c0 .43.012.788.029.868.056.263.3.429.571.388a.542.542 0 0 0 .386-.331c.015-.055.027-.434.027-.877V12h.78c.443 0 .822-.012.877-.027a.542.542 0 0 0 .331-.386.481.481 0 0 0-.256-.521c-.096-.049-.16-.053-.918-.053H12v-.801c0-.841-.009-.916-.128-1.047-.12-.133-.437-.199-.579-.121" fill="currentColor" fill-rule="evenodd"/></svg>