<svg xmlns="http://www.w3.org/2000/svg" width="16" height="16" fill="none"><path d="M.307.051a.52.52 0 0 0-.281.297C.009.407 0 2.479 0 6.093c.001 5.407.003 5.664.05 5.894a2.509 2.509 0 0 0 1.963 1.963c.219.045.386.049 1.894.05 1.032 0 1.689-.01 1.75-.027a.542.542 0 0 0 .331-.386.48.48 0 0 0-.253-.519c-.095-.049-.188-.052-1.791-.06L2.253 13l-.208-.074a1.514 1.514 0 0 1-.857-.715c-.188-.356-.175.083-.175-5.843V1.013l2.114.001 2.113.001.96 1.433c.891 1.329.969 1.436 1.079 1.492l.119.06h7.586l.008 1.313c.007 1.177.013 1.322.053 1.396.061.11.218.246.309.266l.103.025c.062.019.265-.046.352-.112a.546.546 0 0 0 .14-.178c.047-.103.05-.205.05-1.704.001-1.375-.005-1.608-.04-1.693a.435.435 0 0 0-.212-.242c-.073-.04-.427-.046-4.027-.058L7.773 3 6.85 1.619A59.2 59.2 0 0 0 5.863.168a.638.638 0 0 0-.17-.118C5.592.004 5.459.001 3 .001.538.001.408.004.307.051m10.518 7.002a4.51 4.51 0 0 0-1.838.721c-1.842 1.229-2.504 3.654-1.547 5.66a4.5 4.5 0 0 0 6.42 1.896 4.497 4.497 0 0 0 2.132-3.997c-.081-2.077-1.536-3.798-3.587-4.242-.338-.073-1.233-.095-1.58-.038m1.442 1.037c.673.155 1.207.45 1.695.936.532.53.866 1.175.986 1.903.066.4.043 1.036-.051 1.408-.25.993-.93 1.84-1.844 2.296a3.492 3.492 0 0 1-4.119-.759 3.47 3.47 0 0 1-.857-1.663 4.13 4.13 0 0 1-.015-1.363 3.523 3.523 0 0 1 2.991-2.82 4.378 4.378 0 0 1 1.214.062m-2.974 2.954a.814.814 0 0 0-.233.222c-.13.241-.02.57.23.683.104.047.216.05 2.19.05 1.32.001 2.115-.009 2.177-.026a.542.542 0 0 0 .331-.386.481.481 0 0 0-.256-.521c-.1-.051-.165-.053-2.244-.052-1.51.001-2.157.01-2.195.03" fill="currentColor" fill-rule="evenodd"/></svg>