<svg xmlns="http://www.w3.org/2000/svg" width="24" height="24" fill="none"><path d="M1.252 2.078C.978 2.245 1 1.43 1 11.592c0 9.021.001 9.201.079 9.504a2.478 2.478 0 0 0 1.283 1.619c.62.305-.155.284 10.138.284 7.96 0 9.279-.009 9.52-.059a2.502 2.502 0 0 0 1.695-1.302c.303-.614.284-.074.284-8.07.001-7.923.021-7.324-.251-7.49-.125-.076-.245-.078-5.568-.08l-5.44-.001-1.44-1.925c-.835-1.117-1.49-1.956-1.56-1.998C9.626 2.004 9.426 2 5.5 2c-4.016 0-4.123.002-4.248.078m9.448 2.85c.835 1.117 1.49 1.956 1.56 1.998.115.071.349.074 5.431.074h5.31l-.01 6.93-.011 6.93-.112.24a1.698 1.698 0 0 1-.764.767l-.244.113H3.14l-.244-.113a1.698 1.698 0 0 1-.764-.767l-.112-.24-.01-8.93L1.999 3l3.631.002 3.63.001 1.44 1.925m1.552 6.15c-.247.151-.252.181-.252 1.62V14h-1.31c-1.229 0-1.318.005-1.438.078a.478.478 0 0 0-.174.67c.151.247.181.252 1.62.252H12v1.31c0 1.229.005 1.318.078 1.438.2.328.644.328.844 0 .073-.12.078-.209.078-1.438V15h1.302c1.439 0 1.469-.005 1.62-.252a.478.478 0 0 0-.174-.67c-.12-.073-.209-.078-1.438-.078H13v-1.31c0-1.229-.005-1.318-.078-1.438a.478.478 0 0 0-.67-.174" fill="currentColor" fill-rule="evenodd"/></svg>