<svg xmlns="http://www.w3.org/2000/svg" width="24" height="24" fill="none"><path d="M1.252 2.078C.978 2.245 1 1.43 1 11.592c0 9.021.001 9.201.079 9.504a2.478 2.478 0 0 0 1.283 1.619c.62.305-.155.284 10.138.284 7.96 0 9.279-.009 9.52-.059a2.502 2.502 0 0 0 1.695-1.302c.303-.614.284-.074.284-8.07.001-7.923.021-7.324-.251-7.49-.125-.076-.245-.078-5.568-.08l-5.44-.001-1.44-1.925c-.835-1.117-1.49-1.956-1.56-1.998C9.626 2.004 9.426 2 5.5 2c-4.016 0-4.123.002-4.248.078m9.448 2.85c.835 1.117 1.49 1.956 1.56 1.998.115.071.349.074 5.431.074h5.31l-.01 6.93-.011 6.93-.112.24a1.698 1.698 0 0 1-.764.767l-.244.113H3.14l-.244-.113a1.698 1.698 0 0 1-.764-.767l-.112-.24-.01-8.93L1.999 3l3.631.002 3.63.001 1.44 1.925m-1.016 6.695a.496.496 0 0 0-.161.507c.026.094.345.439 1.156 1.25l1.121 1.119-1.12 1.121c-.799.8-1.131 1.158-1.157 1.25a.497.497 0 0 0 .608.607c.091-.026.453-.361 1.249-1.157l1.121-1.12 1.119 1.121c.811.811 1.156 1.13 1.25 1.156a.498.498 0 0 0 .608-.606c-.027-.095-.343-.437-1.157-1.251L13.2 14.501l1.12-1.121c1.184-1.184 1.231-1.246 1.156-1.517-.06-.216-.241-.343-.487-.343h-.206l-1.142 1.139-1.141 1.14-1.142-1.14-1.141-1.139h-.205c-.163 0-.232.022-.328.103" fill="currentColor" fill-rule="evenodd"/></svg>