<svg xmlns="http://www.w3.org/2000/svg" width="24" height="24" fill="none"><path d="M10.96 2.062c-.659.141-1.345.658-1.652 1.246C9.077 3.752 9 4.113 9 4.762v.55l-.37-.095c-.586-.149-1.339-.232-1.854-.202-1.991.112-3.285 1.359-3.681 3.544-.12.665-.114 1.837.012 2.351l.022.09H1v11h22V11h-.94c-.517 0-.94-.011-.94-.024 0-.013.097-.189.215-.39.317-.541.412-.743.532-1.134.097-.316.108-.414.108-.952s-.011-.636-.108-.952a3.663 3.663 0 0 0-.492-1.038 2.05 2.05 0 0 1-.135-.205c0-.009.558-.316 1.24-.684.682-.367 1.24-.678 1.24-.69 0-.043-.444-.851-.468-.851-.013 0-.639.333-1.393.74-.753.407-1.389.74-1.414.74-.025 0-.135-.05-.244-.11l-.2-.11V3.93L20 2.52h-1v2.51l-.35-.019c-.638-.036-1.307.129-1.918.473-.385.217-1.006.822-1.216 1.186l-.145.249-.18-.269c-.976-1.464-2.698-1.975-4.825-1.432l-.375.096.016-.587c.014-.539.024-.606.126-.827.147-.317.454-.625.763-.764.204-.092.315-.113.674-.128L12 2.99V2l-.39.003a4.005 4.005 0 0 0-.65.059M8.08 6.119c.231.047.645.161.92.253l.5.168.5-.168c.787-.264 1.237-.345 1.94-.347.505-.002.649.012.912.087.804.23 1.348.698 1.717 1.479.086.183.157.363.159.4.001.038-.207.456-.463.929a75.737 75.737 0 0 0-.776 1.47l-.309.609-4.52-.009-4.519-.01-.05-.26c-.135-.713-.098-1.687.092-2.437.119-.469.389-1.025.653-1.349a2.824 2.824 0 0 1 1.026-.731c.581-.218 1.404-.249 2.218-.084m10.94-.059a2.504 2.504 0 0 1 1.944 2.809c-.065.424-.16.642-.615 1.415l-.41.696-2.809.01c-1.546.006-2.81-.001-2.81-.015 0-.033.993-1.9 1.391-2.615.65-1.169.782-1.375 1.058-1.648a2.478 2.478 0 0 1 2.251-.652M22 16.5V21H2v-9h20v4.5m-13.52-1v.5h7.04v-1H8.48v.5" fill="currentColor" fill-rule="evenodd"/></svg>