<svg xmlns="http://www.w3.org/2000/svg" width="16" height="16" fill="none" viewBox="0 0 16 16">
  <path fill="#1D1D1D" fill-rule="evenodd" d="M5.5 2.75C5.5 1.784 6.284 1 7.25 1H8v1h-.75a.75.75 0 0 0-.75.75v.498c1.286-.387 2.644-.025 3.364.954a2.498 2.498 0 0 1 2.274-1.199l.546-1.635.949.316-.525 1.575a2.224 2.224 0 0 1 .535.361l1.58-.79.448.894-1.507.753c.015.058.027.117.036.177.071.447-.017.91-.167 1.346H16v9H0V6h1.518c0-1.252.543-2.24 1.48-2.712.722-.365 1.602-.381 2.502-.063V2.75ZM2.5 6c.002-.952.418-1.553.947-1.82.545-.274 1.361-.27 2.31.257L6 4.572l.243-.135c1.363-.759 2.725-.2 3.055.845-.068.141-.144.297-.243.49L8.939 6H2.5ZM2 7h13v7H1V7h1Zm8.06-1h2.904l.07-.18c.162-.42.22-.754.179-1.01-.036-.222-.15-.429-.463-.609a1.5 1.5 0 0 0-2.049.549c-.165.286-.259.466-.349.65l-.18.374L10.06 6ZM5 9h6v1H5V9Z" clip-rule="evenodd"/>
</svg>
