<svg xmlns="http://www.w3.org/2000/svg" width="24" height="24" fill="none" viewBox="0 0 24 24"><path fill="currentColor" d="m9.5 6.01-.176.468.176.066.175-.066L9.5 6.01Zm2-3.01h.5V2h-.5v1ZM9 5.5V6h1v-.5H9ZM21.098 10l.433.25-.433-.25Zm-5.196-3 .433.25-.433-.25ZM1.5 11.5V11H1v.5h.5Zm21 0h.5V11h-.5v.5Zm0 10v.5h.5v-.5h-.5Zm-21 0H1v.5h.5v-.5ZM9 15h-.5v1H9v-1Zm6 1h.5v-1H15v1Zm.771-8.045c-.336-1.225-1.058-2.194-2.198-2.66-1.123-.458-2.557-.387-4.248.247l.35.936c1.559-.584 2.714-.586 3.52-.257.79.323 1.338 1.001 1.612 1.998l.964-.264ZM9.676 5.542c-2.081-.78-3.778-.707-4.968.15C3.525 6.544 3 8.056 3 9.796h1c0-1.573.475-2.704 1.292-3.292.81-.583 2.113-.746 4.032-.026l.352-.936ZM3 9.796c0 .648.107 1.272.298 1.86l.951-.311A4.981 4.981 0 0 1 4 9.796H3ZM11.5 2A2.5 2.5 0 0 0 9 4.5h1A1.5 1.5 0 0 1 11.5 3V2ZM9 4.5v1h1v-1H9Zm11.636 2.116 3.102-1.676-.476-.88-3.102 1.676.476.88ZM19 2.5v3.171h1V2.5h-1Zm2.531 7.75a3.5 3.5 0 0 0-1.281-4.781l-.5.866a2.5 2.5 0 0 1 .915 3.415l.866.5ZM20.25 5.469a3.5 3.5 0 0 0-4.781 1.281l.866.5a2.5 2.5 0 0 1 3.415-.915l.5-.866Zm-4.781 1.28a87.158 87.158 0 0 0-2.429 4.527l.895.448a85.94 85.94 0 0 1 2.4-4.474l-.866-.5Zm5.167 5.01c.311-.512.61-1.017.895-1.509l-.866-.5c-.28.485-.576.983-.884 1.49l.855.52ZM1.5 12h21v-1h-21v1Zm20.5-.5v10h1v-10h-1Zm.5 9.5h-21v1h21v-1ZM2 21.5v-10H1v10h1ZM9 16h6v-1H9v1Z"/></svg>