<svg xmlns="http://www.w3.org/2000/svg" width="16" height="16" fill="none" viewBox="0 0 16 16"><path fill="currentColor" d="m6 4-.243.437.243.135.243-.135L6 4Zm1.5-2H8V1h-.5v1ZM13 3.768l-.25.433.25-.433Zm-2.732.732.433.25-.433-.25Zm5.388-.54.475-.156-.312-.95-.475.156.312.95Zm-2.163-2.377.083-.493-.986-.166-.083.493.986.166ZM.5 6.5V6H0v.5h.5Zm15 0h.5V6h-.5v.5Zm0 8v.5h.5v-.5h-.5Zm-15 0H0v.5h.5v-.5Zm5-5.5H5v1h.5V9Zm5 1h.5V9h-.5v1ZM9.283 4.941l.212.453.905-.425-.212-.453-.905.425Zm4.116 1.1-.18.466.932.362.18-.466-.932-.362ZM6.243 3.563c-1.15-.64-2.329-.74-3.254-.276C2.05 3.757 1.5 4.746 1.5 6h1c0-.955.401-1.55.937-1.819.55-.276 1.372-.271 2.32.256l.486-.874ZM1.5 6c0 .184.006.362.02.537l.997-.074A6.258 6.258 0 0 1 2.5 6h-1Zm6-5h-.25v1h.25V1Zm-.25 0A1.75 1.75 0 0 0 5.5 2.75h1A.75.75 0 0 1 7.25 2V1ZM5.5 2.75v.75h1v-.75h-1Zm7.75.585a2.5 2.5 0 0 0-3.415.915l.866.5a1.5 1.5 0 0 1 2.05-.549l.499-.866Zm-3.415.915c-.369.64-.738 1.323-1.095 2.023l.89.454c.351-.686.712-1.355 1.071-1.977l-.866-.5Zm3.787.378 2.034-.668-.312-.95-2.034.668.312.95Zm-1.115-3.211-.355 2.108.986.166.355-2.108-.986-.166ZM.5 7h15V6H.5v1ZM15 6.5v8h1v-8h-1Zm.5 7.5H.5v1h15v-1ZM1 14.5v-8H0v8h1ZM5.5 10h5V9h-5v1Zm4.688-5.484a2.569 2.569 0 0 0-1.826-1.453c-.799-.169-1.708 0-2.605.5l.486.874c.736-.41 1.4-.504 1.912-.395.503.106.9.413 1.128.9l.905-.426Zm4.143 1.887a2.5 2.5 0 0 0-1.081-3.068l-.5.866a1.5 1.5 0 0 1 .65 1.84l.931.362Z"/></svg>