<svg xmlns="http://www.w3.org/2000/svg" width="16" height="16" fill="none"><path d="M12.576 1.007c-.019.093-.336 1.969-.336 1.986 0 .008-.159.02-.353.028a2.161 2.161 0 0 0-.942.217 2.649 2.649 0 0 0-.933.742l-.079.101-.128-.162c-.281-.354-.849-.708-1.325-.828-.487-.121-1.205-.095-1.756.065l-.222.064.009-.35c.008-.325.014-.359.082-.474a1.03 1.03 0 0 1 .186-.221c.168-.144.309-.175.799-.175H8v-.987h-.492c-.271 0-.556.013-.633.029a2.27 2.27 0 0 0-.395.151c-.207.099-.29.158-.456.324-.37.372-.502.701-.524 1.311l-.014.389-.216-.063c-.55-.16-1.279-.186-1.75-.063-1.171.307-1.912 1.286-2.015 2.662L1.486 6H0v9.013h16V6h-1.549l.021-.14a2.718 2.718 0 0 0-.156-1.294.51.51 0 0 1-.046-.149c.005-.004.394-.133.863-.287l.854-.279.007-.225c.006-.198-.004-.259-.083-.493-.05-.146-.102-.265-.114-.263-.013.001-.51.162-1.105.356l-1.081.354-.205-.14c-.169-.114-.203-.149-.193-.196.049-.218.36-2.134.348-2.145a13.77 13.77 0 0 0-.939-.165c-.017-.001-.038.032-.046.073M4.657 4.04c.317.051.642.167 1.03.366L6 4.568l.313-.162c.584-.3 1.075-.426 1.54-.396.664.044 1.114.332 1.413.908l.095.181-.077.137c-.042.076-.151.278-.242.451L8.876 6H2.499l.017-.245c.024-.334.08-.55.222-.845.332-.694 1.037-1.013 1.919-.87m7.625-.011c.258.046.577.216.771.409.19.191.37.52.414.759.034.185.03.487-.01.656l-.031.134-1.7.007c-.934.003-1.699-.001-1.699-.01 0-.022.472-.884.646-1.179.26-.442.596-.683 1.1-.788.107-.022.354-.016.509.012m2.705 6.478V14H1.013V7.013h13.974v3.494m-9.74-1.499-.26.007V10h6.026v-.986L8.26 9.007c-1.514-.004-2.87-.004-3.013.001" fill="currentColor" fill-rule="evenodd"/></svg>