<svg width="16" height="16" fill="none" xmlns="http://www.w3.org/2000/svg"><path d="M6.35.019c-.096.018-.311.247-.332.352C6.008.42 6 1.035 6 1.737v1.276h-.814c-.747 0-.823.005-.914.051a.426.426 0 0 0-.231.249C4.006 3.398 4 3.637 4 5.063c0 .923.012 1.773.027 1.928a5.526 5.526 0 0 0 1.605 3.412 5.583 5.583 0 0 0 3.231 1.557l.156.018-.012.898c-.011.828-.016.911-.069 1.073a1.61 1.61 0 0 1-1.004.992C7.747 15 7.745 15 5.507 15c-2.098 0-2.25-.003-2.399-.049-.547-.169-.971-.614-1.079-1.132-.019-.094-.029-.687-.029-1.75 0-.885-.008-1.649-.018-1.698a.511.511 0 0 0-.143-.215c-.102-.101-.149-.129-.252-.144a.48.48 0 0 0-.522.258c-.053.103-.054.146-.046 1.898l.008 1.792.074.235c.305.979 1.087 1.645 2.086 1.777.175.023.844.029 2.466.022 2.003-.009 2.244-.015 2.4-.056.974-.258 1.635-.92 1.883-1.885.037-.141.047-.35.057-1.124l.012-.951.137-.018a5.531 5.531 0 0 0 3.95-2.44c.31-.463.63-1.205.758-1.76.128-.549.137-.721.137-2.599 0-1.186-.01-1.796-.029-1.846a.636.636 0 0 0-.225-.257c-.036-.021-.325-.036-.893-.045L13 3l-.013-1.333c-.012-1.198-.018-1.342-.06-1.418a.49.49 0 0 0-.514-.237c-.103.015-.15.043-.252.144a.511.511 0 0 0-.143.215C12.008.42 12 1.035 12 1.737v1.277l-2.5-.007L7 3l-.013-1.333C6.975.495 6.968.324 6.929.253 6.82.054 6.611-.03 6.35.019m7.649 5.374c0 1.041-.009 1.465-.037 1.674a4.524 4.524 0 0 1-3.549 3.84c-.339.074-1.128.102-1.49.054a4.518 4.518 0 0 1-3.779-3.342c-.127-.497-.136-.623-.15-2.159L4.981 4H14l-.001 1.393" fill-rule="evenodd" fill="#000"/></svg>