<svg xmlns="http://www.w3.org/2000/svg" width="16" height="16" fill="none"><path d="M2.987 4.266v3.227H0v1.014h2.987v3.226c0 1.775.004 3.227.01 3.227.005 0 2.03-1.426 4.5-3.169l4.49-3.168.006 2.435.007 2.435h1.013V8.507H16V7.493h-2.987V2.507H12l-.007 2.437-.006 2.436-4.454-3.145a1568.008 1568.008 0 0 0-4.5-3.171c-.044-.025-.046.136-.046 3.202m4.597 1.227c1.944 1.372 3.534 2.5 3.534 2.507.001.015-7.051 4.994-7.093 5.009C4.009 13.014 4 11.159 4 8c0-3.035.01-5.014.024-5.009a671.57 671.57 0 0 1 3.56 2.502" fill="currentColor" fill-rule="evenodd"/></svg>