<svg xmlns="http://www.w3.org/2000/svg" width="16" height="16" fill="none"><path d="M7.467.015a38.28 38.28 0 0 1-.387.04c-2.268.226-4.427 1.55-5.739 3.518C.68 4.566.268 5.648.073 6.906c-.076.489-.082 1.606-.011 2.105.133.945.399 1.791.826 2.626a8.184 8.184 0 0 0 4.019 3.744c.457.195.652.254.765.233a.377.377 0 0 0 .272-.269c.038-.137.04-1.532.003-1.532-.015 0-.138.02-.274.043a2.832 2.832 0 0 1-.633.029c-.441-.015-.602-.052-.933-.211a1.34 1.34 0 0 1-.442-.324c-.195-.196-.236-.257-.433-.643-.25-.49-.405-.708-.673-.95-.409-.367-.452-.414-.452-.486 0-.166.372-.214.698-.089.389.148.636.366.942.83.274.417.489.601.853.731.342.121.904.078 1.265-.098.084-.041.098-.065.161-.285.081-.282.206-.559.331-.733l.09-.125-.31-.046c-1.934-.287-2.924-1.231-3.194-3.046a6.253 6.253 0 0 1-.045-.823c-.002-.611.047-.918.208-1.308.131-.315.383-.714.528-.834.035-.029.032-.055-.022-.213-.169-.484-.135-1.167.085-1.733.068-.175.082-.194.162-.209.12-.022.48.034.74.115.264.082.831.355 1.134.548l.227.143.28-.075c.512-.137.871-.185 1.511-.2.795-.019 1.392.046 1.974.215l.216.063.223-.143a6.02 6.02 0 0 1 1.103-.54c.263-.088.683-.154.794-.127.06.016.079.046.127.208.126.424.144.553.144 1.063.001.394-.008.529-.047.67l-.048.176.145.202a4.1 4.1 0 0 1 .481.93c.206.63.197 1.583-.022 2.41-.237.897-.804 1.593-1.609 1.975-.423.201-1.163.399-1.692.453a.676.676 0 0 0-.18.031c0 .007.053.092.117.189.27.409.398.75.442 1.18.015.148.028.785.028 1.415 0 1.241-.001 1.235.148 1.352.17.134.369.102.985-.158a7.944 7.944 0 0 0 2.561-1.744 7.487 7.487 0 0 0 1.039-1.267c.974-1.462 1.457-3.339 1.282-4.987-.208-1.961-1.037-3.695-2.419-5.059A7.946 7.946 0 0 0 8.947.067c-.304-.04-1.281-.075-1.48-.052" fill="currentColor" fill-rule="evenodd"/></svg>