<svg xmlns="http://www.w3.org/2000/svg" width="16" height="16" fill="none" viewBox="0 0 16 16">
  <path fill="#1D1D1D" fill-rule="evenodd" d="M7.95 0C3.578 0 0 3.6 0 8c0 3.5 2.286 6.5 5.466 7.6.397.1.497-.2.497-.4v-1.4c-2.187.5-2.683-1-2.683-1-.398-.9-.895-1.2-.895-1.2-.696-.5.1-.5.1-.5.795.1 1.192.8 1.192.8.696 1.3 1.888.9 2.286.7.1-.5.298-.9.497-1.1-1.79-.2-3.578-.9-3.578-4 0-.9.298-1.6.795-2.1-.1-.2-.397-1 .1-2.1 0 0 .695-.2 2.186.8.596-.2 1.292-.3 1.987-.3.696 0 1.392.1 1.988.3 1.49-1 2.186-.8 2.186-.8.398 1.1.199 1.9.1 2.1.496.6.795 1.3.795 2.1 0 3.1-1.889 3.7-3.677 3.9.298.4.596.9.596 1.6v2.2c0 .2.1.5.596.4C13.714 14.5 16 11.5 16 8c-.1-4.4-3.677-8-8.05-8Z" clip-rule="evenodd"/>
</svg>
