<svg xmlns="http://www.w3.org/2000/svg" width="16" height="16" fill="none" viewBox="0 0 16 16">
  <path fill="#1D1D1D" fill-rule="evenodd" d="M2.5 1A1.5 1.5 0 0 0 1 2.5v7.55A3.49 3.49 0 0 1 3.5 9c1.183 0 2.229.587 2.862 1.485A2.973 2.973 0 0 1 8 10c.606 0 1.167.177 1.638.485A3.496 3.496 0 0 1 12.5 9c.98 0 1.865.402 2.5 1.05V2.5A1.5 1.5 0 0 0 13.5 1H12V0h1.5A2.5 2.5 0 0 1 16 2.5v10a3.5 3.5 0 1 1-6.819-1.115A1.971 1.971 0 0 0 8 11c-.446 0-.851.142-1.181.385A3.5 3.5 0 1 1 0 12.5v-10A2.5 2.5 0 0 1 2.5 0H4v1H2.5Zm3.264 10.438.013.028a2.5 2.5 0 1 1-.013-.028Zm4.46.028a2.5 2.5 0 1 0 4.553 2.069 2.5 2.5 0 0 0-4.554-2.07Z" clip-rule="evenodd"/>
</svg>
