<svg xmlns="http://www.w3.org/2000/svg" width="16" height="16" fill="none"><path d="M2.155.028A2.5 2.5 0 0 0 .239 1.45a3.572 3.572 0 0 0-.167.436l-.059.207-.007 5.32c-.008 5.86-.015 5.589.156 6.123a3.472 3.472 0 0 0 2.352 2.314c1.836.552 3.789-.509 4.339-2.357.094-.315.136-.61.137-.973a3.238 3.238 0 0 0-.113-.929c-.062-.246-.076-.224.238-.378a2.022 2.022 0 0 1 1.77 0c.314.154.3.132.238.378-.086.335-.114.56-.114.916a3.486 3.486 0 0 0 3.334 3.486 3.514 3.514 0 0 0 3.312-1.987 4.02 4.02 0 0 0 .317-1.086c.024-.2.03-1.577.023-5.547l-.008-5.28-.062-.213a3.327 3.327 0 0 0-.388-.827 2.615 2.615 0 0 0-1.449-.979c-.215-.055-.299-.06-.995-.06l-.76-.001-.096.066a.5.5 0 0 0-.064.797c.131.115.287.137.968.138.655 0 .768.016 1.042.149.201.097.557.453.654.654.157.323.149.097.149 4.324l.001 3.888-.192-.165a3.594 3.594 0 0 0-1.515-.773c-.221-.055-.319-.063-.76-.064-.668-.001-.966.061-1.504.31-.48.222-1.026.664-1.323 1.069l-.053.073-.307-.154a2.857 2.857 0 0 0-1.633-.303 2.575 2.575 0 0 0-1.007.292l-.324.161c-.01.004-.053-.044-.097-.107-.121-.175-.5-.538-.741-.71a3.516 3.516 0 0 0-1.478-.607c-.401-.064-1.009-.041-1.373.052a3.52 3.52 0 0 0-1.475.761l-.192.166.007-3.942.007-3.941.06-.159c.152-.403.501-.752.901-.9.145-.054.223-.061.892-.075.805-.016.862-.027.992-.182a.523.523 0 0 0 .121-.397c-.015-.135-.07-.22-.217-.339L3.675.013 2.991.009c-.376-.002-.753.006-.836.019M4.104 10.08a2.52 2.52 0 0 1 1.821 1.832c.081.324.081.888 0 1.185-.284 1.05-1.14 1.79-2.181 1.886-1.236.114-2.328-.652-2.669-1.871-.036-.128-.047-.268-.046-.619 0-.416.006-.472.073-.688a2.522 2.522 0 0 1 1.218-1.507c.186-.103.575-.234.8-.269.246-.037.72-.013.984.051m8.993-.003a2.507 2.507 0 0 1 1.8 1.723c.068.221.074.275.074.693.001.493-.019.604-.17.972-.171.413-.54.863-.913 1.111a2.493 2.493 0 0 1-2.548.13c-.639-.337-1.069-.884-1.265-1.609-.081-.297-.081-.861 0-1.185.247-.994 1.049-1.721 2.08-1.885.226-.036.708-.01.942.05" fill-rule="evenodd" fill="#000"/></svg>