<svg xmlns="http://www.w3.org/2000/svg" width="16" height="16" fill="currentColor" viewBox="0 0 16 16">
  <path fill-rule="evenodd" d="M1.018 7.5h3.275c.053-1.927.41-3.68.975-5 .188-.439.403-.838.643-1.183A7.005 7.005 0 0 0 1.018 7.5ZM8 0a8 8 0 1 0 0 16A8 8 0 0 0 8 0Zm0 1c-.275 0-.578.128-.9.445-.324.32-.638.807-.913 1.449-.503 1.174-.841 2.789-.894 4.606h5.414c-.053-1.817-.39-3.432-.894-4.606-.275-.642-.59-1.13-.913-1.449C8.578 1.128 8.275 1 8 1Zm3.707 6.5c-.053-1.927-.41-3.68-.975-5a6.635 6.635 0 0 0-.643-1.183A7.005 7.005 0 0 1 14.982 7.5h-3.275Zm-1 1H5.293c.053 1.817.39 3.432.894 4.606.275.642.59 1.13.913 1.449.322.317.625.445.9.445s.578-.128.9-.445c.324-.32.638-.807.913-1.449.503-1.174.841-2.789.894-4.606Zm-.618 6.183c.24-.345.455-.744.643-1.183.566-1.32.922-3.073.975-5h3.275a7.005 7.005 0 0 1-4.893 6.183Zm-4.178 0a6.636 6.636 0 0 1-.643-1.183c-.566-1.32-.922-3.073-.975-5H1.018a7.005 7.005 0 0 0 4.893 6.183Z" clip-rule="evenodd"/>
</svg>
