<svg xmlns="http://www.w3.org/2000/svg" width="24" height="24" fill="none"><path d="M11.5 1.046a11.615 11.615 0 0 0-6.187 2.48 13.69 13.69 0 0 0-1.789 1.79c-1.326 1.672-2.116 3.513-2.43 5.664-.099.676-.099 2.364 0 3.04.379 2.592 1.474 4.795 3.283 6.603a11.343 11.343 0 0 0 5.663 3.111 10.62 10.62 0 0 0 2.1.253 11.367 11.367 0 0 0 5.856-1.387 11.677 11.677 0 0 0 4.604-4.604c2.215-4.101 1.779-9.018-1.124-12.68a13.69 13.69 0 0 0-1.789-1.79c-1.256-.996-2.777-1.76-4.271-2.146a11.789 11.789 0 0 0-3.916-.334M12 7.04V12H7.52v-.258c0-.614.146-1.992.306-2.882.387-2.159 1.125-4.029 2.086-5.289.302-.397.814-.885 1.159-1.107.275-.176.734-.381.859-.383.066-.001.07.261.07 4.959m1.393-4.854c1.505.596 2.823 2.669 3.546 5.574.292 1.175.541 3.005.541 3.982V12H13V7.04c0-4.493.006-4.96.063-4.96.035 0 .183.048.33.106m-3.899.304a5.146 5.146 0 0 1-.247.306c-.703.832-1.474 2.36-1.907 3.784-.469 1.541-.82 3.73-.82 5.108V12H2.013l.016-.23c.056-.85.31-2.068.589-2.832.222-.606.777-1.704 1.121-2.218 1.34-2.003 3.19-3.411 5.561-4.232.168-.058.231-.058.194.002m6.586.135c.576.21 1.694.777 2.204 1.118a10.6 10.6 0 0 1 2.973 2.973c.343.512.908 1.628 1.121 2.211.281.771.537 1.997.593 2.843l.016.23H18.48v-.312c0-1.378-.351-3.567-.82-5.108-.433-1.424-1.204-2.952-1.907-3.784-.302-.356-.31-.374-.169-.339.064.016.287.092.496.168M6.52 13.312c0 1.027.236 2.81.539 4.068.477 1.98 1.281 3.741 2.217 4.859.138.164.234.304.214.311-.053.018-.669-.205-1.199-.432-1.8-.773-3.408-2.129-4.552-3.838-.344-.514-.899-1.612-1.121-2.218-.279-.764-.533-1.982-.589-2.832L2.013 13H6.52v.312M12 17.98v4.979l-.317-.116c-1.54-.562-2.886-2.644-3.622-5.603-.292-1.175-.541-3.005-.541-3.982V13H12v4.98m5.48-4.722c0 .614-.146 1.992-.306 2.882-.256 1.428-.628 2.621-1.172 3.76-.743 1.556-1.671 2.574-2.685 2.943l-.317.116V13h4.48v.258m5.491-.028c-.056.846-.312 2.072-.593 2.843-.213.583-.778 1.699-1.121 2.211-1.136 1.702-2.749 3.062-4.548 3.834-.53.227-1.146.45-1.199.432-.02-.007.076-.147.214-.311 1.123-1.34 2.029-3.557 2.452-5.999.176-1.015.302-2.228.303-2.91l.001-.33h4.507l-.016.23" fill-rule="evenodd" fill="#000"/></svg>