<svg xmlns="http://www.w3.org/2000/svg" width="16" height="16" fill="none"><path d="m7.493.015-.386.04C5.77.189 4.339.751 3.243 1.572 1.109 3.173-.075 5.619.009 8.253c.115 3.601 2.59 6.65 6.101 7.518a8.041 8.041 0 0 0 6.1-.969 8.009 8.009 0 0 0 3.561-4.915c.172-.701.212-1.058.212-1.887s-.04-1.186-.212-1.887C14.979 2.878 12.315.498 9 .064 8.716.027 7.683-.006 7.493.015m.975 1.116c.689.341 1.358 1.485 1.771 3.029.237.886.397 1.949.444 2.94l.018.393H5.299l.018-.393c.096-2.058.619-4.013 1.379-5.154.215-.323.569-.678.793-.796.237-.125.281-.135.539-.129a.779.779 0 0 1 .44.11m-2.592.236-.131.206a8.054 8.054 0 0 0-.558 1.134c-.479 1.207-.771 2.638-.87 4.26l-.033.526H1.012l.013-.06c.006-.033.02-.15.029-.26.037-.444.211-1.162.402-1.657.724-1.882 2.173-3.327 4.076-4.066.314-.122.377-.137.344-.083m4.57.075c2.289.87 3.947 2.821 4.417 5.198.037.183.074.423.083.533.009.11.023.227.029.26l.013.06h-3.272l-.032-.513c-.102-1.647-.391-3.063-.871-4.273a8.054 8.054 0 0 0-.558-1.134c-.156-.244-.154-.24-.123-.24.015 0 .157.049.314.109M4.304 8.847c.108 2.02.514 3.782 1.177 5.1.092.183.222.417.289.52.066.102.111.19.098.194-.09.032-1.17-.464-1.588-.729a7.098 7.098 0 0 1-2.999-3.968 7.427 7.427 0 0 1-.227-1.137 3.91 3.91 0 0 0-.029-.26l-.013-.06h3.274l.018.34m6.379.053c-.112 2.379-.786 4.576-1.71 5.574-.196.212-.467.405-.661.47a1.2 1.2 0 0 1-.624 0c-.74-.249-1.483-1.446-1.927-3.104-.236-.884-.4-1.966-.444-2.927l-.018-.406h5.402l-.018.393m4.294-.347a2.736 2.736 0 0 0-.031.26c-.038.457-.207 1.162-.401 1.671a7.786 7.786 0 0 1-1.12 1.938 7.921 7.921 0 0 1-.478.521 6.645 6.645 0 0 1-1.84 1.323c-.408.201-.929.411-.976.395-.012-.004.033-.092.099-.194a7.92 7.92 0 0 0 .577-1.16c.485-1.217.774-2.629.877-4.287l.032-.513h1.637c1.546 0 1.637.002 1.624.046" fill-rule="evenodd" fill="#000"/></svg>