<svg xmlns="http://www.w3.org/2000/svg" width="16" height="16" fill="none"><path d="M7.373 1.031c-.412.048-.77.108-1.026.17a7.008 7.008 0 0 0-3.293 1.853 7.045 7.045 0 0 0-2.003 4.093 8.258 8.258 0 0 0 0 1.693 6.998 6.998 0 0 0 1.122 3.027c.295.441.525.723.881 1.079a7.014 7.014 0 0 0 5.41 2.041c2.565-.155 4.527-1.343 5.547-3.359.493-.974.735-1.997.78-3.295.014-.431-.018-1.229-.062-1.513l-.016-.1-3.336.007-3.337.006v2.854l1.887.007a59.49 59.49 0 0 1 1.886.021c0 .007-.042.124-.095.259-.571 1.481-1.842 2.26-3.684 2.259a4.13 4.13 0 0 1-4.049-3.184 4.145 4.145 0 0 1 1.704-4.37 4.144 4.144 0 0 1 4.804.123l.173.128 1.027-.98a39.743 39.743 0 0 0 1.027-.998c0-.027-.163-.171-.427-.376a6.981 6.981 0 0 0-3.484-1.423c-.306-.035-1.203-.05-1.436-.022" fill="currentColor" fill-rule="evenodd"/></svg>