<svg xmlns="http://www.w3.org/2000/svg" width="24" height="24" viewBox="0 0 24 24"><path fill="currentColor" d="M22 12v-.5h-1v.5h1Zm-1 5v.5h1V17h-1Zm-9.5-3-.224.447.224.112.224-.112L11.5 14Zm-10-5-.224-.447L.382 9l.894.447L1.5 9Zm10-5 .224-.447-.224-.112-.224.112L11.5 4Zm10 5 .224.447.894-.447-.894-.447L21.5 9Zm-.5 3v5h1v-5h-1Zm-9.276 1.553-10-5-.448.894 10 5 .448-.894Zm-10-4.106 10-5-.448-.894-10 5 .448.894Zm9.552-5 10 5 .448-.894-10-5-.448.894Zm10 4.106-10 5 .448.894 10-5-.448-.894ZM4 10.5V17h1v-6.5H4ZM4 17c0 .583.278 1.097.694 1.519.414.42.989.775 1.66 1.062 1.342.575 3.162.919 5.146.919v-1c-1.882 0-3.562-.328-4.753-.838-.596-.256-1.047-.547-1.341-.845C5.114 17.52 5 17.245 5 17H4Zm7.5 3.5c1.984 0 3.804-.344 5.147-.92.67-.286 1.245-.641 1.659-1.061.416-.422.694-.936.694-1.519h-1c0 .245-.114.52-.406.817-.294.298-.745.59-1.341.845-1.191.51-2.871.838-4.753.838v1ZM19 17v-6.5h-1V17h1Z"/></svg>