<svg xmlns="http://www.w3.org/2000/svg" width="16" height="16" fill="currentColor">
  <path fill-rule="evenodd" d="M8 .924 16.008 5.5 8 10.076-.008 5.5 8 .924ZM2.008 5.5 8 8.924 13.992 5.5 8 2.076 2.008 5.5ZM16 7v6h-1V7h1ZM3 8v4.5c0 .076.04.213.258.4.216.185.558.375 1.024.544C5.209 13.782 6.524 14 8 14s2.79-.218 3.718-.556c.466-.169.808-.359 1.024-.545.217-.186.258-.323.258-.4V8h1v4.5c0 .478-.267.867-.606 1.159-.34.293-.805.534-1.334.726C10.997 14.771 9.562 15 8 15c-1.562 0-2.997-.23-4.06-.616-.53-.192-.993-.433-1.334-.726C2.267 13.366 2 12.977 2 12.5V8h1Z" clip-rule="evenodd"/>
</svg>
