<svg xmlns="http://www.w3.org/2000/svg" width="24" height="24" fill="none"><path d="M5.94 6.23.38 9.01l1.81.905L4 10.82v3.194c0 2.785.008 3.226.063 3.44.231.896 1.18 1.716 2.597 2.245 1.458.545 2.97.792 4.84.792.528 0 1.176-.021 1.44-.048 1.974-.197 3.601-.678 4.689-1.385.435-.282.948-.796 1.118-1.118.259-.491.253-.402.253-3.926V10.82l1.81-.905 1.81-.905-5.56-2.78-5.56-2.78-5.56 2.78m10 5-4.44 2.22-4.44-2.22-4.44-2.22 4.44-2.22 4.44-2.22 4.44 2.22 4.44 2.22-4.44 2.22m-1.19 1.715L18 11.32v2.89c0 1.843-.015 2.943-.041 3.037-.064.228-.36.598-.664.826-1.018.765-2.895 1.292-4.997 1.403-.869.045-.727.045-1.596 0-2.102-.111-3.979-.638-4.997-1.403-.304-.228-.6-.598-.664-.826C5.015 17.153 5 16.053 5 14.21v-2.89l3.25 1.625 3.25 1.625 3.25-1.625M21 14.52v3h1v-6h-1v3" fill="currentColor" fill-rule="evenodd"/></svg>