<svg xmlns="http://www.w3.org/2000/svg" width="16" height="16" fill="none"><path d="M3.992 3.216a505.494 505.494 0 0 0-3.987 2.29C.01 5.51 1.81 6.54 4.007 7.795L8 10.076l3.993-2.281C14.19 6.54 15.99 5.51 15.995 5.506 16.004 5.499 8.092.973 8.026.948c-.023-.009-1.721.946-4.034 2.268m6.965.548c1.622.926 2.965 1.698 2.984 1.715.028.025-.585.387-2.936 1.73C9.37 8.143 8.018 8.907 8 8.907c-.066 0-5.975-3.396-5.951-3.42a865.3 865.3 0 0 1 5.948-3.406c.005-.001 1.337.757 2.96 1.683m4.036 6.243L15 13l.5.007.5.008V7.013h-1.014l.007 2.994M2 10.328c0 2.564-.005 2.476.167 2.803.109.207.474.577.738.748.873.567 2.281.953 3.948 1.083.498.039 1.796.039 2.294 0 1.667-.13 3.075-.516 3.948-1.083.264-.171.629-.541.738-.748.172-.327.167-.239.167-2.803V8h-1.013v2.295c0 1.952-.006 2.305-.039 2.369-.057.109-.301.323-.511.448-.541.319-1.519.619-2.45.752-.727.104-1.024.122-1.987.122-.963 0-1.26-.018-1.987-.122-.931-.133-1.909-.433-2.45-.752-.21-.125-.454-.339-.511-.448-.033-.064-.039-.417-.039-2.369V8H2v2.328" fill-rule="evenodd" fill="#000"/></svg>