<svg width="24" height="24" viewBox="0 0 24 24" fill="none" xmlns="http://www.w3.org/2000/svg">
<g clip-path="url(#clip0_2155_73579)">
<path d="M12 2.1615C15.204 2.1615 15.5835 2.175 16.8495 2.232C17.6103 2.24114 18.3638 2.38119 19.077 2.646C19.5987 2.83872 20.0703 3.14631 20.457 3.546C20.8567 3.93269 21.1643 4.40433 21.357 4.926C21.6218 5.63924 21.7619 6.39274 21.771 7.1535C21.828 8.4195 21.8415 8.8035 21.8415 12.003C21.8415 15.2025 21.828 15.5865 21.771 16.8525C21.7619 17.6133 21.6218 18.3668 21.357 19.08C21.1578 19.5977 20.8522 20.0678 20.46 20.46C20.0678 20.8522 19.5977 21.1578 19.08 21.357C18.3668 21.6218 17.6133 21.7619 16.8525 21.771C15.5865 21.828 15.2025 21.8415 12.003 21.8415C8.8035 21.8415 8.4195 21.828 7.1535 21.771C6.39274 21.7619 5.63924 21.6218 4.926 21.357C4.40433 21.1643 3.93269 20.8567 3.546 20.457C3.14631 20.0703 2.83872 19.5987 2.646 19.077C2.38119 18.3638 2.24114 17.6103 2.232 16.8495C2.175 15.5835 2.1615 15.1995 2.1615 12C2.1615 8.8005 2.175 8.4165 2.232 7.1505C2.24114 6.38974 2.38119 5.63624 2.646 4.923C2.83872 4.40133 3.14631 3.92969 3.546 3.543C3.93269 3.14331 4.40433 2.83572 4.926 2.643C5.63924 2.37819 6.39274 2.23814 7.1535 2.229C8.4195 2.172 8.8035 2.1585 12.003 2.1585M12 0C8.7405 0 8.3325 0.0135 7.05 0.072C6.05544 0.0922252 5.0715 0.280898 4.14 0.63C3.33894 0.930838 2.61346 1.4034 2.0145 2.0145C1.4034 2.61346 0.930838 3.33894 0.63 4.14C0.280898 5.0715 0.0922252 6.05544 0.072 7.05C0.0135 8.3325 0 8.7405 0 12C0 15.2595 0.0135 15.6675 0.072 16.95C0.0922252 17.9446 0.280898 18.9285 0.63 19.86C0.930838 20.6611 1.4034 21.3865 2.0145 21.9855C2.61346 22.5966 3.33894 23.0692 4.14 23.37C5.07245 23.7194 6.05743 23.9081 7.053 23.928C8.3325 23.9865 8.7405 24 12 24C15.2595 24 15.6675 23.9865 16.95 23.928C17.9456 23.9081 18.9306 23.7194 19.863 23.37C20.6601 23.0614 21.384 22.5899 21.9885 21.9855C22.5929 21.381 23.0644 20.6571 23.373 19.86C23.7224 18.9276 23.9111 17.9426 23.931 16.947C23.9895 15.6675 24.003 15.2595 24.003 11.997C24.003 8.7345 23.9895 8.3295 23.931 7.047C23.9095 6.05328 23.7198 5.07037 23.37 4.14C23.0692 3.33894 22.5966 2.61346 21.9855 2.0145C21.3865 1.4034 20.6611 0.930838 19.86 0.63C18.9285 0.280898 17.9446 0.0922252 16.95 0.072C15.6675 0.0135 15.2595 0 12 0Z" fill="#0A8276"/>
<path d="M12.0018 5.83789C10.7831 5.83789 9.59176 6.19929 8.57842 6.87638C7.56509 7.55346 6.77529 8.51584 6.3089 9.6418C5.84251 10.7678 5.72049 12.0067 5.95825 13.202C6.19601 14.3973 6.78288 15.4953 7.64465 16.3571C8.50643 17.2189 9.60439 17.8057 10.7997 18.0435C11.995 18.2813 13.234 18.1592 14.3599 17.6928C15.4859 17.2264 16.4483 16.4367 17.1254 15.4233C17.8025 14.41 18.1638 13.2186 18.1638 11.9999C18.1638 11.1907 18.0045 10.3894 17.6948 9.6418C17.3851 8.89419 16.9312 8.21489 16.359 7.6427C15.7868 7.0705 15.1075 6.61661 14.3599 6.30694C13.6123 5.99728 12.8111 5.83789 12.0018 5.83789ZM12.0018 16.0004C11.2106 16.0004 10.4372 15.7658 9.77929 15.3262C9.12141 14.8866 8.60865 14.2618 8.30587 13.5308C8.00308 12.7998 7.92386 11.9955 8.07822 11.2194C8.23258 10.4434 8.61359 9.73059 9.17307 9.17111C9.73255 8.61163 10.4454 8.23062 11.2214 8.07626C11.9974 7.9219 12.8018 8.00112 13.5328 8.30391C14.2638 8.6067 14.8886 9.11945 15.3281 9.77733C15.7677 10.4352 16.0023 11.2087 16.0023 11.9999C16.0023 13.0609 15.5809 14.0784 14.8306 14.8287C14.0804 15.5789 13.0628 16.0004 12.0018 16.0004Z" fill="#0A8276"/>
<path d="M18.4048 7.03479C19.2001 7.03479 19.8448 6.39008 19.8448 5.59479C19.8448 4.7995 19.2001 4.15479 18.4048 4.15479C17.6096 4.15479 16.9648 4.7995 16.9648 5.59479C16.9648 6.39008 17.6096 7.03479 18.4048 7.03479Z" fill="#0A8276"/>
</g>
<defs>
<clipPath id="clip0_2155_73579">
<rect width="24" height="24" fill="white"/>
</clipPath>
</defs>
</svg>
