<svg xmlns="http://www.w3.org/2000/svg" width="24" height="24" fill="none"><path d="M2.252 2.078C1.986 2.241 2 2.022 2 6s-.014 3.759.252 3.922c.124.076.228.078 3.74.078 3.987 0 3.767.014 3.93-.252C9.998 9.624 10 9.52 10 6s-.002-3.624-.078-3.748C9.759 1.986 9.979 2 5.992 2c-3.512 0-3.616.002-3.74.078m13 0C14.986 2.241 15 2.022 15 6s-.014 3.759.252 3.922c.124.076.228.078 3.74.078 3.987 0 3.767.014 3.93-.252C22.998 9.624 23 9.52 23 6s-.002-3.624-.078-3.748c-.163-.266.057-.252-3.93-.252-3.512 0-3.616.002-3.74.078M9 6v3H3V3h6v3m13 0v3h-6V3h6v3M2.252 15.078C1.986 15.241 2 15.022 2 19s-.014 3.759.252 3.922c.124.076.228.078 3.74.078 3.987 0 3.767.014 3.93-.252.076-.124.078-.228.078-3.748s-.002-3.624-.078-3.748c-.163-.266.057-.252-3.93-.252-3.512 0-3.616.002-3.74.078m13 0C14.986 15.241 15 15.022 15 19s-.014 3.759.252 3.922c.124.076.228.078 3.74.078 3.987 0 3.767.014 3.93-.252.076-.124.078-.228.078-3.748s-.002-3.624-.078-3.748c-.163-.266.057-.252-3.93-.252-3.512 0-3.616.002-3.74.078M9 19v3H3v-6h6v3m13 0v3h-6v-6h6v3" fill-rule="evenodd" fill="#000"/></svg>