<svg xmlns="http://www.w3.org/2000/svg" width="16" height="16" fill="none"><path d="M1.157.04a1.547 1.547 0 0 0-.983.763c-.18.341-.177.282-.168 2.778l.007 2.246.072.183a1.55 1.55 0 0 0 1.023.941c.149.046.301.049 2.385.049 2.047 0 2.241-.004 2.398-.047a1.56 1.56 0 0 0 1.062-1.062C6.996 5.734 7 5.54 7 3.493c0-2.47.009-2.33-.179-2.705-.108-.215-.407-.507-.634-.622C5.855 0 5.863.001 3.48.003 1.79.004 1.285.012 1.157.04m9.003.002c-.516.111-.943.521-1.111 1.066C9.003 1.257 9 1.409 9 3.507c0 2.238 0 2.24.059 2.427.133.423.502.818.906.972.269.102.498.111 2.688.102 2.086-.009 2.109-.01 2.28-.068.461-.155.81-.485.982-.93l.072-.183.007-2.246c.007-1.952.002-2.269-.034-2.423a1.53 1.53 0 0 0-1.13-1.12c-.259-.055-4.414-.052-4.67.004M5.799 1.104a.575.575 0 0 1 .151.192c.049.11.051.199.044 2.247l-.007 2.132-.082.101a1.202 1.202 0 0 1-.155.156c-.073.054-.099.055-2.207.062-2.046.007-2.138.005-2.248-.044a.584.584 0 0 1-.191-.151l-.077-.101-.008-2.149a87.922 87.922 0 0 1 .007-2.207c.019-.077.139-.218.24-.279.077-.048.173-.05 2.256-.043l2.176.007.101.077m8.916-.053a.707.707 0 0 1 .242.247c.021.042.03.668.03 2.195 0 2.073-.002 2.139-.053 2.239a.458.458 0 0 1-.291.243c-.065.018-.79.025-2.208.02-2.085-.008-2.112-.009-2.185-.063a1.202 1.202 0 0 1-.155-.156l-.082-.101-.007-2.124c-.008-2.303-.011-2.262.135-2.399.155-.145.045-.138 2.36-.139 1.792 0 2.153.006 2.214.038M1.096 9.055c-.443.12-.836.482-1.011.935l-.072.183-.007 2.246c-.009 2.497-.012 2.436.169 2.78.122.233.393.504.626.626.344.181.283.178 2.78.169l2.246-.007.183-.072a1.55 1.55 0 0 0 .931-.995C7 14.734 7 14.729 7 12.507c0-2.059-.004-2.24-.048-2.4A1.548 1.548 0 0 0 5.89 9.052c-.214-.057-4.581-.054-4.794.003m9.011-.003a1.552 1.552 0 0 0-1.048 1.014C9 10.253 9 10.255 9 12.493c0 2.098.003 2.25.049 2.399.15.487.478.844.941 1.023l.183.072 2.246.007c2.497.009 2.436.012 2.78-.169.233-.122.504-.393.626-.626.181-.344.178-.283.169-2.78l-.007-2.246-.072-.183a1.55 1.55 0 0 0-1.023-.936c-.135-.035-.467-.04-2.411-.038-1.732.002-2.282.01-2.374.036m-4.34 1.035c.053.04.124.112.158.16l.062.086.007 2.12c.007 1.889.003 2.133-.035 2.232a.48.48 0 0 1-.365.3c-.1.021-.761.028-2.182.022-1.859-.006-2.046-.011-2.121-.052-.103-.056-.245-.216-.265-.295a88.174 88.174 0 0 1-.007-2.209l.008-2.149.077-.1a.571.571 0 0 1 .186-.151c.105-.048.204-.05 2.245-.044l2.136.006.096.074m8.92-.046a.426.426 0 0 1 .249.231c.048.095.051.192.051 2.235 0 2.323.007 2.203-.151 2.35-.163.15-.049.142-2.248.15-1.41.006-2.082-.001-2.18-.021a.483.483 0 0 1-.358-.278c-.046-.102-.049-.227-.049-2.178-.001-1.138.007-2.11.017-2.159.021-.105.236-.334.332-.352.035-.006 1.003-.013 2.151-.015 1.824-.004 2.1.001 2.186.037" fill-rule="evenodd" fill="#000"/></svg>