<svg xmlns="http://www.w3.org/2000/svg" width="16" height="16" fill="none"><path d="M2.107 1.052a1.552 1.552 0 0 0-1.048 1.014L1 2.253v11.494l.059.187c.133.423.502.818.906.972.074.028.235.064.358.08.158.021 1.88.027 5.824.022 5.275-.008 5.609-.011 5.758-.056.5-.15.911-.567 1.048-1.061.044-.161.047-.505.047-5.891 0-5.417-.003-5.729-.048-5.893a1.548 1.548 0 0 0-1.062-1.055c-.122-.032-.99-.038-5.903-.036-4.563.002-5.785.009-5.88.036m11.66 1.035c.053.04.124.112.158.16l.062.086v11.342l-.082.101a1.202 1.202 0 0 1-.155.156l-.074.055H2.324l-.074-.055a1.202 1.202 0 0 1-.155-.156l-.082-.101-.007-5.577c-.005-3.068-.001-5.631.008-5.695.014-.092.043-.143.145-.244a.6.6 0 0 1 .191-.14c.035-.007 2.596-.011 5.692-.009l5.629.003.096.074m-10.78 4.42V10H10V3.013H2.987v3.494m6 0v2.506H4V4h4.987v2.507M12 9v3H6v1.014l3.5-.007L13 13l.007-3.5.007-3.5H12v3" fill-rule="evenodd" fill="#000"/></svg>