<svg width="16" height="16" viewBox="0 0 16 16" fill="none" xmlns="http://www.w3.org/2000/svg">
<g id="Group">
<path id="Vector" d="M9.775 11.7944L7.312 11.0944C7.2191 11.068 7.13585 11.0152 7.07232 10.9424C7.00879 10.8696 6.96769 10.78 6.954 10.6844L6.747 9.22741C7.26955 8.98859 7.71254 8.60475 8.0233 8.12151C8.33405 7.63826 8.49951 7.07595 8.5 6.50141V5.12741C8.51213 4.33186 8.21632 3.5624 7.67439 2.97984C7.13246 2.39729 6.38636 2.04673 5.592 2.00141C5.19036 1.98909 4.79034 2.05758 4.41568 2.20282C4.04101 2.34805 3.69935 2.56708 3.41095 2.84689C3.12256 3.1267 2.89332 3.4616 2.73683 3.83171C2.58035 4.20181 2.49981 4.59958 2.5 5.00141V6.50141C2.50049 7.07595 2.66595 7.63826 2.9767 8.12151C3.28746 8.60475 3.73045 8.98859 4.253 9.22741L4.046 10.6804C4.03231 10.776 3.99121 10.8656 3.92768 10.9384C3.86415 11.0112 3.7809 11.064 3.688 11.0904L1.225 11.7904C1.01619 11.8501 0.832499 11.9762 0.701698 12.1496C0.570897 12.323 0.500096 12.5342 0.5 12.7514V15.0014H10.5V12.7554C10.4999 12.5382 10.4291 12.327 10.2983 12.1536C10.1675 11.9802 9.98381 11.8541 9.775 11.7944V11.7944Z" stroke="#1D1D1D" stroke-linecap="round" stroke-linejoin="round"/>
<path id="Vector_2" d="M12.5 15.0014H15.5V11.7824C15.5 11.5595 15.4255 11.343 15.2883 11.1672C15.1512 10.9915 14.9592 10.8666 14.743 10.8124L11.826 10.0834C11.7294 10.0593 11.6423 10.007 11.5756 9.93304C11.509 9.85911 11.466 9.76698 11.452 9.66844L11.247 8.22744C11.7696 7.98862 12.2125 7.60478 12.5233 7.12153C12.8341 6.63829 12.9995 6.07598 13 5.50144V4.12744C13.0121 3.33188 12.7163 2.56242 12.1744 1.97987C11.6325 1.39732 10.8864 1.04675 10.092 1.00144C9.53447 0.984175 8.98316 1.12269 8.5 1.40144" stroke="#1D1D1D" stroke-linecap="round" stroke-linejoin="round"/>
</g>
</svg>
