<svg xmlns="http://www.w3.org/2000/svg" width="16" height="16" fill="none"><path d="M10.36.023a.506.506 0 0 0-.334.634c.027.084.508.579 2.597 2.672 1.766 1.77 2.597 2.585 2.67 2.62a.467.467 0 0 0 .565-.112.46.46 0 0 0 .101-.525c-.028-.067-.391-.45-1.147-1.205L13.707 3l1.096-1.093c.727-.725 1.113-1.13 1.146-1.2a.498.498 0 0 0 .014-.396.583.583 0 0 0-.382-.3c-.259-.039-.242-.052-1.461 1.164l-1.121 1.118-1.093-1.096C11.182.47 10.777.084 10.707.051a.506.506 0 0 0-.347-.028m.933 4.027c-.154.074-7.196 7.127-7.252 7.262a.47.47 0 0 0 .122.546.46.46 0 0 0 .544.091c.074-.035 1.199-1.145 3.67-3.62 3.841-3.846 3.645-3.635 3.616-3.895-.036-.316-.413-.523-.7-.384M.301 10.044c-.256.126-.364.392-.26.644.028.067.391.45 1.147 1.205L2.293 13l-1.096 1.093c-.727.725-1.113 1.13-1.146 1.2a.46.46 0 0 0 .091.544.467.467 0 0 0 .565.112c.07-.033.475-.419 1.2-1.146L3 13.707l1.107 1.105c.755.756 1.138 1.119 1.205 1.147a.47.47 0 0 0 .546-.122.46.46 0 0 0 .101-.525c-.057-.137-5.101-5.19-5.252-5.261a.489.489 0 0 0-.406-.007" fill-rule="evenodd" fill="#000"/></svg>