<svg xmlns="http://www.w3.org/2000/svg" width="24" height="24" fill="none"><path d="M15.252 2.078c-.228.139-.312.413-.195.634.07.131 7.126 7.181 7.25 7.244.375.189.838-.274.649-.649-.024-.048-.767-.812-1.65-1.697L19.7 6l1.606-1.61c.883-.885 1.626-1.649 1.65-1.697.189-.375-.274-.838-.649-.649-.048.024-.811.767-1.697 1.65L19 5.3l-1.61-1.606c-.885-.883-1.649-1.626-1.697-1.65a.458.458 0 0 0-.441.034M16.3 8.046c-.125.067-8.178 8.12-8.243 8.242-.206.388.248.864.636.668.124-.063 8.18-8.113 8.25-8.244.206-.389-.261-.873-.643-.666M2.252 15.078c-.217.133-.311.41-.208.615.024.048.767.812 1.65 1.697L5.3 19l-1.606 1.61c-.883.886-1.626 1.649-1.65 1.697-.189.375.274.838.649.649.048-.024.812-.767 1.697-1.65L6 19.7l1.61 1.606c.885.883 1.649 1.626 1.697 1.65.375.189.838-.274.649-.649-.063-.124-7.113-7.18-7.244-7.25a.446.446 0 0 0-.46.021" fill-rule="evenodd" fill="#000"/></svg>