<svg xmlns="http://www.w3.org/2000/svg" width="24" height="24" fill="none" viewBox="0 0 24 24">
  <path fill="currentColor" fill-rule="evenodd" d="M3.376 5.581A10.702 10.702 0 0 0 1.25 12c0 5.937 4.813 10.75 10.75 10.75 2.406 0 4.627-.79 6.419-2.126a.475.475 0 0 1-.023-.02l-4.937-4.938-.007.003a1.887 1.887 0 0 1-.875.205c-.31 0-.583-.064-.82-.194a1.446 1.446 0 0 1-.562-.54 1.687 1.687 0 0 1-.194-.82c0-.339.08-.63.238-.874l-1.464-1.464c.013.137.02.283.02.436v3.327H8.553V12.58c0-.439-.065-.748-.194-.928-.13-.18-.342-.27-.637-.27-.23 0-.436.057-.616.172-.173.108-.37.27-.594.486v3.705H5.27V8.12h.643L3.396 5.604a.501.501 0 0 1-.02-.023ZM4 4.818a.5.5 0 0 1 .103.078l7.923 7.924c.5-.23 1.203-.392 2.106-.488a1.392 1.392 0 0 0-.108-.497.696.696 0 0 0-.303-.356c-.137-.094-.324-.14-.561-.14-.26 0-.515.046-.767.14a4.49 4.49 0 0 0-.724.356l-.453-.842a4.82 4.82 0 0 1 .637-.335c.23-.108.475-.19.734-.248.26-.065.53-.098.81-.098.44 0 .803.09 1.091.27.295.173.515.432.659.778.151.338.227.756.227 1.253v3.132h-.423l4.152 4.151a.506.506 0 0 1 .078.103A10.723 10.723 0 0 0 22.75 12c0-5.937-4.813-10.75-10.75-10.75-3.176 0-6.03 1.377-7.999 3.568Zm9.796 9.772c.11-.076.222-.166.336-.27v-1.124c-.483.058-.864.133-1.145.227-.095.031-.18.065-.256.101l1.065 1.066Zm-1.56-.147c.032.118.095.21.19.276.05.033.107.06.167.082l-.358-.358ZM6.511 8.72v1.367l-.043 1.026c.223-.21.471-.393.745-.551a1.78 1.78 0 0 1 .892-.248L6.512 8.72ZM.25 12C.25 5.51 5.51.25 12 .25S23.75 5.51 23.75 12 18.49 23.75 12 23.75.25 18.49.25 12Zm17.82 3.853c-.295 0-.532-.058-.712-.173a1.04 1.04 0 0 1-.378-.518 2.396 2.396 0 0 1-.12-.8V8.12h1.243v6.307c0 .159.029.267.086.324a.269.269 0 0 0 .195.087h.075a1.42 1.42 0 0 1 .108-.022l.162.929a1.947 1.947 0 0 1-.659.108Z" clip-rule="evenodd"/>
</svg>
