<svg xmlns="http://www.w3.org/2000/svg" width="16" height="16" fill="none"><path d="M7.467.019c-.27.016-.784.089-1.12.158C3.324.796.878 3.204.2 6.228.047 6.91.017 7.206.017 8S.047 9.09.2 9.772a8.017 8.017 0 0 0 2.995 4.621c1.062.806 2.286 1.312 3.711 1.534.523.082 1.665.082 2.188 0 1.944-.303 3.596-1.179 4.836-2.565 1.1-1.229 1.735-2.587 1.997-4.268.083-.534.082-1.662-.003-2.214-.392-2.556-1.852-4.658-4.101-5.905-1.28-.71-2.828-1.05-4.356-.956m1.301 1.022a7.02 7.02 0 0 1 6.191 6.191c.036.333.036 1.175 0 1.509-.168 1.548-.832 2.967-1.936 4.134l-.21.222-1.013-1.015-1.013-1.015h.226V9.593c0-1.545-.008-1.678-.122-2.023-.225-.686-.741-1.037-1.525-1.037-.279 0-.659.061-.939.151-.238.076-.854.375-.854.414 0 .045.351.692.37.683l.298-.147c.375-.186.557-.232.919-.233.277-.001.301.004.438.079a.688.688 0 0 1 .336.423c.042.142.053.31.019.31-.011.001-.179.024-.374.053a6.04 6.04 0 0 0-1.086.251l-.186.068-2.702-2.699-2.702-2.699.222-.21c1.151-1.09 2.581-1.764 4.102-1.934a12.189 12.189 0 0 1 1.541-.002M2.625 4.345l.345.346-.185.008-.185.008v6.346l.513.008.514.007V7.981l.14-.132c.17-.16.352-.287.521-.363.178-.08.533-.079.689.001.144.075.238.19.295.361.041.124.047.302.055 1.679l.009 1.54h1.037V8.094l.571.57.57.57-.036.087a1.47 1.47 0 0 0-.094.572c.001.368.1.629.33.872.258.274.558.391.993.389a1.35 1.35 0 0 0 .44-.057l.173-.056 1.34 1.339c.737.737 1.34 1.346 1.339 1.353a.598.598 0 0 1-.126.098c-.907.605-1.936.981-3.1 1.133-.412.054-1.278.039-1.733-.029a6.93 6.93 0 0 1-2.244-.711 6.82 6.82 0 0 1-1.732-1.264 6.99 6.99 0 0 1-2.026-4.248c-.04-.406-.018-1.407.039-1.765.114-.714.347-1.44.666-2.075.173-.344.49-.872.524-.872.008 0 .169.155.358.345m9.642 3.096c0 2.439.005 2.77.043 2.94.112.499.376.727.877.758.187.011.577-.041.619-.082a7.701 7.701 0 0 0-.113-.704c-.012-.05-.032-.06-.122-.06-.123 0-.195-.031-.228-.099-.013-.026-.029-1.271-.036-2.767l-.014-2.72-.513-.008-.513-.007v2.749m-7.481-.906a.402.402 0 0 1-.136.035c-.176.024-.474.175-.731.37l-.274.206c-.053.039-.054.037-.036-.17.01-.116.018-.53.018-.92v-.709l.585.585c.322.321.58.593.574.603m5.187 2.874v.475l-.102.083-.103.082-.434-.435c-.488-.489-.477-.451-.16-.535.172-.046.664-.139.753-.143.042-.002.046.037.046.473" fill="currentColor" fill-rule="evenodd"/></svg>