<svg xmlns="http://www.w3.org/2000/svg" width="16" height="16" fill="none" viewBox="0 0 16 16">
  <path fill="currentColor" fill-rule="evenodd" d="M2.27 3.978a7 7 0 0 0 9.752 9.752l-2.695-2.696c-.197.085-.41.128-.637.128-.258 0-.486-.054-.684-.162a1.205 1.205 0 0 1-.468-.45 1.406 1.406 0 0 1-.162-.684c0-.241.048-.454.145-.637L6.366 8.073c.003.067.005.137.005.209v2.772H5.336V8.417c0-.366-.054-.624-.162-.774-.108-.15-.285-.225-.531-.225a.931.931 0 0 0-.513.144 3.14 3.14 0 0 0-.495.405v3.087H2.6V4.7h.393l-.723-.722Zm.636-.78 5.39 5.39c.412-.176.975-.302 1.69-.378a1.16 1.16 0 0 0-.09-.414.58.58 0 0 0-.252-.297c-.114-.078-.27-.117-.468-.117-.216 0-.43.039-.64.117a3.741 3.741 0 0 0-.602.297l-.378-.702c.162-.102.339-.195.53-.28a2.94 2.94 0 0 1 .613-.206c.216-.054.44-.081.675-.081.366 0 .668.075.909.225.245.144.428.36.549.648.125.282.188.63.188 1.044v2.61h-.259l2.04 2.04a7 7 0 1 0-9.895-9.895Zm6.854 6.855c.075-.055.15-.117.226-.187V8.93c-.402.048-.72.111-.954.189a2.046 2.046 0 0 0-.15.056l.878.878Zm-6.125-4.71v.995l-.036.855c.186-.174.393-.327.621-.459.18-.11.383-.175.609-.198L3.635 5.342ZM0 8a8 8 0 1 1 16 0A8 8 0 0 1 0 8Zm13.267 3.144c-.246 0-.444-.048-.594-.144a.867.867 0 0 1-.315-.432 1.997 1.997 0 0 1-.099-.666V4.7h1.035v5.256c0 .132.024.222.072.27a.224.224 0 0 0 .162.072h.063c.024-.006.054-.012.09-.018l.135.774a1.622 1.622 0 0 1-.549.09Z" clip-rule="evenodd"/>
</svg>
