<svg xmlns="http://www.w3.org/2000/svg" width="24" height="24" fill="none"><path d="M11.297.281C10.252.342 9.322.521 8.3.858c-2.431.8-4.515 2.368-5.995 4.51C.817 7.521.057 10.341.281 12.88a12.112 12.112 0 0 0 1.024 3.982c1.145 2.543 3.29 4.688 5.833 5.833a11.765 11.765 0 0 0 9.672.024c2.574-1.151 4.732-3.298 5.884-5.855A11.453 11.453 0 0 0 23.737 12c0-1.411-.183-2.511-.636-3.834a11.747 11.747 0 0 0-4.461-5.854A11.757 11.757 0 0 0 11.297.281m1.3 1c.774.047 1.282.12 1.953.283a10.757 10.757 0 0 1 7.886 7.886c.25 1.033.345 2.11.28 3.194a10.577 10.577 0 0 1-1.964 5.582c-.409.573-.581.776-1.114 1.316l-.436.442-2.101-2.102L15 15.78l.18-.012.18-.012v-1.832c0-2.015-.012-2.136-.265-2.671-.213-.45-.687-.794-1.236-.897-.49-.093-1.281.011-1.859.242-.296.118-.76.371-.76.413 0 .059.405.789.438.789.017 0 .2-.08.407-.178.451-.213.637-.26 1.046-.261.466-.001.707.124.877.455a.947.947 0 0 1 .086.337l.006.18-.48.07a7.038 7.038 0 0 0-1.367.323l-.223.083-4.005-4.002L4.02 4.804l.18-.193c1.809-1.939 4.425-3.166 7.089-3.327l.591-.038c.033-.003.356.013.717.035M5.58 8.112l-.3.011V15.76h1.24v-3.746l.25-.203c.399-.323.521-.381.848-.402.358-.023.54.032.698.212.212.241.217.293.234 2.289l.016 1.85H9.8v-3.739l.715.714.716.715-.099.217c-.135.294-.166.741-.076 1.092.124.482.426.821.898 1.007.318.126.923.125 1.265 0l.239-.088 2.469 2.469c1.357 1.357 2.459 2.482 2.449 2.5-.044.07-.942.64-1.336.847a10.751 10.751 0 0 1-7.58.949 10.754 10.754 0 0 1-7.617-6.94c-.932-2.702-.732-5.784.54-8.309.191-.38.586-1.04.806-1.349l.181-.254 1.256 1.254L5.881 8.1l-.301.012m11.261 3.198c.002 3.294.013 3.562.168 3.93.085.203.257.391.446.489.318.164 1.268.133 1.263-.042a6.154 6.154 0 0 0-.072-.447l-.069-.38-.139-.013a.449.449 0 0 1-.228-.097l-.09-.084V8.12h-1.28l.001 3.19m-9.031-.961c-.322.059-.644.219-1.046.521l-.297.222.027-.492c.014-.271.026-.8.026-1.176v-.683l.78.779.78.779-.27.05m6.31 3.421v.57l-.138.11a.634.634 0 0 1-.17.11c-.018 0-.266-.233-.551-.519l-.517-.518.158-.067c.133-.055.573-.158.978-.228.257-.044.24-.082.24.542m-1.62.984c-.027.026-.178-.115-.229-.214-.025-.049.014-.027.103.057.08.076.136.146.126.157" fill="currentColor" fill-rule="evenodd"/></svg>