<svg xmlns="http://www.w3.org/2000/svg" width="24" height="24" fill="none" viewBox="0 0 24 24"><path stroke="currentColor" stroke-miterlimit="10" d="M18.994 15.857a1.373 1.373 0 0 0 1.991-.05 1.374 1.374 0 0 0-.034-1.881l-5.008-5.137"/><path stroke="currentColor" stroke-linecap="square" stroke-miterlimit="10" d="m13.997 18.877.647.647A1.411 1.411 0 0 1 14 21.89M18.006 14.867l1.378 1.38a1.422 1.422 0 1 1-2.011 2.01l-1.378-1.378"/><path stroke="currentColor" stroke-linecap="square" stroke-miterlimit="10" d="M17.1 17.985a1.411 1.411 0 1 1-1.997 1.997M4.855 15.55l-.373.373a1.422 1.422 0 1 0 2.012 2.011l.373-.373a1.422 1.422 0 1 0-2.012-2.01ZM9.09 19.333l-.191.19a1.412 1.412 0 0 0 1.997 1.998l.19-.19a1.412 1.412 0 1 0-1.997-1.998Z"/><path stroke="currentColor" stroke-linecap="square" stroke-miterlimit="10" d="m4.85 15.556-.21.21a1.374 1.374 0 0 1-2.347-.997c.007-.35.145-.684.389-.934l.21-.216a1.377 1.377 0 1 1 1.958 1.937ZM21 10.934V9.248l1.5-1.526L17.279 2.5l-.934.934H14c-1.167 0-2.287.46-3.117 1.28L7.55 8.18a1.232 1.232 0 0 0 1.575 1.877l3.55-2.288a3.224 3.224 0 0 0 4.881-.05M3 10.934V9.248L1.5 7.721 6.721 2.5l.934.934H9.5M6.875 17.554l-.106.106a1.412 1.412 0 1 0 1.997 1.997l.105-.106a1.412 1.412 0 1 0-1.996-1.997Z"/></svg>