<svg xmlns="http://www.w3.org/2000/svg" width="16" height="16" fill="none" viewBox="0 0 16 16">
  <path fill="#1D1D1D" fill-rule="evenodd" d="M0 1h6v1H1v5H0V1Zm9.147.117C9.475 1.03 9.794 1 10 1h6v6h-1V2h-5c-.127 0-.359.02-.597.083-.246.066-.453.174-.563.284L5.36 5.35l-.038.056a.945.945 0 0 0-.108.228c-.047.154-.052.322.14.513v.002c.01.01.054.055.156.078.103.023.333.036.733-.157l3.811-2.722 4.8 4.8c.19.189.523.578.723 1.035.197.454.316 1.132-.223 1.672-.37.369-.807.644-1.319.656l-.093-.001c.005.443-.16.916-.588 1.345-.26.26-.675.382-1.034.4a1.856 1.856 0 0 1-.469-.034c-.17.436-.51.918-1.127 1.227l-.448-.894c.455-.227.64-.615.7-.87l-1.83-1.83.708-.707 2 2c.062.063.204.12.415.11a.93.93 0 0 0 .264-.051.523.523 0 0 0 .085-.04c.021-.011.028-.019.028-.019.285-.284.318-.539.285-.74a1.081 1.081 0 0 0-.285-.552l-2-2 .708-.708 2 2c.302.303.515.367.658.364.148-.004.355-.084.634-.364.11-.108.145-.264.014-.564a2.632 2.632 0 0 0-.514-.728l-4.2-4.2L6.759 6.93c-.58.29-1.09.356-1.466.272a1.29 1.29 0 0 1-.647-.348 1.458 1.458 0 0 1-.388-1.514 1.944 1.944 0 0 1 .317-.61c.013-.016.114-.134.073-.087l3.513-3.011c.289-.281.671-.432.986-.515ZM1.707 8.354a1.5 1.5 0 0 1 2.121 2.12l-.353.354a1.5 1.5 0 1 1-2.121-2.12l.353-.354Zm1.414.707a.5.5 0 0 0-.707 0l-.353.353a.5.5 0 1 0 .707.707l.353-.353a.5.5 0 0 0 0-.707Z" clip-rule="evenodd"/>
  <path fill="#1D1D1D" fill-rule="evenodd" d="M3.121 9.768a1.5 1.5 0 1 1 2.122 2.121l-.354.354a1.5 1.5 0 1 1-2.121-2.122l.353-.353Zm1.415.707a.5.5 0 0 0-.708 0l-.353.353a.5.5 0 0 0 .707.708l.354-.354a.5.5 0 0 0 0-.707Z" clip-rule="evenodd"/>
  <path fill="#1D1D1D" fill-rule="evenodd" d="M4.536 11.182a1.5 1.5 0 1 1 2.12 2.121l-.353.354a1.5 1.5 0 0 1-2.121-2.121l.354-.354Zm1.414.707a.5.5 0 0 0-.707 0l-.354.354a.5.5 0 1 0 .707.707l.354-.354a.5.5 0 0 0 0-.707Z" clip-rule="evenodd"/>
  <path fill="#1D1D1D" fill-rule="evenodd" d="M5.95 12.596a1.5 1.5 0 1 1 2.121 2.121l-.353.354a1.5 1.5 0 1 1-2.122-2.121l.354-.354Zm1.414.707a.5.5 0 0 0-.707 0l-.354.354a.5.5 0 1 0 .707.707l.354-.354a.5.5 0 0 0 0-.707Z" clip-rule="evenodd"/>
</svg>
