<svg xmlns="http://www.w3.org/2000/svg" width="16" height="16" fill="none" viewBox="0 0 16 16"><path stroke="currentColor" stroke-linecap="square" d="M12.875 10.375a1.238 1.238 0 0 0 1.75-1.75L10 4M.5 6.5v-5h5"/><path stroke="currentColor" stroke-linecap="square" d="m11.5 9 1.513 1.513a1.238 1.238 0 0 1-1.75 1.75l-1.527-1.527"/><path stroke="currentColor" stroke-linecap="square" d="M10.875 11.875a1.238 1.238 0 0 1 0 1.75M10 4 6.551 6.587a1.115 1.115 0 0 1-1.457-1.681l3.059-2.667a3 3 0 0 1 1.971-.739H15.5v5M1.875 8.125l-.25.25a1.237 1.237 0 0 0 0 1.75h0a1.237 1.237 0 0 0 1.75 0l.25-.25a1.237 1.237 0 0 0 0-1.749h0a1.237 1.237 0 0 0-1.75 0ZM3.695 9.806l-.388.388a1.237 1.237 0 0 0 0 1.75h0a1.237 1.237 0 0 0 1.75 0l.388-.388a1.237 1.237 0 0 0 0-1.75h0a1.237 1.237 0 0 0-1.75 0Z"/><path stroke="currentColor" stroke-linecap="square" d="m5.307 11.693-.25.25a1.237 1.237 0 0 0 0 1.75h0a1.237 1.237 0 0 0 1.75 0l.25-.25a1.237 1.237 0 0 0 0-1.75h0a1.237 1.237 0 0 0-1.75 0Z"/><path stroke="currentColor" stroke-linecap="square" d="m7.077 13.424-.26.259a1.06 1.06 0 1 0 1.5 1.5l.26-.26a1.06 1.06 0 1 0-1.5-1.5Z"/></svg>