<svg width="48" height="48" viewBox="0 0 48 48" fill="none" xmlns="http://www.w3.org/2000/svg">
<path d="M38.489 32.344C38.7524 32.6072 39.0666 32.8141 39.4125 32.9522C39.7583 33.0903 40.1286 33.1567 40.5009 33.1473C40.8732 33.138 41.2397 33.0531 41.5782 32.8978C41.9167 32.7425 42.2201 32.5201 42.47 32.244V32.244C42.9389 31.7259 43.1929 31.0488 43.1805 30.3502C43.168 29.6516 42.89 28.984 42.403 28.483L32.387 18.21" stroke="#0A8276" stroke-linecap="round" stroke-linejoin="round"/>
<path d="M28.494 38.385L29.788 39.679C30.0503 39.9412 30.2583 40.2526 30.4003 40.5952C30.5422 40.9379 30.6153 41.3051 30.6153 41.676C30.6153 42.0469 30.5422 42.4141 30.4003 42.7568C30.2583 43.0994 30.0503 43.4108 29.788 43.673V43.673C29.4324 44.0295 28.9876 44.2841 28.5 44.41" stroke="#0A8276" stroke-linecap="round" stroke-linejoin="round"/>
<path d="M36.511 30.366L39.268 33.124C39.5322 33.388 39.7418 33.7015 39.8848 34.0465C40.0278 34.3916 40.1014 34.7615 40.1014 35.135C40.1014 35.5085 40.0278 35.8783 39.8848 36.2234C39.7418 36.5684 39.5322 36.8819 39.268 37.146C39.004 37.4102 38.6905 37.6198 38.3454 37.7628C38.0004 37.9058 37.6305 37.9794 37.257 37.9794C36.8835 37.9794 36.5136 37.9058 36.1686 37.7628C35.8235 37.6198 35.51 37.4102 35.246 37.146L32.49 34.389" stroke="#0A8276" stroke-linecap="round" stroke-linejoin="round"/>
<path d="M34.7 36.6C34.9623 36.8622 35.1703 37.1735 35.3123 37.5162C35.4542 37.8588 35.5273 38.2261 35.5273 38.597C35.5273 38.9679 35.4542 39.3351 35.3123 39.6778C35.1703 40.0204 34.9623 40.3317 34.7 40.594V40.594C34.1701 41.1232 33.4519 41.4204 32.703 41.4204C31.9541 41.4204 31.2359 41.1232 30.706 40.594" stroke="#0A8276" stroke-linecap="round" stroke-linejoin="round"/>
<path d="M10.211 31.7318L9.46499 32.4778C8.35434 33.5884 8.35434 35.3891 9.46499 36.4998C10.5756 37.6104 12.3764 37.6104 13.487 36.4998L14.233 35.7538C15.3437 34.6431 15.3437 32.8424 14.233 31.7318C13.1224 30.6211 11.3216 30.6211 10.211 31.7318Z" stroke="#0A8276" stroke-linecap="round" stroke-linejoin="round"/>
<path d="M18.6784 39.2974L18.2972 39.6785C17.1944 40.7814 17.1944 42.5694 18.2972 43.6723C19.4001 44.7751 21.1881 44.7751 22.291 43.6723L22.6721 43.2912C23.7749 42.1883 23.7749 40.4003 22.6721 39.2974C21.5693 38.1946 19.7812 38.1946 18.6784 39.2974Z" stroke="#0A8276" stroke-linecap="round" stroke-linejoin="round"/>
<path d="M10.2 31.743L9.78 32.163C9.51655 32.4262 9.20236 32.6331 8.85651 32.7712C8.51066 32.9093 8.14035 32.9757 7.76807 32.9664C7.39578 32.957 7.02928 32.8721 6.6908 32.7168C6.35231 32.5616 6.04891 32.3391 5.799 32.063V32.063C5.32949 31.545 5.07488 30.8677 5.08696 30.1687C5.09903 29.4696 5.37688 28.8015 5.864 28.3L6.284 27.87C6.79071 27.3522 7.48106 27.0549 8.20545 27.0425C8.92985 27.0302 9.62994 27.3038 10.154 27.804C10.4196 28.0574 10.6318 28.3612 10.7782 28.6978C10.9246 29.0344 11.0022 29.3968 11.0065 29.7638C11.0108 30.1308 10.9417 30.495 10.8032 30.8349C10.6647 31.1748 10.4596 31.4835 10.2 31.743V31.743Z" stroke="#0A8276" stroke-linecap="round" stroke-linejoin="round"/>
<path d="M42.5 22.5V19.125L45.5 16.073L35.058 5.63098L33.19 7.49998H28.5C26.1657 7.49946 23.9254 8.41931 22.265 10.06L15.6 16.991C15.1777 17.4291 14.9325 18.008 14.9115 18.6161C14.8906 19.2242 15.0954 19.8186 15.4866 20.2848C15.8777 20.7509 16.4275 21.0558 17.03 21.1408C17.6325 21.2258 18.2452 21.0848 18.75 20.745L25.85 16.17C26.4626 16.8649 27.2178 17.4197 28.0641 17.7967C28.9104 18.1736 29.828 18.3638 30.7544 18.3543C31.6808 18.3448 32.5943 18.1359 33.4327 17.7417C34.2711 17.3475 35.0147 16.7773 35.613 16.07" stroke="#0A8276" stroke-linecap="round" stroke-linejoin="round"/>
<path d="M6.5 22.5V19.125L3.5 16.073L13.942 5.63098L15.81 7.49998H19.5" stroke="#0A8276" stroke-linecap="round" stroke-linejoin="round"/>
<path d="M14.2491 35.7397L14.0377 35.9511C12.9349 37.054 12.9349 38.842 14.0377 39.9449C15.1405 41.0477 16.9286 41.0477 18.0314 39.9449L18.2429 39.7334C19.3457 38.6306 19.3457 36.8425 18.2429 35.7397C17.14 34.6369 15.352 34.6369 14.2491 35.7397Z" stroke="#0A8276" stroke-linecap="round" stroke-linejoin="round"/>
</svg>
