<svg xmlns="http://www.w3.org/2000/svg" width="16" height="16" fill="none"><path d="M0 4.014v3.001l.5-.008L1 7l.007-2.5.007-2.5H6v-.987H0v3.001m9.667-2.983a3.606 3.606 0 0 0-1.774.779c-.708.591-3.239 2.827-3.313 2.928a1.49 1.49 0 0 0-.262.562c-.143.559.01 1.107.426 1.528.307.311.612.446 1.059.471.585.032.604.022 2.541-1.431l1.611-1.207 2.193 2.196c1.206 1.208 2.214 2.238 2.24 2.289a.91.91 0 0 1 .06.274.662.662 0 0 1-.202.558.717.717 0 0 1-.768.192c-.117-.039-.235-.147-1.052-.96l-.921-.916-.351.353-.352.353.96.967c1.063 1.069 1.074 1.084 1.074 1.393 0 .294-.141.53-.391.652a.694.694 0 0 1-.541.056c-.155-.045-.174-.062-1.158-1.043l-1-.998-.359.36-.36.36.789.793c.434.436.807.824.829.86.095.155.106.468.025.652a1.815 1.815 0 0 1-.273.348l-.22.23.353.351.353.352.259-.269c.292-.304.435-.525.516-.797l.055-.187h.377c.417 0 .524-.024.848-.192.423-.219.767-.674.874-1.155.015-.066.027-.211.027-.323l.001-.203.146-.017c.332-.039.69-.222.953-.487a1.66 1.66 0 0 0 .437-.69 1.72 1.72 0 0 0-.266-1.58c-.066-.084-1.147-1.179-2.404-2.433-1.256-1.254-2.353-2.371-2.439-2.481-.197-.257-.23-.26-.46-.036-.168.164-3.507 2.683-3.677 2.773-.127.068-.377.063-.52-.01a.597.597 0 0 1-.33-.557c0-.288-.033-.254 1.633-1.706.838-.731 1.591-1.382 1.672-1.446.346-.27.767-.452 1.184-.508C9.904 2.01 10.851 2 12.482 2h2.504l.007 2.5L15 7l.5.007.5.008V1.013l-3.127.004a311.37 311.37 0 0 0-3.206.014M1.72 7.578c-.421.427-.671.702-.731.804a1.705 1.705 0 0 0-.218.845c0 .334.036.496.177.79.25.52.773.894 1.343.958l.162.019.001.163c.003.81.712 1.564 1.537 1.634l.19.016.019.177c.081.765.636 1.38 1.382 1.534.112.023.251.042.31.042.095 0 .109.008.122.073.082.401.196.632.428.874.483.504 1.178.625 1.823.318.169-.08.25-.145.523-.42.19-.191.358-.387.408-.476.183-.324.236-.77.138-1.154-.072-.282-.186-.472-.425-.708a1.425 1.425 0 0 0-.782-.421l-.207-.041v-.109a1.809 1.809 0 0 0-.191-.709c-.217-.442-.691-.817-1.142-.904a17.5 17.5 0 0 1-.227-.044c-.047-.009-.054-.034-.058-.215a1.497 1.497 0 0 0-.175-.704c-.088-.186-.148-.267-.337-.455-.343-.34-.619-.469-1.07-.502l-.227-.016-.021-.171c-.048-.396-.202-.698-.51-1.003-.372-.369-.723-.504-1.27-.489l-.317.009-.007-.181-.008-.182-.64.648m1.274.731c.398.135.602.64.411 1.013-.092.178-.45.527-.616.6a.733.733 0 0 1-.958-.373c-.079-.176-.076-.455.008-.615.115-.222.482-.564.681-.635a.853.853 0 0 1 .474.01m1.901 1.711a.75.75 0 0 1 .337.973c-.065.147-.605.682-.759.752a.756.756 0 0 1-.612-.02.702.702 0 0 1-.404-.658c0-.246.068-.378.342-.663.366-.38.521-.465.814-.448a.793.793 0 0 1 .282.064m1.645 1.908c.145.085.25.204.321.363.069.155.055.487-.025.613-.087.138-.486.528-.591.579a.959.959 0 0 1-.528.04c-.286-.077-.517-.394-.517-.707.001-.235.081-.384.35-.648.286-.281.396-.333.666-.32.161.007.229.024.324.08m1.534 1.749a.527.527 0 0 1 .299.496c0 .202-.058.306-.31.55-.235.227-.341.276-.558.258-.345-.029-.575-.391-.464-.731.039-.12.389-.495.532-.571a.65.65 0 0 1 .501-.002" fill-rule="evenodd" fill="#000"/></svg>