<svg xmlns="http://www.w3.org/2000/svg" width="16" height="16" fill="none"><path d="M7.627 2.017a6.435 6.435 0 0 0-2.031.451A6.523 6.523 0 0 0 2.13 5.723l-.128.269-.181.019A1.996 1.996 0 0 0 .197 7.133c-.262.549-.265 1.213-.009 1.724.106.212.282.46.416.587.243.229.682.462.972.513.093.017.098.024.144.197a6.492 6.492 0 0 0 3.905 4.393c.77.303 1.533.447 2.375.447a5.92 5.92 0 0 0 1.585-.193 6.487 6.487 0 0 0 4.054-3.079c.259-.451.5-1.041.641-1.568.046-.173.051-.18.144-.197.177-.031.513-.175.692-.296.228-.154.355-.275.497-.474.27-.379.387-.733.387-1.174 0-1.052-.767-1.896-1.822-2.002l-.183-.019-.126-.27a6.52 6.52 0 0 0-3.465-3.254 6.429 6.429 0 0 0-2.777-.451m1.014 1.024a5.51 5.51 0 0 1 3.653 2.029c.384.479.644.953.892 1.623.084.228.157.418.161.423.005.005.126-.017.269-.05.62-.141 1.049.026 1.283.501.093.188.101.221.1.432 0 .191-.012.253-.072.383a.996.996 0 0 1-.357.441c-.203.135-.346.168-.737.173L13.481 9l-.021.133a8.85 8.85 0 0 1-.232 1.04 5.516 5.516 0 0 1-3.108 3.399 5.504 5.504 0 0 1-4.25-.004c-1.466-.609-2.629-1.892-3.11-3.429a7.721 7.721 0 0 1-.214-.974.758.758 0 0 0-.036-.173c-.012-.02-.101-.023-.284-.009a2.307 2.307 0 0 1-.394 0c-.321-.05-.6-.266-.747-.578-.074-.157-.084-.206-.085-.406 0-.211.008-.244.101-.432.234-.475.663-.642 1.283-.501.143.033.264.055.269.05.004-.005.077-.195.161-.423.312-.847.657-1.409 1.225-1.996.304-.314.64-.593.985-.817.248-.162.775-.436.973-.505.116-.041.116-.041.098.018a1.933 1.933 0 0 0-.053.972c.091.44.244.725.556 1.037.238.238.491.4.762.486.502.159.761.154 1.393-.028.211-.06.287-.093.287-.124a10.34 10.34 0 0 0-.275-.9c-.008-.008-.12.017-.25.055-.393.115-.496.127-.707.083a1.002 1.002 0 0 1-.706-.547c-.068-.132-.075-.174-.075-.414 0-.236.008-.285.074-.426.118-.252.323-.44.581-.53.141-.049.62-.057.959-.016M5.157 6.04c-.529.115-.991.578-1.119 1.123-.06.252-.039.601.051.847a1.49 1.49 0 0 0 1.402.984 1.44 1.44 0 0 0 1.174-.556c.228-.275.33-.568.329-.947A1.404 1.404 0 0 0 6.55 6.44a1.485 1.485 0 0 0-1.393-.4m5.003.002c-.517.111-.952.53-1.108 1.066-.065.224-.06.612.012.841.1.318.343.627.651.827.585.38 1.416.262 1.893-.269.249-.277.361-.545.383-.92.06-1.002-.838-1.76-1.831-1.545M5.732 7.066a.477.477 0 0 1 .142.747c-.161.188-.365.236-.584.136a.455.455 0 0 1-.271-.39.849.849 0 0 1 .004-.209c.022-.085.139-.224.243-.287.11-.067.331-.066.466.003m4.983-.015a.707.707 0 0 1 .242.247c.047.092.036.319-.021.43a.426.426 0 0 1-.249.231c-.209.087-.405.036-.561-.146a.486.486 0 0 1 .147-.755c.108-.054.345-.057.442-.007M5.956 10.86a9.525 9.525 0 0 0-.218.439c-.009.034.542.32.849.442.857.339 1.969.339 2.826 0 .307-.122.858-.408.849-.442-.021-.08-.429-.846-.452-.846-.013 0-.168.072-.344.16-.553.278-.943.378-1.466.378s-.913-.1-1.466-.378a3.765 3.765 0 0 0-.344-.16c-.014 0-.119.183-.234.407" fill-rule="evenodd" fill="#000"/></svg>