<svg xmlns="http://www.w3.org/2000/svg" width="16" height="16" fill="currentColor" viewBox="0 0 16 16">
  <path fill-rule="evenodd" d="M8 1.5a6.493 6.493 0 0 1 5.995 4A2.003 2.003 0 0 1 16 7.5a2 2 0 0 1-1.675 1.974 6.492 6.492 0 0 1-12.65 0A2 2 0 0 1 2 5.5a6.536 6.536 0 0 1 2.23-2.794 6.494 6.494 0 0 1 3.481-1.2L8 1.5Zm0 1a1 1 0 1 0 .29 1.957l.48-.145.29.957-.48.145a2 2 0 0 1-2.465-2.58 5.493 5.493 0 0 0-3.308 3.37l-.147.426-.44-.103A1 1 0 1 0 1.983 8.5l.02-.002a.873.873 0 0 1 .053-.005l.452-.03.074.447a5.492 5.492 0 0 0 10.836 0l.07-.419h.423a.696.696 0 0 1 .11.01 1 1 0 1 0-.242-1.974l-.439.103-.147-.427A5.493 5.493 0 0 0 8 2.5Zm1.82 7.433.461.887-.443.231a3.983 3.983 0 0 1-3.676 0l-.443-.23.461-.888.444.23a2.981 2.981 0 0 0 2.752 0l.444-.23ZM5.5 5.5a1.5 1.5 0 1 1 0 3 1.5 1.5 0 0 1 0-3Zm5 0a1.5 1.5 0 1 1 0 3 1.5 1.5 0 0 1 0-3Zm-5 1a.5.5 0 1 0 0 1 .5.5 0 0 0 0-1Zm5 0a.5.5 0 1 0 0 1 .5.5 0 0 0 0-1Z" clip-rule="evenodd"/>
</svg>
