<svg xmlns="http://www.w3.org/2000/svg" width="24" height="24" fill="none"><path d="M11.54 3.025c-2.962.164-5.628 1.65-7.349 4.095-.262.374-.709 1.17-.867 1.547l-.135.324-.318.027c-.696.061-1.165.274-1.631.741-.701.702-.914 1.656-.583 2.608a2.438 2.438 0 0 0 1.226 1.37c.195.098.436.19.536.205.1.015.19.04.2.056.01.016.064.243.121.505a9.532 9.532 0 0 0 7.94 7.404c.629.099 2.034.1 2.662.002a9.609 9.609 0 0 0 2.838-.887 9.503 9.503 0 0 0 4.112-3.886c.41-.727.818-1.802.985-2.596l.103-.485c.014-.062.06-.091.173-.109.084-.014.251-.064.37-.113 1.431-.581 1.999-2.27 1.218-3.618a3.066 3.066 0 0 0-.397-.475 2.427 2.427 0 0 0-1.627-.719l-.285-.016-.171-.38a8.649 8.649 0 0 0-.758-1.365 9.699 9.699 0 0 0-2.683-2.681c-.507-.339-1.541-.847-2.146-1.054-1.063-.363-2.452-.56-3.534-.5m1.653 1.079c3.091.404 5.794 2.632 6.83 5.632.156.451.174.469.395.385.057-.022.223-.059.369-.082a1.49 1.49 0 0 1 1.566.833c.095.202.107.276.107.648 0 .384-.01.44-.117.651-.14.277-.469.599-.731.716-.144.064-.307.091-.652.109l-.459.024-.07.515a8.359 8.359 0 0 1-.84 2.762 8.421 8.421 0 0 1-3.743 3.776 8.225 8.225 0 0 1-3.548.914c-2.574.095-5.107-1.024-6.745-2.981-1.049-1.254-1.71-2.719-1.934-4.286l-.084-.586-.019-.126-.469-.017c-.367-.013-.51-.036-.659-.103-.265-.119-.575-.422-.724-.707-.117-.225-.125-.268-.126-.661 0-.372.012-.446.107-.648.142-.303.416-.57.744-.723.234-.109.307-.124.588-.121.177.003.411.033.521.068.315.099.323.095.423-.206a8.625 8.625 0 0 1 4.985-5.285c.416-.164.85-.3.876-.274.009.009-.011.071-.045.138a3.271 3.271 0 0 0-.145.455c-.31 1.228.39 2.51 1.606 2.94a2.551 2.551 0 0 0 1.834-.085c.154-.071.208-.116.191-.159a7.189 7.189 0 0 0-.245-.438l-.222-.377-.189.084a1.559 1.559 0 0 1-1.016.039 1.476 1.476 0 0 1-.954-.968c-.28-.828.27-1.772 1.118-1.921.232-.04.89-.011 1.476.065M8.16 9.045c-.755.124-1.437.785-1.596 1.547a1.995 1.995 0 1 0 3.941.548c.082-.999-.686-1.953-1.687-2.098-.318-.046-.357-.046-.658.003m7 0c-.359.059-.773.28-1.058.566a1.867 1.867 0 0 0-.582 1.386c.001.565.193 1.035.58 1.423.393.394.845.577 1.426.579.974.003 1.806-.727 1.959-1.72.057-.369-.018-.805-.203-1.181-.259-.526-.876-.971-1.463-1.056-.319-.046-.358-.046-.659.003m-6.204 1.074a1 1 0 0 1 .509 1.167c-.201.688-1.046.946-1.587.483-.619-.53-.379-1.531.415-1.733.178-.044.492-.005.663.083m6.839-.057a.995.995 0 0 1 .579 1.422c-.186.341-.487.517-.883.515-.137 0-.297-.031-.393-.074-.203-.093-.469-.392-.531-.597-.165-.551.136-1.13.662-1.271.254-.069.319-.068.566.005m-6.45 6.268c-.266.423-.414.734-.372.777.104.103.831.455 1.207.584.67.231 1.029.287 1.82.287.791 0 1.15-.056 1.82-.287.376-.129 1.105-.482 1.206-.584.035-.036-.005-.138-.164-.419a4.645 4.645 0 0 0-.252-.414c-.029-.029-.159.022-.421.163-.735.397-1.326.543-2.189.543-.861 0-1.454-.147-2.182-.539a5.216 5.216 0 0 0-.394-.201c-.012 0-.048.04-.079.09" fill="currentColor" fill-rule="evenodd"/></svg>