<svg xmlns="http://www.w3.org/2000/svg" width="24" height="24" fill="none" viewBox="0 0 24 24"><path fill="currentColor" d="M21.002 9.509v-.5h-.005l.005.5Zm-.5.07-.472.162.152.444.453-.124-.132-.482Zm-8.49-6.07v.5-.5ZM3.5 9.58l-.131.482.452.123.152-.443L3.5 9.58Zm-.478 3.935v-.5h-.006l.006.5Zm.058-.005.496-.057-.053-.466-.468.023.025.5Zm8.932 7.991v.5-.5Zm8.932-7.992v-.5h-.446l-.05.444.496.056ZM9.846 16.46l-.435-.246-.492.87.435.247.492-.87Zm4.8.87.435-.246-.492-.87-.435.246.492.87Zm6.35-8.32a2.474 2.474 0 0 0-.625.088l.264.964c.121-.033.247-.05.373-.052l-.011-1Zm-.02.407a9.501 9.501 0 0 0-3.46-4.64l-.58.813a8.502 8.502 0 0 1 3.094 4.152l.945-.325Zm-3.46-4.64a9.466 9.466 0 0 0-5.504-1.766v1c1.765 0 3.486.552 4.923 1.579l.582-.814ZM12.013 3.01a9.466 9.466 0 0 0-5.505 1.765l.582.814a8.466 8.466 0 0 1 4.923-1.58v-1ZM6.507 4.775a9.543 9.543 0 0 0-3.48 4.641l.946.325A8.543 8.543 0 0 1 7.089 5.59l-.582-.814ZM3.631 9.096a2.395 2.395 0 0 0-1.037-.054l.162.987c.21-.035.405-.024.613.032l.262-.965Zm-1.037-.054c-.353.058-.689.19-.985.39l.557.83c.177-.12.379-.199.59-.233l-.162-.987Zm-.985.39c-.297.199-.548.46-.736.764l.851.525a1.5 1.5 0 0 1 .442-.459l-.557-.83Zm-.736.764a2.507 2.507 0 0 0-.353 1l.992.126c.027-.213.1-.418.212-.601l-.85-.525Zm-.353 1c-.045.355-.014.715.092 1.057l.955-.296a1.508 1.508 0 0 1-.055-.635l-.992-.126Zm.092 1.057c.106.342.283.657.521.924l.747-.665c-.142-.16-.25-.35-.313-.555l-.955.296Zm.521.924c.238.267.53.48.857.625l.404-.915a1.499 1.499 0 0 1-.514-.375l-.747.665Zm.857.625c.326.144.68.217 1.038.213l-.012-1a1.495 1.495 0 0 1-.622-.128l-.405.915Zm1.032.213c.05 0 .09-.007.1-.008l.006-.001a.294.294 0 0 1-.023.002l-.05-.999a.68.68 0 0 0-.053.005l-.015.002h-.005l-.003.001h.007c.008-.002.02-.002.036-.002v1Zm-.44-.45a9.52 9.52 0 0 0 3.11 6.02l.667-.746a8.52 8.52 0 0 1-2.783-5.387l-.993.113Zm3.11 6.02A9.477 9.477 0 0 0 12.013 22v-1a8.477 8.477 0 0 1-5.653-2.161l-.666.745ZM12.013 22c2.331 0 4.58-.86 6.32-2.416l-.668-.745A8.477 8.477 0 0 1 12.012 21v1Zm6.32-2.416a9.521 9.521 0 0 0 3.109-6.019l-.994-.113a8.52 8.52 0 0 1-2.782 5.387l.666.745Zm2.612-5.575a.394.394 0 0 1-.043-.003c-.007 0-.012-.002-.006 0l.034.004a.624.624 0 0 0 .073.005v-1l.044.002c.007 0 .012.002.005 0l-.034-.004a.647.647 0 0 0-.073-.005v1Zm.058.005c.663 0 1.299-.263 1.767-.733l-.708-.706c-.281.282-.662.44-1.059.44v1Zm1.767-.733c.468-.47.731-1.106.731-1.77h-1c0 .4-.158.782-.44 1.064l.709.706Zm.731-1.77c0-.663-.263-1.3-.731-1.769l-.708.706c.28.282.439.665.439 1.064h1Zm-.731-1.769a2.495 2.495 0 0 0-1.767-.733v1c.397 0 .778.158 1.059.44l.708-.707ZM9.514 11.011a1 1 0 0 1-.998 1.002v1a2 2 0 0 0 1.998-2.002h-1Zm-.998 1.002a1 1 0 0 1-.999-1.002h-1a2 2 0 0 0 1.999 2.002v-1Zm-.999-1.002a1 1 0 0 1 .999-1.002v-1a2 2 0 0 0-1.999 2.002h1Zm.999-1.002a1 1 0 0 1 .998 1.002h1a2 2 0 0 0-1.998-2.002v1Zm7.99 1.002a1 1 0 0 1-.998 1.002v1a2 2 0 0 0 1.998-2.002h-1Zm-.998 1.002a1 1 0 0 1-.998-1.002h-1a2 2 0 0 0 1.998 2.002v-1Zm-.998-1.002a1 1 0 0 1 .998-1.002v-1a2 2 0 0 0-1.998 2.002h1Zm.998-1.002a1 1 0 0 1 .998 1.002h1a2 2 0 0 0-1.998-2.002v1Zm-6.154 7.32c.808.458 1.74.671 2.646.671v-1c-.756 0-1.514-.179-2.154-.54l-.492.87ZM12 18c.907 0 1.838-.213 2.646-.67l-.492-.87c-.64.361-1.398.54-2.154.54v1Zm.76-11.195a1.494 1.494 0 0 1-.65.198l.066.997a2.494 2.494 0 0 0 1.085-.33l-.5-.865Zm-.65.198a1.493 1.493 0 0 1-.67-.111l-.384.923c.354.147.737.21 1.12.185l-.066-.997Zm-.67-.111a1.498 1.498 0 0 1-.554-.398l-.752.659c.252.288.568.515.922.662l.383-.923Zm-.554-.398a1.506 1.506 0 0 1-.32-.602l-.967.258c.1.371.282.714.535 1.003l.752-.659Zm-.32-.602a1.509 1.509 0 0 1-.023-.683l-.98-.194c-.076.376-.063.765.036 1.135l.966-.258Zm-.023-.683c.045-.226.141-.439.281-.622l-.794-.607a2.506 2.506 0 0 0-.468 1.035l.98.194Zm.281-.622a1.5 1.5 0 0 1 .526-.432l-.443-.897a2.5 2.5 0 0 0-.877.722l.794.607Zm.526-.432c.197-.098.422-.145.662-.145v-1c-.373 0-.752.074-1.105.248l.443.897Z"/></svg>