<svg xmlns="http://www.w3.org/2000/svg" width="24" height="24" fill="none"><path d="M9.125 4.446c-.249 1.657-.46 3.027-.471 3.043-.01.017-.954.031-2.098.031H4.478l.011.49.011.49 2.009.01 2.009.011-.02.109c-.011.061-.245 1.613-.519 3.45a287.842 287.842 0 0 1-.518 3.39c-.014.039-.452.05-2.001.05H3.478l.011.49.011.49 1.909.01 1.909.011-.02.109a845.55 845.55 0 0 0-.858 5.753c0 .039.948.205.977.171.012-.014.904-5.944.903-6.004 0-.016 1.35-.03 2.999-.03h2.999l-.02.11c-.036.195-.858 5.708-.858 5.753 0 .039.948.205.977.171.012-.014.904-5.944.903-6.004 0-.016.941-.034 2.09-.04l2.09-.01.011-.49.011-.49h-4.046l.023-.13c.038-.218 1.021-6.798 1.021-6.835 0-.019.896-.039 1.99-.045l1.99-.01.011-.49.011-.49h-3.846l.023-.13c.042-.241.861-5.73.861-5.771 0-.036-.954-.202-.98-.17-.005.006-.211 1.361-.458 3.011a176.136 176.136 0 0 1-.468 3.03c-.01.016-1.359.03-2.998.03h-2.98l.023-.13c.043-.247.861-5.73.861-5.773 0-.023-.157-.064-.35-.09a23.392 23.392 0 0 1-.492-.071l-.141-.024-.452 3.014m6.373 4.184c-.011.061-.245 1.613-.519 3.45a287.842 287.842 0 0 1-.518 3.39c-.015.039-.652.05-3.002.05H8.476l.023-.13c.038-.22 1.021-6.798 1.021-6.835 0-.02 1.311-.035 2.999-.035h2.999l-.02.11" fill-rule="evenodd" fill="#000"/></svg>