<svg xmlns="http://www.w3.org/2000/svg" width="16" height="16" fill="none" viewBox="0 0 16 16"><path fill="currentColor" d="M-.001 12.5v.5h1v-.5h-1ZM1 3.5V3H0v.5h1Zm4.999 9v.5h1v-.5h-1ZM7 3.5V3H6v.5h1Zm-6.5 4H0v1h.5v-1Zm6 1H7v-1h-.5v1Zm3.013-3.07-.115.487.973.23.115-.486-.973-.23Zm3.235-1.924-.034.499.034-.499Zm2.188 1.252-.441.235.441-.235Zm.248 1.039-.5.002.5-.002Zm-2.425 3.727.361.345-.361-.345ZM10 12.501l-.372-.334A.5.5 0 0 0 10 13v-.5Zm5.5.5h.5v-1h-.5v1Zm-14.501-.5L1 3.5 0 3.5l-.001 9h1Zm6 0L7 3.5 6 3.5l-.001 9h1ZM.5 8.5h6v-1h-6v1Zm9.986-2.839a2.157 2.157 0 0 1 2.228-1.656l.068-.998a3.157 3.157 0 0 0-3.269 2.424l.973.23Zm2.228-1.656c.787.053 1.473.412 1.78.988l.883-.47c-.52-.976-1.588-1.447-2.595-1.516l-.068.998Zm1.781.989c.053.098.187.376.189.805l1-.004a2.7 2.7 0 0 0-.307-1.273l-.882.472Zm.189.805c.002.49-.171.927-.553 1.453-.394.542-.97 1.126-1.733 1.927l.723.69c.735-.77 1.375-1.417 1.82-2.03.457-.63.746-1.271.743-2.044l-1 .004Zm-2.286 3.38a133.89 133.89 0 0 0-2.77 2.988l.744.668A133.129 133.129 0 0 1 13.12 9.87l-.722-.69ZM10 13h5.5v-1H10v1Z"/></svg>