<svg xmlns="http://www.w3.org/2000/svg" width="16" height="16" fill="none"><path d="M5.187.017a4.6 4.6 0 0 0-1.214.255A4.508 4.508 0 0 0 1.15 3.36c-.134.488-.143.618-.156 2.213L.981 7.079l-.13.142c-.169.185-.408.55-.518.791a3.496 3.496 0 0 0 .269 3.441 3.61 3.61 0 0 0 1.162 1.083l.23.134.013.618c.014.702.042.858.232 1.262.317.677.892 1.158 1.641 1.374l.213.062 2.954.008 2.953.008v-.989H7.247c-2.747-.001-2.986-.008-3.252-.095-.37-.122-.762-.512-.907-.906-.05-.135-.061-.226-.069-.605l-.01-.447.089.019c.049.011.497.019.995.02L5 13l.007-3.503.007-3.502-.981.013c-.539.008-1.047.027-1.129.043a4.451 4.451 0 0 0-.767.23l-.142.065.012-1.153c.012-1.053.018-1.175.07-1.412.29-1.317 1.246-2.313 2.563-2.671l.307-.083h6.08l.253.063c1.494.376 2.536 1.554 2.692 3.044.015.139.027.693.028 1.231v.979l-.14-.064a4.479 4.479 0 0 0-.764-.229c-.082-.016-.59-.035-1.129-.043l-.981-.013.007 3.502L11 13l.907-.002c.955-.001 1.116-.015 1.536-.133a3.432 3.432 0 0 0 1.846-1.263c.674-.896.88-2.028.561-3.088-.149-.497-.405-.97-.701-1.293l-.13-.142-.013-1.506c-.014-1.594-.023-1.724-.156-2.213-.429-1.583-1.668-2.819-3.222-3.214-.519-.132-.443-.129-3.481-.134-1.57-.002-2.902 0-2.96.005M4 9.507V12h-.353c-.416 0-.606-.027-.937-.134-.757-.242-1.363-.871-1.607-1.666-.068-.221-.074-.275-.074-.693-.001-.5.02-.614.181-.996a2.561 2.561 0 0 1 1.664-1.429c.221-.056.27-.06.719-.065L4 7.013v2.494m9.126-2.429a2.57 2.57 0 0 1 1.799 1.81c.036.128.047.268.046.619 0 .418-.006.472-.074.693a2.884 2.884 0 0 1-.43.839 2.587 2.587 0 0 1-1.175.827c-.333.107-.523.134-.939.134H12V7.007l.487.014c.33.009.536.028.639.057" fill-rule="evenodd" fill="#000"/></svg>