<svg xmlns="http://www.w3.org/2000/svg" width="16" height="16" fill="none" viewBox="0 0 16 16">
  <path fill="#1D1D1D" fill-rule="evenodd" d="M5.5 1A3.5 3.5 0 0 0 2 4.5v1.837A3.487 3.487 0 0 1 3.5 6H5v7H3.5c-.17 0-.337-.012-.5-.035v.535A1.5 1.5 0 0 0 4.5 15H10v1H4.5A2.5 2.5 0 0 1 2 13.5v-.837A3.5 3.5 0 0 1 1 7.05V4.5A4.5 4.5 0 0 1 5.5 0h5A4.5 4.5 0 0 1 15 4.5v2.55A3.5 3.5 0 0 1 12.5 13H11V6h1.5c.537 0 1.045.12 1.5.337V4.5A3.5 3.5 0 0 0 10.5 1h-5ZM14 7.5a2.49 2.49 0 0 0-1.5-.5H12v5h.5A2.5 2.5 0 0 0 14 7.5Zm-12 0A2.5 2.5 0 0 0 3.5 12H4V7h-.5a2.49 2.49 0 0 0-1.5.5Z" clip-rule="evenodd"/>
</svg>
