<svg xmlns="http://www.w3.org/2000/svg" width="16" height="16" fill="none"><path d="M0 8.014v5.001l.5-.008L1 13l.007-2.247.007-2.246H6v4.508l.5-.008L7 13l.007-4.993.006-4.994H6v4.48H1.013v-4.48H0v5.001m13.293-4.963a.574.574 0 0 0-.151.112c-.067.073-4.511 6.967-4.595 7.131a.592.592 0 0 0-.012.391.606.606 0 0 0 .113.162c.161.168.136.166 2.343.166h1.995l.007.994L13 13l.5.007.5.008v-2.002h2V10h-2V6.706c0-3.534.005-3.394-.128-3.541-.125-.138-.402-.193-.579-.114m-.315 6.94c-.005.005-.694.006-1.531.003l-1.522-.007 1.524-2.372 1.524-2.371.007 2.369c.004 1.303.003 2.373-.002 2.378" fill-rule="evenodd" fill="#000"/></svg>