<svg xmlns="http://www.w3.org/2000/svg" width="16" height="16" fill="currentColor">
  <path d="M11.971 13.168c-1.428 0-2.338-.602-2.94-1.26l.588-.756c.532.56 1.232 1.064 2.282 1.064 1.078 0 1.848-.644 1.848-1.638 0-1.064-.728-1.778-2.856-1.778v-.882c1.904 0 2.534-.728 2.534-1.666 0-.868-.588-1.414-1.54-1.414-.742 0-1.372.378-1.904.91l-.616-.728c.686-.644 1.512-1.12 2.562-1.12 1.554 0 2.674.826 2.674 2.268 0 1.078-.658 1.764-1.624 2.128v.056c1.078.252 1.932 1.036 1.932 2.268 0 1.582-1.302 2.548-2.94 2.548ZM1.634 13V3.816h1.162v3.85h4.27v-3.85h1.176V13H7.066V8.674h-4.27V13H1.634Z"/>
</svg>
