<svg xmlns="http://www.w3.org/2000/svg" width="24" height="24" fill="none"><path d="M1 12.5V20h1v-7h8v7h1V5h-1v7H2V5H1v7.5m14.183-7.41c-.011.05-.093.9-.182 1.89-.405 4.476-.521 5.73-.541 5.87l-.021.15h.451l.45-.001.18-.22c.336-.413.892-.845 1.44-1.12a4.178 4.178 0 0 1 4.032.136c.956.559 1.67 1.48 1.915 2.473.101.405.09 1.254-.02 1.663-.493 1.827-2.285 3.164-4.099 3.057-1.669-.098-3.074-1.225-3.728-2.988-.062-.165-.114-.304-.118-.308-.006-.01-.857.3-.905.33-.1.062.536 1.379.897 1.858.964 1.278 2.355 2.04 3.849 2.109 2.73.125 5.217-2.242 5.217-4.967 0-1.193-.559-2.443-1.488-3.325-1.834-1.743-4.522-1.979-6.612-.582-.22.147-.241.154-.253.08-.013-.081.42-4.938.455-5.105l.02-.09h7.238V5h-8.158l-.019.09" fill="currentColor" fill-rule="evenodd"/></svg>