<svg xmlns="http://www.w3.org/2000/svg" width="24" height="24" fill="none"><path d="M2 12.5V20h1v-7h8v7h1V5h-1v7H3V5H2v7.5m16.92-7.455c-1.196.139-2.329.725-3.048 1.577-.214.254-.629.871-.631.939-.001.012.199.12.444.24.422.208.447.215.49.143.606-1.028 1.406-1.618 2.505-1.85.451-.095 1.378-.095 1.794 0 1.627.37 2.767 1.774 2.469 3.041-.347 1.477-2.3 2.718-4.489 2.852l-.414.025v.973l.55.048c.303.027.705.083.894.125 1.748.387 3.174 1.498 3.456 2.692.074.314.074.497 0 .845-.176.833-.942 1.669-1.851 2.019-.572.221-.843.266-1.549.262-.55-.004-.694-.019-1.025-.107-.954-.253-1.675-.766-2.177-1.551a23.864 23.864 0 0 0-.2-.31 3.98 3.98 0 0 0-.453.21l-.444.222.19.319c.876 1.477 2.544 2.321 4.408 2.229 1.22-.059 2.306-.524 3.104-1.328.631-.635.991-1.393 1.044-2.198.061-.931-.332-1.825-1.162-2.642-.466-.458-.925-.78-1.571-1.101l-.453-.225.385-.175c.778-.353 1.631-1.018 2.094-1.634.892-1.185.951-2.532.162-3.737-.406-.62-.949-1.084-1.697-1.449-.863-.421-1.803-.572-2.825-.454" fill="currentColor" fill-rule="evenodd"/></svg>