<svg xmlns="http://www.w3.org/2000/svg" width="24" height="24" viewBox="0 0 24 24"><path fill="currentColor" d="M.999 19.5v.5h1v-.5h-1ZM2 5.5V5H1v.5h1Zm7.999 14v.5h1v-.5h-1ZM11 5.5V5h-1v.5h1Zm8.194.002-.015-.5.015.5Zm.017 13.996.01-.5-.01.5Zm4.283-4.067.5.024-.5-.024ZM1.999 19.5 2 5.5H1l-.001 14h1Zm9 0L11 5.5h-1l-.001 14h1ZM1.501 13H10.5v-1H1.501v1Zm21.62-5.343.447-.224V7.43l-.002-.003-.005-.008a1.392 1.392 0 0 0-.063-.113 4.026 4.026 0 0 0-.189-.29 4.927 4.927 0 0 0-.77-.847c-.707-.616-1.808-1.216-3.36-1.168l.03 1c1.255-.04 2.118.438 2.673.922a3.927 3.927 0 0 1 .755.891 1.695 1.695 0 0 1 .037.066l.447-.224Zm-3.942-2.655c-1.715.054-3.02 1.12-3.875 2.489C14.45 8.858 14 10.589 14 12.146h1c0-1.385.405-2.93 1.152-4.126.746-1.194 1.787-1.979 3.058-2.018l-.032-1ZM14 12.146c0 2.381.461 4.312 1.348 5.67.901 1.381 2.228 2.147 3.852 2.182l.022-1c-1.28-.027-2.308-.61-3.036-1.728C15.443 16.132 15 14.418 15 12.146h-1Zm5.2 7.852c2.09.045 4.657-1.699 4.793-4.543l-.998-.048c-.108 2.226-2.144 3.626-3.773 3.591l-.022 1Zm4.793-4.543c.118-2.456-1.577-4.948-4.286-4.948v1c1.987 0 3.386 1.852 3.288 3.9l.998.048Zm-4.286-4.948c-1.46 0-2.723.4-3.659 1.27-.935.87-1.482 2.152-1.629 3.793l.996.09c.131-1.472.609-2.494 1.314-3.15.705-.655 1.699-1.003 2.978-1.003v-1Z"/></svg>