<svg xmlns="http://www.w3.org/2000/svg" width="24" height="24" fill="none"><path d="M11.44 1.024c-1.095.094-1.894.273-2.772.622-1.226.486-2.356 1.278-3.117 2.186a6.376 6.376 0 0 0-1.23 2.189c-.217.668-.285 1.079-.31 1.89l-.022.692-.274.16c-1.337.781-2.278 2.103-2.62 3.679-.103.477-.103 1.639 0 2.116.34 1.569 1.278 2.89 2.615 3.683.159.094.29.195.29.224 0 .219.105.941.181 1.24a4.306 4.306 0 0 0 1.145 1.969 4.36 4.36 0 0 0 1.745 1.085c.691.232.826.241 3.494.241H13v-.996l-2.55-.013-2.55-.013-.352-.109c-1.355-.422-2.299-1.493-2.502-2.842l-.035-.233.105.027c.427.109.696.147 1.185.167a4.28 4.28 0 0 0 1.1-.067c.296-.049.552-.097.569-.107.016-.01.03-2.401.03-5.314 0-5.008-.004-5.296-.07-5.316-.18-.055-.83-.148-1.19-.17a5.776 5.776 0 0 0-1.466.128 2.73 2.73 0 0 1-.256.058c-.045 0 .013-.862.082-1.228.385-2.032 2.074-3.794 4.36-4.552 3.528-1.17 7.526.272 8.996 3.244.243.493.411 1.048.483 1.596.062.473.08.94.037.94a5.776 5.776 0 0 0-1.716-.186c-.36.022-1.01.115-1.19.17-.066.02-.07.309-.07 5.32 0 4.202.01 5.302.05 5.317.028.01.266.054.53.098a5.518 5.518 0 0 0 5.846-2.972c.622-1.233.741-2.832.308-4.137a5.595 5.595 0 0 0-2.458-3.052l-.265-.155-.022-.692c-.025-.795-.092-1.215-.294-1.844-.768-2.387-2.946-4.229-5.731-4.845-.68-.151-1.933-.249-2.524-.198M6.875 9.025 7 9.05l-.01 4.465-.01 4.465-.38.012c-2.66.087-4.84-2.263-4.57-4.925A4.489 4.489 0 0 1 5.789 9.06c.34-.057.888-.075 1.086-.035m11.307.034c2.05.333 3.571 1.936 3.788 3.994.281 2.663-1.906 5.026-4.57 4.939l-.38-.012-.01-4.467L17 9.046l.09-.018c.205-.039.754-.024 1.092.031" fill-rule="evenodd" fill="#000"/></svg>