<svg xmlns="http://www.w3.org/2000/svg" width="24" height="24" fill="none"><path d="M1 12.5V20h1v-7h8v7h1V5h-1v7H2V5H1v7.5m17.44-7.479c-.033.007-.195.034-.36.06-1.065.173-2.201.894-2.899 1.841A5.18 5.18 0 0 0 14.57 8.1c-.093.276-.263.942-.243.955.066.042.933.22.953.196a2.29 2.29 0 0 0 .116-.346c.656-2.322 2.623-3.396 4.887-2.668 1.08.347 1.847 1.1 2.1 2.063.055.207.073.416.072.8-.003.636-.104 1.016-.442 1.666-.409.788-.891 1.365-2.95 3.534a208.22 208.22 0 0 0-3.257 3.48l-.806.88V20h9v-1h-3.962c-3.38 0-3.957-.008-3.93-.056.045-.078 2.113-2.311 3.097-3.344 2.428-2.548 2.845-3.019 3.39-3.829 1.262-1.879 1.157-4.08-.26-5.468-.82-.803-2.211-1.317-3.514-1.298-.177.002-.348.01-.381.016" fill-rule="evenodd" fill="#000"/></svg>