<svg xmlns="http://www.w3.org/2000/svg" width="24" height="24" viewBox="0 0 24 24"><path fill="currentColor" d="M2.999 19.5v.5h1v-.5h-1ZM4 5.5V5H3v.5h1Zm7.999 14v.5h1v-.5h-1ZM13 5.5V5h-1v.5h1Zm3.856 2.35-.414.28.56.83.414-.28-.56-.83Zm4.378-2.35V5h-.153l-.127.086.28.414Zm.266 0h.5V5h-.5v.5Zm-.5 14v.5h1v-.5h-1Zm-17.001 0L4 5.5H3l-.001 14h1Zm9 0L13 5.5h-1l-.001 14h1ZM3.501 13H12.5v-1H3.501v1Zm13.915-4.32 4.098-2.766-.56-.828-4.098 2.765.56.828ZM21.234 6h.266V5h-.266v1ZM21 5.5v14h1v-14h-1Z"/></svg>