<svg xmlns="http://www.w3.org/2000/svg" width="16" height="16" fill="currentColor" viewBox="0 0 16 16">
  <path d="M11.943 13.168c-1.428 0-2.31-.602-2.926-1.218l.56-.756c.532.532 1.204 1.022 2.254 1.022 1.092 0 1.96-.798 1.96-2.044 0-1.232-.756-1.96-1.904-1.96-.616 0-.994.196-1.526.546l-.616-.392.294-4.298h4.466v.994h-3.458l-.238 2.646c.42-.224.826-.364 1.372-.364 1.526 0 2.772.868 2.772 2.8s-1.456 3.024-3.01 3.024ZM1.634 13V3.816h1.162v3.85h4.27v-3.85h1.176V13H7.066V8.674h-4.27V13H1.634Z"/>
</svg>
