<svg xmlns="http://www.w3.org/2000/svg" width="24" height="24" fill="none"><path d="M1 12.5V20h1v-7h8v7h1V5h-1v7H2V5H1v7.5m17.658-7.445c-1.533.252-2.834 1.335-3.708 3.085-.759 1.519-1.059 3.211-.914 5.14.122 1.614.414 2.798.963 3.9.576 1.158 1.407 1.996 2.407 2.427 1.516.653 3.094.481 4.519-.493.389-.266 1.014-.889 1.269-1.265a4.76 4.76 0 0 0 .748-3.369c-.318-2.09-1.759-3.65-3.623-3.923-.419-.061-1.415-.028-1.876.063-.968.189-1.773.587-2.437 1.201-.286.265-.503.542-.763.974l-.196.326-.029-.31c-.042-.444.007-1.39.1-1.951.369-2.224 1.574-4.062 3.034-4.63.579-.225 1.149-.278 1.848-.172 1.064.162 1.93.727 2.595 1.691l.089.129.438-.219c.241-.121.438-.231.438-.244 0-.073-.406-.618-.668-.895a4.824 4.824 0 0 0-2.532-1.421c-.415-.087-1.3-.11-1.702-.044m1.694 6.529c1.594.328 2.753 2.026 2.634 3.858-.104 1.592-1.204 2.933-2.808 3.423-.315.096-.425.11-.918.111-.461.002-.62-.014-.9-.089-1.283-.344-2.183-1.27-2.775-2.855-.163-.438-.169-.511-.083-1.002.333-1.906 1.379-3.078 3.038-3.404.448-.088.502-.093 1.032-.1.298-.004.585.017.78.058" fill="currentColor" fill-rule="evenodd"/></svg>