<svg xmlns="http://www.w3.org/2000/svg" width="24" height="24" fill="none" viewBox="0 0 24 24"><path fill="currentColor" d="M.999 19.5v.5h1v-.5h-1ZM2 5.5V5H1v.5h1Zm7.999 14v.5h1v-.5h-1ZM11 5.5V5h-1v.5h1Zm4.114 10.649-.175-.469-.937.351.176.468.936-.35ZM19.02 19.5l-.005-.5.005.5Zm4.471-4.715.499-.034-.499.034Zm-3.909-4.031.08-.494-.08.494Zm-4.485 1.747v.5h.234l.15-.18-.384-.32Zm-.096 0-.498-.046-.05.546H15v-.5Zm.647-7v-.5h-.456l-.042.454.498.046Zm7.208.5h.5v-1h-.5v1ZM1.999 19.5 2 5.5H1l-.001 14h1Zm9 0L11 5.5h-1l-.001 14h1ZM1.501 13H10.5v-1H1.501v1Zm12.677 3.5c.79 2.107 2.738 3.522 4.846 3.5l-.01-1c-1.648.018-3.243-1.099-3.9-2.851l-.936.35Zm4.846 3.5c2.727-.029 5.152-2.48 4.965-5.249l-.998.068c.146 2.16-1.79 4.158-3.977 4.181l.01 1Zm4.965-5.249c-.162-2.384-2.192-4.145-4.328-4.49l-.16.987c1.77.286 3.366 1.739 3.49 3.57l.998-.067Zm-4.328-4.49c-1.842-.299-3.721.447-4.95 1.92l.77.64c1.015-1.219 2.548-1.812 4.02-1.573l.16-.988ZM15.096 12H15v1h.096v-1Zm.402.546.647-7-.996-.092-.647 7 .996.092ZM15.647 6h7.208V5h-7.208v1Z"/></svg>