<svg xmlns="http://www.w3.org/2000/svg" width="16" height="16" viewBox="0 0 16 16"><path fill="currentColor" d="M-.001 12.5v.5h1v-.5h-1ZM1 3.5V3H0v.5h1Zm4.999 9v.5h1v-.5h-1ZM7 3.5V3H6v.5h1Zm-6.5 4H0v1h.5v-1Zm6 1H7v-1h-.5v1Zm3.191 1.783-.175-.469-.937.351.176.468.936-.35Zm2.343 2.217-.006-.5.006.5Zm2.874-3.031-.499.034.499-.034Zm-2.513-2.592.08-.494-.08.494ZM9.442 8.086l-.498-.046.892.353-.394-.307ZM9.866 3.5V3H9.41l-.042.454.498.046Zm4.633.5h.5V3h-.5v1Zm-13.5 8.5L1 3.5H0l-.001 9h1Zm6 0L7 3.5H6l-.001 9h1ZM.5 8.5h6v-1h-6v1Zm8.255 2.133c.531 1.419 1.847 2.383 3.284 2.367l-.01-1c-.977.01-1.94-.654-2.338-1.717l-.936.35ZM12.039 13c1.85-.02 3.497-1.676 3.368-3.565l-.998.068c.087 1.28-1.07 2.483-2.38 2.497l.01 1Zm3.368-3.565c-.111-1.631-1.493-2.818-2.932-3.052l-.16.988c1.073.174 2.02 1.053 2.094 2.132l.998-.068Zm-2.932-3.052c-1.291-.209-2.603.339-3.427 1.396l.788.614c.614-.787 1.57-1.17 2.479-1.022l.16-.988ZM9.94 8.132l.424-4.586-.996-.092-.424 4.586.996.092ZM9.866 4h4.633V3H9.866v1Z"/></svg>