<svg xmlns="http://www.w3.org/2000/svg" width="16" height="16" fill="none"><path d="M0 8.014v5.001l.5-.008L1 13l.007-2.247.007-2.246H6v4.508l.5-.008L7 13l.007-4.993.006-4.994H6v4.48H1.013v-4.48H0v5.001m12.222-4.961c-.675.122-1.348.53-1.848 1.119-.659.778-1.096 1.855-1.229 3.027-.066.58-.002 1.712.136 2.399.431 2.153 1.701 3.397 3.466 3.395.504 0 .93-.109 1.44-.369 1.455-.741 2.122-2.289 1.666-3.864-.249-.856-.841-1.574-1.6-1.936-.473-.226-.934-.304-1.564-.263a3.233 3.233 0 0 0-.809.125c-.646.166-1.223.513-1.605.966a1.65 1.65 0 0 1-.161.178 5.133 5.133 0 0 1 .019-.356c.103-1.446.785-2.736 1.708-3.23.335-.18.544-.23.946-.23.669.001 1.163.188 1.606.609.235.223.389.432.53.717.056.114.113.207.126.207.02 0 .833-.415.867-.443.022-.017-.301-.598-.422-.759a3.352 3.352 0 0 0-2.116-1.292c-.296-.048-.892-.048-1.156 0m1.186 4.535c.415.085.847.361 1.111.709.148.194.336.575.401.81.066.236.083.853.031 1.1-.207.974-1.212 1.791-2.204 1.792a2.08 2.08 0 0 1-1.549-.637c-.33-.331-.551-.695-.732-1.208l-.072-.205.045-.273c.232-1.384 1.084-2.108 2.502-2.126.146-.002.352.015.467.038" fill="currentColor" fill-rule="evenodd"/></svg>