<svg xmlns="http://www.w3.org/2000/svg" width="24" height="24" fill="none" viewBox="0 0 24 24"><path fill="currentColor" d="M2 19.5v.5h1v-.5H2Zm1.001-14V5h-1v.5h1ZM11 19.5v.5h1v-.5h-1Zm1.001-14V5h-1v.5h1Zm11.498 10.823-.5-.012.5.012Zm0-7.646-.5.012.5-.012ZM3 19.5l.001-14h-1L2 19.5h1Zm9 0 .001-14h-1L11 19.5h1ZM2.502 13h8.999v-1H2.502v1Zm12.74 4.428C16.091 19.142 17.77 20 19.597 20v-1c-1.508 0-2.804-.694-3.461-2.016l-.896.444ZM19.597 20c2.424 0 4.354-1.697 4.4-3.665L23 16.31C22.97 17.613 21.61 19 19.598 19v1Zm4.4-3.665c.029-1.144-.681-2.237-1.737-3.019C21.194 12.525 19.713 12 18.042 12v1c1.466 0 2.736.461 3.624 1.12.9.666 1.35 1.485 1.333 2.19l1 .025ZM18.043 13c1.671 0 3.152-.525 4.22-1.316 1.055-.782 1.765-1.876 1.737-3.02l-1 .025c.017.706-.433 1.524-1.333 2.191-.888.658-2.158 1.12-3.624 1.12v1Zm5.957-4.335C23.952 6.697 22.022 5 19.598 5v1c2.012 0 3.37 1.387 3.401 2.689l1-.024ZM19.598 5c-1.828 0-3.506.858-4.357 2.572l.896.444C16.794 6.694 18.09 6 19.598 6V5Z"/></svg>