<svg xmlns="http://www.w3.org/2000/svg" width="16" height="16" fill="currentColor" viewBox="0 0 16 16">
  <path d="M12.321 8.408c-.574 0-1.302.35-1.862 1.176.14 1.736.826 2.674 1.96 2.674.882 0 1.554-.784 1.554-1.96 0-1.162-.546-1.89-1.652-1.89Zm.098 4.76c-1.75 0-3.08-1.428-3.08-4.298 0-3.584 1.624-4.97 3.402-4.97.966 0 1.652.406 2.156.952l-.644.714c-.364-.434-.91-.7-1.47-.7-1.246 0-2.296.966-2.352 3.794.56-.686 1.358-1.12 2.086-1.12 1.54 0 2.548.924 2.548 2.758 0 1.708-1.204 2.87-2.646 2.87ZM1.634 13V3.816h1.162v3.85h4.27v-3.85h1.176V13H7.066V8.674h-4.27V13H1.634Z"/>
</svg>
