<svg xmlns="http://www.w3.org/2000/svg" width="24" height="24" viewBox="0 0 24 24">
  <path fill="currentColor" d="M.999 19.5v.5h1v-.5h-1ZM2 5.5V5H1v.5h1Zm7.999 14v.5h1v-.5h-1ZM11 5.5V5h-1v.5h1Zm9 14v.5h1v-.5h-1Zm.5-14h.5V5h-.5v.5Zm-.203 0V5h-.274l-.147.23.421.27ZM13.5 16.141l-.421-.27-.079.124v.146h.5Zm0 .359H13v.5h.5v-.5Zm10 .5h.5v-1h-.5v1ZM1.999 19.5 2 5.5H1l-.001 14h1Zm9 0L11 5.5h-1l-.001 14h1ZM1.501 13H10.5v-1H1.501v1ZM21 19.5v-14h-1v14h1ZM20.5 5h-.203v1h.203V5Zm-.624.23-6.797 10.642.842.538 6.797-10.64-.842-.54ZM13 16.142v.359h1v-.359h-1Zm.5.859h10v-1h-10v1Z"/>
</svg>
