<svg xmlns="http://www.w3.org/2000/svg" width="16" height="16" fill="none"><path d="M0 8.014v5.001l.5-.008L1 13l.007-2.247.007-2.246H6v4.508l.5-.008L7 13l.007-4.993.006-4.994H6v4.48H1.013v-4.48H0v5.001m11.954-4.945a3.159 3.159 0 0 0-2.222 1.742c-.109.235-.179.448-.275.847l-.062.258.456.109c.251.06.47.109.488.109.033-.001.052-.059.125-.374.165-.715.559-1.227 1.176-1.531.4-.197.78-.26 1.231-.203.904.112 1.574.617 1.756 1.321.061.237.055.695-.012.957-.064.247-.26.631-.475.93-.292.407-.535.678-1.901 2.115-1.052 1.108-2.245 2.397-2.605 2.817a.496.496 0 0 0 .135.775L9.88 13l3.06.007 3.06.007V12l-2.429-.007-2.429-.006.368-.4c.427-.465.945-1.016 1.919-2.04.814-.857.983-1.043 1.266-1.394.696-.861.985-1.556.985-2.367 0-.731-.244-1.332-.747-1.843-.474-.481-1.057-.77-1.799-.89a3.874 3.874 0 0 0-1.18.016" fill="currentColor" fill-rule="evenodd"/></svg>