<svg xmlns="http://www.w3.org/2000/svg" width="16" height="16" fill="none" viewBox="0 0 16 16"><path fill="currentColor" d="M-.001 12.5v.5h1v-.5h-1ZM1 3.5V3H0v.5h1Zm4.999 9v.5h1v-.5h-1ZM7 3.5V3H6v.5h1Zm-6.5 4H0v1h.5v-1Zm6 1H7v-1h-.5v1Zm8.306-3.387.227.446.891-.453-.226-.445-.892.452Zm-2.122-1.611-.015-.5.015.5Zm.012 8.998-.01.5.01-.5Zm2.801-2.614.5.025-.5-.025ZM.999 12.5 1 3.5H0l-.001 9h1Zm6 0L7 3.5H6l-.001 9h1ZM.5 8.5h6v-1h-6v1Zm14.752-3.613.446-.227-.001-.002-.002-.002-.003-.007-.01-.02a2.768 2.768 0 0 0-.167-.26 3.36 3.36 0 0 0-.533-.575c-.489-.419-1.249-.824-2.313-.792l.03 1c.772-.024 1.296.263 1.632.551a2.366 2.366 0 0 1 .457.53 1.176 1.176 0 0 1 .018.03l.446-.226Zm-2.583-1.885c-1.194.037-2.094.768-2.674 1.68-.578.911-.88 2.058-.88 3.091h1c0-.858.256-1.816.725-2.554.466-.735 1.101-1.194 1.86-1.217l-.031-1ZM9.115 7.773c0 1.552.305 2.833.912 3.747.62.934 1.54 1.456 2.659 1.48l.02-1c-.78-.016-1.4-.363-1.846-1.033-.46-.692-.745-1.755-.745-3.194h-1ZM12.685 13c1.439.03 3.216-1.144 3.311-3.09l-.998-.049c-.065 1.313-1.298 2.16-2.292 2.14l-.02.999Zm3.311-3.09c.082-1.66-1.087-3.368-2.975-3.368v1c1.182 0 2.037 1.085 1.977 2.32l.998.048Zm-2.975-3.368c-.984 0-1.855.265-2.507.862C9.862 8 9.49 8.87 9.39 9.959l.996.09c.083-.913.381-1.523.802-1.907.42-.385 1.024-.6 1.832-.6v-1Z"/></svg>