<svg xmlns="http://www.w3.org/2000/svg" width="16" height="16" fill="none"><path d="M0 8.014v5.001l.5-.008L1 13l.007-2.247.007-2.246H6v4.508l.5-.008L7 13l.007-4.993.006-4.994H6v4.48H1.013v-4.48H0v5.001M9.401 3.1c-.011.068-.422 4.518-.448 4.86-.006.08-.005.081.433.254l.44.174.227-.23c.911-.923 2.213-1.074 3.28-.379.673.439 1.068 1.127 1.067 1.859-.001.32-.046.55-.161.827a2.564 2.564 0 0 1-1.618 1.446c-.203.062-.283.072-.594.073-.426.002-.608-.037-.983-.213-.657-.308-1.097-.813-1.392-1.598a5.637 5.637 0 0 0-.128-.324c-.012-.021-.152.02-.466.138a8.106 8.106 0 0 0-.461.181c-.017.016.161.488.287.764.231.501.697 1.07 1.156 1.41.246.183.768.44 1.063.524.341.097.549.126.91.127.664.001 1.267-.188 1.861-.584.801-.532 1.385-1.439 1.511-2.341.214-1.539-.773-3.01-2.38-3.548a3.517 3.517 0 0 0-2.698.221l-.251.13.013-.109c.015-.124.251-2.696.251-2.736 0-.017.828-.026 2.347-.026h2.346v-.987H9.416l-.015.087" fill="currentColor" fill-rule="evenodd"/></svg>