<svg width="24" height="24" fill="none" xmlns="http://www.w3.org/2000/svg"><path d="M6.54 2.547c-1.273.159-2.603.839-3.475 1.778C2.043 5.425 1.52 6.763 1.52 8.28a5.68 5.68 0 0 0 1.416 3.776c.415.472 9.024 9.404 9.063 9.404.039 0 8.594-8.875 9.048-9.386.716-.807 1.178-1.782 1.37-2.894.073-.418.083-1.293.02-1.712-.291-1.94-1.429-3.504-3.187-4.382a6.294 6.294 0 0 0-1.29-.448c-.499-.123-1.563-.153-2.125-.059a6.247 6.247 0 0 0-1.975.697c-.615.359-1.433 1.083-1.729 1.531-.056.084-.115.153-.131.153s-.074-.068-.13-.15c-.305-.458-1.114-1.175-1.73-1.534a6.314 6.314 0 0 0-1.937-.692c-.346-.059-1.315-.08-1.663-.037m1.62 1.036c.931.177 1.774.631 2.481 1.337.425.425.689.817 1.054 1.568.157.323.294.588.305.588.011 0 .137-.245.28-.545.435-.912.86-1.483 1.462-1.967a4.72 4.72 0 0 1 4.847-.682 4.704 4.704 0 0 1 2.33 2.116c.777 1.413.762 3.191-.039 4.607-.33.584.056.168-5.456 5.895-1.863 1.936-3.404 3.52-3.424 3.52-.032 0-5.071-5.214-7.673-7.94-1.018-1.066-1.303-1.485-1.585-2.329a4.852 4.852 0 0 1 .066-3.168 4.806 4.806 0 0 1 3.957-3.06 5.344 5.344 0 0 1 1.395.06" fill-rule="evenodd" fill="#000"/></svg>