<svg width="24" height="24" viewBox="0 0 24 24" fill="none" xmlns="http://www.w3.org/2000/svg">
<g id="hearts-suit 1">
<g id="Group">
<path id="Vector" d="M20.5535 11.8889L11.9995 20.7779L3.4455 11.8889C2.92236 11.3381 2.52461 10.6806 2.27955 9.96156C2.03448 9.24254 1.94791 8.479 2.02578 7.72336C2.10365 6.96773 2.3441 6.23788 2.73065 5.58395C3.11719 4.93001 3.64066 4.36746 4.26513 3.93492C4.8896 3.50237 5.60027 3.21008 6.34836 3.07811C7.09644 2.94614 7.86423 2.97761 8.59901 3.17036C9.33378 3.36312 10.0181 3.71259 10.6051 4.19478C11.1921 4.67698 11.6678 5.28049 11.9995 5.96387C12.3312 5.28049 12.8069 4.67698 13.3939 4.19478C13.9809 3.71259 14.6652 3.36312 15.4 3.17036C16.1348 2.97761 16.9026 2.94614 17.6506 3.07811C18.3987 3.21008 19.1094 3.50237 19.7339 3.93492C20.3583 4.36746 20.8818 4.93001 21.2684 5.58395C21.6549 6.23788 21.8954 6.96773 21.9732 7.72336C22.0511 8.479 21.9645 9.24254 21.7195 9.96156C21.4744 10.6806 21.0766 11.3381 20.5535 11.8889Z" stroke="#212121" stroke-miterlimit="10" stroke-linecap="square"/>
</g>
</g>
</svg>
