<svg xmlns="http://www.w3.org/2000/svg" width="16" height="16" fill="none"><path d="M14.773.559c-.051.028-.703.662-1.449 1.409l-1.357 1.358-.245-.154C9.523 1.79 7.307 1.634 5.107 2.708c-.958.467-1.768 1.067-2.694 1.996A14.54 14.54 0 0 0 .441 7.14C.134 7.607 0 7.868 0 8c0 .271.759 1.414 1.628 2.453.328.392.987 1.073 1.333 1.376l.268.235-1.346 1.348C.415 14.882.482 14.801.513 15.081c.036.316.42.511.708.361.054-.029.71-.664 1.457-1.411l1.358-1.36.149.101c.238.161.708.425 1.008.565 1.864.873 3.703.882 5.559.027 1.594-.734 3.22-2.208 4.543-4.116.517-.745.704-1.078.705-1.253 0-.265-.767-1.419-1.628-2.448a16.352 16.352 0 0 0-1.333-1.376l-.268-.235 1.319-1.321c.725-.727 1.337-1.36 1.361-1.407.084-.17.032-.449-.108-.571a.528.528 0 0 0-.57-.078m-5.76 2.547a6.478 6.478 0 0 1 1.833.706c.158.09.311.182.34.203.05.038-.139.231-3.587 3.679-2.001 2.002-3.653 3.637-3.67 3.633-.12-.027-1.093-.99-1.552-1.536-.48-.571-1.284-1.694-1.284-1.793 0-.048.464-.736.772-1.145.835-1.108 1.871-2.122 2.789-2.731.747-.496 1.479-.824 2.203-.986.472-.106.633-.12 1.25-.11.493.008.619.019.906.08M7.437 4.549c-.7.109-1.378.46-1.905.984a3.481 3.481 0 0 0-.959 1.76c-.052.251-.081.685-.055.824.034.184.283.388.476.389.176.001.42-.17.471-.331.014-.045.038-.211.053-.37.037-.386.087-.568.241-.885.272-.56.639-.921 1.209-1.187.276-.129.474-.18.837-.215.159-.015.325-.039.37-.053.161-.051.332-.295.331-.471-.001-.168-.165-.397-.328-.459-.099-.038-.456-.031-.741.014m4.937.37c.559.491 1.255 1.26 1.807 1.994.27.36.726 1.042.726 1.087 0 .045-.456.727-.726 1.087-.578.769-1.423 1.683-2.009 2.172-1.494 1.249-3.012 1.829-4.512 1.724a5.593 5.593 0 0 1-2.047-.554c-.304-.143-.84-.449-.84-.478 0-.037 7.269-7.285 7.298-7.278.017.004.154.114.303.246m-1.427 2.587c-.015.005-.06.017-.101.026-.102.022-.277.187-.31.29a2.963 2.963 0 0 0-.054.373c-.037.386-.087.568-.241.885-.416.858-1.14 1.333-2.167 1.423-.205.018-.28.036-.354.087-.108.073-.227.288-.226.409.001.2.201.448.389.483.139.026.573-.003.824-.055a3.5 3.5 0 0 0 1.761-.959 3.5 3.5 0 0 0 .959-1.761c.052-.251.081-.685.055-.824a.565.565 0 0 0-.253-.321c-.074-.038-.239-.07-.282-.056" fill-rule="evenodd" fill="#000"/></svg>