<svg xmlns="http://www.w3.org/2000/svg" width="24" height="24" fill="none" viewBox="0 0 24 24"><path stroke="currentColor" stroke-linecap="round" stroke-linejoin="round" d="M1.873 13.683a2.064 2.064 0 0 1 0-2.366C3.446 9.09 7.319 4.5 12.5 4.5c5.181 0 9.054 4.59 10.627 6.817a2.064 2.064 0 0 1 0 2.366C21.554 15.91 17.681 20.5 12.5 20.5c-5.181 0-9.054-4.59-10.627-6.817Z"/><path stroke="currentColor" stroke-linecap="round" stroke-linejoin="round" d="M12.5 16.5a4 4 0 1 0 0-8 4 4 0 0 0 0 8ZM2.5 22.5l20-20"/></svg>