<svg xmlns="http://www.w3.org/2000/svg" width="16" height="16" fill="currentColor">
  <path d="m.646 14.646 4.551-4.55A3.5 3.5 0 0 1 8 4.5v1a2.5 2.5 0 0 0-2.086 3.878L14.646.646l.707.708-4.55 4.55a3.498 3.498 0 0 1-.859 5.006A3.5 3.5 0 0 1 8 11.5v-1a2.5 2.5 0 0 0 2.086-3.879l-8.732 8.732-.708-.707Z"/>
  <path fill-rule="evenodd" d="M2.988 4.187C4.322 3.001 6.046 2 8 2c1.954 0 3.678 1.001 5.012 2.187 1.338 1.19 2.34 2.613 2.858 3.574L16 8l-.13.24c-.519.96-1.52 2.383-2.858 3.573C11.678 12.999 9.954 14 8 14c-1.954 0-3.678-1.001-5.012-2.187C1.65 10.623.648 9.2.129 8.239L0 8l.13-.24c.519-.96 1.52-2.383 2.858-3.573ZM1.134 8a13.145 13.145 0 0 0 2.51 3.062C4.886 12.168 6.384 13 8 13c1.615 0 3.113-.832 4.357-1.938A13.145 13.145 0 0 0 14.866 8a13.144 13.144 0 0 0-2.51-3.062C11.114 3.832 9.616 3 8 3c-1.615 0-3.113.832-4.357 1.938A13.144 13.144 0 0 0 1.134 8Z" clip-rule="evenodd"/>
</svg>
