<svg xmlns="http://www.w3.org/2000/svg" width="24" height="24" fill="none"><path d="M22.26 2.076c-.066.042-.957.915-1.98 1.94-1.023 1.025-1.872 1.864-1.887 1.864-.015 0-.172-.09-.349-.2A11.254 11.254 0 0 0 13.8 4.093c-.641-.098-1.962-.096-2.62.003-2.429.366-4.681 1.574-6.991 3.75-1.035.975-2.551 2.802-2.905 3.5a2.55 2.55 0 0 0 0 2.308c.355.699 1.873 2.528 2.905 3.499.476.447 1.196 1.071 1.472 1.275l.119.088-1.846 1.852c-1.015 1.019-1.866 1.891-1.89 1.939-.196.388.28.842.668.636.059-.032.954-.905 1.988-1.94 1.034-1.036 1.89-1.883 1.903-1.883a6.8 6.8 0 0 1 .46.264c1.336.805 2.674 1.303 4.097 1.523.641.099 2.039.099 2.68 0 2.416-.374 4.606-1.545 6.917-3.701.751-.7 1.655-1.724 2.397-2.714.454-.606.582-.821.716-1.207.092-.264.106-.369.106-.785 0-.75-.128-1.058-.83-2-1.122-1.506-2.411-2.836-3.786-3.909l-.14-.11 1.846-1.85c1.015-1.018 1.866-1.89 1.89-1.938.148-.294-.119-.693-.464-.693a.52.52 0 0 0-.232.076m-8.539 3.025A9.713 9.713 0 0 1 16.84 6.15c.44.236.8.455.8.485 0 .036-2.294 2.325-2.329 2.325-.017 0-.152-.084-.301-.186a4.469 4.469 0 0 0-2.07-.741c-2.71-.282-5.063 1.953-4.928 4.684.044.901.333 1.697.919 2.533.043.062-.098.217-1.189 1.308l-1.237 1.237-.122-.085c-.729-.505-2.072-1.787-2.917-2.783-.446-.525-1.211-1.553-1.304-1.752a1.573 1.573 0 0 1-.058-1.215c.117-.326.988-1.485 1.749-2.327 2.148-2.376 4.485-3.899 6.767-4.408.422-.094.935-.17 1.36-.201.35-.026 1.346.018 1.741.077m5.419 2.601c.691.556 1.619 1.473 2.346 2.318.468.545 1.251 1.589 1.352 1.805.201.427.204.897.007 1.316-.062.134-.317.513-.565.842-2.059 2.727-4.53 4.694-6.94 5.524a11.17 11.17 0 0 1-1.72.418c-.466.068-1.776.068-2.24 0a10.18 10.18 0 0 1-2.477-.712c-.422-.184-1.299-.649-1.466-.776l-.097-.074 1.17-1.172c1.032-1.032 1.178-1.165 1.24-1.122a5.068 5.068 0 0 0 1.687.802c.341.092.458.103 1.063.103s.722-.011 1.063-.103c1.688-.454 2.854-1.62 3.308-3.308.092-.341.103-.458.103-1.063s-.011-.722-.103-1.063a5.068 5.068 0 0 0-.802-1.687c-.043-.062.098-.217 1.189-1.308l1.238-1.239.142.105c.078.058.304.235.502.394m-5.76 1.417c.36.093.716.25 1.017.447l.204.133-2.448 2.448-2.448 2.448-.095-.127c-.162-.219-.407-.754-.496-1.088-.124-.458-.123-1.306.001-1.76.311-1.144 1.188-2.082 2.279-2.439a3.752 3.752 0 0 1 1.986-.062m2.263 1.861c.254.515.329.864.329 1.52 0 .443-.017.624-.083.864-.336 1.23-1.212 2.129-2.437 2.503-.315.095-.415.107-.952.107-.537 0-.637-.012-.952-.107a4.037 4.037 0 0 1-.998-.458l-.155-.103 2.45-2.451 2.45-2.45.095.127c.052.071.166.272.253.448" fill-rule="evenodd" fill="#000"/></svg>