<svg xmlns="http://www.w3.org/2000/svg" width="45" height="37" fill="none"><path d="M3.86.078C2.282.286.819 1.468.296 2.956a6.03 6.03 0 0 0-.227 1.047C.022 4.389.003 9.866.018 18.938c.021 12.756.036 14.366.141 14.7.411 1.31 1.273 2.333 2.428 2.881.94.445-.344.419 19.913.419 15.512 0 18.707-.018 19.05-.103 1.603-.399 2.899-1.696 3.308-3.31.154-.609.156-29.455.002-30.075-.388-1.56-1.574-2.781-3.197-3.291C41.326.053 39.385.04 22.8.029 12.632.023 4.109.045 3.86.078m37.488 1.009c.236.061.604.2.818.309.498.252 1.186.94 1.438 1.438.446.88.421-.056.421 15.653 0 15.71.025 14.774-.421 15.654-.252.498-.94 1.186-1.438 1.438-.886.449.435.421-19.666.421s-18.78.028-19.666-.421c-.498-.252-1.186-.94-1.438-1.438-.446-.88-.421.056-.421-15.654 0-12.527.015-14.461.112-14.835A3.55 3.55 0 0 1 3.62 1.091c.609-.164 37.099-.168 37.728-.004M5.523 4.61A1.434 1.434 0 0 0 4.551 6c0 .23.052.512.118.638.561 1.07 2.101 1.07 2.662 0 .154-.294.152-.985-.003-1.283-.244-.472-.869-.861-1.366-.851-.082.001-.28.049-.439.106m33 0a1.69 1.69 0 0 0-.854.752c-.152.291-.152.985 0 1.276.561 1.07 2.101 1.07 2.662 0 .154-.294.152-.985-.003-1.283-.244-.472-.869-.861-1.366-.851-.082.001-.28.049-.439.106m-25.355 8.558c-.105.105-.118.691-.118 5.319 0 4.629.013 5.215.118 5.32.106.106 1.055.118 9.332.118 8.277 0 9.226-.012 9.332-.118.105-.105.118-.691.118-5.32 0-4.628-.013-5.214-.118-5.319-.106-.106-1.055-.118-9.332-.118-8.277 0-9.226.012-9.332.118m17.844 5.32v4.5H13.987l-.019-4.425c-.011-2.434-.003-4.468.017-4.52.028-.074 1.774-.09 8.532-.075l8.495.019v4.501M5.813 29.526c-.083.016-.226.046-.318.066-.225.047-.674.451-.823.738-.157.301-.157.989 0 1.29.235.454.858.854 1.328.854.47 0 1.093-.4 1.328-.854.157-.301.157-.989 0-1.29-.154-.298-.602-.692-.842-.741-.374-.078-.527-.092-.673-.063m33 0c-.083.016-.226.046-.318.066-.225.047-.674.451-.823.738-.069.131-.121.412-.121.645 0 .484.138.787.506 1.11.243.213.669.389.943.389.274 0 .7-.176.943-.389.368-.323.506-.626.506-1.11 0-.233-.052-.514-.121-.645-.154-.298-.602-.692-.842-.741-.374-.078-.527-.092-.673-.063" fill-rule="evenodd" fill="#000"/></svg>