<svg width="16" height="16" viewBox="0 0 16 16" fill="none" xmlns="http://www.w3.org/2000/svg">
<path d="M14.5 3.5H3.5C2.94772 3.5 2.5 3.94772 2.5 4.5V11.5C2.5 12.0523 2.94772 12.5 3.5 12.5H14.5C15.0523 12.5 15.5 12.0523 15.5 11.5V4.5C15.5 3.94772 15.0523 3.5 14.5 3.5Z" stroke="#1D1D1D" stroke-linecap="round" stroke-linejoin="round"/>
<path d="M0.5 4.5V5.5" stroke="#1D1D1D" stroke-linecap="round" stroke-linejoin="round"/>
<path d="M0.5 7.5V11.5" stroke="#1D1D1D" stroke-linecap="round" stroke-linejoin="round"/>
<path d="M12 10C12.5523 10 13 9.55228 13 9C13 8.44772 12.5523 8 12 8C11.4477 8 11 8.44772 11 9C11 9.55228 11.4477 10 12 10Z" fill="#1D1D1D"/>
</svg>
