<svg xmlns="http://www.w3.org/2000/svg" width="45" height="37" viewBox="0 0 45 37" fill="none">
<path d="M40.5 0.5H4.5C2.29086 0.5 0.5 2.29086 0.5 4.5V32.5C0.5 34.7091 2.29086 36.5 4.5 36.5H40.5C42.7091 36.5 44.5 34.7091 44.5 32.5V4.5C44.5 2.29086 42.7091 0.5 40.5 0.5Z" stroke="#0A8276" stroke-linecap="round" stroke-linejoin="round"/>
<path d="M31.5 13.5H13.5V23.5H31.5V13.5Z" stroke="#0A8276" stroke-linecap="round" stroke-linejoin="round"/>
<path d="M6 7.5C6.82843 7.5 7.5 6.82843 7.5 6C7.5 5.17157 6.82843 4.5 6 4.5C5.17157 4.5 4.5 5.17157 4.5 6C4.5 6.82843 5.17157 7.5 6 7.5Z" fill="#0A8276"/>
<path d="M39 7.5C39.8284 7.5 40.5 6.82843 40.5 6C40.5 5.17157 39.8284 4.5 39 4.5C38.1716 4.5 37.5 5.17157 37.5 6C37.5 6.82843 38.1716 7.5 39 7.5Z" fill="#0A8276"/>
<path d="M6 32.5C6.82843 32.5 7.5 31.8284 7.5 31C7.5 30.1716 6.82843 29.5 6 29.5C5.17157 29.5 4.5 30.1716 4.5 31C4.5 31.8284 5.17157 32.5 6 32.5Z" fill="#0A8276"/>
<path d="M39 32.5C39.8284 32.5 40.5 31.8284 40.5 31C40.5 30.1716 39.8284 29.5 39 29.5C38.1716 29.5 37.5 30.1716 37.5 31C37.5 31.8284 38.1716 32.5 39 32.5Z" fill="#0A8276"/>
</svg>