<svg xmlns="http://www.w3.org/2000/svg" width="24" height="24" fill="none"><path d="M11.469 1.042c-1.596.142-3.317.689-4.749 1.51-.354.203-1.027.665-1.4.963-.452.361-1.233 1.113-1.549 1.492-.124.149-.232.265-.239.258-.008-.008.085-.807.207-1.776.122-.97.221-1.816.221-1.88 0-.176-.157-.38-.343-.445-.146-.051-.176-.048-.35.029-.139.061-.204.119-.244.215-.05.119-.783 5.787-.783 6.048 0 .251.218.464.476.464.113 0 5.764-1.555 5.954-1.639.123-.054.25-.273.25-.433a.475.475 0 0 0-.49-.488c-.074 0-1.132.278-2.351.617-1.22.34-2.225.61-2.234.601-.009-.009.11-.183.264-.387a10.535 10.535 0 0 1 6.951-4.096c.688-.099 2.231-.1 2.872-.002 2.354.359 4.363 1.36 5.989 2.986a10.444 10.444 0 0 1 2.978 6.019 10.531 10.531 0 0 1-2.023 7.722c-1.434 1.918-3.575 3.316-5.936 3.88-.954.227-1.407.279-2.44.276-.988-.003-1.434-.049-2.281-.235-1.069-.236-2.411-.787-3.319-1.362a10.574 10.574 0 0 1-4.343-5.525 10.538 10.538 0 0 1-.541-2.905c-.03-.628-.067-.748-.268-.871a.488.488 0 0 0-.686.198c-.147.284-.015 1.769.258 2.904a11.636 11.636 0 0 0 2.221 4.522 14.232 14.232 0 0 0 1.766 1.766 11.507 11.507 0 0 0 8.953 2.389c5.161-.793 9.125-4.973 9.681-10.209.271-2.554-.391-5.268-1.812-7.428a10.35 10.35 0 0 0-1.487-1.823c-.99-.993-1.801-1.577-3.062-2.208-1.837-.919-4.033-1.331-6.111-1.147m.783 3.036C11.984 4.241 12 3.969 12 8.5s-.016 4.259.252 4.422c.124.075.224.078 3.248.078s3.124-.003 3.248-.078a.485.485 0 0 0 0-.844c-.124-.075-.222-.078-2.938-.078H13V8.19c0-3.708-.002-3.813-.078-3.938a.478.478 0 0 0-.67-.174" fill-rule="evenodd" fill="#000"/></svg>