<svg width="16" height="16" fill="none" xmlns="http://www.w3.org/2000/svg"><path d="M7.8.051C7.638.126.138 7.132.058 7.283c-.211.399.227.858.638.669.082-.038 1.187-1.054 3.702-3.403A542.403 542.403 0 0 1 8 1.2c.009 0 1.63 1.507 3.602 3.349 2.515 2.349 3.62 3.365 3.702 3.403.411.189.849-.27.638-.669C15.862 7.132 8.362.126 8.2.051a.447.447 0 0 0-.4 0M2.35 8.019a.6.6 0 0 0-.191.14c-.102.101-.132.152-.145.244-.009.064-.013 1.725-.009 3.69l.008 3.574.062.086c.034.048.105.12.158.16l.096.074 2.109.008c1.42.005 2.14-.001 2.205-.02a.46.46 0 0 0 .291-.243c.051-.1.053-.164.053-1.918V12h2.025l.007 1.849.008 1.849.077.101a.575.575 0 0 0 .192.151c.11.049.199.051 2.245.044l2.13-.007.096-.074a.884.884 0 0 0 .158-.16l.062-.086V8.333l-.062-.086c-.216-.303-.608-.325-.821-.046l-.077.102-.014 3.348L13 15l-1.5.007-1.5.007v-1.801c0-1.561-.005-1.814-.041-1.9a.426.426 0 0 0-.231-.249c-.094-.048-.182-.051-1.728-.051s-1.634.003-1.728.051a.426.426 0 0 0-.231.249c-.036.086-.041.339-.041 1.9v1.801l-1.5-.007L3 15l-.013-3.333c-.012-3.03-.018-3.341-.058-3.414-.109-.199-.318-.283-.579-.234" fill-rule="evenodd" fill="#000"/></svg>