<svg xmlns="http://www.w3.org/2000/svg" width="16" height="16" fill="none"><path d="M7.8.051C7.636.127.138 7.133.06 7.282a.46.46 0 0 0 .103.576c.16.151.349.182.544.09.066-.031 1.478-1.332 3.691-3.399A542.403 542.403 0 0 1 8 1.2c.009 0 1.63 1.507 3.602 3.349 2.213 2.067 3.625 3.368 3.691 3.399a.466.466 0 0 0 .565-.111.452.452 0 0 0 .082-.555C15.862 7.133 8.364.127 8.2.051a.447.447 0 0 0-.4 0M2.36 8.023a.576.576 0 0 0-.281.211l-.066.095-.007 3.602c-.005 1.981-.001 3.642.008 3.691.019.107.181.293.298.342.07.029.485.036 2.187.035 1.981 0 2.107-.003 2.209-.049a.479.479 0 0 0 .276-.351c.02-.089.029-.718.029-1.867V12h1.974v1.732c0 1.149.009 1.778.029 1.867.035.163.13.285.276.351.102.046.228.049 2.206.049 1.416.001 2.123-.008 2.174-.027a.66.66 0 0 0 .291-.284c.055-.128.055-7.246 0-7.377a.583.583 0 0 0-.382-.3.494.494 0 0 0-.564.384c-.022.101-.03 1.064-.03 3.38v3.238H10v-1.801c0-1.56-.005-1.813-.041-1.899a.43.43 0 0 0-.232-.25c-.096-.049-.17-.051-1.763-.044l-1.662.008-.1.077c-.209.159-.201.071-.201 2.103L6 15.013H3.013v-3.238c0-2.235-.009-3.281-.029-3.374a.59.59 0 0 0-.099-.219.524.524 0 0 0-.525-.159" fill-rule="evenodd" fill="#000"/></svg>