<svg xmlns="http://www.w3.org/2000/svg" width="24" height="24" fill="none"><path d="M12.3 2.055c-.104.049-10.86 8.823-11.15 9.096-.294.277-.115.792.291.837a.39.39 0 0 0 .328-.083A813.6 813.6 0 0 0 7.2 7.482c2.905-2.377 5.29-4.322 5.3-4.322.01 0 2.395 1.945 5.3 4.322a813.6 813.6 0 0 0 5.431 4.423c.502.343 1.043-.355.599-.772-.141-.131-10.811-8.86-11.011-9.006a.534.534 0 0 0-.519-.072M4.252 13.078c-.27.165-.252-.215-.252 5.43 0 5 .002 5.115.078 5.24.167.273-.533.252 8.43.252 7.975 0 8.114-.002 8.24-.078.27-.165.252.214.252-5.422s.018-5.257-.252-5.422a.451.451 0 0 0-.496 0c-.269.164-.252-.182-.252 5.12V23h-5v-2.81c0-2.716-.003-2.814-.078-2.938-.158-.258-.099-.252-2.43-.252-2.024 0-2.117.004-2.24.078-.263.161-.252.028-.252 3.12V23H5v-4.81c0-4.7-.002-4.813-.078-4.938a.478.478 0 0 0-.67-.174M14 20.5V23h-3v-5h3v2.5" fill-rule="evenodd" fill="#000"/></svg>