<svg xmlns="http://www.w3.org/2000/svg" width="24" height="24" fill="none"><path d="M8.252 1.078C7.987 1.24 8 1.053 8 4.698V8H4.69c-3.212 0-3.314.003-3.438.078-.268.163-.252-.11-.252 4.43 0 4.008.002 4.115.078 4.24.162.265-.025.252 3.62.252H8v3.31c0 3.212.003 3.314.078 3.438.163.268-.109.252 4.422.252s4.259.016 4.422-.252c.075-.124.078-.226.078-3.438V17h3.31c3.212 0 3.314-.003 3.438-.078.268-.163.252.109.252-4.422s.016-4.259-.252-4.422C23.624 8.003 23.522 8 20.31 8H17V4.69c0-3.212-.003-3.314-.078-3.438-.163-.268.11-.252-4.43-.252-4.008 0-4.115.002-4.24.078M16 5.302c0 3.645-.013 3.458.252 3.62.124.075.226.078 3.438.078H23v7h-3.31c-3.212 0-3.314.003-3.438.078-.265.162-.252-.025-.252 3.62V23H9v-3.31c0-3.212-.003-3.314-.078-3.438-.162-.265.025-.252-3.62-.252H2V9h3.302c3.645 0 3.458.013 3.62-.252C8.997 8.624 9 8.522 9 5.31V2h7v3.302" fill-rule="evenodd" fill="#000"/></svg>