<svg xmlns="http://www.w3.org/2000/svg" width="16" height="16" fill="none"><path d="M8.987 1.507v1.506H6V4h2.986l.007 1.5L9 7l.5.007.5.008V4h3.013v-.987H10V0H8.987v1.507M0 9.507V16h1.013v-2h13.974v2H16v-6H6v-.353c0-.416-.027-.606-.134-.939a2.587 2.587 0 0 0-.827-1.175 2.935 2.935 0 0 0-.839-.431l-.24-.074-1.473-.009-1.474-.008V3.013H0v6.494M3.827 8.04c.278.059.504.184.72.4.338.338.44.613.44 1.192V10H1.013V8h1.314c1.052.001 1.35.009 1.5.04m11.16 3.973v1H1.013v-2h13.974v1" fill-rule="evenodd" fill="#000"/></svg>