<svg xmlns="http://www.w3.org/2000/svg" width="16" height="16" fill="none"><path d="M5.292.05a.479.479 0 0 0-.276.351c-.02.091-.029.86-.029 2.373v2.238l-2.342.008-2.343.007-.1.077a.571.571 0 0 0-.151.186c-.048.105-.05.228-.05 2.71 0 2.466.003 2.606.049 2.708a.479.479 0 0 0 .351.276c.091.02.856.029 2.36.029h2.226v2.226c0 1.504.009 2.269.029 2.36.035.163.13.285.276.351.102.046.242.049 2.708.049s2.606-.003 2.708-.049a.479.479 0 0 0 .276-.351c.02-.091.029-.856.029-2.36v-2.226h2.226c1.504 0 2.269-.009 2.36-.029a.479.479 0 0 0 .351-.276c.046-.102.049-.243.049-2.702.001-2.275-.004-2.606-.04-2.693a.426.426 0 0 0-.231-.249c-.095-.049-.195-.051-2.407-.051h-2.308V2.775c0-1.514-.009-2.283-.029-2.374a.479.479 0 0 0-.276-.351C10.606.004 10.466.001 8 .001S5.394.004 5.292.05M10 3.305c0 1.551.009 2.316.028 2.367a.66.66 0 0 0 .284.291c.071.031.488.037 2.38.037h2.295v3.999l-2.327.007-2.327.007-.096.066a.706.706 0 0 0-.16.158l-.064.092-.007 2.342-.007 2.342H6.001l-.007-2.344c-.007-2.322-.008-2.346-.062-2.419a1.202 1.202 0 0 0-.156-.155l-.101-.082-2.331-.007-2.331-.007V6h2.295c1.892 0 2.309-.006 2.38-.037a.66.66 0 0 0 .284-.291C5.991 5.621 6 4.856 6 3.305V1.013h4v2.292" fill-rule="evenodd" fill="#000"/></svg>