<svg xmlns="http://www.w3.org/2000/svg" width="16" height="16" fill="none"><path d="M1.293.05a.65.65 0 0 0-.17.119C1.06.237.98.478.999.541l.026.105c.02.091.156.248.266.309.071.039.19.046.884.053l.802.009.032.805c.044 1.115.122 1.727.326 2.556.353 1.432.9 2.54 1.687 3.415l.185.206-.183.203c-.776.857-1.338 1.995-1.689 3.42-.208.843-.282 1.426-.326 2.558l-.032.833h-.81c-.655 0-.824.008-.884.039-.102.052-.239.213-.258.302a2.71 2.71 0 0 1-.026.105c-.019.063.061.304.124.372a.65.65 0 0 0 .17.119c.103.047.347.049 6.707.049 6.36 0 6.604-.002 6.707-.049a.65.65 0 0 0 .17-.119c.063-.068.143-.309.124-.372a2.71 2.71 0 0 1-.026-.105c-.019-.089-.156-.25-.258-.302-.06-.031-.229-.039-.884-.039h-.81l-.032-.82c-.043-1.128-.121-1.738-.326-2.571-.353-1.432-.9-2.54-1.687-3.415L10.792 8l.186-.207c.786-.874 1.334-1.985 1.687-3.415.204-.829.282-1.441.326-2.556l.032-.805.802-.009c.694-.007.813-.014.884-.053.11-.061.246-.218.266-.309a2.71 2.71 0 0 1 .026-.105c.019-.063-.061-.304-.124-.372a.65.65 0 0 0-.17-.119C14.604.003 14.36.001 8 .001c-6.36 0-6.604.002-6.707.049m10.699 1.637c-.029 1.196-.167 2.097-.462 3.033-.403 1.277-.939 2.15-1.711 2.785-.259.212-.31.294-.31.495s.051.283.31.495c.772.635 1.308 1.508 1.711 2.785.297.941.433 1.84.462 3.047l.016.686H4v-.446c.001-1.911.426-3.668 1.19-4.922.286-.469.584-.815.991-1.15.259-.212.31-.294.31-.495s-.051-.283-.31-.495a4.156 4.156 0 0 1-.691-.71C4.552 5.564 4.002 3.589 4 1.447v-.434h8.008l-.016.674" fill-rule="evenodd" fill="#000"/></svg>