<svg xmlns="http://www.w3.org/2000/svg" width="24" height="24" fill="none"><path d="M3.252 1.078a.478.478 0 0 0-.174.67c.142.232.229.252 1.12.252H5v1.797c0 1.061.018 1.924.043 2.106.058.417.211.93.393 1.317.083.176.892 1.432 1.798 2.791A229.995 229.995 0 0 1 8.88 12.5c0 .01-.741 1.13-1.646 2.489-.906 1.359-1.715 2.615-1.798 2.791-.182.387-.335.9-.393 1.317-.025.182-.043 1.045-.043 2.106V23h-.802c-.891 0-.978.02-1.12.252a.451.451 0 0 0 0 .496c.167.274-.638.252 9.422.252s9.255.022 9.422-.252a.451.451 0 0 0 0-.496c-.142-.232-.229-.252-1.12-.252H20v-1.797c0-1.061-.018-1.924-.043-2.106a4.966 4.966 0 0 0-.393-1.317c-.083-.176-.892-1.432-1.798-2.791A229.995 229.995 0 0 1 16.12 12.5c0-.01.741-1.13 1.646-2.489.906-1.359 1.715-2.615 1.798-2.791.182-.387.335-.9.393-1.317.025-.182.043-1.045.043-2.106V2h.81c.733 0 .822-.008.938-.078a.485.485 0 0 0 0-.844C21.622 1.002 21.475 1 12.5 1s-9.122.002-9.248.078M18.99 3.93c-.014 1.816-.02 1.948-.099 2.234a4.59 4.59 0 0 1-.201.56c-.064.141-.892 1.419-1.839 2.84a178.854 178.854 0 0 0-1.787 2.708.458.458 0 0 0 0 .456c.035.068.839 1.287 1.787 2.708.947 1.421 1.775 2.699 1.839 2.84.064.141.155.393.201.56.079.286.085.418.099 2.234l.015 1.93H6v-1.775c0-1.408.013-1.847.061-2.123.122-.703.171-.788 2.061-3.625a195.364 195.364 0 0 0 1.814-2.749.458.458 0 0 0 0-.456c-.035-.068-.852-1.305-1.814-2.749-1.89-2.837-1.939-2.922-2.061-3.625C6.013 5.622 6 5.183 6 3.775V2H19.005l-.015 1.93m-6.71 10.314c-.376.074-.389.09-2.106 2.66-1.791 2.682-1.707 2.522-1.686 3.22l.012.376h8v-.44c0-.242-.015-.509-.032-.593-.022-.101-.568-.956-1.63-2.549-1.653-2.481-1.743-2.598-2.04-2.655-.26-.05-.345-.054-.518-.019" fill-rule="evenodd" fill="#000"/></svg>