<svg xmlns="http://www.w3.org/2000/svg" width="24" height="24" fill="none" viewBox="0 0 24 24"><path stroke="currentColor" stroke-linecap="round" stroke-linejoin="round" d="M3.5 1.5h18M3.5 23.5h18"/><path fill="currentColor" d="M8.5 20.5v-.789a1 1 0 0 1 .167-.553l3-4.5a.998.998 0 0 1 1.664 0l3 4.5a1 1 0 0 1 .168.555v.787H8.5Z"/><path stroke="currentColor" stroke-linecap="round" stroke-linejoin="round" d="M5.5 23.5v-3.789a4 4 0 0 1 .672-2.219L9.5 12.5 6.172 7.508A4 4 0 0 1 5.5 5.289V1.5M19.5 1.5v3.789a4 4 0 0 1-.672 2.219L15.5 12.5l3.328 4.992a4 4 0 0 1 .672 2.219V23.5"/></svg>