<svg xmlns="http://www.w3.org/2000/svg" width="16" height="16" fill="none"><path d="M1.666 2.028c-.739.126-1.34.655-1.59 1.399l-.063.186L.006 6.4c-.009 3.027-.01 2.995.139 3.361a2.074 2.074 0 0 0 1.396 1.19c.265.064 1.054.066 1.168.004.11-.061.246-.218.266-.309a2.71 2.71 0 0 1 .026-.105c.019-.063-.061-.304-.124-.371-.128-.137-.194-.154-.664-.171-.299-.011-.476-.03-.554-.058a1.036 1.036 0 0 1-.591-.596c-.055-.148-.055-.168-.048-2.887l.007-2.738.065-.133a1.19 1.19 0 0 1 .474-.482l.154-.078h8.56l.133.065c.186.091.39.292.482.474l.078.154.007 2.738c.008 2.721.007 2.738-.048 2.886-.101.27-.325.497-.591.599-.101.039-.336.045-2.061.057l-1.947.013-.096.066a.5.5 0 0 0-.064.798c.158.138.216.141 2.26.129 2.056-.011 2.006-.008 2.383-.178a2.093 2.093 0 0 0 1.039-1.067c.149-.366.148-.334.139-3.361l-.007-2.787-.063-.186a2.078 2.078 0 0 0-1.35-1.346l-.214-.068-4.28-.003c-2.354-.003-4.34.006-4.414.018m4 4c-.74.126-1.34.655-1.59 1.399l-.063.186-.007 2.787c-.009 3.027-.01 2.995.139 3.361.232.571.772 1.032 1.396 1.193.166.043.488.046 4.459.046 3.971 0 4.293-.003 4.459-.046.624-.161 1.164-.622 1.396-1.193.149-.366.148-.334.139-3.361l-.007-2.787-.063-.186c-.22-.657-.72-1.154-1.35-1.343-.178-.053-.291-.066-.675-.077-.515-.015-.625.007-.765.152-.071.075-.156.314-.135.382l.026.105a.49.49 0 0 0 .099.168c.145.165.201.181.703.198.406.015.467.023.586.081.185.089.39.29.482.473l.078.154V13.267l-.071.153c-.079.167-.281.387-.425.461-.233.121-.128.118-4.477.118s-4.244.003-4.477-.118c-.144-.074-.346-.294-.425-.461l-.071-.153V7.72l.078-.154a1.19 1.19 0 0 1 .482-.474l.133-.065 1.947-.014c2.145-.014 2.058-.007 2.205-.182a.523.523 0 0 0 .121-.397c-.015-.135-.07-.22-.217-.339l-.101-.082-1.937-.004c-1.066-.002-1.998.007-2.072.019" fill-rule="evenodd" fill="#000"/></svg>