<?xml version="1.0" standalone="no"?>
<!DOCTYPE svg PUBLIC "-//W3C//DTD SVG 20010904//EN"
 "http://www.w3.org/TR/2001/REC-SVG-20010904/DTD/svg10.dtd">
<svg version="1.0" xmlns="http://www.w3.org/2000/svg"
 width="32.000000pt" height="32.000000pt" viewBox="0 0 32.000000 32.000000"
 preserveAspectRatio="xMidYMid meet">
<metadata>
Created by potrace 1.16, written by Peter Selinger 2001-2019
</metadata>
<g transform="translate(0.000000,32.000000) scale(0.100000,-0.100000)"
fill="#000000" stroke="none">
<path d="M120 285 c-26 -27 -31 -38 -22 -47 9 -9 16 -7 32 7 20 18 20 18 20
-78 0 -54 -2 -97 -5 -97 -12 0 -85 33 -85 39 0 3 9 12 20 19 22 14 27 61 8 80
-15 15 -61 15 -76 0 -18 -18 -14 -65 7 -80 10 -7 20 -22 22 -33 3 -13 22 -26
57 -40 35 -13 52 -25 52 -37 0 -18 15 -25 22 -10 2 4 26 17 53 28 36 15 51 27
53 42 2 14 11 22 23 22 16 0 19 7 19 50 l0 50 -50 0 -50 0 0 -50 c0 -43 3 -50
20 -50 33 0 23 -17 -20 -34 -22 -9 -43 -16 -45 -16 -3 0 -5 48 -5 107 0 106 0
106 20 88 16 -14 23 -16 32 -7 9 9 4 20 -22 47 -19 19 -37 35 -40 35 -3 0 -21
-16 -40 -35z"/>
</g>
</svg>
