<?xml version="1.0" encoding="utf-8"?>
<!-- Generator: Adobe Illustrator 27.8.0, SVG Export Plug-In . SVG Version: 6.00 Build 0)  -->
<svg version="1.1" id="Ebene_1" xmlns="http://www.w3.org/2000/svg" xmlns:xlink="http://www.w3.org/1999/xlink" x="0px" y="0px"
	 viewBox="0 0 48 48" style="enable-background:new 0 0 48 48;" xml:space="preserve">
<style type="text/css">
	.st0{fill:none;}
	.st1{fill:#0A8276;}
</style>
<rect class="st0" width="48" height="48"/>
<g>
	<g>
		<polygon class="st1" points="15.5,20.7 11,16 8.6,16 1.6,9 9,1.6 16,8.6 16,11.1 20.6,15.8 19.2,17.2 14,11.9 14,9.4 9,4.4 4.4,9 
			9.4,14 11.9,14 16.9,19.3 		"/>
	</g>
	<g>
		<path class="st1" d="M10.6,46c-1,0-2.1-0.4-2.8-1.2l-4.6-4.6c0,0-0.1-0.1-0.1-0.1c-0.7-0.8-1.1-1.8-1-2.9s0.5-2.1,1.3-2.8L23,16.7
			c-0.3-1.3-0.4-2.5-0.3-3.8c0.5-5.8,5-10.3,10.8-10.8c1.5-0.1,3,0.1,4.5,0.5L39.5,3l-6.2,6.2l5.5,5.5L45,8.5l0.5,1.6
			c0.4,1.4,0.6,2.9,0.5,4.4c-0.5,5.8-5,10.3-10.8,10.8c-1.3,0.1-2.6,0-3.9-0.3L13.4,44.8C12.7,45.6,11.6,46,10.6,46z M34.3,4
			c-0.2,0-0.5,0-0.7,0c-4.8,0.4-8.5,4.2-8.9,9c-0.1,1.3,0.1,2.5,0.4,3.7l0.2,0.6L4.7,35.9C4.3,36.3,4,36.8,4,37.3
			c0,0.5,0.2,1.1,0.5,1.5l0.1,0.1l4.6,4.6c0.8,0.8,2.1,0.8,2.9,0l0.1-0.1l18.6-20.6l0.6,0.2c1.2,0.4,2.5,0.5,3.8,0.4
			c4.8-0.4,8.5-4.2,8.9-9c0-0.7,0-1.3-0.1-2l-5.1,5.1l-8.3-8.3l5.1-5.1C35.2,4,34.7,4,34.3,4z"/>
	</g>
	<g>
		<path class="st1" d="M37.7,45.8c-1.8,0-3.6-0.7-5-2.1c-0.1-0.1-0.2-0.2-0.3-0.3l-8.1-8.8l1.5-1.4l8.1,8.8c0.1,0.1,0.1,0.1,0.2,0.2
			c1,1,2.2,1.5,3.6,1.5c1.4,0,2.6-0.5,3.6-1.5c0.1-0.1,0.1-0.1,0.2-0.2c1.9-2.1,1.7-5.3-0.4-7.2l-6.8-6.3l1.4-1.5l6.8,6.3
			c2.9,2.6,3.1,7.1,0.5,10c-0.1,0.1-0.2,0.2-0.2,0.3C41.3,45.1,39.5,45.8,37.7,45.8z"/>
	</g>
</g>
</svg>
