<?xml version="1.0" encoding="utf-8"?>
<!-- Generator: Adobe Illustrator 27.8.0, SVG Export Plug-In . SVG Version: 6.00 Build 0)  -->
<svg version="1.1" id="Ebene_1" xmlns="http://www.w3.org/2000/svg" xmlns:xlink="http://www.w3.org/1999/xlink" x="0px" y="0px"
	 viewBox="0 0 48 48" style="enable-background:new 0 0 48 48;" xml:space="preserve">
<style type="text/css">
	.st0{fill:none;}
	.st1{fill:#0A8276;}
</style>
<rect x="0" class="st0" width="48" height="48"/>
<path class="st1" d="M24,1C11.3,1,1,11.3,1,24c0,12.7,10.3,23,23,23c12.7,0,23-10.3,23-23C47,11.3,36.7,1,24,1z M35,41.8
	c-1.3-1.5-3-2.8-5-4.1c0-0.2,0.1-0.4,0.1-0.7c0-2.2-1.8-4-4-4c-1.2,0-2.3,0.6-3,1.4c-1.7-0.6-3.5-1.1-5.4-1.5
	c-4.5-0.9-9-1.2-12.9-0.7c-0.6-1.4-1-2.8-1.3-4.4c1.1-0.2,2.1-0.4,3.3-0.7c0.7,1.1,2,1.9,3.4,1.9c2.2,0,4-1.8,4-4
	c0-0.3,0-0.5-0.1-0.8c1.2-0.6,2.4-1.3,3.6-2.1c2.9-1.9,5.6-4.1,7.8-6.5c0.5,0.2,1.1,0.4,1.7,0.4c0.6,0,1.2-0.2,1.8-0.4
	c0.9,1.1,1.8,2.3,2.6,3.5c3.1,4.8,5.1,9.9,5.6,14.4C37.5,37.3,36.7,40.2,35,41.8z M28,37c0,1.1-0.9,2-2,2c-1.1,0-2-0.9-2-2
	s0.9-2,2-2C27.1,35,28,35.9,28,37z M8,25c0-1.1,0.9-2,2-2s2,0.9,2,2c0,1.1-0.9,2-2,2S8,26.1,8,25z M29,12c0,1.1-0.9,2-2,2
	s-2-0.9-2-2s0.9-2,2-2S29,10.9,29,12z M29.4,3.7c0,1.3-0.5,2.8-1.2,4.5C27.8,8.1,27.4,8,27,8c-0.8,0-1.6,0.2-2.2,0.7
	c-2.8-2.3-5.7-3.7-8.3-4.3C18.9,3.5,21.4,3,24,3C25.9,3,27.6,3.3,29.4,3.7z M12.6,6.4l0.5-0.1c2.7-0.6,6.6,0.8,10.4,3.9
	C23.2,10.7,23,11.3,23,12c0,0.9,0.3,1.7,0.8,2.3c-2.1,2.2-4.6,4.3-7.3,6.1c-1.1,0.7-2.3,1.4-3.4,2c-0.7-0.9-1.8-1.4-3-1.4
	c-2.2,0-4,1.8-4,4c0,0.1,0,0.2,0,0.2c-1,0.3-2,0.5-2.9,0.7C3,25.3,3,24.6,3,24C3,16.6,6.8,10.2,12.6,6.4z M5.6,34.1
	c3.6-0.4,7.5-0.1,11.6,0.7c1.7,0.4,3.3,0.8,4.9,1.4c0,0.2-0.1,0.5-0.1,0.8c0,2.2,1.8,4,4,4c1.3,0,2.4-0.6,3.1-1.5
	c1.7,1,3.1,2.2,4.1,3.3C30.4,44.2,27.3,45,24,45C16.1,45,9.2,40.6,5.6,34.1z M38.7,38.9c0.4-1.6,0.5-3.5,0.3-5.7
	c-0.5-4.8-2.7-10.2-5.9-15.2c-0.9-1.3-1.8-2.6-2.8-3.8c0.4-0.6,0.7-1.4,0.7-2.3c0-1.1-0.4-2.1-1.2-2.8c0.8-1.7,1.3-3.3,1.5-4.9
	C39.3,7.3,45,15,45,24C45,29.8,42.6,35.1,38.7,38.9z"/>
</svg>
