<?xml version="1.0" encoding="utf-8"?>
<!-- Generator: Adobe Illustrator 27.8.0, SVG Export Plug-In . SVG Version: 6.00 Build 0)  -->
<svg version="1.1" id="Ebene_1" xmlns="http://www.w3.org/2000/svg" xmlns:xlink="http://www.w3.org/1999/xlink" x="0px" y="0px"
	 viewBox="0 0 48 48" style="enable-background:new 0 0 48 48;" xml:space="preserve">
<style type="text/css">
	.st0{fill:none;}
	.st1{fill:#0A8276;}
</style>
<rect class="st0" width="48" height="48"/>
<g>
	<g>
		<path class="st1" d="M23,38H1v-9c0-2.8,2.2-5,5-5h12c2.8,0,5,2.2,5,5V38z M3,36h18v-7c0-1.7-1.3-3-3-3H6c-1.7,0-3,1.3-3,3V36z"/>
	</g>
	<g>
		<path class="st1" d="M12,22c-3.3,0-6-2.7-6-6s2.7-6,6-6s6,2.7,6,6S15.3,22,12,22z M12,12c-2.2,0-4,1.8-4,4s1.8,4,4,4s4-1.8,4-4
			S14.2,12,12,12z"/>
	</g>
	<g>
		<path class="st1" d="M47,38H25v-9c0-2.8,2.2-5,5-5h12c2.8,0,5,2.2,5,5V38z M27,36h18v-7c0-1.7-1.3-3-3-3H30c-1.7,0-3,1.3-3,3V36z"
			/>
	</g>
	<g>
		<path class="st1" d="M36,22c-3.3,0-6-2.7-6-6s2.7-6,6-6s6,2.7,6,6S39.3,22,36,22z M36,12c-2.2,0-4,1.8-4,4s1.8,4,4,4s4-1.8,4-4
			S38.2,12,36,12z"/>
	</g>
</g>
</svg>
