<?xml version="1.0" encoding="utf-8"?>
<!-- Generator: Adobe Illustrator 27.8.0, SVG Export Plug-In . SVG Version: 6.00 Build 0)  -->
<svg version="1.1" id="Ebene_1" xmlns="http://www.w3.org/2000/svg" xmlns:xlink="http://www.w3.org/1999/xlink" x="0px" y="0px"
	 viewBox="0 0 48 48" style="enable-background:new 0 0 48 48;" xml:space="preserve">
<style type="text/css">
	.st0{fill:none;}
	.st1{fill:#0A8276;}
</style>
<rect class="st0" width="48" height="48"/>
<g>
	<g>
		<path class="st1" d="M27.9,22.5c-2.5,0-4.5-2-4.5-4.5s2-4.5,4.5-4.5s4.5,2,4.5,4.5S30.4,22.5,27.9,22.5z M27.9,15.5
			c-1.4,0-2.5,1.1-2.5,2.5s1.1,2.5,2.5,2.5s2.5-1.1,2.5-2.5S29.3,15.5,27.9,15.5z"/>
	</g>
	<g>
		<path class="st1" d="M34.4,25.6l-1.4-1.4l0.7-0.7c0.6-0.6,1.1-1.3,1.4-2l0.3-0.6l3.6,0.1l0.4-2.7l-3.4-0.9l-0.1-0.6
			c-0.2-1.1-0.6-2.2-1.3-3.1L34.1,13L36,9.9l-2.1-1.7l-2.5,2.5l-0.6-0.2c-1.1-0.4-2.2-0.6-3.4-0.5l-0.6,0L25,7l-2.5,1l0.9,3.4
			l-0.5,0.4c-0.9,0.7-1.6,1.6-2.1,2.7l-0.3,0.6L17,15l-0.4,2.7l3.8,1l-0.5,1.9l-5.5-1.5l0.9-6.2l4.1,0.1c0.5-0.9,1.1-1.6,1.8-2.3
			l-1-3.9l5.8-2.3l2,3.6c1,0,2,0.1,3,0.4l2.9-2.9l4.9,3.9l-2.1,3.5c0.5,0.9,0.9,1.8,1.1,2.8l3.9,1.1l-0.9,6.2l-4.1-0.1
			c-0.4,0.7-0.9,1.4-1.5,2L34.4,25.6z"/>
	</g>
	<g>
		<path class="st1" d="M18.8,43.3c-1,0-2-0.3-2.8-0.8l-9.6-6.4c-0.5-0.3-1.1-0.5-1.7-0.5H1V21.7l8-0.9c1.4-0.2,2.8,0,4.2,0.5
			l5.5,2.1c0.4,0.2,0.8,0.3,1.3,0.4l10.2,1.7c2.1,0.1,3.8,2,3.8,4.2c0,2.2-1.7,4-3.9,4.2l-12,0.9l-0.1-2l12-0.9
			c1.2-0.1,2.1-1.1,2.1-2.2c0-1.2-0.9-2.1-2.1-2.2l-10.3-1.7c-0.7-0.1-1.2-0.3-1.7-0.5l-5.5-2c-1-0.4-2.1-0.5-3.2-0.4L3,23.5v10.1
			h1.8c1,0,2,0.3,2.8,0.8l9.6,6.4c0.7,0.5,1.5,0.6,2.3,0.4l15.4-3.4c0.5-0.1,0.9-0.3,1.3-0.6l8.1-6.7c0.8-0.7,1-1.8,0.5-2.7
			c-0.6-1-1.9-1.4-2.8-0.8l-5.2,3l-1-1.7l5.2-3c1.9-1.1,4.4-0.4,5.5,1.5c1.1,1.8,0.7,4-0.9,5.3l-8.1,6.7c-0.6,0.5-1.3,0.9-2.1,1
			l-15.4,3.4C19.6,43.2,19.2,43.3,18.8,43.3z"/>
	</g>
</g>
</svg>
