<?xml version="1.0" encoding="utf-8"?>
<!-- Generator: Adobe Illustrator 27.8.0, SVG Export Plug-In . SVG Version: 6.00 Build 0)  -->
<svg version="1.1" id="Ebene_1" xmlns="http://www.w3.org/2000/svg" xmlns:xlink="http://www.w3.org/1999/xlink" x="0px" y="0px"
	 viewBox="0 0 48 48" style="enable-background:new 0 0 48 48;" xml:space="preserve">
<style type="text/css">
	.st0{fill:none;}
	.st1{fill:#0A8276;}
</style>
<rect x="0" class="st0" width="48" height="48"/>
<g>
	<polygon class="st1" points="25,41 23,41 23,44 13,44 13,46 35,46 35,44 25,44 	"/>
	<path class="st1" d="M42.8,6H41v2h1.8C44,8,45,9,45,10.2v24.6c0,1.2-1,2.2-2.2,2.2H5.1C4,37,3,36,3,34.8V10.2C3,9,4,8,5.2,8L6,8
		l0-2L5.1,6C2.9,6,1,7.9,1,10.2v24.6C1,37.1,2.9,39,5.1,39h37.7c2.3,0,4.2-1.9,4.2-4.2V10.2C47,7.9,45.1,6,42.8,6z"/>
	<rect x="12.7" y="4.7" transform="matrix(0.714 -0.7002 0.7002 0.714 -2.1824 12.0887)" class="st1" width="2" height="8"/>
	<path class="st1" d="M34.6,29.4c-1.1,1.1-3,1.1-4.1,0l-4-4.3L25,26.5l3.8,4.2c0.1,0.1,0.1,0.1,0.2,0.2c1,1,2.2,1.4,3.5,1.4
		c1.3,0,2.5-0.5,3.5-1.4c0.1-0.1,0.1-0.1,0.2-0.2c1.8-2,1.7-5.1-0.3-6.9l-3.8-3.6l-1.4,1.5l3.8,3.6c0.6,0.5,0.9,1.2,1,2
		c0,0.8-0.2,1.5-0.8,2.1L34.6,29.4z"/>
	<path class="st1" d="M12.5,30.4c0.6,0.6,1.3,0.9,2.2,0.9c0,0,0,0,0,0c0.8,0,1.6-0.3,2.2-0.9l11.5-12.6c0.6,0.1,1.1,0.2,1.7,0.2
		c4.5,0,8.2-3.7,8.2-8.2c0-1.2-0.3-2.3-0.8-3.4l-0.6-1.3l-4.6,4.6l-2.1-2.1l4.6-4.6l-1.3-0.6c-1.1-0.5-2.3-0.8-3.4-0.8
		c-4.5,0-8.2,3.7-8.2,8.2c0,0.7,0.1,1.3,0.3,2L9.5,22.8c-0.6,0.5-1,1.3-1,2.1c0,0.8,0.2,1.6,0.8,2.2L12.5,30.4z M10.8,24.3l13.5-12
		l-0.2-0.6c-0.2-0.7-0.3-1.3-0.3-2c0-3.4,2.8-6.2,6.2-6.2c0.4,0,0.8,0,1.2,0.1l-3.9,3.9l4.9,4.9l3.9-3.9c0.1,0.4,0.1,0.8,0.1,1.2v0
		c0,3.4-2.8,6.2-6.2,6.2c-0.6,0-1.2-0.1-1.7-0.3l-0.6-0.2L15.4,28.9c-0.2,0.2-0.5,0.3-0.7,0.3c0,0,0,0,0,0c-0.3,0-0.5-0.1-0.7-0.3
		l-3.2-3.2c-0.2-0.2-0.3-0.5-0.3-0.8C10.5,24.7,10.6,24.5,10.8,24.3z"/>
</g>
</svg>
