<?xml version="1.0" encoding="utf-8"?>
<!-- Generator: Adobe Illustrator 27.8.0, SVG Export Plug-In . SVG Version: 6.00 Build 0)  -->
<svg version="1.1" id="Ebene_1" xmlns="http://www.w3.org/2000/svg" xmlns:xlink="http://www.w3.org/1999/xlink" x="0px" y="0px"
	 viewBox="0 0 48 48" style="enable-background:new 0 0 48 48;" xml:space="preserve">
<style type="text/css">
	.st0{fill:none;}
	.st1{fill:#0A8276;}
</style>
<rect x="0" class="st0" width="48" height="48"/>
<path class="st1" d="M28,23v2h16.6c-2,5.9-6.1,14-9.6,14c-3.8,0-8.2-10-10-16.3C24.5,21,20,6.6,14,5.1V1h-2v4.1C6,6.6,1.5,21,1,22.7
	L3,23.3C4.8,17,9.2,7,13,7c3.8,0,8.1,9.7,10,16h-9V9h-2v14H5v2h7v22h2V25h9.6c1.5,4.6,5.9,16,11.4,16c6.5,0,11.4-15,12-16.7l0.4-1.3
	H28z"/>
</svg>
