<svg xmlns="http://www.w3.org/2000/svg" width="16" height="16" fill="currentColor" viewBox="0 0 16 16">
  <path fill-rule="evenodd" d="M9.707 0H1v13h1V1h7v5h5v7h1V5.293L9.707 0ZM10 5V1.707L13.293 5H10Z" clip-rule="evenodd"/>
  <path d="M7.265 8.61a.5.5 0 0 1 .61-.376l.079.02a.5.5 0 0 1 .369.583l-.4 1.998 2.54.846a.5.5 0 0 1 .327.596l-.775 3.102.97.242.776-3.101a1.5 1.5 0 0 0-.981-1.787l-1.703-.568.226-1.132a1.5 1.5 0 0 0-1.107-1.75l-.079-.02a1.5 1.5 0 0 0-1.828 1.13l-.529 2.382a1.387 1.387 0 0 0-2.134 1.76l1.967 2.756.814-.582-1.968-2.754a.387.387 0 1 1 .637-.44l1.158 1.737 1.031-4.641Z"/>
</svg>
