<svg xmlns="http://www.w3.org/2000/svg" width="16" height="16" fill="none"><path d="M1.666.029A2.029 2.029 0 0 0 .076 1.44l-.063.2v12.72l.063.2a2.056 2.056 0 0 0 1.364 1.364l.2.063h12.747l.204-.07a2.073 2.073 0 0 0 1.333-1.357l.063-.2V1.64l-.063-.2a2.057 2.057 0 0 0-1.35-1.359L14.36.013 8.08.01C4.626.008 1.74.016 1.666.029m12.768 1.076c.182.092.383.296.474.482l.065.133L14.98 6l.007 4.28-2.113-2.11c-1.718-1.716-2.133-2.117-2.217-2.144a.544.544 0 0 0-.426.058c-.046.031-1.131 1.102-2.411 2.379l-2.326 2.323-.86-.858c-.474-.472-.894-.871-.936-.886a.68.68 0 0 0-.426.014c-.047.024-.574.531-1.172 1.127l-1.087 1.083.007-4.773.007-4.773.065-.133a1.13 1.13 0 0 1 .585-.535c.079-.029 1.196-.034 6.35-.03l6.253.005.154.078M4.538 3.054c-.621.135-1.226.68-1.426 1.286a2.017 2.017 0 0 0 .843 2.366c.593.382 1.497.382 2.09 0a2.017 2.017 0 0 0 .843-2.366c-.203-.613-.806-1.153-1.439-1.287a2.9 2.9 0 0 0-.911.001m.875 1.041c.198.091.405.3.497.502.063.139.074.198.074.403 0 .205-.011.264-.074.403-.093.206-.299.41-.51.509-.138.064-.193.075-.4.075-.207 0-.262-.011-.4-.075a1.118 1.118 0 0 1-.51-.509c-.063-.139-.074-.198-.074-.403 0-.206.01-.263.073-.4.129-.281.411-.514.694-.574a1.2 1.2 0 0 1 .63.069m7.341 5.366 2.235 2.234-.008 1.293-.008 1.292-.077.152a1.01 1.01 0 0 1-.77.556c-.22.032-12.032.032-12.252 0a1.01 1.01 0 0 1-.77-.556l-.077-.152-.009-.785-.008-.785 1.248-1.248 1.248-1.248.867.863c.931.928.951.943 1.191.916a.544.544 0 0 0 .217-.083c.054-.038 1.137-1.107 2.406-2.376a260.677 260.677 0 0 1 2.32-2.307c.007 0 1.019 1.005 2.247 2.234" fill-rule="evenodd" fill="#000"/></svg>