<svg xmlns="http://www.w3.org/2000/svg" width="24" height="24" fill="none"><path d="M3.96 2.062a2.885 2.885 0 0 0-1.128.577c-.3.268-.593.713-.714 1.083l-.098.298v17l.111.3c.265.72.826 1.282 1.549 1.549l.3.111h17.04l.3-.111a2.604 2.604 0 0 0 1.549-1.549l.111-.3V3.98l-.111-.3a2.537 2.537 0 0 0-1.249-1.403c-.596-.295.043-.276-9.14-.273-6.911.002-8.302.011-8.52.058m17.14 1.07c.315.147.624.455.767.764l.113.244v16.72l-.112.24a1.698 1.698 0 0 1-.764.767l-.244.113H4.14l-.244-.113a1.698 1.698 0 0 1-.764-.767l-.112-.24V4.14l.112-.24c.198-.425.624-.775 1.042-.859.091-.018 3.883-.03 8.426-.027l8.26.006.24.112M9.493 6.592c-1.027.366-1.32 1.687-.546 2.461.863.862 2.335.383 2.532-.825.102-.63-.247-1.29-.835-1.578-.292-.143-.837-.17-1.151-.058m5.916 2.864c-.229.158-.423.403-2.329 2.945a1074.142 1074.142 0 0 1-2.09 2.782 68.5 68.5 0 0 1-1.27-1.504c-.959-1.153-1.271-1.503-1.306-1.467-.054.057-3.251 5.174-3.281 5.253-.018.047 1.111.055 7.323.055 4.039 0 7.344-.009 7.344-.02 0-.041-4.101-8.22-4.12-8.218-.011.002-.133.08-.271.174m2.749 7.014c.002.04-.711.05-3.438.05-1.892 0-3.44-.012-3.44-.026 0-.015.931-1.268 2.068-2.785l2.068-2.757 1.37 2.734c.753 1.504 1.371 2.756 1.372 2.784m-8.499-1.296c.583.701 1.061 1.29 1.061 1.31 0 .021-.8.036-1.9.036-1.045 0-1.9-.011-1.9-.024 0-.052 1.622-2.615 1.649-2.606.015.006.506.583 1.09 1.284" fill-rule="evenodd" fill="#000"/></svg>