<svg xmlns="http://www.w3.org/2000/svg" width="24" height="24" fill="none"><path d="M3.96 2.062a2.885 2.885 0 0 0-1.128.577c-.3.268-.593.713-.714 1.083l-.098.298v16l.111.3c.265.72.826 1.282 1.549 1.549l.3.111h16.04l.3-.111a2.604 2.604 0 0 0 1.549-1.549l.111-.3V3.98l-.111-.3a2.537 2.537 0 0 0-1.249-1.403c-.595-.294-.012-.276-8.64-.273-6.483.002-7.803.012-8.02.058m16.14 1.07c.315.147.624.455.767.764l.113.244.011 4.93.011 4.93H16v3H8v-3H2.998l.011-4.93.011-4.93.112-.24c.198-.425.623-.775 1.042-.859.091-.018 3.658-.03 7.926-.027l7.76.006.24.112M7 16.5V18h10v-3h4.003l-.011 2.43-.012 2.43-.113.244a1.698 1.698 0 0 1-.767.764l-.24.112H4.14l-.24-.112a1.698 1.698 0 0 1-.767-.764l-.113-.244-.012-2.43L2.997 15H7v1.5" fill-rule="evenodd" fill="#000"/></svg>