<svg xmlns="http://www.w3.org/2000/svg" width="16" height="16" fill="none"><path d="M2.538 1.054c-.621.135-1.226.68-1.426 1.286a2.735 2.735 0 0 0-.098.451c-.037.323-.037 10.095 0 10.418.056.485.247.876.593 1.215.34.333.708.507 1.184.562.323.037 10.095.037 10.418 0a1.938 1.938 0 0 0 1.215-.593c.333-.34.507-.708.562-1.184.037-.323.037-10.095 0-10.418a2.004 2.004 0 0 0-1.167-1.613c-.376-.174-.028-.164-5.832-.162-4.367.001-5.309.008-5.449.038M13.4 2.088c.21.098.416.303.511.509l.076.163.007 3.127.007 3.126H10V12H6V9.013H1.999l.007-3.126.007-3.127.075-.16c.132-.283.416-.517.695-.572.061-.013 2.438-.021 5.284-.019l5.173.004.16.075M4.993 11.5 5 13h6l.007-1.5.007-1.5h2.988l-.008 1.62-.007 1.62-.076.163a1.13 1.13 0 0 1-.511.509l-.16.075H2.76l-.16-.075a1.13 1.13 0 0 1-.511-.509l-.076-.163-.007-1.62L1.998 10h2.988l.007 1.5" fill-rule="evenodd" fill="#000"/></svg>