<svg xmlns="http://www.w3.org/2000/svg" width="16" height="16" fill="none"><path d="M5.138 1.043c-.931.044-1.696.246-2.284.602-.577.349-1.108.934-1.376 1.514a5.36 5.36 0 0 0-.411 1.534c-.015.125-.041.92-.059 1.767a65.887 65.887 0 0 0 0 3.08c.018.847.044 1.642.059 1.767.097.836.368 1.591.757 2.108.344.456.868.891 1.335 1.107a5.2 5.2 0 0 0 1.548.41c1.007.108 5.842.098 6.702-.013.751-.098 1.355-.308 1.884-.655.274-.18.786-.692.97-.971.417-.632.641-1.393.697-2.374.082-1.415.053-5.596-.043-6.342-.073-.566-.261-1.188-.481-1.59a3.66 3.66 0 0 0-1.786-1.588c-.543-.219-1.066-.318-1.89-.358-.643-.032-4.951-.03-5.622.002m5.947 1.274c.548.053 1.073.203 1.41.405.316.189.705.61.872.945.097.194.221.603.27.89.079.465.103 1.545.088 3.986-.008 1.278-.027 2.438-.042 2.577-.068.654-.238 1.157-.515 1.533-.514.696-1.204.994-2.442 1.054-.684.033-4.777.033-5.433 0-.583-.03-.868-.074-1.233-.19-.464-.149-.716-.305-1.035-.644a1.995 1.995 0 0 1-.485-.772c-.246-.656-.26-.879-.26-4.128.001-2.769.012-3.111.117-3.594.065-.295.205-.674.325-.874.119-.199.445-.546.649-.69.462-.328 1.025-.478 1.949-.521.681-.031 5.396-.013 5.765.023m.281 1.204a.807.807 0 0 0-.4.421c-.057.125-.064.172-.054.361.009.176.026.245.088.359.149.274.368.408.697.426.19.01.236.003.36-.054a.808.808 0 0 0 .493-.586.812.812 0 0 0-.259-.805c-.162-.146-.323-.203-.571-.203a.627.627 0 0 0-.354.081m-3.646.895c-.898.09-1.638.435-2.253 1.051C4.761 6.173 4.416 7.004 4.416 8c0 .987.343 1.822 1.037 2.522.309.311.561.496.93.682a3.3 3.3 0 0 0 1.617.38 3.3 3.3 0 0 0 1.617-.38c.362-.182.618-.369.918-.669.3-.3.487-.556.669-.918A3.3 3.3 0 0 0 11.584 8a3.3 3.3 0 0 0-.38-1.617 3.278 3.278 0 0 0-.682-.93 3.493 3.493 0 0 0-1.828-.974 4.86 4.86 0 0 0-.974-.063m.761 1.304c.445.094.819.3 1.159.64.351.351.558.735.645 1.196.05.268.035.809-.029 1.044-.104.38-.363.813-.648 1.084A2.3 2.3 0 0 1 8 10.328a2.8 2.8 0 0 1-.424-.033A2.372 2.372 0 0 1 5.72 8.481a3.043 3.043 0 0 1 0-.962c.094-.445.3-.819.64-1.159a2.278 2.278 0 0 1 1.14-.638c.23-.05.745-.051.981-.002" fill="currentColor" fill-rule="evenodd"/></svg>