<svg xmlns="http://www.w3.org/2000/svg" width="16" height="16" fill="none" viewBox="0 0 16 16">
  <path fill="#1D1D1D" d="M8 2.262c1.869 0 2.09.007 2.829.04.443.006.883.088 1.299.242.304.113.58.292.805.525.233.226.412.5.525.805.154.416.236.855.241 1.3.033.738.041.962.041 2.828 0 1.866-.008 2.09-.04 2.828a3.867 3.867 0 0 1-.242 1.3 2.315 2.315 0 0 1-1.328 1.327 3.864 3.864 0 0 1-1.3.242c-.738.033-.962.041-2.828.041-1.866 0-2.09-.008-2.829-.041a3.864 3.864 0 0 1-1.299-.242 2.163 2.163 0 0 1-.805-.524 2.162 2.162 0 0 1-.525-.805 3.866 3.866 0 0 1-.241-1.3C2.27 10.09 2.262 9.867 2.262 8c0-1.866.008-2.09.04-2.829.006-.443.088-.883.242-1.299.113-.304.292-.58.525-.805.226-.233.5-.412.805-.525a3.866 3.866 0 0 1 1.3-.241C5.911 2.268 8 2.26 8 2.26ZM8 1c-1.901 0-2.139.008-2.887.042a5.134 5.134 0 0 0-1.697.325c-.468.176-.89.451-1.24.808a3.42 3.42 0 0 0-.808 1.24 5.134 5.134 0 0 0-.325 1.697c-.034.748-.042.986-.042 2.887s.008 2.14.042 2.887c.012.58.122 1.154.325 1.697.176.468.452.89.808 1.24.35.357.772.632 1.24.808a5.132 5.132 0 0 0 1.699.325C5.86 14.991 6.099 15 8 15c1.901 0 2.14-.008 2.887-.042a5.132 5.132 0 0 0 1.7-.325 3.582 3.582 0 0 0 2.046-2.048 5.135 5.135 0 0 0 .326-1.699c.034-.746.042-.984.042-2.887s-.008-2.139-.042-2.887a5.136 5.136 0 0 0-.327-1.695 3.419 3.419 0 0 0-.808-1.24 3.418 3.418 0 0 0-1.24-.808 5.134 5.134 0 0 0-1.697-.325C10.14 1.009 9.901 1 8 1Z"/>
  <path fill="#1D1D1D" d="M8 4.406a3.594 3.594 0 1 0 0 7.188 3.594 3.594 0 0 0 0-7.188Zm0 5.927a2.333 2.333 0 1 1 0-4.666 2.333 2.333 0 0 1 0 4.666ZM11.736 5.104a.84.84 0 1 0 0-1.68.84.84 0 0 0 0 1.68Z"/>
</svg>
