<svg xmlns="http://www.w3.org/2000/svg" width="16" height="16" fill="currentColor" viewBox="0 0 16 16">
  <path fill-rule="evenodd" d="M7.646.646a.5.5 0 0 1 .707 0C9.677 1.97 11.911 3.32 15.07 3.772l.43.061v.434c-.002.064-.008.26-.015.377-.014.234-.043.567-.1.975-.112.815-.339 1.931-.792 3.14-.908 2.42-2.739 5.238-6.408 6.705a.5.5 0 0 1-.371 0c-3.669-1.467-5.5-4.285-6.407-6.705a14.852 14.852 0 0 1-.793-3.14 12.898 12.898 0 0 1-.1-.975A12.67 12.67 0 0 1 .5 4.297v-.464l.429-.061C4.089 3.32 6.323 1.97 7.646.646ZM1.52 4.691c.014.203.04.471.084.79.093.668.267 1.552.594 2.519H7.5V2.114C6.087 3.239 4.09 4.248 1.52 4.69ZM8.5 2.114V8h5.302c.326-.967.5-1.85.593-2.519.044-.319.07-.587.085-.79-2.572-.443-4.567-1.452-5.98-2.577ZM13.417 9H8.5v5.234c2.609-1.261 4.082-3.308 4.917-5.234ZM7.5 14.234V9H2.582c.836 1.926 2.309 3.973 4.918 5.234Z" clip-rule="evenodd"/>
</svg>
