<svg xmlns="http://www.w3.org/2000/svg" width="24" height="24" fill="none"><path d="M12.138 2.146C10.653 3.055 9.712 3.499 8.2 4c-1.909.633-3.917 1-5.47 1-.384 0-.533.058-.652.252-.092.152-.103.646-.038 1.689.369 5.834 2.681 10.716 6.528 13.783a15.783 15.783 0 0 0 2.992 1.889c.976.483.904.483 1.88 0a20.74 20.74 0 0 0 1.26-.68c4.255-2.575 7.04-6.938 7.976-12.493.274-1.628.415-3.868.262-4.164-.107-.207-.272-.276-.66-.276-2.334-.001-5.535-.806-7.884-1.983-.464-.232-.816-.433-1.532-.871C12.723 2.06 12.573 2 12.5 2c-.073 0-.223.06-.362.146M12 7.7V12l-4.028-.01-4.028-.01-.111-.38c-.287-.982-.564-2.411-.69-3.56-.06-.545-.155-2.001-.132-2.024.005-.006.271-.03.589-.054 2.177-.165 4.475-.737 6.56-1.633a18.39 18.39 0 0 0 1.62-.805 4.86 4.86 0 0 1 .21-.122c.005-.001.01 1.933.01 4.298m1.9-3.812c2.199 1.115 4.989 1.889 7.479 2.072.329.025.604.05.61.056.023.022-.072 1.471-.132 2.024-.126 1.149-.403 2.578-.69 3.56l-.111.38-4.028.01L13 12V3.398l.21.123c.115.068.426.233.69.367M12 17.364v4.363l-.49-.258c-2.392-1.259-4.337-3.111-5.796-5.521a21.518 21.518 0 0 1-1.231-2.458L4.284 13H12v4.364m8.517-3.874c-.431 1.061-1.157 2.413-1.775 3.303-1.385 1.996-3.158 3.574-5.252 4.676l-.49.258V13h7.716l-.199.49" fill-rule="evenodd" fill="#000"/></svg>