<svg xmlns="http://www.w3.org/2000/svg" width="16" height="16" fill="none"><path d="M8.302.545a2.391 2.391 0 0 0-.346.283c-1.5 1.403-3.551 2.394-5.849 2.825l-.634.12c-.228.043-.333.11-.413.263-.051.098-.057.146-.052.431.007.391.062.885.168 1.52.477 2.856 1.663 5.291 3.435 7.048 1.009 1.001 2.084 1.725 3.429 2.312.428.187.481.187.922-.001a10.935 10.935 0 0 0 4.992-4.273c1.025-1.627 1.709-3.638 1.979-5.82.062-.506.081-1.009.042-1.128a.565.565 0 0 0-.241-.298 3.277 3.277 0 0 0-.473-.104c-2.455-.408-4.52-1.36-6.147-2.832a4.467 4.467 0 0 0-.413-.345.564.564 0 0 0-.399-.001M8 5.067V8H2.703l-.057-.167c-.168-.486-.374-1.342-.485-2.02-.081-.497-.149-1.087-.127-1.109.007-.007.185-.048.397-.091 1.468-.296 2.897-.822 4.114-1.513.29-.165 1.087-.694 1.268-.843.081-.066.156-.121.167-.122.011-.001.02 1.318.02 2.932m1.299-2.724c1.426 1.066 3.29 1.868 5.275 2.27.217.044.398.084.402.088.016.015-.098.908-.161 1.259-.114.643-.357 1.613-.492 1.967L14.295 8H9.013V5.063c0-2.345.007-2.931.034-2.91.018.015.131.1.252.19M8 11.613c0 1.43-.006 2.6-.014 2.6-.029 0-.498-.244-.724-.376-1.518-.894-2.75-2.171-3.662-3.797a11.11 11.11 0 0 1-.482-.967l-.023-.06H8v2.6m5.893-2.581c0 .048-.372.798-.551 1.11-.815 1.42-1.86 2.548-3.169 3.423-.341.227-1.084.648-1.146.648-.007 0-.014-1.17-.014-2.6v-2.6h2.44c1.342 0 2.44.009 2.44.019" fill-rule="evenodd" fill="#000"/></svg>