<svg xmlns="http://www.w3.org/2000/svg" width="24" height="24" fill="none"><path d="M11.06 2.041a11.386 11.386 0 0 0-4.195 1.187c-1.81.906-3.388 2.273-4.62 4.003C1.674 8.033 1 9.255 1 9.489c0 .262.248.511.508.511.233 0 .343-.121.672-.739.636-1.194 1.325-2.134 2.217-3.023a9.861 9.861 0 0 1 1.756-1.44c1.371-.914 2.807-1.461 4.467-1.703.665-.098 2.095-.098 2.76 0 1.66.242 3.096.789 4.467 1.703a9.861 9.861 0 0 1 1.756 1.44c1 .997 1.594 1.837 2.433 3.442.093.177.299.32.46.32.26 0 .504-.251.504-.519 0-.208-.678-1.446-1.194-2.181a13.443 13.443 0 0 0-2.926-3.007A11.657 11.657 0 0 0 13.46 2.1c-.58-.077-1.85-.108-2.4-.059m.656 4.439a.646.646 0 0 0-.204.168c-.033.051-.286.749-.562 1.552-1.344 3.917-2.27 7.118-2.488 8.605-.072.494-.083 1.648-.02 2.156.094.758.324 1.304.737 1.748.384.413.827.645 1.541.804.432.096 2.128.096 2.56 0 .713-.159 1.157-.391 1.539-.802.583-.628.781-1.332.781-2.785 0-1.225-.202-2.212-1.021-4.986-.57-1.93-1.946-6.071-2.09-6.292-.081-.123-.334-.248-.497-.246a.73.73 0 0 0-.276.078m.815 3.95c.949 2.906 1.465 4.71 1.731 6.05.185.935.174 2.409-.022 2.929-.187.497-.566.798-1.154.917-.418.085-1.863.073-2.25-.017-.431-.102-.698-.272-.903-.578-.262-.391-.311-.675-.312-1.791 0-.91.001-.927.149-1.62.258-1.215.791-3.086 1.527-5.36.584-1.805.677-2.08.704-2.08.013 0 .252.698.53 1.55" fill="currentColor" fill-rule="evenodd"/></svg>