<svg xmlns="http://www.w3.org/2000/svg" width="24" height="24" viewBox="0 0 24 24"><path fill="currentColor" fill-rule="evenodd" d="M3.145 8.728A10.5 10.5 0 0 1 12.5 3a10.5 10.5 0 0 1 9.356 5.729l.228.445.89-.455-.227-.445A11.5 11.5 0 0 0 12.5 2 11.5 11.5 0 0 0 2.254 8.273l-.227.445.89.455.228-.445Zm9.122-.172.437.243-.437-.243v.002l-.003.004-.01.018-.039.07a179.687 179.687 0 0 0-.671 1.225c-.436.8-1.019 1.885-1.61 3.022a87.242 87.242 0 0 0-1.664 3.341c-.235.506-.44.973-.595 1.369-.15.384-.268.737-.31 1a3.5 3.5 0 1 0 6.918 1.072c.04-.254.045-.616.032-1.026-.013-.42-.045-.921-.09-1.47a100.44 100.44 0 0 0-.387-3.656 219.973 219.973 0 0 0-.624-4.696l-.011-.077-.003-.02v-.007h-.001l-.495.072.495-.072-.213-1.461-.719 1.29Zm-1.446 4.802a191.323 191.323 0 0 1 1.598-3c.12.88.277 2.06.426 3.29.152 1.245.294 2.537.383 3.617.045.54.076 1.023.088 1.418.012.405.003.688-.021.843a2.5 2.5 0 1 1-4.941-.766c.023-.145.103-.409.252-.789.145-.369.34-.815.571-1.312a86.407 86.407 0 0 1 1.644-3.3Z" clip-rule="evenodd"/></svg>