<svg xmlns="http://www.w3.org/2000/svg" width="16" height="16" fill="none" viewBox="0 0 16 16"><path fill="currentColor" fill-rule="evenodd" d="M3.582 3.435A7.477 7.477 0 0 1 8 2c1.598 0 3.15.505 4.418 1.435a6.988 6.988 0 0 1 2.602 3.703.5.5 0 1 0 .961-.276 7.988 7.988 0 0 0-2.971-4.234A8.477 8.477 0 0 0 8 1a8.477 8.477 0 0 0-5.009 1.628A7.988 7.988 0 0 0 .02 6.862a.5.5 0 0 0 .961.276 6.988 6.988 0 0 1 2.601-3.703Zm3.956.373L8 4l-.462-.192v.001l-.002.004-.005.013-.021.051a66.314 66.314 0 0 0-.364.898c-.235.589-.55 1.39-.863 2.239-.314.848-.63 1.749-.869 2.536-.232.763-.413 1.489-.414 1.948v.058c-.004.936-.006 1.641.645 2.296.36.362.862.51 1.272.579.416.069.826.069 1.074.069h.019c.247 0 .655 0 1.071-.07.41-.068.91-.216 1.271-.575.645-.642.646-1.337.648-2.232V11.5c0-.46-.181-1.187-.412-1.95a46.347 46.347 0 0 0-.87-2.536A95.05 95.05 0 0 0 8.49 3.877l-.021-.051-.006-.014-.001-.003v-.001L8 4l.461-.192a.5.5 0 0 0-.923 0Zm-.317 3.553c.278-.753.557-1.468.78-2.029.222.56.501 1.277.78 2.03.311.839.62 1.719.85 2.478.237.783.369 1.37.369 1.66-.003 1.045-.021 1.316-.353 1.645-.14.14-.391.243-.73.3A5.595 5.595 0 0 1 8 13.5c-.253 0-.59 0-.92-.056-.34-.057-.588-.159-.726-.297-.33-.331-.358-.61-.354-1.645 0-.29.133-.878.37-1.662.231-.76.54-1.64.85-2.479Z" clip-rule="evenodd"/></svg>