<svg xmlns="http://www.w3.org/2000/svg" width="24" height="24" fill="none" viewBox="0 0 24 24"><path fill="currentColor" fill-rule="evenodd" d="M1.952 9.71C3.832 5.71 7.638 3 12 3c4.363 0 8.17 2.71 10.048 6.712a.5.5 0 1 0 .905-.424C20.931 4.98 16.799 2 12 2 7.202 2 3.07 4.98 1.047 9.286a.5.5 0 1 0 .905.425ZM12 7l.565-.202a.6.6 0 0 0-1.13 0L12 7Zm0 0 .565-.202V6.8l.003.005.006.018.026.072.095.271a146.905 146.905 0 0 1 1.377 4.115 72.207 72.207 0 0 1 1.04 3.542c.279 1.073.488 2.064.488 2.677v.168c-.002 1.255-.003 2.163-.745 3.024-.43.497-1.035.71-1.542.81-.506.098-1.003.098-1.3.098h-.025c-.298 0-.796 0-1.303-.099-.507-.098-1.115-.311-1.541-.812-.75-.88-.748-1.802-.744-3.117v-.074c.002-.612.212-1.603.49-2.676a72.953 72.953 0 0 1 1.04-3.54 147.991 147.991 0 0 1 1.47-4.387l.026-.072.007-.018.002-.005V6.8L12 7Zm-.926 4.644c.33-1.042.661-2.032.927-2.813.266.78.597 1.771.927 2.813a71.085 71.085 0 0 1 1.023 3.48c.283 1.092.449 1.938.449 2.375-.004 1.458-.023 1.908-.454 2.41-.175.201-.47.338-.862.415-.385.075-.78.076-1.084.076-.304 0-.7-.001-1.086-.076-.394-.077-.687-.214-.857-.413-.429-.503-.46-.963-.457-2.41.002-.437.168-1.284.452-2.377a71.86 71.86 0 0 1 1.022-3.48Z" clip-rule="evenodd"/></svg>