<svg xmlns="http://www.w3.org/2000/svg" width="16" height="16" fill="none"><path d="M7.267 1.03c-1.14.119-2.056.375-2.995.836C2.25 2.858.809 4.492.109 6.587c-.122.363-.13.446-.059.6a.49.49 0 0 0 .657.256c.166-.077.216-.153.343-.524.38-1.105.933-2.003 1.708-2.772 1.165-1.158 2.676-1.882 4.375-2.098.341-.043 1.386-.043 1.734.001 1.693.212 3.209.938 4.375 2.097.785.779 1.359 1.719 1.729 2.831.084.252.115.313.202.392.258.233.623.157.784-.162.066-.131.052-.267-.062-.612a7.963 7.963 0 0 0-2.789-3.89 8.626 8.626 0 0 0-2.791-1.383c-.822-.228-1.259-.287-2.195-.296a19.5 19.5 0 0 0-.853.003m.607 2.488a.548.548 0 0 0-.347.319c-.15.338-.782 1.948-1.126 2.87-.909 2.429-1.313 3.778-1.392 4.641-.04.439.001 1.197.083 1.519.163.64.586 1.138 1.175 1.382.451.187.866.245 1.746.243.759-.001 1.088-.037 1.494-.164.407-.128.658-.28.911-.549.211-.226.335-.434.432-.727.095-.284.129-.524.152-1.079.037-.895-.139-1.672-.841-3.72-.464-1.354-1.646-4.393-1.773-4.56a.531.531 0 0 0-.514-.175m.417 2.555c.971 2.506 1.564 4.33 1.685 5.18.041.29.014 1.143-.044 1.386a.997.997 0 0 1-.541.672 3.116 3.116 0 0 1-.351.111c-.209.053-.291.057-1.053.057-.813-.001-.832-.002-1.09-.073-.311-.084-.454-.162-.599-.326-.235-.268-.281-.472-.283-1.253-.002-.519.006-.621.061-.88.139-.646.54-1.93.988-3.16.28-.767.92-2.427.936-2.427.008 0 .138.321.291.713" fill="currentColor" fill-rule="evenodd"/></svg>