<svg xmlns="http://www.w3.org/2000/svg" width="16" height="17" viewBox="0 0 16 17">
  <path fill="currentColor" fill-rule="evenodd" d="M3.759 3.425a7 7 0 0 1 10.989 3.708.5.5 0 0 0 .964-.266 8 8 0 0 0-15.424 0 .5.5 0 0 0 .964.266 7 7 0 0 1 2.507-3.708ZM8.002 6.14l.478-.145a.5.5 0 0 0-.92-.09l.442.235Zm0 0 .478-.145v.001L8.483 6l.004.014.016.054a70.142 70.142 0 0 1 .277.943c.178.617.415 1.455.647 2.336.233.881.463 1.81.627 2.61.082.4.148.773.19 1.094.041.312.064.607.042.838a3 3 0 1 1-5.97-.597c.052-.459.295-1.15.59-1.871a46.85 46.85 0 0 1 1.103-2.443A95.003 95.003 0 0 1 7.525 5.97l.026-.049.007-.013.002-.003.442.234ZM6.909 9.412c.346-.72.69-1.402.963-1.938.17.59.38 1.342.588 2.129.23.873.454 1.782.613 2.556.08.386.141.734.179 1.022.039.297.048.5.037.614a2 2 0 1 1-3.981-.378c.027-.288.213-.86.523-1.618.3-.734.69-1.581 1.078-2.387Z" clip-rule="evenodd"/>
</svg>
