<svg xmlns="http://www.w3.org/2000/svg" width="24" height="24" fill="none" viewBox="0 0 24 24"><path fill="currentColor" fill-rule="evenodd" d="M1.953 9.71C3.832 5.71 7.638 3 12 3c4.362 0 8.169 2.71 10.047 6.712a.5.5 0 1 0 .906-.424C20.93 4.98 16.798 2 12 2 7.202 2 3.07 4.98 1.047 9.286a.5.5 0 1 0 .906.425ZM12 7l.565-.202a.6.6 0 0 0-1.13 0L12 7Zm0 0 .565-.202.001.002.002.005.006.018.026.072.095.271a146.905 146.905 0 0 1 1.377 4.115 72.317 72.317 0 0 1 1.04 3.542c.279 1.073.488 2.064.488 2.677v.168c-.002 1.255-.003 2.163-.745 3.024-.43.497-1.035.71-1.541.81-.507.098-1.004.098-1.301.098h-.025c-.298 0-.796 0-1.303-.099-.507-.098-1.115-.311-1.541-.812-.75-.88-.748-1.802-.744-3.117v-.074c.002-.612.212-1.603.491-2.676a72.953 72.953 0 0 1 1.04-3.54 148.26 148.26 0 0 1 1.47-4.387l.025-.072.007-.018.002-.005V6.8L12 7Zm-.925 4.644c.33-1.042.66-2.032.926-2.813.266.78.597 1.771.927 2.813a71.19 71.19 0 0 1 1.023 3.48c.283 1.092.449 1.938.45 2.375-.005 1.458-.023 1.908-.455 2.41-.175.201-.47.338-.862.415-.385.075-.78.076-1.084.076-.304 0-.7-.001-1.086-.076-.394-.077-.687-.214-.857-.413-.429-.503-.46-.963-.456-2.41 0-.437.167-1.284.451-2.377a71.86 71.86 0 0 1 1.023-3.48Z" clip-rule="evenodd"/></svg>