<svg width="16" height="16" viewBox="0 0 16 16" fill="none" xmlns="http://www.w3.org/2000/svg">
<path fill-rule="evenodd" clip-rule="evenodd" d="M2.5 2H2V2.5V7.5H0.5H0V8.5H0.5H2V13.5V14H2.5H13.5H14V13.5V8.5H15.5H16V7.5H15.5H14V2.5V2H13.5H2.5ZM3 13V3H13V13H3ZM7.33154 4.52826L6.96414 4.8674L6.27883 5.5H11.5H12V6.5H11.5H6.27883L6.96414 7.1326L7.33154 7.47174L6.65326 8.20654L6.28586 7.8674L4.66086 6.3674L4.26284 6L4.66086 5.6326L6.28586 4.1326L6.65326 3.79346L7.33154 4.52826ZM8.66846 11.4717L9.03586 11.1326L9.72117 10.5H4.5H4V9.5H4.5H9.72118L9.03586 8.8674L8.66846 8.52826L9.34674 7.79346L9.71414 8.1326L11.3391 9.6326L11.7372 10L11.3391 10.3674L9.71414 11.8674L9.34674 12.2065L8.66846 11.4717Z" fill="#1D1D1D"/>
</svg>
