<svg width="16" height="16" fill="none" xmlns="http://www.w3.org/2000/svg"><path d="M2 4.747v2.746H0v1.014h2V14h12V8.507h2V7.493h-2V2H2v2.747m10.987 3.266v5H3.013v-10h9.974v5M5.453 4.899A56.718 56.718 0 0 0 4.28 6c0 .014 2.356 2.2 2.371 2.2.003 0 .158-.164.344-.364l.338-.364-.516-.476L6.3 6.52l2.85-.007L12 6.506V5.494l-2.85-.007L6.3 5.48l.517-.476.516-.476-.326-.351a4.45 4.45 0 0 0-.353-.357c-.015-.003-.555.482-1.201 1.079m3.81 2.978a9.456 9.456 0 0 1-.323.358l-.274.292.517.477.517.476-2.85.007L4 9.494v1.012l2.85.007 2.85.007-.518.477-.517.477.141.149.334.359c.106.115.204.205.218.2.035-.012 2.362-2.162 2.362-2.182 0-.027-2.333-2.173-2.372-2.181-.019-.005-.057.021-.085.058" fill="#1D1D1D" fill-rule="evenodd"/></svg>