<svg xmlns="http://www.w3.org/2000/svg" width="16" height="16" fill="none"><path d="M12.293.055c-.093.042-.796.73-3.139 3.072L6.136 6.144l-.237-.045A4.932 4.932 0 0 0 1.47 7.47a5.073 5.073 0 0 0-1.395 2.654c-.086.456-.086 1.296 0 1.752a5.048 5.048 0 0 0 4.049 4.049c.456.086 1.296.086 1.752 0a5.048 5.048 0 0 0 4.049-4.049c.05-.267.059-.401.057-.863-.002-.474-.01-.585-.067-.84l-.064-.293 1.045-1.053c.879-.886 1.05-1.071 1.074-1.16.02-.071.03-.539.03-1.379V5.016l1.313-.008c1.22-.007 1.32-.012 1.407-.058.051-.027.347-.303.657-.613.477-.476.569-.581.594-.675.021-.079.028-.595.023-1.725C15.987.354 15.986.322 15.932.25a1.202 1.202 0 0 0-.156-.155l-.101-.082-1.631-.006C12.453 0 12.41.002 12.293.055m2.694 2.099v1.14l-.354.353-.354.353-1.439.001c-1.339 0-1.448.004-1.548.049a.479.479 0 0 0-.276.351c-.019.087-.029.62-.029 1.513v1.378L9.935 8.346c-.71.711-1.066 1.086-1.094 1.153-.057.138-.052.273.023.562a3.9 3.9 0 0 1-.54 3.154 3.988 3.988 0 0 1-3.62 1.769C2.998 14.858 1.547 13.645 1.135 12a3.49 3.49 0 0 1-.122-1c0-.821.214-1.534.663-2.215.627-.949 1.638-1.58 2.801-1.747a4.29 4.29 0 0 1 1.35.073c.396.099.609.1.749.003.057-.04 1.46-1.429 3.117-3.087l3.014-3.014h2.28v1.141m-10.449 6.9c-.621.135-1.226.68-1.426 1.286a2.017 2.017 0 0 0 .843 2.366c.593.382 1.497.382 2.09 0a2.017 2.017 0 0 0 .843-2.366c-.203-.613-.806-1.153-1.439-1.287a2.9 2.9 0 0 0-.911.001m.875 1.041c.198.091.405.3.497.502.063.139.074.198.074.403 0 .205-.011.264-.074.403-.093.206-.299.41-.51.509-.138.064-.193.075-.4.075-.207 0-.262-.011-.4-.075a1.118 1.118 0 0 1-.51-.509c-.063-.139-.074-.198-.074-.403 0-.206.01-.263.073-.4.129-.281.411-.514.694-.574a1.2 1.2 0 0 1 .63.069" fill-rule="evenodd" fill="#000"/></svg>