<svg xmlns="http://www.w3.org/2000/svg" width="24" height="24" fill="none"><path d="M18.26 1.076c-.066.042-1.925 1.883-4.131 4.091l-4.012 4.016-.408-.07c-2.355-.403-4.793.381-6.504 2.092a7.598 7.598 0 0 0-2.092 3.981c-.13.684-.13 1.944 0 2.628a7.567 7.567 0 0 0 6.073 6.073c.684.13 1.944.13 2.628 0 3.486-.658 6.031-3.58 6.174-7.087.033-.815-.096-1.813-.317-2.455l-.081-.235 1.161-1.165c.638-.641 1.18-1.204 1.205-1.252.029-.059.044-.519.044-1.39V9h1.302c1.054 0 1.323-.011 1.41-.057.13-.07 3.181-3.126 3.244-3.25.03-.061.044-.736.044-2.192 0-2.323.006-2.265-.252-2.423C23.624 1.003 23.528 1 21 1c-2.504 0-2.625.004-2.74.076M23 3.65V5.3l-1.35 1.35L20.3 8h-1.452c-1.604 0-1.617.002-1.77.252-.073.121-.078.211-.078 1.588v1.461l-1.183 1.179c-.65.649-1.208 1.229-1.24 1.288-.08.152-.073.233.058.626.538 1.617.459 3.281-.226 4.786-.897 1.971-2.652 3.326-4.829 3.73-.495.092-1.665.092-2.16 0-1.897-.352-3.458-1.411-4.46-3.026-.965-1.556-1.211-3.571-.652-5.343a6.559 6.559 0 0 1 4.233-4.233c1.069-.337 2.171-.385 3.348-.145.348.071.45.079.541.041.062-.026 1.948-1.882 4.191-4.125L18.7 2H23v1.65M7.96 14.062a2.885 2.885 0 0 0-1.128.577c-.3.268-.593.713-.714 1.083-.084.254-.098.372-.096.798.002.439.016.536.111.8a2.585 2.585 0 0 0 1.547 1.547c.269.098.354.109.82.109.465 0 .552-.011.82-.108a2.589 2.589 0 0 0 1.547-1.548c.098-.269.109-.354.109-.82 0-.465-.011-.552-.108-.82a2.535 2.535 0 0 0-2.908-1.618m1.159 1.081c.298.136.608.449.746.753.095.209.111.296.111.604s-.016.395-.111.604c-.14.309-.448.616-.765.764-.207.097-.29.112-.6.112s-.393-.015-.6-.112a1.675 1.675 0 0 1-.765-.764c-.095-.208-.111-.296-.111-.604-.001-.309.015-.394.11-.6.193-.422.615-.771 1.04-.861.267-.057.696-.009.945.104" fill-rule="evenodd" fill="#000"/></svg>