<svg xmlns="http://www.w3.org/2000/svg" width="24" height="24" fill="none"><path d="M4 4.856v2.855l1.499 1.448c1.293 1.248 1.506 1.469 1.543 1.608.061.227-.019.464-.191.564-.071.041-.737.233-1.48.426l-1.351.351-.011 1.037-.01 1.038-.57.255c-1.605.721-1.769.829-2.005 1.322-.112.235-.124.297-.124.64 0 .333.014.411.113.624.195.422.404.585 1.547 1.21l1.02.557-.002.534c-.002.497-.01.552-.112.775a1.675 1.675 0 0 1-.762.767c-.242.112-.25.113-1.174.126l-.93.012v1.002l1.01-.016c.843-.013 1.043-.027 1.21-.087.853-.307 1.404-.863 1.686-1.704.063-.188.074-.351.074-1.112v-.892l-1.259-.689c-1.36-.744-1.441-.806-1.441-1.107 0-.088.037-.203.091-.284.08-.119.255-.21 1.36-.714L5 14.824v-1.935l.09-.024 1.03-.269c.59-.154 1.027-.29 1.173-.367.756-.399 1.004-1.371.542-2.129-.076-.126-.624-.682-1.476-1.5L5.004 7.3l-.002-2.65L5 2H4v2.856m8.96-.794c-.942.203-1.743 1.026-1.92 1.973-.024.132-.04 1.396-.041 3.26l-.001 3.045-1.741 2.32-1.742 2.32 7.093.011c4.781.008 7.172-.002 7.338-.03.981-.167 1.829-1.007 2.014-1.996.025-.136.04-1.789.04-4.465s-.015-4.329-.04-4.465c-.179-.957-.981-1.774-1.94-1.975-.406-.085-8.664-.083-9.06.002m9.14 1.07c.315.147.624.455.767.764l.113.244v8.72l-.112.24a1.698 1.698 0 0 1-.764.767l-.244.113-6.173.01c-4.962.009-6.166.001-6.142-.04.017-.027.572-.77 1.233-1.65l1.202-1.6.02-3.28.02-3.28.112-.24c.198-.424.623-.775 1.042-.859.091-.018 2.083-.031 4.426-.027l4.26.006.24.112M15 8.5V9h5V8h-5v.5m0 4v.5h3v-1h-3v.5" fill-rule="evenodd" fill="#000"/></svg>