<svg xmlns="http://www.w3.org/2000/svg" width="16" height="16" fill="none"><path d="M6.155 2.028A2.5 2.5 0 0 0 4.239 3.45a3.404 3.404 0 0 0-.166.436l-.059.207-.008 3.119-.007 3.119-1.746 2.328A255.503 255.503 0 0 0 .507 15c0 .027 12.916.014 13.207-.014a2.52 2.52 0 0 0 1.638-.813c.318-.354.55-.843.622-1.312.018-.122.025-1.589.02-4.474l-.008-4.294-.061-.213a3.344 3.344 0 0 0-.388-.827 2.653 2.653 0 0 0-1.435-.979l-.222-.059-3.787-.005c-2.082-.002-3.855.006-3.938.018m7.735 1.024c.079.021.211.071.293.111.201.097.557.453.654.654.157.324.149.065.149 4.677.001 3.723-.004 4.261-.04 4.398a1.55 1.55 0 0 1-.936 1.023l-.183.072-5.664.007-5.663.007.065-.087 1.257-1.676 1.191-1.589.001-3.198c0-2.686.006-3.221.038-3.341.133-.499.55-.92 1.046-1.057.199-.054 7.587-.055 7.792-.001M6.987 5.507V6h6.026v-.987H6.987v.494M6.993 8.5 7 9h6l.007-.5.008-.5h-6.03l.008.5m-.006 3.007V12h4.026v-.987H6.987v.494" fill-rule="evenodd" fill="#000"/></svg>