<svg xmlns="http://www.w3.org/2000/svg" width="16" height="16" fill="none" viewBox="0 0 16 16">
  <path fill="#1D1D1D" fill-rule="evenodd" d="M2.5 3a.5.5 0 0 0-.5.5V10H1V3.5A1.5 1.5 0 0 1 2.5 2h11A1.5 1.5 0 0 1 15 3.5V10h-1V3.5a.5.5 0 0 0-.5-.5h-11ZM15 12H1v1a1 1 0 0 0 1 1h12a1 1 0 0 0 1-1v-1ZM0 11v2a2 2 0 0 0 2 2h12a2 2 0 0 0 2-2v-2H0Z" clip-rule="evenodd"/>
  <path fill="#1D1D1D" fill-rule="evenodd" d="m12.854 5.854-4 4-.708-.708 4-4 .708.708ZM13.354 8.354l-1.5 1.5-.708-.708 1.5-1.5.708.708Z" clip-rule="evenodd"/>
</svg>
