<svg xmlns="http://www.w3.org/2000/svg" width="24" height="24" fill="none"><path d="M5.174 3.041c-.419.084-.844.434-1.042.859l-.112.24L4 9.3l-.02 5.16-1.186 2.76c-.653 1.518-1.206 2.832-1.23 2.92-.104.38-.018.845.222 1.206.16.241.327.378.645.526l.229.108h19.68l.229-.108c.318-.148.485-.285.645-.526.24-.361.326-.826.222-1.206-.024-.088-.577-1.402-1.23-2.92l-1.186-2.76L21 9.3l-.02-5.16-.113-.244a1.698 1.698 0 0 0-.767-.764l-.24-.112-7.26-.006c-3.993-.003-7.335.009-7.426.027m14.574 1.037c.269.164.252-.182.252 5.12V14H5V9.198c0-5.302-.017-4.956.252-5.12C5.378 4.002 5.509 4 12.5 4c6.991 0 7.122.002 7.248.078M21.327 17.7c.663 1.543 1.151 2.733 1.152 2.804.001.148-.142.375-.28.445-.145.073-19.253.073-19.398 0-.135-.069-.281-.296-.281-.438 0-.089 2.096-5.077 2.286-5.441.035-.067.432-.07 7.704-.06l7.667.01 1.15 2.68" fill-rule="evenodd" fill="#000"/></svg>