<svg xmlns="http://www.w3.org/2000/svg" width="16" height="16" fill="none"><path d="M2.28 1.055a.445.445 0 0 0-.23.238c-.047.102-.049.268-.049 3.614L2 8.414l-1 2.999c-.569 1.708-1 3.04-.999 3.094a.517.517 0 0 0 .386.477c.15.041 15.02.041 15.212 0a.59.59 0 0 0 .219-.099.56.56 0 0 0 .181-.378c.001-.054-.43-1.386-.999-3.094l-1-2.999V4.913c0-3.091-.005-3.513-.041-3.6a.426.426 0 0 0-.231-.249c-.096-.049-.257-.051-5.734-.051-5.057.001-5.642.005-5.714.042M12.987 5v3H3.013V2h9.974v3m.975 6.473.831 2.494c.01.026-1.36.033-6.793.033s-6.803-.007-6.793-.033l.831-2.494.82-2.46h10.284l.82 2.46" fill-rule="evenodd" fill="#000"/></svg>