<svg xmlns="http://www.w3.org/2000/svg" width="24" height="24" fill="none"><path d="M14.252 2.078a.478.478 0 0 0-.174.67c.162.266-.04.252 3.77.252H21.3l-5.106 5.11c-2.808 2.811-5.126 5.149-5.15 5.197-.189.375.274.838.649.649.048-.024 2.386-2.342 5.197-5.15L22 3.7v3.46c0 3.361.003 3.464.078 3.588a.478.478 0 0 0 .67.174c.268-.163.252.11.252-4.43 0-4.008-.002-4.115-.078-4.24-.163-.268.11-.252-4.43-.252-4.008 0-4.115.002-4.24.078M3.96 4.062a2.885 2.885 0 0 0-1.128.577c-.3.268-.593.713-.714 1.083l-.098.298v15l.111.3c.265.72.826 1.282 1.549 1.549l.3.111h15.04l.3-.111a2.604 2.604 0 0 0 1.549-1.549l.111-.3.012-2.809c.012-3.108.023-2.97-.244-3.133a.45.45 0 0 0-.495 0c-.242.147-.231.022-.253 3.022l-.02 2.76-.113.244a1.698 1.698 0 0 1-.767.764l-.24.112H4.14l-.244-.113a1.698 1.698 0 0 1-.764-.767l-.112-.24V6.14l.112-.24c.147-.315.455-.624.764-.767l.244-.113L6.9 5c3-.022 2.875-.011 3.022-.253a.477.477 0 0 0-.174-.669C9.624 4.003 9.53 4 6.92 4.003c-2.151.003-2.753.015-2.96.059" fill-rule="evenodd" fill="#000"/></svg>