<svg xmlns="http://www.w3.org/2000/svg" width="12" height="12" fill="none"><path d="M6.347.029a.513.513 0 0 0-.283.229C6.018.336 6.01.373 6.01.5c0 .128.008.164.055.244a.516.516 0 0 0 .27.227c.061.022.447.027 2.015.028L10.29 1 7.687 3.605c-1.432 1.433-2.62 2.637-2.64 2.675a.492.492 0 0 0-.037.22c0 .129.008.163.056.246a.536.536 0 0 0 .302.236.588.588 0 0 0 .355-.032c.037-.019 1.239-1.205 2.672-2.636l2.604-2.603.006 1.971.005 1.971.061.099a.499.499 0 0 0 .858 0l.061-.099V.35l-.054-.092a.513.513 0 0 0-.291-.231c-.131-.039-5.172-.038-5.298.002M1.679 2.031A2 2 0 0 0 .041 3.614C.001 3.813 0 3.862 0 7s.001 3.187.041 3.386c.114.56.452 1.04.937 1.332.165.099.427.198.643.242.19.039.281.04 3.379.04s3.189-.001 3.379-.04a1.986 1.986 0 0 0 1.473-1.216c.14-.348.15-.453.144-1.481L9.99 8.35l-.055-.093a.504.504 0 0 0-.87 0l-.055.093-.011.93c-.013 1.037-.012 1.03-.155 1.251a1.02 1.02 0 0 1-.598.439c-.173.045-6.319.045-6.492 0a1.022 1.022 0 0 1-.717-.708c-.032-.122-.035-.368-.035-3.262s.003-3.14.035-3.262c.063-.244.235-.465.47-.606.206-.123.288-.132 1.237-.133.91-.001.928-.003 1.066-.107a.622.622 0 0 0 .125-.148c.047-.08.055-.116.055-.244 0-.127-.008-.164-.054-.242a.513.513 0 0 0-.291-.231c-.127-.038-1.716-.035-1.966.004" fill-rule="evenodd" fill="#000"/></svg>