<svg xmlns="http://www.w3.org/2000/svg" width="16" height="16" fill="none"><path d="M8.36.022c-.492.162-.464.854.039.962.095.02 1.021.029 3.009.029h2.872l-3.618 3.62C7.104 8.194 7.044 8.255 7.018 8.384a.592.592 0 0 0-.018.16c.005.016.016.062.025.102a.648.648 0 0 0 .238.293.527.527 0 0 0 .356.042c.125-.025.216-.114 3.748-3.643l3.62-3.618v2.872c0 1.971.009 2.915.029 3.007a.59.59 0 0 0 .099.219c.134.16.386.224.573.146.117-.049.279-.235.298-.342.009-.049.013-1.711.008-3.693C15.987.334 15.987.324 15.932.25a1.202 1.202 0 0 0-.156-.155l-.101-.082-3.631-.004C10.047.007 8.389.013 8.36.022M1.529 3.055C.946 3.183.376 3.67.145 4.239c-.153.377-.147.145-.139 5.361l.007 4.787.063.186a2.093 2.093 0 0 0 1.351 1.351l.186.063 4.787.007c5.216.008 4.984.014 5.361-.139.571-.232 1.032-.772 1.193-1.396.042-.163.046-.393.046-2.632 0-2.736.014-2.527-.186-2.703-.115-.101-.186-.121-.373-.105a.455.455 0 0 0-.39.271c-.047.105-.05.223-.051 2.443-.001 1.816-.009 2.371-.036 2.5-.064.304-.305.576-.627.706l-.15.061-4.559.007c-2.731.005-4.632-.002-4.74-.017a1.006 1.006 0 0 1-.784-.558l-.077-.152-.007-4.738-.007-4.738.055-.149a.999.999 0 0 1 .703-.62c.124-.026.707-.034 2.496-.035 2.211-.001 2.339-.004 2.44-.05a.65.65 0 0 0 .17-.119c.063-.068.143-.309.124-.372a2.71 2.71 0 0 1-.026-.105c-.019-.089-.156-.25-.258-.302-.107-.055-4.935-.053-5.188.003" fill-rule="evenodd" fill="#000"/></svg>