<svg xmlns="http://www.w3.org/2000/svg" width="16" height="16" fill="none"><path d="M1.666.029A2.029 2.029 0 0 0 .076 1.44l-.063.2v12.72l.063.2a2.056 2.056 0 0 0 1.364 1.364l.2.063h12.747l.204-.07a2.073 2.073 0 0 0 1.333-1.357l.063-.2V1.64l-.063-.2a2.057 2.057 0 0 0-1.35-1.359L14.36.013 8.08.01C4.626.008 1.74.016 1.666.029m12.768 1.076c.182.092.383.296.474.482l.065.133.008 1.647.007 1.646H1.012l.007-1.646.008-1.647.065-.133a1.13 1.13 0 0 1 .585-.535c.079-.029 1.196-.034 6.35-.03l6.253.005.154.078m-9.447 9.402v4.506H3.513c-.81 0-1.548-.012-1.639-.025a1.01 1.01 0 0 1-.77-.556l-.077-.152-.007-4.14L1.013 6h3.974v4.507m9.993-.367-.007 4.14-.077.152a1.01 1.01 0 0 1-.77.556c-.093.014-1.922.024-4.146.025H6V6h8.987l-.007 4.14" fill-rule="evenodd" fill="#000"/></svg>