<svg xmlns="http://www.w3.org/2000/svg" width="24" height="24" fill="none"><path d="M2.96 1.062a2.885 2.885 0 0 0-1.128.577c-.3.268-.593.713-.714 1.083l-.098.298v18l.111.3c.265.72.826 1.282 1.549 1.549l.3.111h18.04l.3-.111a2.604 2.604 0 0 0 1.549-1.549l.111-.3V2.98l-.111-.3a2.537 2.537 0 0 0-1.249-1.403c-.597-.296.097-.276-9.64-.273-7.339.002-8.802.011-9.02.058m18.14 1.07c.315.147.624.455.767.764l.113.244.012 2.43.011 2.43H1.997l.011-2.43.012-2.43.112-.24c.198-.425.624-.775 1.042-.859.091-.018 4.108-.03 8.926-.027l8.76.006.24.112M8 15.501v6.501l-2.43-.011-2.43-.011-.244-.113a1.698 1.698 0 0 1-.764-.767l-.112-.24-.011-5.93L1.998 9H8v6.501m13.991-.571-.011 5.93-.112.24a1.698 1.698 0 0 1-.764.767l-.244.113-5.93.011-5.93.01V9h13.002l-.011 5.93" fill-rule="evenodd" fill="#000"/></svg>