<svg xmlns="http://www.w3.org/2000/svg" width="24" height="24" fill="none" viewBox="0 0 24 24">
  <path fill="currentColor" fill-rule="evenodd" d="M3.376 5.581A10.702 10.702 0 0 0 1.25 12c0 5.937 4.813 10.75 10.75 10.75 2.406 0 4.627-.79 6.419-2.126a.475.475 0 0 1-.023-.02l-4.745-4.746h-.674v-.674l-2.56-2.56a2.718 2.718 0 0 1-.173.078 3.981 3.981 0 0 1-1.524.276H7.592v2.88H6.2v-7.45L3.396 5.603a.501.501 0 0 1-.02-.023ZM4 4.818a.5.5 0 0 1 .103.078L7.217 8.01h1.455c.584 0 1.104.076 1.56.228.456.152.816.404 1.08.756.264.352.396.832.396 1.44 0 .576-.132 1.052-.396 1.428a2.276 2.276 0 0 1-.103.14l1.768 1.768V8.233h1.242V10.2l-.033.885a3.14 3.14 0 0 1 .724-.475c.266-.122.536-.183.81-.183.439 0 .813.111 1.123.334.317.224.558.537.724.94.165.396.248.868.248 1.415 0 .605-.108 1.123-.324 1.555-.216.425-.497.752-.842.983a1.962 1.962 0 0 1-1.102.335c-.133 0-.269-.019-.407-.055l3.964 3.963a.506.506 0 0 1 .078.103A10.723 10.723 0 0 0 22.75 12c0-5.937-4.813-10.75-10.75-10.75-3.176 0-6.03 1.377-7.999 3.568Zm6.24 6.215c.066-.173.099-.372.099-.599 0-.496-.152-.836-.456-1.02-.296-.192-.736-.288-1.32-.288h-.23l1.906 1.907ZM7.59 9.8v2.063h1.02c.36 0 .663-.046.907-.137L7.592 9.8ZM.25 12C.25 5.51 5.51.25 12 .25S23.75 5.51 23.75 12 18.49 23.75 12 23.75.25 18.49.25 12Zm15.038 2.962c.237 0 .45-.069.637-.206.187-.136.335-.338.443-.604.108-.274.162-.612.162-1.016 0-.352-.04-.655-.119-.907-.08-.252-.205-.443-.378-.572-.166-.137-.382-.205-.648-.205-.194 0-.385.05-.572.15a2.48 2.48 0 0 0-.594.444v2.473c.187.158.374.273.561.345.187.065.357.098.508.098Z" clip-rule="evenodd"/>
</svg>
