<svg xmlns="http://www.w3.org/2000/svg" width="16" height="16" fill="none" viewBox="0 0 16 16"><path fill="currentColor" fill-rule="evenodd" d="M2.27 3.978a7 7 0 0 0 9.752 9.752l-2.59-2.59h-.285v-.286L6.822 8.53A3.35 3.35 0 0 1 5.6 8.74h-.94v2.4H3.5V5.207l-1.23-1.23Zm.636-.78L4.307 4.6H5.56c.487 0 .92.063 1.3.19s.68.337.9.63c.22.293.33.693.33 1.2 0 .48-.11.877-.33 1.19a1.857 1.857 0 0 1-.104.139L9.147 9.44V4.786h1.035v1.638l-.027.738c.186-.162.387-.294.603-.396.222-.102.447-.153.675-.153.366 0 .678.093.936.279.264.186.465.447.603.783.138.33.207.723.207 1.179 0 .504-.09.936-.27 1.296-.18.354-.414.627-.702.819a1.635 1.635 0 0 1-.918.279c-.129 0-.26-.02-.395-.061l1.907 1.907a7 7 0 1 0-9.895-9.895Zm3.95 3.95c.063-.15.094-.327.094-.528 0-.413-.127-.697-.38-.85-.247-.16-.613-.24-1.1-.24h-.233l1.619 1.618Zm-2.196-.78V7.81h.85c.202 0 .383-.017.541-.052L4.66 6.368ZM0 8a8 8 0 1 1 16 0A8 8 0 0 1 0 8Zm11.073 2.393a.877.877 0 0 0 .531-.171 1.13 1.13 0 0 0 .37-.504c.09-.228.134-.51.134-.846 0-.294-.033-.546-.099-.756a.918.918 0 0 0-.315-.477c-.138-.114-.318-.171-.54-.171a.995.995 0 0 0-.477.126 2.067 2.067 0 0 0-.495.369v2.061c.156.132.312.228.468.288.156.054.297.081.423.081Z" clip-rule="evenodd"/></svg>