<svg xmlns="http://www.w3.org/2000/svg" width="24" height="24" fill="none"><path d="M11.297.281C10.252.342 9.322.521 8.3.858c-2.431.8-4.515 2.368-5.995 4.51C.817 7.521.057 10.341.281 12.88a12.112 12.112 0 0 0 1.024 3.982c1.145 2.543 3.29 4.688 5.833 5.833a11.765 11.765 0 0 0 9.672.024c2.574-1.151 4.732-3.298 5.884-5.855A11.453 11.453 0 0 0 23.737 12c0-1.411-.183-2.511-.636-3.834a11.747 11.747 0 0 0-4.461-5.854A11.757 11.757 0 0 0 11.297.281m1.3 1c.774.047 1.282.12 1.953.283a10.757 10.757 0 0 1 7.886 7.886c.422 1.74.394 3.723-.076 5.41a10.997 10.997 0 0 1-1.792 3.625c-.317.419-.884 1.047-1.188 1.317l-.2.178-1.99-2-1.989-2 .369-.005c.893-.011 1.627-.571 2.017-1.537.17-.42.224-.826.202-1.498-.022-.664-.095-.997-.315-1.432-.15-.297-.525-.698-.787-.841-.384-.208-.968-.285-1.406-.184a2.7 2.7 0 0 0-.85.415 1.516 1.516 0 0 1-.206.142c-.011 0-.009-.63.004-1.4l.024-1.4H12.96v5.5l-.87-.87c-.771-.772-.864-.878-.819-.94.152-.209.34-.675.395-.976a3.386 3.386 0 0 0-.048-1.293c-.193-.744-.787-1.277-1.671-1.5C9.542 8.058 8.807 8 7.925 8h-.704l-1.6-1.598L4.02 4.805l.18-.193c1.804-1.937 4.425-3.167 7.089-3.328l.591-.038c.033-.003.356.013.717.035M6.2 12.151v3.731l.69-.011.69-.011.01-1.424.011-1.424.809-.023c.853-.023 1.193-.073 1.713-.25l.295-.1 1.27 1.269 1.269 1.269.012.341.011.342.342.011.341.012 2.374 2.374 2.373 2.374-.295.208c-2.157 1.521-4.985 2.189-7.635 1.801a10.752 10.752 0 0 1-8.637-7.137c-.932-2.702-.732-5.784.54-8.309.191-.38.586-1.04.806-1.349l.182-.254 1.414 1.414L6.2 8.42v3.731m3.16-2.943c.487.117.781.353.904.725.072.215.067.952-.007 1.026-.026.026-.356-.279-.978-.904l-.939-.944.42.027c.231.015.501.046.6.07m.12 2.518c0 .066-.436.12-1.13.142l-.75.022V9.821l.94.939c.517.517.94.952.94.966m6.39-.158c.399.186.603.624.639 1.372.027.58-.033.965-.211 1.328-.36.738-1.093.903-1.851.416l-.207-.132v-2.549l.21-.157c.529-.395.98-.483 1.42-.278" fill="currentColor" fill-rule="evenodd"/></svg>