<svg xmlns="http://www.w3.org/2000/svg" width="16" height="16" fill="none"><path d="M7.467.019c-.27.016-.784.089-1.12.158C3.324.796.878 3.204.2 6.228.047 6.91.017 7.206.017 8S.047 9.09.2 9.772a8.017 8.017 0 0 0 2.995 4.621c1.062.806 2.286 1.312 3.711 1.534.523.082 1.665.082 2.188 0 1.944-.303 3.596-1.179 4.836-2.565 1.1-1.229 1.735-2.587 1.997-4.268.083-.534.082-1.662-.003-2.214-.392-2.556-1.852-4.658-4.101-5.905-1.28-.71-2.828-1.05-4.356-.956m1.301 1.022a7.02 7.02 0 0 1 6.191 6.191c.036.333.036 1.175 0 1.509-.168 1.548-.832 2.967-1.936 4.134l-.21.222-.946-.95c-.72-.722-.928-.945-.867-.928.044.011.194.02.333.019.458-.003.838-.18 1.195-.556.326-.343.515-.737.607-1.269.06-.341.04-1.036-.038-1.346-.184-.732-.574-1.194-1.164-1.38-.28-.089-.728-.084-.991.011a2.649 2.649 0 0 0-.65.354l-.121.092.011-1.172.011-1.172H9.147V9.427l-.74-.74c-.654-.654-.736-.746-.707-.787.169-.239.282-.498.345-.793.052-.244.034-.914-.031-1.147-.184-.66-.695-1.086-1.521-1.269-.24-.053-.36-.06-1.215-.07l-.95-.012-.713-.714-.713-.713.289-.265c1.172-1.073 2.535-1.706 4.036-1.874a12.189 12.189 0 0 1 1.541-.002M2.886 4.606l.607.607v5.934h1.174V8.753l.713-.014c.734-.014.984-.045 1.312-.164l.119-.043 1.168 1.167 1.168 1.167v.281h.28l1.292 1.292c.711.711 1.287 1.296 1.28 1.301l-.106.076c-.294.213-.836.499-1.29.682-.855.343-1.685.5-2.63.497a6.794 6.794 0 0 1-3.177-.771 6.82 6.82 0 0 1-1.732-1.264 6.99 6.99 0 0 1-2.026-4.248c-.04-.406-.018-1.407.039-1.765.114-.714.347-1.44.666-2.075.172-.341.49-.872.523-.872.008 0 .287.273.62.606m3.188.982c.266.055.453.14.601.277.179.165.24.328.253.68.011.273-.026.575-.07.575-.01 0-.372-.354-.805-.787l-.786-.786h.301c.168 0 .392.018.506.041m-.095 2.184c-.026.015-.32.031-.679.037l-.633.01V6.387l.679.679c.58.58.673.683.633.706m5.528-.24c.256.107.431.331.523.668.078.286.086.993.015 1.278-.112.448-.368.765-.702.868-.208.064-.288.066-.512.013a1.456 1.456 0 0 1-.549-.258l-.095-.078V7.951l.113-.098c.158-.136.456-.309.603-.351.154-.044.465-.028.604.03" fill="currentColor" fill-rule="evenodd"/></svg>