<svg xmlns="http://www.w3.org/2000/svg" width="16" height="16" fill="none"><path d="M14.8.525c-.882.153-2.722.555-3.88.848-3.417.864-5.805 1.799-7.18 2.813a5.657 5.657 0 0 0-1.59 1.891 5.555 5.555 0 0 0-.642 2.67c.001.704.09 1.228.32 1.895.188.544.575 1.251.913 1.665l.109.133-1.156 1.16C.434 14.864.482 14.803.513 15.081c.036.316.42.511.708.361.054-.029.602-.556 1.217-1.172l1.119-1.12.161.128c1.02.808 2.485 1.282 3.768 1.219 1.504-.074 2.798-.641 3.836-1.681.906-.908 1.638-2.324 2.426-4.696.619-1.863 1.235-4.292 1.65-6.508.109-.582.115-.695.045-.833-.115-.226-.325-.309-.643-.254M14.363 1.7l-.137.66c-.912 4.384-2.039 7.672-3.166 9.236-.851 1.182-2.281 1.897-3.793 1.897a4.78 4.78 0 0 1-2.755-.872l-.249-.177 1.828-1.829C7.368 9.337 7.93 8.757 7.959 8.688a.497.497 0 0 0 .004-.377.583.583 0 0 0-.382-.3c-.267-.04-.176-.118-2.182 1.886l-1.842 1.839-.148-.208a4.832 4.832 0 0 1-.853-2.075c-.045-.277-.045-1.162 0-1.44.202-1.244.854-2.34 1.816-3.051 1.472-1.088 4.692-2.213 8.881-3.105l.934-.199c.189-.04.192-.04.176.042" fill-rule="evenodd" fill="#000"/></svg>