<svg xmlns="http://www.w3.org/2000/svg" width="16" height="16" fill="currentColor">
  <path d="m5.354 10.854 3.5-3.5-.708-.708-3.5 3.5.708.708Z"/>
  <path fill-rule="evenodd" d="M3.456 4.544c1.64-1.64 8.327-3.42 10.976-4.076a66.585 66.585 0 0 1 1.089-.26s-.094.412-.261 1.088c-.656 2.65-2.436 9.336-4.076 10.976-1.981 1.981-5.203 2-7.345.096l-2.485 2.486-.708-.707 2.5-2.5.048.047c-1.735-2.138-1.66-5.228.262-7.15Zm7.02 7.021c-1.644 1.645-4.41 1.631-6.177-.136C2.532 9.66 2.52 6.896 4.163 5.25c.357-.357 1.194-.823 2.426-1.328 1.185-.485 2.594-.952 3.958-1.361a88.905 88.905 0 0 1 3.614-.995c-.244.96-.588 2.257-.995 3.613-.409 1.365-.876 2.774-1.361 3.96-.505 1.231-.97 2.068-1.328 2.425Z" clip-rule="evenodd"/>
</svg>
