<svg xmlns="http://www.w3.org/2000/svg" width="24" height="24" fill="none"><path d="M21.34 2.218c-5.264 1.08-9.635 2.664-12.39 4.488-2.55 1.688-4.149 4.022-4.612 6.734-.089.521-.121 1.764-.06 2.33.115 1.064.427 2.27.801 3.094l.111.246-1.537 1.535c-.846.844-1.564 1.584-1.596 1.643-.213.401.254.868.655.655.059-.032.799-.75 1.643-1.596l1.536-1.538.264.109c.709.292 1.758.579 2.565.703.588.09 1.807.122 2.367.061 1.766-.191 3.433-.883 4.873-2.025.486-.385 1.44-1.361 1.855-1.898 1.59-2.053 2.865-4.807 3.926-8.479.487-1.686 1.055-4.243 1.224-5.507.039-.296.038-.376-.009-.473-.074-.154-.296-.301-.452-.298-.068.001-.592.098-1.164.216m.54.96c0 .032-.037.252-.082.49-.857 4.512-2.153 8.309-3.747 10.973-1.578 2.638-3.597 4.288-5.951 4.862-1.199.293-2.599.291-3.923-.004-.462-.103-1.278-.347-1.433-.428-.065-.035.385-.5 3.546-3.665 1.992-1.994 3.642-3.665 3.666-3.713.189-.375-.274-.838-.649-.649-.048.024-1.72 1.675-3.715 3.668-1.996 1.994-3.639 3.614-3.652 3.601-.045-.045-.297-.789-.396-1.169-.222-.856-.28-1.335-.281-2.324-.001-.997.053-1.423.278-2.201.474-1.634 1.621-3.286 3.093-4.453 2.423-1.923 6.762-3.636 12.206-4.821l.9-.197c.134-.031.14-.03.14.03" fill-rule="evenodd" fill="#000"/></svg>