<svg width="40" height="40" fill="none" xmlns="http://www.w3.org/2000/svg"><path d="M18.8.07c-4.097.229-7.949 1.707-11.267 4.324-.814.642-2.497 2.325-3.139 3.139C2.019 10.544.607 13.934.158 17.7c-.136 1.144-.136 3.456 0 4.6.478 4.015 2.103 7.712 4.717 10.733 3.311 3.826 7.802 6.211 12.825 6.809 1.144.136 3.456.136 4.6 0 4.435-.528 8.433-2.432 11.624-5.535 3.308-3.217 5.369-7.4 5.918-12.007.063-.53.103-1.424.103-2.3 0-.876-.04-1.77-.103-2.3-.528-4.435-2.432-8.433-5.535-11.624C30.242 1.897 24.678-.259 18.8.07m3.843 1.089c3.676.558 6.844 1.978 9.624 4.315 3.629 3.052 5.925 7.263 6.61 12.126.12.851.12 3.949 0 4.8-.834 5.921-4.099 10.909-9.11 13.916-2.219 1.331-4.662 2.18-7.367 2.561-.851.12-3.949.12-4.8 0-4.863-.685-9.074-2.981-12.126-6.61-2.337-2.781-3.762-5.959-4.315-9.624-.163-1.087-.196-3.553-.062-4.71.58-5.014 2.968-9.435 6.811-12.612 2.737-2.263 6.286-3.794 9.692-4.182.348-.04.723-.085.833-.1.478-.065 3.568.022 4.21.12m-5.348 11.942c-.107.047-1.792 1.687-3.745 3.644C10.464 19.838 10 20.329 10 20.5c0 .171.464.662 3.55 3.755 1.953 1.957 3.638 3.597 3.745 3.644.399.175.772-.163.627-.566-.034-.091-1.447-1.554-3.141-3.25L11.701 21h9.373c6.499 0 9.436-.022 9.578-.072.4-.139.4-.717.001-.856-.144-.05-3.051-.072-9.579-.072h-9.373l3.08-3.083c1.694-1.696 3.107-3.159 3.141-3.25.145-.403-.228-.741-.627-.566" fill-rule="evenodd" fill="#000"/></svg>