<svg xmlns="http://www.w3.org/2000/svg" width="16" height="16" fill="none" viewBox="0 0 16 16">
  <path fill="#1D1D1D" fill-rule="evenodd" d="M13.657 13.657A8 8 0 1 0 2.343 2.343a8 8 0 0 0 11.314 11.314Zm.642-8.715a6.99 6.99 0 0 0-1.35-1.892 6.99 6.99 0 0 0-1.891-1.349l-.246.615a8.747 8.747 0 0 1 2.872 2.872l.615-.246Zm-1.56.624L11.5 6.06A4.003 4.003 0 0 0 9.939 4.5l.495-1.24a7.746 7.746 0 0 1 2.306 2.306Zm1.93.305-2.798 1.12a4.02 4.02 0 0 1 0 2.019l2.799 1.12a7.03 7.03 0 0 0 0-4.26Zm-1.93 4.563L11.5 9.94A4.002 4.002 0 0 1 9.939 11.5l.495 1.24a7.746 7.746 0 0 0 2.306-2.306Zm.945.378a8.747 8.747 0 0 1-2.872 2.872l.246.615a6.99 6.99 0 0 0 1.892-1.35 6.99 6.99 0 0 0 1.349-1.891l-.615-.246Zm-3.555 3.858L9.01 11.87a4.02 4.02 0 0 1-2.019 0L5.87 14.67a7.03 7.03 0 0 0 4.26 0Zm-5.187-.371a6.99 6.99 0 0 1-1.892-1.35 6.99 6.99 0 0 1-1.349-1.891l.615-.246a8.747 8.747 0 0 0 2.872 2.872l-.246.615ZM4.5 9.939l-1.24.495a7.747 7.747 0 0 0 2.306 2.306l.495-1.24A4 4 0 0 1 4.5 9.939Zm-.371-.93a4.02 4.02 0 0 1 0-2.022l-.05-.021-.403-.162-.995-.393-.169-.066c-.418-.165-.846-.334-1.184-.469a7.031 7.031 0 0 0 .002 4.253L4.13 9.01ZM1.7 4.943l.615.247a8.746 8.746 0 0 1 2.872-2.873l-.246-.615a6.99 6.99 0 0 0-1.892 1.35 6.99 6.99 0 0 0-1.349 1.891Zm2.344.933-.784-.31A7.746 7.746 0 0 1 5.566 3.26L6.06 4.5a4.002 4.002 0 0 0-1.56 1.558c-.118-.049-.28-.113-.456-.183ZM5.871 1.33 6.99 4.13a4.02 4.02 0 0 1 2.019 0l1.12-2.799a7.031 7.031 0 0 0-4.26 0Zm4.25 8.791A3 3 0 1 0 5.88 5.88a3 3 0 0 0 4.242 4.242Z" clip-rule="evenodd"/>
</svg>
