<svg xmlns="http://www.w3.org/2000/svg" width="24" height="24" fill="none"><path d="M11.069 1.039c-2.247.219-4.201 1.002-5.968 2.393-.461.363-1.495 1.431-1.87 1.931C2.075 6.906 1.379 8.59 1.093 10.54c-.098.672-.098 2.248 0 2.92.286 1.949.981 3.631 2.137 5.177.455.607 1.526 1.678 2.133 2.133 1.546 1.156 3.228 1.851 5.177 2.137.672.098 2.248.098 2.92 0 1.949-.286 3.631-.981 5.177-2.137.607-.455 1.678-1.526 2.133-2.133 1.156-1.546 1.851-3.228 2.137-5.177.052-.356.07-.733.07-1.46s-.018-1.104-.07-1.46c-.286-1.95-.982-3.634-2.138-5.177-.375-.5-1.409-1.568-1.87-1.931-1.597-1.257-3.351-2.02-5.319-2.312-.634-.094-1.942-.136-2.511-.081m2.171 1.04a10.023 10.023 0 0 1 8.297 6.924c.218.686.395 1.634.43 2.297l.01.2-2.488.01-2.489.011V6.52h-1v4.88l-4.74-3.16A743.86 743.86 0 0 0 6.5 5.08c-.011 0-.02 1.449-.02 3.22v3.221l-2.228-.011-2.228-.01.01-.24A9.995 9.995 0 0 1 6.5 3.657c1.443-.948 2.978-1.472 4.78-1.633.308-.027 1.603.009 1.96.055M11.415 9.54c2.014 1.342 3.663 2.449 3.663 2.46 0 .015-6.92 4.64-7.442 4.974l-.116.074V6.952l.116.074c.063.041 1.764 1.172 3.779 2.514M6.48 15.72c0 1.76.009 3.2.02 3.2.011 0 2.153-1.422 4.76-3.16L16 12.6v4.92h1v-5H21.983l-.031.385c-.228 2.833-1.799 5.57-4.153 7.239a10.235 10.235 0 0 1-4.399 1.763c-.342.052-.701.071-1.4.071-1.039 0-1.483-.05-2.355-.263a10.017 10.017 0 0 1-6.861-5.842 9.887 9.887 0 0 1-.736-2.968l-.031-.385H6.48v3.2" fill="currentColor" fill-rule="evenodd"/></svg>