<svg xmlns="http://www.w3.org/2000/svg" viewBox="0 0 48 48" style="enable-background:new 0 0 48 48" xml:space="preserve"><path d="M23.04 4v2.96h1.92V1.04h-1.92V4M7.779 7.781l-.658.661 2.101 2.1 2.1 2.099.678-.681.678-.681-2.079-2.08C9.456 8.056 8.502 7.12 8.479 7.12c-.023 0-.338.298-.7.661m29.68 1.44-2.1 2.101.681.678.682.678 2.098-2.099 2.099-2.099-.68-.68-.68-.68-2.1 2.101M22.76 11.088c-2.933.415-5.08 1.344-7.138 3.088-1.671 1.417-3.052 3.45-3.775 5.563-1.322 3.857-.776 8.106 1.471 11.459a13.028 13.028 0 0 0 5.019 4.41l.783.393v6.959h9.92v-6.944l.74-.361c3.579-1.744 6.161-5.09 7.035-9.115.152-.701.179-1.069.182-2.54.003-1.507-.02-1.828-.183-2.59-1.126-5.259-5.16-9.201-10.416-10.177-.647-.12-3.119-.219-3.638-.145m3.385 2.073c5.834 1.117 9.716 6.604 8.85 12.509-.14.955-.602 2.429-1.022 3.265-1.269 2.52-3.62 4.603-6.173 5.471l-.64.217-.021 3.21-.021 3.209-3.019-.021L21.08 41l-.021-3.2-.021-3.2-.497-.146c-1.798-.53-3.925-2.08-5.232-3.814-.984-1.304-1.784-3.158-2.082-4.822-.175-.982-.17-2.657.011-3.698.385-2.202 1.367-4.13 2.935-5.76 1.791-1.863 4.056-2.99 6.676-3.321.759-.096 2.494-.032 3.296.122M1.04 24v.96h5.92v-1.92H1.04V24m40 0v.96h5.92v-1.92h-5.92V24M19.12 46v.96h9.92v-1.92h-9.92V46" fill-rule="evenodd"/></svg>