<svg xmlns="http://www.w3.org/2000/svg" width="16" height="16" fill="none"><path d="M7.467.017a8.028 8.028 0 0 0-5.859 3.176C.799 4.26.296 5.477.073 6.906c-.082.523-.082 1.665 0 2.188.342 2.194 1.403 3.995 3.122 5.299 1.062.806 2.286 1.312 3.711 1.534.523.082 1.665.082 2.188 0 1.944-.303 3.596-1.179 4.836-2.565 1.1-1.229 1.735-2.587 1.997-4.268.082-.523.082-1.665 0-2.188-.222-1.425-.728-2.649-1.534-3.711A7.994 7.994 0 0 0 9 .066 12.585 12.585 0 0 0 7.467.017M9.04 1.079c2.405.375 4.443 1.948 5.388 4.16.282.662.487 1.464.54 2.114l.011.14H12V4h-1.013v1.693c0 .932-.007 1.694-.015 1.694-.009 0-1.575-.96-3.482-2.134A757.073 757.073 0 0 0 4.012 3.12C4.005 3.12 4 4.104 4 5.307v2.186H1.021l.011-.14c.007-.077.036-.29.065-.473a6.932 6.932 0 0 1 1.957-3.826C4.211 1.898 5.693 1.203 7.373 1.03c.257-.027 1.398.007 1.667.049m-1.434 5.42c1.331.818 2.42 1.494 2.42 1.501 0 .01-4.205 2.609-4.911 3.035l-.102.061V4.901l.087.055c.048.031 1.175.725 2.506 1.543M4 10.693c0 1.203.006 2.187.013 2.187.006 0 1.573-.96 3.48-2.133a551.423 551.423 0 0 1 3.481-2.134c.007 0 .013.762.013 1.694V12H12V8.507h2.988l-.013.06a4.053 4.053 0 0 0-.028.246c-.056.635-.302 1.494-.626 2.188a7.08 7.08 0 0 1-3.471 3.39A6.843 6.843 0 0 1 8 14.99a6.395 6.395 0 0 1-1.707-.204 7.016 7.016 0 0 1-4.721-4.025 7.286 7.286 0 0 1-.54-2.114l-.011-.14H4v2.186" fill="currentColor" fill-rule="evenodd"/></svg>