<svg xmlns="http://www.w3.org/2000/svg" width="24" height="24" fill="none" viewBox="0 0 24 24"><path fill="currentColor" fill-rule="evenodd" d="M21.988 12.5C21.728 17.79 17.355 22 12 22c-5.355 0-9.727-4.21-9.988-9.5H6.5v6.434l.777-.518L16 12.601V17.5h1v-5h4.988Zm0-1H17v-5h-1v4.9L7.277 5.583 6.5 5.066V11.5H2.012C2.272 6.21 6.645 2 12 2c5.355 0 9.727 4.21 9.988 9.5ZM23 12c0 6.075-4.925 11-11 11S1 18.075 1 12 5.925 1 12 1s11 4.925 11 11ZM7.5 6.934 15.099 12 7.5 17.066V6.934Z" clip-rule="evenodd"/></svg>