<svg xmlns="http://www.w3.org/2000/svg" width="16" height="16" fill="none"><path d="M15.293 4.05c-.071.034-1.045.991-2.946 2.894l-2.84 2.842L7.68 7.964c-1.005-1.003-1.865-1.849-1.911-1.88a.544.544 0 0 0-.426-.058c-.084.027-.577.506-2.672 2.597-1.77 1.766-2.585 2.597-2.62 2.67a.46.46 0 0 0 .091.544.47.47 0 0 0 .546.122c.069-.029.795-.737 2.452-2.393l2.353-2.352L7.34 9.057c1.016 1.014 1.876 1.859 1.913 1.877a.535.535 0 0 0 .366.047c.124-.025.207-.105 3.215-3.11 3.332-3.33 3.188-3.174 3.159-3.434-.036-.319-.411-.527-.7-.387" fill-rule="evenodd" fill="#000"/></svg>