<svg xmlns="http://www.w3.org/2000/svg" width="16" height="16" fill="none"><path d="M1.347 1.058a.712.712 0 0 0-.289.289L1 1.453l-.008 6.48c-.006 4.828 0 6.517.023 6.624.036.17.194.347.361.406.087.031 1.153.037 6.637.037h6.534l.106-.058a.721.721 0 0 0 .297-.302c.048-.09.05-.302.05-6.587V1.56l-.071-.133a1.096 1.096 0 0 0-.173-.232c-.206-.198.424-.182-6.815-.181-5.882.001-6.522.006-6.594.044m3.24 1.952c.558.215.875.856.693 1.402a1.55 1.55 0 0 1-.72.855 1.086 1.086 0 0 1-1.074-.089c-.407-.281-.624-.756-.553-1.216a1.19 1.19 0 0 1 .822-.979c.206-.068.62-.055.832.027m6.266 3.109c.54.083.866.236 1.188.559.323.325.503.721.613 1.351.071.409.092 1.096.092 3.004l.001 1.874H10.75l-.011-1.994c-.009-1.735-.017-2.016-.055-2.174-.093-.383-.254-.61-.522-.736-.136-.064-.178-.07-.485-.07H9.34l-.21.107c-.265.135-.417.322-.523.642-.117.355-.127.544-.127 2.484v1.821H6.4v-6.72h2v.837l.084-.132c.249-.394.82-.754 1.343-.849.28-.05.712-.052 1.026-.004m-5.68 3.468v3.32h-2.08v-6.64h2.08v3.32" fill="currentColor" fill-rule="evenodd"/></svg>