<svg xmlns="http://www.w3.org/2000/svg" width="24" height="24" fill="none"><path d="M16.94 2.041a5.544 5.544 0 0 0-2.438.907c-.34.225-.631.493-1.895 1.749-.822.816-1.519 1.532-1.55 1.591-.204.389.249.865.636.667.048-.024.726-.678 1.507-1.453.781-.775 1.543-1.501 1.694-1.614.151-.113.457-.295.68-.405 2.248-1.108 4.925-.207 5.985 2.015a4.548 4.548 0 0 1 .02 3.813c-.303.656-.512.906-2.041 2.449-.796.803-1.468 1.499-1.493 1.547-.199.386.278.841.667.636.169-.089 3.009-2.97 3.236-3.283a5.533 5.533 0 0 0 .831-4.76 5.343 5.343 0 0 0-4.217-3.802 7.154 7.154 0 0 0-1.622-.057m-.64 6.005c-.125.067-8.178 8.12-8.243 8.242-.206.388.248.864.636.668.124-.063 8.18-8.113 8.25-8.244.206-.389-.261-.873-.643-.666M6.26 11.075c-.2.126-2.99 2.965-3.208 3.265a5.534 5.534 0 0 0-.869 4.613c.555 2.134 2.26 3.657 4.466 3.988 1.372.206 2.867-.164 4.011-.993.313-.227 3.194-3.067 3.283-3.236.205-.389-.249-.865-.636-.667-.048.024-.726.678-1.507 1.454-.781.775-1.542 1.5-1.692 1.612-.953.711-2.26 1.028-3.413.827-2.013-.351-3.45-1.889-3.662-3.918a4.55 4.55 0 0 1 .388-2.331c.303-.656.512-.906 2.041-2.449.796-.803 1.468-1.499 1.493-1.547.151-.292-.118-.693-.463-.693a.53.53 0 0 0-.232.075" fill-rule="evenodd" fill="#000"/></svg>