<svg xmlns="http://www.w3.org/2000/svg" width="16" height="16" fill="none" viewBox="0 0 16 16"><path fill="currentColor" d="M14.304 1H1.61A.596.596 0 0 0 1 1.613v12.862c0 .263.26.525.609.525H14.39a.596.596 0 0 0 .609-.613V1.614c-.087-.35-.348-.613-.696-.613ZM5.087 12.9h-2V6.25h2.087v6.65h-.087ZM4.13 5.375c-.695 0-1.217-.612-1.217-1.225 0-.7.522-1.225 1.217-1.225.696 0 1.218.525 1.218 1.225-.087.612-.609 1.225-1.218 1.225Zm8.696 7.525H10.74V9.662c0-.787 0-1.75-1.043-1.75-1.044 0-1.218.875-1.218 1.75v3.325H6.391V6.25h2v.875c.261-.525.957-1.05 1.913-1.05 2.087 0 2.435 1.4 2.435 3.15V12.9h.087Z"/></svg>