<svg xmlns="http://www.w3.org/2000/svg" width="16" height="16" fill="none"><path d="M11.067.525c-.442.072-.569.1-.793.171a4.116 4.116 0 0 0-1.2.63c-.322.237-2.473 2.346-2.53 2.48a.485.485 0 0 0 .132.56c.192.169.401.178.616.026.066-.047.592-.547 1.168-1.112 1.255-1.232 1.395-1.345 1.914-1.554a2.992 2.992 0 0 1 4.103 3.056c-.036.38-.082.558-.244.935-.196.46-.31.597-1.561 1.876C11.58 8.71 11.495 8.813 11.495 9c0 .197.201.447.386.482a.546.546 0 0 0 .394-.071c.095-.068 1.792-1.798 2.161-2.203a3.93 3.93 0 0 0 1.057-2.71 3.775 3.775 0 0 0-.244-1.378C14.75 1.738 13.481.727 12.002.536c-.213-.028-.792-.035-.935-.011m-.294 4.034c-.051.028-1.475 1.435-3.165 3.126-2.757 2.76-3.073 3.085-3.089 3.177-.047.254.048.471.255.582a.554.554 0 0 0 .434.007c.118-.059 6.169-6.106 6.234-6.23.094-.18.047-.456-.099-.584a.528.528 0 0 0-.57-.078M3.8 6.545c-.116.051-2.217 2.188-2.449 2.489a3.968 3.968 0 0 0-.844 2.468 3.97 3.97 0 0 0 .742 2.324c.194.274.651.731.925.925a3.97 3.97 0 0 0 2.324.742 3.93 3.93 0 0 0 2.71-1.057c.405-.369 2.135-2.066 2.203-2.161.165-.232.071-.583-.194-.72a.59.59 0 0 0-.441.004c-.049.025-.586.531-1.193 1.124-.607.592-1.201 1.15-1.32 1.238a3.014 3.014 0 0 1-2.088.559c-1.429-.172-2.533-1.295-2.651-2.699a2.964 2.964 0 0 1 .607-2.114c.067-.088.584-.631 1.149-1.207.565-.576 1.065-1.102 1.112-1.168.104-.148.132-.276.09-.415a.607.607 0 0 0-.287-.334.577.577 0 0 0-.395.002" fill-rule="evenodd" fill="#000"/></svg>