<svg xmlns="http://www.w3.org/2000/svg" width="16" height="16" fill="currentColor">
  <path fill-rule="evenodd" d="M1 2h14v1H1V2Zm0 4h14v1H1V6Zm0 4h6v1H1v-1Zm10.5-1a.5.5 0 1 0 0 1 .5.5 0 0 0 0-1Zm-1.5.5a1.5 1.5 0 1 1 3 0 1.5 1.5 0 0 1-3 0Zm-.44 3.98c.487-.378 1.124-.48 1.94-.48.816 0 1.453.102 1.94.48.202.157.347.335.439.52H9.12c.092-.185.237-.363.44-.52ZM11.5 12c-.863 0-1.79.097-2.554.691-.583.454-.946 1.1-.946 1.809v.5h7v-.5c0-.71-.363-1.355-.946-1.809C13.29 12.097 12.363 12 11.5 12Z" clip-rule="evenodd"/>
</svg>
