<svg xmlns="http://www.w3.org/2000/svg" width="24" height="24" fill="none"><path d="M11.82 1.041A5.489 5.489 0 0 0 7.902 3.46a4.651 4.651 0 0 0-.595 1.22c-.24.711-.273.927-.295 1.963-.023 1.053-.01 1.126.24 1.279a.478.478 0 0 0 .67-.174C7.991 7.634 8 7.544 8 6.94c0-.374.02-.842.044-1.04.296-2.409 2.46-4.114 4.912-3.869 1.549.155 2.852 1.035 3.546 2.394.372.73.497 1.351.498 2.475 0 .643.009.734.078.848a.478.478 0 0 0 .67.174c.25-.153.263-.226.24-1.279-.021-.99-.052-1.211-.256-1.862-.577-1.838-2.179-3.271-4.093-3.661-.463-.095-1.344-.133-1.819-.079M4.96 11.062a2.885 2.885 0 0 0-1.128.577c-.3.268-.593.713-.714 1.083l-.098.298v9l.111.3a2.604 2.604 0 0 0 1.549 1.549l.3.111h15.04l.3-.111a2.604 2.604 0 0 0 1.549-1.549l.111-.3v-9.04l-.111-.3a2.537 2.537 0 0 0-1.249-1.403c-.593-.294-.066-.276-8.14-.273-6.055.002-7.303.012-7.52.058m15.14 1.07c.315.147.624.455.767.764l.113.244v8.72l-.113.244a1.698 1.698 0 0 1-.767.764l-.24.112H5.14l-.244-.113a1.698 1.698 0 0 1-.764-.767l-.112-.24v-8.72l.112-.24c.198-.425.623-.775 1.042-.859.091-.018 3.433-.03 7.426-.027l7.26.006.24.112m-8.14 2.93a2.885 2.885 0 0 0-1.128.577c-.3.268-.593.713-.714 1.083-.084.254-.098.372-.096.798.002.439.016.536.111.8a2.585 2.585 0 0 0 1.547 1.547c.269.098.354.109.82.109.465 0 .552-.011.82-.108a2.589 2.589 0 0 0 1.547-1.548c.098-.269.109-.354.109-.82 0-.465-.011-.552-.108-.82a2.535 2.535 0 0 0-2.908-1.618m1.159 1.081c.298.136.608.449.746.753.095.209.111.296.111.604s-.016.395-.111.604c-.14.309-.448.616-.765.764-.207.097-.29.112-.6.112s-.393-.015-.6-.112a1.675 1.675 0 0 1-.765-.764c-.095-.208-.111-.296-.111-.604-.001-.309.015-.394.11-.6.193-.422.615-.771 1.04-.861.267-.057.696-.009.945.104" fill-rule="evenodd" fill="#000"/></svg>