<svg xmlns="http://www.w3.org/2000/svg" width="24" height="24" fill="none"><path d="M11.28.041C9.914.206 8.741.778 7.757 1.759 6.898 2.615 6.376 3.58 6.112 4.8c-.072.331-.085.563-.101 1.79L5.993 8h1.999l.018-1.33c.016-1.194.026-1.362.102-1.639.518-1.901 2.161-3.113 4.088-3.016a3.77 3.77 0 0 1 1.512.366 3.872 3.872 0 0 1 1.907 1.907c.322.679.35.859.371 2.382L16.007 8h2.001l-.019-1.41c-.02-1.549-.042-1.729-.309-2.529C17.009 2.046 15.248.517 13.12.1c-.4-.078-1.411-.111-1.84-.059M4.503 10.042c-1.016.172-1.947.934-2.301 1.883-.203.545-.201.472-.201 5.067-.001 4.69-.006 4.572.233 5.159a3.046 3.046 0 0 0 1.615 1.615c.604.246.175.234 8.151.234 6.4 0 7.32-.007 7.581-.062a3.003 3.003 0 0 0 2.357-2.357c.093-.448.093-8.714 0-9.162a2.96 2.96 0 0 0-1.642-2.107c-.66-.318.116-.289-8.176-.297-4.081-.003-7.509.009-7.617.027m7.88 5.001c.802.147 1.456.829 1.584 1.652C14.153 17.894 13.209 19 12 19a2.016 2.016 0 0 1-1.967-1.695c-.1-.642.099-1.244.563-1.709.489-.488 1.102-.678 1.787-.553" fill="currentColor" fill-rule="evenodd"/></svg>