<svg xmlns="http://www.w3.org/2000/svg" width="16" height="16" fill="none"><path d="M7.587.028C5.861.199 4.466 1.466 4.078 3.213c-.056.25-.06.347-.071 1.527L3.996 6h-.818c-.916.001-1.073.02-1.365.166-.227.115-.526.407-.634.622C.986 7.172 1 6.844 1 11c0 3.546.002 3.741.049 3.892.153.496.506.872.971 1.032l.18.063h11.6l.18-.063c.454-.156.812-.53.961-1.004l.059-.187V11c0-4.156.014-3.828-.179-4.212-.108-.215-.407-.507-.634-.622-.292-.146-.449-.165-1.365-.166h-.818l-.011-1.26c-.011-1.18-.015-1.277-.071-1.527a4.153 4.153 0 0 0-.709-1.583A3.978 3.978 0 0 0 7.587.028m1.186 1.077c.294.081.776.309.987.467.203.152.488.435.646.641.173.227.401.696.492 1.014l.072.253.01 1.26.01 1.26H5.01l.01-1.26.01-1.26.072-.253c.091-.318.319-.787.492-1.014.158-.206.443-.489.646-.641.201-.15.689-.385.945-.454.343-.093.433-.102.895-.092.374.007.478.019.693.079m4.955 5.959a.426.426 0 0 1 .231.249c.036.087.041.518.04 3.693 0 3.429-.002 3.599-.049 3.702a.479.479 0 0 1-.351.276c-.191.041-11.007.041-11.198 0a.479.479 0 0 1-.351-.276c-.047-.103-.049-.272-.049-3.708 0-3.437.002-3.605.049-3.707a.445.445 0 0 1 .23-.238c.072-.037.657-.041 5.714-.042 5.477 0 5.638.002 5.734.051M7.529 9.055c-.466.102-.949.449-1.224.879a2.022 2.022 0 0 0 0 2.132c.278.434.747.77 1.236.884.232.054.686.054.918 0 .489-.114.958-.45 1.236-.884a2.022 2.022 0 0 0 0-2.132c-.282-.44-.761-.779-1.244-.881a2.94 2.94 0 0 0-.922.002m.7.98c.696.146.996 1.018.545 1.587a1.04 1.04 0 0 1-.466.331 1.522 1.522 0 0 1-.616 0 1.003 1.003 0 0 1-.224-1.794 1.12 1.12 0 0 1 .519-.156c.044-.001.153.013.242.032" fill-rule="evenodd" fill="#000"/></svg>