<svg width="91" height="40" viewBox="0 0 91 40" fill="none" xmlns="http://www.w3.org/2000/svg">
<path d="M67.691 26.7766C71.0883 26.7766 72.146 23.1841 72.146 19.8802C72.146 15.4536 70.2871 13.1441 67.691 13.1441C64.4218 13.1441 63.268 16.7367 63.3 19.9443C63.3321 23.1199 64.2295 26.7766 67.691 26.7766ZM66.0243 19.8481C66.0243 18.533 66.0243 15.4536 67.691 15.4536C69.4858 15.4536 69.4217 18.5009 69.4217 19.9123C69.4217 21.2595 69.4217 24.5313 67.7551 24.5313C65.9602 24.4992 66.0243 21.2274 66.0243 19.8481ZM57.8194 26.7766C59.1976 26.7766 60.3834 26.2313 61.5052 25.0445L60.5116 23.1841C59.7424 24.018 58.9732 24.4671 58.0438 24.4671C57.2745 24.4671 56.6335 24.018 56.2489 23.2482C55.9284 22.5746 55.8643 21.8048 55.8643 20.9708V20.7142H61.6334V20.1368C61.6334 17.282 61.2809 15.7102 60.3834 14.5234C59.7104 13.6253 58.7168 13.1441 57.4989 13.1441C56.2169 13.1441 55.1592 13.7215 54.39 14.8442C53.5567 16.0631 53.2041 17.699 53.2041 19.9443C53.1721 24.2426 54.8707 26.7766 57.8194 26.7766ZM57.5309 15.2612C58.172 15.2612 58.5566 15.614 58.813 16.1914C59.0053 16.7046 59.1014 17.5707 59.1014 18.5971H55.8643C55.8964 16.3197 56.3771 15.2612 57.5309 15.2612ZM74.2613 26.4559H76.7613V16.8329C77.3703 16.0952 78.0754 15.6782 78.5882 15.6782C78.9087 15.6782 79.2292 15.7423 79.4215 15.9989C79.6138 16.2876 79.7099 16.7046 79.7099 17.699V26.4559H82.2099V16.5442C82.2099 15.6782 82.1137 14.8121 81.6009 14.1706C81.1522 13.5932 80.4471 13.2404 79.5497 13.2404C78.3959 13.2404 77.21 13.914 76.569 14.6838C76.5369 14.0102 76.3126 13.3687 76.2485 13.1441L73.9088 13.7536C74.037 14.4593 74.2293 15.3253 74.2293 16.8971V26.4559H74.2613ZM45.2235 14.6838C45.1915 14.0102 44.9671 13.3687 44.903 13.1441L42.5633 13.7536C42.6915 14.4593 42.8838 15.3253 42.8838 16.8971V26.4238H45.3838V16.8008C45.9927 16.0631 46.6978 15.6461 47.2107 15.6461C47.5312 15.6461 47.8517 15.7102 48.044 15.9669C48.2363 16.2555 48.3324 16.6725 48.3324 17.6669V26.4238H50.8324V16.5442C50.8324 15.6782 50.7362 14.8121 50.2234 14.1706C49.7747 13.5932 49.0696 13.2404 48.1722 13.2404C47.0504 13.2404 45.8645 13.914 45.2235 14.6838ZM14.6473 9.07042C16.1216 9.07042 17.3075 7.88359 17.3075 6.40807C17.3075 4.93256 16.1216 3.74573 14.6473 3.74573C13.1729 3.74573 11.9871 4.93256 11.9871 6.40807C11.9871 7.88359 13.1729 9.07042 14.6473 9.07042ZM26.9226 26.4559V16.5442C26.9226 15.6782 26.8265 14.8121 26.3137 14.1706C25.865 13.5932 25.1598 13.2404 24.2624 13.2404C23.1086 13.2404 21.9227 13.914 21.2817 14.6838C21.2497 14.0102 21.0253 13.3687 20.9612 13.1441L18.6536 13.7857C18.7818 14.4913 18.9741 15.3574 18.9741 16.9291V26.4559H21.474V16.8329C22.083 16.0952 22.7881 15.6782 23.3009 15.6782C23.6214 15.6782 23.9419 15.7423 24.1342 15.9989C24.3265 16.2876 24.4227 16.7046 24.4227 17.699V26.4559H26.9226ZM38.4288 8.36474C37.4993 8.36474 36.7622 9.10249 36.7622 10.0327C36.7622 10.9629 37.4993 11.7007 38.3967 11.7007C39.3262 11.7007 40.0634 10.9629 40.0634 10.0327C40.0634 9.10249 39.3262 8.36474 38.4288 8.36474ZM13.4614 26.4559H15.9613V10.8346L13.4614 11.1554V26.4559ZM33.8776 9.90441C34.3263 9.90441 34.775 10.0648 35.0635 10.2893L35.7686 8.33266C35.0955 7.85151 34.3584 7.62698 33.4289 7.62698C32.7879 7.62698 32.1148 7.78736 31.5059 8.26851C30.8969 8.78173 30.2559 9.80818 30.2559 11.7328C30.2559 12.5667 30.2879 13.4328 30.2879 13.4328H29.4226V15.6461H30.2879V26.4238H32.852V15.6782H34.743L35.2237 13.4649H32.884V11.4762C32.884 10.5139 33.2686 9.90441 33.8776 9.90441ZM37.1468 26.4559H39.6788V13.2404L37.1468 13.5611V26.4559Z" fill="#005DA9"/>
<path d="M77.0816 33.5126C68.6203 36.0146 58.3321 37.1052 48.2682 37.1052C22.7239 37.1052 6.24986 29.5993 5.09604 19.6877C4.67938 15.9668 7.59599 12.3422 12.4677 9.26285C11.6023 8.62132 11.0575 7.59488 11.0254 6.44012C3.97427 10.161 0 15.0366 0 19.9764C0 30.9145 19.5188 40.1525 48.5246 39.7676C58.6205 39.6393 67.0498 38.1958 74.6778 35.6939C83.7482 32.7428 89.4532 28.5087 90.8313 26.6483C89.1968 28.1238 85.3186 31.0748 77.0816 33.5126ZM23.2687 4.38723C24.9674 3.80985 27.3712 3.0721 27.3712 3.0721C34.1339 1.21166 41.6017 0.121063 48.5566 0.185215C40.544 -0.295931 33.2365 0.185215 26.8584 1.33997C26.8584 1.33997 24.743 1.69281 22.4675 2.27018C22.4675 2.27018 21.3777 2.55887 20.7047 2.75133C20.0316 2.94379 19.1021 3.2004 19.1021 3.2004C18.4611 3.39286 17.8201 3.6174 17.1791 3.84193C17.8201 4.48346 18.2047 5.31745 18.2368 6.27974C19.3586 5.76652 21.5059 4.99668 23.2687 4.38723Z" fill="#E30034"/>
</svg>
