<svg xmlns="http://www.w3.org/2000/svg" width="24" height="24" fill="none"><path d="M5.96 1.062a2.885 2.885 0 0 0-1.128.577c-.3.268-.593.713-.714 1.083l-.098.298v18l.111.3c.265.72.826 1.282 1.549 1.549l.3.111h12.04l.3-.111a2.593 2.593 0 0 0 1.547-1.549c.101-.28.109-.354.124-1.104.019-.899 0-.99-.243-1.138a.451.451 0 0 0-.496 0c-.219.134-.242.226-.259 1.042-.015.708-.02.75-.126.98a1.687 1.687 0 0 1-.763.767l-.244.113H6.14l-.244-.113a1.698 1.698 0 0 1-.764-.767l-.112-.24V3.14l.112-.24c.147-.315.455-.624.764-.767l.244-.113h11.72l.24.112c.317.148.625.455.766.764.106.233.112.277.127.984.017.816.04.908.259 1.042a.451.451 0 0 0 .496 0c.243-.148.262-.239.243-1.138-.015-.75-.023-.824-.124-1.104a2.52 2.52 0 0 0-1.247-1.403c-.587-.291-.229-.276-6.64-.273-4.771.002-5.805.012-6.02.058M17.235 7.58c-.111.061-.235.278-.235.413 0 .045.019.132.042.194.023.062.766.838 1.65 1.723l1.607 1.61h-5.472c-4.711 0-5.487.008-5.584.058C9.124 11.64 9 11.854 9 12c0 .136.116.348.233.428.102.068.376.073 5.565.083l5.458.01-1.604 1.61c-1.687 1.692-1.695 1.703-1.632 1.989.034.156.231.351.37.367.307.036.247.087 2.456-2.121 2.23-2.23 2.197-2.191 2.133-2.496-.022-.103-.451-.555-2.073-2.183-1.125-1.129-2.095-2.078-2.154-2.11a.638.638 0 0 0-.517.003" fill-rule="evenodd" fill="#000"/></svg>