<svg xmlns="http://www.w3.org/2000/svg" width="16" height="16" fill="none"><path d="M1.666.029A2.028 2.028 0 0 0 .076 1.44l-.063.2v12.72l.063.2c.203.651.69 1.142 1.351 1.364l.186.063 3.48.007c3.83.008 3.609.017 3.773-.153.071-.075.156-.314.135-.382a2.71 2.71 0 0 1-.026-.105c-.019-.089-.156-.25-.258-.302-.064-.033-.546-.039-3.376-.039-1.82 0-3.376-.012-3.467-.025a1.01 1.01 0 0 1-.77-.556l-.077-.152V1.72l.078-.154a1.19 1.19 0 0 1 .482-.474l.133-.065 3.453-.014c3.184-.012 3.46-.017 3.536-.058.11-.061.246-.218.266-.309a2.71 2.71 0 0 1 .026-.105C9.02.478 8.94.237 8.877.169a.65.65 0 0 0-.17-.119C8.605.003 8.452.001 5.2.004 3.33.005 1.74.016 1.666.029m9.723 3.483a.54.54 0 0 0-.325.253.537.537 0 0 0-.011.45c.025.051.761.808 1.636 1.685l1.59 1.593-4.466.007-4.466.007-.113.073a.509.509 0 0 0 .012.851l.101.062 4.46.014 4.46.013-1.575 1.573c-.934.933-1.598 1.616-1.63 1.679-.204.392.191.854.598.698.092-.034.52-.45 2.211-2.143 1.987-1.99 2.098-2.106 2.115-2.214a.855.855 0 0 0 0-.226c-.017-.108-.128-.224-2.102-2.202-1.146-1.149-2.114-2.104-2.151-2.124a.693.693 0 0 0-.344-.049" fill-rule="evenodd" fill="#000"/></svg>