<svg width="73" height="32" viewBox="0 0 73 32" fill="none" xmlns="http://www.w3.org/2000/svg">
<path d="M54.1527 21.4213C56.8706 21.4213 57.7168 18.5472 57.7168 15.9041C57.7168 12.3629 56.2296 10.5153 54.1527 10.5153C51.5374 10.5153 50.6143 13.3893 50.64 15.9555C50.6656 18.4959 51.3836 21.4213 54.1527 21.4213ZM52.8194 15.8785C52.8194 14.8264 52.8194 12.3629 54.1527 12.3629C55.5886 12.3629 55.5373 14.8007 55.5373 15.9298C55.5373 17.0076 55.5373 19.625 54.204 19.625C52.7681 19.5993 52.8194 16.9819 52.8194 15.8785ZM46.2555 21.4213C47.358 21.4213 48.3067 20.985 49.2041 20.0356L48.4093 18.5472C47.7939 19.2144 47.1785 19.5737 46.4349 19.5737C45.8196 19.5737 45.3068 19.2144 44.9991 18.5986C44.7427 18.0597 44.6914 17.4438 44.6914 16.7766V16.5713H49.3067V16.1094C49.3067 13.8256 49.0246 12.5682 48.3067 11.6187C47.7682 10.9002 46.9734 10.5153 45.9991 10.5153C44.9734 10.5153 44.1273 10.9772 43.5119 11.8753C42.8453 12.8505 42.5632 14.1592 42.5632 15.9555C42.5376 19.394 43.8965 21.4213 46.2555 21.4213ZM46.0247 12.2089C46.5375 12.2089 46.8452 12.4912 47.0503 12.9531C47.2042 13.3637 47.2811 14.0565 47.2811 14.8777H44.6914C44.717 13.0557 45.1016 12.2089 46.0247 12.2089ZM59.409 21.1647H61.409V13.4663C61.8961 12.8761 62.4602 12.5425 62.8705 12.5425C63.1269 12.5425 63.3833 12.5938 63.5371 12.7991C63.691 13.0301 63.7679 13.3637 63.7679 14.1592V21.1647H65.7679V13.2354C65.7679 12.5425 65.6909 11.8497 65.2807 11.3364C64.9217 10.8745 64.3576 10.5923 63.6397 10.5923C62.7166 10.5923 61.7679 11.1312 61.2551 11.747C61.2295 11.2081 61.05 10.6949 60.9987 10.5153L59.127 11.0028C59.2295 11.5674 59.3834 12.2602 59.3834 13.5176V21.1647H59.409ZM36.1788 11.747C36.1531 11.2081 35.9736 10.6949 35.9224 10.5153L34.0506 11.0028C34.1532 11.5674 34.307 12.2602 34.307 13.5176V21.139H36.307V13.4407C36.7941 12.8505 37.3582 12.5169 37.7685 12.5169C38.0249 12.5169 38.2813 12.5682 38.4351 12.7735C38.589 13.0044 38.6659 13.338 38.6659 14.1335V21.139H40.6658V13.2354C40.6658 12.5425 40.5889 11.8497 40.1787 11.3364C39.8197 10.8745 39.2556 10.5923 38.5377 10.5923C37.6403 10.5923 36.6916 11.1312 36.1788 11.747ZM11.7178 7.25632C12.8972 7.25632 13.8459 6.30686 13.8459 5.12644C13.8459 3.94603 12.8972 2.99657 11.7178 2.99657C10.5383 2.99657 9.5896 3.94603 9.5896 5.12644C9.5896 6.30686 10.5383 7.25632 11.7178 7.25632ZM21.5381 21.1647V13.2354C21.5381 12.5425 21.4611 11.8497 21.0509 11.3364C20.6919 10.8745 20.1278 10.5923 19.4099 10.5923C18.4868 10.5923 17.5381 11.1312 17.0253 11.747C16.9997 11.2081 16.8202 10.6949 16.7689 10.5153L14.9228 11.0285C15.0254 11.5931 15.1792 12.2859 15.1792 13.5433V21.1647H17.1792V13.4663C17.6663 12.8761 18.2304 12.5425 18.6407 12.5425C18.8971 12.5425 19.1535 12.5938 19.3073 12.7991C19.4612 13.0301 19.5381 13.3637 19.5381 14.1592V21.1647H21.5381ZM30.743 6.69177C29.9994 6.69177 29.4097 7.28198 29.4097 8.02615C29.4097 8.77033 29.9994 9.36053 30.7173 9.36053C31.4609 9.36053 32.0506 8.77033 32.0506 8.02615C32.0506 7.28198 31.4609 6.69177 30.743 6.69177ZM10.7691 21.1647H12.769V8.66768L10.7691 8.92429V21.1647ZM27.102 7.92351C27.461 7.92351 27.82 8.05181 28.0507 8.23144L28.6148 6.66611C28.0764 6.2812 27.4866 6.10157 26.7431 6.10157C26.2303 6.10157 25.6918 6.22987 25.2046 6.61479C24.7175 7.02537 24.2047 7.84653 24.2047 9.38619C24.2047 10.0534 24.2303 10.7462 24.2303 10.7462H23.538V12.5169H24.2303V21.139H26.2815V12.5425H27.7943L28.1789 10.7719H26.3072V9.18091C26.3072 8.41107 26.6149 7.92351 27.102 7.92351ZM29.7174 21.1647H31.743V10.5923L29.7174 10.8489V21.1647Z" fill="#005DA9"/>
<path d="M61.6653 26.8101C54.8962 28.8117 46.6656 29.6842 38.6145 29.6842C18.1791 29.6842 4.99989 23.6795 4.07683 15.7502C3.74351 12.7735 6.07679 9.87375 9.97414 7.41028C9.28185 6.89706 8.84596 6.0759 8.82032 5.1521C3.17942 8.12879 0 12.0293 0 15.9811C0 24.7316 15.615 32.122 38.8197 31.814C46.8964 31.7114 53.6399 30.5567 59.7423 28.5551C66.9985 26.1943 71.5625 22.807 72.6651 21.3186C71.3574 22.499 68.2549 24.8599 61.6653 26.8101ZM18.615 3.50978C19.9739 3.04788 21.897 2.45768 21.897 2.45768C27.3071 0.96933 33.2813 0.09685 38.8453 0.148172C32.4352 -0.236745 26.5892 0.148172 21.4867 1.07197C21.4867 1.07197 19.7944 1.35425 17.974 1.81615C17.974 1.81615 17.1022 2.0471 16.5637 2.20107C16.0253 2.35503 15.2817 2.56032 15.2817 2.56032C14.7689 2.71429 14.2561 2.89392 13.7433 3.07355C14.2561 3.58677 14.5638 4.25396 14.5894 5.02379C15.4868 4.61321 17.2048 3.99735 18.615 3.50978Z" fill="#E30034"/>
</svg>
