<svg xmlns="http://www.w3.org/2000/svg" width="24" height="24" fill="none"><path d="M2.96 3.062a2.885 2.885 0 0 0-1.128.577c-.3.268-.593.713-.714 1.083l-.098.298v15l.111.3c.265.72.826 1.282 1.549 1.549l.3.111h19.04l.3-.111a2.604 2.604 0 0 0 1.549-1.549l.111-.3V4.98l-.111-.3a2.537 2.537 0 0 0-1.249-1.403c-.598-.296.152-.276-10.14-.273-7.767.002-9.302.011-9.52.058m18.99.993c.049.019.09.049.09.066 0 .05-9.485 8.659-9.54 8.659-.057 0-9.54-8.61-9.54-8.662 0-.019.067-.046.15-.059.082-.014.168-.032.19-.039.09-.031 18.567.004 18.65.035M7.316 9.46c2.993 2.723 4.971 4.494 5.042 4.515.282.085.111.23 5.422-4.599l5.04-4.583.08.173c.079.172.08.259.08 7.534v7.36l-.112.24a1.698 1.698 0 0 1-.764.767l-.244.113H3.14l-.244-.113a1.698 1.698 0 0 1-.764-.767l-.112-.24v-7.34c0-7.024.003-7.348.073-7.53l.074-.19.112.09c.062.049 2.328 2.106 5.037 4.57" fill-rule="evenodd" fill="#000"/></svg>