<svg xmlns="http://www.w3.org/2000/svg" width="16" height="16" fill="none"><path d="M1.096 1.055a1.56 1.56 0 0 0-1.02.965l-.063.18v11.6l.063.18c.16.465.536.818 1.032.971.152.047.435.049 6.892.049h6.733l.187-.059a1.545 1.545 0 0 0 1.004-.961l.063-.18V2.2l-.063-.18a1.546 1.546 0 0 0-1.032-.966c-.139-.036-.927-.04-6.904-.039-5.805.002-6.768.007-6.892.04m13.591.986a.426.426 0 0 1 .249.231c.049.096.051.257.051 5.728s-.002 5.632-.051 5.728a.426.426 0 0 1-.249.231c-.088.037-.818.041-6.693.04-6.383 0-6.598-.002-6.704-.05a.571.571 0 0 1-.186-.151l-.077-.101V2.303l.077-.101a.571.571 0 0 1 .186-.151c.106-.048.321-.05 6.704-.05 5.875-.001 6.605.003 6.693.04M2.333 4.032a.526.526 0 0 0-.332.467c.001.25-.109.15 2.896 2.611 1.538 1.258 2.838 2.31 2.889 2.336.118.061.31.061.428 0 .051-.026 1.351-1.078 2.889-2.336 3.005-2.461 2.895-2.361 2.896-2.611.002-.347-.385-.599-.696-.452-.054.026-1.263 1-2.687 2.166S8.014 8.333 8 8.333c-.014 0-1.192-.954-2.616-2.12-1.424-1.166-2.633-2.14-2.687-2.166a.491.491 0 0 0-.364-.015" fill-rule="evenodd" fill="#000"/></svg>