<svg xmlns="http://www.w3.org/2000/svg" width="12" height="12" fill="none"><path d="M1.249 1.021A1.523 1.523 0 0 0 .057 2.08l-.047.15v7.54l.047.15c.154.493.53.869 1.023 1.023l.15.047h9.54l.15-.047c.493-.154.869-.53 1.023-1.023l.047-.15V2.23l-.047-.15a1.543 1.543 0 0 0-1.013-1.019l-.16-.051-4.71-.003c-2.591-.001-4.755.005-4.811.014m9.406 1.009a.508.508 0 0 1 .315.315c.026.09.03.533.03 3.655 0 2.953-.005 3.569-.027 3.645a.513.513 0 0 1-.231.291l-.092.054h-9.3l-.092-.054a.623.623 0 0 1-.146-.125C.993 9.655 1 9.897 1 6.011c0-3.132.004-3.576.03-3.666a.515.515 0 0 1 .306-.313c.081-.025.744-.029 4.655-.031 4.028-.001 4.574.003 4.664.029m-8.311.998a.5.5 0 0 0-.279.228c-.046.078-.055.117-.055.234 0 .265-.116.15 1.901 1.879.993.852 1.836 1.565 1.873 1.584a.64.64 0 0 0 .432 0c.037-.019.88-.732 1.873-1.584C10.106 3.64 9.99 3.755 9.99 3.49c0-.118-.009-.155-.056-.236a.594.594 0 0 0-.136-.153c-.15-.109-.386-.128-.53-.043A98.73 98.73 0 0 0 7.602 4.47L6 5.843 4.398 4.47a92.062 92.062 0 0 0-1.67-1.414.567.567 0 0 0-.384-.028" fill-rule="evenodd" fill="#000"/></svg>