<svg xmlns="http://www.w3.org/2000/svg" width="16" height="16" fill="none" viewBox="0 0 16 16">
  <path fill="#1D1D1D" fill-rule="evenodd" d="M8 8a2 2 0 1 0 0-4 2 2 0 0 0 0 4Zm0 1a3 3 0 1 0 0-6 3 3 0 0 0 0 6Z" clip-rule="evenodd"/>
  <path fill="#1D1D1D" fill-rule="evenodd" d="M10.22 12.25C11.69 10.412 13 8.142 13 6A5 5 0 0 0 3 6c0 2.142 1.31 4.412 2.78 6.25A23.933 23.933 0 0 0 8 14.654c.075-.07.155-.148.24-.23a23.929 23.929 0 0 0 1.98-2.174ZM8 16s6-5 6-10A6 6 0 0 0 2 6c0 5 6 10 6 10Z" clip-rule="evenodd"/>
</svg>
