<svg xmlns="http://www.w3.org/2000/svg" width="24" height="24" fill="none"><path d="M12 1.023c-1.828.147-3.362.711-4.74 1.742-2.652 1.983-3.865 5.532-2.956 8.652.705 2.423 2.815 5.745 5.932 9.343 1.035 1.194 1.881 2.094 2.052 2.184.258.134.419.061.853-.39 1.702-1.771 3.783-4.335 5.045-6.214 1.828-2.724 2.723-4.846 2.8-6.64a8.374 8.374 0 0 0-1.92-5.688c-1.287-1.534-3.274-2.619-5.326-2.91-.413-.059-1.423-.104-1.74-.079m1.14 1.019c2.752.238 5.157 1.902 6.212 4.299.585 1.33.785 2.92.526 4.19-.497 2.436-2.704 5.978-6.207 9.958a45.84 45.84 0 0 1-.864.956l-.31.326-.423-.455c-2.54-2.736-4.806-5.824-5.949-8.107-1.08-2.156-1.324-3.515-.96-5.348.464-2.335 2.057-4.271 4.295-5.22a7.575 7.575 0 0 1 3.68-.599M11.873 6.06a3.536 3.536 0 0 0-1.915 1.045c-.399.422-.644.852-.825 1.443-.095.315-.107.415-.107.952 0 .537.012.637.107.952.592 1.941 2.541 2.977 4.455 2.369 1.016-.323 1.909-1.215 2.232-2.23.123-.386.179-.731.179-1.091a3.53 3.53 0 0 0-2.621-3.382c-.419-.109-1.098-.135-1.505-.058m1.147 1a2.502 2.502 0 0 1 1.695 1.302c.372.756.375 1.516.008 2.258a2.53 2.53 0 0 1-1.403 1.248c-.268.097-.355.108-.82.108-.465 0-.552-.011-.82-.108a2.53 2.53 0 0 1-1.403-1.248c-.93-1.88.695-3.989 2.743-3.56" fill-rule="evenodd" fill="#000"/></svg>