<svg xmlns="http://www.w3.org/2000/svg" width="16" height="16" fill="none"><path d="M7.56.016c-.876.091-1.5.26-2.187.596a5.917 5.917 0 0 0-2.747 2.735c-.737 1.486-.819 3.117-.247 4.893.372 1.156.882 2.174 1.715 3.427a24.5 24.5 0 0 0 3.094 3.74c.756.756.835.766 1.442.185a31.42 31.42 0 0 0 1.434-1.523c1.18-1.353 2.222-2.857 2.855-4.12.677-1.351 1.03-2.586 1.073-3.749A5.984 5.984 0 0 0 10.627.613 5.814 5.814 0 0 0 8.88.067C8.608.026 7.775-.006 7.56.016m1.157 1.039a5.013 5.013 0 0 1 4.228 4.228c.048.325.055.987.014 1.344-.22 1.932-1.533 4.366-3.676 6.813a41.03 41.03 0 0 1-1.161 1.252L8 14.811l-.122-.119a41.03 41.03 0 0 1-1.161-1.252C4.573 10.992 3.26 8.559 3.041 6.627a6.756 6.756 0 0 1 .014-1.344 4.957 4.957 0 0 1 1.416-2.812 5 5 0 0 1 2.876-1.428c.279-.04 1.062-.033 1.37.012M7.518 3.039c-.974.177-1.778.774-2.203 1.634A2.863 2.863 0 0 0 5.008 6c0 1.474 1.041 2.701 2.512 2.961.239.042.772.037 1.016-.011a3.012 3.012 0 0 0 2.414-2.414c.048-.244.053-.777.011-1.016a3.082 3.082 0 0 0-.691-1.474 3.055 3.055 0 0 0-1.498-.941c-.215-.06-.317-.072-.692-.079-.242-.005-.495 0-.562.013m1.056 1.047a2.032 2.032 0 0 1 1.343 1.34c.055.182.065.268.065.574 0 .306-.01.392-.065.574a2.05 2.05 0 0 1-1.357 1.35c-.289.09-.831.09-1.12 0a2.05 2.05 0 0 1-1.357-1.35c-.055-.182-.065-.268-.065-.574 0-.306.01-.392.065-.574a2.028 2.028 0 0 1 1.583-1.399c.222-.04.667-.011.908.059" fill-rule="evenodd" fill="#000"/></svg>