<svg xmlns="http://www.w3.org/2000/svg" width="24" height="24" fill="none"><path d="M2.236 1.091c-.16.108-.235.241-.235.418-.001.092.713 1.558 2.461 5.056l2.463 4.925-.096.105c-.182.198-.574.745-.778 1.085a8.077 8.077 0 0 0-.938 2.506c-.13.684-.13 1.944 0 2.628a7.567 7.567 0 0 0 6.073 6.073c.684.13 1.944.13 2.628 0 2.442-.461 4.488-2.052 5.502-4.279.254-.559.46-1.205.571-1.794.13-.684.13-1.944 0-2.628a8.077 8.077 0 0 0-.938-2.506c-.204-.34-.596-.887-.778-1.085l-.096-.105 2.463-4.925C22.171 3.296 23 1.598 23 1.517a.537.537 0 0 0-.252-.439C22.624 1.003 22.524 1 19.496 1h-3.124l-.136.09c-.119.079-.363.543-1.936 3.679l-1.8 3.59-1.8-3.59c-1.573-3.136-1.817-3.6-1.936-3.679L8.628 1H2.372l-.136.091m7.697 4.415c1.334 2.669 1.74 3.514 1.7 3.539a.358.358 0 0 1-.159.034 4.465 4.465 0 0 0-.497.082 7.769 7.769 0 0 0-3.024 1.385 1.927 1.927 0 0 1-.25.174c-.013 0-1.004-1.962-2.203-4.36L3.32 2h4.86l1.753 3.506m9.567.854c-1.199 2.398-2.19 4.36-2.203 4.36-.013 0-.125-.079-.25-.174a7.769 7.769 0 0 0-3.024-1.385 4.465 4.465 0 0 0-.497-.082.358.358 0 0 1-.159-.034c-.04-.025.366-.87 1.7-3.539L16.82 2h4.86L19.5 6.36m-6.4 3.682a6.023 6.023 0 0 1 2.08.549c2.497 1.137 4.011 3.704 3.784 6.414-.071.849-.224 1.447-.555 2.175-.897 1.971-2.652 3.326-4.829 3.73-.495.092-1.665.092-2.16 0-1.897-.352-3.458-1.411-4.46-3.026-1.113-1.794-1.255-4.095-.375-6.056a6.474 6.474 0 0 1 6.515-3.786M11.895 14.1c-.319.649-.601 1.18-.627 1.18-.085 0-2.523.362-2.537.376-.008.008.409.426.927.929l.941.915-.22 1.26c-.12.693-.215 1.279-.209 1.302.005.024.532-.232 1.17-.567l1.159-.61.661.347 1.16.609c.275.144.505.244.51.221.006-.023-.089-.609-.209-1.302l-.22-1.26.941-.915c.518-.503.935-.922.927-.929a94.456 94.456 0 0 0-2.545-.376c-.022 0-.3-.531-.619-1.18-.319-.649-.591-1.18-.605-1.18-.014 0-.286.531-.605 1.18" fill-rule="evenodd" fill="#000"/></svg>