<svg xmlns="http://www.w3.org/2000/svg" width="16" height="16" fill="none"><path d="M3.293.051C3.143.122.098 3.175.041 3.312a.447.447 0 0 0 .01.383c.027.06.8 1.269 1.718 2.686l1.669 2.577-.064.145c-.272.614-.416 1.515-.36 2.249a4.926 4.926 0 0 0 1.465 3.182 4.985 4.985 0 0 0 2.788 1.417c.279.045 1.187.045 1.466 0a4.985 4.985 0 0 0 2.788-1.417 4.959 4.959 0 0 0 1.25-5.024 5.002 5.002 0 0 0-.145-.408l-.064-.144 1.669-2.577a161.66 161.66 0 0 0 1.719-2.686.45.45 0 0 0 .009-.383c-.057-.137-3.102-3.19-3.252-3.261-.103-.048-.264-.05-4.707-.05s-4.604.002-4.707.05m8.262.999-.635 1-.613.963H5.693L5.08 2.05l-.635-1c-.018-.031.521-.037 3.555-.037 3.034 0 3.573.006 3.555.037m-6.59 2.679a179.646 179.646 0 0 1 1.546 2.454c.006.021-.071.063-.204.112-.86.317-1.722.943-2.244 1.63l-.055.072-1.434-2.215L1.14 3.567l1.13-1.13a61 61 0 0 1 1.143-1.129c.008.001.706 1.09 1.552 2.421m8.765-1.292 1.13 1.13-1.434 2.215-1.434 2.215-.055-.072c-.527-.69-1.384-1.313-2.244-1.63-.137-.05-.21-.091-.204-.113.011-.045 3.08-4.872 3.098-4.874a61 61 0 0 1 1.143 1.129M9.555 4.193l-.615.967c-.271.425-.507.789-.526.809-.025.027-.131.036-.414.036s-.389-.009-.414-.036a18.92 18.92 0 0 1-.432-.662l-.616-.967L6.321 4H9.68l-.125.193M8.6 7.051a4.017 4.017 0 0 1 2.904 2.026c.464.842.605 1.917.377 2.862a3.991 3.991 0 0 1-6.208 2.309 4.87 4.87 0 0 1-.878-.861 4.022 4.022 0 0 1-.112-4.617c.589-.894 1.607-1.544 2.69-1.717.29-.046.934-.047 1.227-.002" fill-rule="evenodd" fill="#000"/></svg>