<svg xmlns="http://www.w3.org/2000/svg" width="16" height="16" fill="none"><path d="M7.8.05a.611.611 0 0 0-.165.113C7.545.262.066 12.242.031 12.344a.496.496 0 0 0 .356.64c.151.041 15.021.041 15.214 0 .17-.036.3-.147.361-.305.098-.258.366.197-3.77-6.419C10.109 2.927 8.376.174 8.342.141A.49.49 0 0 0 7.8.05m3.501 6.677 3.287 5.26-3.294.006c-1.812.004-4.776.004-6.588 0l-3.294-.006 3.287-5.26A866.377 866.377 0 0 1 8 1.467c.007 0 1.493 2.367 3.301 5.26M.28 15.055a.445.445 0 0 0-.23.238.5.5 0 0 0-.013.395.66.66 0 0 0 .291.284c.053.019 2.381.028 7.675.028 6.403 0 7.612-.006 7.685-.037a.66.66 0 0 0 .284-.291.507.507 0 0 0-.013-.359.426.426 0 0 0-.231-.249c-.097-.049-.295-.051-7.734-.051-6.871.001-7.642.005-7.714.042" fill-rule="evenodd" fill="#000"/></svg>