<svg xmlns="http://www.w3.org/2000/svg" width="12" height="12" fill="none"><path d="M1.347.029a.513.513 0 0 0-.283.229L1.01.35l-.005 5.609c-.006 6.296-.02 5.727.144 5.891a.489.489 0 0 0 .505.122c.075-.026 9.023-5.482 9.161-5.585a.608.608 0 0 0 .12-.143c.112-.191.059-.487-.112-.621-.149-.117-9.096-5.57-9.181-5.596a.446.446 0 0 0-.295.002m4.493 3.71C7.859 4.972 9.51 5.99 9.51 6.001c0 .015-7.478 4.599-7.503 4.599C2.003 10.6 2 8.529 2 5.998V1.396l.085.05L5.84 3.739" fill-rule="evenodd" fill="#000"/></svg>