<svg xmlns="http://www.w3.org/2000/svg" width="16" height="16" fill="none"><path d="M2.36.023a.576.576 0 0 0-.281.211l-.066.095v15.342l.065.093a.483.483 0 0 0 .648.172c.077-.039 2.841-1.759 6.141-3.823 5.671-3.548 6.003-3.759 6.063-3.868.134-.246.06-.514-.189-.678A3489.81 3489.81 0 0 0 2.722.061.487.487 0 0 0 2.36.023m6.093 4.79c2.765 1.727 5.042 3.152 5.06 3.167.025.019-1.405.926-5.213 3.306l-5.267 3.291c-.011.007-.02-2.952-.02-6.576V1.413l.207.129 5.233 3.271" fill-rule="evenodd" fill="#000"/></svg>