<svg xmlns="http://www.w3.org/2000/svg" width="12" height="12" fill="none"><path d="M1.347.029a.513.513 0 0 0-.283.229L1.01.35l-.005 5.607c-.004 3.707.002 5.633.015 5.682.029.11.125.231.234.295l.096.056h3.3l.096-.056a.535.535 0 0 0 .234-.295c.013-.049.019-1.975.015-5.682L4.99.35 4.936.258a.513.513 0 0 0-.291-.231c-.13-.039-3.173-.038-3.298.002m6 0a.513.513 0 0 0-.283.229L7.01.35l-.005 5.607c-.004 3.707.002 5.633.015 5.682.029.11.125.231.234.295l.096.056h3.3l.096-.056a.535.535 0 0 0 .234-.295c.013-.049.019-1.975.015-5.682L10.99.35l-.054-.092a.513.513 0 0 0-.291-.231c-.13-.039-3.173-.038-3.298.002M4 6v5H2V1h2v5m6 0v5H8V1h2v5" fill-rule="evenodd" fill="#000"/></svg>