<svg xmlns="http://www.w3.org/2000/svg" width="24" height="24" fill="none"><path d="m11.28 1.023-.56.06c-1.504.16-3.076.698-4.417 1.512-1.409.855-2.748 2.174-3.642 3.585a13.936 13.936 0 0 0-.96 1.953c-1.055 2.861-.915 5.91.396 8.647.546 1.138 1.179 2.021 2.141 2.982.961.962 1.844 1.595 2.982 2.141 3.747 1.796 8.068 1.367 11.417-1.133.609-.454 1.679-1.524 2.133-2.133 2.973-3.984 2.975-9.289.004-13.27-.458-.612-1.525-1.679-2.134-2.132-1.595-1.186-3.275-1.875-5.217-2.139C13 1.038 11.574.99 11.28 1.023m1.58 1.02c1.948.17 3.756.885 5.34 2.111.437.339 1.307 1.209 1.646 1.646 1.8 2.326 2.505 5.195 1.976 8.046-.669 3.606-3.307 6.581-6.822 7.692-1.84.582-3.881.611-5.719.082a9.748 9.748 0 0 1-4.341-2.559c-1.75-1.753-2.732-3.916-2.91-6.411a10.112 10.112 0 0 1 1.033-5.137c.821-1.63 2.21-3.132 3.757-4.062a9.98 9.98 0 0 1 6.04-1.408" fill-rule="evenodd" fill="#000"/></svg>