<svg xmlns="http://www.w3.org/2000/svg" width="12" height="12" fill="none"><path d="m5.62.012-.29.03a6.008 6.008 0 0 0-2.898 1.137C.832 2.38-.056 4.215.007 6.19a5.989 5.989 0 0 0 4.575 5.638 5.998 5.998 0 0 0 7.247-4.412c.128-.527.159-.794.159-1.416 0-.622-.031-.889-.159-1.416A5.998 5.998 0 0 0 6.75.048 9.96 9.96 0 0 0 5.62.012m.81 1.009A4.942 4.942 0 0 1 9.521 2.46c.29.289.456.492.664.81a4.988 4.988 0 0 1-.035 5.51 4.996 4.996 0 0 1-6.76 1.485A5.21 5.21 0 0 1 1.726 8.59a4.996 4.996 0 0 1 0-5.18A5.172 5.172 0 0 1 3.41 1.726a4.991 4.991 0 0 1 3.02-.705" fill-rule="evenodd" fill="#000"/></svg>