<svg xmlns="http://www.w3.org/2000/svg" width="24" height="24" fill="none"><path d="M5.252 2.078C4.978 2.245 5 1.386 5 12.008c0 9.463.002 9.614.078 9.74a.537.537 0 0 0 .431.252c.063 0 .246-.079.412-.179.165-.099 3.602-2.272 7.639-4.83 7.332-4.646 7.34-4.651 7.399-4.821.051-.15.051-.19 0-.339-.059-.167-.093-.19-7.559-4.921a1643.396 1643.396 0 0 0-7.648-4.831c-.188-.1-.337-.1-.5-.001M12.8 7.716c3.685 2.335 6.705 4.26 6.711 4.279.007.018-3.031 1.961-6.75 4.316L6 20.593v-8.581c0-6.848.01-8.577.05-8.56.028.011 3.065 1.93 6.75 4.264" fill-rule="evenodd" fill="#000"/></svg>