<svg xmlns="http://www.w3.org/2000/svg" width="24" height="24" fill="none"><path d="M2.252 2.078C1.978 2.245 2 1.386 2 12.008c0 9.463.002 9.614.078 9.74.161.264-.004.252 3.422.252s3.261.012 3.422-.252c.076-.126.078-.277.078-9.74 0-10.622.022-9.763-.252-9.93C8.624 2.003 8.524 2 5.5 2s-3.124.003-3.248.078m13 0c-.274.167-.252-.692-.252 9.93 0 9.463.002 9.614.078 9.74.161.264-.004.252 3.422.252s3.261.012 3.422-.252c.076-.126.078-.277.078-9.74 0-10.622.022-9.763-.252-9.93C21.624 2.003 21.524 2 18.5 2s-3.124.003-3.248.078M8 12v9H3V3h5v9m13 0v9h-5V3h5v9" fill-rule="evenodd" fill="#000"/></svg>