<svg xmlns="http://www.w3.org/2000/svg" width="12" height="12" fill="none"><path d="M5.835.034a.58.58 0 0 0-.165.094C5.597.193.076 9.206.027 9.34a.508.508 0 0 0 .303.627c.09.03.534.033 5.679.032 6.037-.001 5.652.006 5.801-.107a.507.507 0 0 0 .165-.535C11.927 9.216 6.412.201 6.328.126a.489.489 0 0 0-.493-.092M8.31 5.24l2.292 3.75-2.301.005c-1.266.003-3.336.003-4.602 0L1.398 8.99l2.295-3.755c1.262-2.066 2.302-3.753 2.31-3.75A451.18 451.18 0 0 1 8.31 5.24M.347 11.029a.513.513 0 0 0-.283.229c-.046.078-.054.115-.054.242 0 .128.008.164.055.244a.516.516 0 0 0 .27.227c.112.04 11.218.04 11.33 0a.516.516 0 0 0 .27-.227c.047-.08.055-.116.055-.244 0-.127-.008-.164-.054-.242a.513.513 0 0 0-.291-.231c-.132-.039-11.171-.038-11.298.002" fill-rule="evenodd" fill="#000"/></svg>