<svg xmlns="http://www.w3.org/2000/svg" width="24" height="24" fill="none"><path d="M11.77 2.066c-.108.053-.899 1.279-4.858 7.529-2.6 4.106-4.769 7.537-4.819 7.625-.113.196-.117.36-.015.528.167.274-.691.252 9.922.252 10.613 0 9.755.022 9.922-.252.102-.168.098-.332-.015-.528-.05-.088-2.219-3.52-4.82-7.626-4.093-6.462-4.747-7.474-4.864-7.53a.453.453 0 0 0-.453.002m4.514 8.134a1630.68 1630.68 0 0 1 4.264 6.75c.017.04-1.708.05-8.544.05-4.71 0-8.564-.01-8.564-.023 0-.056 8.538-13.498 8.567-13.488.018.006 1.942 3.026 4.277 6.711M1.252 21.078a.478.478 0 0 0-.174.67c.168.274-.798.252 10.93.252 10.455 0 10.614-.001 10.74-.078a.485.485 0 0 0 0-.844C22.622 21.001 22.463 21 12 21s-10.622.001-10.748.078" fill-rule="evenodd" fill="#000"/></svg>