<svg xmlns="http://www.w3.org/2000/svg" width="12" height="12" fill="none"><path d="M.96.031a1.155 1.155 0 0 0-.59.337 1.098 1.098 0 0 0-.33.564C.001 1.084 0 1.172 0 6c0 4.828.001 4.916.04 5.068.058.23.145.379.329.563.184.184.333.271.563.329.152.039.24.04 5.068.04 4.828 0 4.916-.001 5.068-.04.23-.058.379-.145.563-.329.184-.184.271-.333.329-.563.039-.152.04-.24.04-5.068 0-4.828-.001-4.916-.04-5.068a1.116 1.116 0 0 0-.329-.564A1.141 1.141 0 0 0 11.03.03C10.825-.013 1.16-.012.96.031m9.919 1.002c.031.018.07.057.088.088.03.051.033.449.033 4.879s-.003 4.828-.033 4.879a.284.284 0 0 1-.088.088c-.051.03-.449.033-4.879.033s-4.828-.003-4.879-.033a.284.284 0 0 1-.088-.088C1.003 10.828 1 10.43 1 6c0-4.414.003-4.828.032-4.879a.32.32 0 0 1 .085-.087c.049-.03.453-.033 4.88-.033 4.433-.001 4.831.002 4.882.032" fill-rule="evenodd" fill="#000"/></svg>