<svg xmlns="http://www.w3.org/2000/svg" width="16" height="16" fill="none"><path d="M1.292.05a.48.48 0 0 0-.276.351c-.041.191-.041 15.007 0 15.198.035.163.13.285.276.351.102.046.228.049 2.209.049 1.702.001 2.117-.006 2.187-.035.117-.049.279-.235.298-.342.009-.049.012-3.511.008-7.693L5.987.324 5.932.25a1.202 1.202 0 0 0-.156-.155L5.675.013 3.538.007C1.507.001 1.395.003 1.292.05M10.36.023a.576.576 0 0 0-.281.211l-.066.095-.007 7.602c-.004 4.181-.001 7.642.008 7.691.019.107.181.293.298.342.07.029.485.036 2.187.035 1.981 0 2.107-.003 2.209-.049a.479.479 0 0 0 .276-.351c.041-.191.041-15.007 0-15.198a.479.479 0 0 0-.276-.351c-.102-.046-.225-.049-2.201-.047-1.152.001-2.118.01-2.147.02m-5.373 7.99v7H2v-14h2.987v7m9.013 0v7h-2.987v-14H14v7" fill-rule="evenodd" fill="#000"/></svg>