<svg xmlns="http://www.w3.org/2000/svg" width="16" height="16" fill="none"><path d="M7.815 3.03C-.369 5.215.154 5.063.051 5.29c-.048.105-.05.228-.05 2.704-.001 2.834-.008 2.699.151 2.865.039.04.125.091.192.113.134.043 14.856 3.97 15.041 4.011a.56.56 0 0 0 .446-.106.65.65 0 0 0 .119-.17c.047-.103.049-.347.049-6.701.001-5.875-.003-6.605-.04-6.693-.083-.198-.246-.301-.471-.297-.096.002-2.536.642-7.673 2.014m7.172 4.973v5.843l-.06-.015-6.987-1.863-6.927-1.847V8l.001-2.12 6.953-1.857a2650.78 2650.78 0 0 1 6.986-1.86c.027-.002.034 1.182.034 5.84M2.28 13.055a.445.445 0 0 0-.23.238c-.045.098-.049.197-.049 1.205-.001.711.009 1.125.027 1.174a.66.66 0 0 0 .284.291c.072.031.608.037 3.187.036 2.951 0 3.106-.003 3.209-.049a.479.479 0 0 0 .276-.351c.038-.176.038-1.023 0-1.2-.094-.436-.651-.536-.907-.162-.057.083-.065.125-.072.434l-.009.342H3.017l-.009-.82c-.006-.632-.016-.835-.045-.886a.726.726 0 0 0-.248-.256.638.638 0 0 0-.435.004" fill-rule="evenodd" fill="#000"/></svg>