<svg xmlns="http://www.w3.org/2000/svg" width="24" height="24" fill="none"><path d="M8.859 5.517c-4.136 1.38-7.561 2.532-7.612 2.559a.566.566 0 0 0-.169.177C1.003 8.376 1 8.481 1 11.5c0 3.024.003 3.124.078 3.248.103.168.159.193 1.112.51l.81.269v2.046c0 1.96.004 2.052.078 2.175.043.07.129.154.19.185.149.076 7.127 2.067 7.244 2.067.143 0 .324-.111.41-.252.074-.122.078-.213.078-1.838 0-.94.005-1.71.01-1.71.006 0 1.225.405 2.71.9 1.485.495 2.741.9 2.792.9.143 0 .324-.111.41-.252.076-.126.078-.265.078-8.248s-.002-8.122-.078-8.248a.525.525 0 0 0-.43-.249c-.062.002-3.496 1.133-7.633 2.514M16 11.504c0 5.827-.01 7.301-.05 7.286l-7-2.334L2 14.14V8.86l6.97-2.327c3.834-1.28 6.984-2.328 7-2.33.017-.002.03 3.284.03 7.301m4.88-5.428c-.994.585-1.08.66-1.08.939 0 .176.14.368.321.441.136.054.181.056.311.011.18-.062 1.788-1 1.918-1.119.321-.293.096-.83-.345-.827-.164.002-.289.063-1.125.555m.372 5.002a.478.478 0 0 0-.174.67c.148.243.201.252 1.422.252 1.221 0 1.274-.009 1.422-.252a.488.488 0 0 0-.198-.686c-.1-.052-.306-.062-1.232-.062-1.032 0-1.121.006-1.24.078m-1.203 4.491c-.152.074-.262.293-.238.475a.708.708 0 0 0 .081.248c.032.048.485.338 1.007.643.79.464.974.556 1.107.556.195 0 .348-.103.446-.301.06-.119.065-.173.031-.3a.588.588 0 0 0-.133-.238c-.049-.045-.494-.318-.988-.607-.764-.447-.922-.525-1.06-.522a.743.743 0 0 0-.253.046M7.03 16.87l2.97.99v1.49c0 .819-.005 1.489-.01 1.489-.005-.001-1.351-.385-2.99-.855l-2.98-.853-.01-1.625c-.006-.894.003-1.626.019-1.626.017 0 1.367.445 3.001.99" fill-rule="evenodd" fill="#000"/></svg>