<svg width="16" height="16" fill="none" xmlns="http://www.w3.org/2000/svg"><path d="M1.671.028A2.034 2.034 0 0 0 .075 1.452l-.062.215v12.666l.062.215a2.053 2.053 0 0 0 1.377 1.377l.215.062h12.666l.215-.062a2.053 2.053 0 0 0 1.371-1.351l.068-.214.007-4.96c.007-4.556.004-4.97-.037-5.08-.037-.102-.358-.435-2.087-2.166C12.289.572 11.799.097 11.707.055c-.119-.053-.159-.054-5.014-.051-2.691.001-4.951.012-5.022.024m11.47 2.833 1.873 1.874-.007 4.732L15 14.2l-.07.166a1.015 1.015 0 0 1-.564.564L14.2 15H1.8l-.166-.07a1.135 1.135 0 0 1-.253-.146 1.052 1.052 0 0 1-.311-.418L1 14.2.993 8.133c-.004-3.643.003-6.138.018-6.246.063-.456.402-.81.839-.874.075-.011 2.225-.021 4.777-.023l4.64-.003 1.874 1.874M3.29 2.049a.605.605 0 0 0-.186.153l-.077.101v3.394l.077.102a.584.584 0 0 0 .191.151c.111.049.221.051 3.243.044l3.129-.007.086-.062a.884.884 0 0 0 .16-.158l.074-.096V2.329l-.074-.096c-.106-.14-.214-.207-.361-.224a.497.497 0 0 0-.448.192l-.077.101-.014 1.349L9 5l-2.499.007-2.499.007-.008-1.343-.007-1.342-.074-.096c-.111-.146-.216-.209-.373-.223a.445.445 0 0 0-.25.039m.003 7.001c-.095.042-.246.206-.267.29a88.174 88.174 0 0 0-.007 2.209l.008 2.149.077.101c.213.279.605.257.821-.046l.062-.086.007-1.834L4.001 10H12v1.77c0 .973.008 1.81.018 1.859a.511.511 0 0 0 .143.215c.102.101.149.129.252.144a.48.48 0 0 0 .521-.256c.051-.1.053-.166.053-2.239 0-1.786-.006-2.147-.038-2.208a.593.593 0 0 0-.264-.243c-.121-.046-9.287-.037-9.392.008" fill-rule="evenodd" fill="#000"/></svg>