<svg xmlns="http://www.w3.org/2000/svg" width="16" height="16" fill="none"><path d="M.36 2.023c-.492.161-.464.853.039.961.194.042 15.008.042 15.202 0a.495.495 0 0 0 .392-.547c-.015-.138-.069-.222-.217-.342l-.101-.082-7.631-.004C3.847 2.007.389 2.013.36 2.023m0 6c-.492.161-.464.853.039.961.194.042 15.008.042 15.202 0a.495.495 0 0 0 .392-.547c-.015-.138-.069-.222-.217-.342l-.101-.082-7.631-.004C3.847 8.007.389 8.013.36 8.023m0 6c-.492.161-.464.853.039.961.194.042 15.008.042 15.202 0a.495.495 0 0 0 .392-.547c-.015-.138-.069-.222-.217-.342l-.101-.082-7.631-.004c-4.197-.002-7.655.004-7.684.014" fill-rule="evenodd" fill="#000"/></svg>