<svg xmlns="http://www.w3.org/2000/svg" width="16" height="16" fill="none"><path d="M.28 3.055a.445.445 0 0 0-.23.238.5.5 0 0 0-.013.395.66.66 0 0 0 .291.284C.381 3.991 2.709 4 8.003 4c6.403 0 7.612-.006 7.685-.037a.66.66 0 0 0 .284-.291.507.507 0 0 0-.013-.359.426.426 0 0 0-.231-.249c-.097-.049-.295-.051-7.734-.051-6.871.001-7.642.005-7.714.042m4.08 4.968c-.492.161-.464.853.039.961.194.041 11.008.041 11.202 0a.495.495 0 0 0 .392-.547c-.015-.138-.069-.222-.217-.342l-.101-.082-5.631-.004c-3.097-.002-5.655.004-5.684.014M.28 13.055a.445.445 0 0 0-.23.238.5.5 0 0 0-.013.395.66.66 0 0 0 .291.284c.053.019 2.381.028 7.675.028 6.403 0 7.612-.006 7.685-.037a.66.66 0 0 0 .284-.291.507.507 0 0 0-.013-.359.426.426 0 0 0-.231-.249c-.097-.049-.295-.051-7.734-.051-6.871.001-7.642.005-7.714.042" fill-rule="evenodd" fill="#000"/></svg>