<svg xmlns="http://www.w3.org/2000/svg" width="12" height="12" fill="none"><path d="M.347 1.029a.513.513 0 0 0-.283.229C.018 1.336.01 1.373.01 1.5c0 .128.008.164.055.244a.516.516 0 0 0 .27.227c.112.04 11.218.04 11.33 0a.516.516 0 0 0 .27-.227c.047-.08.055-.116.055-.244 0-.127-.008-.164-.054-.242a.513.513 0 0 0-.291-.231C11.513.988.474.989.347 1.029m0 4.5a.513.513 0 0 0-.283.229C.018 5.836.01 5.873.01 6c0 .128.008.164.055.244a.516.516 0 0 0 .27.227c.112.04 11.218.04 11.33 0a.516.516 0 0 0 .27-.227c.047-.08.055-.116.055-.244 0-.127-.008-.164-.054-.242a.513.513 0 0 0-.291-.231C11.513 5.488.474 5.489.347 5.529m0 4.5a.513.513 0 0 0-.283.229c-.046.078-.054.115-.054.242 0 .128.008.164.055.244a.516.516 0 0 0 .27.227c.112.04 11.218.04 11.33 0a.516.516 0 0 0 .27-.227c.047-.08.055-.116.055-.244 0-.127-.008-.164-.054-.242a.513.513 0 0 0-.291-.231c-.132-.039-11.171-.038-11.298.002" fill-rule="evenodd" fill="#000"/></svg>