<svg xmlns="http://www.w3.org/2000/svg" width="24" height="24" fill="none"><path d="M1.252 5.078a.478.478 0 0 0-.174.67C1.246 6.022.227 6 12.508 6c10.95 0 11.114-.001 11.24-.078a.485.485 0 0 0 0-.844C23.622 5.001 23.459 5 12.5 5s-11.122.001-11.248.078m6 7a.478.478 0 0 0-.174.67c.167.273-.533.252 8.43.252 7.975 0 8.114-.002 8.24-.078a.485.485 0 0 0 0-.844c-.126-.076-.265-.078-8.248-.078s-8.122.002-8.248.078m-6 7a.478.478 0 0 0-.174.67c.168.274-.851.252 11.43.252 10.95 0 11.114-.001 11.24-.078a.485.485 0 0 0 0-.844C23.622 19.001 23.459 19 12.5 19s-11.122.001-11.248.078" fill-rule="evenodd" fill="#000"/></svg>