<svg xmlns="http://www.w3.org/2000/svg" width="24" height="24" fill="none"><path d="M.772 5.065a.46.46 0 0 0-.265.435c0 .2.095.353.271.437C.899 5.994 1.959 6 12 6s11.101-.006 11.222-.063c.178-.085.265-.228.265-.437s-.087-.352-.265-.437c-.121-.057-1.181-.063-11.228-.062C1.969 5.002.888 5.008.772 5.065m0 7a.46.46 0 0 0-.265.435c0 .2.095.353.271.437C.899 12.994 1.959 13 12 13s11.101-.006 11.222-.063c.178-.085.265-.228.265-.437s-.087-.352-.265-.437c-.121-.057-1.181-.063-11.228-.062-10.025.001-11.106.007-11.222.064m0 7a.46.46 0 0 0-.265.435c0 .2.095.353.271.437C.899 19.994 1.959 20 12 20s11.101-.006 11.222-.063c.178-.085.265-.228.265-.437s-.087-.352-.265-.437c-.121-.057-1.181-.063-11.228-.062-10.025.001-11.106.007-11.222.064" fill-rule="evenodd" fill="#000"/></svg>