<svg xmlns="http://www.w3.org/2000/svg" width="24" height="24" fill="none"><path d="M11.86 1.044C9.397 1.299 7.419 3.218 7.059 5.7c-.084.58-.084 5.02 0 5.6.334 2.306 2.011 4.089 4.313 4.588.587.127 1.669.127 2.256 0 2.18-.472 3.776-2.068 4.262-4.26.089-.402.09-.45.09-3.128s-.001-2.726-.09-3.128c-.212-.957-.644-1.827-1.243-2.505-1.2-1.357-2.93-2.016-4.787-1.823m1.56 1.057c.914.188 1.607.56 2.262 1.216.658.659 1.021 1.336 1.225 2.283.066.309.073.571.073 2.9 0 2.762-.003 2.816-.226 3.478a4.45 4.45 0 0 1-3.517 2.961c-2.188.354-4.297-.897-4.991-2.962-.222-.661-.226-.716-.226-3.477 0-2.329.007-2.591.073-2.9.418-1.942 1.858-3.286 3.812-3.557.37-.052 1.123-.023 1.515.058M3.252 10.078c-.231.141-.267.27-.24.861.06 1.333.37 2.541.966 3.761a8.89 8.89 0 0 0 1.799 2.523A8.853 8.853 0 0 0 8.3 19.021c1.159.563 1.957.781 3.53.964l.17.02V23H9.69c-2.221 0-2.315.003-2.438.078a.478.478 0 0 0-.174.67c.165.27-.215.252 5.43.252 5 0 5.115-.002 5.24-.078a.485.485 0 0 0 0-.844c-.123-.075-.217-.078-2.438-.078H13v-2.995l.17-.02c1.573-.183 2.371-.401 3.53-.964a9.277 9.277 0 0 0 4.321-4.319c.602-1.242.907-2.428.967-3.763.02-.442.013-.54-.044-.652a.488.488 0 0 0-.692-.209c-.172.105-.252.274-.252.53 0 .117-.019.419-.042.672-.268 2.931-2.015 5.508-4.618 6.81-2.963 1.482-6.585 1.116-9.14-.924-.35-.28-.997-.921-1.287-1.275a8.658 8.658 0 0 1-1.731-3.662A10.369 10.369 0 0 1 4 10.6c-.001-.471-.388-.741-.748-.522" fill-rule="evenodd" fill="#000"/></svg>