<svg xmlns="http://www.w3.org/2000/svg" width="24" height="24" viewBox="0 0 24 24"><path fill="currentColor" fill-rule="evenodd" d="M3.5 2a1.5 1.5 0 1 0 0 3 1.5 1.5 0 0 0 0-3ZM6 3.5a2.5 2.5 0 0 1-2 2.45v3.343l2.418 2.417.353.354-.707.707-.354-.353-2.564-2.564L3 9.707V5.95A2.5 2.5 0 1 1 6 3.5Zm5 0a1.5 1.5 0 1 1 3 0 1.5 1.5 0 0 1-3 0Zm2 2.45a2.5 2.5 0 1 0-1 0V10h1V5.95ZM13 13v2.035a3.483 3.483 0 0 1 1.596.662l1.086-1.087.354-.353.707.707-.353.354-1.087 1.086c.343.458.577 1.003.662 1.596H18v1h-2.035a3.483 3.483 0 0 1-.662 1.596l1.087 1.086.353.354-.707.707-.354-.353-1.086-1.087a3.483 3.483 0 0 1-1.596.662V24h-1v-2.035a3.483 3.483 0 0 1-1.596-.662L9.318 22.39l-.354.353-.707-.707.354-.354 1.086-1.086A3.482 3.482 0 0 1 9.035 19H7v-1h2.035a3.483 3.483 0 0 1 .662-1.596L8.61 15.318l-.354-.354.707-.707.354.353 1.086 1.087A3.483 3.483 0 0 1 12 15.035V13h1Zm-2.304 3.769.073-.073A2.492 2.492 0 0 1 12.5 16a2.49 2.49 0 0 1 1.737.702l.061.061A2.49 2.49 0 0 1 15 18.5c0 .674-.267 1.286-.7 1.735l-.065.064c-.45.434-1.06.701-1.735.701a2.492 2.492 0 0 1-1.73-.695l-.075-.075A2.492 2.492 0 0 1 10 18.5c0-.672.265-1.282.696-1.731ZM20 3.5a1.5 1.5 0 1 1 3 0 1.5 1.5 0 0 1-3 0Zm2 2.45a2.5 2.5 0 1 0-1 0v3.343l-2.418 2.417-.353.354.707.707.354-.353 2.564-2.564.146-.147V5.95Z" clip-rule="evenodd"/></svg>