<svg xmlns="http://www.w3.org/2000/svg" width="24" height="24" fill="none"><path d="M3.06 1.04a2.532 2.532 0 0 0-1.981 1.864c-.322 1.26.429 2.592 1.68 2.979l.221.068.01 1.874.011 1.875 1.529 1.53 1.529 1.529.351-.349.351-.349L5.38 10.68 3.999 9.299l.011-1.674.01-1.674.221-.068a2.523 2.523 0 0 0 1.68-1.787c.321-1.255-.434-2.592-1.681-2.979-.297-.092-.884-.13-1.18-.077m9.08-.015c-1.454.226-2.421 1.665-2.061 3.071a2.516 2.516 0 0 0 1.68 1.787l.221.068.01 2.024.011 2.025h.998l.011-2.025.01-2.024.221-.068a2.523 2.523 0 0 0 1.68-1.787c.327-1.277-.441-2.61-1.721-2.993-.223-.066-.84-.112-1.06-.078m9 0c-1.454.226-2.421 1.665-2.061 3.071a2.516 2.516 0 0 0 1.68 1.787l.221.068.01 1.674.011 1.674-1.381 1.381-1.381 1.381.351.349.351.349 1.529-1.529 1.529-1.53.011-1.875.01-1.874.221-.068a2.516 2.516 0 0 0 1.68-1.787c.327-1.277-.441-2.61-1.721-2.993-.223-.066-.84-.112-1.06-.078M4.11 2.139c.305.139.615.45.756.757.096.209.112.295.112.604.001.31-.015.393-.111.6a1.687 1.687 0 0 1-.763.767c-.21.098-.293.113-.604.113-.31 0-.393-.015-.6-.112a1.682 1.682 0 0 1-.766-.764c-.096-.209-.112-.295-.112-.604-.001-.31.015-.393.111-.6a1.618 1.618 0 0 1 1.017-.859c.257-.065.702-.019.96.098m9 0c.305.139.615.45.756.757.096.209.112.295.112.604.001.31-.015.393-.111.6a1.687 1.687 0 0 1-.763.767c-.21.098-.293.113-.604.113-.31 0-.393-.015-.6-.112a1.682 1.682 0 0 1-.766-.764c-.096-.209-.112-.295-.112-.604-.001-.31.015-.393.111-.6a1.618 1.618 0 0 1 1.017-.859c.257-.065.702-.019.96.098m9 0c.305.139.615.45.756.757.096.209.112.295.112.604.001.31-.015.393-.111.6a1.687 1.687 0 0 1-.763.767c-.21.098-.293.113-.604.113-.31 0-.393-.015-.6-.112a1.682 1.682 0 0 1-.766-.764c-.096-.209-.112-.295-.112-.604-.001-.31.015-.393.111-.6a1.618 1.618 0 0 1 1.017-.859c.257-.065.702-.019.96.098M12 14.017v1.016l-.21.045a3.429 3.429 0 0 0-1.05.406l-.353.203-.713-.713-.714-.713-.35.349-.349.35.716.717.716.716-.124.194c-.197.307-.36.686-.458 1.063l-.09.35H7v1h2.021l.09.35c.098.377.261.756.458 1.063l.124.194-.716.716-.716.717.349.35.35.349.717-.716.716-.716.194.124c.307.197.686.36 1.063.458l.35.09V24h1v-2.021l.35-.09a3.786 3.786 0 0 0 1.063-.458l.194-.124.716.716.717.716.35-.349.349-.35-.716-.717-.716-.716.124-.194c.197-.307.36-.686.458-1.063l.09-.35H18v-1h-2.021l-.09-.35a3.786 3.786 0 0 0-.458-1.063l-.124-.194.716-.716.716-.717-.349-.35-.35-.349-.714.713-.713.713-.353-.203a3.429 3.429 0 0 0-1.05-.406l-.21-.045V13h-1v1.017m1.24 2.099a2.584 2.584 0 0 1 1.651 1.664c.125.395.125 1.045 0 1.44-.401 1.269-1.723 2.024-2.98 1.703a2.495 2.495 0 0 1-1.675-1.379c-.667-1.426.179-3.132 1.729-3.485.34-.077.934-.051 1.275.057" fill="currentColor" fill-rule="evenodd"/></svg>