<svg xmlns="http://www.w3.org/2000/svg" width="16" height="16" fill="none" viewBox="0 0 16 16"><path fill="currentColor" fill-rule="evenodd" d="M6.5 2.5a1.5 1.5 0 1 1 3 0 1.5 1.5 0 0 1-3 0Zm2 2.45a2.5 2.5 0 1 0-1 0V16h1V4.95ZM1 6.5a1.5 1.5 0 1 1 3 0 1.5 1.5 0 0 1-3 0Zm4 0a2.5 2.5 0 0 1-2 2.45v2.282l2.777 1.852.416.277-.554.832-.416-.277-3-2A.5.5 0 0 1 2 11.5V8.95A2.5 2.5 0 1 1 5 6.5Zm7 0a1.5 1.5 0 1 1 3 0 1.5 1.5 0 0 1-3 0Zm4 0a2.5 2.5 0 0 1-2 2.45v2.55a.5.5 0 0 1-.223.416l-3 2-.416.277-.554-.832.416-.277L13 11.232V8.95a2.5 2.5 0 1 1 3-2.45Z" clip-rule="evenodd"/></svg>