<svg xmlns="http://www.w3.org/2000/svg" width="16" height="16" fill="none"><path d="M7.648.027a2.513 2.513 0 0 0-1.475.776 2.506 2.506 0 0 0-.603 1.106c-.084.312-.084.844-.001 1.171.136.535.492 1.087.901 1.396.236.179.592.358.833.42l.19.049V16h1.014V4.945l.19-.049c.104-.027.293-.101.42-.165a2.395 2.395 0 0 0 1.109-1.118c.206-.418.267-.681.263-1.133a2.167 2.167 0 0 0-.203-.984A2.536 2.536 0 0 0 8.613.08c-.259-.062-.74-.089-.965-.053m.738 1.027c.245.064.463.194.67.399.293.289.438.638.437 1.048a1.483 1.483 0 0 1-.831 1.335c-.467.223-.857.223-1.324 0-.604-.289-.941-.984-.802-1.655.106-.51.559-.989 1.067-1.126.192-.051.587-.052.783-.001M2.073 4.042A2.502 2.502 0 0 0 .139 7.319c.255.745.84 1.31 1.621 1.563l.227.074L2 10.311c.009.964.022 1.371.044 1.409a.957.957 0 0 0 .12.137c.142.133 3.467 2.336 3.489 2.312.019-.021.476-.707.517-.775.013-.022-.492-.373-1.569-1.091l-1.588-1.058V8.942l.14-.032c.362-.081.793-.332 1.107-.644.77-.766.956-1.915.467-2.893a2.507 2.507 0 0 0-2.654-1.331m11.06-.014a2.576 2.576 0 0 0-1.601.934 2.469 2.469 0 0 0-.523 1.558c.001.672.252 1.27.731 1.746.314.312.745.563 1.107.644l.14.032v2.303l-1.588 1.058c-1.077.718-1.582 1.069-1.569 1.091.041.068.498.754.517.775.022.024 3.347-2.179 3.489-2.312a.957.957 0 0 0 .12-.137c.022-.038.035-.445.044-1.409l.013-1.355.228-.073a2.299 2.299 0 0 0 1.015-.615c.335-.332.54-.695.681-1.201.072-.261.065-.898-.013-1.187a2.612 2.612 0 0 0-.645-1.128 2.532 2.532 0 0 0-1.172-.672 3.058 3.058 0 0 0-.974-.052M2.88 5.053c.691.184 1.175.865 1.11 1.563-.045.482-.285.88-.691 1.146-.834.545-1.987.093-2.246-.882-.05-.19-.05-.561 0-.755a1.546 1.546 0 0 1 1.057-1.07c.187-.05.585-.051.77-.002m10.999.001c.507.132.935.562 1.068 1.071.05.194.05.565 0 .755-.068.255-.2.48-.4.68-.312.312-.7.459-1.134.431a1.49 1.49 0 0 1-1.246-2.16 1.53 1.53 0 0 1 .941-.777 2 2 0 0 1 .771 0" fill="currentColor" fill-rule="evenodd"/></svg>