<svg xmlns="http://www.w3.org/2000/svg" width="16" height="16" fill="none"><path d="M8.187.016C7.052.114 6.097.55 5.323 1.323c-.743.744-1.175 1.648-1.297 2.718-.046.409-.019 2.947.035 3.212.156.766.413 1.368.816 1.907a4.502 4.502 0 0 0 2.95 1.787c.319.051.949.057 1.267.013a4.511 4.511 0 0 0 3.77-3.382c.127-.509.136-.651.136-2.098-.001-1.453-.012-1.613-.15-2.12C12.38 1.627 10.974.348 9.229.066a6.691 6.691 0 0 0-1.042-.05M9.32 1.103a3.49 3.49 0 0 1 2.223 1.681c.239.418.377.853.429 1.35.036.337.035 2.414 0 2.74a3.492 3.492 0 0 1-.842 1.928 3.477 3.477 0 0 1-2.77 1.189 3.138 3.138 0 0 1-.987-.183c-1.105-.375-1.95-1.288-2.262-2.445l-.084-.31v-1.52c0-1.371.004-1.542.048-1.745A3.535 3.535 0 0 1 7.24 1.241c.489-.186.749-.228 1.347-.216.393.008.508.02.733.078M1.293 6.049c-.263.126-.313.281-.278.867.013.227.037.5.052.608a7.67 7.67 0 0 0 1.567 3.649 9.377 9.377 0 0 0 1.346 1.31 7.505 7.505 0 0 0 2.703 1.291c.359.093 1.001.199 1.204.199H8v.812c0 .507.011.84.028.887a.66.66 0 0 0 .284.291c.185.08.438.015.573-.145.11-.13.128-.289.128-1.099v-.746h.11a7.149 7.149 0 0 0 2.704-.76 7.359 7.359 0 0 0 3.386-3.386c.49-.995.731-1.923.778-2.992.02-.475.002-.549-.168-.7a.477.477 0 0 0-.679.021c-.114.115-.157.274-.157.58 0 .795-.257 1.813-.666 2.637a6.47 6.47 0 0 1-2.254 2.56 7.144 7.144 0 0 1-2.174.917c-.905.192-1.924.193-2.771.004a6.521 6.521 0 0 1-4.666-3.967c-.271-.681-.405-1.331-.452-2.187-.022-.417-.034-.448-.222-.6a.489.489 0 0 0-.489-.051" fill-rule="evenodd" fill="#000"/></svg>