<svg xmlns="http://www.w3.org/2000/svg" width="24" height="24" fill="none"><path d="M10.96 1.062a2.893 2.893 0 0 0-1.125.574c-.293.262-.57.672-.706 1.045l-.109.299-.011 5.31c-.012 5.874-.029 5.466.243 5.632.07.043.186.078.257.078.088 0 .744-.309 2.1-.99l1.971-.99L17.8 12l4.22-.02.3-.111a2.604 2.604 0 0 0 1.549-1.549l.111-.3V2.98l-.111-.3a2.537 2.537 0 0 0-1.249-1.403c-.585-.289-.283-.276-6.14-.273-4.344.002-5.305.012-5.52.058m11.14 1.07c.315.147.624.455.767.764l.113.244v6.72l-.113.244a1.698 1.698 0 0 1-.767.764l-.24.112-4.26.02-4.26.02-1.65.83a87.12 87.12 0 0 1-1.671.83c-.011 0-.016-2.146-.01-4.77l.011-4.77.112-.24c.198-.424.623-.775 1.042-.859.091-.018 2.533-.03 5.426-.027l5.26.006.24.112m-18.14.93a2.885 2.885 0 0 0-1.128.577c-.3.268-.593.713-.714 1.083l-.098.298v17l.111.3c.265.72.826 1.282 1.549 1.549l.3.111h12.04l.3-.111a2.604 2.604 0 0 0 1.549-1.549l.111-.3.011-3.81c.013-4.214.027-3.967-.243-4.132A.572.572 0 0 0 17.5 14a.584.584 0 0 0-.427.248c-.042.073-.057.849-.073 3.852l-.02 3.76-.112.24a1.698 1.698 0 0 1-.764.767l-.244.113H4.14l-.244-.113a1.698 1.698 0 0 1-.764-.767l-.112-.24V5.14l.112-.24c.147-.315.455-.624.764-.767l.244-.113L5.4 4c1.368-.022 1.383-.024 1.522-.253a.477.477 0 0 0-.174-.669c-.12-.073-.205-.078-1.328-.075-.866.003-1.272.019-1.46.059" fill-rule="evenodd" fill="#000"/></svg>