<svg xmlns="http://www.w3.org/2000/svg" width="16" height="16" fill="none"><path d="M7.157.04a1.547 1.547 0 0 0-.983.763c-.182.345-.173.13-.174 4.151 0 3.979-.01 3.736.154 3.907.087.091.29.155.425.133.072-.012.515-.293 1.572-.997l1.473-.981 2.568-.009c2.565-.008 2.568-.008 2.741-.066a1.57 1.57 0 0 0 .982-.931l.072-.183.007-2.246c.007-1.952.002-2.269-.034-2.423a1.53 1.53 0 0 0-1.13-1.12c-.254-.053-7.425-.052-7.673.002m-5.05 1.012a1.552 1.552 0 0 0-1.048 1.014L1 2.253v6.24c0 5.978.002 6.247.049 6.399.15.487.478.844.941 1.023l.183.072 4.247.007c3.742.006 4.269.002 4.424-.034a1.553 1.553 0 0 0 1.115-1.109c.058-.244.062-6.403.004-6.54a.583.583 0 0 0-.382-.3.494.494 0 0 0-.564.384c-.022.1-.03 1.017-.03 3.195 0 2.205-.009 3.07-.03 3.112a.74.74 0 0 1-.25.254c-.074.04-.414.045-4.12.051-2.863.005-4.082-.001-4.182-.022a.482.482 0 0 1-.364-.3c-.038-.101-.042-.694-.035-6.234l.007-6.122.074-.096a.884.884 0 0 1 .16-.158l.086-.062L3.493 2c1.261-.014 1.236-.011 1.384-.17.063-.067.143-.308.124-.371a2.71 2.71 0 0 1-.026-.105c-.019-.089-.156-.25-.258-.302-.102-.053-2.423-.053-2.61 0m12.595-.009c.086.044.204.16.247.242.032.061.038.422.038 2.208 0 2.043-.003 2.14-.051 2.235a.426.426 0 0 1-.249.231C14.6 5.995 14.269 6 12 6c-2.131 0-2.604.006-2.676.037-.048.02-.584.368-1.192.773l-1.105.737-.008-3.074c-.004-1.69-.001-3.099.007-3.131.019-.077.139-.218.24-.279.078-.048.222-.049 3.729-.05 2.645 0 3.665.009 3.707.03" fill-rule="evenodd" fill="#000"/></svg>