<svg xmlns="http://www.w3.org/2000/svg" width="16" height="16" fill="currentColor" viewBox="0 0 16 16">
  <path fill-rule="evenodd" d="M7.5 1a.5.5 0 0 0-.5.5v6.066L9.349 6H14.5a.5.5 0 0 0 .5-.5v-4a.5.5 0 0 0-.5-.5h-7ZM6.44.44A1.5 1.5 0 0 1 7.5 0h7A1.5 1.5 0 0 1 16 1.5v4A1.5 1.5 0 0 1 14.5 7H9.651L6 9.434V1.5c0-.398.158-.78.44-1.06ZM2.5 2a.5.5 0 0 0-.5.5v12a.5.5 0 0 0 .5.5h8a.5.5 0 0 0 .5-.5V8h1v6.5a1.5 1.5 0 0 1-1.5 1.5h-8A1.5 1.5 0 0 1 1 14.5v-12A1.5 1.5 0 0 1 2.5 1H5v1H2.5Z" clip-rule="evenodd"/>
</svg>
