<svg xmlns="http://www.w3.org/2000/svg" width="24" height="24" fill="none"><path d="M5.252 1.078C5.005 1.229 5 1.259 5 2.698V4H3.446c-1.688 0-1.788.011-2.064.221-.08.061-.195.194-.254.295L1.02 4.7v18.6l.111.189c.125.213.318.375.539.454.223.08 18.437.08 18.66 0 .221-.079.414-.241.539-.454l.111-.189.012-1.65.011-1.65h1.309c1.227 0 1.316-.005 1.436-.078a.478.478 0 0 0 .174-.67c-.151-.247-.181-.252-1.62-.252H21v-6h1.31c1.229 0 1.318-.005 1.438-.078a.485.485 0 0 0 0-.844c-.12-.073-.209-.078-1.434-.078h-1.305l-.021-1.15c-.022-1.215-.051-1.466-.249-2.15a6.497 6.497 0 0 0-3.559-4.109C16.182 4.137 15.408 4 13.83 4H13V2.69c0-1.229-.005-1.318-.078-1.438a.478.478 0 0 0-.67-.174c-.247.151-.252.181-.252 1.62V4H6V2.69c0-1.229-.005-1.318-.078-1.438a.478.478 0 0 0-.67-.174m10.267 4.016a5.561 5.561 0 0 1 4.387 4.387c.064.312.07.869.083 6.929l.013 6.59H2V4.998l6.59.013c6.06.013 6.617.019 6.929.083M6.252 9.078C5.983 9.242 6 8.917 6 14c0 5.083-.017 4.758.252 4.922.125.076.236.078 4.74.078 5.092 0 4.766.017 4.93-.252.076-.125.078-.236.078-4.748 0-4.512-.002-4.623-.078-4.748-.164-.269.162-.252-4.93-.252-4.504 0-4.615.002-4.74.078M15 14v4H7v-8h8v4" fill-rule="evenodd" fill="#000"/></svg>