<svg xmlns="http://www.w3.org/2000/svg" width="16" height="16" fill="none"><path d="M4.36.023a.576.576 0 0 0-.281.211l-.066.095-.007.836L3.998 2l-1.032.001c-.734 0-1.08.01-1.195.034-.309.065-.579.303-.709.625L1 2.813V14.2l.07.166c.111.265.299.453.564.564L1.8 15h11.387l.153-.062c.279-.113.501-.332.603-.597.038-.098.045-.269.051-1.228L14.002 12h.8c.881 0 .905-.004 1.056-.163a.46.46 0 0 0 .101-.524.426.426 0 0 0-.231-.249c-.091-.046-.167-.051-.914-.051H14V8h.798c.498 0 .827-.011.874-.028a.66.66 0 0 0 .291-.284.492.492 0 0 0-.004-.375.426.426 0 0 0-.231-.249c-.091-.046-.167-.051-.912-.051h-.813l-.009-1.46c-.009-1.424-.011-1.465-.07-1.673a3.287 3.287 0 0 0-.387-.827 2.64 2.64 0 0 0-1.435-.978c-.212-.055-.285-.058-1.655-.068l-1.434-.01v-.731c0-.43-.012-.786-.029-.867-.094-.436-.651-.536-.907-.162-.063.092-.064.097-.071.928L7.998 2H5.013v-.732c0-.796-.019-.956-.128-1.086A.524.524 0 0 0 4.36.023m7.53 3.029c.079.021.211.071.293.111.201.097.557.453.654.654.158.326.149.007.149 5.31L12.987 14H2V3.013l4.873.001c4.139 0 4.895.006 5.017.038M4.633 5.078c-.276.114-.508.357-.587.614-.025.083-.033.743-.033 2.828v2.72l.075.16c.098.21.303.416.509.511l.163.076h2.72c2.085 0 2.745-.008 2.828-.033.261-.08.514-.326.63-.614l.062-.153.008-2.556c.004-1.519-.003-2.631-.018-2.74a1.004 1.004 0 0 0-.558-.787l-.152-.077-2.747-.007-2.746-.006-.154.064M10 8.507v2.506H5.013V6H10v2.507" fill-rule="evenodd" fill="#000"/></svg>