<svg xmlns="http://www.w3.org/2000/svg" width="16" height="16" fill="none"><path d="M4.306.05A.492.492 0 0 0 4.4.984c.191.041 7.009.041 7.2 0a.492.492 0 0 0 .094-.934C11.592.004 11.412.001 8 .001S4.408.004 4.306.05m-2 2a.492.492 0 0 0 .094.934c.192.041 11.008.041 11.2 0a.492.492 0 0 0 .094-.934c-.103-.047-.347-.049-5.694-.049-5.347 0-5.591.002-5.694.049M1.182 4.04a1.515 1.515 0 0 0-1.107.995l-.062.178v9.574l.062.178c.154.446.514.806.96.96l.178.062h13.574l.178-.062c.446-.154.806-.514.96-.96l.062-.178V5.213l-.062-.178a1.573 1.573 0 0 0-.963-.962l-.175-.06-6.72-.004c-5.555-.004-6.749.001-6.885.031m13.503 1.002a.534.534 0 0 1 .265.257c.054.127.055 9.273.001 9.402a.625.625 0 0 1-.305.279c-.095.026-13.197.026-13.292 0a.673.673 0 0 1-.302-.263c-.057-.111-.058-9.322-.001-9.432a.743.743 0 0 1 .242-.241c.075-.041 13.284-.043 13.392-.002M7.76 6.717v.451l-.14.032c-.423.097-.841.413-1.007.76-.152.319-.2.728-.12 1.033.13.499.444.796 1.447 1.367.677.384.894.581.983.888.099.34.002.761-.23.992-.211.211-.544.295-.954.24a1.837 1.837 0 0 1-.998-.429l-.161-.129-.169.219a2.14 2.14 0 0 0-.17.237c-.001.009.077.089.173.177.282.258.7.448 1.136.517l.21.033V14h.533v-.906l.074-.016c.296-.065.615-.217.811-.386.442-.378.638-1.134.444-1.716a1.384 1.384 0 0 0-.4-.591c-.222-.208-.435-.348-1.007-.665-.518-.287-.731-.438-.868-.619-.121-.158-.155-.292-.141-.554.014-.262.072-.386.259-.554.179-.161.321-.206.644-.206.403 0 .703.116.972.375l.107.104.2-.201.199-.202-.204-.194a1.964 1.964 0 0 0-.89-.478l-.186-.035-.008-.445-.007-.444H7.76v.45" fill="currentColor" fill-rule="evenodd"/></svg>