<svg xmlns="http://www.w3.org/2000/svg" width="16" height="16" fill="none" viewBox="0 0 16 16"><path fill="currentColor" fill-rule="evenodd" d="M4.5 0a.5.5 0 0 0 0 1h7a.5.5 0 0 0 0-1h-7ZM2 2.5a.5.5 0 0 1 .5-.5h11a.5.5 0 0 1 0 1h-11a.5.5 0 0 1-.5-.5Zm-1 3a.5.5 0 0 1 .5-.5h13a.5.5 0 0 1 .5.5v9a.5.5 0 0 1-.5.5h-13a.5.5 0 0 1-.5-.5v-9ZM1.5 4A1.5 1.5 0 0 0 0 5.5v9A1.5 1.5 0 0 0 1.5 16h13a1.5 1.5 0 0 0 1.5-1.5v-9A1.5 1.5 0 0 0 14.5 4h-13Zm6.261 9.1a2.58 2.58 0 0 1-.774-.181 2.067 2.067 0 0 1-.756-.54l.351-.459c.186.174.393.315.621.423.234.102.49.153.765.153.33 0 .58-.09.747-.27.168-.18.252-.417.252-.711 0-.21-.06-.39-.18-.54a1.705 1.705 0 0 0-.468-.396 9.677 9.677 0 0 0-.612-.351 6.885 6.885 0 0 1-.603-.387 1.797 1.797 0 0 1-.468-.486 1.236 1.236 0 0 1-.18-.684c0-.3.066-.564.198-.792.138-.228.327-.405.567-.531a1.64 1.64 0 0 1 .54-.176v-.904h.54v.893c.248.023.464.086.648.187.246.132.456.303.63.513l-.396.405a1.403 1.403 0 0 0-.477-.369 1.439 1.439 0 0 0-.63-.126c-.27 0-.486.081-.648.243-.162.156-.243.363-.243.621 0 .192.06.357.18.495s.276.264.468.378c.192.108.393.219.603.333.216.114.42.243.612.387.192.138.348.306.468.504.12.198.18.441.18.729 0 .33-.072.618-.216.864a1.507 1.507 0 0 1-.603.576 1.74 1.74 0 0 1-.576.184v.905h-.54v-.89Z" clip-rule="evenodd"/></svg>