<svg xmlns="http://www.w3.org/2000/svg" width="24" height="24" fill="none"><path d="M8 1.5V2h9V1H8v.5m-4 3V5h17V4H4v.5m-3 11V24h23V7H1v8.5m22 0V23H2V8h21v7.5m-10.92-5.469v.751l-.282.073c-.703.181-1.336.678-1.618 1.271-.157.331-.26.794-.26 1.171 0 .335.132.832.291 1.097.3.5.959 1.019 2.089 1.646.994.552 1.453.915 1.655 1.309.131.258.184.669.128.996-.165.958-.848 1.408-1.961 1.293-.367-.038-.798-.155-1.062-.288-.232-.117-.674-.418-.782-.532-.05-.054-.106-.098-.122-.098-.017 0-.157.163-.312.363-.248.321-.275.372-.232.444.094.156.634.553.999.732.35.173 1.037.38 1.264.382.198.001.202.017.214.781l.011.718.45.011.45.012v-1.517l.23-.047a2.852 2.852 0 0 0 1.469-.848c.23-.261.473-.758.557-1.139.09-.404.083-.966-.017-1.355-.207-.808-.774-1.342-2.339-2.2-1.024-.561-1.39-.84-1.602-1.223-.11-.199-.118-.243-.118-.634 0-.378.011-.442.111-.646.225-.457.657-.718 1.235-.747.687-.033 1.261.16 1.71.576l.239.221.313-.326c.171-.179.317-.34.323-.356.02-.052-.475-.486-.771-.678-.33-.213-.636-.345-.94-.404-.453-.089-.4.02-.4-.821V9.28h-.92v.751" fill-rule="evenodd" fill="#000"/></svg>