<svg xmlns="http://www.w3.org/2000/svg" width="16" height="16" fill="currentColor">
  <path fill-rule="evenodd" d="M0 3.5h14v11H0v-11Zm1 1v9h12v-9H1Z" clip-rule="evenodd"/>
  <path d="M6.9 12.022a2.64 2.64 0 0 1-.981-.189 2.265 2.265 0 0 1-.819-.549l.477-.639c.204.18.414.315.63.405.222.084.453.126.693.126.294 0 .513-.072.657-.216.144-.144.216-.336.216-.576a.652.652 0 0 0-.18-.468 1.808 1.808 0 0 0-.459-.351 13.274 13.274 0 0 0-.594-.324 5.409 5.409 0 0 1-.585-.378 1.855 1.855 0 0 1-.459-.486 1.286 1.286 0 0 1-.171-.684c0-.324.072-.606.216-.846.144-.246.345-.435.603-.567.264-.132.57-.198.918-.198.366 0 .678.069.936.207.264.132.492.309.684.531l-.531.567a1.525 1.525 0 0 0-.477-.342 1.376 1.376 0 0 0-.585-.117c-.234 0-.42.063-.558.189-.138.126-.207.303-.207.531 0 .162.057.303.171.423.12.12.273.231.459.333l.594.306c.21.108.408.231.594.369.186.138.336.306.45.504.12.192.18.429.18.711 0 .342-.075.642-.225.9a1.536 1.536 0 0 1-.639.612c-.276.144-.612.216-1.008.216Zm-.243.882v-1.287h.72v1.287h-.72Zm0-6.48V5.2h.72v1.224h-.72Z"/>
  <path fill-rule="evenodd" d="M2 1.5h14V13h-1V2.5H2v-1Z" clip-rule="evenodd"/>
</svg>
