<svg xmlns="http://www.w3.org/2000/svg" width="24" height="24" viewBox="0 0 24 24"><path stroke="currentColor" stroke-linecap="square" stroke-miterlimit="10" d="M23.5 7.5h-22v16h22v-16Z"/><path fill="currentColor" d="M12.447 20.68c-.57 0-1.115-.105-1.635-.315-.51-.22-.93-.52-1.26-.9l.585-.765c.31.29.655.525 1.035.705.39.17.815.255 1.275.255.55 0 .965-.15 1.245-.45.28-.3.42-.695.42-1.185 0-.35-.1-.65-.3-.9-.2-.25-.46-.47-.78-.66-.32-.2-.66-.395-1.02-.585-.35-.2-.685-.415-1.005-.645-.32-.23-.58-.5-.78-.81-.2-.31-.3-.69-.3-1.14 0-.5.11-.94.33-1.32.23-.38.545-.675.945-.885.41-.22.88-.33 1.41-.33.58 0 1.07.11 1.47.33.41.22.76.505 1.05.855l-.66.675a2.339 2.339 0 0 0-.795-.615c-.29-.14-.64-.21-1.05-.21-.45 0-.81.135-1.08.405-.27.26-.405.605-.405 1.035 0 .32.1.595.3.825.2.23.46.44.78.63.32.18.655.365 1.005.555.36.19.7.405 1.02.645.32.23.58.51.78.84.2.33.3.735.3 1.215 0 .55-.12 1.03-.36 1.44-.24.41-.575.73-1.005.96-.43.23-.935.345-1.515.345Zm-.345 1.47v-1.905h.9v1.905h-.9Zm0-10.935V9.28h.9v1.935h-.9Z"/><path stroke="currentColor" stroke-linecap="square" stroke-miterlimit="10" d="M4.5 4.5h16m-12-3h8"/></svg>