<svg xmlns="http://www.w3.org/2000/svg" width="12" height="12" fill="none"><path d="M1.252 4.52a1.597 1.597 0 0 0-.901.52 1.491 1.491 0 0 0-.234 1.535c.144.354.454.664.808.808a1.489 1.489 0 0 0 1.632-.326 1.49 1.49 0 0 0 .066-2.047 1.715 1.715 0 0 0-.745-.462 2.195 2.195 0 0 0-.626-.028m4.5 0a1.597 1.597 0 0 0-.901.52 1.491 1.491 0 0 0-.234 1.535c.144.354.454.664.808.808a1.489 1.489 0 0 0 1.632-.326 1.49 1.49 0 0 0 .066-2.047 1.715 1.715 0 0 0-.745-.462 2.195 2.195 0 0 0-.626-.028m4.5 0a1.597 1.597 0 0 0-.901.52 1.491 1.491 0 0 0-.234 1.535c.144.354.454.664.808.808a1.489 1.489 0 0 0 1.632-.326 1.49 1.49 0 0 0 .066-2.047 1.715 1.715 0 0 0-.745-.462 2.195 2.195 0 0 0-.626-.028" fill="currentColor" fill-rule="evenodd"/></svg>