<svg xmlns="http://www.w3.org/2000/svg" width="24" height="24" fill="none"><path d="M3.58 10.047c-.344.066-.697.263-.984.549-.796.797-.796 2.011 0 2.808.797.796 2.011.796 2.808 0 .796-.797.796-2.011 0-2.808-.491-.49-1.127-.682-1.824-.549m8 0C10.707 10.214 10 11.087 10 12c0 .92.69 1.768 1.592 1.956C12.816 14.211 14 13.249 14 12c0-.523-.21-1.017-.596-1.404-.491-.49-1.127-.682-1.824-.549m8 0C18.707 10.214 18 11.087 18 12c0 .92.69 1.768 1.592 1.956C20.816 14.211 22 13.249 22 12c0-.523-.21-1.017-.596-1.404-.491-.49-1.127-.682-1.824-.549" fill="currentColor" fill-rule="evenodd"/></svg>