<svg xmlns="http://www.w3.org/2000/svg" width="16" height="16" fill="none"><path d="M15.253 1.073a.828.828 0 0 0-.16.154c-.04.051-.903 1.548-1.918 3.325L11.33 7.785 8.539 5.924C7.003 4.9 5.706 4.049 5.656 4.031a.485.485 0 0 0-.554.177c-.042.058-.489.934-.995 1.948l-.919 1.842-1.427.008-1.428.007-.096.066a.492.492 0 0 0-.199.6.486.486 0 0 0 .361.305c.09.019.623.029 1.548.029h1.411l3.421 2.446a363.855 363.855 0 0 0 3.513 2.493c.118.061.279.06.415-.003.073-.035.904-.85 2.67-2.62 2.762-2.767 2.645-2.638 2.616-2.895-.034-.303-.378-.508-.666-.398-.092.035-.57.5-2.497 2.427l-2.383 2.384-3.155-2.254L4.137 8.34l.771-1.544c.425-.848.784-1.543.799-1.543.014 0 1.283.838 2.82 1.862 2.049 1.366 2.82 1.867 2.894 1.879a.56.56 0 0 0 .424-.133c.06-.064 3.923-6.796 4.093-7.132.176-.349-.056-.716-.453-.716a.371.371 0 0 0-.232.06M2.021 10.561a.594.594 0 0 0-.164.139c-.036.048-.468.894-.961 1.881-.974 1.951-.951 1.895-.845 2.129.144.316.608.383.823.119.019-.023.448-.868.954-1.876.998-1.993.975-1.935.869-2.166a.408.408 0 0 0-.25-.239.53.53 0 0 0-.426.013" fill-rule="evenodd" fill="#000"/></svg>