<svg xmlns="http://www.w3.org/2000/svg" width="24" height="24" fill="none"><path d="M22.251 3.079c-.096.058-.883 1.208-2.997 4.38-1.577 2.366-2.881 4.301-2.899 4.301-.017 0-1.459-1.02-3.203-2.267a462.22 462.22 0 0 0-3.35-2.38c-.215-.137-.384-.144-.566-.023-.118.078-.327.47-1.596 3L6.18 13h-1.9c-1.814 0-1.906.004-2.028.078a.485.485 0 0 0 0 .844c.122.074.215.078 2.118.078h1.989l5.001 2.5c3.319 1.659 5.042 2.5 5.123 2.5a.644.644 0 0 0 .247-.065c.069-.036 1.473-.963 3.119-2.061 2.182-1.455 3.015-2.031 3.072-2.125A.582.582 0 0 0 23 14.5c0-.256-.253-.5-.517-.5-.094 0-.799.451-3.071 1.966l-2.949 1.965-4.632-2.315C9.284 14.342 7.2 13.287 7.2 13.27c0-.016.561-1.152 1.247-2.524l1.246-2.493 3.296 2.353c1.812 1.294 3.339 2.365 3.393 2.378a.507.507 0 0 0 .466-.134c.11-.118 5.979-8.912 6.087-9.121a.453.453 0 0 0-.013-.477.478.478 0 0 0-.671-.173M4.44 16.627c-.171.143-2.44 4.67-2.439 4.864 0 .177.075.31.235.418a.447.447 0 0 0 .528.001c.117-.078.296-.408 1.306-2.42 1.229-2.448 1.241-2.477 1.109-2.731-.129-.251-.516-.32-.739-.132" fill-rule="evenodd" fill="#000"/></svg>