<svg xmlns="http://www.w3.org/2000/svg" width="24" height="24" fill="none" viewBox="0 0 24 24"><path stroke="currentColor" stroke-linejoin="round" stroke-miterlimit="10" d="M19.002 23.245v-2.02l3.558-4.49c.284-.36.44-.805.44-1.264V8.766c0-.837-.672-1.514-1.5-1.514S20 7.93 20 8.766v3.984"/><path stroke="currentColor" stroke-linejoin="round" stroke-miterlimit="10" d="M13.5 23.245v-5.512c0-.565.22-1.11.619-1.51l3.603-3.638a1.478 1.478 0 0 1 2.11 0c.584.59.584 1.54 0 2.129l-3.164 3.198M5.008 23.245v-2.026l-3.567-4.501A2.045 2.045 0 0 1 1 15.451v-6.68c0-.84.674-1.519 1.504-1.519s1.503.679 1.503 1.518v3.98"/><path stroke="currentColor" stroke-linejoin="round" stroke-miterlimit="10" d="M10.5 23.245v-5.512c0-.565-.22-1.11-.619-1.51l-3.603-3.638a1.478 1.478 0 0 0-2.11 0 1.511 1.511 0 0 0 0 2.129l3.164 3.198"/><path stroke="currentColor" stroke-linejoin="round" d="M16.292 3.824a6.397 6.397 0 0 0-3.288 2.928M13.005 13.75V6.751"/><path stroke="currentColor" stroke-linejoin="round" d="M14.879 6.734A5.993 5.993 0 0 0 20.5.755h-2.998a4.498 4.498 0 0 0-4.498 4.498v1.5M10.156 8.213a5.544 5.544 0 0 1 2.848 2.538"/><path stroke="currentColor" stroke-linejoin="round" d="M11.38 10.734a5.194 5.194 0 0 1-4.872-5.181h2.598a3.898 3.898 0 0 1 3.899 3.898v1.3"/></svg>