<svg xmlns="http://www.w3.org/2000/svg" width="24" height="24" fill="none"><path d="M16.582.345c-1.699.306-3.218 1.602-3.78 3.223-.219.632-.285 1.079-.311 2.105l-.024.932-.283-.276c-.452-.439-.831-.694-1.379-.925-.719-.304-1.358-.375-3.185-.357-1.394.015-1.428.021-1.562.301-.066.139-.068.195-.026.661.25 2.769 2.329 4.887 5.112 5.209l.204.023.026-.33c.014-.182.026-.406.026-.499v-.167l-.19-.025a4.819 4.819 0 0 1-1.69-.524c-1.299-.67-2.259-2.026-2.459-3.471l-.027-.195 1.273.021c1.11.019 1.315.032 1.602.104 1.289.325 2.239 1.305 2.511 2.59.094.44.087.457-.11.27a6.273 6.273 0 0 0-1.542-1.064c-.226-.111-.418-.195-.426-.186a8.68 8.68 0 0 0-.194.462l-.179.447.332.16c.183.087.474.254.646.369.407.272 1.101.972 1.365 1.376l.208.318v2.863h1V6.845l.246-.372c.299-.453 1.075-1.24 1.525-1.547.171-.117.507-.31.746-.43l.434-.217-.176-.447c-.097-.245-.18-.451-.186-.456a1.902 1.902 0 0 0-.294.117 7.247 7.247 0 0 0-1.979 1.338l-.329.309.028-.312c.119-1.309.985-2.547 2.203-3.147.752-.371.77-.373 2.617-.391l1.615-.016-.027.233a5.836 5.836 0 0 1-.125.606 5.348 5.348 0 0 1-1.454 2.529c-.482.479-.823.723-1.424 1.018-.641.314-1.16.467-1.909.561l-.19.024.022.367c.012.203.03.426.041.496l.019.128.208-.021c1.226-.12 2.508-.646 3.449-1.415a6.54 6.54 0 0 0 2.36-4.209c.075-.53.076-.924.002-1.067-.13-.251-.072-.244-2.151-.24-1.456.002-1.964.016-2.209.061M1.984 6.824C1.353 6.976.798 7.516.588 8.18L.5 8.46v3.68c0 4.102-.014 3.879.279 4.457.085.166.795 1.097 1.938 2.538l1.803 2.276V23.24h1v-1.037c0-.578-.017-1.083-.039-1.14-.021-.057-.868-1.149-1.882-2.428-1.013-1.279-1.891-2.417-1.951-2.53L1.54 15.9l-.012-3.66c-.008-2.467.002-3.707.03-3.804.023-.08.113-.226.2-.325.49-.556 1.342-.428 1.658.249.081.174.084.244.096 2.195.012 2.003.012 2.016-.076 2.2-.287.607-.261 1.353.067 1.914.108.185 3.378 3.539 3.472 3.562.025.006.197-.142.384-.329l.338-.341-1.621-1.63c-.892-.897-1.663-1.7-1.714-1.783-.111-.185-.154-.59-.085-.799.074-.223.262-.453.47-.575.249-.146.662-.157.918-.023.103.053.878.808 2.087 2.033 2.058 2.084 2.117 2.154 2.205 2.633.028.157.043 1.192.043 3.03v2.793H11.003l-.012-3.01-.011-3.01-.093-.28c-.204-.614-.264-.684-2.463-2.892-1.897-1.905-2.065-2.063-2.33-2.195a1.918 1.918 0 0 0-1.168-.182c-.15.025-.303.058-.339.072-.062.024-.067-.097-.068-1.549 0-1.743-.018-1.917-.241-2.359a2.341 2.341 0 0 0-.822-.844c-.418-.225-.973-.288-1.472-.167m19.056-.02c-.619.12-1.228.689-1.447 1.35-.085.254-.089.343-.104 1.939-.014 1.507-.021 1.671-.079 1.649a2.786 2.786 0 0 0-.336-.071 1.917 1.917 0 0 0-1.168.182c-.265.132-.434.291-2.311 2.175-1.393 1.397-2.077 2.112-2.191 2.289a3.136 3.136 0 0 0-.274.58l-.11.323-.011 3.01-.012 3.01H14v-2.793c0-1.838.015-2.873.043-3.03.088-.48.147-.55 2.206-2.635 1.207-1.222 1.983-1.978 2.086-2.032a1.06 1.06 0 0 1 .918.024c.208.122.396.352.47.575.075.226.027.605-.103.814-.061.097-.833.902-1.714 1.788l-1.603 1.61.338.34c.185.186.353.339.371.339.066 0 3.289-3.289 3.438-3.508.231-.339.323-.693.302-1.164-.014-.301-.042-.447-.125-.651l-.107-.263.001-2.077c.001-2.363-.013-2.259.338-2.568.393-.346.901-.341 1.295.013.352.317.33.024.317 4.198l-.011 3.68-.11.22c-.061.121-.939 1.263-1.951 2.539-1.192 1.502-1.854 2.368-1.879 2.46-.022.077-.04.587-.04 1.131v.99h1.04v-1.863l1.727-2.179c.95-1.198 1.795-2.282 1.877-2.409.195-.301.308-.644.359-1.089.027-.232.037-1.592.029-3.82l-.013-3.46-.09-.266C23.07 7.15 22.1 6.598 21.04 6.804" fill-rule="evenodd" fill="#000"/></svg>