<svg xmlns="http://www.w3.org/2000/svg" width="16" height="16" fill="currentColor">
  <path fill-rule="evenodd" d="M7.572 3.24A4.001 4.001 0 0 1 11.5 0h2.566l-.07.562c-.092.734-.417 1.822-1.11 2.74C12.182 4.234 11.086 5 9.5 5V4c1.214 0 2.035-.568 2.588-1.301A4.957 4.957 0 0 0 12.893 1H11.5a3 3 0 0 0-3 3c.314.418.5.937.5 1.5V9H8V5.5A1.5 1.5 0 0 0 6.5 4H5.048c.039.25.108.563.231.883.276.717.795 1.422 1.82 1.627l-.197.98c-1.476-.295-2.207-1.34-2.556-2.248A5.387 5.387 0 0 1 4 3.548v-.033L4 3.505v-.004l.5-.001-.5.001V3h2.5c.384 0 .747.086 1.072.24ZM3.858 8.668a.702.702 0 1 0-1.025.958l2.52 2.52-.707.708-2.52-2.52A1.702 1.702 0 1 1 4.61 8.008l2.89 3.303V16h-1v-4.312l-2.642-3.02Z" clip-rule="evenodd"/>
  <path fill-rule="evenodd" d="M1.5 5.5A.5.5 0 0 0 1 6v4.172c0 .397.158.779.44 1.06l2.12 2.122a1.5 1.5 0 0 1 .44 1.06V16H3v-1.586a.5.5 0 0 0-.146-.353L.732 11.939A2.5 2.5 0 0 1 0 10.172V6a1.5 1.5 0 1 1 3 0v2.5H2V6a.5.5 0 0 0-.5-.5ZM12.142 8.668a.702.702 0 1 1 1.025.958l-2.52 2.52.707.708 2.52-2.52a1.702 1.702 0 1 0-2.484-2.325L8.5 11.312V16h1v-4.312l2.642-3.02Z" clip-rule="evenodd"/>
  <path fill-rule="evenodd" d="M14.5 5.5a.5.5 0 0 1 .5.5v4.172a1.5 1.5 0 0 1-.44 1.06l-2.12 2.122a1.5 1.5 0 0 0-.44 1.06V16h1v-1.586a.5.5 0 0 1 .146-.353l2.122-2.122A2.5 2.5 0 0 0 16 10.172V6a1.5 1.5 0 0 0-3 0v2.5h1V6a.5.5 0 0 1 .5-.5Z" clip-rule="evenodd"/>
</svg>
