<svg width="16" height="16" fill="none" xmlns="http://www.w3.org/2000/svg"><path d="M.28 1.058a.456.456 0 0 0-.24.259c-.037.098-.041.737-.034 6.083.009 6.611-.007 6.034.179 6.431.267.572.784.994 1.364 1.116.284.06 12.618.06 12.902 0 .592-.124 1.105-.551 1.375-1.142.171-.375.161-.061.161-4.978V4.333l-.062-.086a.884.884 0 0 0-.158-.16l-.096-.074-3.952-.007-3.951-.007-.944-1.417c-.815-1.224-.96-1.428-1.063-1.493l-.118-.076-2.642.001C.646 1.015.351 1.02.28 1.058m5.867 2.308c.911 1.372 1.013 1.516 1.117 1.575.043.025.958.035 3.896.046L15 5V13.187l-.062.153a1.065 1.065 0 0 1-.655.621c-.201.059-12.365.059-12.566 0a1.065 1.065 0 0 1-.655-.621L1 13.187.993 7.593.986 2l2.127.001H5.24l.907 1.365" fill-rule="evenodd" fill="#000"/></svg>