<svg xmlns="http://www.w3.org/2000/svg" width="16" height="16" fill="currentColor" viewBox="0 0 16 16">
  <path fill-rule="evenodd" d="M13 3a1 1 0 1 0 0-2 1 1 0 0 0 0 2Zm0 1a2 2 0 1 0-1.723-.984L8.879 5.414A2.488 2.488 0 0 0 7.5 5c-.51 0-.983.152-1.379.414L3.854 3.147a1.5 1.5 0 1 0-.707.707L5.414 6.12C5.152 6.517 5 6.991 5 7.5c0 .51.152.983.414 1.379l-2.398 2.398a2 2 0 1 0 .707.707l2.398-2.398c.263.174.56.3.879.364v2.113a2 2 0 1 0 1 0V9.95c.32-.065.616-.19.879-.364l2.267 2.267a1.5 1.5 0 1 0 .707-.707L9.586 8.88c.262-.396.414-.87.414-1.379 0-.51-.152-.983-.414-1.379l2.398-2.398A1.99 1.99 0 0 0 13 4ZM7.5 9a1.5 1.5 0 1 0 0-3 1.5 1.5 0 0 0 0 3ZM3 13a1 1 0 1 1-2 0 1 1 0 0 1 2 0Zm5.5 1a1 1 0 1 1-2 0 1 1 0 0 1 2 0ZM3 2.5a.5.5 0 1 1-1 0 .5.5 0 0 1 1 0Zm10 10a.5.5 0 1 1-1 0 .5.5 0 0 1 1 0Z" clip-rule="evenodd"/>
</svg>
