<svg width="33" height="18" viewBox="0 0 33 18" fill="none" xmlns="http://www.w3.org/2000/svg">
<rect x="1.16675" y="1" width="31" height="16" fill="white"/>
<rect x="1.16675" y="1" width="31" height="16" stroke="#0A8276"/>
<path d="M5.52116 12.5V5.96H6.79116L8.75116 9.56C8.87116 9.78 8.9845 10.0167 9.09116 10.27C9.2045 10.5233 9.31116 10.78 9.41116 11.04H9.45116C9.4245 10.6867 9.3945 10.32 9.36116 9.94C9.32783 9.55333 9.31116 9.18 9.31116 8.82V5.96H10.4212V12.5H9.15116L7.19116 8.9C7.07116 8.68 6.95116 8.44333 6.83116 8.19C6.71783 7.93667 6.61116 7.68 6.51116 7.42H6.47116C6.51116 7.76 6.54783 8.12333 6.58116 8.51C6.6145 8.89 6.63116 9.26667 6.63116 9.64V12.5H5.52116ZM14.0934 12.5V5.96H18.0334V6.94H15.2534V8.61H17.6034V9.59H15.2534V11.52H18.1334V12.5H14.0934ZM22.0843 12.5L20.8243 5.96H22.0643L22.6243 9.26C22.6776 9.60667 22.7276 9.95667 22.7743 10.31C22.821 10.6567 22.8643 11.02 22.9043 11.4H22.9443C23.0043 11.02 23.0676 10.6567 23.1343 10.31C23.201 9.95667 23.271 9.60667 23.3443 9.26L24.1043 5.96H25.2443L25.9843 9.26C26.0576 9.6 26.131 9.94667 26.2043 10.3C26.2776 10.6533 26.3443 11.02 26.4043 11.4H26.4443C26.4843 11.02 26.5276 10.6567 26.5743 10.31C26.6276 9.95667 26.6776 9.60667 26.7243 9.26L27.2843 5.96H28.4643L27.2043 12.5H25.6643L24.9243 9.06C24.8776 8.82 24.831 8.57333 24.7843 8.32C24.7443 8.06 24.7043 7.78 24.6643 7.48H24.6243C24.5976 7.78 24.5643 8.06 24.5243 8.32C24.4843 8.57333 24.4376 8.82 24.3843 9.06L23.6243 12.5H22.0843Z" fill="#0A8276"/>
</svg>
