<svg width="48" height="48" fill="none" xmlns="http://www.w3.org/2000/svg"><path d="M17.28 3.609c-2.738.312-5.548 1.458-7.8 3.18-.686.525-1.897 1.71-2.463 2.411-2.603 3.223-3.851 7.402-3.412 11.423.331 3.033 1.641 6.092 3.598 8.405l.498.587-2.091 2.096c-1.469 1.473-2.09 2.148-2.09 2.272 0 .229.27.497.5.497.257 0 30.46-30.203 30.46-30.46 0-.23-.268-.5-.497-.5-.124 0-.799.621-2.272 2.09l-2.096 2.091-.587-.498c-2.313-1.957-5.372-3.267-8.405-3.598-.892-.098-2.468-.096-3.343.004m3.96 1.066c2.641.401 5.287 1.633 7.281 3.389l.391.344L18.66 18.66 8.408 28.912l-.344-.391c-1.8-2.044-3.036-4.752-3.432-7.521-.057-.396-.103-1.296-.103-2 0-1.4.103-2.307.399-3.495a14.582 14.582 0 0 1 6.606-8.932c1.982-1.19 3.914-1.797 6.506-2.046.556-.054 2.451.034 3.2.148m11.241 7.948c-.246.2-.229.413.106 1.309.572 1.526.828 2.78.904 4.427.172 3.715-1.121 7.38-3.606 10.222-2.017 2.308-4.83 3.961-7.792 4.581-2.917.611-5.521.419-8.278-.611-.801-.299-.879-.314-1.05-.202-.23.151-.294.382-.173.624.188.378 2.671 1.158 4.414 1.386 2.779.364 5.861-.108 8.464-1.298 1.326-.606 2.208-1.168 3.519-2.245l.63-.516 7.091 7.09c5.175 5.173 7.14 7.09 7.271 7.09.23 0 .499-.269.499-.499 0-.131-1.917-2.096-7.09-7.271l-7.09-7.091.516-.63c1.078-1.312 1.641-2.195 2.244-3.519 1.377-3.018 1.774-6.538 1.092-9.67-.243-1.113-.854-2.914-1.064-3.131a.437.437 0 0 0-.607-.046" fill-rule="evenodd" fill="#000"/></svg>