<svg width="48" height="48" viewBox="0 0 48 48" fill="none" xmlns="http://www.w3.org/2000/svg">
<g id="no-results-48">
<g id="Group">
<path id="Vector" d="M8.39356 29.6074C5.58041 26.7943 4 22.9788 4 19.0004C4 15.022 5.58041 11.2066 8.39356 8.39344C11.2067 5.58029 15.0222 3.99988 19.0006 3.99988C22.979 3.99988 26.7944 5.58029 29.6076 8.39344" stroke="#575352" stroke-linecap="round" stroke-linejoin="round"/>
<path id="Vector_2" d="M32.7525 13.0005C33.956 15.7642 34.2994 18.8262 33.738 21.7878C33.1766 24.7494 31.7363 27.4734 29.6049 29.6049C27.4734 31.7363 24.7494 33.1766 21.7878 33.738C18.8262 34.2994 15.7642 33.956 13.0005 32.7525" stroke="#575352" stroke-linecap="round" stroke-linejoin="round"/>
<path id="Vector_3" d="M44.0007 44.0004L29.6077 29.6074" stroke="#575352" stroke-linecap="round" stroke-linejoin="round"/>
<path id="Vector_4" d="M4.00049 34.0005L34.0005 4.00049" stroke="#575352" stroke-linecap="round" stroke-linejoin="round"/>
</g>
</g>
</svg>
