<svg xmlns="http://www.w3.org/2000/svg" viewBox="0 0 48 48" style="enable-background:new 0 0 48 48" xml:space="preserve"><path d="M23.053 5.692c-2.629 1.046-2.824 1.137-2.78 1.296.027.095.251.971.499 1.947l.452 1.776-.526.567a10.62 10.62 0 0 0-.912 1.16l-.386.593-2.04-.048-2.04-.047-.444 3.074-.445 3.075 2.633.718c1.448.394 2.676.727 2.729.74.121.029.583-1.722.479-1.815-.04-.034-.874-.272-1.855-.528s-1.796-.487-1.812-.513c-.015-.026.057-.605.161-1.287.105-.682.191-1.284.192-1.338.002-.076.406-.087 1.782-.049l1.78.049.348-.711c.567-1.157 1.132-1.857 2.198-2.722l.305-.248-.444-1.668c-.245-.917-.418-1.693-.386-1.724.051-.05.447-.213 2.104-.87l.366-.145.899 1.503.899 1.504 1.016-.003c1.137-.004 1.71.086 2.807.436l.751.241 1.252-1.25 1.252-1.25.956.769c.527.424 1.007.818 1.068.877.094.09-.031.339-.82 1.628-.512.836-.931 1.546-.931 1.576 0 .031.176.294.391.585.682.926 1.077 1.837 1.354 3.124l.145.673 1.635.431c.899.238 1.659.457 1.688.487.029.03-.033.613-.138 1.295a40.725 40.725 0 0 0-.193 1.337c-.002.075-.42.086-1.822.049l-1.82-.049-.28.586c-.357.75-.834 1.41-1.529 2.119l-.551.562.676.672.675.672.333-.23c.461-.32 1.217-1.163 1.619-1.807l.337-.54 2.06.047c1.741.04 2.06.03 2.062-.065.001-.062.197-1.444.435-3.071.239-1.626.427-2.962.419-2.967-.009-.006-.886-.254-1.95-.552l-1.935-.542-.096-.411c-.118-.5-.312-1.014-.691-1.829l-.288-.618 1.012-1.688c.557-.928 1.012-1.715 1.012-1.749 0-.049-4.101-3.353-4.663-3.757-.143-.102-.265 0-1.606 1.328L31 8.536l-.6-.148c-.33-.081-1.009-.175-1.508-.208l-.908-.06-.977-1.755c-.538-.965-1.011-1.765-1.052-1.777-.041-.012-1.347.485-2.902 1.104m3.86 7.947c-1.141.248-2.322 1.117-2.899 2.133-.325.572-.574 1.539-.574 2.228 0 .689.249 1.656.574 2.228.576 1.014 1.779 1.892 2.925 2.135 1.548.328 2.972-.1 4.109-1.236.904-.903 1.3-1.855 1.3-3.127 0-1.272-.396-2.224-1.3-3.127-1.136-1.134-2.594-1.57-4.135-1.234m2.068 2.1c.499.22.906.615 1.195 1.157.154.289.184.465.184 1.104s-.03.815-.184 1.104c-.593 1.111-1.838 1.652-3.021 1.312-1.437-.414-2.171-2.085-1.531-3.483.587-1.283 2.011-1.789 3.357-1.194M9.64 20.77c-.132.017-2.121.237-4.42.49l-4.18.46V35.591l2.22.024c2.195.025 2.225.027 2.66.232.243.113 2.618 1.658 5.279 3.432 2.661 1.775 5.091 3.345 5.4 3.49a5.109 5.109 0 0 0 2.598.469c.533-.039 3.157-.585 8.868-1.846 6.864-1.515 8.179-1.828 8.562-2.033.249-.134 1.695-1.271 3.213-2.527 6.768-5.601 6.548-5.399 6.925-6.333.456-1.13.415-2.233-.126-3.35-.958-1.98-3.312-2.881-5.231-2.003-.508.233-5.315 2.982-5.461 3.124-.07.068.018.281.36.867.249.427.482.778.518.78.036.001 1.295-.707 2.799-1.574 2.629-1.517 2.753-1.579 3.228-1.609.4-.026.577.006.922.164 1.267.58 1.688 1.959.952 3.12-.277.436-8.487 7.252-9.086 7.543-.593.288-16.21 3.728-16.937 3.731-.402.002-.644-.047-.961-.192-.232-.106-2.64-1.672-5.35-3.479-2.71-1.807-5.073-3.359-5.251-3.45-.708-.362-1.436-.502-2.841-.549l-1.34-.044v-5.032c0-3.954.021-5.038.1-5.064.27-.091 6.369-.621 7.101-.618.463.002 1.081.059 1.373.127.293.068 2.071.684 3.952 1.369 1.88.684 3.566 1.277 3.746 1.317.18.04 2.758.471 5.728.959 2.97.488 5.559.946 5.752 1.017 1.162.428 1.737 1.865 1.183 2.957-.259.511-.831 1.023-1.321 1.184-.254.083-2.266.264-6.261.564a685.39 685.39 0 0 1-6.081.442h-.195l.03.9c.017.495.053.937.082.983.06.098 11.867-.767 12.548-.92.564-.126 1.414-.562 1.877-.962 1.528-1.32 1.824-3.731.671-5.468a4.215 4.215 0 0 0-1.592-1.411c-.444-.217-1.067-.337-6.253-1.198-3.168-.527-5.958-1.027-6.2-1.113-.242-.085-1.754-.657-3.36-1.271-1.606-.614-3.208-1.191-3.56-1.283-.792-.207-2.118-.351-2.64-.287" fill-rule="evenodd"/></svg>