<svg width="16" height="16" fill="none" xmlns="http://www.w3.org/2000/svg"><path d="M6.44.013a1.605 1.605 0 0 1-.098.025c-.092.02-.225.132-.283.239C6.019.35 6.012.482 6 1.358l-.013.997-.267.111c-.505.209-1.072.538-1.4.812-.23.192-.134.221-1.04-.303-.447-.258-.859-.482-.914-.497a.476.476 0 0 0-.506.193C1.778 2.781.385 5.196.317 5.345a.46.46 0 0 0 .114.562c.05.044.449.284.885.533l.794.453-.016.12-.044.334a7.91 7.91 0 0 0 0 1.306l.044.334.015.12-.793.453c-.436.249-.835.489-.885.533a.46.46 0 0 0-.115.56c.069.15 1.463 2.568 1.544 2.676a.476.476 0 0 0 .506.193c.055-.015.466-.238.912-.496.447-.257.825-.463.84-.457.016.006.098.068.183.137.39.317 1.08.712 1.517.869l.179.063.008 1.001c.007.885.014 1.011.054 1.084a.574.574 0 0 0 .283.244c.093.026 3.223.026 3.316 0a.574.574 0 0 0 .283-.244c.04-.073.047-.205.059-1.081l.013-.997.267-.111c.505-.209 1.072-.538 1.4-.812.23-.192.134-.22 1.04.303.769.444.927.522 1.053.521.086-.001.261-.093.336-.176.038-.042.415-.677.838-1.41.821-1.425.834-1.454.761-1.675a.521.521 0 0 0-.13-.183c-.055-.049-.457-.293-.894-.542l-.794-.453.016-.12.044-.334c.016-.117.028-.411.028-.653 0-.242-.012-.536-.028-.653a44.266 44.266 0 0 0-.044-.334l-.016-.12.794-.453c.436-.249.832-.486.878-.527.178-.153.216-.364.108-.593-.104-.219-1.509-2.635-1.572-2.703a.477.477 0 0 0-.462-.139c-.057.015-.469.239-.916.497-.906.523-.81.495-1.04.303-.338-.282-1.074-.701-1.499-.853l-.178-.063-.008-1.001C9.986.303 9.987.308 9.857.164 9.715.008 9.781.014 8.053.008A62.592 62.592 0 0 0 6.44.013m2.574 1.9c0 .912.001.929.06 1.033.082.145.176.201.529.318a5.084 5.084 0 0 1 1.716.993c.288.253.413.311.602.276.055-.01.422-.204.816-.432.394-.227.742-.427.774-.443.055-.029.081.01.539.806.266.46.489.853.497.874.01.027-.188.154-.7.448-.77.442-.866.504-.93.602-.086.131-.091.246-.024.584.143.723.151 1.249.027 1.921-.099.533-.084.675.085.815.043.036.411.257.818.491.406.234.735.439.731.454-.004.016-.227.41-.496.874l-.489.846-.071-.038a62.04 62.04 0 0 1-.791-.453c-.677-.391-.727-.415-.858-.415a.724.724 0 0 0-.202.024 2.448 2.448 0 0 0-.328.254 5.1 5.1 0 0 1-1.71.99c-.397.137-.454.173-.536.332-.058.115-.06.136-.06 1.032v.914H6.987l-.001-.926c0-.912-.001-.929-.06-1.033-.077-.136-.195-.214-.428-.283a5.84 5.84 0 0 1-.962-.416 4.61 4.61 0 0 1-.831-.596c-.301-.26-.339-.285-.452-.292-.204-.015-.253.006-.96.415a62.04 62.04 0 0 1-.791.453l-.07.037-.482-.836c-.266-.46-.489-.853-.497-.874-.01-.027.197-.159.724-.463.407-.234.773-.454.815-.489.173-.143.195-.277.113-.682a4.848 4.848 0 0 1 0-2.056c.082-.405.06-.539-.113-.682a15.676 15.676 0 0 0-.815-.489c-.561-.323-.735-.435-.723-.466.038-.099.98-1.707.995-1.699.01.005.358.204.773.444.418.24.8.443.856.453.19.035.315-.022.603-.276a5.068 5.068 0 0 1 1.71-.992c.397-.137.454-.173.536-.332.058-.115.06-.136.06-1.032V.987h2.026l.001.926M7.483 5.054a3.006 3.006 0 0 0-1.984 1.318 2.879 2.879 0 0 0-.4.906c-.061.229-.069.304-.069.722s.008.493.069.722c.15.555.401.994.793 1.386.392.392.831.643 1.386.793.229.061.304.069.722.069s.493-.008.722-.069c.555-.15.994-.401 1.386-.793.392-.392.643-.831.793-1.386.061-.229.069-.304.069-.722s-.008-.493-.069-.722a2.975 2.975 0 0 0-.793-1.386 2.944 2.944 0 0 0-1.386-.791 3.57 3.57 0 0 0-1.239-.047m1.144 1.037c.303.103.555.26.789.493.231.232.388.483.495.789.069.198.074.244.074.627s-.005.429-.074.627a2.03 2.03 0 0 1-.495.789 2.03 2.03 0 0 1-.789.495c-.198.069-.244.074-.627.074s-.429-.005-.627-.074a2.03 2.03 0 0 1-.789-.495 2.03 2.03 0 0 1-.495-.789c-.069-.198-.074-.244-.074-.627s.005-.429.074-.627A2.047 2.047 0 0 1 7.56 6.037c.106-.024.278-.033.507-.027.291.007.381.02.56.081" fill-rule="evenodd" fill="#000"/></svg>