<svg xmlns="http://www.w3.org/2000/svg" width="16" height="16" fill="currentColor">
  <path fill-rule="evenodd" d="M6 2h10v1H6V2Zm0 4h10v1H6V6Zm0 4h10v1H6v-1Zm0 4h10v1H6v-1Z" clip-rule="evenodd"/>
  <path d="M.753 13v-.568c.47-.437.875-.835 1.216-1.192a6.63 6.63 0 0 0 .8-.984c.192-.299.288-.576.288-.832 0-.272-.072-.485-.216-.64-.138-.16-.346-.24-.624-.24a.95.95 0 0 0-.544.168 2.62 2.62 0 0 0-.448.4L.73 8.624c.23-.256.47-.453.72-.592.25-.144.547-.216.888-.216.326 0 .608.064.848.192s.427.31.56.544c.134.23.2.501.2.816 0 .315-.088.627-.264.936-.17.31-.402.627-.696.952-.293.32-.618.659-.976 1.016a8.65 8.65 0 0 1 .856-.056h1.328V13H.753ZM1.041 6v-.752h1.136V1.904h-.936v-.576c.25-.048.47-.104.656-.168.187-.07.36-.152.52-.248h.688v4.336h1V6H1.041Z"/>
</svg>
