<svg xmlns="http://www.w3.org/2000/svg" width="16" height="16" fill="none"><path d="M2.243 1.081c-.064.036-.468.289-.898.561l-.781.495.267.423.267.423.439-.278c.241-.153.444-.278.451-.278.007 0 .012.804.012 1.786V6H3.015l-.008-2.313c-.008-2.497.001-2.36-.15-2.523a.421.421 0 0 0-.356-.15.476.476 0 0 0-.258.067M6 2.507v.506h10V2H6v.507m0 4v.506h10V6H6v.507M1.84 8.041c-.463.1-.929.457-1.131.868-.082.167-.253.731-.255.842-.001.039.929.264.958.232.012-.013.048-.137.082-.276.033-.14.076-.285.095-.324a.672.672 0 0 1 .614-.369c.536-.001.794.386.553.829-.101.186-.292.409-.847.992-1.01 1.059-1.293 1.381-1.335 1.52a.46.46 0 0 0 .137.502c.161.148.092.142 1.749.151l1.54.007v-1.014l-.903-.007-.904-.007.505-.532c.586-.618.752-.814.901-1.069.36-.615.317-1.354-.106-1.834-.374-.424-1.064-.637-1.653-.511M6 10.507v.506h10V10H6v.507m0 4v.506h10V14H6v.507" fill="currentColor" fill-rule="evenodd"/></svg>