<svg xmlns="http://www.w3.org/2000/svg" width="24" height="24" fill="none"><path d="M3.34 3.643a105.89 105.89 0 0 0-1.673 1.074c-.049.049.484.853.544.819.027-.015.429-.268.895-.562.465-.294.856-.534.87-.534.013 0 .024 1.476.024 3.28V11h1V6.8c0-2.31-.005-4.2-.01-4.199-.006.001-.748.47-1.65 1.042M11 5.5V6h13V5H11v.5m0 7v.5h13v-1H11v.5m-7.02 1.556a2.572 2.572 0 0 0-1.78 1.367c-.12.248-.314.956-.273.997.026.026.812.22.892.22.031 0 .089-.118.141-.289.192-.632.451-.993.854-1.191.421-.206.936-.201 1.407.015.706.324.914 1.018.533 1.775-.166.329-.467.687-1.469 1.75-.457.484-1.158 1.236-1.558 1.672L2 21.164V22h5.2v-.999l-1.84-.011-1.839-.01.863-.92c1.858-1.979 2.032-2.186 2.291-2.72.205-.421.264-.68.261-1.14-.004-.613-.213-1.09-.666-1.522-.233-.222-.735-.489-1.09-.579a3.225 3.225 0 0 0-1.2-.043M11 19.5v.5h13v-1H11v.5" fill-rule="evenodd" fill="#000"/></svg>