<svg xmlns="http://www.w3.org/2000/svg" width="16" height="16" fill="none" viewBox="0 0 16 16"><path fill="currentColor" d="M6.5 2H6v1h.5V2Zm9 1h.5V2h-.5v1Zm-9 3H6v1h.5V6Zm9 1h.5V6h-.5v1Zm-9 3H6v1h.5v-1Zm9 1h.5v-1h-.5v1Zm-9 3H6v1h.5v-1Zm9 1h.5v-1h-.5v1ZM.562 9.294l-.116.486.973.23.116-.486-.973-.23Zm1.707-.792.034-.499-.034.499Zm.972.556-.44.236v.001l.44-.237Zm.11.462.5-.002-.5.002Zm-1.078 1.656-.361-.346.361.346Zm-1.226 1.323-.372-.334a.5.5 0 0 0 .372.834v-.5Zm2.453.5H4v-1h-.5v1ZM.985 1.868l-.422.267.535.845.423-.268-.536-.844ZM2.5 1.5H3a.5.5 0 0 0-.768-.422L2.5 1.5Zm-.5 4V6h1v-.5H2ZM6.5 3h9V2h-9v1Zm0 4h9V6h-9v1Zm0 4h9v-1h-9v1Zm0 4h9v-1h-9v1ZM1.535 9.524a.682.682 0 0 1 .7-.523l.068-.998a1.682 1.682 0 0 0-1.741 1.29l.973.231Zm.7-.523c.288.02.488.148.565.293l.882-.472c-.29-.543-.869-.784-1.38-.819l-.067.998Zm.566.294c.009.017.05.095.05.227l1-.004a1.477 1.477 0 0 0-.17-.697l-.88.474Zm.05.227c0 .139-.044.277-.193.481-.16.222-.398.464-.746.827l.722.692c.32-.334.622-.64.834-.931.224-.31.385-.651.383-1.073l-1 .004Zm-.94 1.308c-.288.302-.716.756-1.236 1.335l.744.668a57.82 57.82 0 0 1 1.215-1.311l-.722-.692ZM1.048 13H3.5v-1H1.047v1Zm.474-10.287 1.247-.79-.536-.844-1.247.79.536.844ZM2 1.5v4h1v-4H2Z"/></svg>