<svg xmlns="http://www.w3.org/2000/svg" width="24" height="24" fill="none"><path d="M8.252 1.078C8.02 1.22 8 1.307 8 2.198V3l-1.37.001c-1.56 0-1.737.022-2.25.276a2.548 2.548 0 0 0-1.251 1.404l-.109.299-.013 1.51L2.995 8h-.808c-.73 0-.819.008-.935.078a.478.478 0 0 0-.174.67c.142.232.229.252 1.12.252H3v3h-.802c-.891 0-.978.02-1.12.252a.451.451 0 0 0 0 .496c.142.232.229.252 1.12.252H3v3h-.802c-.891 0-.978.02-1.12.252a.451.451 0 0 0 0 .496c.142.232.23.252 1.117.252h.8l.013 1.51.013 1.51.11.3a2.6 2.6 0 0 0 1.549 1.548l.3.111 1.51.013 1.51.013v.808c0 .73.008.819.078.935.2.328.644.328.844 0 .07-.116.078-.205.078-.938V22h3v.81c0 .733.008.822.078.938.2.328.644.328.844 0 .07-.116.078-.205.078-.938V22h3v.81c0 .733.008.822.078.938.2.328.644.328.844 0 .07-.116.078-.205.078-.935v-.808l1.51-.013 1.51-.013.3-.111a2.6 2.6 0 0 0 1.549-1.548l.11-.3.013-1.51.013-1.51h.808c.73 0 .819-.008.935-.078a.478.478 0 0 0 .174-.67c-.142-.232-.229-.252-1.12-.252H22v-3h.81c.733 0 .822-.008.938-.078A.54.54 0 0 0 24 12.5a.54.54 0 0 0-.252-.422c-.116-.07-.205-.078-.938-.078H22V9h.81c.733 0 .822-.008.938-.078A.54.54 0 0 0 24 8.5a.54.54 0 0 0-.252-.422c-.116-.07-.205-.078-.935-.078h-.808l-.013-1.51-.013-1.51-.11-.3a2.536 2.536 0 0 0-1.249-1.403c-.513-.254-.69-.276-2.25-.276L17 3v-.81c0-.733-.008-.822-.078-.938A.54.54 0 0 0 16.5 1a.54.54 0 0 0-.422.252c-.07.116-.078.205-.078.938V3h-3v-.802c0-.891-.02-.978-.252-1.12a.488.488 0 0 0-.686.198c-.05.097-.062.276-.062.922V3H9v-.81c0-.733-.008-.822-.078-.938a.478.478 0 0 0-.67-.174M20.1 4.132c.315.147.624.455.767.764l.113.244v14.72l-.112.24a1.698 1.698 0 0 1-.764.767l-.244.113H5.14l-.244-.113a1.698 1.698 0 0 1-.764-.767l-.112-.24V5.14l.112-.24c.198-.425.623-.775 1.042-.859.091-.018 3.433-.03 7.426-.027l7.26.006.24.112M9.252 9.078C8.988 9.239 9 9.073 9 12.508c0 3.016.003 3.116.078 3.24.161.264-.004.252 3.422.252s3.261.012 3.422-.252c.075-.124.078-.224.078-3.24 0-3.435.012-3.269-.252-3.43C15.624 9.003 15.524 9 12.5 9s-3.124.003-3.248.078M15 12.5V15h-5v-5h5v2.5" fill-rule="evenodd" fill="#000"/></svg>