<svg xmlns="http://www.w3.org/2000/svg" width="16" height="16" fill="none"><path d="M.36.023a.576.576 0 0 0-.281.211L.013.329.006 3.451c-.008 3.465-.018 3.263.167 3.426.057.049.143.09.232.108.1.021 1.041.027 3.182.022 3.352-.008 3.106.005 3.27-.171.152-.164.142.036.15-3.249.005-2.123-.001-3.082-.022-3.18A.478.478 0 0 0 6.708.05C6.605.003 6.453.001 3.507.003 1.805.004.389.013.36.023M6 3.507V6H1.013V1.013H6v2.494m3.293-2.463c-.229.127-.33.347-.268.586.04.156.121.252.268.32.102.047.25.049 3.208.049 3.402.001 3.193.011 3.357-.162a.46.46 0 0 0 .101-.524.426.426 0 0 0-.231-.249c-.096-.049-.21-.051-3.24-.05-2.239.001-3.157.009-3.195.03m0 4c-.229.127-.33.347-.268.586.04.156.121.252.268.32.102.047.25.049 3.208.049 3.402.001 3.193.011 3.357-.162a.46.46 0 0 0 .101-.524.426.426 0 0 0-.231-.249c-.096-.049-.21-.051-3.24-.05-2.239.001-3.157.009-3.195.03M.28 9.055a.445.445 0 0 0-.23.238c-.046.102-.049.256-.049 3.208C0 15.08.006 15.616.037 15.688a.66.66 0 0 0 .291.284c.052.019 1.052.028 3.174.027 2.948 0 3.103-.003 3.206-.049a.478.478 0 0 0 .277-.357c.021-.098.027-1.057.022-3.18-.008-3.285.002-3.085-.15-3.249-.149-.16.066-.151-3.356-.151-2.796.001-3.15.005-3.221.042M6 12.507v2.506H1.013V10H6v2.507m3.293-2.457a.65.65 0 0 0-.17.119c-.063.068-.143.309-.124.372l.026.105c.02.091.156.248.266.309.076.041.32.046 3.122.052 2.141.005 3.082-.001 3.182-.022a.493.493 0 0 0 .398-.548c-.015-.138-.069-.222-.217-.342l-.101-.082-3.137-.006c-3.007-.006-3.142-.004-3.245.043m0 4a.65.65 0 0 0-.17.119c-.063.068-.143.309-.124.372l.026.105c.02.091.156.248.266.309.076.041.32.046 3.122.052 2.141.005 3.082-.001 3.182-.022a.493.493 0 0 0 .398-.548c-.015-.138-.069-.222-.217-.342l-.101-.082-3.137-.006c-3.007-.006-3.142-.004-3.245.043" fill-rule="evenodd" fill="#000"/></svg>