<svg xmlns="http://www.w3.org/2000/svg" width="24" height="24" fill="none"><path d="M17.98 1.059c-.949.175-1.821.876-2.378 1.908-.606 1.123-.762 2.577-.422 3.914.053.21.126.451.161.536.063.149.062.156-.033.258-.16.173-.488.683-.661 1.028a6.058 6.058 0 0 0-.635 2.522c-.07 1.813.564 3.501 1.733 4.615.597.569 1.379.981 2.085 1.099l.17.028V23h1V16.967l.17-.028c.706-.118 1.488-.53 2.085-1.099.818-.78 1.375-1.845 1.632-3.123.131-.652.132-1.864.001-2.463a7.359 7.359 0 0 0-.535-1.551c-.171-.342-.5-.855-.658-1.025l-.095-.102.077-.218c.509-1.449.403-3.127-.279-4.391-.77-1.427-2.076-2.156-3.418-1.908m.958 1.002c.348.091.69.289.966.559 1.135 1.112 1.413 3.061.679 4.774-.079.183-.143.34-.143.348 0 .008.11.137.245.286a5.164 5.164 0 0 1 1.253 2.657c.161 1.101-.023 2.29-.503 3.247-.315.627-.851 1.252-1.355 1.58a3.975 3.975 0 0 1-.97.424l-.11.026V10h-1v5.962l-.11-.026a5.208 5.208 0 0 1-.41-.141c-1.102-.419-2.02-1.62-2.337-3.055-.386-1.751.036-3.442 1.176-4.715.135-.151.238-.295.228-.32l-.168-.405a4.33 4.33 0 0 1-.347-1.387c-.077-.755.047-1.6.326-2.215.566-1.248 1.587-1.896 2.58-1.637M3 14.5V17h9v-5H3v2.5m8 0V16H4v-3h7v1.5m-10 5v.5h2v3h1v-3h7v3h1v-3h2v-1H1v.5" fill-rule="evenodd" fill="#000"/></svg>