<svg xmlns="http://www.w3.org/2000/svg" width="16" height="16" fill="currentColor" viewBox="0 0 16 16">
  <path fill-rule="evenodd" d="M2 7h6v4H2V7Zm1 1v2h4V8H3Zm-3 4h10v1H9v2H8v-2H2v2H1v-2H0v-1ZM12 15V8h1v7h-1Z" clip-rule="evenodd"/>
  <path fill-rule="evenodd" d="m13.823 5.39.131-.52c.03-.118.046-.241.046-.37 0-.464-.205-1.154-.573-1.726-.393-.61-.756-.774-.927-.774-.17 0-.534.163-.927.774C11.205 3.346 11 4.036 11 4.5c0 .129.016.252.046.37l.131.52-.362.398C10.325 6.326 10 7.108 10 8c0 1.786 1.24 3 2.5 3S15 9.786 15 8c0-.893-.325-1.674-.815-2.212l-.362-.397Zm-3.747-.276C9.413 5.842 9 6.866 9 8c0 2.21 1.567 4 3.5 4S16 10.21 16 8c0-1.134-.413-2.158-1.076-2.886.05-.196.076-.402.076-.614C15 3.12 13.88 1 12.5 1S10 3.12 10 4.5c0 .212.026.418.076.614Z" clip-rule="evenodd"/>
</svg>
