<svg xmlns="http://www.w3.org/2000/svg" width="16" height="16" fill="none"><path d="M12 1.066c-.969.258-1.677 1.107-1.936 2.321-.076.351-.07 1.068.012 1.447l.061.288-.105.192c-.79 1.447-.689 3.513.238 4.877.194.286.577.683.81.84.217.147.494.283.727.358l.193.061v3.565l.5-.008L13 15l.007-1.778.007-1.778.153-.045c.738-.213 1.418-.837 1.832-1.679a4.74 4.74 0 0 0 .469-1.612c.041-.354.019-1.159-.041-1.479a5.661 5.661 0 0 0-.428-1.254l-.14-.273.05-.211c.117-.49.11-1.171-.018-1.687-.149-.599-.405-1.08-.784-1.47-.321-.329-.615-.518-1-.641-.274-.087-.829-.101-1.107-.027m.968 1.047c.442.211.811.716.952 1.308.075.311.07.351-.027.206l-.079-.12-.001.831c0 .935-.023.842.22.877.07.01.127.027.127.039 0 .011-.06.059-.134.106l-.134.086.064.111c.383.653.529 1.192.53 1.95.001.674-.101 1.183-.338 1.683-.249.527-.594.925-.979 1.13l-.156.083v-3.39H12V8.71c0 1.604-.003 1.695-.047 1.678-.238-.089-.656-.456-.852-.748-.369-.551-.558-1.183-.586-1.96-.03-.871.151-1.537.615-2.261l.117-.182-.047-.122c-.146-.387-.173-.548-.171-1.048.001-.529.039-.736.196-1.072.39-.833 1.095-1.19 1.743-.882M2 9.013v2h6v-4H2v2M6.987 9v1H3.013V8h3.974v1M0 12.507v.506h.986l.007.994L1 15l.5.007.5.008v-2.002h6v2.002l.5-.008L9 15l.007-.993.007-.994H10V12H0v.507" fill-rule="evenodd" fill="#000"/></svg>