<svg xmlns="http://www.w3.org/2000/svg" viewBox="0 0 48 48" style="enable-background:new 0 0 48 48" xml:space="preserve"><path d="M22.28 1.087c-2.522.242-4.669.737-6.71 1.546C8.437 5.459 3.063 11.818 1.53 19.248c-.58 2.808-.639 5.912-.165 8.643 1.088 6.265 4.695 11.763 10.036 15.3 2.855 1.891 5.901 3.032 9.571 3.584 1.283.194 4.776.193 6.062-.001 2.792-.42 4.761-1.027 7.166-2.211 4.433-2.181 8.18-5.925 10.358-10.352 1.189-2.417 1.795-4.381 2.216-7.177.195-1.289.195-4.779 0-6.068-.42-2.792-1.027-4.761-2.211-7.166-2.472-5.025-6.889-9.089-12.133-11.167-1.675-.664-3.378-1.108-5.358-1.397-.826-.121-4.044-.221-4.792-.149m4.56 2.107c1.18.178 2.504.443 2.576.515.081.081-.13 1.371-.344 2.112-.179.617-.79 2.324-.856 2.39-.014.013-.167-.016-.34-.066-.815-.236-2.206-.033-2.831.411l-.238.17-.704-.537c-1.409-1.077-3.084-2.09-4.424-2.677-.834-.366-2.395-.914-2.837-.997-.155-.029-.282-.08-.282-.114 0-.083 1.326-.516 2.449-.8 1-.253 2.182-.455 3.29-.562 1.053-.103 3.353-.024 4.541.155m6.383 1.858c2.117 1.061 3.796 2.281 5.542 4.024 1.821 1.82 2.909 3.324 4.025 5.564 1.557 3.127 2.204 5.898 2.202 9.44 0 1.394-.035 1.94-.182 2.88-.507 3.225-1.562 5.967-3.311 8.6-.83 1.249-2.695 3.451-2.76 3.257-.015-.046.032-.383.106-.75.178-.892.245-3.585.12-4.839-.327-3.271-1.531-7.085-3.44-10.898-1.267-2.531-2.45-4.433-4.23-6.804l-.986-1.313.241-.527c.3-.653.406-1.103.408-1.742.004-.981-.295-1.845-.863-2.5l-.309-.356.296-.684a17.178 17.178 0 0 0 1.152-3.937l.051-.294.491.2c.27.109.921.415 1.447.679m-17.14 1.269c.433.088 1.104.269 1.492.403.986.34 2.783 1.242 3.823 1.921.828.54 2.122 1.496 2.122 1.568 0 .018-.053.113-.117.211-.234.357-.385 1.183-.342 1.873.032.513.096.775.295 1.199.139.298.306.6.37.671.105.115-.004.247-1.065 1.281a42.623 42.623 0 0 1-5.861 4.768c-.766.513-2.786 1.726-3.426 2.057l-.262.135-.421-.384c-1.682-1.536-4.396-1.243-5.771.624a3.756 3.756 0 0 0-.749 1.987l-.051.595-.4.105c-1.212.318-2.476.581-2.53.527-.265-.265-.279-2.844-.025-4.681a21.066 21.066 0 0 1 8.751-14.338c.524-.37.783-.497 1.16-.572.783-.154 2.113-.133 3.007.05m11.965 3.963c.667.412 1.079 1.287.953 2.029-.085.504-.509 1.129-.949 1.401-.446.274-1.198.369-1.678.211-.954-.315-1.592-1.447-1.341-2.378.151-.56.555-1.074 1.047-1.331.388-.202.508-.226 1.008-.202.462.023.64.073.96.27m-1.968 5.484c.695.221 1.472.222 2.269.001.511-.141.652-.155.75-.073.154.128 1.785 2.308 2.325 3.107 1.225 1.815 2.836 4.833 3.692 6.917.895 2.178 1.636 4.699 1.977 6.724.203 1.21.203 3.984-.001 5.069-.184.982-.58 2.153-.953 2.819-.325.58-.981 1.428-1.106 1.428-.042 0-.394-.317-.782-.705-.857-.857-2.143-1.898-3.357-2.719l-.905-.613.051-.447c.117-1.005-.297-2.146-1.083-2.986-1.465-1.567-3.837-1.674-5.426-.245l-.421.379-1.295-.41c-4.892-1.55-10.842-2.288-15.52-1.926-.624.048-1.224.093-1.334.1-.18.011-.225-.057-.47-.708-.466-1.235-1.079-3.559-.968-3.669.02-.02.559-.146 1.197-.279a303.23 303.23 0 0 0 1.6-.339l.44-.097.6.601c.33.33.789.696 1.021.814a3.95 3.95 0 0 0 4.986-1.155c.548-.724.753-1.37.753-2.374v-.817l.887-.479c3.148-1.697 6.535-4.215 9.233-6.863.682-.67 1.258-1.219 1.28-1.219a7.02 7.02 0 0 1 .56.164m-15.108 7.486c.724.393 1.069 1.042 1.014 1.905-.043.676-.354 1.187-.935 1.535-.74.444-1.362.444-2.102 0-.609-.366-.899-.862-.935-1.606-.024-.5 0-.62.202-1.008.24-.46.751-.883 1.253-1.038.411-.126 1.045-.037 1.503.212m1.055 10.786c1.449.127 3.082.348 4.493.607 1.505.276 4.433 1.07 5.273 1.43l.344.147-.062.388c-.283 1.767 1.088 3.746 2.928 4.225a3.936 3.936 0 0 0 3.657-.913c.243-.222.467-.404.498-.404.113 0 1.545.999 2.242 1.565.723.586 1.862 1.688 1.796 1.737-.092.067-1.384.636-1.956.861-.941.37-2.405.775-3.593.993-4.395.808-8.837.177-12.887-1.831-3.203-1.588-5.776-3.764-7.858-6.645-.532-.737-1.325-2.044-1.272-2.097.189-.189 4.489-.232 6.397-.063m14.945 1.214c.724.393 1.069 1.042 1.014 1.905-.043.676-.354 1.187-.935 1.535-.74.444-1.362.444-2.102 0-.609-.366-.899-.862-.935-1.606-.024-.5 0-.62.202-1.008.24-.46.751-.883 1.253-1.038.411-.126 1.045-.037 1.503.212" fill-rule="evenodd"/></svg>