<svg xmlns="http://www.w3.org/2000/svg" width="16" height="16">
  <path fill-rule="evenodd" d="M12 .5A1.5 1.5 0 0 1 13.5 2v12a1.5 1.5 0 0 1-1.5 1.5H.5V.5H12Zm.5 1.5a.5.5 0 0 0-.5-.5H1.5v13H12a.5.5 0 0 0 .5-.5V2Z" clip-rule="evenodd"/>
  <path fill-rule="evenodd" d="M7 10a3 3 0 1 0 0-6 3 3 0 0 0 0 6Zm0 1a4 4 0 1 0 0-8 4 4 0 0 0 0 8Z" clip-rule="evenodd"/>
  <path fill-rule="evenodd" d="M7.52 9.381C7.799 8.823 8 7.983 8 7c0-.983-.201-1.823-.48-2.381-.14-.279-.28-.45-.387-.541A.426.426 0 0 0 7.005 4L7 4h-.005a.426.426 0 0 0-.127.077c-.108.092-.248.263-.388.542C6.201 5.177 6 6.017 6 7c0 .983.201 1.823.48 2.381.14.279.28.45.387.541a.426.426 0 0 0 .128.077L7 10h.005l.02-.007a.426.426 0 0 0 .108-.07c.107-.092.247-.263.387-.542ZM7 11c1.105 0 2-1.79 2-4s-.895-4-2-4-2 1.79-2 4 .895 4 2 4Z" clip-rule="evenodd"/>
  <path fill-rule="evenodd" d="M10.5 7.5h-7v-1h7v1Z" clip-rule="evenodd"/>
  <path d="M5 12h4v1H5v-1Z"/>
</svg>
