<svg xmlns="http://www.w3.org/2000/svg" width="24" height="24" fill="none"><path d="M18.26 2.076c-.066.042-3.518 3.475-7.67 7.63L3.04 17.26l-.53 2.651-.53 2.651.08.149a.644.644 0 0 0 .229.229l.149.08 2.591-.516c1.425-.284 2.627-.533 2.671-.554.115-.055 15.174-15.109 15.243-15.238a.438.438 0 0 0 0-.424c-.07-.13-4.126-4.181-4.25-4.244a.446.446 0 0 0-.433.032m1.89 6.074L18.5 9.8l-1.65-1.65L15.2 6.5l1.65-1.65L18.5 3.2l1.65 1.65L21.8 6.5l-1.65 1.65m-7.62 7.62-5.27 5.27-2.031.406c-1.116.223-2.042.395-2.056.381-.014-.014.158-.94.381-2.056l.406-2.031 5.27-5.27L14.5 7.2l1.65 1.65 1.65 1.65-5.27 5.27" fill-rule="evenodd" fill="#000"/></svg>