<svg xmlns="http://www.w3.org/2000/svg" width="16" height="16" fill="none"><path d="M11.787.547c-.115.051-10.107 10.03-10.2 10.186-.076.127-1.08 4.11-1.08 4.281 0 .257.222.479.479.479.126 0 4.125-.994 4.25-1.056.095-.048 10.06-9.995 10.169-10.151a.573.573 0 0 0 .062-.463c-.027-.083-.335-.405-1.557-1.631-.838-.84-1.569-1.559-1.625-1.598a.578.578 0 0 0-.498-.047m1.36 2.32L14.28 4l-.64.64-.64.64-1.14-1.14L10.72 3l.633-.633c.348-.349.639-.634.647-.634.007 0 .523.51 1.147 1.134m-2 2L12.28 6 8.493 9.781l-3.786 3.782-1.488.368c-.818.203-1.495.362-1.503.353-.009-.008.15-.685.353-1.503l.368-1.488 3.775-3.78A779.896 779.896 0 0 1 10 3.733c.007 0 .524.51 1.147 1.134" fill-rule="evenodd" fill="#000"/></svg>