<svg width="16" height="16" fill="none" xmlns="http://www.w3.org/2000/svg"><path d="M11.8.558c-.074.035-1.642 1.587-5.177 5.126l-5.07 5.076-.526 2.111C.58 14.666.504 14.999.52 15.096c.027.157.195.331.362.374.118.031.2.013 2.24-.496l2.118-.527 5.076-5.07c3.539-3.535 5.091-5.103 5.126-5.177a.443.443 0 0 0 .01-.381C15.396 3.682 12.351.629 12.2.558a.44.44 0 0 0-.4 0m1.36 2.295L14.306 4l-.639.64c-.352.352-.652.64-.667.64-.035 0-2.28-2.245-2.28-2.28 0-.026 1.254-1.293 1.28-1.293.007 0 .529.516 1.16 1.146m-2 2L12.307 6 8.526 9.78l-3.78 3.78-1.523.381c-.838.209-1.528.376-1.534.37a46.98 46.98 0 0 1 .367-1.527l.377-1.517 3.777-3.78A775.14 775.14 0 0 1 10 3.707c.007 0 .529.516 1.16 1.146" fill-rule="evenodd" fill="#000"/></svg>