<svg xmlns="http://www.w3.org/2000/svg" width="12" height="12" fill="none"><path d="M8.82.534c-.079.027-.532.472-3.646 3.583C3.218 6.071 1.596 7.706 1.571 7.75 1.498 7.875.5 10.897.5 10.992c0 .275.233.508.508.508.052 0 .617-.179 1.591-.503.831-.277 1.552-.52 1.601-.541.073-.031.758-.705 3.636-3.582 2.072-2.071 3.569-3.581 3.6-3.634.046-.076.054-.113.054-.24s-.008-.164-.054-.24c-.029-.05-.519-.554-1.11-1.142C9.374.669 9.26.562 9.171.533a.522.522 0 0 0-.351.001m.83 1.826.64.64-3.28 3.28-3.28 3.28-.959.32c-.527.175-.961.317-.964.313-.004-.003.138-.437.313-.964l.32-.959 3.275-3.275A803.93 803.93 0 0 1 9 1.72c.006 0 .298.288.65.64" fill-rule="evenodd" fill="#000"/></svg>