<svg xmlns="http://www.w3.org/2000/svg" width="16" height="16" fill="currentColor">
  <path fill-rule="evenodd" d="M12 1a1 1 0 1 0 0 2 1 1 0 0 0 0-2Zm-2 1a2 2 0 1 1 4 0 2 2 0 0 1-4 0Zm2 4c-.936 0-1.68.145-2.268.732A2.5 2.5 0 0 0 9.051 8h5.899a2.5 2.5 0 0 0-.682-1.268C13.68 6.145 12.936 6 12 6Zm-2.975.025C9.897 5.153 10.977 5 12 5c1.023 0 2.103.153 2.975 1.025A3.5 3.5 0 0 1 16 8.5V9H8v-.5a3.5 3.5 0 0 1 1.025-2.475ZM4 8a1 1 0 1 0 0 2 1 1 0 0 0 0-2ZM2 9a2 2 0 1 1 4 0 2 2 0 0 1-4 0Zm2 4c-.936 0-1.68.145-2.268.732A2.5 2.5 0 0 0 1.051 15h5.898a2.5 2.5 0 0 0-.681-1.268C5.68 13.145 4.936 13 4 13Zm-2.975.025C1.897 12.153 2.977 12 4 12c1.023 0 2.103.153 2.975 1.025A3.5 3.5 0 0 1 8 15.5v.5H0v-.5a3.5 3.5 0 0 1 1.025-2.475Z" clip-rule="evenodd"/>
</svg>
