<svg xmlns="http://www.w3.org/2000/svg" width="16" height="16" fill="none"><path d="M11.666.027a2.034 2.034 0 0 0-1.59 1.413c-.09.289-.09.831 0 1.12a2.06 2.06 0 0 0 1.364 1.364c.289.09.831.09 1.12 0a2.06 2.06 0 0 0 1.364-1.364c.09-.289.09-.831 0-1.12a2.038 2.038 0 0 0-1.35-1.354c-.241-.07-.686-.099-.908-.059m.769 1.078c.181.092.383.297.473.482.057.115.065.17.065.413 0 .256-.006.293-.077.432a.998.998 0 0 1-1.042.553 1.009 1.009 0 0 1-.75-.553c-.071-.139-.077-.176-.077-.432 0-.244.008-.297.065-.413.116-.235.343-.443.585-.536.064-.024.183-.035.351-.03.22.006.275.018.407.084M11.227 5.04c-1.103.126-1.921.567-2.515 1.357a3.5 3.5 0 0 0-.705 1.902c-.012.208-.005.284.031.379a.487.487 0 0 0 .361.306c.193.041 7.009.041 7.202 0 .17-.037.3-.147.361-.306.036-.095.043-.171.031-.379-.071-1.224-.801-2.346-1.879-2.885a3.854 3.854 0 0 0-.994-.322c-.253-.048-.427-.059-1-.066-.381-.005-.783.001-.893.014m1.66 1.027c.85.152 1.463.582 1.824 1.281.103.197.222.529.222.615 0 .031-.442.037-2.933.037-2.491 0-2.933-.006-2.933-.037 0-.09.121-.422.23-.63.375-.715 1.039-1.16 1.903-1.277.366-.049.415-.051.947-.041.296.006.603.027.74.052m-9.358.988c-.466.102-.949.449-1.224.879a2.022 2.022 0 0 0 0 2.132c.278.434.747.77 1.236.884.232.054.686.054.918 0 .489-.114.958-.45 1.236-.884a2.022 2.022 0 0 0 0-2.132c-.282-.44-.761-.779-1.244-.881a2.94 2.94 0 0 0-.922.002m.7.98c.696.146.996 1.018.545 1.587a1.04 1.04 0 0 1-.466.331 1.522 1.522 0 0 1-.616 0c-.261-.078-.52-.33-.623-.607a1.092 1.092 0 0 1 0-.692c.113-.303.393-.554.689-.618a.906.906 0 0 1 .471-.001m-.749 3.982a7.517 7.517 0 0 0-.933.147 3.395 3.395 0 0 0-2.241 1.915c-.241.548-.377 1.358-.269 1.609a.66.66 0 0 0 .291.284c.052.019 1.201.028 3.675.028 3.001 0 3.613-.006 3.685-.037a.66.66 0 0 0 .284-.291c.039-.106.035-.389-.011-.673-.201-1.235-.944-2.207-2.045-2.676-.485-.206-.987-.294-1.769-.308a11.933 11.933 0 0 0-.667.002m1.547 1.075c.283.061.587.18.833.326.219.129.549.454.713.701.154.232.321.607.35.784l.017.11H1.06l.017-.11c.029-.177.196-.552.349-.783.41-.616 1.008-.965 1.854-1.079a9.43 9.43 0 0 1 .827-.015c.544.007.697.018.92.066" fill-rule="evenodd" fill="#000"/></svg>