<svg xmlns="http://www.w3.org/2000/svg" width="36" height="36" fill="none" viewBox="0 0 24 24"><path d="M27.748 1.561c-1.703.308-3.058 1.513-3.577 3.179-.203.651-.203 1.869 0 2.52a4.627 4.627 0 0 0 3.069 3.069c.651.203 1.869.203 2.52 0a4.627 4.627 0 0 0 3.069-3.069c.203-.651.203-1.869 0-2.52-.458-1.472-1.613-2.63-3.038-3.047-.541-.158-1.543-.223-2.043-.132m1.537 1.549c1.109.289 1.989 1.276 2.165 2.425.15.98-.14 1.864-.846 2.572C30.003 8.71 29.32 9 28.5 9a2.869 2.869 0 0 1-2.02-.802c-1.995-1.854-.697-5.191 2.02-5.191.214 0 .568.046.785.103M11.85 4.568c-2.203.275-4.273 1.8-5.218 3.845a6.755 6.755 0 0 0 .384 6.383c.915 1.487 2.348 2.529 4.14 3.011.511.137.687.154 1.594.154s1.083-.017 1.594-.154c2.98-.802 4.991-3.241 5.139-6.232.206-4.194-3.431-7.532-7.633-7.007m2.22 1.608c1.804.463 3.257 1.915 3.758 3.754.183.674.187 1.956.006 2.616-.504 1.844-1.818 3.193-3.656 3.754-.472.144-.623.161-1.428.161-.805 0-.956-.017-1.428-.161-1.832-.559-3.154-1.909-3.65-3.73-.187-.685-.187-1.955 0-2.64.467-1.716 1.782-3.122 3.418-3.658.901-.295 2.059-.332 2.98-.096m13.35 5.887c-2.822.351-5.039 1.503-5.937 3.084-.385.678-.44.96-.468 2.41-.029 1.481-.006 1.601.363 1.825.187.115.354.118 7.122.118s6.935-.003 7.122-.118c.346-.21.378-.348.378-1.622 0-.827-.027-1.267-.095-1.578-.436-1.969-2.54-3.474-5.605-4.008-.794-.139-2.217-.194-2.88-.111m2.178 1.527c2.634.345 4.506 1.475 4.84 2.923.032.141.06.534.061.872L34.5 18h-12l.001-.615c.003-1.001.161-1.45.724-2.05.782-.835 2.357-1.502 4.105-1.741.81-.11 1.45-.112 2.268-.004M11.22 21.04c-.851.047-1.958.155-2.64.259-4.102.625-6.485 2.322-6.985 4.973-.08.421-.095 1.072-.095 4.068 0 3.935-.012 3.805.378 4.042.189.115.385.118 10.872.118s10.683-.003 10.872-.118c.39-.237.378-.11.378-4.011 0-3.893-.021-4.184-.362-5.036-.896-2.236-3.372-3.631-7.318-4.12-1.45-.179-3.64-.255-5.1-.175m4.2 1.579c1.749.168 3.323.533 4.428 1.029 1.019.457 1.879 1.213 2.259 1.987.376.764.391.924.392 4.32L22.5 33H3l.001-3.045c.001-3.396.016-3.556.392-4.32.816-1.659 3.205-2.721 6.777-3.013.429-.035.928-.074 1.11-.086.564-.039 3.477.02 4.14.083" fill-rule="evenodd" fill="#000"/></svg>