<svg xmlns="http://www.w3.org/2000/svg" width="24" height="24" fill="none" viewBox="0 0 24 24">
  <path stroke="currentColor" stroke-linecap="round" stroke-linejoin="round" d="M15.5 22.5h-14v-4.313c0-1.213.725-2.307 1.846-2.772 1.135-.47 2.824-.915 5.154-.915s4.019.445 5.154.916a2.994 2.994 0 0 1 1.846 2.771V22.5ZM8.5 11.5a4 4 0 1 0 0-8 4 4 0 0 0 0 8ZM23.5 11.336c0-.604-.265-1.179-.738-1.554C22.039 9.208 20.785 8.5 19 8.5s-3.039.708-3.762 1.282c-.473.375-.738.95-.738 1.554V12.5h9v-1.164ZM19 6.5a2.5 2.5 0 1 0 0-5 2.5 2.5 0 0 0 0 5Z"/>
</svg>
