<svg width="16" height="16" fill="none" xmlns="http://www.w3.org/2000/svg"><path d="M9.587.523a3.564 3.564 0 0 0-1.169.364c-.329.168-.404.262-.404.512-.001.135.012.184.073.276.04.061.121.135.179.164.174.089.309.072.641-.079.567-.259 1.034-.319 1.56-.2.484.109.857.308 1.217.647.399.377.627.786.774 1.393.026.11.035.413.035 1.2 0 1.158-.002 1.179-.176 1.629-.18.469-.624.984-1.052 1.222a6.82 6.82 0 0 0-.308.178.531.531 0 0 0-.21.364c0 .038.053.436.118.884.098.678.13.838.188.955.095.19.278.371.462.457.088.041.786.229 1.655.445.826.206 1.537.392 1.578.413a.524.524 0 0 1 .238.348c.018.085.026.607.021 1.465L15 14.493l-1.335.014-1.336.013-.093.064a.452.452 0 0 0-.223.416c0 .207.087.353.26.437.115.055.141.056 1.727.056s1.612-.001 1.727-.056c.07-.034.145-.1.188-.165l.072-.108v-1.802c0-1.953 0-1.947-.148-2.243-.149-.299-.476-.608-.761-.721-.043-.017-.76-.203-1.593-.412a64.645 64.645 0 0 1-1.529-.394 7.617 7.617 0 0 1-.091-.543c-.073-.499-.075-.531-.031-.563.533-.387.805-.649 1.045-1.005.195-.288.413-.753.491-1.048.114-.426.129-.656.117-1.806-.012-1.036-.014-1.075-.081-1.351-.168-.695-.462-1.214-.978-1.73a3.457 3.457 0 0 0-1.761-.963c-.221-.05-.893-.088-1.08-.06m-4.415.999c-1.555.145-2.82 1.311-3.121 2.875-.044.227-.063 2.162-.025 2.489.05.432.142.742.332 1.127.272.552.606.961 1.049 1.285.117.086.233.167.258.182.043.025.041.06-.032.567a5.91 5.91 0 0 1-.094.556c-.009.01-.579.177-1.267.372-.687.195-1.314.384-1.394.419-.372.167-.653.481-.803.899-.061.173-.062.178-.062 1.522v1.349l.072.108a.51.51 0 0 0 .189.165l.117.057 5.149-.007 5.148-.007.103-.082c.203-.162.196-.106.195-1.571 0-1.363-.003-1.409-.119-1.68a1.6 1.6 0 0 0-.693-.727c-.073-.037-.712-.232-1.421-.433a59.653 59.653 0 0 1-1.298-.377 14.438 14.438 0 0 1-.148-1.035c0-.06.033-.095.189-.202.742-.507 1.311-1.407 1.452-2.3.036-.224.041-.454.031-1.411-.012-1.216-.016-1.256-.164-1.715a4.6 4.6 0 0 0-.435-.875c-.717-1.053-1.983-1.665-3.208-1.55m.726 1.022c.971.188 1.713.877 2.013 1.869.072.24.072.243.083 1.246.007.651 0 1.072-.019 1.194a2.535 2.535 0 0 1-1.339 1.871c-.231.12-.334.228-.371.389-.036.155.194 1.729.28 1.917a.99.99 0 0 0 .452.463c.09.043.739.242 1.443.442 1.383.392 1.417.406 1.509.609.046.1.05.189.05 1.036l.001.927-4.5-.007-4.5-.007v-1.866l.072-.122a.464.464 0 0 1 .186-.182c.064-.032.681-.219 1.372-.414.692-.196 1.314-.384 1.383-.418.171-.086.396-.334.462-.51.073-.199.287-1.734.261-1.873-.027-.14-.182-.287-.457-.435-.71-.381-1.185-1.118-1.268-1.968-.045-.456-.017-1.962.041-2.217.259-1.147 1.253-1.97 2.392-1.979a2.93 2.93 0 0 1 .454.035" fill-rule="evenodd" fill="#000"/></svg>