<svg xmlns="http://www.w3.org/2000/svg" width="24" height="24" fill="none"><path d="M18.499 1.04a3.05 3.05 0 0 0-2.385 2.12c-.135.434-.135 1.246 0 1.68a3.086 3.086 0 0 0 2.046 2.046c.434.135 1.246.135 1.68 0a3.086 3.086 0 0 0 2.046-2.046c.135-.434.135-1.246 0-1.68-.305-.981-1.076-1.753-2.025-2.031-.361-.106-1.029-.149-1.362-.089m1.024 1.033a2.011 2.011 0 0 1 1.444 1.617c.1.653-.094 1.243-.564 1.714C20.002 5.807 19.547 6 19 6c-.515 0-.962-.178-1.347-.535-1.33-1.236-.464-3.46 1.347-3.46.143 0 .378.031.523.068M7.9 3.045c-1.469.184-2.849 1.2-3.479 2.564a4.503 4.503 0 0 0 .256 4.255c.61.991 1.565 1.686 2.76 2.007.341.092.458.103 1.063.103s.722-.011 1.063-.103c1.987-.534 3.327-2.16 3.425-4.154.138-2.796-2.286-5.022-5.088-4.672m1.48 1.072c1.203.309 2.171 1.277 2.505 2.503.123.449.125 1.304.004 1.744-.336 1.23-1.212 2.129-2.437 2.503-.315.095-.415.107-.952.107-.537 0-.637-.012-.952-.107-1.221-.373-2.103-1.273-2.433-2.487-.125-.457-.125-1.303 0-1.76.311-1.144 1.188-2.082 2.279-2.439a3.781 3.781 0 0 1 1.986-.064m8.9 3.925c-1.881.234-3.359 1.002-3.958 2.056-.257.452-.293.64-.312 1.607-.02.987-.004 1.067.242 1.217.125.076.236.078 4.748.078 4.512 0 4.623-.002 4.748-.078.231-.141.252-.233.252-1.082 0-.551-.018-.844-.064-1.052-.29-1.312-1.693-2.316-3.736-2.672-.529-.093-1.478-.129-1.92-.074m1.452 1.018c1.756.23 3.004.984 3.226 1.948.022.095.04.357.041.582L23 12h-8l.001-.41c.002-.667.107-.966.482-1.367.522-.556 1.571-1.001 2.737-1.16.54-.074.967-.075 1.512-.003M7.48 14.027a21.32 21.32 0 0 0-1.76.172c-2.735.417-4.324 1.548-4.657 3.315-.053.281-.063.716-.063 2.712 0 2.624-.008 2.537.252 2.696.126.076.257.078 7.248.078 6.991 0 7.122-.002 7.248-.078.26-.159.252-.074.252-2.675 0-2.595-.014-2.789-.241-3.357-.597-1.491-2.248-2.42-4.879-2.746-.967-.12-2.426-.17-3.4-.117m2.8 1.053c1.166.111 2.215.355 2.952.685.679.305 1.253.809 1.506 1.325.251.509.261.616.261 2.88L15 22H2l.001-2.03c0-2.264.01-2.371.261-2.88.544-1.106 2.137-1.814 4.518-2.009.286-.023.619-.049.74-.057.376-.026 2.318.013 2.76.056" fill-rule="evenodd" fill="#000"/></svg>