<svg xmlns="http://www.w3.org/2000/svg" viewBox="0 0 48 48" style="enable-background:new 0 0 48 48" xml:space="preserve"><path d="M11.24 10.087c-2.187.262-4.16 1.877-4.88 3.993-.552 1.623-.354 3.497.527 4.982.448.756 1.396 1.685 2.157 2.114a6.064 6.064 0 0 0 5.913 0c.792-.445 1.774-1.427 2.219-2.219a6.066 6.066 0 0 0 0-5.914c-.445-.792-1.427-1.774-2.219-2.219a6.34 6.34 0 0 0-3.717-.737m24 0c-2.187.262-4.16 1.877-4.88 3.993-.552 1.623-.354 3.497.527 4.982.448.756 1.396 1.685 2.157 2.114a6.064 6.064 0 0 0 5.913 0c.792-.445 1.774-1.427 2.219-2.219a6.066 6.066 0 0 0 0-5.914c-.445-.792-1.427-1.774-2.219-2.219a6.34 6.34 0 0 0-3.717-.737m-22.195 2.041C14.822 12.649 16 14.194 16 16c0 2.214-1.786 4-4 4s-4-1.786-4-4c0-2.205 1.772-3.991 3.965-3.998.363-.001.837.054 1.08.126m24 0C38.822 12.649 40 14.194 40 16c0 2.214-1.786 4-4 4s-4-1.786-4-4c0-2.205 1.772-3.991 3.965-3.998.363-.001.837.054 1.08.126M5.36 24.078c-1.184.164-2.037.59-2.889 1.444-.438.439-.69.776-.901 1.204-.518 1.053-.527 1.165-.529 6.494L1.04 38h21.92l-.001-4.78c-.002-3.883-.024-4.885-.119-5.34-.354-1.694-1.759-3.166-3.52-3.688-.441-.131-1.012-.144-7-.159-3.586-.009-6.718.011-6.96.045m24 0c-1.184.164-2.037.59-2.889 1.444-.438.439-.69.776-.901 1.204-.518 1.053-.527 1.165-.529 6.494L25.04 38h21.92l-.001-4.78c-.002-3.883-.024-4.885-.119-5.34-.354-1.694-1.759-3.166-3.52-3.688-.441-.131-1.012-.144-7-.159-3.586-.009-6.718.011-6.96.045M19.28 26.25c.679.324 1.076.719 1.418 1.41l.302.611.024 3.865.023 3.864H2.953l.023-3.86L3 28.28l.247-.52c.408-.858.911-1.325 1.737-1.612.39-.136.833-.143 7.136-.126l6.72.018.44.21m24 0c.679.324 1.076.719 1.418 1.41l.302.611.024 3.865.023 3.864H26.953l.023-3.86.024-3.86.247-.52c.408-.858.911-1.325 1.737-1.612.39-.136.833-.143 7.136-.126l6.72.018.44.21" fill-rule="evenodd"/></svg>