<svg xmlns="http://www.w3.org/2000/svg" width="16" height="16" fill="currentColor" viewBox="0 0 16 16">
  <path fill-rule="evenodd" d="M3.807.05A1.538 1.538 0 0 1 5.6.914l1.393 3.137a1.538 1.538 0 0 1-.445 1.825l-1.184.947a12.39 12.39 0 0 0 3.813 3.813l.947-1.184a1.544 1.544 0 0 1 1.825-.444l3.137 1.393a1.538 1.538 0 0 1 .864 1.793l-.688 2.65a1.545 1.545 0 0 1-1.705 1.141h-.002A15.906 15.906 0 0 1 .016 2.445v-.002A1.546 1.546 0 0 1 1.155.737L3.806.05Zm7.097 10.027-1.221 1.527a.5.5 0 0 1-.644.12A13.39 13.39 0 0 1 4.277 6.96a.5.5 0 0 1 .119-.643l1.528-1.222a.538.538 0 0 0 .155-.639L4.686 1.32a.538.538 0 0 0-.627-.302l-2.651.687a.548.548 0 0 0-.403.601 14.907 14.907 0 0 0 12.689 12.689.544.544 0 0 0 .6-.402l.688-2.65a.54.54 0 0 0-.302-.628l-3.137-1.393" clip-rule="evenodd"/>
  <path fill-rule="evenodd" d="M9.84 4.266A3.5 3.5 0 0 0 8.5 4V3A4.5 4.5 0 0 1 13 7.5h-1a3.5 3.5 0 0 0-2.16-3.234Z" clip-rule="evenodd"/>
  <path fill-rule="evenodd" d="M10.987 1.495A6.5 6.5 0 0 0 8.5 1V0A7.5 7.5 0 0 1 16 7.5h-1a6.5 6.5 0 0 0-4.013-6.005Z" clip-rule="evenodd"/>
</svg>
