<svg xmlns="http://www.w3.org/2000/svg" width="16" height="16" fill="none"><path d="M8 .996v.489l.527.019c1.068.037 1.794.209 2.618.619A5.977 5.977 0 0 1 14.44 6.68c.021.147.046.504.056.793l.019.527h.985l-.013-.607c-.015-.694-.058-1.029-.207-1.621a6.085 6.085 0 0 0-.506-1.359 5.917 5.917 0 0 0-.692-1.133c-.251-.336-.887-.994-1.202-1.242A8.016 8.016 0 0 0 10.893.92 7.16 7.16 0 0 0 8.437.507H8v.489m-4.413.926c-.142.024-2.308.584-2.534.655-.42.133-.757.488-.896.946-.072.239-.061.563.041 1.104.652 3.479 2.508 6.492 5.295 8.599a13.898 13.898 0 0 0 6.114 2.612c.554.09.807.068 1.135-.096.207-.104.484-.372.589-.568.063-.118.175-.499.422-1.434.328-1.242.336-1.28.336-1.553 0-.238-.01-.307-.069-.457-.127-.327-.336-.581-.599-.73-.219-.123-2.946-1.322-3.1-1.362a1.448 1.448 0 0 0-1.251.298 8.503 8.503 0 0 0-.54.628l-.424.528-.113-.073c-1.08-.689-2.192-1.794-2.975-2.958l-.112-.166.527-.423c.553-.444.677-.563.788-.755.169-.293.228-.752.137-1.065-.05-.169-1.234-2.85-1.353-3.062-.18-.32-.606-.612-.978-.67a1.051 1.051 0 0 0-.44.002m.417 1.043c.125.071.073-.034.811 1.622.612 1.371.632 1.428.543 1.613-.024.051-.352.332-.898.77l-.86.69.085.15a11.906 11.906 0 0 0 4.507 4.506l.152.086.688-.861c.432-.54.718-.876.768-.9.176-.086.222-.07 1.667.57.755.334 1.405.625 1.444.645.101.052.182.197.182.326 0 .147-.603 2.454-.662 2.536-.144.198-.256.211-.871.097-4.033-.745-7.399-3.264-9.214-6.895-.579-1.158-.915-2.168-1.16-3.48-.096-.514-.097-.647-.009-.763a.515.515 0 0 1 .133-.124c.102-.053 2.373-.642 2.486-.644a.464.464 0 0 1 .208.056M8 3.993V4.5l.487.013c.408.012.528.025.746.082a3.021 3.021 0 0 1 2.172 2.172c.057.218.07.338.082.746L11.5 8H12.507l-.001-.3c-.002-.779-.126-1.357-.424-1.967a3.96 3.96 0 0 0-1.761-1.785c-.592-.304-1.05-.413-1.865-.445L8 3.485v.508" fill-rule="evenodd" fill="#000"/></svg>