<svg xmlns="http://www.w3.org/2000/svg" width="24" height="24" fill="none" viewBox="0 0 24 24"><path stroke="currentColor" stroke-linecap="round" stroke-linejoin="round" d="M15.808 14.688 13.667 16.8a17.38 17.38 0 0 1-3.092-2.375A17.61 17.61 0 0 1 8.2 11.332l2.11-2.141a.918.918 0 0 0 .19-1.005L8.3 3.058a.918.918 0 0 0-1.078-.525L3.188 3.6a.919.919 0 0 0-.688.916 19.4 19.4 0 0 0 5.49 12.493A19.4 19.4 0 0 0 20.486 22.5a.915.915 0 0 0 .917-.687l1.066-4.036a.917.917 0 0 0-.524-1.078L16.816 14.5a.916.916 0 0 0-1.008.188v0Z"/></svg>