<svg xmlns="http://www.w3.org/2000/svg" width="16" height="16" fill="none"><path d="M3.88.036C3.552.107 1.115.749.974.802.413 1.012 0 1.614 0 2.221c0 .25.167 1.188.324 1.819.882 3.553 2.893 6.609 5.836 8.87 1.834 1.409 4.174 2.464 6.467 2.914.969.19 1.187.208 1.517.123a1.53 1.53 0 0 0 1.054-.921c.031-.083.221-.777.422-1.542l.365-1.391v-.306c-.001-.268-.01-.33-.071-.486-.152-.385-.399-.669-.735-.843-.431-.223-3.35-1.501-3.521-1.542a1.645 1.645 0 0 0-1.061.145c-.222.113-.387.282-.887.909-.283.354-.53.643-.548.643-.043 0-.504-.317-.904-.621A12.262 12.262 0 0 1 5.962 7.68c-.287-.382-.575-.807-.575-.849 0-.014.294-.261.653-.549.411-.33.693-.577.759-.664.28-.371.39-.887.28-1.309C7.027 4.107 5.6.893 5.479.703A1.56 1.56 0 0 0 3.88.036m.528 1.013c.186.079.222.147.976 1.844.795 1.792.79 1.776.682 2.016-.043.095-.185.22-.908.799-.739.592-.863.702-.901.796-.098.247-.057.365.348.986a13.638 13.638 0 0 0 3.248 3.445c.382.284.873.611 1.139.757.196.108.328.121.504.051.094-.038.204-.162.796-.901.579-.723.704-.865.799-.908.238-.107.226-.111 1.98.666.885.391 1.646.737 1.691.767a.482.482 0 0 1 .219.389c.009.128-.043.357-.338 1.497-.191.741-.375 1.399-.408 1.464a.551.551 0 0 1-.358.27c-.16.036-.951-.102-1.784-.312a14.81 14.81 0 0 1-5.226-2.487A15.531 15.531 0 0 1 3.8 9.12a15.105 15.105 0 0 1-2.44-5.073c-.195-.754-.347-1.555-.347-1.838 0-.171.091-.338.232-.425.133-.083 2.742-.765 2.936-.768a.703.703 0 0 1 .227.033" fill-rule="evenodd" fill="#000"/></svg>