<svg xmlns="http://www.w3.org/2000/svg" width="24" height="24" fill="none"><path d="M7.18 2.029c-1.392.344-4.31 1.153-4.465 1.238a1.4 1.4 0 0 0-.59.648c-.097.208-.105.263-.1.725.005.528.087 1.306.219 2.096.681 4.06 2.665 7.925 5.5 10.711 2.793 2.744 6.561 4.646 10.52 5.309a21.13 21.13 0 0 0 1.958.228c.35.021.488.013.665-.038.293-.086.576-.28.757-.52.176-.234.204-.323.843-2.726.443-1.665.489-1.872.489-2.18 0-.289-.016-.374-.109-.566a1.434 1.434 0 0 0-.636-.658c-.595-.302-5.355-2.307-5.564-2.344a1.444 1.444 0 0 0-.865.135c-.126.06-.494.396-1.191 1.087l-1.009.999-.291-.193c-1.756-1.163-3.247-2.664-4.327-4.355l-.15-.236.976-.984c.537-.542 1.014-1.048 1.06-1.125.045-.077.114-.247.151-.377.132-.456.131-.459-1.086-3.303-1.232-2.878-1.278-2.977-1.46-3.159-.34-.34-.885-.513-1.295-.412m.461 1.032a.48.48 0 0 1 .177.175c.198.383 2.262 5.26 2.262 5.345 0 .113-.611.782-1.679 1.839-.312.308-.592.609-.624.668-.124.235-.081.384.275.936 1.312 2.039 2.818 3.554 4.851 4.88.595.389.725.439.925.355.092-.038.556-.466 1.275-1.177.927-.916 1.155-1.122 1.269-1.143.121-.023.468.115 2.733 1.084 1.427.61 2.653 1.152 2.723 1.204.082.06.137.142.152.224.018.094-.124.689-.519 2.183-.299 1.13-.569 2.104-.6 2.165-.117.226-.325.239-1.541.097-4.523-.53-8.924-2.811-11.743-6.087a18.291 18.291 0 0 1-2.71-4.129 18.837 18.837 0 0 1-1.848-6.945c-.027-.363-.026-.366.09-.496.112-.125.195-.151 2.194-.682a82.956 82.956 0 0 1 2.149-.555.495.495 0 0 1 .189.059" fill-rule="evenodd" fill="#000"/></svg>