<svg xmlns="http://www.w3.org/2000/svg" width="24" height="24" fill="none" viewBox="0 0 24 24"><path stroke="currentColor" fill="none" stroke-linecap="round" stroke-linejoin="round" d="M14.808 15.691 12.667 17.8a17.408 17.408 0 0 1-3.092-2.376 17.606 17.606 0 0 1-2.375-3.09l2.11-2.141a.918.918 0 0 0 .189-1L7.3 4.06a.918.918 0 0 0-1.078-.525L2.188 4.6a.92.92 0 0 0-.688.919 19.4 19.4 0 0 0 5.49 12.492A19.4 19.4 0 0 0 19.486 23.5a.917.917 0 0 0 .917-.688l1.066-4.036a.917.917 0 0 0-.524-1.078L15.816 15.5a.917.917 0 0 0-1.008.191v0ZM14.5 1.5a9 9 0 0 1 9 9M14.5 5.5a5 5 0 0 1 5 5"/></svg>