<svg xmlns="http://www.w3.org/2000/svg" width="17" height="16" fill="none" viewBox="0 0 17 16"><path stroke="currentColor" stroke-linecap="round" stroke-linejoin="round" d="m10.178 10.529-1.059 1.325a11.187 11.187 0 0 1-3.973-3.973l1.325-1.059a.9.9 0 0 0 .26-1.068L5.524 3.036a.9.9 0 0 0-1.049-.506l-2.3.6a.9.9 0 0 0-.668 1 13.35 13.35 0 0 0 11.367 11.361.9.9 0 0 0 1-.668l.6-2.3a.9.9 0 0 0-.506-1.048l-2.722-1.205a.9.9 0 0 0-1.068.259v0ZM9.5 4A3.5 3.5 0 0 1 13 7.5M9.5 1A6.5 6.5 0 0 1 16 7.5"/></svg>