<svg xmlns="http://www.w3.org/2000/svg" width="24" height="24" fill="none"><path d="M14.252 1.078a.478.478 0 0 0-.174.67c.12.196.247.238.812.269 2.187.117 4.087.957 5.611 2.482 1.525 1.524 2.365 3.424 2.482 5.611.031.565.073.692.269.812.24.146.555.055.686-.198.074-.142.081-.53.02-1.13a9.405 9.405 0 0 0-2.87-5.919 9.376 9.376 0 0 0-5.768-2.634c-.693-.061-.919-.054-1.068.037M6.22 3.025c-2.024.514-4.252 1.124-4.446 1.217-.289.14-.502.361-.649.673-.097.208-.105.263-.1.725.005.528.087 1.306.219 2.096A20.022 20.022 0 0 0 5.6 17.211c2.638 3.149 6.533 5.458 10.744 6.369a20.5 20.5 0 0 0 2.878.404c.35.021.488.013.665-.038.293-.086.576-.28.757-.52.176-.234.203-.322.842-2.726.437-1.644.49-1.876.492-2.18.002-.294-.013-.371-.109-.566a1.448 1.448 0 0 0-.638-.658c-.116-.059-1.363-.602-2.771-1.206-2.833-1.215-2.881-1.231-3.341-1.113a1.881 1.881 0 0 0-.396.151c-.079.047-.588.527-1.132 1.066l-.988.98-.292-.193c-1.213-.804-2.333-1.791-3.157-2.783a18.788 18.788 0 0 1-1.17-1.573l-.15-.236.976-.984c.537-.542 1.014-1.048 1.059-1.125.103-.172.211-.532.211-.699 0-.068-.027-.229-.061-.358-.058-.222-2.067-4.959-2.301-5.425a1.417 1.417 0 0 0-1.162-.777 1.7 1.7 0 0 0-.336.004m.421 1.036a.49.49 0 0 1 .182.185c.035.068.559 1.278 1.163 2.688.927 2.164 1.095 2.586 1.075 2.695-.019.102-.263.372-1.143 1.266-.699.71-1.141 1.19-1.178 1.279-.082.197-.032.33.344.906 1.324 2.028 2.808 3.512 4.836 4.836.575.375.709.426.905.345.088-.037.577-.487 1.282-1.179.905-.89 1.166-1.125 1.271-1.144.113-.021.518.14 2.727 1.085 1.427.61 2.653 1.152 2.723 1.204.082.06.137.142.152.224.018.094-.124.69-.521 2.188-.3 1.133-.575 2.109-.61 2.169-.1.168-.236.204-.658.173a18.931 18.931 0 0 1-11.173-4.704c-2.713-2.4-4.789-6.03-5.615-9.817a21.755 21.755 0 0 1-.385-2.73l-.026-.37.134-.132c.126-.124.232-.158 1.854-.584.946-.249 1.873-.494 2.06-.545.412-.113.452-.115.601-.038m7.611 1.017a.478.478 0 0 0-.172.673c.111.181.266.235.823.284 1.311.117 2.422.745 3.225 1.822.478.64.761 1.4.835 2.239.049.556.104.713.286.824a.453.453 0 0 0 .499.002c.26-.159.306-.441.193-1.193-.378-2.518-2.347-4.413-4.869-4.687-.543-.059-.674-.053-.82.036" fill-rule="evenodd" fill="#000"/></svg>