<svg xmlns="http://www.w3.org/2000/svg" width="24" height="24" fill="none"><path d="M15.252 2.078c-.217.133-.311.41-.208.615.025.048.369.413.765.812.396.399.704.734.685.745l-5.968 3.33-5.934 3.311-.906-.901c-.498-.496-.945-.921-.993-.946-.375-.189-.838.274-.649.649.024.048 1.442 1.487 3.15 3.197L8.3 16l-3.106 3.11c-1.708 1.711-3.126 3.149-3.15 3.197-.189.375.274.838.649.649.048-.024 1.486-1.442 3.197-3.15L9 16.7l3.11 3.106c1.71 1.708 3.149 3.126 3.197 3.15.375.189.838-.274.649-.649-.025-.048-.449-.494-.944-.991l-.9-.905 3.331-5.968 3.331-5.968.723.718c.398.395.762.738.81.763.375.189.838-.274.649-.649-.063-.124-7.113-7.18-7.244-7.25a.446.446 0 0 0-.46.021m4.771 5.68L16.72 13.68a951.868 951.868 0 0 1-3.326 5.939c-.038.041-8.043-7.932-8.023-7.991.006-.018 2.683-1.525 5.95-3.348l5.939-3.317 1.388 1.386c.763.762 1.382 1.396 1.375 1.409" fill-rule="evenodd" fill="#000"/></svg>