<svg xmlns="http://www.w3.org/2000/svg" width="16" height="16" fill="none"><path d="M9.293.049a.45.45 0 0 0-.268.321.503.503 0 0 0 .041.377c.019.037.305.339.636.673.355.357.592.616.577.629-.04.035-8.007 4.458-8.03 4.458-.011 0-.339-.317-.728-.704-.389-.387-.749-.724-.799-.749a.57.57 0 0 0-.522.051.511.511 0 0 0-.159.596c.029.071 1.482 1.54 5.06 5.12 2.76 2.761 5.064 5.051 5.118 5.09a.495.495 0 0 0 .756-.28.474.474 0 0 0-.079-.426 15.943 15.943 0 0 0-.735-.765 16.818 16.818 0 0 1-.668-.686c0-.019 4.445-8.021 4.469-8.045.007-.007.285.258.618.589.334.331.636.617.673.636.181.095.441.069.578-.057a.533.533 0 0 0 .128-.578c-.029-.07-.921-.98-3.033-3.094C11.28 1.558 9.877.168 9.807.117a.495.495 0 0 0-.514-.068m-5.36 11.457a1.491 1.491 0 0 1-.106.027c-.109.023-3.701 3.602-3.776 3.76a.467.467 0 0 0 .112.565.46.46 0 0 0 .544.091c.072-.034.685-.63 1.924-1.873 1.878-1.883 1.875-1.88 1.875-2.076a.562.562 0 0 0-.263-.438c-.073-.038-.264-.072-.31-.056" fill-rule="evenodd" fill="#000"/></svg>