<svg xmlns="http://www.w3.org/2000/svg" width="24" height="24" fill="none"><path d="M15.643.069C15.291.193 15 .614 15 1c0 .342.103.509.664 1.08l.531.541-5.503 3.071-5.504 3.072-.824-.816c-.706-.699-.852-.825-1.021-.882-.388-.13-.765-.046-1.044.233-.278.278-.362.654-.234 1.044.06.182.581.714 6.67 6.81 3.861 3.865 6.68 6.657 6.785 6.72.152.091.226.107.48.107.256 0 .328-.016.489-.111.431-.253.606-.73.445-1.212-.057-.169-.183-.315-.88-1.019l-.815-.823 3.071-5.504 3.07-5.505.52.512c.286.282.583.545.66.586.1.053.226.075.44.075.258.001.327-.015.492-.112a.997.997 0 0 0 .394-1.313c-.06-.125-1.114-1.203-3.715-3.799C16.85.439 16.523.124 16.343.065a1.038 1.038 0 0 0-.7.004M3.895 18.69c-2.515 2.519-2.771 2.788-2.83 2.967-.129.39-.044.766.235 1.045a.986.986 0 0 0 1.144.185c.126-.061.954-.864 2.906-2.816l2.73-2.732-.71-.709-.711-.71-2.764 2.77" fill="currentColor" fill-rule="evenodd"/></svg>