<svg xmlns="http://www.w3.org/2000/svg" width="16" height="16" fill="none"><path d="M7.8.05a.492.492 0 0 0-.265.276c-.037.088-.042.503-.042 3.633v3.533L3.927 7.5c-3.512.007-3.568.007-3.658.06a.795.795 0 0 0-.173.156c-.074.092-.083.12-.083.284 0 .163.009.193.082.284.045.057.134.13.199.163l.117.06h7.082v7.082l.06.117a.712.712 0 0 0 .163.199c.091.073.121.082.284.082.163 0 .193-.009.284-.082a.712.712 0 0 0 .163-.199l.06-.117V8.507h7.082l.117-.06a.712.712 0 0 0 .199-.163c.073-.091.082-.121.082-.284 0-.164-.009-.192-.083-.284a.795.795 0 0 0-.173-.156c-.09-.053-.146-.053-3.658-.06l-3.566-.008-.001-3.539c0-3.384-.003-3.544-.05-3.646A.489.489 0 0 0 7.8.05" fill-rule="evenodd" fill="#000"/></svg>