<svg xmlns="http://www.w3.org/2000/svg" width="12" height="12" fill="none"><path d="M5.847.529a.513.513 0 0 0-.283.229L5.51.85l-.005 2.325L5.499 5.5H3.223C.752 5.5.841 5.496.691 5.611a.613.613 0 0 0-.127.147C.518 5.836.51 5.873.51 6c0 .128.008.164.055.244a.516.516 0 0 0 .27.227c.061.022.505.027 2.37.028l2.294.001.006 2.327.005 2.326.061.099a.497.497 0 0 0 .858 0l.061-.099.005-2.326.006-2.327 2.294-.001c1.865-.001 2.309-.006 2.37-.028a.516.516 0 0 0 .27-.227c.047-.08.055-.116.055-.244 0-.127-.008-.164-.054-.242a.613.613 0 0 0-.127-.147c-.15-.115-.061-.111-2.532-.111H6.501l-.006-2.325L6.49.85 6.436.758a.5.5 0 0 0-.589-.229" fill-rule="evenodd" fill="#000"/></svg>