<svg xmlns="http://www.w3.org/2000/svg" width="24" height="24" fill="none"><path d="M11.48 5v4h1.04V1h-1.04v4m-4.86-.547c-.862.545-1.416.988-2.089 1.672a10.487 10.487 0 0 0-2.806 9.53c.401 1.945 1.409 3.796 2.857 5.249a10.378 10.378 0 0 0 4.875 2.775c.972.246 1.418.299 2.543.299 1.125 0 1.571-.053 2.543-.299a10.528 10.528 0 0 0 6.779-5.375 10.282 10.282 0 0 0 1.154-5.404 10.214 10.214 0 0 0-1.099-4.145c-.977-1.949-2.373-3.398-4.343-4.509l-.225-.127-.221.391a6.702 6.702 0 0 0-.235.437c-.007.025.221.187.508.359 1.585.955 2.707 2.148 3.555 3.778.703 1.35 1.013 2.57 1.053 4.138.029 1.142-.05 1.815-.331 2.844-.692 2.525-2.58 4.791-4.958 5.952a9.727 9.727 0 0 1-2.821.888c-.642.101-2.076.101-2.718 0-2.122-.332-3.955-1.279-5.442-2.811-1.762-1.817-2.679-4.07-2.679-6.585 0-1.115.139-2.017.46-2.979.737-2.211 2.185-4.011 4.24-5.272.242-.148.446-.275.454-.281.018-.016-.487-.859-.514-.856-.011.001-.254.15-.54.331" fill-rule="evenodd" fill="#000"/></svg>