<svg xmlns="http://www.w3.org/2000/svg" width="16" height="16" fill="none"><path d="M7.493 4v4h1.014V0H7.493v4M3.427 2.556C1.716 3.934.745 5.701.531 7.827A9.228 9.228 0 0 0 .584 9.6c.095.6.245 1.153.453 1.673 1.023 2.56 3.35 4.342 6.11 4.679.36.044 1.346.044 1.706 0a7.557 7.557 0 0 0 4.398-2.109c1.179-1.165 1.901-2.58 2.165-4.243.069-.437.096-1.29.053-1.739a7.566 7.566 0 0 0-1.051-3.234c-.501-.822-1.116-1.499-1.981-2.181l-.191-.15-.276.351-.309.394c-.028.039.008.076.266.281 1.225.972 2.011 2.163 2.365 3.585.12.482.16.752.185 1.248a6.306 6.306 0 0 1-.663 3.233c-1.378 2.787-4.573 4.211-7.561 3.37a6.511 6.511 0 0 1-4.669-5.251 7.167 7.167 0 0 1 .017-2.115c.291-1.635 1.116-2.994 2.473-4.071.191-.151.29-.247.276-.266a55.417 55.417 0 0 0-.574-.726c-.022-.023-.11.034-.349.227" fill-rule="evenodd" fill="#000"/></svg>