<svg xmlns="http://www.w3.org/2000/svg" width="24" height="24" fill="none"><path d="M4.252 1.078C4.005 1.229 4 1.259 4 2.698V4H2.69c-1.229 0-1.318.005-1.438.078a.478.478 0 0 0-.174.67c.151.247.181.252 1.62.252H4v1.31c0 1.229.005 1.318.078 1.438.158.258.1.252 2.422.252s2.264.006 2.422-.252c.075-.124.078-.224.078-3.24 0-3.435.012-3.269-.252-3.43C8.625 1.004 8.532 1 6.5 1s-2.125.004-2.248.078M8 4.5V7H5V2h3v2.5m3.252-.422a.478.478 0 0 0-.174.67c.166.271-.321.252 6.43.252 5.991 0 6.115-.002 6.24-.078A.54.54 0 0 0 24 4.5a.54.54 0 0 0-.252-.422C23.623 4.002 23.499 4 17.5 4c-5.999 0-6.123.002-6.248.078m3 5c-.247.151-.252.181-.252 1.62V12H7.69c-6.188 0-6.312.002-6.438.078a.478.478 0 0 0-.174.67c.166.271-.341.252 6.62.252H14v1.31c0 1.229.005 1.318.078 1.438.158.258.1.252 2.422.252s2.264.006 2.422-.252c.075-.124.078-.224.078-3.24 0-3.435.012-3.269-.252-3.43C18.625 9.004 18.532 9 16.5 9s-2.125.004-2.248.078M18 12.5V15h-3v-5h3v2.5m3.252-.422a.478.478 0 0 0-.174.67c.148.243.201.252 1.422.252 1.221 0 1.274-.009 1.422-.252a.488.488 0 0 0-.198-.686c-.1-.052-.306-.062-1.232-.062-1.032 0-1.121.006-1.24.078m-17 5c-.247.151-.252.181-.252 1.62V20H2.69c-1.229 0-1.318.005-1.438.078a.478.478 0 0 0-.174.67c.151.247.181.252 1.62.252H4v1.31c0 1.229.005 1.318.078 1.438.158.258.1.252 2.422.252s2.264.006 2.422-.252c.075-.124.078-.224.078-3.24 0-3.435.012-3.269-.252-3.43C8.625 17.004 8.532 17 6.5 17s-2.125.004-2.248.078M8 20.5V23H5v-5h3v2.5m3.252-.422a.478.478 0 0 0-.174.67c.166.271-.321.252 6.43.252 5.991 0 6.115-.002 6.24-.078A.54.54 0 0 0 24 20.5a.54.54 0 0 0-.252-.422c-.125-.076-.249-.078-6.248-.078-5.999 0-6.123.002-6.248.078" fill-rule="evenodd" fill="#000"/></svg>