<svg xmlns="http://www.w3.org/2000/svg" width="16" height="16" fill="none"><path d="M3.292.05a.479.479 0 0 0-.276.351c-.019.086-.029.581-.029 1.373v1.238l-1.342.007-1.343.008-.1.077a.509.509 0 0 0-.165.584.66.66 0 0 0 .291.284C.378 3.99.849 4 1.694 4h1.29l.008 1.313c.007 1.177.013 1.322.053 1.396.059.107.216.245.309.271.095.026 3.197.026 3.292 0 .093-.026.25-.164.309-.271.041-.076.046-.32.052-3.122.005-2.123-.001-3.082-.022-3.18A.478.478 0 0 0 6.708.05C6.607.004 6.495.001 5 .001c-1.495 0-1.607.003-1.708.049M6 3.507V6H4V1.013h2v2.494m3.293-.463c-.229.127-.33.347-.268.586.04.156.121.252.268.32.102.047.25.049 3.208.049 3.402.001 3.193.011 3.357-.162a.46.46 0 0 0 .101-.524.426.426 0 0 0-.231-.249c-.096-.049-.21-.051-3.24-.05-2.239.001-3.157.009-3.195.03m0 6a.78.78 0 0 0-.249.249c-.04.073-.045.346-.051 3.12-.005 2.123.001 3.082.022 3.18.035.168.129.29.277.357.101.046.213.049 1.708.049 1.495 0 1.607-.003 1.708-.049a.479.479 0 0 0 .276-.351c.019-.086.029-.577.029-1.36v-1.226h1.226c.79 0 1.274-.01 1.362-.029a.495.495 0 0 0 .392-.547c-.015-.138-.069-.222-.217-.342l-.101-.082-1.33-.007-1.329-.008-.008-1.312c-.007-1.164-.013-1.322-.052-1.393a.74.74 0 0 0-.254-.25c-.082-.042-3.333-.04-3.409.001M12 12.507v2.506h-2V10h2v2.507M.36 12.023a.497.497 0 0 0 .045.962c.1.021 1.041.027 3.182.022 2.802-.006 3.046-.011 3.122-.052.11-.061.246-.218.266-.309a2.71 2.71 0 0 1 .026-.105c.019-.063-.061-.304-.124-.372a.65.65 0 0 0-.17-.119c-.102-.047-.247-.049-3.2-.047-1.702.001-3.118.01-3.147.02" fill-rule="evenodd" fill="#000"/></svg>