<svg xmlns="http://www.w3.org/2000/svg" width="16" height="16" fill="currentColor" viewBox="0 0 16 16">
  <path fill-rule="evenodd" d="M4.322 0h.011c1.634 0 2.68 1.207 3.283 2.25.15.257.277.514.384.755.107-.24.235-.498.384-.755C8.986 1.207 10.033 0 11.667 0h.023A2.422 2.422 0 0 1 14 2.5a2.421 2.421 0 0 1-.458 1.5H16v4H8.5v7H14V9h1v7H1V9h1v6h5.5V8H0V4h2.458A2.421 2.421 0 0 1 2 2.5 2.422 2.422 0 0 1 4.31 0h.012Zm.023 4h2.977a7.758 7.758 0 0 0-.571-1.25C6.2 1.796 5.417 1.006 4.345 1A1.422 1.422 0 0 0 3 2.48v.041A1.421 1.421 0 0 0 4.345 4Zm4.333 0h2.977A1.42 1.42 0 0 0 13 2.521V2.48A1.422 1.422 0 0 0 11.655 1c-1.072.006-1.855.796-2.406 1.75-.258.448-.446.9-.571 1.25ZM1 5v2h6.5V5H1Zm7.5 0v2H15V5H8.5Z" clip-rule="evenodd"/>
</svg>
