<svg xmlns="http://www.w3.org/2000/svg" width="24" height="24" fill="none"><path d="M6.551 1.039c-1.006.184-1.944.933-2.318 1.852A2.875 2.875 0 0 0 4.644 5.8l.158.2H1v5h11v12.002l-3.43-.011-3.43-.011-.244-.113a1.698 1.698 0 0 1-.764-.767l-.112-.24-.011-4.43L3.998 13h-1l.011 4.51.011 4.51.111.3c.265.72.826 1.282 1.549 1.549l.3.111h15.04l.3-.111a2.604 2.604 0 0 0 1.549-1.549l.111-.3.011-4.51.011-4.51h-1l-.011 4.43-.011 4.43-.112.24a1.698 1.698 0 0 1-.764.767l-.244.113-3.43.011-3.43.011V11h11V6h-3.802l.158-.2a2.91 2.91 0 0 0 .507-.96c.098-.298.112-.401.112-.84 0-.438-.014-.542-.111-.84-.319-.981-1.086-1.726-2.105-2.046-.426-.134-1.348-.134-1.951 0-1.001.221-1.865.723-2.677 1.555-.535.548-1.13 1.401-1.497 2.146l-.13.262-.194-.369C11.252 2.705 9.853 1.479 8.214 1.12c-.436-.096-1.343-.14-1.663-.081M8.116 2.12c1.443.352 2.743 1.685 3.6 3.69l.081.19h-2.49c-2.09 0-2.527-.01-2.722-.06-.794-.207-1.422-.882-1.552-1.67-.131-.789.35-1.662 1.127-2.044.165-.081.381-.164.48-.185.278-.058 1.093-.015 1.476.079m10.209-.08c.795.147 1.508.881 1.642 1.69.157.947-.546 1.948-1.552 2.21-.195.05-.632.06-2.721.06h-2.49l.087-.21a10.59 10.59 0 0 1 .764-1.428c.895-1.365 1.963-2.135 3.218-2.319.327-.048.802-.049 1.052-.003M12 8.5V10H2V7h10v1.5m11 0V10H13V7h10v1.5" fill-rule="evenodd" fill="#000"/></svg>