<svg xmlns="http://www.w3.org/2000/svg" width="16" height="16" fill="none"><path d="M3.998.041a2.445 2.445 0 0 0-1.889 1.667c-.137.444-.145 1.099-.018 1.526.068.231.212.549.314.693L2.457 4H0v4h7.493v7.013H5.767c-.95 0-1.802-.012-1.893-.025a1.01 1.01 0 0 1-.77-.556l-.077-.152-.008-2.633-.007-2.634H1.998l.008 2.687.007 2.687.063.186a2.074 2.074 0 0 0 1.364 1.351l.2.063h8.72l.2-.063a2.074 2.074 0 0 0 1.364-1.351l.063-.186.007-2.687.008-2.687h-1.014l-.007 2.634-.008 2.633-.077.152a1.01 1.01 0 0 1-.77.556c-.091.013-.943.025-1.893.025H8.507V8H16V4h-2.457l.055-.077c.101-.142.267-.52.324-.736.111-.421.098-1.068-.031-1.48-.327-1.049-1.37-1.774-2.438-1.695C10.13.11 9.046.97 8.201 2.591l-.203.39-.197-.384c-.339-.658-.666-1.12-1.093-1.544C6.123.474 5.503.146 4.797.042c-.337-.05-.527-.05-.799-.001m.81 1.015c.229.051.562.201.789.355.482.328.93.892 1.323 1.669.166.328.388.843.387.9 0 .011-.694.02-1.541.02-1.663 0-1.695-.002-1.975-.144a1.557 1.557 0 0 1-.7-.763c-.05-.121-.062-.212-.072-.525-.01-.329-.004-.403.044-.561.099-.326.393-.692.672-.835.312-.161.69-.201 1.073-.116m7.167 0c.454.135.826.502.962.951.048.158.054.232.044.561-.013.428-.035.506-.227.798a1.38 1.38 0 0 1-.516.473c-.3.16-.314.161-2.004.161-.873 0-1.541-.01-1.541-.024 0-.06.262-.663.415-.955.586-1.118 1.261-1.763 2.049-1.957.245-.06.628-.064.818-.008M7.493 6.013v1h-6.48v-2h6.48v1m7.494 0v1h-6.48v-2h6.48v1" fill-rule="evenodd" fill="#000"/></svg>