<svg xmlns="http://www.w3.org/2000/svg" width="24" height="24" viewBox="0 0 24 24" fill="none">
  <path d="M23.5 1.5H1.5V18.5H9.167L12.5 22.5L15.833 18.5H23.5V1.5Z" stroke="#0A8276" stroke-linecap="round" stroke-linejoin="round"/>
  <path d="M13.492 10.2371L15.7 11.9001C16.204 12.2781 16.5 12.8701 16.5 13.5001V14.5001H8.5V13.5001C8.5 12.8701 8.796 12.2781 9.3 11.9001L11.508 10.2371" stroke="#0A8276" stroke-linecap="round" stroke-linejoin="round"/>
  <path d="M12.5 10.5C11.395 10.5 10.5 9.605 10.5 8.5V7.5C10.5 6.395 11.395 5.5 12.5 5.5C13.605 5.5 14.5 6.395 14.5 7.5V8.5C14.5 9.605 13.605 10.5 12.5 10.5Z" stroke="#0A8276" stroke-linecap="round" stroke-linejoin="round"/>
</svg>