<svg width="187" height="48" viewBox="0 0 187 48" fill="none" xmlns="http://www.w3.org/2000/svg">
<path d="M0 0.999999C0 0.447714 0.447715 0 1 0H186C186.552 0 187 0.447715 187 1V47C187 47.5523 186.552 48 186 48H1C0.447718 48 0 47.5523 0 47V0.999999Z" fill="#0A8276"/>
<path d="M29.5 31.5H18.5C18.2348 31.5 17.9804 31.3946 17.7929 31.2071C17.6054 31.0196 17.5 30.7652 17.5 30.5V23.5C17.5 23.2348 17.6054 22.9804 17.7929 22.7929C17.9804 22.6054 18.2348 22.5 18.5 22.5H29.5C29.7652 22.5 30.0196 22.6054 30.2071 22.7929C30.3946 22.9804 30.5 23.2348 30.5 23.5V30.5C30.5 30.7652 30.3946 31.0196 30.2071 31.2071C30.0196 31.3946 29.7652 31.5 29.5 31.5Z" stroke="white" stroke-linecap="round" stroke-linejoin="round"/>
<path d="M20.5 22.5V20C20.5 19.0717 20.8687 18.1815 21.5251 17.5251C22.1815 16.8687 23.0717 16.5 24 16.5V16.5C24.9283 16.5 25.8185 16.8687 26.4749 17.5251C27.1313 18.1815 27.5 19.0717 27.5 20V22.5" stroke="white" stroke-linecap="round" stroke-linejoin="round"/>
<path d="M24 28.5C24.8284 28.5 25.5 27.8284 25.5 27C25.5 26.1716 24.8284 25.5 24 25.5C23.1716 25.5 22.5 26.1716 22.5 27C22.5 27.8284 23.1716 28.5 24 28.5Z" stroke="white" stroke-linecap="round" stroke-linejoin="round"/>
<path d="M41.4061 29V18.536H43.2621V27.432H47.6141V29H41.4061ZM52.2903 29.192C51.6396 29.192 51.0316 29.032 50.4663 28.712C49.9009 28.3813 49.4423 27.912 49.0903 27.304C48.7383 26.6853 48.5623 25.944 48.5623 25.08C48.5623 24.2053 48.7383 23.464 49.0903 22.856C49.4423 22.2373 49.9009 21.768 50.4663 21.448C51.0316 21.1173 51.6396 20.952 52.2903 20.952C52.9516 20.952 53.5649 21.1173 54.1303 21.448C54.6956 21.768 55.1543 22.2373 55.5063 22.856C55.8583 23.464 56.0343 24.2053 56.0343 25.08C56.0343 25.944 55.8583 26.6853 55.5063 27.304C55.1543 27.912 54.6956 28.3813 54.1303 28.712C53.5649 29.032 52.9516 29.192 52.2903 29.192ZM52.2903 27.688C52.6743 27.688 53.0049 27.5813 53.2823 27.368C53.5596 27.1547 53.7729 26.8507 53.9223 26.456C54.0716 26.0613 54.1463 25.6027 54.1463 25.08C54.1463 24.5573 54.0716 24.0987 53.9223 23.704C53.7729 23.3093 53.5596 23.0053 53.2823 22.792C53.0049 22.568 52.6743 22.456 52.2903 22.456C51.9063 22.456 51.5756 22.568 51.2983 22.792C51.0316 23.0053 50.8236 23.3093 50.6743 23.704C50.5249 24.0987 50.4503 24.5573 50.4503 25.08C50.4503 25.6027 50.5249 26.0613 50.6743 26.456C50.8236 26.8507 51.0316 27.1547 51.2983 27.368C51.5756 27.5813 51.9063 27.688 52.2903 27.688ZM60.5915 32.472C59.9622 32.472 59.4022 32.3973 58.9115 32.248C58.4208 32.0987 58.0315 31.8693 57.7435 31.56C57.4662 31.2613 57.3275 30.8827 57.3275 30.424C57.3275 30.0933 57.4235 29.784 57.6155 29.496C57.8182 29.2187 58.0955 28.968 58.4475 28.744V28.68C58.2555 28.552 58.0902 28.3813 57.9515 28.168C57.8128 27.9547 57.7435 27.688 57.7435 27.368C57.7435 27.0693 57.8288 26.792 57.9995 26.536C58.1808 26.28 58.3835 26.072 58.6075 25.912V25.848C58.3408 25.6453 58.1008 25.3627 57.8875 25C57.6848 24.6373 57.5835 24.2267 57.5835 23.768C57.5835 23.1707 57.7275 22.664 58.0155 22.248C58.3035 21.8213 58.6822 21.5013 59.1515 21.288C59.6208 21.064 60.1328 20.952 60.6875 20.952C60.9008 20.952 61.1088 20.968 61.3115 21C61.5142 21.032 61.6902 21.08 61.8395 21.144H64.6555V22.504H63.1835V22.568C63.3328 22.728 63.4502 22.9147 63.5355 23.128C63.6208 23.3307 63.6635 23.5707 63.6635 23.848C63.6635 24.424 63.5302 24.9093 63.2635 25.304C62.9968 25.6987 62.6395 25.9973 62.1915 26.2C61.7435 26.4027 61.2422 26.504 60.6875 26.504C60.5168 26.504 60.3408 26.488 60.1595 26.456C59.9782 26.424 59.7968 26.3707 59.6155 26.296C59.5088 26.4027 59.4182 26.5093 59.3435 26.616C59.2688 26.7227 59.2315 26.8667 59.2315 27.048C59.2315 27.272 59.3275 27.448 59.5195 27.576C59.7115 27.704 60.0422 27.768 60.5115 27.768H61.9035C62.8528 27.768 63.5675 27.9227 64.0475 28.232C64.5382 28.5307 64.7835 29.0213 64.7835 29.704C64.7835 30.216 64.6128 30.68 64.2715 31.096C63.9302 31.5227 63.4448 31.8587 62.8155 32.104C62.1862 32.3493 61.4448 32.472 60.5915 32.472ZM60.6875 25.352C60.9328 25.352 61.1568 25.2933 61.3595 25.176C61.5728 25.048 61.7382 24.8667 61.8555 24.632C61.9835 24.3867 62.0475 24.0987 62.0475 23.768C62.0475 23.2667 61.9142 22.8827 61.6475 22.616C61.3915 22.3493 61.0715 22.216 60.6875 22.216C60.3035 22.216 59.9782 22.3493 59.7115 22.616C59.4448 22.8827 59.3115 23.2667 59.3115 23.768C59.3115 24.0987 59.3755 24.3867 59.5035 24.632C59.6315 24.8667 59.7968 25.048 59.9995 25.176C60.2022 25.2933 60.4315 25.352 60.6875 25.352ZM60.8795 31.272C61.2955 31.272 61.6635 31.2133 61.9835 31.096C62.3035 30.9893 62.5542 30.8347 62.7355 30.632C62.9168 30.44 63.0075 30.232 63.0075 30.008C63.0075 29.6987 62.8848 29.4907 62.6395 29.384C62.4048 29.2773 62.0635 29.224 61.6155 29.224H60.5435C60.3302 29.224 60.1382 29.2133 59.9675 29.192C59.7968 29.1707 59.6315 29.144 59.4715 29.112C59.2688 29.272 59.1142 29.4373 59.0075 29.608C58.9115 29.7787 58.8635 29.96 58.8635 30.152C58.8635 30.504 59.0448 30.776 59.4075 30.968C59.7702 31.1707 60.2608 31.272 60.8795 31.272ZM69.3711 29V21.144H71.2111V29H69.3711ZM70.2831 19.768C69.9631 19.768 69.6965 19.672 69.4831 19.48C69.2805 19.288 69.1791 19.032 69.1791 18.712C69.1791 18.392 69.2805 18.1413 69.4831 17.96C69.6965 17.768 69.9631 17.672 70.2831 17.672C70.6138 17.672 70.8805 17.768 71.0831 17.96C71.2858 18.1413 71.3871 18.392 71.3871 18.712C71.3871 19.032 71.2858 19.288 71.0831 19.48C70.8805 19.672 70.6138 19.768 70.2831 19.768ZM73.5586 29V21.144H75.0786L75.2066 22.2H75.2706C75.6226 21.8587 76.0066 21.5653 76.4226 21.32C76.8386 21.0747 77.3133 20.952 77.8466 20.952C78.6893 20.952 79.3026 21.224 79.6866 21.768C80.0706 22.312 80.2626 23.08 80.2626 24.072V29H78.4226V24.312C78.4226 23.6613 78.3266 23.2027 78.1346 22.936C77.9426 22.6693 77.628 22.536 77.1906 22.536C76.8493 22.536 76.5453 22.6213 76.2786 22.792C76.0226 22.952 75.7293 23.192 75.3986 23.512V29H73.5586ZM88.4829 29.16C87.5762 29.16 86.9309 28.8987 86.5469 28.376C86.1735 27.8427 85.9869 27.1547 85.9869 26.312V22.6H84.8669V21.224L86.0829 21.144L86.3069 18.68H87.8429V21.144H89.8429V22.6H87.8429V26.312C87.8429 26.7707 87.9335 27.1173 88.1149 27.352C88.2962 27.576 88.5735 27.688 88.9469 27.688C89.0855 27.688 89.2242 27.6773 89.3629 27.656C89.5015 27.6347 89.6349 27.592 89.7629 27.528L90.0989 28.824C89.8962 28.92 89.6562 29 89.3789 29.064C89.1015 29.128 88.8029 29.16 88.4829 29.16ZM94.4621 29.192C93.8115 29.192 93.2035 29.032 92.6381 28.712C92.0728 28.3813 91.6141 27.912 91.2621 27.304C90.9101 26.6853 90.7341 25.944 90.7341 25.08C90.7341 24.2053 90.9101 23.464 91.2621 22.856C91.6141 22.2373 92.0728 21.768 92.6381 21.448C93.2035 21.1173 93.8115 20.952 94.4621 20.952C95.1235 20.952 95.7368 21.1173 96.3021 21.448C96.8675 21.768 97.3261 22.2373 97.6781 22.856C98.0301 23.464 98.2061 24.2053 98.2061 25.08C98.2061 25.944 98.0301 26.6853 97.6781 27.304C97.3261 27.912 96.8675 28.3813 96.3021 28.712C95.7368 29.032 95.1235 29.192 94.4621 29.192ZM94.4621 27.688C94.8461 27.688 95.1768 27.5813 95.4541 27.368C95.7315 27.1547 95.9448 26.8507 96.0941 26.456C96.2435 26.0613 96.3181 25.6027 96.3181 25.08C96.3181 24.5573 96.2435 24.0987 96.0941 23.704C95.9448 23.3093 95.7315 23.0053 95.4541 22.792C95.1768 22.568 94.8461 22.456 94.4621 22.456C94.0781 22.456 93.7475 22.568 93.4701 22.792C93.2035 23.0053 92.9955 23.3093 92.8461 23.704C92.6968 24.0987 92.6221 24.5573 92.6221 25.08C92.6221 25.6027 92.6968 26.0613 92.8461 26.456C92.9955 26.8507 93.2035 27.1547 93.4701 27.368C93.7475 27.5813 94.0781 27.688 94.4621 27.688ZM105.983 29.192C105.001 29.192 104.217 28.8293 103.631 28.104C103.044 27.3787 102.751 26.3707 102.751 25.08C102.751 24.2267 102.905 23.4907 103.215 22.872C103.535 22.2533 103.945 21.7787 104.447 21.448C104.959 21.1173 105.503 20.952 106.079 20.952C106.527 20.952 106.905 21.0267 107.215 21.176C107.535 21.3253 107.844 21.5387 108.143 21.816L108.079 20.552V17.704H109.919V29H108.399L108.271 28.152H108.207C107.919 28.44 107.583 28.6853 107.199 28.888C106.815 29.0907 106.409 29.192 105.983 29.192ZM106.431 27.672C106.74 27.672 107.028 27.6027 107.295 27.464C107.561 27.3147 107.823 27.0907 108.079 26.792V23.128C107.812 22.8827 107.545 22.712 107.279 22.616C107.012 22.52 106.745 22.472 106.479 22.472C106.137 22.472 105.828 22.5733 105.551 22.776C105.284 22.9787 105.065 23.272 104.895 23.656C104.735 24.04 104.655 24.5093 104.655 25.064C104.655 25.9067 104.809 26.552 105.119 27C105.428 27.448 105.865 27.672 106.431 27.672ZM115.478 29.192C114.827 29.192 114.219 29.032 113.654 28.712C113.088 28.3813 112.63 27.912 112.278 27.304C111.926 26.6853 111.75 25.944 111.75 25.08C111.75 24.2053 111.926 23.464 112.278 22.856C112.63 22.2373 113.088 21.768 113.654 21.448C114.219 21.1173 114.827 20.952 115.478 20.952C116.139 20.952 116.752 21.1173 117.318 21.448C117.883 21.768 118.342 22.2373 118.694 22.856C119.046 23.464 119.222 24.2053 119.222 25.08C119.222 25.944 119.046 26.6853 118.694 27.304C118.342 27.912 117.883 28.3813 117.318 28.712C116.752 29.032 116.139 29.192 115.478 29.192ZM115.478 27.688C115.862 27.688 116.192 27.5813 116.47 27.368C116.747 27.1547 116.96 26.8507 117.11 26.456C117.259 26.0613 117.334 25.6027 117.334 25.08C117.334 24.5573 117.259 24.0987 117.11 23.704C116.96 23.3093 116.747 23.0053 116.47 22.792C116.192 22.568 115.862 22.456 115.478 22.456C115.094 22.456 114.763 22.568 114.486 22.792C114.219 23.0053 114.011 23.3093 113.862 23.704C113.712 24.0987 113.638 24.5573 113.638 25.08C113.638 25.6027 113.712 26.0613 113.862 26.456C114.011 26.8507 114.219 27.1547 114.486 27.368C114.763 27.5813 115.094 27.688 115.478 27.688ZM122.245 29L120.165 21.144H122.053L122.981 25.224C123.067 25.576 123.141 25.9387 123.205 26.312C123.269 26.6747 123.328 27.0907 123.381 27.56H123.445C123.52 27.0907 123.589 26.6747 123.653 26.312C123.728 25.9387 123.803 25.576 123.877 25.224L124.837 21.144H126.757L127.749 25.224C127.835 25.576 127.915 25.9387 127.989 26.312C128.064 26.6747 128.139 27.0907 128.213 27.56H128.277C128.352 27.0907 128.416 26.6747 128.469 26.312C128.533 25.9387 128.603 25.576 128.677 25.224L129.605 21.144H131.365L129.365 29H127.013L126.213 25.352C126.139 25 126.064 24.648 125.989 24.296C125.925 23.9333 125.861 23.496 125.797 22.984H125.733C125.669 23.496 125.605 23.9333 125.541 24.296C125.477 24.648 125.403 25 125.317 25.352L124.517 29H122.245ZM132.918 29V21.144H134.438L134.566 22.2H134.63C134.982 21.8587 135.366 21.5653 135.782 21.32C136.198 21.0747 136.673 20.952 137.206 20.952C138.049 20.952 138.662 21.224 139.046 21.768C139.43 22.312 139.622 23.08 139.622 24.072V29H137.782V24.312C137.782 23.6613 137.686 23.2027 137.494 22.936C137.302 22.6693 136.987 22.536 136.55 22.536C136.209 22.536 135.905 22.6213 135.638 22.792C135.382 22.952 135.089 23.192 134.758 23.512V29H132.918ZM143.663 29.16C143.226 29.16 142.874 29.0747 142.607 28.904C142.351 28.7227 142.164 28.4667 142.047 28.136C141.93 27.8053 141.871 27.4107 141.871 26.952V17.704H143.711V27.048C143.711 27.2827 143.754 27.4427 143.839 27.528C143.924 27.6133 144.02 27.656 144.127 27.656C144.17 27.656 144.207 27.656 144.239 27.656C144.282 27.6453 144.335 27.6347 144.399 27.624L144.639 29C144.532 29.0427 144.394 29.08 144.223 29.112C144.063 29.144 143.876 29.16 143.663 29.16ZM149.431 29.192C148.78 29.192 148.172 29.032 147.607 28.712C147.042 28.3813 146.583 27.912 146.231 27.304C145.879 26.6853 145.703 25.944 145.703 25.08C145.703 24.2053 145.879 23.464 146.231 22.856C146.583 22.2373 147.042 21.768 147.607 21.448C148.172 21.1173 148.78 20.952 149.431 20.952C150.092 20.952 150.706 21.1173 151.271 21.448C151.836 21.768 152.295 22.2373 152.647 22.856C152.999 23.464 153.175 24.2053 153.175 25.08C153.175 25.944 152.999 26.6853 152.647 27.304C152.295 27.912 151.836 28.3813 151.271 28.712C150.706 29.032 150.092 29.192 149.431 29.192ZM149.431 27.688C149.815 27.688 150.146 27.5813 150.423 27.368C150.7 27.1547 150.914 26.8507 151.063 26.456C151.212 26.0613 151.287 25.6027 151.287 25.08C151.287 24.5573 151.212 24.0987 151.063 23.704C150.914 23.3093 150.7 23.0053 150.423 22.792C150.146 22.568 149.815 22.456 149.431 22.456C149.047 22.456 148.716 22.568 148.439 22.792C148.172 23.0053 147.964 23.3093 147.815 23.704C147.666 24.0987 147.591 24.5573 147.591 25.08C147.591 25.6027 147.666 26.0613 147.815 26.456C147.964 26.8507 148.172 27.1547 148.439 27.368C148.716 27.5813 149.047 27.688 149.431 27.688ZM156.713 29.192C156.254 29.192 155.849 29.096 155.497 28.904C155.145 28.712 154.867 28.4453 154.665 28.104C154.473 27.752 154.377 27.3467 154.377 26.888C154.377 26.0027 154.745 25.336 155.481 24.888C156.227 24.4293 157.406 24.1147 159.017 23.944C159.006 23.6773 158.953 23.432 158.857 23.208C158.771 22.984 158.622 22.808 158.409 22.68C158.206 22.5413 157.929 22.472 157.577 22.472C157.193 22.472 156.814 22.5413 156.441 22.68C156.078 22.8187 155.721 22.9947 155.369 23.208L154.697 21.96C154.985 21.7787 155.299 21.6133 155.641 21.464C155.982 21.304 156.345 21.1813 156.729 21.096C157.113 21 157.513 20.952 157.929 20.952C158.579 20.952 159.118 21.0853 159.545 21.352C159.982 21.608 160.307 21.992 160.521 22.504C160.745 23.0053 160.857 23.624 160.857 24.36V29H159.337L159.209 28.136H159.145C158.782 28.4347 158.403 28.6853 158.009 28.888C157.614 29.0907 157.182 29.192 156.713 29.192ZM157.289 27.688C157.609 27.688 157.902 27.624 158.169 27.496C158.446 27.3573 158.729 27.1547 159.017 26.888V25.224C158.302 25.3093 157.737 25.4213 157.321 25.56C156.905 25.6987 156.606 25.8693 156.425 26.072C156.254 26.264 156.169 26.4933 156.169 26.76C156.169 27.0907 156.275 27.3307 156.489 27.48C156.702 27.6187 156.969 27.688 157.289 27.688ZM165.811 29.192C164.829 29.192 164.045 28.8293 163.459 28.104C162.872 27.3787 162.579 26.3707 162.579 25.08C162.579 24.2267 162.733 23.4907 163.043 22.872C163.363 22.2533 163.773 21.7787 164.275 21.448C164.787 21.1173 165.331 20.952 165.907 20.952C166.355 20.952 166.733 21.0267 167.043 21.176C167.363 21.3253 167.672 21.5387 167.971 21.816L167.907 20.552V17.704H169.747V29H168.227L168.099 28.152H168.035C167.747 28.44 167.411 28.6853 167.027 28.888C166.643 29.0907 166.237 29.192 165.811 29.192ZM166.259 27.672C166.568 27.672 166.856 27.6027 167.123 27.464C167.389 27.3147 167.651 27.0907 167.907 26.792V23.128C167.64 22.8827 167.373 22.712 167.107 22.616C166.84 22.52 166.573 22.472 166.307 22.472C165.965 22.472 165.656 22.5733 165.379 22.776C165.112 22.9787 164.893 23.272 164.723 23.656C164.563 24.04 164.483 24.5093 164.483 25.064C164.483 25.9067 164.637 26.552 164.947 27C165.256 27.448 165.693 27.672 166.259 27.672Z" fill="white"/>
</svg>
