<svg xmlns="http://www.w3.org/2000/svg" width="16" height="16" fill="none" viewBox="0 0 16 16"><path fill="currentColor" d="m1 8-.42-.273L.405 8l.177.273L1 8Zm14 0 .42.273.176-.273-.177-.273L15 8ZM4.5 2H5V1h-.5v1Zm-3-.5V1H1v.5h.5Zm-.5 3V5h1v-.5H1ZM4.5 15H5v-1h-.5v1Zm-3-.5H1v.5h.5v-.5Zm.5-3V11H1v.5h1ZM11.5 1H11v1h.5V1Zm3 .5h.5V1h-.5v.5Zm-.5 3V5h1v-.5h-1ZM11.5 14H11v1h.5v-1Zm3 .5v.5h.5v-.5h-.5Zm.5-3V11h-1v.5h1ZM1 8l.419.273.001-.002.006-.008a4.214 4.214 0 0 1 .123-.179A14.737 14.737 0 0 1 3.38 5.98C4.616 4.814 6.246 3.733 8 3.733v-1c-2.146 0-4.016 1.303-5.306 2.52A15.737 15.737 0 0 0 .622 7.666a5.31 5.31 0 0 0-.038.056l-.002.004-.001.001L1 8Zm7-4.267c1.754 0 3.384 1.081 4.62 2.247a14.74 14.74 0 0 1 1.93 2.247 4.264 4.264 0 0 1 .03.044v.002h.001L15 8l.419-.273-.001-.001-.002-.004-.008-.012a5.145 5.145 0 0 0-.14-.204 15.743 15.743 0 0 0-1.961-2.253c-1.29-1.217-3.161-2.52-5.307-2.52v1ZM15 8l-.419-.273-.001.002a1.022 1.022 0 0 0-.03.044l-.099.143a14.737 14.737 0 0 1-1.832 2.104C11.384 11.186 9.754 12.267 8 12.267v1c2.146 0 4.016-1.303 5.306-2.52a15.735 15.735 0 0 0 2.072-2.413l.03-.044.008-.012a.497.497 0 0 0 .002-.004l.001-.001L15 8Zm-7 4.267c-1.754 0-3.384-1.081-4.62-2.247a14.735 14.735 0 0 1-1.93-2.247 4.214 4.214 0 0 1-.024-.036L1.42 7.73v-.002h-.001L1 8l-.419.273.001.001.002.004a2.943 2.943 0 0 0 .038.056l.11.16a15.73 15.73 0 0 0 1.961 2.253c1.29 1.217 3.161 2.52 5.307 2.52v-1ZM9.5 8A1.5 1.5 0 0 1 8 9.5v1A2.5 2.5 0 0 0 10.5 8h-1ZM8 9.5A1.5 1.5 0 0 1 6.5 8h-1A2.5 2.5 0 0 0 8 10.5v-1ZM6.5 8A1.5 1.5 0 0 1 8 6.5v-1A2.5 2.5 0 0 0 5.5 8h1ZM8 6.5A1.5 1.5 0 0 1 9.5 8h1A2.5 2.5 0 0 0 8 5.5v1ZM4.5 1h-3v1h3V1ZM1 1.5v3h1v-3H1ZM4.5 14h-3v1h3v-1Zm-2.5.5v-3H1v3h1ZM11.5 2h3V1h-3v1Zm2.5-.5v3h1v-3h-1ZM11.5 15h3v-1h-3v1Zm3.5-.5v-3h-1v3h1Z"/></svg>