<svg xmlns="http://www.w3.org/2000/svg" width="16" height="16" fill="none"><path d="m1.246 1.008-.26.007.007 1.993L1 5l.5.007.5.008V2h3.013v-.986L3.26 1.007c-.964-.004-1.87-.004-2.014.001m10.001 0-.26.007V2H14V5.015l.5-.008L15 5l.007-1.993.007-1.993-1.754-.007c-.964-.004-1.87-.004-2.013.001M7.413 2.764c-1.443.18-2.845.867-4.293 2.105C2.265 5.6 1.216 6.785.562 7.758L.399 8l.165.247a15.82 15.82 0 0 0 2.249 2.609c1.494 1.364 2.927 2.127 4.427 2.359a6.335 6.335 0 0 0 1.52 0c1.648-.255 3.246-1.167 4.84-2.761a15.635 15.635 0 0 0 1.798-2.153l.205-.299-.166-.248a15.39 15.39 0 0 0-2.72-3.023c-1.014-.85-2.112-1.468-3.126-1.76-.57-.164-.845-.203-1.498-.211a10.341 10.341 0 0 0-.68.004m1.035.997a5.358 5.358 0 0 1 1.789.534c.469.227.739.387 1.19.706 1 .709 2.102 1.818 2.893 2.911l.062.086-.067.101c-.236.356-.943 1.171-1.464 1.689-1.392 1.384-2.761 2.18-4.184 2.43-.263.046-1.073.046-1.334-.001-1.312-.233-2.484-.869-3.82-2.076a14.632 14.632 0 0 1-1.268-1.334c-.281-.338-.618-.779-.618-.81 0-.012.08-.128.177-.256A14.074 14.074 0 0 1 4.03 5.413c1.509-1.232 3.033-1.802 4.418-1.652M7.703 5.52c-.382.047-.81.21-1.141.433-.205.138-.565.527-.705.762-.173.288-.301.67-.342 1.013a2.537 2.537 0 0 0 .342 1.558c.174.294.563.683.857.857a2.5 2.5 0 0 0 2.092.22c.379-.13.652-.303.953-.604.301-.301.474-.574.604-.953a2.458 2.458 0 0 0-.576-2.54 2.117 2.117 0 0 0-.69-.506 2.652 2.652 0 0 0-1.394-.24m.807 1.075c.433.164.725.454.896.891.064.161.071.216.071.514 0 .298-.007.353-.071.514-.238.606-.774.979-1.406.979-.632 0-1.168-.373-1.406-.979-.064-.161-.071-.216-.071-.514 0-.296.008-.353.069-.51.198-.504.594-.848 1.101-.958.201-.043.622-.011.817.063M.993 13.007 1 15h4l.007-.5.008-.5H2v-2.987H.986l.007 1.994m13.007-.5V14H10.985l.008.5.007.5h4l.007-1.993.007-1.994H14v1.494" fill="currentColor" fill-rule="evenodd"/></svg>