<svg xmlns="http://www.w3.org/2000/svg" width="24" height="24" fill="none" viewBox="0 0 24 24"><path fill="currentColor" d="m2 12-.416-.277-.185.277.185.277L2 12Zm20 0 .416.277.185-.277-.185-.277L22 12ZM2 6.5V7h1v-.5H2Zm.5-4V2H2v.5h.5Zm4 .5H7V2h-.5v1ZM21 6.5V7h1v-.5h-1Zm.5-4h.5V2h-.5v.5Zm-4-.5H17v1h.5V2ZM3 17.5V17H2v.5h1Zm-.5 4H2v.5h.5v-.5Zm4 .5H7v-1h-.5v1ZM22 17.5V17h-1v.5h1Zm-.5 4v.5h.5v-.5h-.5Zm-4-.5H17v1h.5v-1ZM2 12l.416.278.001-.003.008-.01a5.593 5.593 0 0 1 .16-.226 17.017 17.017 0 0 1 2.49-2.66C6.781 7.918 9.17 6.5 12 6.5v-1c-3.169 0-5.781 1.583-7.575 3.12a18.015 18.015 0 0 0-2.09 2.122 15.305 15.305 0 0 0-.736.959l-.01.015-.004.004v.002L2 12Zm10-5.5c2.831 0 5.219 1.417 6.925 2.88a17.017 17.017 0 0 1 1.972 2.003 14.277 14.277 0 0 1 .678.882l.008.01.001.002L22 12l.416-.278-.002-.002-.002-.004-.01-.015a10.169 10.169 0 0 0-.183-.256 15.335 15.335 0 0 0-.554-.703 18.015 18.015 0 0 0-2.09-2.122C17.781 7.083 15.17 5.5 12 5.5v1ZM22 12l-.416-.278-.001.003-.008.01a7.092 7.092 0 0 1-.16.226 17.02 17.02 0 0 1-2.49 2.66C17.219 16.082 14.83 17.5 12 17.5v1c3.169 0 5.781-1.583 7.575-3.12a18.01 18.01 0 0 0 2.09-2.122 15.335 15.335 0 0 0 .736-.959l.01-.015.003-.004.002-.002L22 12Zm-10 5.5c-2.831 0-5.219-1.417-6.925-2.88a17.02 17.02 0 0 1-1.972-2.003 14.33 14.33 0 0 1-.678-.882l-.008-.01a.033.033 0 0 1-.001-.002L2 12l-.416.278.001.002.003.004.01.015a6.187 6.187 0 0 0 .183.256 18.01 18.01 0 0 0 2.643 2.825C6.22 16.917 8.832 18.5 12 18.5v-1Zm-9-11v-4H2v4h1ZM2.5 3h4V2h-4v1ZM22 6.5v-4h-1v4h1ZM21.5 2h-4v1h4V2ZM2 17.5v4h1v-4H2Zm.5 4.5h4v-1h-4v1ZM21 17.5v4h1v-4h-1Zm.5 3.5h-4v1h4v-1ZM14 12a2 2 0 0 1-2 2v1a3 3 0 0 0 3-3h-1Zm-2 2a2 2 0 0 1-2-2H9a3 3 0 0 0 3 3v-1Zm-2-2a2 2 0 0 1 2-2V9a3 3 0 0 0-3 3h1Zm2-2a2 2 0 0 1 2 2h1a3 3 0 0 0-3-3v1Z"/></svg>