<svg xmlns="http://www.w3.org/2000/svg" width="16" height="16" fill="none" viewBox="0 0 16 16">
  <g clip-path="url(#a)">
    <path fill="#1D1D1D" fill-rule="evenodd" d="M2.988 4.187C4.322 3.001 6.046 2 8 2c1.954 0 3.678 1.001 5.012 2.187 1.338 1.19 2.34 2.613 2.858 3.574L16 8l-.13.24c-.519.96-1.52 2.383-2.858 3.573C11.678 12.999 9.954 14 8 14c-1.954 0-3.678-1.001-5.012-2.187C1.65 10.623.648 9.2.129 8.239L0 8l.13-.24c.519-.96 1.52-2.383 2.858-3.573ZM1.134 8a13.145 13.145 0 0 0 2.51 3.062C4.886 12.168 6.384 13 8 13c1.615 0 3.113-.832 4.357-1.938A13.143 13.143 0 0 0 14.866 8a13.144 13.144 0 0 0-2.51-3.062C11.114 3.832 9.616 3 8 3c-1.615 0-3.113.832-4.357 1.938A13.144 13.144 0 0 0 1.134 8Z" clip-rule="evenodd"/>
    <path fill="#1D1D1D" fill-rule="evenodd" d="M8 10a2 2 0 1 0 0-4 2 2 0 0 0 0 4Zm0 1a3 3 0 1 0 0-6 3 3 0 0 0 0 6ZM0 0h4v1H1v3H0V0ZM16 16h-4v-1h3v-3h1v4ZM16 0v4h-1V1h-3V0h4ZM0 16v-4h1v3h3v1H0Z" clip-rule="evenodd"/>
  </g>
  <defs>
    <clipPath id="a">
      <path fill="#fff" d="M0 0h16v16H0z"/>
    </clipPath>
  </defs>
</svg>
