<svg xmlns="http://www.w3.org/2000/svg" width="16" height="16" fill="none"><path d="M3.292.05a.479.479 0 0 0-.276.351c-.04.185-.04 3.013 0 3.198a.59.59 0 0 0 .099.219c.135.16.388.225.573.145a.66.66 0 0 0 .284-.291C3.99 3.622 4 3.151 4 2.305V1.013h8v1.292c0 .846.01 1.317.028 1.367a.66.66 0 0 0 .284.291c.185.08.438.015.573-.145a.59.59 0 0 0 .099-.219c.04-.185.04-3.013 0-3.198a.479.479 0 0 0-.276-.351C12.605.003 12.406.001 8 .001c-4.406 0-4.605.002-4.708.049M.28 5.055a.445.445 0 0 0-.23.238C.003 5.395.001 5.563.001 9c0 3.436.002 3.605.049 3.708a.479.479 0 0 0 .351.276c.086.019.577.029 1.36.029h1.226v1.226c0 .783.01 1.274.029 1.36.035.163.13.285.276.351.103.047.302.049 4.708.049 4.406 0 4.605-.002 4.708-.049a.479.479 0 0 0 .276-.351c.019-.086.029-.577.029-1.36v-1.226h1.226c.783 0 1.274-.01 1.36-.029a.479.479 0 0 0 .351-.276c.047-.103.049-.273.049-3.702.001-3.175-.004-3.606-.04-3.693a.426.426 0 0 0-.231-.249c-.097-.049-.295-.051-7.734-.051-6.871.001-7.642.005-7.714.042M14.987 9v3h-1.971l-.008-1.313c-.007-1.165-.013-1.323-.052-1.394a.74.74 0 0 0-.254-.25c-.043-.022-1.322-.03-4.702-.03-5.061 0-4.707-.011-4.857.151-.147.16-.142.111-.151 1.523L2.984 12H1.013V6h13.974v3M12 12.507v2.506H4V10h8v2.507" fill-rule="evenodd" fill="#000"/></svg>