<svg xmlns="http://www.w3.org/2000/svg" width="24" height="24" fill="none"><path d="M5.252 1.078c-.243.148-.252.2-.252 1.43 0 1.032.006 1.121.078 1.24.2.328.644.328.844 0 .07-.116.078-.205.078-.938V2h13v.802c0 .891.02.978.252 1.12a.451.451 0 0 0 .496 0c.243-.148.252-.201.252-1.422 0-1.221-.009-1.274-.252-1.422C19.622 1.002 19.491 1 12.5 1c-6.991 0-7.122.002-7.248.078M2.96 7.062a2.893 2.893 0 0 0-1.125.574c-.293.262-.57.672-.706 1.045l-.109.299-.011 4.81c-.012 5.321-.029 4.966.243 5.132.122.074.213.078 1.938.078H5v2.31c0 2.221.003 2.315.078 2.438.166.272-.427.252 7.43.252 6.983 0 7.114-.002 7.24-.078.26-.159.252-.08.252-2.62V19h1.81c1.725 0 1.816-.004 1.938-.078.272-.166.255.189.243-5.132l-.011-4.81-.111-.3a2.537 2.537 0 0 0-1.249-1.403c-.598-.296.152-.276-10.14-.273-7.767.002-9.302.011-9.52.058m19.14 1.07c.315.147.624.455.767.764l.113.244.011 4.43.011 4.43H20v-2.802c0-3.092.011-2.959-.252-3.12-.126-.076-.257-.078-7.24-.078-7.857 0-7.264-.02-7.43.252-.075.124-.078.222-.078 2.938V18H1.998l.011-4.43.011-4.43.112-.24c.198-.425.624-.775 1.042-.859.091-.018 4.333-.03 9.426-.027l9.26.006.24.112M19 18v5H6V13h13v5" fill-rule="evenodd" fill="#000"/></svg>