<svg xmlns="http://www.w3.org/2000/svg" width="16" height="16" fill="currentColor" viewBox="0 0 16 16">
  <path fill-rule="evenodd" d="M16 6 8 16c-.5-.5-8-10-8-10s2.167-3.5 3-5h10l3 5Zm-8.001 7.418L10.306 6.5H5.694L8 13.418ZM1.964 6.872c.71.898 1.664 2.1 2.632 3.318.755.95 1.52 1.907 2.185 2.738L4.64 6.5H1.67l.294.372Zm7.285 5.961L14.317 6.5H11.36L9.25 12.833ZM3.205 2.637a176.89 176.89 0 0 1-1.163 1.945c-.201.331-.393.644-.562.918h2.798L3.205 2.637ZM6 5.5h4L8 2.833 6 5.5Zm5.722 0h2.812l-1.731-2.885L11.722 5.5Zm-6.576-.53L7.375 2H4.033l1.113 2.97Zm5.706 0L11.966 2H8.625l2.227 2.97Z" clip-rule="evenodd"/>
</svg>
