<svg xmlns="http://www.w3.org/2000/svg" width="16" height="16" fill="currentColor"><path fill-rule="evenodd" d="M12.883 1H3.117L0 5.95 8 16l8-10.05L12.883 1Zm-2.484 5.278L8 14.188l-2.399-7.91H10.4Zm-4.635-.704L8 2.024l2.236 3.55H5.764Zm2.88-3.87h3.513l-1.35 3.432-2.163-3.432Zm-3.45 3.432L3.843 1.704h3.513L5.194 5.136Zm-.6.438H1.083l2.162-3.432 1.35 3.432Zm.256.704 2.263 7.46-5.939-7.46H4.85Zm6.3 0h3.676l-5.938 7.46 2.262-7.46Zm.255-.704 1.352-3.432 2.161 3.432h-3.513Z" clip-rule="evenodd"/></svg>