<svg xmlns="http://www.w3.org/2000/svg" width="24" height="24" fill="none"><path d="M5.252 2.078a.478.478 0 0 0-.174.67c.166.272-.427.252 7.43.252 6.983 0 7.114-.002 7.24-.078a.485.485 0 0 0 0-.844C19.622 2.002 19.491 2 12.5 2c-6.991 0-7.122.002-7.248.078m-3 4c-.137.084-.252.266-.252.401 0 .175 3.003 16.108 3.059 16.231a.578.578 0 0 0 .19.21c.129.079.214.08 7.251.08s7.122-.001 7.251-.08a.578.578 0 0 0 .19-.21C19.997 22.587 23 6.654 23 6.479c0-.135-.115-.317-.252-.401C22.622 6.001 22.467 6 12.5 6c-9.967 0-10.122.001-10.248.078m19.628.963c0 .04-2.74 14.693-2.781 14.869l-.021.09H5.922l-.021-.09C5.86 21.734 3.12 7.081 3.12 7.041 3.12 7.013 6.168 7 12.5 7c6.332 0 9.38.013 9.38.041" fill-rule="evenodd" fill="#000"/></svg>