<svg xmlns="http://www.w3.org/2000/svg" width="16" height="16" fill="none"><path d="M2.28 1.055a.445.445 0 0 0-.23.238.5.5 0 0 0-.013.395.66.66 0 0 0 .291.284c.106.039 11.238.039 11.344 0a.66.66 0 0 0 .291-.284.492.492 0 0 0-.004-.375.426.426 0 0 0-.231-.249c-.096-.049-.257-.051-5.734-.051-5.057.001-5.642.005-5.714.042M.36 4.023a.505.505 0 0 0-.351.41c-.014.136 1.99 10.182 2.056 10.31a.524.524 0 0 0 .336.242c.166.038 11.032.038 11.198 0a.524.524 0 0 0 .336-.242C13.977 14.662 16 4.606 16 4.479c0-.114-.124-.327-.233-.399l-.1-.067-7.627-.004c-4.195-.002-7.651.004-7.68.014m14.52 1.011c0 .011-.402 2.03-.893 4.486-.492 2.456-.894 4.469-.894 4.473 0 .004-2.292.007-5.093.007s-5.093-.003-5.093-.007-.402-2.017-.894-4.473c-.491-2.456-.893-4.475-.893-4.486 0-.012 3.096-.021 6.88-.021s6.88.009 6.88.021" fill-rule="evenodd" fill="#000"/></svg>