<svg xmlns="http://www.w3.org/2000/svg" width="16" height="16" fill="none" viewBox="0 0 16 16">
  <path fill="#1D1D1D" fill-rule="evenodd" d="m7.978 0 6.478 2.16v7.335c0 2.258-1.686 3.883-3.212 4.9a14.534 14.534 0 0 1-3.087 1.545l-.015.005-.164.055-.158-.053-.021-.007a6.38 6.38 0 0 1-.255-.093 14.534 14.534 0 0 1-2.832-1.453C3.187 13.378 1.5 11.753 1.5 9.494V2.16L7.978 0Zm0 1.05L2.497 2.879v6.617c0 1.729 1.303 3.094 2.768 4.07a13.553 13.553 0 0 0 2.713 1.38l.08-.03a13.554 13.554 0 0 0 2.634-1.35c1.464-.976 2.768-2.341 2.768-4.07V2.878L7.978 1.05Zm0 2.963c1.1 0 1.993.893 1.993 1.994v.996h.997v3.987h-5.98V7.003h.997v-.996c0-1.1.893-1.994 1.993-1.994ZM9.971 8H5.985v1.993H9.97V8ZM7.978 5.01a.997.997 0 0 0-.997.997v.996h1.994v-.996a.997.997 0 0 0-.997-.997Z" clip-rule="evenodd"/>
</svg>
