<svg xmlns="http://www.w3.org/2000/svg" width="16" height="16" fill="none"><path d="m4.493 1.295-3.5.811c-.021.003-.001 6.876.02 7.195.118 1.726 1.044 3.176 2.8 4.385 1.043.718 2.577 1.41 3.887 1.751l.3.079.3-.079c1.308-.341 2.846-1.034 3.887-1.751 1.756-1.21 2.682-2.659 2.8-4.385.014-.216.026-1.854.026-3.786 0-3.22-.002-3.405-.046-3.419A12102.557 12102.557 0 0 0 8.027.495c-.022-.005-1.612.355-3.534.8m6.52.914 2.974.687.008 3.092c.005 2.165-.002 3.184-.023 3.399-.097.982-.53 1.837-1.336 2.64-.583.58-1.273 1.058-2.209 1.531-.617.311-1.492.659-2.127.843l-.3.088-.3-.088a14.015 14.015 0 0 1-2.127-.843c-.936-.473-1.626-.951-2.209-1.531-.806-.803-1.239-1.658-1.336-2.64-.021-.215-.028-1.234-.023-3.399l.008-3.092 2.96-.685c1.628-.377 2.984-.687 3.014-.687.029-.001 1.391.307 3.026.685M7.666 4.027a2.042 2.042 0 0 0-1.588 1.4c-.055.169-.061.25-.072.886l-.011.7H4.986l.007 1.994L5 11h6l.007-1.993.007-1.994h-1.009l-.011-.7c-.011-.636-.017-.717-.072-.886-.211-.65-.721-1.158-1.348-1.341-.241-.07-.686-.099-.908-.059m.769 1.078c.181.092.383.297.473.482.063.128.066.156.074.78l.008.646H7.011l.008-.646c.007-.625.01-.651.073-.78.116-.235.343-.443.585-.536.064-.024.183-.035.351-.03.22.006.275.018.407.084M10 9v1H6V8h4v1" fill-rule="evenodd" fill="#000"/></svg>