<svg xmlns="http://www.w3.org/2000/svg" width="24" height="24" fill="none"><path d="M11.52 1.026a12.371 12.371 0 0 0-4.935 1.367c-.467.243-.54.316-.574.563a.47.47 0 0 0 .306.498c.196.079.241.066.923-.267 1.486-.724 2.837-1.075 4.5-1.168 1.038-.059 2.215.156 2.989.545.87.437 1.585 1.204 1.938 2.077.156.388.249.815.3 1.381.099 1.095-.118 2.114-.636 2.985-.368.619-.701.976-2.43 2.613-.745.705-1.189 1.215-1.53 1.755a5.732 5.732 0 0 0-.859 2.885c-.012.454.032.565.266.677.169.08.275.08.444 0 .218-.104.261-.211.3-.751.057-.789.165-1.233.439-1.806.366-.763.799-1.275 2.119-2.504 1.728-1.608 2.239-2.291 2.635-3.526.213-.665.262-1.013.263-1.85.001-.85-.052-1.229-.262-1.889-.355-1.112-.983-1.941-1.981-2.614-1.058-.714-2.634-1.077-4.215-.971m.144 18.037a1.005 1.005 0 0 0-.533.448c-.095.161-.111.233-.111.489s.016.328.111.489a.993.993 0 0 0 1.57.212c.18-.18.299-.459.299-.701 0-.674-.705-1.168-1.336-.937" fill="currentColor" fill-rule="evenodd"/></svg>