<svg xmlns="http://www.w3.org/2000/svg" width="16" height="16" fill="none"><path d="M7.627 1.031c-.757.072-1.739.405-2.426.821-.526.32-1.062.758-1.151.941-.155.32.091.7.453.7.155 0 .256-.05.457-.228.926-.822 2.265-1.323 3.347-1.253.574.036.994.14 1.413.349.622.31.991.737 1.174 1.36.087.296.12.9.067 1.228-.123.766-.444 1.218-1.548 2.18-.286.249-.63.565-.764.702-.683.695-1.027 1.388-1.13 2.275-.057.484-.001.682.231.817a.474.474 0 0 0 .5 0c.187-.109.232-.208.259-.563.046-.614.2-1.033.549-1.486.185-.24.479-.528 1.035-1.012 1.068-.93 1.484-1.462 1.724-2.209.115-.358.154-.576.173-.975.02-.4-.014-.75-.11-1.131-.325-1.287-1.359-2.18-2.84-2.455a7.852 7.852 0 0 0-1.413-.061m.035 12.03a1.01 1.01 0 0 0-.648 1.091c.131.805 1.113 1.125 1.688.55a.995.995 0 0 0-.273-1.602 1.185 1.185 0 0 0-.767-.039" fill-rule="evenodd" fill="#000"/></svg>