<svg xmlns="http://www.w3.org/2000/svg" width="24" height="24" fill="none"><path d="M5.24 1.811c-.893.448-1.509.891-2.17 1.56C1.906 4.548 1.104 6.198.742 8.16c-.24 1.303-.269 2.225-.254 8.102.011 4.585.016 4.888.083 4.989.038.059.119.14.178.178.101.067.36.071 4.251.071 3.891 0 4.15-.004 4.251-.071a.717.717 0 0 0 .178-.178c.067-.101.072-.41.083-5.109.006-2.751 0-5.082-.014-5.18a.503.503 0 0 0-.158-.31l-.132-.132H1.509l.027-.49c.14-2.523.875-4.509 2.175-5.875.627-.658 1.188-1.064 2.071-1.497.288-.141.555-.29.592-.332a.499.499 0 0 0-.058-.703c-.216-.182-.403-.15-1.076.188m14 0c-.893.448-1.509.891-2.17 1.56-1.164 1.177-1.966 2.827-2.328 4.789-.24 1.303-.269 2.225-.254 8.102.011 4.585.016 4.888.083 4.989.038.059.119.14.178.178.101.067.36.071 4.251.071 3.891 0 4.15-.004 4.251-.071a.717.717 0 0 0 .178-.178c.067-.101.072-.41.083-5.109.006-2.751 0-5.082-.014-5.18a.503.503 0 0 0-.158-.31l-.132-.132h-7.699l.027-.49c.14-2.523.875-4.509 2.175-5.875.627-.658 1.188-1.064 2.071-1.497.288-.141.555-.29.592-.332a.499.499 0 0 0-.058-.703c-.216-.182-.403-.15-1.076.188M8.48 16.02v4.5H1.52v-9h6.96v4.5m14 0v4.5h-6.96v-9h6.96v4.5" fill-rule="evenodd" fill="#000"/></svg>