<svg xmlns="http://www.w3.org/2000/svg" width="16" height="16" fill="none"><path d="M3.773 1.198c-.296.071-1.107.527-1.493.838C1.138 2.958.439 4.232.149 5.922.005 6.758 0 6.929.001 10.92c0 3.513.002 3.685.049 3.788a.478.478 0 0 0 .357.277c.098.021 1.057.027 3.18.022 3.352-.008 3.106.005 3.27-.171.152-.164.142.036.15-3.249.005-2.123-.001-3.082-.022-3.18a.478.478 0 0 0-.277-.357c-.103-.046-.249-.049-2.901-.049L1.013 8l.001-.42c0-1.335.286-2.586.788-3.457.497-.863 1.172-1.47 2.131-1.92.25-.117.323-.177.39-.323.168-.363-.164-.775-.55-.682m9-.006c-.115.021-.806.372-1.068.544-1.332.872-2.162 2.179-2.516 3.964-.188.946-.208 1.511-.197 5.633.009 3.561-.001 3.338.151 3.503.164.176-.082.163 3.27.171 2.141.005 3.082-.001 3.182-.022a.531.531 0 0 0 .232-.108c.185-.163.175.04.167-3.428-.007-3.11-.008-3.125-.062-3.199a1.202 1.202 0 0 0-.156-.155l-.101-.082-2.842-.007-2.841-.007.017-.526c.048-1.462.318-2.558.848-3.44a4.327 4.327 0 0 1 1.912-1.745c.424-.206.473-.24.541-.375a.504.504 0 0 0-.537-.721M6 11.507V14H1.013V9.013H6v2.494m8.987 0V14H10V9.013h4.987v2.494" fill-rule="evenodd" fill="#000"/></svg>