<svg xmlns="http://www.w3.org/2000/svg" width="16" height="16" fill="none" viewBox="0 0 16 16">
  <path fill="#1D1D1D" fill-rule="evenodd" d="m4.526 1.953-.462.191c-.999.413-1.753 1.064-2.264 1.968-.515.912-.8 2.113-.8 3.642V8h6v7H0V7.754c0-1.648.306-3.03.93-4.134.627-1.11 1.559-1.907 2.752-2.4l.462-.191.382.924ZM1 9v5h5V9H1ZM13.526 1.953l-.462.191c-.999.413-1.753 1.064-2.264 1.968-.515.912-.8 2.113-.8 3.642V8h6v7H9V7.754c0-1.648.306-3.03.93-4.134.627-1.11 1.559-1.907 2.752-2.4l.462-.191.382.924ZM10 9v5h5V9h-5Z" clip-rule="evenodd"/>
</svg>
