<svg width="20" height="20" fill="none" xmlns="http://www.w3.org/2000/svg"><path d="M9.217.168c-1.73.143-3.44.752-4.823 1.716a10.318 10.318 0 0 0-2.51 2.51C.31 6.651-.238 9.578.406 12.283a9.915 9.915 0 0 0 3.988 5.833c2.271 1.584 5.215 2.128 7.926 1.466a9.668 9.668 0 0 0 4.648-2.614 9.668 9.668 0 0 0 2.614-4.648 9.85 9.85 0 0 0-.267-5.555c-.667-1.946-1.98-3.674-3.709-4.881-1.821-1.27-4.168-1.9-6.389-1.716m1.88 1.019c.985.115 1.849.375 2.82.847a8.86 8.86 0 0 1 3.489 3.065 9.762 9.762 0 0 1 1.129 2.418c.445 1.53.455 3.373.027 4.866a9.137 9.137 0 0 1-1.178 2.55 8.94 8.94 0 0 1-5.554 3.764 8.625 8.625 0 0 1-1.83.176c-1.444 0-2.606-.269-3.917-.907a8.826 8.826 0 0 1-4.049-4.049c-.638-1.311-.907-2.473-.907-3.917s.269-2.606.907-3.917a8.826 8.826 0 0 1 4.049-4.049 8.414 8.414 0 0 1 2.184-.747 8.962 8.962 0 0 1 2.83-.1M9.483 5.17a4.803 4.803 0 0 0-2.914 1.399c-.831.832-1.293 1.823-1.405 3.018a4.87 4.87 0 0 0 .894 3.256c.246.344.755.853 1.099 1.099a4.87 4.87 0 0 0 3.256.894c1.197-.112 2.182-.572 3.017-1.406.834-.835 1.294-1.82 1.406-3.017a4.87 4.87 0 0 0-.894-3.256 5.836 5.836 0 0 0-1.099-1.099 4.884 4.884 0 0 0-3.36-.888" fill-rule="evenodd" fill="#000"/></svg>