<svg xmlns="http://www.w3.org/2000/svg" width="16" height="16" fill="none" viewBox="0 0 16 16">
  <g clip-path="url(#a)">
    <path fill="#1D1D1D" fill-rule="evenodd" d="M3 0h3v1H4v10H2.613L5.5 14.247 8.387 11H7v-1h3.613L5.5 15.753.387 10H3V0Zm6 1.5a.833.833 0 1 0 0 1.667A.833.833 0 0 0 9 1.5Zm-1.833.833a1.833 1.833 0 1 1 3.666 0 1.833 1.833 0 0 1-3.666 0Zm7.873-.666L8.333 8.374l-.707-.707L14.333.96l.707.707Zm-1.373 4.5a.833.833 0 1 0 0 1.666.833.833 0 0 0 0-1.666ZM11.833 7A1.833 1.833 0 1 1 15.5 7a1.833 1.833 0 0 1-3.667 0Z" clip-rule="evenodd"/>
  </g>
  <defs>
    <clipPath id="a">
      <path fill="#fff" d="M0 0h16v16H0z"/>
    </clipPath>
  </defs>
</svg>
