<svg xmlns="http://www.w3.org/2000/svg" width="16" height="16" fill="none"><path d="M2.939 3.127.397 5.987l1.295.007 1.295.007V16H6v-.987H4v-10h-.68c-.374 0-.68-.009-.68-.021 0-.012.643-.746 1.43-1.63 1.378-1.55 1.431-1.606 1.476-1.558.168.178 2.827 3.184 2.827 3.195 0 .008-.312.014-.693.014h-.693V6h3.627L8.065 3.133A267.831 267.831 0 0 0 5.498.267c-.01 0-1.162 1.287-2.559 2.86m5.629 4.087c-.444.096-.89.427-1.149.853-.381.625-.314 1.526.155 2.075.388.455.865.684 1.426.684.561 0 1.038-.229 1.426-.684.432-.506.527-1.33.225-1.949-.23-.471-.741-.877-1.236-.982a2.562 2.562 0 0 0-.847.003m2.412 3.766-3.354 3.354.354.353.354.353 3.353-3.354 3.353-3.353-.353-.353-.354-.353-3.353 3.353M9.349 8.252c.514.231.637.93.235 1.332a.827.827 0 0 1-1.337-.246.859.859 0 0 1 0-.678.82.82 0 0 1 1.102-.408m3.885 3.627c-.452.102-.918.453-1.167.877-.213.365-.287.917-.178 1.346.101.399.289.694.623.981.519.444 1.325.537 1.955.226.856-.423 1.239-1.389.913-2.306-.167-.468-.635-.914-1.14-1.085-.223-.075-.755-.096-1.006-.039m.611.978a.811.811 0 0 1 .641.814.804.804 0 0 1-.819.818c-.682 0-1.058-.749-.662-1.322.123-.179.403-.326.64-.337.033-.002.123.01.2.027" fill-rule="evenodd" fill="#000"/></svg>