<svg xmlns="http://www.w3.org/2000/svg" width="16" height="16" fill="none"><path d="M2.987 5v4.999l-1.295.007-1.295.007 2.536 2.854a308.537 308.537 0 0 0 2.559 2.861c.012.004 1.17-1.283 2.572-2.86L10.614 10H6.985l.008.5L7 11l.687.007.686.007-1.39 1.566c-.765.862-1.411 1.589-1.437 1.616-.045.048-.098-.008-1.478-1.56l-1.431-1.609.681-.007.682-.008V1.013h2V0H2.987v5M8.589.548c-.5.109-1.013.514-1.241.981-.199.406-.23.969-.078 1.406.183.522.601.941 1.129 1.13.213.076.252.081.601.081s.388-.005.601-.081a1.864 1.864 0 0 0 1.129-1.13 1.925 1.925 0 0 0-.076-1.398c-.222-.469-.748-.884-1.254-.99a2.255 2.255 0 0 0-.811.001m2.391 3.766L7.626 7.667l.354.353.354.353 3.353-3.353 3.353-3.354-.353-.353-.354-.353-3.353 3.354M9.347 1.586a.824.824 0 1 1-1.1.41.822.822 0 0 1 1.1-.41m3.917 3.627a1.867 1.867 0 0 0-1.337 1.2c-.064.191-.072.253-.072.587 0 .334.008.396.072.587.175.521.631.977 1.153 1.153.191.064.252.071.587.071.334 0 .395-.007.586-.071a1.87 1.87 0 0 0 1.143-1.139 1.945 1.945 0 0 0-.077-1.405 1.923 1.923 0 0 0-1.253-.982 2.251 2.251 0 0 0-.802-.001m.749 1.04c.514.231.639.924.239 1.331a.833.833 0 0 1-1.171.002.846.846 0 0 1-.004-1.168.829.829 0 0 1 .936-.165" fill-rule="evenodd" fill="#000"/></svg>