<svg xmlns="http://www.w3.org/2000/svg" width="16" height="16" fill="none" viewBox="0 0 16 16">
  <g clip-path="url(#a)">
    <path fill="#1D1D1D" fill-rule="evenodd" d="M5.5.247 10.613 6H7V5h1.387L5.5 1.753 2.613 5H4v10h2v1H3V6H.387L5.5.247ZM9 8.163A.833.833 0 1 0 9 9.83a.833.833 0 0 0 0-1.667Zm-1.833.834a1.833 1.833 0 1 1 3.666 0 1.833 1.833 0 0 1-3.666 0Zm7.873-.667-6.707 6.707-.707-.707 6.707-6.707.707.707Zm-1.373 4.5a.833.833 0 1 0 0 1.667.833.833 0 0 0 0-1.667Zm-1.834.833a1.833 1.833 0 1 1 3.667 0 1.833 1.833 0 0 1-3.667 0Z" clip-rule="evenodd"/>
  </g>
  <defs>
    <clipPath id="a">
      <path fill="#fff" d="M0 0h16v16H0z"/>
    </clipPath>
  </defs>
</svg>
