<svg xmlns="http://www.w3.org/2000/svg" width="24" height="24" fill="none"><path d="M4.944 5.872 1.428 9.98l1.786.01L5 10.001V24h4v-1H6V9.001l-1.197-.01-1.197-.011L6.04 6.14C7.379 4.578 8.486 3.3 8.5 3.3c.014 0 1.121 1.278 2.46 2.84l2.434 2.84-1.197.011-1.197.01V10h2.285c2.259 0 2.284-.001 2.23-.078-.153-.217-6.981-8.157-7.015-8.157-.022 0-1.622 1.848-3.556 4.107m8.016 6.19a2.885 2.885 0 0 0-1.128.577c-.3.268-.593.713-.714 1.083-.084.254-.098.372-.096.798.002.439.016.536.111.8a2.585 2.585 0 0 0 1.547 1.547c.269.098.354.109.82.109.465 0 .552-.011.82-.108a2.589 2.589 0 0 0 1.547-1.548c.098-.269.109-.354.109-.82 0-.465-.011-.552-.108-.82a2.535 2.535 0 0 0-2.908-1.618m3.689 5.589-4.85 4.85.351.349.351.349 4.85-4.85 4.85-4.85-.351-.349-.351-.349-4.85 4.85m-2.53-4.508c.298.136.608.449.746.753.095.209.111.296.111.604s-.016.395-.111.604c-.14.309-.448.616-.765.764-.207.097-.29.112-.6.112s-.393-.015-.6-.112a1.675 1.675 0 0 1-.765-.764c-.095-.208-.111-.296-.111-.604-.001-.309.015-.394.11-.6.193-.422.615-.771 1.04-.861.267-.057.696-.009.945.104m5.841 5.919a2.885 2.885 0 0 0-1.128.577c-.3.268-.593.713-.714 1.083-.084.254-.098.372-.096.798.002.439.016.536.111.8a2.585 2.585 0 0 0 1.547 1.547c.269.098.354.109.82.109.465 0 .552-.011.82-.108a2.589 2.589 0 0 0 1.547-1.548c.098-.269.109-.354.109-.82 0-.465-.011-.552-.108-.82a2.535 2.535 0 0 0-2.908-1.618m1.159 1.081c.298.136.608.449.746.753.095.209.111.296.111.604s-.016.395-.111.604c-.14.309-.448.616-.765.764-.207.097-.29.112-.6.112s-.393-.015-.6-.112a1.675 1.675 0 0 1-.765-.764c-.095-.208-.111-.296-.111-.604-.001-.309.015-.394.11-.6.193-.422.615-.771 1.04-.861.267-.057.696-.009.945.104" fill-rule="evenodd" fill="#000"/></svg>