<svg xmlns="http://www.w3.org/2000/svg" viewBox="0 0 48 48" style="enable-background:new 0 0 48 48" xml:space="preserve"><path d="M6.64 3.162C3.732 3.759 1.574 6 1.122 8.894c-.067.427-.085 4.245-.067 14.106l.025 13.52.254.938c.965 3.563 3.67 6.266 7.208 7.202.892.236 1.013.248 2.458.248 1.445 0 1.566-.012 2.458-.248 3.543-.937 6.295-3.692 7.194-7.202.209-.814.249-1.149.303-2.538.078-1.983.174-2.303.918-3.047.646-.646 1.178-.861 2.127-.861.949 0 1.481.215 2.127.861.744.744.84 1.064.918 3.047.054 1.389.094 1.724.303 2.538.899 3.51 3.651 6.265 7.194 7.202.892.236 1.013.248 2.458.248 1.445 0 1.566-.012 2.458-.248 3.538-.936 6.243-3.639 7.208-7.202l.254-.938.025-13.52c.018-9.861 0-13.679-.067-14.106-.459-2.941-2.739-5.243-5.713-5.77-.261-.046-1.08-.084-1.82-.084H38v1.902l1.46.036c1.306.033 1.528.059 2.106.248 1.534.503 2.688 1.655 3.215 3.208L45 9.08l.022 9.94c.012 5.467-.006 9.94-.04 9.94s-.239-.22-.456-.488c-.436-.54-1.447-1.42-2.126-1.851a10.083 10.083 0 0 0-8.625-1.055c-2.254.757-4.269 2.462-5.5 4.655l-.377.672-.369-.355c-1.046-1.004-2.206-1.496-3.529-1.496s-2.483.492-3.529 1.496l-.369.355-.377-.672c-1.454-2.59-3.84-4.367-6.698-4.988-.939-.204-2.514-.238-3.542-.076-1.407.221-2.9.788-3.965 1.507-.669.451-1.65 1.318-2.046 1.808-.217.268-.422.488-.456.488-.034 0-.052-4.473-.04-9.94L3 9.08l.219-.646C3.746 6.881 4.9 5.729 6.434 5.226c.578-.189.8-.215 2.106-.248L10 4.942V3.04l-1.42.008c-.839.004-1.633.051-1.94.114m6.2 24.031c3.001.733 5.315 3.093 6.01 6.127.2.875.2 2.485 0 3.36a8.171 8.171 0 0 1-6.17 6.17c-.875.2-2.485.2-3.36 0a8.171 8.171 0 0 1-6.17-6.17c-.2-.875-.2-2.485 0-3.36.775-3.384 3.429-5.787 6.97-6.312.508-.075 2.1.033 2.72.185m26 0c3.001.733 5.315 3.093 6.01 6.127.2.875.2 2.485 0 3.36a8.171 8.171 0 0 1-6.17 6.17c-.875.2-2.485.2-3.36 0a8.171 8.171 0 0 1-6.17-6.17c-.2-.875-.2-2.485 0-3.36.775-3.384 3.429-5.787 6.97-6.312.508-.075 2.1.033 2.72.185" fill-rule="evenodd"/></svg>