<svg xmlns="http://www.w3.org/2000/svg" width="16" height="16" fill="none"><path d="M7.387.03a8.127 8.127 0 0 0-2.72.705C2.394 1.777.716 3.855.19 6.28a7.238 7.238 0 0 0-.181 1.533 7.943 7.943 0 0 0 1.579 4.968 7.995 7.995 0 0 0 5.081 3.11c.962.165 2.11.137 3.051-.075a8.084 8.084 0 0 0 4.671-3.003A8.148 8.148 0 0 0 15.8 9.777c.066-.3.21-1.191.194-1.203a20.31 20.31 0 0 0-.942-.121c-.047 0-.058.042-.114.447a6.985 6.985 0 0 1-.617 2.1 7.011 7.011 0 0 1-4.948 3.866c-.499.1-.811.129-1.373.129a5.91 5.91 0 0 1-1.372-.132A7.005 7.005 0 0 1 1.24 9.804c-.177-.676-.21-.955-.212-1.791-.001-.816.02-1.024.175-1.659a6.985 6.985 0 0 1 5.064-5.128c.643-.163.933-.197 1.706-.198.463-.001.79.011.947.035 2.058.308 3.771 1.375 4.898 3.05.178.265.529.892.529.946 0 .02-.872-.26-2.259-.727-1.242-.418-2.266-.75-2.276-.739-.02.022-.322.921-.312.927.034.022 6.208 2.074 6.213 2.065.007-.01-.049-6.262-.057-6.445-.003-.06-.003-.06-.5-.06h-.497l.013 1.757.013 1.757-.186-.257a7.957 7.957 0 0 0-2.052-1.977A7.98 7.98 0 0 0 7.387.03" fill-rule="evenodd" fill="#000"/></svg>