<svg xmlns="http://www.w3.org/2000/svg" width="16" height="16" fill="none" viewBox="0 0 16 16">
  <path fill="currentColor" fill-rule="evenodd" d="M7.284 1.036a7 7 0 0 1 7.085 4.059l-4.086-1.367a.5.5 0 1 0-.318.948l5.087 1.702a.5.5 0 0 0 .659-.479L15.662.564a.5.5 0 1 0-1 .01l.028 3.039A8 8 0 0 0 .025 7.369a.5.5 0 1 0 .996.078 7 7 0 0 1 6.263-6.411ZM.495 9.692a.5.5 0 0 1 .453-.07l5.087 1.702a.5.5 0 0 1-.318.948l-4.086-1.367A7 7 0 0 0 14.98 8.553a.5.5 0 0 1 .997.078A8 8 0 0 1 1.31 12.387l.028 3.04a.5.5 0 0 1-1 .009L.289 10.1a.5.5 0 0 1 .206-.41Z" clip-rule="evenodd"/>
</svg>
