<svg xmlns="http://www.w3.org/2000/svg" width="16" height="16" fill="none"><path d="M7.32.031a8.01 8.01 0 0 0-6.273 4.013 8.11 8.11 0 0 0-.969 2.847c-.072.504-.063.673.045.809.279.349.806.223.885-.212.014-.078.046-.297.072-.488a6.661 6.661 0 0 1 .64-2.08 7.043 7.043 0 0 1 1.333-1.867 7.017 7.017 0 0 1 3.934-1.979c.48-.074 1.651-.067 2.117.014 1.51.262 2.798.921 3.843 1.965.354.354.584.637.879 1.08.202.303.571.96.539.96-.007 0-.941-.312-2.075-.693-1.134-.381-2.094-.693-2.133-.693-.231 0-.446.153-.503.358-.06.215.038.471.217.564.175.09 5.255 1.771 5.351 1.77a.486.486 0 0 0 .461-.346c.022-.074.024-.829.006-2.843-.023-2.655-.025-2.747-.076-2.848a.669.669 0 0 0-.153-.185.514.514 0 0 0-.683.077c-.117.15-.119.182-.104 1.804l.014 1.54-.187-.259A8.005 8.005 0 0 0 7.32.031m7.919 8.124c-.203.127-.242.225-.305.765-.173 1.479-.901 2.95-1.998 4.04a6.658 6.658 0 0 1-1.856 1.322 6.94 6.94 0 0 1-4.906.478 6.54 6.54 0 0 1-1.281-.493 6.794 6.794 0 0 1-2.693-2.36c-.221-.33-.6-1-.565-1 .007 0 .941.312 2.075.693 1.258.423 2.102.693 2.164.693a.509.509 0 0 0 .488-.569.525.525 0 0 0-.233-.353c-.047-.024-1.25-.433-2.674-.91C1.186 9.702.851 9.597.741 9.607a.486.486 0 0 0-.4.28c-.054.122-.054.137-.03 2.884.022 2.42.03 2.774.067 2.856a.498.498 0 0 0 .909.003c.053-.119.054-.157.04-1.663a99.401 99.401 0 0 1-.008-1.54c.004 0 .121.153.261.34a7.775 7.775 0 0 0 1.62 1.63 8.075 8.075 0 0 0 3.653 1.525 9.409 9.409 0 0 0 1.787.054c2.319-.202 4.37-1.332 5.754-3.171a7.947 7.947 0 0 0 1.54-3.777c.071-.53.046-.664-.156-.825-.086-.069-.128-.083-.28-.09-.14-.007-.195.002-.259.042" fill="currentColor" fill-rule="evenodd"/></svg>