<svg xmlns="http://www.w3.org/2000/svg" width="24" height="24" fill="none"><path d="M11.343 1.005c-2.179.118-4.28.901-6.074 2.262-.523.397-1.602 1.475-1.995 1.993-1.142 1.506-1.849 3.135-2.152 4.96-.125.753-.21 2.226-.131 2.274.017.011.251.009.52-.003L2 12.468v-.606c0-2.787 1.273-5.558 3.4-7.399 1.591-1.378 3.466-2.201 5.52-2.425.605-.065 1.731-.055 2.32.021a9.992 9.992 0 0 1 5.923 2.944c.365.37 1.101 1.267 1.067 1.3-.006.007-1.037-.275-2.291-.624a102.59 102.59 0 0 0-2.341-.638c-.046-.001-.097.122-.191.465a4.834 4.834 0 0 0-.118.473c.054.036 6.614 1.838 6.622 1.819.013-.028-.822-6.722-.84-6.741-.012-.011-.963.104-.98.119-.005.005.099.862.23 1.906s.238 1.912.239 1.928c0 .017-.124-.109-.276-.28-2.29-2.572-5.502-3.911-8.941-3.725M22.19 11.509l-.19.015v.61c0 2.671-1.161 5.309-3.153 7.16-.813.756-1.516 1.243-2.467 1.707a9.967 9.967 0 0 1-7.53.496 9.875 9.875 0 0 1-4.812-3.436c-.15-.198-.268-.365-.261-.371.006-.006 1.046.277 2.311.629 1.265.353 2.316.641 2.337.641.032 0 .309-.92.284-.943-.039-.037-6.612-1.84-6.621-1.817-.011.03.825 6.728.842 6.741.011.009.965-.107.98-.119.005-.004-.099-.861-.23-1.905-.132-1.043-.24-1.913-.24-1.933 0-.019.076.053.169.16.997 1.156 2.323 2.171 3.651 2.794 1.516.712 3.078 1.067 4.695 1.066 1.38-.001 2.437-.177 3.705-.619 2.373-.827 4.444-2.507 5.772-4.686a11.368 11.368 0 0 0 1.448-3.939c.088-.531.193-2.096.149-2.212-.022-.057-.077-.067-.338-.061-.171.004-.397.014-.501.022" fill-rule="evenodd" fill="#000"/></svg>