<svg xmlns="http://www.w3.org/2000/svg" width="18" height="16" fill="currentColor">
  <path fill-rule="evenodd" d="M8.284 1.036a7 7 0 0 1 7.085 4.059l-4.086-1.367-.474-.159-.318.949.474.158 5.087 1.702.665.223-.006-.702-.049-5.335-.005-.5-1 .01.005.5.028 3.039A8 8 0 0 0 1.025 7.369l-.04.498.997.079.04-.499a7 7 0 0 1 6.262-6.411ZM1.283 9.399l.665.223 5.087 1.702.474.159-.318.948-.474-.159-4.086-1.367A7 7 0 0 0 15.98 8.553l.039-.499.997.079-.04.498A8 8 0 0 1 2.31 12.387l.028 3.04.005.5-1 .009-.005-.5-.049-5.335-.006-.702Z" clip-rule="evenodd"/>
</svg>
