<svg xmlns="http://www.w3.org/2000/svg" width="12" height="12" fill="none"><path d="M5.337 1.028a.526.526 0 0 0-.13.071c-.031.024-1.192 1.066-2.579 2.314C.872 4.993.092 5.708.058 5.766a.555.555 0 0 0-.003.455c.037.074.507.507 2.585 2.38 1.482 1.335 2.58 2.31 2.635 2.339a.517.517 0 0 0 .469-.005.516.516 0 0 0 .227-.27c.022-.06.027-.342.028-1.381L6 7.978l.115.01c.063.006.21.016.325.022 1.285.071 2.693.693 3.69 1.63.324.305.529.541.829.96.09.127.193.255.228.284a.502.502 0 0 0 .714-.088c.095-.132.106-.204.092-.636-.04-1.217-.284-2.251-.741-3.13a5.057 5.057 0 0 0-1.485-1.767c-.946-.71-2.188-1.141-3.562-1.234L6 4.015V2.721c0-1.463.004-1.418-.151-1.573a.508.508 0 0 0-.512-.12m-.336 2.587c.001.762.007.991.028 1.05.039.11.12.207.225.268.087.051.112.055.444.07.69.031 1.107.084 1.615.208 1.423.347 2.478 1.138 3.059 2.293.226.451.341.784.477 1.386l.014.06-.087-.082c-.56-.53-1.39-1.05-2.186-1.372A6.76 6.76 0 0 0 6.298 7c-.537-.028-.899-.006-1.033.063a.53.53 0 0 0-.244.293C5.008 7.402 5 7.792 5 8.397c0 .531-.007.963-.016.96a291.257 291.257 0 0 1-3.719-3.362c.007-.022 3.701-3.351 3.72-3.353.008-.001.015.437.016.973" fill-rule="evenodd" fill="#000"/></svg>