<svg xmlns="http://www.w3.org/2000/svg" width="16" height="16" fill="none"><path d="M7.261 1.064c-.047.03-1.68 1.421-3.629 3.091C.553 6.795.083 7.207.044 7.304c-.076.19-.05.373.071.507.16.176 7.139 6.131 7.217 6.158a.506.506 0 0 0 .356-.006.66.66 0 0 0 .284-.291c.019-.051.028-.669.028-1.867v-1.792l.14.007c3.16.151 5.277 1.257 6.814 3.557.246.368.395.461.659.411.116-.021.301-.18.351-.3.044-.104.047-.545.008-1.113-.113-1.658-.521-3.075-1.199-4.162-.903-1.449-2.264-2.445-4.04-2.959A10.627 10.627 0 0 0 8.6 5.081a41.148 41.148 0 0 1-.42-.031L8 5.035l-.001-1.818c0-2.043.008-1.954-.2-2.113-.134-.102-.406-.123-.538-.04m-.218 4.67c.056.124.214.26.323.278.048.008.357.026.687.041.701.032 1.144.082 1.68.188 1.398.276 2.475.808 3.343 1.651.785.763 1.309 1.712 1.615 2.926.077.307.189.879.189.969 0 .028-.113-.066-.287-.238a8.022 8.022 0 0 0-2.086-1.498c-1.037-.521-2.086-.813-3.494-.972-.399-.045-1.55-.084-1.661-.056-.09.023-.248.16-.307.268-.04.074-.046.238-.058 1.592l-.014 1.509-2.839-2.433a302.98 302.98 0 0 1-2.845-2.456c-.003-.013 1.275-1.119 2.839-2.458L6.973 2.61l.014 1.515c.011 1.313.019 1.527.056 1.609" fill-rule="evenodd" fill="#000"/></svg>