<svg width="329" height="154" viewBox="0 0 329 154" fill="none" xmlns="http://www.w3.org/2000/svg">
<rect width="329" height="154" fill="#9747FF"/>
<rect x="265" y="91" width="48" height="24" rx="12" fill="#1D1D1D"/>
<path d="M277.164 107.168C276.268 107.168 275.563 106.767 275.05 105.964C274.546 105.152 274.294 103.999 274.294 102.506C274.294 101.003 274.546 99.86 275.05 99.076C275.563 98.292 276.268 97.9 277.164 97.9C278.05 97.9 278.746 98.2967 279.25 99.09C279.763 99.874 280.02 101.013 280.02 102.506C280.02 103.999 279.763 105.152 279.25 105.964C278.746 106.767 278.05 107.168 277.164 107.168ZM277.164 106.244C277.509 106.244 277.812 106.113 278.074 105.852C278.335 105.591 278.536 105.185 278.676 104.634C278.825 104.083 278.9 103.374 278.9 102.506C278.9 101.629 278.825 100.919 278.676 100.378C278.536 99.8367 278.335 99.4447 278.074 99.202C277.812 98.95 277.509 98.824 277.164 98.824C276.809 98.824 276.501 98.95 276.24 99.202C275.978 99.4447 275.773 99.8367 275.624 100.378C275.484 100.919 275.414 101.629 275.414 102.506C275.414 103.374 275.484 104.083 275.624 104.634C275.773 105.185 275.978 105.591 276.24 105.852C276.501 106.113 276.809 106.244 277.164 106.244ZM283.913 107.168C283.437 107.168 283.017 107.112 282.653 107C282.289 106.879 281.971 106.725 281.701 106.538C281.43 106.351 281.192 106.155 280.987 105.95L281.547 105.194C281.817 105.455 282.13 105.693 282.485 105.908C282.839 106.113 283.278 106.216 283.801 106.216C284.165 106.216 284.491 106.132 284.781 105.964C285.079 105.796 285.317 105.563 285.495 105.264C285.672 104.956 285.761 104.592 285.761 104.172C285.761 103.556 285.588 103.075 285.243 102.73C284.897 102.385 284.435 102.212 283.857 102.212C283.558 102.212 283.297 102.259 283.073 102.352C282.849 102.445 282.601 102.581 282.331 102.758L281.715 102.366L282.009 98.068H286.475V99.062H283.017L282.779 101.708C282.993 101.596 283.208 101.507 283.423 101.442C283.637 101.377 283.88 101.344 284.151 101.344C284.664 101.344 285.131 101.442 285.551 101.638C285.971 101.834 286.302 102.142 286.545 102.562C286.797 102.973 286.923 103.5 286.923 104.144C286.923 104.788 286.778 105.339 286.489 105.796C286.209 106.244 285.84 106.585 285.383 106.818C284.925 107.051 284.435 107.168 283.913 107.168ZM289.346 102.114C289.122 102.114 288.926 102.035 288.758 101.876C288.59 101.708 288.506 101.498 288.506 101.246C288.506 100.975 288.59 100.761 288.758 100.602C288.926 100.434 289.122 100.35 289.346 100.35C289.579 100.35 289.775 100.434 289.934 100.602C290.092 100.761 290.172 100.975 290.172 101.246C290.172 101.498 290.092 101.708 289.934 101.876C289.775 102.035 289.579 102.114 289.346 102.114ZM289.346 107.168C289.122 107.168 288.926 107.089 288.758 106.93C288.59 106.762 288.506 106.552 288.506 106.3C288.506 106.029 288.59 105.815 288.758 105.656C288.926 105.488 289.122 105.404 289.346 105.404C289.579 105.404 289.775 105.488 289.934 105.656C290.092 105.815 290.172 106.029 290.172 106.3C290.172 106.552 290.092 106.762 289.934 106.93C289.775 107.089 289.579 107.168 289.346 107.168ZM294.358 107.168C293.882 107.168 293.462 107.112 293.098 107C292.734 106.879 292.417 106.725 292.146 106.538C291.875 106.351 291.637 106.155 291.432 105.95L291.992 105.194C292.263 105.455 292.575 105.693 292.93 105.908C293.285 106.113 293.723 106.216 294.246 106.216C294.61 106.216 294.937 106.132 295.226 105.964C295.525 105.796 295.763 105.563 295.94 105.264C296.117 104.956 296.206 104.592 296.206 104.172C296.206 103.556 296.033 103.075 295.688 102.73C295.343 102.385 294.881 102.212 294.302 102.212C294.003 102.212 293.742 102.259 293.518 102.352C293.294 102.445 293.047 102.581 292.776 102.758L292.16 102.366L292.454 98.068H296.92V99.062H293.462L293.224 101.708C293.439 101.596 293.653 101.507 293.868 101.442C294.083 101.377 294.325 101.344 294.596 101.344C295.109 101.344 295.576 101.442 295.996 101.638C296.416 101.834 296.747 102.142 296.99 102.562C297.242 102.973 297.368 103.5 297.368 104.144C297.368 104.788 297.223 105.339 296.934 105.796C296.654 106.244 296.285 106.585 295.828 106.818C295.371 107.051 294.881 107.168 294.358 107.168ZM302.297 107V101.022C302.297 100.789 302.306 100.504 302.325 100.168C302.344 99.8227 302.358 99.5333 302.367 99.3H302.311C302.199 99.5147 302.082 99.7247 301.961 99.93C301.84 100.126 301.714 100.336 301.583 100.56L299.497 103.612H304.607V104.536H298.279V103.78L302.101 98.068H303.389V107H302.297Z" fill="white"/>
<rect x="249" y="16" width="64" height="32" rx="16" fill="#1D1D1D"/>
<path d="M263.121 30.675L266.882 28.325" stroke="white" stroke-linecap="round" stroke-linejoin="round"/>
<path d="M263.121 33.325L266.882 35.675" stroke="white" stroke-linecap="round" stroke-linejoin="round"/>
<path d="M269 29.5C270.381 29.5 271.5 28.3807 271.5 27C271.5 25.6193 270.381 24.5 269 24.5C267.619 24.5 266.5 25.6193 266.5 27C266.5 28.3807 267.619 29.5 269 29.5Z" stroke="white" stroke-linecap="round" stroke-linejoin="round"/>
<path d="M269 39.5C270.381 39.5 271.5 38.3807 271.5 37C271.5 35.6193 270.381 34.5 269 34.5C267.619 34.5 266.5 35.6193 266.5 37C266.5 38.3807 267.619 39.5 269 39.5Z" stroke="white" stroke-linecap="round" stroke-linejoin="round"/>
<path d="M261 34.5C262.381 34.5 263.5 33.3807 263.5 32C263.5 30.6193 262.381 29.5 261 29.5C259.619 29.5 258.5 30.6193 258.5 32C258.5 33.3807 259.619 34.5 261 34.5Z" stroke="white" stroke-linecap="round" stroke-linejoin="round"/>
<path d="M297 24.867L299.318 29.563L304.5 30.316L300.75 33.971L301.635 39.133L297 36.696L292.365 39.133L293.25 33.971L289.5 30.316L294.682 29.563L297 24.867Z" stroke="white" stroke-linecap="round" stroke-linejoin="round"/>
<rect x="141" y="45" width="48" height="48" rx="24" fill="#575352"/>
<path d="M163.5 64.5C163.5 64.1022 163.658 63.7206 163.939 63.4393C164.221 63.158 164.602 63 165 63C165.398 63 165.779 63.158 166.061 63.4393C166.342 63.7206 166.5 64.1022 166.5 64.5V67.5H169.5V64.5C169.5 63.3065 169.026 62.1619 168.182 61.318C167.338 60.4741 166.193 60 165 60C163.807 60 162.662 60.4741 161.818 61.318C160.974 62.1619 160.5 63.3065 160.5 64.5V67.5H163.5V64.5Z" fill="white"/>
<path d="M171 69H159C158.172 69 157.5 69.6716 157.5 70.5V76.5C157.5 77.3284 158.172 78 159 78H171C171.828 78 172.5 77.3284 172.5 76.5V70.5C172.5 69.6716 171.828 69 171 69Z" fill="white"/>
</svg>
