<svg xmlns="http://www.w3.org/2000/svg" width="24" height="24" fill="none"><path d="M10.3 3.046c-.125.067-8.178 8.12-8.243 8.242a.452.452 0 0 0-.013.405c.063.124 8.113 8.18 8.244 8.25.221.117.495.033.634-.195.075-.123.078-.217.078-2.438V15h.17c.48.001 2.212.089 2.79.142 3.937.362 6.111 1.43 7.992 3.924.239.317.838 1.217 1.057 1.589.243.413.69.458.913.093.229-.377-.041-2.995-.464-4.479-.71-2.498-2.074-4.456-4.074-5.847-1.897-1.319-4.436-2.147-7.184-2.342l-.91-.065-.29-.022V5.687c0-2.218-.003-2.312-.078-2.435-.133-.217-.424-.314-.622-.206m-.227 5.706c.101.177.279.248.627.248a23.69 23.69 0 0 1 2.28.161c1.691.212 3.151.636 4.505 1.309 2.646 1.314 4.341 3.42 5.073 6.306.157.62.34 1.644.315 1.763-.008.041-.12-.073-.311-.321-.409-.53-1.134-1.278-1.608-1.659-2.185-1.757-4.66-2.425-9.434-2.544-1.229-.03-1.284-.021-1.442.237-.074.122-.078.215-.078 2.088v1.96l-3.4-3.4-3.4-3.4 3.39-3.39 3.39-3.39.02 1.97c.015 1.524.032 1.991.073 2.062" fill-rule="evenodd" fill="#000"/></svg>