<svg xmlns="http://www.w3.org/2000/svg" width="16" height="16" fill="none"><path d="M8.022 1.015a7.62 7.62 0 0 0-2.587.638 7.653 7.653 0 0 0-3.083 2.545l-.112.157V2.897c0-1.594.002-1.57-.156-1.703a.5.5 0 0 0-.776.149c-.057.119-.058.132-.084 2.683-.021 1.942-.02 2.586.004 2.658a.519.519 0 0 0 .469.356c.094 0 4.851-1.578 5.02-1.665.17-.088.273-.343.219-.54a.53.53 0 0 0-.48-.381c-.05 0-.929.281-1.953.625-1.025.344-1.863.617-1.863.606 0-.039.319-.592.476-.825.858-1.276 2.254-2.269 3.718-2.645 1.212-.31 2.522-.276 3.659.096a6.512 6.512 0 0 1 2.693 1.694c.922.963 1.483 2.076 1.725 3.426.054.302.061.428.061 1.062 0 .635-.007.761-.061 1.063a6.519 6.519 0 0 1-.993 2.508 6.473 6.473 0 0 1-3.031 2.467c-2.826 1.125-6.098.106-7.782-2.424a6.412 6.412 0 0 1-.999-2.454c-.066-.354-.122-.47-.274-.569a.524.524 0 0 0-.656.106c-.107.136-.122.249-.073.55.392 2.376 1.979 4.478 4.164 5.515a7.513 7.513 0 0 0 7.413-.543 8.03 8.03 0 0 0 2.037-2.028 7.833 7.833 0 0 0 1.221-3.204c.072-.487.065-1.551-.013-2.053a7.472 7.472 0 0 0-1.193-3.094c-1.486-2.225-4.014-3.475-6.71-3.318" fill-rule="evenodd" fill="#000"/></svg>