<svg xmlns="http://www.w3.org/2000/svg" width="16" height="16" fill="none" viewBox="0 0 16 16">
  <path fill="#1D1D1D" fill-rule="evenodd" d="M7.93 1.5a6.503 6.503 0 0 0-6.074 4.179l-.179.467-.934-.358.179-.467A7.503 7.503 0 0 1 15.429 8 7.5 7.5 0 0 1 .505 9.07l-.07-.494.99-.142.07.495A6.501 6.501 0 0 0 14.43 8a6.5 6.5 0 0 0-6.5-6.5Z" clip-rule="evenodd"/>
  <path fill="#1D1D1D" fill-rule="evenodd" d="m1.55.505-.044 4.778 4.557-1.525.318.948-5.887 1.97L.55.496l1 .009Z" clip-rule="evenodd"/>
</svg>
