<svg width="40" height="40" fill="none" xmlns="http://www.w3.org/2000/svg"><path d="M18.8.07c-4.097.229-7.949 1.707-11.267 4.324-.814.642-2.497 2.325-3.139 3.139C2.019 10.544.607 13.934.158 17.7c-.136 1.144-.136 3.456 0 4.6.478 4.015 2.103 7.712 4.717 10.733 3.311 3.826 7.802 6.211 12.825 6.809 1.144.136 3.456.136 4.6 0 4.435-.528 8.433-2.432 11.624-5.535 3.308-3.217 5.369-7.4 5.918-12.007.063-.53.103-1.424.103-2.3 0-.876-.04-1.77-.103-2.3-.528-4.435-2.432-8.433-5.535-11.624C30.242 1.897 24.678-.259 18.8.07m3.843 1.089c3.676.558 6.844 1.978 9.624 4.315 3.629 3.052 5.925 7.263 6.61 12.126.12.851.12 3.949 0 4.8-.834 5.921-4.099 10.909-9.11 13.916-2.219 1.331-4.662 2.18-7.367 2.561-.851.12-3.949.12-4.8 0-4.863-.685-9.074-2.981-12.126-6.61-2.337-2.781-3.762-5.959-4.315-9.624-.163-1.087-.196-3.553-.062-4.71.58-5.014 2.968-9.435 6.811-12.612 2.737-2.263 6.286-3.794 9.692-4.182.348-.04.723-.085.833-.1.478-.065 3.568.022 4.21.12m.924 10.918a.852.852 0 0 0-.217.177c-.232.291-.216.31 3.332 3.861l3.416 3.418H8.543l-.138.176c-.076.097-.138.228-.138.291 0 .063.062.194.138.291l.138.176h21.555l-3.416 3.418c-3.406 3.408-3.492 3.505-3.374 3.812.062.161.393.311.555.251.076-.028 1.878-1.789 4.004-3.914 3.108-3.105 3.866-3.896 3.866-4.034 0-.138-.758-.93-3.867-4.035-2.127-2.125-3.919-3.884-3.983-3.91-.157-.062-.164-.061-.316.022" fill-rule="evenodd" fill="#000"/></svg>