<svg xmlns="http://www.w3.org/2000/svg" width="24" height="24" fill="none"><path d="M17.236 2.09c-.117.077-.274.364-1.096 2L15.18 6H7.975l-.069-.29a3.54 3.54 0 0 0-2.528-2.596c-.418-.113-1.261-.124-1.671-.022-1.257.314-2.193 1.207-2.574 2.456-.095.315-.107.415-.107.952 0 .537.012.637.107.952.368 1.204 1.212 2.049 2.415 2.414.31.094.421.107.932.109.431.002.643-.016.826-.066.135-.038.256-.069.27-.069.013 0 .942 1.836 2.064 4.08L9.68 18H6.03c-3.55 0-3.654.002-3.778.078-.258.158-.252.099-.252 2.43 0 2.024.004 2.117.078 2.24.167.273-.532.252 8.422.252s8.255.021 8.422-.252c.074-.123.078-.216.078-2.248s-.004-2.125-.078-2.248c-.163-.267.087-.252-4.21-.252H10.82l-2.152-4.304-2.152-4.304.34-.318A3.453 3.453 0 0 0 7.889 7.35l.09-.35h7.202l.919 1.846c.517 1.037.973 1.903 1.042 1.977a.605.605 0 0 0 .234.159c.126.032 5.112-.943 5.334-1.042A.54.54 0 0 0 23 9.5c0-.17-.135-.369-.303-.449-.143-.069-.155-.067-2.521.406-1.308.261-2.384.468-2.392.459A140.03 140.03 0 0 1 16.92 8.2l-.85-1.699.855-1.711c.47-.94.863-1.711.875-1.712.011-.001 1.085.21 2.387.469 2.354.468 2.367.471 2.51.402.168-.08.303-.279.303-.449a.54.54 0 0 0-.29-.44C22.58 3.002 17.615 2 17.456 2a.543.543 0 0 0-.22.09M5.02 4.06c1.335.279 2.204 1.618 1.92 2.959-.155.73-.675 1.407-1.32 1.718-.434.209-.573.238-1.12.239-.466 0-.551-.011-.82-.108A2.53 2.53 0 0 1 2.277 7.62c-.367-.742-.364-1.502.008-2.258.489-.991 1.629-1.534 2.735-1.302M18 20.5V22H3v-3h15v1.5" fill-rule="evenodd" fill="#000"/></svg>