<svg xmlns="http://www.w3.org/2000/svg" width="16" height="16" fill="none"><path d="M11.279.06c-.111.056-.187.162-1.086 1.507l-.967 1.447-2.149-.007L4.927 3l-.063-.221c-.191-.659-.66-1.21-1.309-1.536a3.117 3.117 0 0 0-.373-.141c-.214-.065-.276-.072-.675-.074-.488-.002-.602.018-.959.164A2.48 2.48 0 0 0 .241 2.431c-.179.382-.227.613-.225 1.076.002.355.01.427.074.64.24.795.812 1.412 1.555 1.676.448.159.982.191 1.403.083.106-.027.192-.037.205-.023.023.023 3.387 6.09 3.387 6.108 0 .005-1.179.009-2.62.01-2.484 0-2.626.003-2.728.049a.479.479 0 0 0-.276.351c-.04.185-.04 3.013 0 3.198.035.163.13.285.276.351.104.047.348.049 6.209.049 5.056.001 6.115-.005 6.187-.035.117-.049.279-.235.298-.342.009-.049.013-.811.008-1.693-.007-1.574-.008-1.607-.062-1.679a1.202 1.202 0 0 0-.156-.155l-.101-.082-2.94-.007-2.94-.007-1.796-3.246-1.838-3.318c-.039-.07-.037-.074.123-.241.09-.094.218-.254.284-.357.131-.202.296-.575.326-.737l.019-.1 2.163.001H9.24l.907 1.365c.498.751.941 1.405.984 1.454a.49.49 0 0 0 .303.176c.065.012.616-.115 2.12-.491 1.118-.279 2.072-.521 2.119-.538.203-.073.357-.344.317-.558a.494.494 0 0 0-.477-.395c-.077 0-.844.179-1.94.453a176 176 0 0 1-1.835.453c-.013 0-.386-.545-.829-1.21l-.807-1.211.806-1.209.809-1.215c.002-.003.838.204 1.857.459 1.019.256 1.891.465 1.938.465.113.001.215-.044.323-.144a.468.468 0 0 0 .114-.565c-.1-.219-.042-.2-2.316-.768C12.486.235 11.514 0 11.473 0a.559.559 0 0 0-.194.06M2.8 2.038c.227.049.384.121.584.269.274.202.476.519.551.866a1.476 1.476 0 0 1-1.447 1.791 1.377 1.377 0 0 1-1.047-.432c-.299-.298-.428-.616-.427-1.051 0-.437.117-.718.426-1.029.384-.386.842-.525 1.36-.414m10.187 11.975v1H2v-2h10.987v1" fill-rule="evenodd" fill="#000"/></svg>