<svg xmlns="http://www.w3.org/2000/svg" width="16" height="16" fill="currentColor">
  <path fill-rule="evenodd" d="M3.974 3.547c0-.274.222-.497.496-.497h4.967a.497.497 0 1 1 0 .994H4.47a.497.497 0 0 1-.496-.497ZM3.2 4.811a.497.497 0 0 1 .675.194l4.01 7.242a.497.497 0 1 1-.869.481l-4.01-7.242a.497.497 0 0 1 .194-.675Z" clip-rule="evenodd"/>
  <path fill-rule="evenodd" d="M11.205 0 16 1.199l-.24.964-4.117-1.03-1.609 2.414 1.61 2.413 4.115-1.029.241.964-4.795 1.199L8.84 3.547 11.205 0ZM2.47 2.057a1.476 1.476 0 1 0 0 2.952 1.476 1.476 0 0 0 0-2.952ZM0 3.533a2.47 2.47 0 1 1 4.94 0 2.47 2.47 0 0 1-4.94 0ZM.993 11.99h12.915v3.974H.993v-3.973Zm.994.994v1.987h10.927v-1.987H1.987Z" clip-rule="evenodd"/>
</svg>
