<svg width="16" height="16" fill="none" xmlns="http://www.w3.org/2000/svg"><path d="M11.278.061c-.108.056-.196.178-1.085 1.507l-.967 1.446-2.15-.007L4.925 3l-.05-.187c-.173-.641-.675-1.244-1.288-1.546-.409-.202-.593-.241-1.12-.239-.422.002-.469.007-.68.077-.888.292-1.498.931-1.712 1.794-.082.326-.081.887.001 1.19.192.71.638 1.27 1.272 1.596.54.278 1.107.35 1.701.217.11-.024.193-.031.207-.017.025.026 3.384 6.083 3.384 6.104 0 .006-1.179.011-2.62.012-2.501 0-2.625.002-2.73.05a.571.571 0 0 0-.186.151l-.077.101v3.394l.077.102a.584.584 0 0 0 .191.151c.111.049.283.05 6.243.044l6.129-.007.086-.062a.884.884 0 0 0 .16-.158l.074-.096v-3.342l-.074-.096a.884.884 0 0 0-.16-.158l-.086-.062-2.937-.007-2.938-.007-1.829-3.304a333.274 333.274 0 0 1-1.83-3.327c0-.013.055-.077.123-.142.256-.249.506-.678.613-1.049L4.919 4l2.161.001h2.16l.907 1.365c.498.751.941 1.405.984 1.454.103.12.202.167.348.167.179 0 4.182-1.006 4.289-1.078.405-.273.228-.894-.255-.895-.077 0-.844.179-1.94.453a176 176 0 0 1-1.835.453c-.013 0-.386-.545-.829-1.21l-.807-1.211.806-1.209.809-1.215c.002-.003.838.204 1.857.459 1.019.256 1.889.465 1.933.465.19 0 .402-.164.467-.361a.519.519 0 0 0-.185-.543C15.71 1.039 11.613 0 11.471 0a.527.527 0 0 0-.193.061M2.865 2.053c.267.068.467.184.667.387.208.21.321.403.388.665a1.42 1.42 0 0 1-.397 1.428c-.318.314-.604.432-1.049.431-.409 0-.742-.139-1.034-.431a1.401 1.401 0 0 1-.433-1.038c.001-.443.12-.734.43-1.045.4-.4.886-.536 1.428-.397M13 14v1l-5.5.007-5.5.006v-2.026l5.5.007L13 13v1" fill-rule="evenodd" fill="#000"/></svg>