<svg xmlns="http://www.w3.org/2000/svg" width="17" height="17" viewBox="0 0 17 17">
  <path stroke="currentColor" stroke-linecap="round" d="m10.084 2.841 4.06 4.059M8.491 3.724A5.436 5.436 0 0 0 1.63 5.97l2.34 2.34m9.296.163a5.442 5.442 0 0 1-2.236 6.9l-2.35-2.35m-1.868 1.026-3.86-3.861S6.248 1.983 15.5 1.5c-.523 9.211-8.688 12.549-8.688 12.549ZM10.5 8a1.5 1.5 0 1 1-3 0 1.5 1.5 0 0 1 3 0Zm-6.53 5.023c.544.548.344 1.286 0 1.977C3.425 16.096 1 16 1 16s-.112-2.462 1-3c.693-.335 1.428-.523 1.97.023Z"/>
</svg>
