<svg xmlns="http://www.w3.org/2000/svg" width="16" height="16" fill="none"><path d="M14.907.229c-2.293.184-4.306.78-6.153 1.822l-.245.138-.235-.083c-.968-.344-2.207-.416-3.221-.189a5.85 5.85 0 0 0-1.84.745c-.88.547-1.564 1.27-2.133 2.254l-.075.129 1.162 1.164 1.162 1.164-.172.294a12.117 12.117 0 0 0-.677 1.356l-.115.289 1.978 1.977 1.977 1.978v.514l.327-.128.326-.127.167-.218c.092-.119.166-.202.166-.183a.596.596 0 0 1-.162.298c-.268.188.816-.357 1.307-.657l.171-.104 1.166 1.166 1.166 1.166.156-.089a6.094 6.094 0 0 0 1.388-1.055c.932-.932 1.508-2.117 1.691-3.477.017-.124.031-.442.031-.706a5.482 5.482 0 0 0-.304-1.88l-.11-.334.193-.342a14.66 14.66 0 0 0 1.397-3.619c.226-.947.331-1.71.428-3.125l.013-.18-.245.003c-.135.002-.443.019-.685.039m-.161 1.084c0 .243-.189 1.377-.321 1.936-.14.591-.483 1.684-.529 1.684-.009 0-.658-.641-1.441-1.425-.942-.942-1.413-1.43-1.387-1.439l.305-.109a14.234 14.234 0 0 1 3.26-.704c.101-.002.114.004.113.057m-1.407 4.905c-.18.363-.521.944-.787 1.342-1.306 1.953-3.144 3.596-5.281 4.721l-.343.18-1.693-1.693-1.693-1.693.135-.269c.874-1.742 2.251-3.44 3.801-4.687a13.956 13.956 0 0 1 2.242-1.45l.32-.161 1.718 1.717 1.718 1.718-.137.275M7.101 2.841a2.3 2.3 0 0 1 .289.055c.013.007-.07.083-.183.168-1.088.811-2.193 1.926-3.06 3.091l-.264.355-.807-.807c-.489-.489-.799-.818-.786-.835.576-.763 1.145-1.24 1.924-1.612A5.13 5.13 0 0 1 5.857 2.8a6.48 6.48 0 0 1 1.244.041m6.085 6.3c.116.86-.043 1.808-.44 2.642a5.006 5.006 0 0 1-1.425 1.788l-.211.165-.809-.808c-.444-.444-.805-.815-.801-.825a5.87 5.87 0 0 1 .352-.277 15.5 15.5 0 0 0 3.136-3.142l.092-.13.033.143c.018.079.051.279.073.444M2.898 11.204c-.36.036-.846.197-1.212.402-.2.112-.527.443-.653.661-.243.419-.402.98-.501 1.773-.035.278-.038 1.398-.004 1.432.042.042 1.115.029 1.485-.019 1.353-.172 2.093-.575 2.455-1.338.489-1.03.434-1.862-.161-2.451-.376-.372-.824-.518-1.409-.46m.481 1.023a.635.635 0 0 1 .337.304c.143.263.09.656-.158 1.156-.109.222-.161.284-.33.392-.298.191-.997.371-1.573.406l-.146.008.007-.146c.019-.457.163-1.124.307-1.428.151-.318.269-.424.635-.571.407-.162.722-.204.921-.121" fill-rule="evenodd" fill="#000"/></svg>