<svg xmlns="http://www.w3.org/2000/svg" width="24" height="24" fill="none"><path d="M22.3.544c-3.017.251-5.525.938-8.02 2.198-.407.205-.953.5-1.214.656a6.11 6.11 0 0 1-.504.282c-.016 0-.247-.071-.513-.159-.884-.29-1.606-.401-2.608-.401-2.481.001-4.797 1.046-6.377 2.879-.4.464-.57.696-.893 1.219l-.248.402 1.698 1.7c.935.935 1.699 1.714 1.699 1.73 0 .017-.145.278-.322.58-.384.657-.777 1.425-.961 1.881l-.134.332L6.85 16.79l2.948 2.948.137-.133.136-.132.028.203.029.204h1.209l-.169-.172-.169-.172.191-.091a25.54 25.54 0 0 0 1.405-.797l.215-.137 1.716 1.714 1.716 1.715.209-.115c1.566-.865 2.947-2.408 3.643-4.068a8.35 8.35 0 0 0 .665-3.368c-.001-1.009-.143-1.851-.463-2.748l-.135-.379.278-.463c1.643-2.738 2.611-5.859 2.9-9.351.089-1.065.105-.969-.169-.963a20.82 20.82 0 0 0-.87.059m0 1.286a21.301 21.301 0 0 1-1.103 5.013c-.18.506-.43 1.123-.471 1.166-.016.016-1.132-1.075-2.481-2.424l-2.453-2.453.394-.165c1.115-.465 2.567-.889 3.874-1.129.627-.115 1.783-.27 2.053-.274l.213-.004-.026.27m-4.731 4.479 2.708 2.708-.244.459c-1.8 3.38-4.633 6.314-8.138 8.425-.349.211-.861.498-1.137.639l-.503.255-2.593-2.593-2.593-2.594.28-.534c.521-.994.932-1.669 1.57-2.581 1.758-2.511 4.077-4.702 6.501-6.14.757-.449 1.32-.751 1.4-.752.022-.001 1.259 1.218 2.749 2.708m-6.634-2.056c.262.056.492.118.512.138.022.022-.138.166-.395.359C9.299 6.061 7.507 7.916 6.2 9.771l-.3.425-1.35-1.348c-.743-.741-1.35-1.36-1.35-1.374 0-.015.108-.173.24-.351.974-1.313 2.401-2.3 3.946-2.728.173-.048.548-.129.834-.179.461-.082.618-.091 1.38-.078.732.012.931.029 1.335.115m3.385 2.924c-.512.143-1.045.589-1.272 1.065a1.95 1.95 0 0 0 .361 2.225c.277.288.468.415.794.527.698.24 1.456.081 1.995-.419.438-.405.642-.853.646-1.415.003-.41-.029-.566-.188-.914a2.013 2.013 0 0 0-1.277-1.065c-.279-.072-.806-.074-1.059-.004m.911 1.005c.196.082.44.319.533.518.225.484-.045 1.146-.548 1.343-.168.065-.573.059-.739-.012a.99.99 0 0 1-.607-.927c0-.403.218-.741.586-.908.203-.092.572-.099.775-.014m4.332 4.499c.314 1.262.246 2.829-.177 4.119-.465 1.416-1.475 2.802-2.664 3.656l-.329.237-1.366-1.368c-1.083-1.084-1.354-1.376-1.305-1.404.177-.103 1.332-.992 1.837-1.416 1.299-1.089 2.784-2.662 3.679-3.897.116-.161.218-.285.226-.277.008.008.053.166.099.35M3.382 16.464c-1 .223-1.797.878-2.177 1.789-.254.612-.428 1.36-.564 2.434a27.927 27.927 0 0 0-.16 2.448l-.001.236.93-.023c2.281-.054 4.092-.469 4.92-1.126.801-.637 1.25-1.796 1.116-2.885-.107-.871-.489-1.574-1.176-2.167-.319-.275-.872-.573-1.25-.674-.349-.094-1.281-.112-1.638-.032m1.334.998c.735.173 1.41.82 1.648 1.578.097.312.116.911.037 1.24-.102.43-.391.908-.712 1.178-.381.321-1.311.6-2.531.759-.659.086-1.594.16-1.625.129-.015-.015-.005-.31.021-.656.112-1.476.321-2.547.62-3.17.233-.487.793-.926 1.355-1.062.292-.071.88-.069 1.187.004" fill-rule="evenodd" fill="#000"/></svg>