<svg xmlns="http://www.w3.org/2000/svg" width="16" height="16" fill="none" viewBox="0 0 16 16">
  <path fill="#1D1D1D" fill-rule="evenodd" d="m15.83.172-.03.556c-.156 2.736-.948 4.956-1.997 6.73.488 1.268.558 2.748.137 4.046a5.943 5.943 0 0 1-2.658 3.3l-.333.195-2.332-2.332a12.976 12.976 0 0 1-1.518.803c-.031.014.075-.03 0 0l-.409.164-4.323-4.323.118-.303.043-.105c.027-.064.067-.156.121-.272a12.926 12.926 0 0 1 .678-1.257L1.004 5.051l.194-.333a5.936 5.936 0 0 1 3.28-2.65 6.067 6.067 0 0 1 4.03.121c1.779-1.053 4.01-1.844 6.766-1.988l.557-.03ZM7.428 2.898A4.936 4.936 0 0 0 2.267 4.9l1.618 1.618c.38-.544.846-1.137 1.406-1.735.6-.64 1.31-1.287 2.136-1.885ZM3.546 9.075l3.377 3.378c-.006.003.006-.003 0 0 .208-.099.526-.26.89-.47a14.873 14.873 0 0 0 2.704-2.018 13.599 13.599 0 0 0 2.962-4.022L10.04 2.504a13.437 13.437 0 0 0-4.019 2.963 14.726 14.726 0 0 0-2.008 2.712c-.21.365-.37.688-.467.896.003-.006-.01.021 0 0Zm7.485-6.994 2.874 2.873c.42-1.096.724-2.33.853-3.715-1.39.124-2.628.425-3.727.842ZM9.47 12.106l1.63 1.63a4.943 4.943 0 0 0 1.997-5.2 15.01 15.01 0 0 1-1.896 2.157c-.597.562-1.19 1.03-1.732 1.413Zm-6.4.074c-.24.015-.527.112-.853.27-.138.067-.273.21-.392.46a3.32 3.32 0 0 0-.25.872 6.345 6.345 0 0 0-.071.71c.2-.01.443-.032.693-.074a3.33 3.33 0 0 0 .863-.25c.248-.12.393-.254.461-.39.163-.327.264-.615.282-.857a.647.647 0 0 0-.189-.546.65.65 0 0 0-.543-.195Zm-2.55 3.302L.5 14.987.497 14.9a7.504 7.504 0 0 1 .092-1.278c.06-.367.16-.776.334-1.141.173-.363.44-.729.859-.931.366-.177.793-.342 1.229-.368.458-.028.926.098 1.314.489.39.393.51.864.477 1.324-.033.436-.203.863-.384 1.228-.205.41-.567.675-.927.847a4.313 4.313 0 0 1-1.128.334 7.47 7.47 0 0 1-1.348.097l-.494-.02Z" clip-rule="evenodd"/>
</svg>
