<svg xmlns="http://www.w3.org/2000/svg" width="24" height="24" viewBox="0 0 24 24"><path stroke="currentColor" fill="none" d="m14.935 2.964 5.947 5.947m-8.279-4.653A8.001 8.001 0 0 0 3.779 5.95a7.98 7.98 0 0 0-1.229 1.6l3.428 3.428m13.619.238a7.998 7.998 0 0 1-1.676 8.876 7.98 7.98 0 0 1-1.6 1.229l-3.442-3.442m-2.736 1.506-5.657-5.657S9.318 1.707 22.871 1c-.767 13.494-12.728 18.385-12.728 18.385Zm-8.03-1.67a2.843 2.843 0 1 1 4.022 4.022C5.024 22.848 1 22.871 1 22.871s.002-4.046 1.113-5.156Zm13.803-9.669a1.5 1.5 0 0 1 0 2.122 1.512 1.512 0 0 1-2.178-.056 1.49 1.49 0 0 1 .056-2.066 1.5 1.5 0 0 1 2.122 0Z"/></svg>