<svg xmlns="http://www.w3.org/2000/svg" width="24" height="24" fill="none"><path d="M1 2.986v1.998l.85.048c1.281.072 2.247.218 3.39.51 5.956 1.526 10.692 6.262 12.218 12.218.292 1.142.435 2.096.509 3.39l.048.85h3.998l-.026-.734A20.89 20.89 0 0 0 17.798 9.42 21.043 21.043 0 0 0 6.796 1.821c-1.638-.471-3.279-.729-5.106-.804L1 .989v1.997m0 7.003v2l.49.027c3.036.172 5.744 1.624 7.541 4.044 1.175 1.583 1.833 3.422 1.952 5.454l.028.486H15.012l-.025-.59C14.749 15.989 11.43 11.225 6.4 9.088c-1.486-.631-3.087-.985-4.85-1.072L1 7.988v2.001m2.503 6.051a3.19 3.19 0 0 0-1.8 1.04c-.716.837-.897 2.02-.469 3.071a3.046 3.046 0 0 0 1.615 1.615 2.982 2.982 0 0 0 3.266-.651 2.982 2.982 0 0 0 .131-4.095c-.349-.396-.97-.781-1.49-.923-.265-.073-.986-.106-1.253-.057" fill="currentColor" fill-rule="evenodd"/></svg>