<svg xmlns="http://www.w3.org/2000/svg" width="16" height="16" fill="none"><path d="M.993 2.336 1 3.667l.48.017a11.257 11.257 0 0 1 7.384 3.171 11.17 11.17 0 0 1 2.883 4.572c.349 1.049.527 2.025.569 3.12l.017.453 1.319.007c.725.004 1.328-.003 1.339-.014.028-.028-.02-1.03-.073-1.509a14.462 14.462 0 0 0-.907-3.653c-.202-.511-.7-1.519-.985-1.991a14.08 14.08 0 0 0-7.3-6.016 13.603 13.603 0 0 0-4.186-.802l-.554-.017.007 1.331m0 4.671L1 8.333l.187.006a6.665 6.665 0 0 1 4.521 1.953 6.665 6.665 0 0 1 1.953 4.521l.006.187h2.666l-.008-.307c-.069-2.599-1.302-5.139-3.311-6.818a9.275 9.275 0 0 0-3.767-1.931 9.146 9.146 0 0 0-1.992-.264H.986l.007 1.327m1.514 4.061a1.989 1.989 0 0 0-1.292 1.052 1.81 1.81 0 0 0-.208.88c0 .599.25 1.132.726 1.542.178.153.558.343.814.405.244.06.662.06.906 0a2.026 2.026 0 0 0 1.332-1.067 1.81 1.81 0 0 0 .208-.88 1.81 1.81 0 0 0-.208-.88 1.985 1.985 0 0 0-1.303-1.054 2.274 2.274 0 0 0-.975.002" fill="currentColor" fill-rule="evenodd"/></svg>