<svg xmlns="http://www.w3.org/2000/svg" width="16" height="16" fill="none"><path d="M1.617.549c-.086.021-.23.077-.32.124-.21.111-.512.413-.622.62C.494 1.638.507 1.126.507 8s-.013 6.362.168 6.707c.109.206.412.509.618.618.345.181-.167.168 6.707.168s6.362.013 6.707-.168c.206-.109.509-.412.618-.618.181-.345.168.167.168-6.707s.013-6.362-.168-6.707a1.875 1.875 0 0 0-.621-.619c-.337-.178.134-.167-6.717-.165-5.272.002-6.237.008-6.37.04M14.23 1.552a.571.571 0 0 1 .243.283c.011.04.02 2.826.02 6.192 0 5.729-.003 6.125-.045 6.203a.55.55 0 0 1-.309.249c-.138.038-12.14.038-12.278 0a.55.55 0 0 1-.309-.249c-.042-.078-.046-.478-.053-6.11-.005-3.315-.001-6.089.008-6.165a.493.493 0 0 1 .363-.435c.049-.012 2.832-.02 6.183-.017 5.7.003 6.099.007 6.177.049M7.88 3.518a.483.483 0 0 0-.36.348c-.019.07-.025.875-.021 2.446l.008 2.341.062.101a.513.513 0 0 0 .862 0l.062-.101.008-2.341c.004-1.571-.002-2.376-.021-2.446a.529.529 0 0 0-.237-.304.624.624 0 0 0-.363-.044m-.16 7.024c-.166.055-.276.12-.402.236a.93.93 0 0 0-.292.525c-.095.455.134.9.569 1.105.157.074.206.085.405.085.199 0 .248-.011.405-.085.656-.309.796-1.151.272-1.635a.936.936 0 0 0-.637-.258 1.086 1.086 0 0 0-.32.027" fill-rule="evenodd" fill="#000"/></svg>