<svg xmlns="http://www.w3.org/2000/svg" width="24" height="24" fill="none"><path d="M1.66 1.652a.5.5 0 0 0-.158.31c-.014.098-.02 4.679-.014 10.18.011 9.477.016 10.007.083 10.109.038.059.119.14.178.178.102.067.627.071 10.251.071 9.624 0 10.149-.004 10.251-.071a.717.717 0 0 0 .178-.178c.067-.102.072-.632.083-10.109.006-5.501 0-10.082-.014-10.18a.5.5 0 0 0-.158-.31l-.132-.132H1.792l-.132.132M21.48 12.02v9.5H2.52v-19h18.96v9.5m-9.82-5.368a.503.503 0 0 0-.158.31c-.014.098-.021 1.529-.014 3.18.011 2.788.017 3.009.083 3.109a.501.501 0 0 0 .858 0c.066-.1.072-.321.083-3.109.007-1.651 0-3.082-.014-3.18a.503.503 0 0 0-.158-.31c-.116-.116-.158-.132-.34-.132-.182 0-.224.016-.34.132m.004 9.411a1.005 1.005 0 0 0-.533.448c-.095.161-.111.233-.111.489s.016.328.111.489a.993.993 0 0 0 1.57.212c.18-.18.299-.459.299-.701 0-.674-.705-1.168-1.336-.937" fill-rule="evenodd" fill="#000"/></svg>