<svg xmlns="http://www.w3.org/2000/svg" width="16" height="16" fill="none"><path d="M.987 8v8h8.026v-.987H2v-14h12V8h1.013V0H.987v8m7.16-3.982c-.545.064-.897.144-1.268.287a4.486 4.486 0 0 0-2.385 2.162 4.351 4.351 0 0 0-.486 2.212 4.451 4.451 0 0 0 1.239 2.925 4.492 4.492 0 0 0 5.772.62l.297-.201 1.842 1.842L15 15.707l.353-.354.354-.353-1.842-1.842-1.842-1.842.197-.291a4.483 4.483 0 0 0 .549-3.945 5.48 5.48 0 0 0-.602-1.187 5.46 5.46 0 0 0-1.047-1.046 4.724 4.724 0 0 0-1.656-.736c-.434-.094-.987-.133-1.317-.093m.948 1.038a3.453 3.453 0 0 1 1.879.982c.497.499.802 1.062.95 1.756.077.358.084 1.011.014 1.358a3.513 3.513 0 0 1-2.527 2.725 3.416 3.416 0 0 1-2.464-.25 3.477 3.477 0 0 1-1.895-2.556c-.066-.4-.043-1.036.051-1.408.34-1.351 1.417-2.354 2.804-2.61.267-.05.886-.048 1.188.003" fill="currentColor" fill-rule="evenodd"/></svg>