<svg xmlns="http://www.w3.org/2000/svg" width="24" height="24" fill="none"><path d="M2 12v11h11.52v-1H3V2h18v10h1V1H2v11m3-6.5V6h11V5H5v.5m0 4v.5h4V9H5v.5m8.96-.475c-1.347.171-2.441.693-3.341 1.593a5.538 5.538 0 0 0-1.523 2.842c-.105.505-.105 1.575 0 2.08a5.53 5.53 0 0 0 1.523 2.841c.786.787 1.717 1.283 2.861 1.526.476.101 1.564.101 2.04 0a5.712 5.712 0 0 0 2.18-.944l.32-.232 2.24 2.235 2.241 2.235.349-.351.349-.351-2.234-2.234-2.235-2.234.233-.326c.45-.628.777-1.381.941-2.165.056-.27.075-.529.075-1.04 0-.77-.058-1.135-.288-1.797a5.263 5.263 0 0 0-1.311-2.084C17.364 9.6 16.089 9.055 14.64 9.02a7.797 7.797 0 0 0-.68.005m1.212 1.035a4.434 4.434 0 0 1 2.503 1.265 4.434 4.434 0 0 1 1.265 2.503c.075.496.075.848 0 1.344a4.496 4.496 0 0 1-3.697 3.763c-1.932.332-3.891-.671-4.779-2.446-.268-.533-.464-1.375-.464-1.989 0-.614.196-1.456.464-1.989a4.75 4.75 0 0 1 2.047-2.047c.778-.39 1.763-.54 2.661-.404M5 13.5v.5h2v-1H5v.5" fill="currentColor" fill-rule="evenodd"/></svg>