<svg xmlns="http://www.w3.org/2000/svg" width="16" height="16" fill="currentColor" viewBox="0 0 16 16">
  <path d="M1 10a5 5 0 0 0 5 5v1a6 6 0 0 1-6-6h1Z"/>
  <path d="M3 10a3 3 0 0 0 3 3v1a4 4 0 0 1-4-4h1Z"/>
  <path fill-rule="evenodd" d="m8.221 4.243 1.414-1.415 3.536 3.536-1.414 1.414 4.242 4.243-2.828 2.828-4.243-4.242-1.414 1.414-3.536-3.536 1.415-1.414L1.15 2.828 3.978 0l4.243 4.243Zm1.414 5.656 3.536 3.536 1.414-1.414-3.536-3.536L9.636 9.9Zm-2.121.708 4.243-4.243-2.122-2.121-4.242 4.242 2.121 2.122ZM6.1 6.364 7.514 4.95 3.978 1.414 2.564 2.828 6.1 6.364Z" clip-rule="evenodd"/>
</svg>
