<svg width="16" height="16" viewBox="0 0 16 16" fill="none" xmlns="http://www.w3.org/2000/svg">
<path d="M6.36389 15.8169C2.96356 15.8169 0.207095 13.0604 0.207092 9.66008H1.20699C1.20699 12.5081 3.51584 14.817 6.36389 14.817V15.8169Z" fill="#1D1D1D"/>
<path d="M6.36458 13.6603C4.15545 13.6603 2.36432 11.8692 2.36432 9.66008H3.36421C3.36421 11.3169 4.70773 12.6604 6.36458 12.6604V13.6603Z" fill="#1D1D1D"/>
<path fill-rule="evenodd" clip-rule="evenodd" d="M11.6672 7.89231L15.9098 12.1349L13.0814 14.9634L8.83877 10.7207L7.42455 12.1349L3.88902 8.59942L5.30323 7.1852L1.06059 2.94256L3.88902 0.114136L8.13166 4.35678L9.54587 2.94256L13.0814 6.4781L11.6672 7.89231ZM5.30323 8.59942L7.42455 10.7207L11.6672 6.4781L9.54587 4.35678L5.30323 8.59942ZM2.47481 2.94256L6.01034 6.4781L7.42455 5.06388L3.88902 1.52835L2.47481 2.94256ZM9.54587 10.0136L13.0814 13.5492L14.4956 12.1349L10.9601 8.59942L9.54587 10.0136Z" fill="#1D1D1D"/>
</svg>
