<svg xmlns="http://www.w3.org/2000/svg" width="16" height="16" fill="currentColor" viewBox="0 0 16 16">
  <path fill-rule="evenodd" d="M3.703 1h8.594L15.5 6.872V7c0 .609-.169 1.351-.64 1.954C14.372 9.576 13.597 10 12.5 10s-1.872-.424-2.36-1.046C9.67 8.35 9.5 7.609 9.5 7v-.088L11.286 2H8.5v11h-1V2H4.714L6.5 6.912V7c0 .609-.169 1.351-.64 1.954C5.372 9.576 4.597 10 3.5 10s-1.872-.424-2.36-1.046C.67 8.35.5 7.609.5 7v-.128L3.703 1Zm.206 1.712L5.286 6.5H1.842L3.91 2.712ZM1.552 7.5c.063.297.184.592.376.837.285.364.76.663 1.572.663s1.287-.299 1.572-.663a2.04 2.04 0 0 0 .376-.837H1.552Zm10.54-4.788L14.157 6.5h-3.444l1.377-3.788ZM10.551 7.5c.063.297.184.592.376.837.285.364.76.663 1.572.663s1.287-.299 1.572-.663a2.04 2.04 0 0 0 .376-.837h-3.896ZM3 14h10v1H3v-1Z" clip-rule="evenodd"/>
</svg>
