<svg xmlns="http://www.w3.org/2000/svg" width="24" height="24" fill="none"><path d="M5.819 2.897c-.051.077-.102.103-.204.103-.111 0-.135.015-.135.086a.183.183 0 0 1-.065.133c-.051.037-.056.065-.022.127.037.07-.255.497-2.298 3.357C.828 9.877.751 9.98.618 9.992c-.135.013-.138.017-.138.194a.503.503 0 0 1-.087.304l-.087.122.082.066a.367.367 0 0 1 .102.204c.052.343.152.801.231 1.058.42 1.359 1.365 2.374 2.599 2.793.579.196.926.247 1.68.247.754 0 1.101-.051 1.68-.247 1.258-.427 2.202-1.458 2.613-2.853.055-.187.111-.412.125-.5.047-.307.12-.56.173-.601.043-.033.042-.067-.009-.189a1.16 1.16 0 0 1-.062-.369c0-.206-.006-.221-.096-.221-.088 0-.187-.213-1.326-2.87l-1.285-3L6.759 4h4.721v18h-7v1h15.04v-1h-7V4h4.721l-.054.13-1.285 3C14.763 9.787 14.664 10 14.576 10c-.09 0-.096.015-.096.221 0 .122-.028.288-.062.369-.051.122-.052.156-.009.189.053.041.126.294.173.601.081.518.365 1.241.677 1.722.628.969 1.493 1.547 2.701 1.805.478.103 1.602.103 2.08 0 .957-.205 1.646-.578 2.241-1.214.662-.708 1.044-1.583 1.229-2.811a.367.367 0 0 1 .102-.204l.082-.066-.087-.122a.503.503 0 0 1-.087-.304c0-.177-.003-.181-.138-.194-.133-.012-.21-.115-2.477-3.289-2.043-2.86-2.335-3.287-2.298-3.357.034-.062.029-.09-.022-.127a.183.183 0 0 1-.065-.133c0-.071-.024-.086-.135-.086-.102 0-.153-.026-.204-.103-.064-.098-.071-.1-.142-.036-.061.055-.098.06-.195.026-.104-.036-.124-.031-.145.036C17.675 2.999 17.573 3 12 3c-5.573 0-5.675-.001-5.699-.077-.021-.067-.041-.072-.145-.036-.097.034-.134.029-.195-.026-.071-.064-.078-.062-.142.036M5.131 9.99c-1.707.006-3.111.003-3.119-.005-.009-.009.861-1.243 1.932-2.743l1.948-2.727 1.171 2.732L8.234 9.98l-3.103.01m14.965-2.695c1.05 1.471 1.901 2.681 1.892 2.69-.008.008-1.412.011-3.119.005l-3.103-.01 1.167-2.727c.869-2.033 1.178-2.716 1.211-2.68.025.026.903 1.251 1.952 2.722M8.44 11.094c0 .211-.171.751-.357 1.126-.614 1.237-1.715 1.833-3.263 1.767-1.012-.044-1.711-.318-2.291-.898a3.005 3.005 0 0 1-.631-.888c-.152-.306-.338-.905-.338-1.085V11h6.88v.094m14 0c0 .211-.171.751-.357 1.126-.614 1.237-1.715 1.833-3.263 1.767-1.012-.044-1.711-.318-2.291-.898a3.005 3.005 0 0 1-.631-.888c-.152-.306-.338-.905-.338-1.085V11h6.88v.094" fill-rule="evenodd" fill="#000"/></svg>