<svg xmlns="http://www.w3.org/2000/svg" width="16" height="16" fill="none" viewBox="0 0 16 16"><path fill="currentColor" d="M4 2.5V2h-.268l-.148.223L4 2.5ZM6 7h.5v-.106l-.043-.097L6 7ZM1 7l-.416-.277-.084.126V7H1Zm11-4.5.416-.277L12.268 2H12v.5ZM15 7h.5v-.151l-.084-.126L15 7Zm-5 0-.457-.203-.043.097V7h.5ZM8.5 2.5V2h-1v.5h1Zm-1 12v.5h1v-.5h-1Zm-4-.5H3v1h.5v-1Zm9 1h.5v-1h-.5v1ZM3.543 2.703l2 4.5.914-.406-2-4.5-.914.406ZM5.5 7c0 .446-.127.953-.428 1.337C4.787 8.701 4.312 9 3.5 9v1c1.097 0 1.872-.424 2.36-1.046C6.33 8.35 6.5 7.609 6.5 7h-1Zm-2 2c-.812 0-1.287-.299-1.572-.663C1.627 7.953 1.5 7.446 1.5 7h-1c0 .609.169 1.351.64 1.954C1.628 9.576 2.403 10 3.5 10V9ZM1.416 7.277l3-4.5-.832-.554-3 4.5.832.554ZM4 3h8V2H4v1Zm7.584-.223 3 4.5.832-.554-3-4.5-.832.554ZM14.5 7c0 .446-.127.953-.428 1.337-.285.364-.76.663-1.572.663v1c1.097 0 1.872-.424 2.36-1.046.471-.603.64-1.345.64-1.954h-1Zm-2 2c-.812 0-1.287-.299-1.572-.663-.301-.384-.428-.891-.428-1.337h-1c0 .609.169 1.351.64 1.954.488.622 1.263 1.046 2.36 1.046V9Zm-2.043-1.797 2-4.5-.914-.406-2 4.5.914.406ZM7.5 2.5v12h1v-12h-1ZM3.5 15h9v-1h-9v1Zm-2-7.5h4v-1h-4v1Zm9 0h4v-1h-4v1Z"/></svg>