<svg xmlns="http://www.w3.org/2000/svg" width="16" height="16" fill="none"><path d="M2.116 4.426.499 6.852l.015.341c.051 1.151.684 2.128 1.648 2.544.719.31 1.66.348 2.425.099 1.104-.361 1.827-1.364 1.909-2.649l.017-.267-.859-1.933a357.245 357.245 0 0 0-.872-1.954c-.006-.011.601-.02 1.35-.02h1.361V14H2.985l.008.5L3 15h10l.007-.5.008-.5H8.507V3.013h1.361c.749 0 1.356.009 1.35.02-.007.011-.399.89-.872 1.954L9.487 6.92l.017.263c.072 1.124.631 2.045 1.508 2.482.43.215.797.305 1.335.327.943.039 1.73-.235 2.288-.798.34-.343.527-.65.685-1.123.115-.342.173-.677.173-.988V6.84L13.88 4.42 12.267 2H3.733L2.116 4.426m2.462.607c.357.803.649 1.463.649 1.467 0 .003-.738.007-1.64.007a47.4 47.4 0 0 1-1.64-.014c0-.03 1.956-2.945 1.968-2.933.008.007.306.67.663 1.473m8.512 0c.53.796.963 1.453.963 1.46 0 .008-.739.014-1.643.014-1.303 0-1.64-.007-1.629-.034l.632-1.42c.34-.762.63-1.415.644-1.451.014-.037.034-.054.047-.04.013.014.456.676.986 1.471M5.426 7.58c-.09.417-.381.866-.704 1.086-.623.423-1.688.451-2.345.061-.35-.206-.679-.659-.786-1.08l-.039-.154h3.892l-.018.087m8.983.067c-.107.421-.436.874-.786 1.08-.764.453-2.029.329-2.574-.251a2.151 2.151 0 0 1-.475-.896l-.018-.087h3.892l-.039.154" fill="currentColor" fill-rule="evenodd"/></svg>