<svg xmlns="http://www.w3.org/2000/svg" width="16" height="16" fill="currentColor" viewBox="0 0 16 16">
  <path fill-rule="evenodd" d="m11.598.5.912.418a2.5 2.5 0 0 1 1.216 3.32l-2.108 4.534a2.492 2.492 0 0 1-1.456 1.315l-.473.162-.324-.946.473-.162a1.493 1.493 0 0 0 .872-.788l2.108-4.535a1.5 1.5 0 0 0-.732-1.994L9.243 7.953l-.907-.42L11.598.5ZM4.402.5 9.55 11.597a2.5 2.5 0 1 1-.529 1.237l-1.02-2.201-1.022 2.2a2.5 2.5 0 1 1-.529-1.236l.659-1.42a2.499 2.499 0 0 1-2.726-1.404L2.275 4.239A2.5 2.5 0 0 1 3.489.919L4.402.5Zm2.879 8.581a1.5 1.5 0 0 1-1.991-.73L3.182 3.818a1.5 1.5 0 0 1 .728-1.991l3.37 7.255ZM4.5 11.662a1.5 1.5 0 1 0 0 3 1.5 1.5 0 0 0 0-3Zm7 0a1.5 1.5 0 1 0 0 3 1.5 1.5 0 0 0 0-3Z" clip-rule="evenodd"/>
</svg>
