<svg xmlns="http://www.w3.org/2000/svg" width="24" height="24" fill="none"><path d="M6.38 1.436c-.586.285-.895.5-1.306.907A4.365 4.365 0 0 0 3.755 5.52c0 .543.061.934.22 1.408.105.315 2.267 5.356 2.475 5.772.41.823 1.142 1.441 2.07 1.747.328.108.451.128.9.142.442.013.627-.002 1.239-.105.395-.066.722-.116.725-.112.006.006-1.315 3.09-1.586 3.706-.041.093-.05.084-.205-.2-.218-.403-.386-.625-.684-.904a3.57 3.57 0 0 0-1.545-.863c-.403-.11-1.254-.119-1.657-.019-1.257.314-2.193 1.207-2.574 2.456-.095.315-.107.415-.107.952 0 .537.012.637.107.952.448 1.468 1.675 2.45 3.167 2.535 1.023.059 1.923-.289 2.66-1.027.425-.425.648-.777.858-1.351.171-.471 2.149-5.049 2.181-5.049.029 0 2.083 4.755 2.195 5.081.615 1.798 2.56 2.763 4.394 2.18 1.016-.323 1.909-1.215 2.232-2.23a3.501 3.501 0 0 0-2.442-4.477c-.418-.113-1.261-.124-1.671-.022a3.55 3.55 0 0 0-2.313 1.804c-.142.271-.149.278-.192.183a327.754 327.754 0 0 1-1.587-3.707c.004-.004.331.046.726.112.612.103.797.118 1.239.105.45-.014.571-.033.9-.143.886-.293 1.622-.892 2.012-1.637.149-.284 2.313-5.285 2.478-5.729a4.51 4.51 0 0 0-.148-3.467 5.884 5.884 0 0 0-.382-.67c-.258-.372-.826-.924-1.203-1.168-.32-.206-1.103-.588-1.149-.56-.017.01-1.164 2.648-2.549 5.862s-2.528 5.843-2.54 5.843c-.012 0-1.156-2.631-2.542-5.847C8.07 3.857 6.919 1.22 6.898 1.214c-.021-.006-.254.094-.518.222m2.371 6.53c1.281 2.974 2.323 5.413 2.315 5.422a8.233 8.233 0 0 1-.591.113c-.958.163-1.433.126-2.015-.159a2.501 2.501 0 0 1-1.1-1.062c-.222-.434-2.414-5.569-2.492-5.84-.129-.441-.127-1.404.002-1.852.157-.541.45-1.059.828-1.464.186-.199.637-.564.696-.564.014 0 1.075 2.433 2.357 5.406m9.117-5.232c.465.343.882.89 1.126 1.479.327.789.33 1.795.007 2.603-.335.836-2.34 5.432-2.451 5.616a2.78 2.78 0 0 1-.809.804c-.613.371-1.188.442-2.196.269a7.758 7.758 0 0 1-.611-.118c-.023-.022 4.639-10.827 4.671-10.827.014 0 .133.078.263.174M7.02 17.06a2.502 2.502 0 0 1 1.695 1.302c.372.756.375 1.516.008 2.258a2.53 2.53 0 0 1-1.403 1.248c-.268.097-.355.108-.82.108-.465 0-.552-.011-.82-.108a2.528 2.528 0 0 1-1.62-2.888c.279-1.336 1.614-2.202 2.96-1.92m11 0a2.502 2.502 0 0 1 1.695 1.302c.372.756.375 1.516.008 2.258a2.53 2.53 0 0 1-1.403 1.248c-.268.097-.355.108-.82.108-.465 0-.552-.011-.82-.108a2.53 2.53 0 0 1-1.403-1.248c-.93-1.88.695-3.989 2.743-3.56" fill-rule="evenodd" fill="#000"/></svg>