<svg xmlns="http://www.w3.org/2000/svg" viewBox="0 0 48 48" style="enable-background:new 0 0 48 48" xml:space="preserve"><path d="M29.129 1.689c-2.253.262-4.468 1.61-5.766 3.511-1.156 1.691-1.656 3.839-1.324 5.68.075.418.142.803.149.856.007.053-2.778 2.513-6.188 5.466-3.41 2.953-6.368 5.533-6.573 5.733a4.14 4.14 0 0 0-.6.775c-.211.381-.227.473-.227 1.29 0 1.324.032 1.375 2.269 3.682 1.017 1.049 2.002 2.007 2.19 2.129 1.081.704 2.721.562 3.665-.317.221-.206 2.932-3.146 6.024-6.534 4.076-4.466 5.665-6.156 5.777-6.144.085.009.488.054.895.101 1.714.194 3.791-.346 5.289-1.377.533-.367 1.5-1.309 1.95-1.9.511-.671 1.125-1.937 1.358-2.8.158-.588.182-.863.178-2.04-.004-1.241-.023-1.421-.219-2.06-.184-.596-.948-2.419-1.064-2.535-.021-.021-1.063.986-2.315 2.238L32.32 9.719 31.26 8.66 30.201 7.6l2.276-2.277c1.252-1.252 2.256-2.297 2.232-2.321-.025-.024-.446-.224-.936-.443-1.093-.49-2.054-.774-2.963-.879-.771-.088-.846-.088-1.681.009m2.01 1.883c.043.027-.789.917-1.85 1.979l-1.929 1.93 2.428 2.427 2.428 2.427 1.925-1.948c1.059-1.071 1.95-1.923 1.98-1.893.029.03.072.408.094.84.129 2.459-1.254 4.83-3.458 5.93-.95.474-1.569.613-2.717.612-.915-.002-1.117-.028-1.68-.217l-.64-.215-.29.298c-.16.164-2.908 3.178-6.108 6.698-3.2 3.52-5.93 6.481-6.068 6.58a.991.991 0 0 1-.61.18h-.36l-1.857-1.86c-1.589-1.592-1.864-1.903-1.91-2.159a1.455 1.455 0 0 1-.004-.501c.034-.136 2.271-2.176 6.896-6.288 5.924-5.267 6.839-6.11 6.795-6.26-.354-1.21-.387-1.409-.392-2.372-.007-1.142.108-1.693.552-2.633 1.126-2.383 3.439-3.781 6.026-3.641.368.02.705.059.749.086M10.886 5.874l-.671.675 2.788 2.848 2.789 2.848.664-.661c.365-.363.664-.685.664-.715 0-.054-5.424-5.611-5.514-5.649-.027-.012-.351.283-.72.654m-6.366.207c-1.269.194-2.464 1.088-3.071 2.296-.42.837-.407.353-.408 14.146-.001 13.993-.028 13.176.46 14.183.269.557 1.182 1.495 1.745 1.793.928.493-.494.461 20.714.461 16.893 0 19.425-.015 19.824-.119a4.28 4.28 0 0 0 3.057-3.057c.103-.396.118-2.174.114-13.301-.004-11.874-.015-12.883-.142-13.369-.234-.899-.914-1.838-1.726-2.384-.798-.538-1.609-.726-3.147-.728L41.04 6v2l1.14.002c.935.001 1.198.028 1.465.149.471.214.894.616 1.14 1.082L45 9.64v25.68l-.17.367a2.51 2.51 0 0 1-1.143 1.143l-.367.17H4.6l-.44-.248a2.757 2.757 0 0 1-.699-.585c-.534-.695-.505.148-.482-13.851L3 9.64l.215-.407c.442-.839 1.115-1.229 2.125-1.231L6 8V6l-.54.01c-.297.005-.72.037-.94.071m26.947 14.84c-.345.376-.638.715-.651.753-.013.038.9.945 2.028 2.016 1.132 1.075 2.14 2.099 2.25 2.287.412.702.517 1.492.3 2.258-.174.62-.47 1.016-1.057 1.418-.986.674-2.084.772-3.094.274-.47-.231-.727-.476-2.609-2.492-1.148-1.229-2.111-2.235-2.14-2.235-.03 0-.369.297-.754.66l-.7.66L27 28.68c1.078 1.188 2.148 2.316 2.377 2.507.94.784 1.918 1.089 3.303 1.033 1.046-.043 1.648-.224 2.492-.747 2.133-1.322 2.869-4.009 1.73-6.313-.293-.594-1.064-1.403-3.678-3.862l-1.129-1.062-.628.685M23.04 42.52V44h-10v2h21.92v-2h-10v-2.96h-1.92v1.48" fill-rule="evenodd"/></svg>