<svg xmlns="http://www.w3.org/2000/svg" width="16" height="16" fill="none"><path d="M5.902.029C2.501.333-.112 3.292.007 6.706a6.21 6.21 0 0 0 .673 2.67c.864 1.77 2.487 3.041 4.442 3.478.846.189 1.876.187 2.771-.005.69-.148 1.598-.53 2.174-.916a6.684 6.684 0 0 0 1.866-1.866c.386-.576.768-1.484.916-2.174.192-.895.194-1.925.005-2.771a6.503 6.503 0 0 0-2.761-4.033 7.781 7.781 0 0 0-1.38-.701A6.686 6.686 0 0 0 5.902.029m1.334 1.024a5.502 5.502 0 0 1 4.561 6.92c-.367 1.358-1.316 2.58-2.557 3.294a5.36 5.36 0 0 1-2.533.724A5.497 5.497 0 0 1 1.17 7.844a5.305 5.305 0 0 1-.157-1.359 5.209 5.209 0 0 1 .379-2.013 5.493 5.493 0 0 1 4.275-3.405 6.969 6.969 0 0 1 1.569-.014m5.065 10.991c-.264.13-.369.408-.25.663.071.15 3.124 3.195 3.261 3.252a.47.47 0 0 0 .546-.122.46.46 0 0 0 .101-.525c-.057-.137-3.102-3.19-3.252-3.261a.489.489 0 0 0-.406-.007" fill-rule="evenodd" fill="#000"/></svg>