<svg xmlns="http://www.w3.org/2000/svg" width="24" height="24" fill="none"><path d="M9.84 2.025c-2.094.192-3.892 1.025-5.341 2.474C1.981 7.016 1.301 10.725 2.756 14c.815 1.833 2.411 3.429 4.244 4.244 2.87 1.275 6.115.916 8.61-.954a10.114 10.114 0 0 0 1.68-1.68 8.5 8.5 0 0 0 0-10.22c-.388-.518-1.154-1.286-1.659-1.663a8.576 8.576 0 0 0-3.856-1.628c-.391-.06-1.587-.106-1.935-.074m1.383 1.018a7.504 7.504 0 0 1 6.381 5.08 7.47 7.47 0 0 1-.377 5.667 7.257 7.257 0 0 1-1.432 2.005 7.598 7.598 0 0 1-3.981 2.092c-.684.13-1.944.13-2.628 0-2.37-.447-4.348-1.94-5.402-4.077-.449-.909-.661-1.683-.752-2.737a7.44 7.44 0 0 1 .417-3.113A7.552 7.552 0 0 1 9.06 3.143a7.553 7.553 0 0 1 2.163-.1M9.9 6.045c-1.426.178-2.776 1.147-3.436 2.466-.372.743-.576 1.925-.386 2.237a.478.478 0 0 0 .67.174c.179-.11.237-.25.266-.644a3.49 3.49 0 0 1 3.264-3.264c.394-.029.534-.087.644-.266a.478.478 0 0 0-.174-.67c-.14-.085-.36-.094-.848-.033m8.352 12.033c-.217.133-.311.41-.208.615.063.124 4.114 4.18 4.244 4.25.401.213.868-.254.655-.655-.07-.13-4.126-4.181-4.25-4.244a.458.458 0 0 0-.441.034" fill-rule="evenodd" fill="#000"/></svg>