<svg xmlns="http://www.w3.org/2000/svg" width="12" height="12" fill="none"><path d="M4.67.512C4.013.58 3.545.707 3.03.959A4.44 4.44 0 0 0 .969 3.01a4.458 4.458 0 0 0 0 3.98c.233.469.479.814.842 1.178a4.482 4.482 0 0 0 5.159.874c.264-.13.549-.303.749-.456l.089-.068 1.451 1.449c.798.797 1.483 1.465 1.521 1.486a.492.492 0 0 0 .22.037c.129 0 .163-.008.246-.056a.536.536 0 0 0 .236-.302.588.588 0 0 0-.032-.355c-.019-.037-.686-.72-1.483-1.518L8.518 7.808l.068-.089c.153-.2.326-.485.456-.749a4.477 4.477 0 0 0 0-3.94A4.497 4.497 0 0 0 5.66.551a7.072 7.072 0 0 0-.99-.039m.881 1.037c1.499.227 2.695 1.443 2.911 2.961.033.231.033.749 0 .98-.219 1.533-1.399 2.722-2.952 2.973a5.267 5.267 0 0 1-1.02 0C2.937 8.212 1.757 7.024 1.538 5.49a4.013 4.013 0 0 1 .065-1.32A3.52 3.52 0 0 1 4.17 1.602c.142-.034.362-.068.6-.09.136-.013.593.008.781.037" fill-rule="evenodd" fill="#000"/></svg>