<svg xmlns="http://www.w3.org/2000/svg" width="16" height="16" fill="none"><path d="M7.587.028A3.007 3.007 0 0 0 5.082 2.28c-.071.284-.095.726-.095 1.74v.993h-2V12h10.026V5.013h-2V4.02c0-1.398-.039-1.711-.28-2.269C10.424 1.039 9.726.409 8.959.152c-.357-.12-.983-.176-1.372-.124m1.068 1.074c.578.19 1.066.694 1.268 1.311.06.182.062.22.071 1.394l.009 1.206H5.997l.01-1.206c.011-1.345.009-1.322.205-1.714a2.001 2.001 0 0 1 1.257-1.026c.165-.045.262-.052.584-.045.331.008.418.02.602.08M12 8.507v2.506H4V6h8v2.507M7.573 7.064a1.441 1.441 0 0 0-.629.386 1.383 1.383 0 0 0-.437 1.056c.001.415.138.75.427 1.039.223.224.412.334.693.405a1.5 1.5 0 0 0 1.826-1.082c.051-.202.052-.546.001-.743a1.554 1.554 0 0 0-1.052-1.069c-.2-.059-.634-.055-.829.008m.607.977c.203.085.308.24.308.455a.49.49 0 0 1-.905.267.502.502 0 0 1 .075-.622.49.49 0 0 1 .522-.1m-6.837 5.48a1 1 0 0 0-.802.702c-.059.199-.036.496.053.69.089.195.298.404.493.493.194.089.491.112.69.053.724-.215.961-1.123.431-1.654a1.012 1.012 0 0 0-.865-.284m4 0a1 1 0 0 0-.802.702c-.059.199-.036.496.053.69.089.195.298.404.493.493.194.089.491.112.69.053.724-.215.961-1.123.431-1.654a1.012 1.012 0 0 0-.865-.284m4 0a1 1 0 0 0-.802.702c-.059.199-.036.496.053.69.089.195.298.404.493.493.194.089.491.112.69.053.724-.215.961-1.123.431-1.654a1.012 1.012 0 0 0-.865-.284m4 0a1 1 0 0 0-.802.702c-.059.199-.036.496.053.69.089.195.298.404.493.493.194.089.491.112.69.053.724-.215.961-1.123.431-1.654a1.012 1.012 0 0 0-.865-.284" fill-rule="evenodd" fill="#000"/></svg>