<svg xmlns="http://www.w3.org/2000/svg" width="24" height="24" fill="none"><path d="M11.56 1.024a4.624 4.624 0 0 0-1.614.487 4.442 4.442 0 0 0-2.305 2.885c-.12.471-.161 1.078-.161 2.394V8h-3v10h15.04V8h-3V6.79c0-1.316-.041-1.923-.161-2.394a4.49 4.49 0 0 0-3.456-3.294c-.319-.066-1.081-.11-1.343-.078m1.26 1.078c.403.097 1.035.409 1.363.672a3.63 3.63 0 0 1 1.076 1.463c.202.53.22.71.22 2.293L15.48 8H8.52V6.538c0-1.601.021-1.806.238-2.34A3.593 3.593 0 0 1 9.84 2.754c.431-.344 1.141-.641 1.74-.73.236-.035.965.011 1.24.078M18.48 13v4H5.52V9h12.96v4m-7.1-2.426a2.73 2.73 0 0 0-1.279.795c-.21.239-.469.746-.542 1.064A3.195 3.195 0 0 0 9.51 13c0 .446.058.695.256 1.112.223.467.655.899 1.122 1.122.417.198.666.256 1.112.256.446 0 .695-.058 1.112-.256a2.497 2.497 0 0 0 1.122-1.122c.198-.417.256-.666.256-1.112 0-.446-.058-.695-.255-1.11-.262-.55-.811-1.037-1.418-1.257-.295-.107-1.12-.141-1.437-.059m1.273 1.084c.272.138.573.445.709.722.085.174.098.255.098.62 0 .384-.01.44-.116.648a1.511 1.511 0 0 1-1.126.829 1.496 1.496 0 0 1-1.562-.829c-.106-.208-.116-.264-.116-.648 0-.365.013-.446.098-.62.173-.352.515-.664.878-.803.095-.037.273-.052.526-.045.329.009.413.026.611.126M2.477 19.073c-.671.176-1.239.75-1.417 1.435a2.07 2.07 0 0 0 .165 1.422c.136.269.576.709.845.845a2.047 2.047 0 0 0 1.86 0c.266-.135.708-.575.841-.838a2.05 2.05 0 0 0 .169-1.408 1.806 1.806 0 0 0-.475-.876A1.972 1.972 0 0 0 3 19.005c-.143 0-.378.031-.523.068m6 0c-.671.176-1.239.75-1.417 1.435a2.07 2.07 0 0 0 .165 1.422c.136.269.576.709.845.845a2.047 2.047 0 0 0 1.86 0c.266-.135.708-.575.841-.838a2.05 2.05 0 0 0 .169-1.408 1.806 1.806 0 0 0-.475-.876A1.972 1.972 0 0 0 9 19.005c-.143 0-.378.031-.523.068m6 0c-.671.176-1.239.75-1.417 1.435a2.07 2.07 0 0 0 .165 1.422c.136.269.576.709.845.845a2.055 2.055 0 0 0 1.867-.004c.26-.132.702-.574.834-.834a2.05 2.05 0 0 0 .169-1.408 1.806 1.806 0 0 0-.475-.876A1.972 1.972 0 0 0 15 19.005c-.143 0-.378.031-.523.068m6 0c-.671.176-1.239.75-1.417 1.435a2.07 2.07 0 0 0 .165 1.422c.136.269.576.709.845.845a2.047 2.047 0 0 0 1.86 0c.266-.135.708-.575.841-.838a2.05 2.05 0 0 0 .169-1.408 1.806 1.806 0 0 0-.475-.876A1.972 1.972 0 0 0 21 19.005c-.143 0-.378.031-.523.068m-17.167.988c.378.112.69.537.69.94 0 .33-.216.695-.516.871-.156.091-.23.108-.484.108s-.328-.017-.484-.108c-.581-.342-.683-1.098-.212-1.569.279-.279.612-.359 1.006-.242m6 0c.378.112.69.537.69.94 0 .33-.216.695-.516.871-.156.091-.23.108-.484.108s-.328-.017-.484-.108c-.581-.342-.683-1.098-.212-1.569.279-.279.612-.359 1.006-.242m6 0c.378.112.69.537.69.94 0 .33-.216.695-.516.871-.156.091-.23.108-.484.108s-.328-.017-.484-.108c-.581-.342-.683-1.098-.212-1.569.279-.279.612-.359 1.006-.242m6 0c.378.112.69.537.69.94 0 .33-.216.695-.516.871-.156.091-.23.108-.484.108s-.328-.017-.484-.108c-.581-.342-.683-1.098-.212-1.569.279-.279.612-.359 1.006-.242" fill-rule="evenodd" fill="#000"/></svg>