<svg xmlns="http://www.w3.org/2000/svg" width="24" height="24" fill="none"><path d="M21.921 1.379c-.039.047-.067.05-.133.014-.046-.024-.09-.028-.097-.009-.081.231.364.067-10.461 3.855C5.538 7.23.881 8.869.882 8.88c.001.011 1.971 1.249 4.378 2.752l4.377 2.731 2.731 4.377c1.503 2.407 2.741 4.377 2.752 4.378.011.001 1.649-4.656 3.641-10.348C22.37 2.453 22.382 2.42 22.51 2.363c.105-.047.124-.073.105-.15-.013-.052-.002-.121.025-.154.04-.047.04-.071 0-.118-.027-.034-.038-.103-.025-.157.021-.081.005-.103-.097-.139a.25.25 0 0 1-.163-.163c-.048-.136-.051-.138-.153-.083-.054.029-.087.023-.123-.02-.027-.032-.062-.059-.079-.059s-.052.027-.079.059m-6.905 6.905-5.084 5.084-3.382-2.114c-1.861-1.163-3.377-2.12-3.369-2.128A6151.4 6151.4 0 0 1 20.08 3.202c.011-.001-2.268 2.286-5.064 5.082m5.526-3.634c-1.21 3.474-5.636 16.1-5.656 16.137-.014.025-.977-1.476-2.14-3.336l-2.114-3.383 5.074-5.074a2404.88 2404.88 0 0 1 5.082-5.074c.005 0-.106.328-.246.73" fill-rule="evenodd" fill="#000"/></svg>