<svg xmlns="http://www.w3.org/2000/svg" width="16" height="16" fill="none"><path d="M14.595.697c-.05.05-.067.053-.144.026A.297.297 0 0 0 14.359.7a1.754 1.754 0 0 0-.043.123l-.038.117-6.732 2.356L.5 5.763l-.313.11 3.058 1.912 3.059 1.911 1.911 3.059 1.912 3.058.11-.313 2.467-7.046 2.356-6.732.117-.038c.064-.021.119-.04.123-.043a.303.303 0 0 0-.023-.092c-.027-.076-.023-.093.031-.151l.061-.065-.061-.065c-.054-.057-.058-.075-.031-.151a.294.294 0 0 0 .023-.091 1.557 1.557 0 0 0-.125-.044c-.105-.034-.123-.052-.157-.157A2.698 2.698 0 0 0 14.975.7a.345.345 0 0 0-.089.026c-.075.028-.091.025-.147-.027-.076-.072-.074-.072-.144-.002M9.678 5.616 6.595 8.698 4.551 7.422a129.148 129.148 0 0 1-2.044-1.289c0-.012 10.193-3.593 10.24-3.598a634.72 634.72 0 0 1-3.069 3.081m3.673-2.036L11.559 8.7a487.858 487.858 0 0 1-1.692 4.793c-.007-.001-.588-.92-1.29-2.044L7.302 9.405l3.075-3.076a947.05 947.05 0 0 1 3.083-3.076c.003 0-.046.147-.109.327" fill-rule="evenodd" fill="#000"/></svg>