<svg xmlns="http://www.w3.org/2000/svg" width="24" height="24" fill="none"><path d="M1 6.5V11h22V2H1v4.5m21 0V10H2V3h20v3.5m-3.826-1.461c-.424.09-.845.438-1.042.861-.097.207-.112.29-.112.6 0 .311.015.394.113.604.143.309.452.617.767.764.207.097.29.112.6.112s.393-.015.6-.112c.315-.147.624-.455.767-.764.098-.21.113-.293.113-.604s-.015-.394-.113-.604a1.677 1.677 0 0 0-.748-.753 1.794 1.794 0 0 0-.945-.104M5 6.5V7h5V6H5v.5m13.724-.438A.56.56 0 0 1 19 6.5c0 .248-.252.5-.5.5-.244 0-.5-.252-.5-.492 0-.251.248-.508.492-.508a.61.61 0 0 1 .232.062M1 17.5V22h22v-9H1v4.5m21 0V21H2v-7h20v3.5m-3.826-1.461c-.424.09-.845.438-1.042.861-.097.207-.112.29-.112.6 0 .311.015.394.113.604.143.309.452.617.767.764.207.097.29.112.6.112s.393-.015.6-.112c.315-.147.624-.455.767-.764.098-.21.113-.293.113-.604s-.015-.394-.113-.604a1.677 1.677 0 0 0-.748-.753 1.794 1.794 0 0 0-.945-.104M5 17.5v.5h5v-1H5v.5m13.724-.438A.56.56 0 0 1 19 17.5c0 .248-.252.5-.5.5-.244 0-.5-.252-.5-.492 0-.251.248-.508.492-.508a.61.61 0 0 1 .232.062" fill-rule="evenodd" fill="#000"/></svg>