<svg xmlns="http://www.w3.org/2000/svg" width="12" height="12" fill="none"><path d="M9.2.022c-.82.093-1.57.623-1.937 1.37-.165.335-.24.633-.256 1.018-.01.241.006.414.065.69.01.048-.036.073-1.296.702l-1.306.652-.162-.172a2.478 2.478 0 0 0-2.043-.764 2.403 2.403 0 0 0-1.231.463A2.53 2.53 0 0 0 .046 5.52a3.09 3.09 0 0 0 0 .96A2.521 2.521 0 0 0 2.02 8.454c.236.05.724.05.96 0a2.556 2.556 0 0 0 1.34-.748l.15-.16 1.306.652c1.26.629 1.306.654 1.296.702-.108.508-.088.959.062 1.4a2.524 2.524 0 0 0 1.886 1.654c.236.05.724.05.96 0a2.516 2.516 0 0 0 1.736-1.31A2.24 2.24 0 0 0 11.99 9.5c0-.449-.071-.747-.273-1.143A2.517 2.517 0 0 0 10.12 7.08a2.64 2.64 0 0 0-1.5.081c-.339.13-.694.369-.94.633l-.15.16-1.306-.652c-1.26-.629-1.306-.654-1.296-.702.059-.276.075-.449.065-.69a3.163 3.163 0 0 0-.043-.407.792.792 0 0 1-.026-.153c.003-.003.591-.298 1.306-.655l1.3-.649.158.168c.351.373.809.628 1.332.74.236.05.724.05.96 0a2.516 2.516 0 0 0 1.736-1.31A2.24 2.24 0 0 0 11.99 2.5c0-.449-.071-.747-.273-1.143A2.51 2.51 0 0 0 10.12.081 2.61 2.61 0 0 0 9.2.022m.73 1.042c.472.138.862.528 1.008 1.006.041.136.048.201.048.43 0 .229-.007.294-.048.43A1.538 1.538 0 0 1 9.92 3.943a1.755 1.755 0 0 1-.84 0A1.538 1.538 0 0 1 8.062 2.93c-.041-.136-.048-.201-.048-.43 0-.229.007-.294.048-.43a1.52 1.52 0 0 1 1.187-1.05c.167-.03.501-.008.681.044m-7 3.5c.472.138.862.528 1.008 1.006.041.136.048.201.048.43 0 .229-.007.294-.048.43A1.538 1.538 0 0 1 2.92 7.443a1.755 1.755 0 0 1-.84 0A1.538 1.538 0 0 1 1.062 6.43c-.041-.136-.048-.201-.048-.43 0-.229.007-.294.048-.43a1.52 1.52 0 0 1 1.187-1.05c.167-.03.501-.008.681.044m7 3.5c.472.138.862.528 1.008 1.006.041.136.048.201.048.43 0 .229-.007.294-.048.43a1.538 1.538 0 0 1-1.018 1.013c-.126.039-.193.047-.42.047-.227 0-.294-.008-.42-.047A1.538 1.538 0 0 1 8.062 9.93c-.041-.136-.048-.201-.048-.43 0-.229.007-.294.048-.43a1.52 1.52 0 0 1 1.187-1.05c.167-.03.501-.008.681.044" fill-rule="evenodd" fill="#000"/></svg>