<svg xmlns="http://www.w3.org/2000/svg" width="16" height="16" fill="none"><path d="M11.707.016c-.844.104-1.551.49-2.057 1.124a2.993 2.993 0 0 0-.633 2.125c.025.274.096.595.171.773a.364.364 0 0 1 .034.109c-.016.016-2.863 1.791-2.923 1.823-.055.03-.074.019-.226-.128a4.288 4.288 0 0 0-.313-.27c-.214-.16-.694-.387-1-.471-.247-.068-.303-.074-.76-.074s-.513.006-.758.074a3.065 3.065 0 0 0-1.512.945 2.999 2.999 0 0 0-.415 3.281 2.985 2.985 0 0 0 1.806 1.535c.31.091.348.099.631.122a2.994 2.994 0 0 0 2.349-.85l.14-.138.086.051a711.27 711.27 0 0 1 2.895 1.807.362.362 0 0 1-.034.108 3.014 3.014 0 0 0-.171.771 2.998 2.998 0 0 0 2.516 3.228 2.993 2.993 0 0 0 2.107-.455c1.921-1.272 1.771-4.121-.271-5.165-.47-.241-.818-.323-1.369-.323-.402 0-.648.037-.973.148-.385.13-.884.442-1.156.722l-.116.119-1.471-.919a131.26 131.26 0 0 1-1.489-.937c-.009-.01.012-.107.049-.215.105-.31.146-.574.146-.936 0-.357-.039-.608-.145-.94l-.066-.207 1.488-.93 1.488-.93.116.119C10.397 5.653 11.228 6 12 6c1.057 0 2.096-.603 2.603-1.511 1.001-1.79-.004-4.009-2.001-4.421a4.28 4.28 0 0 0-.895-.052m.744 1.037c.702.148 1.319.756 1.499 1.48.047.191.047.743 0 .934-.179.718-.781 1.317-1.491 1.483a2.621 2.621 0 0 1-.918 0c-.71-.166-1.312-.765-1.491-1.483-.047-.19-.047-.743 0-.934.176-.712.792-1.328 1.479-1.478a2.94 2.94 0 0 1 .922-.002M4.574 6.086a2.032 2.032 0 0 1 1.343 1.34c.055.182.065.268.065.574 0 .306-.01.392-.065.574a2.05 2.05 0 0 1-1.357 1.35c-.289.09-.831.09-1.12 0a2.049 2.049 0 0 1-1.357-1.35c-.053-.178-.065-.273-.066-.561-.002-.407.037-.588.197-.906a2.02 2.02 0 0 1 1.452-1.08c.222-.04.667-.011.908.059m7.877 4.967c.702.148 1.319.756 1.499 1.48.047.191.047.743 0 .934-.179.718-.781 1.317-1.491 1.483a2.621 2.621 0 0 1-.918 0 2.003 2.003 0 0 1-1.353-1.117c-.142-.306-.174-.462-.174-.833 0-.362.032-.525.162-.809.263-.577.78-1.011 1.353-1.136a2.94 2.94 0 0 1 .922-.002" fill-rule="evenodd" fill="#000"/></svg>