<svg xmlns="http://www.w3.org/2000/svg" width="24" height="24" fill="none"><path d="M18.9 1.045a4.6 4.6 0 0 0-2.043.826c-1.247.928-1.92 2.331-1.845 3.846.019.401.137 1.015.245 1.283.018.046-.653.399-2.974 1.559-1.65.824-3.005 1.49-3.013 1.48-.714-.978-1.514-1.567-2.524-1.857-2.95-.848-5.885 1.473-5.734 4.535.142 2.898 2.954 4.906 5.74 4.098a4.621 4.621 0 0 0 2.395-1.684l.178-.248 2.98 1.488c2.619 1.309 2.977 1.499 2.961 1.569-.01.044-.068.26-.129.48-.102.365-.111.459-.111 1.08 0 .605.011.722.103 1.063.454 1.688 1.62 2.854 3.308 3.308.341.092.458.103 1.063.103s.722-.011 1.063-.103c1.195-.321 2.15-1.016 2.76-2.007 1.237-2.01.734-4.569-1.18-5.993-1.536-1.144-3.75-1.144-5.286 0-.348.259-.756.655-.947.919-.068.093-.139.17-.157.17-.027 0-5.949-2.947-5.983-2.977a4.162 4.162 0 0 1 .093-.406c.19-.736.175-1.56-.041-2.306l-.091-.316 2.999-1.5a190.184 190.184 0 0 1 3.006-1.487c.086.145.4.519.629.745a4.46 4.46 0 0 0 3.352 1.275 4.495 4.495 0 0 0 4.271-4.271c.138-2.796-2.286-5.022-5.088-4.672m1.48 1.072c1.203.309 2.171 1.277 2.505 2.503.123.449.125 1.304.004 1.744-.336 1.23-1.212 2.129-2.437 2.503-.315.095-.415.107-.952.107-.537 0-.637-.012-.952-.107-1.22-.372-2.103-1.275-2.433-2.487-.125-.457-.125-1.303 0-1.76.311-1.144 1.188-2.082 2.279-2.439a3.781 3.781 0 0 1 1.986-.064m-14 7c1.203.309 2.173 1.278 2.505 2.503.114.421.125 1.262.023 1.675-.312 1.248-1.214 2.193-2.456 2.572-.315.095-.415.107-.952.107-.537 0-.637-.012-.952-.107-1.221-.373-2.103-1.273-2.433-2.487-.125-.457-.125-1.303 0-1.76.311-1.144 1.188-2.082 2.279-2.439a3.781 3.781 0 0 1 1.986-.064m14 7c1.203.309 2.174 1.28 2.505 2.503.122.452.124 1.308.005 1.744-.337 1.23-1.213 2.129-2.438 2.503-.315.095-.415.107-.952.107-.537 0-.637-.012-.952-.107-1.22-.372-2.103-1.275-2.433-2.487-.125-.457-.125-1.303 0-1.76.311-1.144 1.188-2.082 2.279-2.439a3.781 3.781 0 0 1 1.986-.064" fill-rule="evenodd" fill="#000"/></svg>