<svg xmlns="http://www.w3.org/2000/svg" width="16" height="16" fill="currentColor" viewBox="0 0 16 16">
  <path fill-rule="evenodd" d="M8.533 3a.5.5 0 0 1 .494.418l.142.857c.097.035.192.074.285.117l.707-.504a.5.5 0 0 1 .644.053l.754.754a.5.5 0 0 1 .054.644l-.505.707a3.4 3.4 0 0 1 .117.285l.857.142a.5.5 0 0 1 .418.494v1.066a.5.5 0 0 1-.418.494l-.857.142a3.37 3.37 0 0 1-.117.285l.504.707a.5.5 0 0 1-.053.644l-.754.754a.5.5 0 0 1-.644.054l-.707-.505a3.4 3.4 0 0 1-.285.117l-.142.857a.5.5 0 0 1-.494.418H7.467a.5.5 0 0 1-.494-.418l-.142-.857a3.402 3.402 0 0 1-.285-.117l-.707.504a.5.5 0 0 1-.644-.053l-.754-.754a.5.5 0 0 1-.053-.644l.504-.707a3.41 3.41 0 0 1-.117-.285l-.857-.142a.5.5 0 0 1-.418-.494V6.967a.5.5 0 0 1 .418-.494l.857-.142c.035-.097.074-.192.117-.285l-.504-.707a.5.5 0 0 1 .053-.644l.754-.754a.5.5 0 0 1 .644-.053l.707.504c.093-.043.188-.082.285-.117l.142-.857A.5.5 0 0 1 7.467 3h1.066ZM8.11 4h-.22l-.124.743a.5.5 0 0 1-.369.402c-.227.059-.44.147-.635.263a.5.5 0 0 1-.546-.023l-.613-.437-.155.155.437.613a.5.5 0 0 1 .023.546 2.414 2.414 0 0 0-.263.635.5.5 0 0 1-.402.37L4.5 7.39v.22l.743.124a.5.5 0 0 1 .402.369c.059.227.147.44.263.635a.5.5 0 0 1-.023.546l-.437.613.155.155.613-.437a.5.5 0 0 1 .546-.023c.195.116.408.204.635.262a.5.5 0 0 1 .37.403L7.89 11h.22l.124-.743a.5.5 0 0 1 .369-.403c.227-.058.44-.146.635-.262a.5.5 0 0 1 .546.023l.613.438.155-.156-.437-.613a.5.5 0 0 1-.023-.546c.116-.195.204-.408.262-.635a.5.5 0 0 1 .403-.37l.743-.123v-.22l-.743-.124a.5.5 0 0 1-.402-.369 2.414 2.414 0 0 0-.263-.635.5.5 0 0 1 .023-.546l.438-.613-.156-.155-.613.437a.5.5 0 0 1-.546.023 2.414 2.414 0 0 0-.635-.263.5.5 0 0 1-.37-.402L8.11 4ZM8 6a1.5 1.5 0 1 1 0 3 1.5 1.5 0 0 1 0-3Zm0 1a.5.5 0 1 0 0 1 .5.5 0 0 0 0-1Z" clip-rule="evenodd"/>
  <path fill-rule="evenodd" d="M7.799 15.94a6.38 6.38 0 0 1-.255-.093 14.534 14.534 0 0 1-2.832-1.453C3.187 13.378 1.5 11.753 1.5 9.494V2.16L7.978 0l6.478 2.16v7.335c0 2.258-1.686 3.883-3.212 4.9a14.534 14.534 0 0 1-3.087 1.545l-.014.005-.165.055-.158-.053-.021-.007Zm.18-14.89L2.496 2.879v6.617c0 1.729 1.303 3.094 2.768 4.07a13.553 13.553 0 0 0 2.713 1.38l.08-.03a13.55 13.55 0 0 0 2.634-1.35c1.464-.976 2.768-2.341 2.768-4.07V2.878L7.978 1.05Z" clip-rule="evenodd"/>
</svg>
