<svg xmlns="http://www.w3.org/2000/svg" width="16" height="16" fill="currentColor">
  <path fill-rule="evenodd" d="M7.799 15.94a6.38 6.38 0 0 1-.255-.093 14.534 14.534 0 0 1-2.832-1.453C3.187 13.378 1.5 11.753 1.5 9.494V2.16L7.978 0l6.478 2.16v7.335c0 2.258-1.686 3.883-3.212 4.9a14.534 14.534 0 0 1-3.087 1.545l-.014.005-.165.055-.158-.053-.021-.007Zm.18-14.89L2.496 2.879v6.617c0 1.729 1.303 3.094 2.768 4.07a13.553 13.553 0 0 0 2.713 1.38l.08-.03a13.55 13.55 0 0 0 2.634-1.35c1.464-.976 2.768-2.341 2.768-4.07V2.878L7.978 1.05Z" clip-rule="evenodd"/>
</svg>
