<svg xmlns="http://www.w3.org/2000/svg" width="12" height="12" fill="none"><path d="M2.835.027a.514.514 0 0 0-.317.608c.017.061.555.815 1.944 2.725L6.382 6l-1.92 2.64c-1.389 1.91-1.927 2.664-1.944 2.725a.505.505 0 0 0 .569.626c.203-.03.11.089 2.312-2.94 1.203-1.654 2.059-2.848 2.076-2.897a.528.528 0 0 0-.042-.399c-.029-.047-.959-1.331-2.067-2.854C3.128-.174 3.287.024 3.036.007a.543.543 0 0 0-.201.02m5.512.002a.513.513 0 0 0-.283.229L8.01.35v11.303l.061.099a.499.499 0 0 0 .858 0l.061-.099V.35L8.936.258a.5.5 0 0 0-.589-.229" fill-rule="evenodd" fill="#000"/></svg>