<svg xmlns="http://www.w3.org/2000/svg" width="24" height="24" fill="none"><path d="M11.64 4.041c-2.611.272-4.991 1.488-7.451 3.805-1.035.975-2.551 2.802-2.905 3.5a2.55 2.55 0 0 0 0 2.308c.354.699 1.873 2.527 2.905 3.499 2.324 2.188 4.532 3.377 6.971 3.754.641.099 2.039.099 2.68 0 2.416-.374 4.606-1.545 6.917-3.701.751-.7 1.655-1.724 2.397-2.714.454-.606.582-.821.716-1.207.092-.264.106-.369.106-.785 0-.75-.128-1.059-.83-2-2.2-2.948-4.907-5.092-7.553-5.98a11.762 11.762 0 0 0-1.753-.42c-.505-.075-1.729-.109-2.2-.059m2.082 1.06c1.351.2 2.635.702 3.978 1.554 1.603 1.017 3.223 2.561 4.592 4.379.255.338.501.694.546.791.201.427.204.897.007 1.316-.256.547-1.504 2.072-2.51 3.067-1.932 1.91-3.849 3.069-5.875 3.55-.737.176-1.133.22-1.96.22s-1.223-.044-1.96-.22c-2.185-.519-4.307-1.868-6.362-4.042a18.08 18.08 0 0 1-1.47-1.75c-.493-.654-.603-.846-.673-1.174-.099-.461.018-.856.421-1.421C3.814 9.47 5.594 7.737 7.3 6.655c1.562-.991 3.059-1.513 4.68-1.631.35-.026 1.346.018 1.742.077M11.9 8.045c-1.469.184-2.849 1.2-3.479 2.564a4.503 4.503 0 0 0 .256 4.255c.61.991 1.565 1.686 2.76 2.007.341.092.458.103 1.063.103s.722-.011 1.063-.103c1.987-.534 3.327-2.16 3.425-4.154.138-2.796-2.286-5.022-5.088-4.672m1.48 1.072c1.203.309 2.171 1.277 2.505 2.503.123.449.125 1.304.004 1.744-.336 1.23-1.212 2.129-2.437 2.503-.315.095-.415.107-.952.107-.537 0-.637-.012-.952-.107-1.221-.373-2.103-1.273-2.433-2.487-.125-.457-.125-1.303 0-1.76.311-1.144 1.188-2.082 2.279-2.439a3.781 3.781 0 0 1 1.986-.064" fill-rule="evenodd" fill="#000"/></svg>