<svg xmlns="http://www.w3.org/2000/svg" width="16" height="16" fill="none"><path d="M7.613 2.018c-1.137.093-2.07.399-3.114 1.02-.758.45-1.328.906-2.086 1.666A14.54 14.54 0 0 0 .441 7.14C.134 7.607 0 7.868 0 8s.134.393.441.86c1.38 2.097 3.071 3.691 4.752 4.477 1.864.873 3.703.882 5.559.027 1.594-.734 3.22-2.208 4.543-4.116.517-.745.704-1.078.705-1.253 0-.165-.32-.714-.836-1.435-.782-1.093-1.814-2.184-2.737-2.895-.824-.634-1.776-1.138-2.638-1.395-.679-.203-1.549-.304-2.176-.252m1.394 1.087c.805.17 1.552.494 2.335 1.014.936.621 1.973 1.641 2.839 2.794.27.36.726 1.042.726 1.087 0 .045-.456.727-.726 1.087-.578.769-1.423 1.683-2.009 2.172-1.494 1.249-3.012 1.829-4.512 1.724-1.289-.09-2.565-.663-3.832-1.724-.338-.282-1.125-1.078-1.444-1.459-.492-.587-1.291-1.703-1.291-1.802 0-.048.464-.736.772-1.145.835-1.108 1.871-2.122 2.789-2.731.747-.496 1.479-.824 2.203-.986.472-.106.633-.12 1.25-.11.492.008.62.019.9.079M7.518 5.039c-.974.177-1.778.774-2.203 1.634A2.863 2.863 0 0 0 5.008 8c0 1.474 1.041 2.701 2.512 2.961.239.042.772.037 1.016-.011a3.012 3.012 0 0 0 2.414-2.414c.048-.244.053-.777.011-1.016a3.082 3.082 0 0 0-.691-1.474 3.055 3.055 0 0 0-1.498-.941c-.215-.06-.317-.072-.692-.079-.242-.005-.495 0-.562.013m1.056 1.047a2.032 2.032 0 0 1 1.343 1.34c.055.182.065.268.065.574 0 .306-.01.392-.065.574a2.05 2.05 0 0 1-1.357 1.35c-.289.09-.831.09-1.12 0a2.05 2.05 0 0 1-1.357-1.35c-.055-.182-.065-.268-.065-.574 0-.306.01-.392.065-.574a2.028 2.028 0 0 1 1.583-1.399c.222-.04.667-.011.908.059" fill-rule="evenodd" fill="#000"/></svg>