<svg xmlns="http://www.w3.org/2000/svg" width="24" height="24" fill="none"><path d="M19.235 3.58c-.111.061-.235.278-.235.413 0 .195.145.367 1.191 1.417l1.107 1.11h-2.641c-2.881 0-2.849-.002-3.357.235a2.712 2.712 0 0 0-.447.278c-.114.091-1.974 2.132-4.132 4.536-2.159 2.404-4.022 4.455-4.14 4.557a1.94 1.94 0 0 1-.448.279c-.232.093-.242.093-2.533.114-1.699.016-2.322.034-2.385.07C1.118 16.644 1 16.87 1 17c0 .136.116.348.233.428.1.067.255.072 2.427.072h2.32l.299-.094c.379-.119.612-.237.871-.442.112-.089 1.971-2.129 4.129-4.533 2.159-2.404 4.022-4.455 4.14-4.557.119-.102.316-.224.44-.27.219-.082.282-.084 2.811-.084h2.587l-1.104 1.11c-1.158 1.164-1.194 1.212-1.133 1.49.034.156.231.351.37.367.302.035.279.054 1.923-1.582.865-.861 1.599-1.614 1.63-1.673a.519.519 0 0 0 0-.464c-.07-.13-3.086-3.141-3.21-3.204-.12-.061-.371-.053-.498.016m-18 3C1.122 6.642 1 6.859 1 7c0 .136.116.348.233.428.099.067.275.073 2.447.092l2.34.02.22.107c.291.141.406.249 1.121 1.053.671.755.797.847 1.057.775a.507.507 0 0 0 .367-.611c-.028-.11-.866-1.071-1.383-1.585-.373-.371-.737-.586-1.18-.699-.345-.087-4.826-.087-4.987 0m18 7c-.111.061-.235.278-.235.413 0 .195.145.367 1.192 1.419l1.108 1.112-2.6-.012-2.6-.013-.228-.091c-.324-.131-.509-.296-1.215-1.088-.343-.385-.663-.722-.711-.749-.12-.067-.367-.063-.507.01-.224.115-.309.452-.169.664.138.209 1.386 1.565 1.583 1.722.247.195.479.315.847.437.28.093.282.093 2.916.107l2.636.014-1.102 1.108c-1.155 1.161-1.191 1.209-1.13 1.487.034.156.231.351.37.367.302.035.279.054 1.923-1.582.865-.861 1.599-1.614 1.63-1.673a.519.519 0 0 0 0-.464c-.07-.13-3.086-3.141-3.21-3.204-.12-.061-.371-.053-.498.016" fill-rule="evenodd" fill="#000"/></svg>