<svg xmlns="http://www.w3.org/2000/svg" width="16" height="16" fill="none"><path d="M12.36.023a.498.498 0 0 0-.324.651c.034.089.276.345 1.137 1.206a43.12 43.12 0 0 1 1.094 1.113c0 .011-.876.02-1.946.02-1.79 0-1.954.004-2.043.046-.069.034-1.199 1.287-4.043 4.487l-3.947 4.441L1.31 12l-.977.013-.096.066a.5.5 0 0 0-.064.797c.142.125.267.137 1.343.137 1.187 0 1.169.004 1.42-.259.095-.099 1.886-2.11 3.981-4.467L10.726 4h3.553l-1.098 1.1c-.743.744-1.112 1.132-1.14 1.199a.508.508 0 0 0 .009.408.445.445 0 0 0 .32.268.476.476 0 0 0 .425-.079c.054-.037.779-.749 1.611-1.582 1.045-1.047 1.524-1.545 1.553-1.613a.583.583 0 0 0 .013-.386C15.93 3.203 12.839.113 12.707.051a.506.506 0 0 0-.347-.028M.28 3.055a.445.445 0 0 0-.23.238.5.5 0 0 0-.013.395.66.66 0 0 0 .291.284c.048.018.419.028 1.014.029h.938l1.067 1.202c.586.661 1.098 1.219 1.137 1.239.34.176.745-.08.742-.469a.498.498 0 0 0-.047-.166c-.025-.055-.496-.606-1.046-1.226C2.9 3.193 2.808 3.094 2.701 3.049c-.068-.028-.326-.036-1.213-.036-.971.001-1.139.006-1.208.042m12 6a.445.445 0 0 0-.23.238.509.509 0 0 0-.009.408c.028.067.397.455 1.14 1.199l1.098 1.1H10.724l-1.062-1.192c-.584-.656-1.102-1.216-1.151-1.244-.212-.123-.532-.033-.66.185a.508.508 0 0 0-.004.494c.033.052.572.672 1.199 1.376.794.892 1.17 1.296 1.24 1.331.095.047.214.051 2.041.063l1.94.014-1.083 1.08c-.717.715-1.1 1.116-1.133 1.186a.467.467 0 0 0 .112.565.46.46 0 0 0 .525.101c.123-.051 3.183-3.096 3.26-3.245a.503.503 0 0 0 .011-.415c-.048-.114-2.987-3.076-3.184-3.207a.388.388 0 0 0-.266-.079.632.632 0 0 0-.229.042" fill-rule="evenodd" fill="#000"/></svg>