<svg xmlns="http://www.w3.org/2000/svg" width="16" height="16" fill="none"><path d="M1.096 1.055a1.56 1.56 0 0 0-1.02.965l-.063.18v11.6l.063.18c.16.465.536.818 1.032.971.152.047.435.049 6.892.049h6.733l.187-.059a1.545 1.545 0 0 0 1.004-.961l.063-.18V2.2l-.063-.18a1.546 1.546 0 0 0-1.032-.966c-.139-.036-.927-.04-6.904-.039-5.805.002-6.768.007-6.892.04M6.987 8v6l-2.794-.001c-2.67 0-2.798-.002-2.903-.05a.571.571 0 0 1-.186-.151l-.077-.101V2.303l.077-.101a.571.571 0 0 1 .186-.151c.105-.048.233-.05 2.903-.05L6.987 2v6m7.7-5.959a.426.426 0 0 1 .249.231c.049.096.051.257.051 5.728s-.002 5.632-.051 5.728a.426.426 0 0 1-.249.231c-.087.036-.489.041-3.393.041H8V2h3.294c2.904 0 3.306.005 3.393.041M2.768 4.561a.643.643 0 0 0-.173.15c-.066.087-.075.121-.075.291 0 .175.008.202.081.293.165.204.128.198 1.393.198 1.054 0 1.135-.003 1.227-.05A.479.479 0 0 0 5.493 5a.479.479 0 0 0-.272-.443c-.093-.047-.171-.05-1.227-.049-1.065.001-1.133.004-1.226.053m.179 2.945c-.015.005-.06.017-.1.025a.504.504 0 0 0-.17.102c-.28.246-.211.662.136.823.099.046.192.049 1.187.049.995 0 1.088-.003 1.187-.049A.488.488 0 0 0 5.493 8a.445.445 0 0 0-.128-.329c-.159-.168-.129-.164-1.312-.17a29.661 29.661 0 0 0-1.106.005m-.179 3.055a.643.643 0 0 0-.173.15c-.066.087-.075.121-.075.291 0 .175.008.202.081.293.165.204.128.198 1.393.198 1.054 0 1.135-.003 1.227-.05A.479.479 0 0 0 5.493 11a.479.479 0 0 0-.272-.443c-.093-.047-.171-.05-1.227-.049-1.065.001-1.133.004-1.226.053" fill-rule="evenodd" fill="#000"/></svg>