<svg xmlns="http://www.w3.org/2000/svg" width="24" height="24" fill="none"><path d="M1.252 3.078C.978 3.245 1 2.439 1 12.508c0 8.967.002 9.114.078 9.24.168.274-.851.252 11.43.252 10.95 0 11.114-.001 11.24-.078.274-.167.252.638.252-9.422s.022-9.255-.252-9.422C23.622 3.001 23.459 3 12.5 3s-11.122.001-11.248.078M13 12.5V21H2V4h11v8.5m10 0V21h-9V4h9v8.5m-5.748-4.422a.478.478 0 0 0-.174.67c.148.243.201.252 1.422.252 1.221 0 1.274-.009 1.422-.252a.451.451 0 0 0 0-.496c-.148-.243-.2-.252-1.43-.252-1.032 0-1.121.006-1.24.078m0 4a.478.478 0 0 0-.174.67c.148.243.201.252 1.422.252 1.221 0 1.274-.009 1.422-.252a.451.451 0 0 0 0-.496c-.148-.243-.2-.252-1.43-.252-1.032 0-1.121.006-1.24.078m0 4a.478.478 0 0 0-.174.67c.148.243.201.252 1.422.252 1.221 0 1.274-.009 1.422-.252a.451.451 0 0 0 0-.496c-.148-.243-.2-.252-1.43-.252-1.032 0-1.121.006-1.24.078" fill-rule="evenodd" fill="#000"/></svg>