<svg width="48" height="48" viewBox="0 0 48 48" fill="none" xmlns="http://www.w3.org/2000/svg">
<path d="M24.0005 21.421C25.6573 21.421 27.0005 20.0779 27.0005 18.421C27.0005 16.7642 25.6573 15.421 24.0005 15.421C22.3436 15.421 21.0005 16.7642 21.0005 18.421C21.0005 20.0779 22.3436 21.421 24.0005 21.421Z" stroke="#0A8276" stroke-linecap="round" stroke-linejoin="round"/>
<path d="M38.8496 33.27C40.7999 31.3199 42.3469 29.0048 43.4024 26.4569C44.4579 23.9089 45.0011 21.1779 45.0011 18.42C45.0011 15.6621 44.4579 12.9311 43.4024 10.3832C42.3469 7.83518 40.7999 5.52007 38.8496 3.57001" stroke="#0A8276" stroke-linecap="round" stroke-linejoin="round"/>
<path d="M9.15152 33.27C7.20126 31.3199 5.65422 29.0048 4.59873 26.4569C3.54325 23.9089 3 21.1779 3 18.42C3 15.6621 3.54325 12.9311 4.59873 10.3832C5.65422 7.83518 7.20126 5.52007 9.15152 3.57001" stroke="#0A8276" stroke-linecap="round" stroke-linejoin="round"/>
<path d="M34.6074 29.028C36.0004 27.6351 37.1054 25.9815 37.8593 24.1615C38.6132 22.3416 39.0012 20.3909 39.0012 18.421C39.0012 16.4511 38.6132 14.5005 37.8593 12.6805C37.1054 10.8606 36.0004 9.20692 34.6074 7.81403" stroke="#0A8276" stroke-linecap="round" stroke-linejoin="round"/>
<path d="M13.3936 7.81403C12.0006 9.20692 10.8956 10.8606 10.1417 12.6805C9.38778 14.5005 8.99976 16.4511 8.99976 18.421C8.99976 20.3909 9.38778 22.3416 10.1417 24.1615C10.8956 25.9815 12.0006 27.6351 13.3936 29.028" stroke="#0A8276" stroke-linecap="round" stroke-linejoin="round"/>
<path d="M24.0005 21.421V44.421" stroke="#0A8276" stroke-linecap="round" stroke-linejoin="round"/>
<path d="M16.0005 44.421H32.0005" stroke="#0A8276" stroke-linecap="round" stroke-linejoin="round"/>
<path d="M17.6366 12.057C16.8008 12.8927 16.1379 13.8849 15.6856 14.9768C15.2333 16.0688 15.0005 17.2391 15.0005 18.421C15.0005 19.6029 15.2333 20.7732 15.6856 21.8652C16.1379 22.9571 16.8008 23.9493 17.6366 24.785" stroke="#0A8276" stroke-linecap="round" stroke-linejoin="round"/>
<path d="M30.3645 12.057C31.2002 12.8927 31.8632 13.8849 32.3155 14.9768C32.7678 16.0688 33.0006 17.2391 33.0006 18.421C33.0006 19.6029 32.7678 20.7732 32.3155 21.8652C31.8632 22.9571 31.2002 23.9493 30.3645 24.785" stroke="#0A8276" stroke-linecap="round" stroke-linejoin="round"/>
</svg>
