<svg xmlns="http://www.w3.org/2000/svg" width="16" height="16" fill="none"><path d="M0 8.013v7h16V14H1.013V1.013H0v7m14.64-6.971c-1.989.185-3.488 1.053-4.556 2.636-.521.77-.807 1.35-1.541 3.118-.46 1.106-.658 1.549-.915 2.044-.665 1.282-1.381 2.07-2.321 2.556-.77.398-1.535.569-2.674.596L2 12.007v1.014l.58-.018c.319-.011.736-.037.927-.058 2.337-.267 3.905-1.427 5.069-3.75.24-.479.462-.981.876-1.979.85-2.046 1.216-2.732 1.875-3.516a4.659 4.659 0 0 1 2.06-1.392c.584-.192 1.149-.276 2.02-.3L16 1.992v-.979l-.567.004c-.311.002-.668.013-.793.025" fill-rule="evenodd" fill="#000"/></svg>