<svg xmlns="http://www.w3.org/2000/svg" width="24" height="24" fill="none"><path d="M1 12v10h22v-1H2V2H1v10m20.46-9.956c-.926.07-2.04.31-2.76.595a9.18 9.18 0 0 0-1.62.872c-.477.335-1.339 1.188-1.712 1.693-.813 1.101-1.294 2.051-2.328 4.596-1.242 3.057-1.841 4.125-2.919 5.2-.867.865-1.8 1.382-3.074 1.705-.725.183-1.279.253-2.237.282l-.81.025V18h.55a11.477 11.477 0 0 0 2.82-.343c2.005-.507 3.565-1.689 4.782-3.621.543-.862.959-1.749 1.849-3.939 1.056-2.598 1.587-3.607 2.44-4.628 1.063-1.274 2.442-2.03 4.239-2.325A13.49 13.49 0 0 1 22.546 3H23V2l-.55.006c-.302.003-.748.02-.99.038" fill-rule="evenodd" fill="#000"/></svg>