<svg xmlns="http://www.w3.org/2000/svg" width="16" height="16" fill="none"><path d="M4.28 1.055a.445.445 0 0 0-.23.238c-.047.103-.049.359-.049 6.707 0 6.36.002 6.604.049 6.707a.445.445 0 0 0 .32.268.5.5 0 0 0 .367-.036.707.707 0 0 0 .243-.293c.026-.095.026-13.197 0-13.292a.673.673 0 0 0-.263-.302.637.637 0 0 0-.437.003m6.987.007a.941.941 0 0 0-.151.128c-.163.178-5 6.487-5.055 6.595a.43.43 0 0 0 0 .43c.061.118 4.91 6.439 5.069 6.607.144.154.306.208.483.161.307-.08.476-.427.339-.691-.026-.05-1.115-1.478-2.419-3.172C8.229 9.426 7.162 8.022 7.162 8c0-.022 1.067-1.426 2.371-3.12 1.304-1.694 2.393-3.122 2.419-3.172.099-.192.031-.464-.153-.604-.132-.101-.407-.123-.532-.042" fill-rule="evenodd" fill="#000"/></svg>