<svg xmlns="http://www.w3.org/2000/svg" width="16" height="16" fill="none"><path d="M4.28 1.055a.445.445 0 0 0-.23.238.49.49 0 0 0-.002.415c.026.05 1.115 1.478 2.419 3.172C7.771 6.574 8.838 7.978 8.838 8c0 .022-1.067 1.426-2.371 3.12-1.304 1.694-2.393 3.122-2.419 3.172-.137.264.032.611.339.691.177.047.339-.007.483-.161.159-.168 5.008-6.489 5.069-6.607a.43.43 0 0 0 0-.43c-.061-.118-4.91-6.439-5.069-6.607a.775.775 0 0 0-.155-.127.638.638 0 0 0-.435.004m6.986.008a.637.637 0 0 0-.246.292c-.026.094-.026 13.197 0 13.291a.707.707 0 0 0 .243.293.5.5 0 0 0 .367.036.445.445 0 0 0 .32-.268c.047-.103.049-.347.049-6.701.001-7.105.009-6.691-.127-6.841-.133-.148-.445-.2-.606-.102" fill-rule="evenodd" fill="#000"/></svg>