<svg xmlns="http://www.w3.org/2000/svg" width="24" height="24" fill="none"><path d="M6.235.58a.498.498 0 0 0-.17.195C6.005.901 6 1.83 6 12c0 10.041.006 11.101.063 11.222.085.178.228.265.437.265s.352-.087.437-.265C6.994 23.101 7 22.041 7 12 7 1.82 6.995.901 6.935.774a.487.487 0 0 0-.178-.196.645.645 0 0 0-.522.002m10.996.01c-.089.058-8.06 10.966-8.19 11.209a.55.55 0 0 0 .01.425c.027.046 1.864 2.578 4.082 5.627 3.618 4.972 4.05 5.549 4.186 5.604.381.152.784-.222.651-.604-.021-.061-1.796-2.528-3.945-5.481L10.12 12l3.904-5.368c2.147-2.952 3.92-5.41 3.94-5.462.052-.138.045-.24-.029-.396-.115-.241-.469-.334-.704-.184" fill-rule="evenodd" fill="#000"/></svg>