<svg xmlns="http://www.w3.org/2000/svg" width="24" height="24" fill="none"><path d="M6.215.596c-.22.134-.278.461-.123.688.051.075 1.824 2.517 3.94 5.426L13.88 12l-3.906 5.37c-2.149 2.954-3.925 5.416-3.946 5.472-.144.374.273.765.653.613.136-.055.568-.632 4.186-5.604a1332.71 1332.71 0 0 0 4.082-5.627.55.55 0 0 0 0-.448c-.027-.046-1.863-2.577-4.08-5.624C8.302 2.624 6.801.595 6.737.566a.62.62 0 0 0-.522.03M17.235.58a.498.498 0 0 0-.17.195C17.005.901 17 1.83 17 12c0 10.041.006 11.101.063 11.222.085.178.228.265.437.265s.352-.087.437-.265C17.994 23.101 18 22.041 18 12 18 1.82 17.995.901 17.935.774a.487.487 0 0 0-.178-.196.645.645 0 0 0-.522.002" fill-rule="evenodd" fill="#000"/></svg>