<svg xmlns="http://www.w3.org/2000/svg" width="12" height="12" fill="none"><path d="M3.347.029a.513.513 0 0 0-.283.229L3.01.35v11.303l.061.099a.499.499 0 0 0 .858 0l.061-.099V.35L3.936.258a.5.5 0 0 0-.589-.229M8.838.028a.653.653 0 0 0-.134.069c-.076.055-4.14 5.64-4.176 5.74a.534.534 0 0 0 0 .326c.014.041.947 1.34 2.073 2.888 1.713 2.356 2.061 2.824 2.135 2.871a.501.501 0 0 0 .69-.164.543.543 0 0 0 .056-.393c-.017-.061-.555-.815-1.944-2.725L5.618 6l1.92-2.64C8.927 1.45 9.465.696 9.482.635c.103-.384-.274-.74-.644-.607" fill-rule="evenodd" fill="#000"/></svg>