<svg xmlns="http://www.w3.org/2000/svg" width="16" height="16" fill="none"><path d="M3.157.04a1.547 1.547 0 0 0-.983.763C1.988 1.156 2.001.609 2.001 8c0 7.394-.014 6.843.174 7.199.122.232.394.504.626.626.352.185.019.174 5.199.174s4.847.011 5.199-.174c.232-.122.504-.394.626-.626.188-.356.174.195.174-7.199 0-5.86-.005-6.701-.04-6.851A1.533 1.533 0 0 0 12.83.038c-.255-.054-9.424-.052-9.673.002m9.545 1.003c.086.044.204.16.247.242.057.11.056 13.321-.001 13.432a.673.673 0 0 1-.302.263c-.095.026-9.197.026-9.292 0a.673.673 0 0 1-.302-.263c-.057-.111-.058-13.322-.001-13.432a.743.743 0 0 1 .242-.241c.077-.042 9.326-.043 9.409-.001M7.293 3.044a.814.814 0 0 0-.233.222c-.089.165-.059.433.063.565.14.152.221.168.877.168s.737-.016.877-.168c.063-.068.143-.309.124-.372a2.71 2.71 0 0 1-.026-.105c-.019-.089-.156-.25-.258-.302-.094-.049-1.337-.055-1.424-.008" fill-rule="evenodd" fill="#000"/></svg>