<svg xmlns="http://www.w3.org/2000/svg" width="24" height="24" fill="none"><path d="M5.96 1.062a2.885 2.885 0 0 0-1.128.577c-.3.268-.593.713-.714 1.083l-.098.298v19l.111.3c.265.72.826 1.282 1.549 1.549l.3.111h13.04l.3-.111a2.604 2.604 0 0 0 1.549-1.549l.111-.3V2.98l-.111-.3a2.537 2.537 0 0 0-1.249-1.403c-.59-.292-.174-.276-7.14-.273-5.199.002-6.304.012-6.52.058m13.14 1.07c.315.147.624.455.767.764l.113.244v18.72l-.112.24a1.698 1.698 0 0 1-.764.767l-.244.113H6.14l-.244-.113a1.698 1.698 0 0 1-.764-.767l-.112-.24V3.14l.112-.24c.198-.425.623-.775 1.042-.859.091-.018 2.983-.03 6.426-.027l6.26.006.24.112m-6.978 2.451a.979.979 0 0 0-.509.469c-.25.489-.066 1.056.431 1.327.845.459 1.794-.49 1.335-1.335a.942.942 0 0 0-.888-.522 1.14 1.14 0 0 0-.369.061" fill="currentColor" fill-rule="evenodd"/></svg>