<svg xmlns="http://www.w3.org/2000/svg" width="16" height="16" fill="none"><path d="m7.493.015-.386.04C5.77.189 4.339.751 3.243 1.572 1.109 3.173-.075 5.619.009 8.253c.115 3.601 2.59 6.65 6.101 7.518a8.041 8.041 0 0 0 6.1-.969 8.009 8.009 0 0 0 3.561-4.915c.172-.701.212-1.058.212-1.887s-.04-1.186-.212-1.887C14.979 2.878 12.315.498 9 .064 8.716.027 7.683-.006 7.493.015m1.242 1.027c2.353.233 4.481 1.715 5.532 3.851.505 1.029.72 1.96.719 3.118 0 1.405-.385 2.694-1.142 3.83-.311.466-.53.735-.9 1.105a6.918 6.918 0 0 1-4.546 2.04c-3.472.208-6.587-2.206-7.261-5.626A6.503 6.503 0 0 1 1.013 8c0-.529.035-.909.124-1.36a7.011 7.011 0 0 1 4.379-5.184 7.462 7.462 0 0 1 1.711-.413 11.497 11.497 0 0 1 1.508-.001M4.637 5.075a.908.908 0 0 0-.408.294c-.163.199-.212.344-.213.631 0 .216.01.275.068.4.194.416.646.662 1.075.585.331-.06.614-.279.757-.585.058-.125.068-.184.068-.4 0-.216-.01-.275-.068-.4a1.01 1.01 0 0 0-.47-.486c-.155-.076-.209-.088-.419-.095-.203-.006-.264.003-.39.056m6 0a.908.908 0 0 0-.408.294c-.163.199-.212.344-.213.631 0 .216.01.275.068.4.194.416.646.662 1.075.585.331-.06.614-.279.757-.585.058-.125.068-.184.068-.4 0-.216-.01-.275-.068-.4a1.01 1.01 0 0 0-.47-.486c-.155-.076-.209-.088-.419-.095-.203-.006-.264.003-.39.056m-5.85 4.276c-.281.148-.359.439-.197.726.346.613.985 1.191 1.687 1.525a3.989 3.989 0 0 0 4.146-.424c.369-.277.783-.738.987-1.1.208-.37-.009-.772-.415-.771-.199.001-.314.082-.507.359-.471.677-1.159 1.133-1.928 1.279a3.892 3.892 0 0 1-1.12 0c-.769-.146-1.457-.602-1.928-1.279-.196-.28-.308-.359-.512-.358a.578.578 0 0 0-.213.043" fill-rule="evenodd" fill="#000"/></svg>