<svg xmlns="http://www.w3.org/2000/svg" width="24" height="24" fill="none"><path d="M11.5 1.046a11.615 11.615 0 0 0-6.187 2.48 13.69 13.69 0 0 0-1.789 1.79c-1.326 1.672-2.116 3.513-2.43 5.664-.099.676-.099 2.364 0 3.04.379 2.592 1.474 4.795 3.283 6.603a11.343 11.343 0 0 0 5.663 3.111 10.62 10.62 0 0 0 2.1.253 11.367 11.367 0 0 0 5.856-1.387 11.677 11.677 0 0 0 4.604-4.604c2.215-4.101 1.779-9.018-1.124-12.68a13.69 13.69 0 0 0-1.789-1.79c-1.256-.996-2.777-1.76-4.271-2.146a11.789 11.789 0 0 0-3.916-.334m2.535 1.072c.641.096 1.505.309 2.037.504.584.213 1.699.778 2.212 1.121a10.34 10.34 0 0 1 3.615 4.113c.398.808.57 1.261.761 2.011.246.965.314 1.539.314 2.633s-.068 1.668-.314 2.633c-.191.75-.363 1.203-.761 2.011-1.55 3.144-4.421 5.22-7.967 5.764-.609.093-2.264.093-2.864 0-2.37-.367-4.36-1.36-5.987-2.99a10.027 10.027 0 0 1-1.983-2.778c-.537-1.094-.802-1.933-.985-3.12-.125-.803-.125-2.237 0-3.04.183-1.187.448-2.026.985-3.12.828-1.689 2.03-3.056 3.622-4.121.514-.344 1.612-.899 2.218-1.121.735-.269 1.754-.491 2.651-.579.555-.054 1.837-.013 2.446.079M7.493 9.592a1.513 1.513 0 0 0-.972 1.636c.197 1.208 1.669 1.687 2.532.825a1.493 1.493 0 0 0-.409-2.403c-.292-.143-.837-.17-1.151-.058m9 0a1.513 1.513 0 0 0-.972 1.636c.197 1.208 1.669 1.687 2.532.825a1.493 1.493 0 0 0-.409-2.403c-.292-.143-.837-.17-1.151-.058m-7.241 5.486c-.213.13-.267.284-.238.683a3.498 3.498 0 0 0 3.286 3.226c1.41.081 2.706-.683 3.355-1.975.268-.534.424-1.464.288-1.725-.257-.498-.941-.294-.944.281-.002.504-.278 1.197-.635 1.597-.262.293-.67.567-1.044.703-.268.097-.355.108-.82.108-.465 0-.552-.011-.82-.108a2.775 2.775 0 0 1-1.044-.703c-.36-.403-.633-1.092-.635-1.605-.002-.431-.406-.691-.749-.482" fill-rule="evenodd" fill="#000"/></svg>