<svg xmlns="http://www.w3.org/2000/svg" width="16" height="16" fill="none"><path d="M6.28 1.055a.445.445 0 0 0-.23.238.508.508 0 0 0-.009.408c.028.066.359.417 1 1.06L8 3.722v1.925c0 1.06-.006 1.926-.014 1.926-.011 0-3.238-2.043-3.258-2.063-.003-.003-.133-.581-.289-1.284-.156-.704-.306-1.329-.332-1.391-.119-.272-.513-.358-.759-.164a.523.523 0 0 0-.175.375c0 .063.114.624.254 1.245.139.622.248 1.136.242 1.142-.006.006-.519.124-1.14.261-.698.155-1.175.274-1.249.312a.494.494 0 0 0-.228.596c.024.057.07.133.103.168a.61.61 0 0 0 .345.163c.041 0 .641-.126 1.334-.28a78.907 78.907 0 0 1 1.314-.286c.052-.004 3.4 2.101 3.398 2.137-.001.016-3.241 2.078-3.329 2.118-.033.015-.467-.07-1.32-.26-.698-.155-1.328-.282-1.398-.282a.486.486 0 0 0-.46.609.53.53 0 0 0 .288.332c.055.022.604.151 1.22.287.616.137 1.123.25 1.128.253.004.003-.107.517-.247 1.142-.14.625-.255 1.185-.255 1.244a.46.46 0 0 0 .169.366.486.486 0 0 0 .538.08.75.75 0 0 0 .23-.214c.015-.026.158-.638.318-1.359.161-.721.301-1.319.312-1.33.011-.011.746-.481 1.633-1.045l1.614-1.026.007 1.937L8 13.293l-.959.96c-.649.65-.972.992-1 1.059a.47.47 0 0 0 .122.546.46.46 0 0 0 .544.091c.069-.033.4-.345.946-.893l.839-.842.855.852c.564.563.887.866.953.893.13.054.276.051.407-.009a.445.445 0 0 0 .268-.32.476.476 0 0 0-.079-.425c-.037-.054-.476-.506-.975-1.005l-.908-.906v-1.927c0-1.06.007-1.927.016-1.927.012 0 3.182 2.003 3.235 2.044.006.005.141.593.301 1.308.159.715.311 1.343.338 1.394a.525.525 0 0 0 .331.243.496.496 0 0 0 .49-.182c.148-.195.146-.215-.136-1.48a52.61 52.61 0 0 1-.255-1.174c0-.025.343-.111 1.127-.283.62-.137 1.179-.273 1.243-.303a.496.496 0 0 0 .142-.776.498.498 0 0 0-.361-.151c-.061 0-.687.128-1.392.284l-1.281.285-1.652-1.048a133.42 133.42 0 0 1-1.684-1.078c-.024-.022.388-.297 1.653-1.1l1.685-1.071 1.307.292c.926.207 1.34.289 1.42.281.419-.043.584-.584.263-.865-.103-.091-.062-.08-1.57-.417a18.238 18.238 0 0 1-.891-.212c-.01-.01.1-.548.244-1.198.242-1.093.259-1.188.23-1.293-.059-.213-.265-.38-.468-.38-.187 0-.402.134-.467.29-.016.039-.159.652-.317 1.364l-.288 1.293-1.625 1.033-1.624 1.034-.007-1.94-.007-1.939.971-.974c.934-.937.972-.979.998-1.105a.638.638 0 0 0 .018-.16 1.95 1.95 0 0 1-.025-.102c-.019-.089-.156-.25-.258-.302a.68.68 0 0 0-.415-.01c-.042.015-.462.414-.935.885l-.86.858-.847-.843c-.466-.463-.885-.862-.932-.885a.634.634 0 0 0-.448-.002" fill-rule="evenodd" fill="#000"/></svg>