<svg xmlns="http://www.w3.org/2000/svg" width="24" height="24" fill="none"><path d="M12.252 1.078c-.25.153-.252.166-.252 1.77v1.451l-1.11-1.105c-.61-.608-1.149-1.125-1.197-1.15-.375-.189-.838.274-.649.649.024.048.7.744 1.5 1.547l1.457 1.461-.011 2.961-.01 2.961-2.58-1.494-2.58-1.493-.516-1.928c-.283-1.06-.541-1.978-.572-2.04a.556.556 0 0 0-.424-.268c-.243 0-.507.247-.508.476 0 .078.361 1.468.721 2.775.041.149.062.264.047.255-.016-.008-.562-.323-1.216-.7C3.304 6.6 3.144 6.52 2.988 6.52c-.435 0-.655.538-.338.828.049.046.626.393 1.282.773.655.379 1.186.694 1.18.7-.007.006-.66.184-1.452.395-.792.212-1.499.411-1.57.444a.503.503 0 0 0-.239.659c.066.13.295.281.425.28.057 0 1.001-.241 2.096-.536l1.992-.535 2.56 1.482c1.408.815 2.546 1.495 2.528 1.512-.018.016-1.169.688-2.558 1.491l-2.527 1.462-2.001-.537c-1.101-.296-2.045-.538-2.098-.538-.124 0-.353.154-.417.281-.097.193-.041.448.135.606.042.038.743.246 1.605.477.842.226 1.517.424 1.5.44-.017.016-.553.33-1.191.698-.638.368-1.201.705-1.25.751a.577.577 0 0 0-.133.237c-.078.293.166.601.477.601.15 0 .78-.342 2.474-1.341l.129-.076-.076.273c-.365 1.326-.721 2.7-.721 2.781 0 .127.153.356.281.421a.508.508 0 0 0 .651-.217c.031-.062.289-.979.572-2.038l.515-1.926 2.564-1.484a173.977 173.977 0 0 1 2.591-1.484c.014 0 .026 1.328.026 2.95v2.95l-1.443 1.44c-.793.792-1.468 1.489-1.5 1.548-.206.388.248.864.636.668.048-.025.587-.542 1.197-1.15L12 20.701v1.459c0 1.377.005 1.467.078 1.588.2.328.644.328.844 0 .073-.121.078-.211.078-1.588v-1.459l1.11 1.105c.61.608 1.149 1.125 1.197 1.15.388.196.842-.28.636-.668-.032-.059-.707-.756-1.5-1.548L13 19.3v-2.95c0-1.622.012-2.95.026-2.95.015 0 1.18.668 2.591 1.484l2.564 1.484.514 1.926c.283 1.059.535 1.97.56 2.025.061.132.29.281.433.281.248 0 .511-.245.512-.476 0-.078-.361-1.469-.721-2.777l-.076-.273.129.076c2.29 1.351 2.477 1.438 2.726 1.275.235-.154.309-.488.154-.698-.045-.062-.591-.405-1.283-.807a60.206 60.206 0 0 1-1.227-.723c-.012-.013.64-.2 1.448-.416.809-.215 1.52-.417 1.582-.448a.557.557 0 0 0 .268-.433c0-.238-.252-.5-.48-.5-.047 0-.985.242-2.086.538l-2.001.537-2.527-1.462a234.234 234.234 0 0 1-2.558-1.491c-.018-.017 1.12-.697 2.528-1.512l2.56-1.482 1.992.535c1.095.295 2.037.536 2.092.536.232.001.48-.261.48-.507 0-.159-.137-.363-.29-.432-.071-.033-.778-.232-1.57-.444a76.527 76.527 0 0 1-1.452-.395c-.006-.006.525-.321 1.18-.7.656-.38 1.233-.727 1.282-.772.313-.288.094-.829-.336-.829-.159 0-.312.077-1.366.686-.654.377-1.2.692-1.216.7-.015.009.006-.106.047-.255.36-1.307.721-2.697.721-2.775-.001-.231-.264-.476-.512-.476-.143 0-.372.149-.433.281-.025.055-.277.967-.56 2.027l-.515 1.928-2.58 1.493-2.58 1.494-.01-2.961-.011-2.961 1.457-1.461c.8-.803 1.476-1.499 1.5-1.547.189-.375-.274-.838-.649-.649-.048.025-.587.542-1.197 1.15L13 4.299V2.84c0-1.377-.005-1.467-.078-1.588a.478.478 0 0 0-.67-.174" fill-rule="evenodd" fill="#000"/></svg>