<svg xmlns="http://www.w3.org/2000/svg" width="16" height="16" fill="currentColor" viewBox="0 0 16 16">
  <path fill-rule="evenodd" d="M7.98 2.5a.5.5 0 0 1 .5.5v10a.5.5 0 0 1-1 0V3a.5.5 0 0 1 .5-.5Z" clip-rule="evenodd"/>
  <path fill-rule="evenodd" d="M7.98 12.293 10.687 15l-.707.707L7.273 13l.707-.707Z" clip-rule="evenodd"/>
  <path fill-rule="evenodd" d="M8.687 13 5.98 15.707 5.273 15l2.707-2.707.707.707ZM5.98.293 8.687 3l-.707.707L5.273 1 5.98.293Z" clip-rule="evenodd"/>
  <path fill-rule="evenodd" d="M10.687 1 7.98 3.707 7.273 3 9.98.293l.707.707ZM12.622 5.05a.5.5 0 0 1-.154.69l-8.44 5.364a.5.5 0 0 1-.536-.844l8.44-5.364a.5.5 0 0 1 .69.154Z" clip-rule="evenodd"/>
  <path fill-rule="evenodd" d="m4.357 10.303-.833 3.737-.976-.218.833-3.737.976.218Z" clip-rule="evenodd"/>
  <path fill-rule="evenodd" d="m.62 9.47 3.737.833-.218.976-3.736-.833.218-.976ZM13.412 2.178l-.833 3.737-.976-.218.833-3.737.976.218Z" clip-rule="evenodd"/>
  <path fill-rule="evenodd" d="m11.82 4.721 3.737.833-.218.976-3.736-.833.218-.976ZM3.606 4.628l9.284 5.9-.536.844-9.284-5.9.536-.844Z" clip-rule="evenodd"/>
  <path fill-rule="evenodd" d="m3.524 1.96.833 3.737-.976.218-.833-3.737.976-.218Z" clip-rule="evenodd"/>
  <path fill-rule="evenodd" d="M4.357 5.697.62 6.53l-.218-.976L4.14 4.72l.218.976ZM12.58 10.085l.832 3.737-.976.218-.833-3.737.976-.218Z" clip-rule="evenodd"/>
  <path fill-rule="evenodd" d="m15.557 10.446-3.736.833-.218-.976 3.736-.833.218.976Z" clip-rule="evenodd"/>
</svg>
