<svg xmlns="http://www.w3.org/2000/svg" width="16" height="16" fill="none"><path d="M2.107 1.052a1.552 1.552 0 0 0-1.048 1.014L1 2.253V9l.5.007.499.008.007-3.343.007-3.343.074-.096a.884.884 0 0 1 .16-.158l.086-.062h11.338l.096.074c.053.04.124.112.158.16l.062.086.007 3.341.007 3.341.499-.008L15 9V5.64c0-3.148-.003-3.371-.048-3.533a1.548 1.548 0 0 0-1.062-1.055c-.122-.032-.99-.038-5.903-.036-4.563.002-5.785.009-5.88.036m8.88 9.088v3.126l-1.24-1.239-1.24-1.24-.36.36-.36.36L9.64 13.36l1.853 1.853 1.86-1.86 1.86-1.86-.353-.353-.353-.353-1.254 1.253L12 13.293v-6.28h-1.013v3.127M0 10.353c0 .195.013.43.028.523.047.287.177.647.325.895.421.707 1.123 1.142 1.961 1.217.195.017 1.139.024 2.499.02L7 13l.007-.499.008-.499-2.421-.008-2.421-.007-.183-.072a1.577 1.577 0 0 1-.814-.715 1.31 1.31 0 0 1-.083-.17c0-.009 1.329-.019 2.954-.023L7 11l.007-.5.008-.5H0v.353" fill-rule="evenodd" fill="#000"/></svg>