<svg xmlns="http://www.w3.org/2000/svg" width="24" height="24" fill="none" viewBox="0 0 24 24"><path fill="currentColor" d="m19.5 21.5-.354.354.354.353.354-.353-.354-.354Zm3.354-2.646.353-.354-.707-.707-.354.353.708.708Zm-6-.708-.354-.353-.707.707.353.354.708-.708ZM3 13.5v.5h1v-.5H3Zm18-5V9h1v-.5h-1ZM12.5 18h.5v-1h-.5v1Zm-11-.5V17H1v.5h.5Zm11 3.5h.5v-1h-.5v1Zm6.5-8.5v9h1v-9h-1Zm3.146 5.646-3 3 .708.708 3-3-.708-.708Zm-2.292 3-3-3-.708.708 3 3 .708-.708ZM4 13.5v-10H3v10h1Zm0-10a.5.5 0 0 1 .5-.5V2A1.5 1.5 0 0 0 3 3.5h1Zm.5-.5h16V2h-16v1Zm16 0a.5.5 0 0 1 .5.5h1A1.5 1.5 0 0 0 20.5 2v1Zm.5.5v5h1v-5h-1ZM12.5 17h-11v1h11v-1ZM1 17.5A3.5 3.5 0 0 0 4.5 21v-1A2.5 2.5 0 0 1 2 17.5H1ZM4.5 21h8v-1h-8v1Z"/></svg>