<svg xmlns="http://www.w3.org/2000/svg" width="24" height="24" fill="none"><path d="M4.15 2.043c-.421.1-.807.421-1.006.837l-.124.26-.011 5.43-.01 5.43H4V8.69c0-5.196.002-5.313.078-5.438.167-.273-.533-.252 8.43-.252 7.975 0 8.114.002 8.24.078.263.161.252.028.252 3.12V9h1.002l-.011-2.93-.011-2.93-.113-.244a1.698 1.698 0 0 0-.767-.764l-.24-.112-8.28-.006c-4.728-.004-8.344.009-8.43.029M19 16.41v3.89l-1.25-1.25-1.251-1.25-.349.35-.35.35 1.85 1.85 1.85 1.85 1.85-1.85 1.849-1.849-.349-.351-.349-.351-1.25 1.25L20 20.3v-7.78h-1v3.89M1.011 17.55c.039.985.329 1.694.967 2.365.43.452.923.752 1.57.955l.352.11 4.55.011 4.55.011V20l-4.37-.001c-4.886 0-4.669.011-5.269-.285a2.547 2.547 0 0 1-1.255-1.504L2.044 18H13v-1H.989l.022.55" fill="currentColor" fill-rule="evenodd"/></svg>