<svg xmlns="http://www.w3.org/2000/svg" width="16" height="16" fill="currentColor">
  <g clip-path="url(#a)">
    <path fill-rule="evenodd" d="M4 0v2H3V0h1Zm9 0v2h-1V0h1ZM0 3h2v1H0V3Zm4.5 1a.5.5 0 0 0-.5.5v7a.5.5 0 0 0 .5.5h7a.5.5 0 0 0 .5-.5v-7a.5.5 0 0 0-.5-.5h-7ZM3 4.5A1.5 1.5 0 0 1 4.5 3h7A1.5 1.5 0 0 1 13 4.5v7a1.5 1.5 0 0 1-1.5 1.5h-7A1.5 1.5 0 0 1 3 11.5v-7ZM14 3h2v1h-2V3ZM0 12h2v1H0v-1Zm14 0h2v1h-2v-1ZM4 14v2H3v-2h1Zm9 0v2h-1v-2h1Z" clip-rule="evenodd"/>
  </g>
  <defs>
    <clipPath id="a">
      <path d="M0 0h16v16H0z"/>
    </clipPath>
  </defs>
</svg>
