<svg xmlns="http://www.w3.org/2000/svg" width="24" height="24" fill="none"><path d="M5 3v1h1V2H5v1m13 0v1h1V2h-1v1M2 5.5V6h2V5H2v.5m4.437-.427c-.666.174-1.2.715-1.377 1.395-.09.345-.09 10.719 0 11.064.092.354.248.623.516.892.269.268.538.424.892.516.345.09 10.719.09 11.064 0 .354-.092.623-.248.892-.516.268-.269.424-.538.516-.892.09-.345.09-10.719 0-11.064a1.952 1.952 0 0 0-1.377-1.395c-.242-.063-.682-.068-5.563-.068-4.881 0-5.321.005-5.563.068M20 5.5V6h2V5h-2v.5m-2.534.589c.161.088.357.284.445.445.064.117.069.49.069 5.466 0 5.934.023 5.431-.263 5.717-.286.286.217.263-5.717.263-5.934 0-5.431.023-5.717-.263-.285-.286-.262.197-.275-5.577-.006-2.86-.001-5.275.012-5.367.027-.188.183-.442.354-.576.258-.202.043-.195 5.686-.186 4.909.008 5.289.014 5.406.078M2 18.5v.5h2v-1H2v.5m18 0v.5h2.52v-1H20v.5M5 21v1h1v-2H5v1m13 0v1h1v-2h-1v1" fill-rule="evenodd" fill="#000"/></svg>