<svg width="49" height="48" fill="none" xmlns="http://www.w3.org/2000/svg"><path d="M12.694 2.157c-.148.109-.159.245-.179 2.226-.024 2.323.005 2.497.418 2.544a.524.524 0 0 0 .386-.114c.146-.133.156-.279.156-2.321 0-2.008-.012-2.191-.149-2.315-.184-.166-.421-.173-.632-.02m23.938.066c-.107.153-.127.512-.127 2.269 0 2.314.027 2.45.49 2.45.463 0 .49-.136.49-2.45s-.027-2.45-.49-2.45a.433.433 0 0 0-.363.181M2.858 12.062c-.347.124-.433.594-.145.796.153.107.516.127 2.315.127 1.963 0 2.144-.012 2.269-.149.192-.214.17-.552-.047-.704-.153-.107-.5-.126-2.225-.121-1.124.004-2.099.027-2.167.051m9.871.099-.193.156-.023 12.033c-.012 6.618-.003 12.113.021 12.211.113.466-.791.434 12.462.434 12.053 0 12.164-.001 12.326-.163.162-.162.163-.273.163-12.326V12.344l-.215-.17-.215-.169H24.988c-11.759 0-12.071.004-12.259.156m30.064-.051c-.255.129-.315.499-.116.719.133.146.279.156 2.321.156 2.043 0 2.189-.01 2.321-.156.199-.22.14-.59-.116-.719-.147-.074-.759-.103-2.205-.103-1.445 0-2.057.029-2.205.103M36.505 24.5v11.515h-23.03v-23.03h23.03V24.5M2.858 36.072c-.347.124-.433.594-.145.796.153.107.516.127 2.315.127 1.963 0 2.144-.012 2.269-.149.192-.214.17-.552-.047-.704-.153-.107-.5-.126-2.225-.121-1.124.004-2.099.027-2.167.051m39.935.048c-.255.129-.315.499-.116.719.133.146.279.156 2.321.156 2.043 0 2.189-.01 2.321-.156.199-.22.14-.59-.116-.719-.147-.074-.759-.103-2.205-.103-1.445 0-2.057.029-2.205.103m-30.099 6.054c-.148.109-.159.245-.179 2.226-.024 2.322.005 2.496.418 2.544a.524.524 0 0 0 .386-.115c.146-.132.156-.278.156-2.321 0-2.008-.012-2.19-.149-2.315-.184-.165-.421-.173-.632-.019m23.938.066c-.107.153-.127.512-.127 2.268 0 2.314.027 2.45.49 2.45.463 0 .49-.136.49-2.45s-.027-2.45-.49-2.45a.433.433 0 0 0-.363.182" fill-rule="evenodd" fill="#000"/></svg>