<svg width="16" height="16" fill="none" xmlns="http://www.w3.org/2000/svg"><path d="M7.52.028A7.924 7.924 0 0 0 2.787 1.95 7.966 7.966 0 0 0 .063 7.08c-.055.456-.054 1.38 0 1.84a7.966 7.966 0 0 0 1.887 4.293 7.969 7.969 0 0 0 5.13 2.724 10.47 10.47 0 0 0 1.84 0 7.951 7.951 0 0 0 4.65-2.214 7.97 7.97 0 0 0 2.367-4.803c.025-.212.041-.57.041-.92 0-.35-.016-.708-.041-.92a7.951 7.951 0 0 0-2.214-4.65C12.097.759 9.871-.103 7.52.028m1.484 1.036c1.533.23 2.85.893 3.944 1.988 1.094 1.093 1.75 2.396 1.99 3.948.047.304.058.49.058 1s-.011.696-.058 1c-.24 1.552-.896 2.855-1.99 3.948-1.093 1.094-2.396 1.75-3.948 1.99a8.063 8.063 0 0 1-2 0c-1.552-.24-2.855-.896-3.948-1.99a6.878 6.878 0 0 1-1.987-3.944 7.005 7.005 0 0 1 .947-4.642 7.284 7.284 0 0 1 2.268-2.3 7.156 7.156 0 0 1 3.227-1.059c.3-.025 1.156.01 1.497.061M11.8 4.558c-.073.034-.841.785-2.44 2.386C8.077 8.229 7.015 9.28 7.001 9.28c-.015 0-.531-.503-1.147-1.118-.987-.985-1.133-1.12-1.222-1.137-.338-.062-.613.153-.613.479 0 .076.019.173.042.217.062.116 2.659 2.698 2.747 2.731a.658.658 0 0 0 .4-.009c.111-.049 5.207-5.151 5.244-5.251a.696.696 0 0 0 0-.384.472.472 0 0 0-.252-.251.447.447 0 0 0-.4.001" fill-rule="evenodd" fill="#000"/></svg>