<svg xmlns="http://www.w3.org/2000/svg" width="16" height="16" fill="none"><path d="M8.646 2.802 5.333 5.013H0v6H5.373l3.3 2.2a505.28 505.28 0 0 0 3.314 2.2c.007 0 .013-3.336.013-7.413S11.991.587 11.98.589c-.011.001-1.511.997-3.334 2.213m2.334 7.971-.007 2.774-2.66-1.774L5.653 10h-4.64V6h4.64l2.66-1.773 2.66-1.774.007 2.774c.004 1.525.004 4.021 0 5.546m2.649-6.61-.33.346.333.339c.629.638.976 1.218 1.205 2.012.117.405.157.774.143 1.313-.02.725-.157 1.265-.475 1.878a4.617 4.617 0 0 1-.83 1.135l-.312.325.354.353.354.352.319-.33c1.02-1.056 1.544-2.247 1.601-3.646a5.403 5.403 0 0 0-1.106-3.493c-.169-.224-.852-.934-.896-.932-.016.001-.178.157-.36.348" fill="currentColor" fill-rule="evenodd"/></svg>