<svg xmlns="http://www.w3.org/2000/svg" width="24" height="24" fill="none"><path d="M10.66 4.757 6.34 7.998l-2.67.001L1 8v9l2.67.001 2.67.001 4.32 3.241 4.32 3.242.01-5.506c.006-3.028.006-7.971 0-10.985l-.01-5.479-4.32 3.242m3.33 12.222-.01 4.506-3.657-2.743L6.667 16H2V9h4.667l3.656-2.742 3.657-2.743.01 4.479c.006 2.464.006 6.507 0 8.985m5.532-11.121-.336.338.437.452a8.373 8.373 0 0 1 2.34 4.923c.062.528.028 1.938-.059 2.409-.324 1.765-1.063 3.207-2.315 4.523l-.384.403.35.349.351.349.418-.433c.712-.736 1.172-1.369 1.616-2.221a9.457 9.457 0 0 0 .564-7.493c-.478-1.372-1.078-2.346-2.171-3.527-.209-.225-.401-.41-.427-.41-.026 0-.199.152-.384.338m-2.873 2.673c-.181.182-.329.347-.329.366 0 .019.158.199.351.399.975 1.011 1.435 2.285 1.294 3.583-.116 1.077-.524 1.917-1.365 2.814l-.293.313.346.346.346.347.283-.28c.549-.543 1.016-1.216 1.276-1.841.726-1.742.545-3.592-.504-5.169-.21-.315-.947-1.167-1.035-1.196-.022-.007-.189.136-.37.318" fill-rule="evenodd" fill="#000"/></svg>