<svg xmlns="http://www.w3.org/2000/svg" width="25" height="24" viewBox="0 0 25 24"><path fill="currentColor" fill-rule="evenodd" d="M15 1.5v22l-.8-.6L6.333 17H1V8h5.333L14.2 2.1l.8-.6Zm-1 2L6.8 8.9l-.133.1H2v7h4.667l.133.1 7.2 5.4v-18Zm4 4.693.354.353c2.195 2.196 2.195 5.612 0 7.808l-.354.353-.707-.707.353-.354c1.805-1.804 1.805-4.588 0-6.392l-.353-.354.707-.707Zm3.253-2.347-.353-.353-.707.707.353.353c3.305 3.305 3.305 8.689 0 11.993l-.353.354.707.707.354-.354c3.695-3.695 3.695-9.711 0-13.407Z" clip-rule="evenodd"/></svg>