<svg xmlns="http://www.w3.org/2000/svg" width="16" height="16" fill="none"><path d="M7.666.027a2.034 2.034 0 0 0-1.59 1.413c-.09.289-.09.831 0 1.12A2.058 2.058 0 0 0 7.44 3.924c.172.054.253.062.573.061.325-.002.4-.011.578-.07A2.064 2.064 0 0 0 9.924 2.56c.09-.289.09-.831 0-1.12A2.038 2.038 0 0 0 8.574.086c-.241-.07-.686-.099-.908-.059m.769 1.078c.181.092.383.297.473.482.057.115.065.17.065.413 0 .256-.006.293-.077.432-.153.302-.436.51-.75.553a.998.998 0 0 1-1.042-.553c-.071-.139-.077-.176-.077-.432 0-.244.008-.297.065-.413.116-.235.343-.443.585-.536.064-.024.183-.035.351-.03.22.006.275.018.407.084M6.107 5.052a1.552 1.552 0 0 0-1.048 1.014C5.002 6.247 5 6.29 5 7.413c0 .638.009 1.193.02 1.233a.707.707 0 0 0 .243.293c.169.09.436.061.567-.062.159-.148.156-.122.17-1.386l.013-1.162.074-.096a.884.884 0 0 1 .16-.158l.086-.062h3.338l.096.074c.053.04.124.112.158.16l.062.086.013 1.16c.014 1.261.011 1.236.17 1.384.131.123.398.152.567.062a.707.707 0 0 0 .243-.293c.011-.04.02-.589.02-1.219 0-1.02-.005-1.166-.048-1.32A1.548 1.548 0 0 0 9.89 5.052c-.198-.052-3.597-.053-3.783 0M3.293 10.05a.65.65 0 0 0-.17.119c-.063.068-.143.309-.124.372l.026.105c.02.092.157.25.266.307.057.03.176.047.396.055L4 11.02v2.288c0 1.549.009 2.313.028 2.364a.66.66 0 0 0 .284.291c.128.055 7.248.055 7.376 0a.66.66 0 0 0 .284-.291c.019-.051.028-.815.028-2.364V11.02l.313-.012c.22-.008.339-.025.396-.055.109-.057.246-.215.266-.307a2.71 2.71 0 0 1 .026-.105c.019-.063-.061-.304-.124-.372a.65.65 0 0 0-.17-.119c-.103-.047-.291-.049-4.707-.049-4.416 0-4.604.002-4.707.049m7.694 2.963v2H5.013v-4h5.974v2" fill-rule="evenodd" fill="#000"/></svg>