<svg xmlns="http://www.w3.org/2000/svg" width="24" height="24" fill="none"><path d="m12.1 1.022-.3.062c-.478.095-1.13.478-1.501.881-.535.58-.786 1.232-.786 2.035 0 .676.167 1.209.541 1.734a2.996 2.996 0 0 0 4.892 0c.219-.307.397-.695.478-1.045.082-.349.082-1.029 0-1.378-.243-1.043-1.102-1.926-2.153-2.216-.21-.058-1.019-.108-1.171-.073m.785 1.018c.488.091 1.038.469 1.315.906.378.596.377 1.513-.002 2.111-.676 1.065-2.164 1.26-3.058.402-.431-.415-.62-.859-.62-1.459 0-.792.398-1.437 1.098-1.783a1.923 1.923 0 0 1 1.267-.177M9.96 9.062a2.893 2.893 0 0 0-1.125.574c-.293.262-.57.672-.706 1.045l-.109.299-.012 2.01L7.996 15h-1.3c-1.436 0-1.467.005-1.618.252a.451.451 0 0 0 0 .496c.142.232.229.252 1.12.252H7v3.81c0 3.708.002 3.813.078 3.938.165.27-.214.252 5.422.252s5.257.018 5.422-.252c.076-.125.078-.23.078-3.938V16h.802c.891 0 .978-.02 1.12-.252a.488.488 0 0 0-.198-.686c-.101-.052-.325-.062-1.42-.062h-1.3l-.012-2.01-.012-2.01-.111-.3a2.537 2.537 0 0 0-1.249-1.403c-.548-.271-.601-.276-3.14-.273-1.776.002-2.316.014-2.52.058m5.144 1.071c.309.143.617.452.764.767l.112.24.012 1.93.012 1.93H8.996l.012-1.93.012-1.93.112-.24c.198-.424.622-.774 1.042-.859.091-.019 1.183-.031 2.426-.028l2.26.007.244.113M17 19.5V23H8v-7h9v3.5" fill-rule="evenodd" fill="#000"/></svg>