<svg xmlns="http://www.w3.org/2000/svg" width="16" height="16" fill="currentColor" viewBox="0 0 16 16">
  <path fill-rule="evenodd" d="M3.5.5c.167 0 .328.021.48.081a.998.998 0 0 1 .374.258c.088.095.154.2.203.278.054.087.095.157.151.237.19.272.59.718 1.95 1.171.537.18.913.599 1.194 1.064.281.466.504 1.042.709 1.63.422 1.22.776 2.511 1.384 3.524.692 1.153 1.863 2.103 2.898 2.776a15.126 15.126 0 0 0 1.822 1.007l.026.012.006.002.001.001a.533.533 0 0 1 .026.012l.003.002.007.004.022.01a3.193 3.193 0 0 1 .3.182c.161.11.409.3.561.552a.93.93 0 0 1 .144.527.877.877 0 0 1-.265.575c-.274.279-.747.458-1.38.585-.386.078-.89.071-1.446.012-.566-.06-1.223-.18-1.93-.352a25.285 25.285 0 0 1-4.625-1.634c-1.562-.732-3.07-1.65-4.197-2.725C.796 9.221 0 7.943 0 6.5c0-.58.192-1.035.349-1.356.037-.411.132-.996.316-1.547.1-.3.231-.606.403-.872.171-.264.4-.519.708-.672.312-.156.381-.353.51-.676.06-.15.157-.392.359-.58C2.87.589 3.16.5 3.5.5Zm2.167 2.91a1.192 1.192 0 0 0-.476.22c-.155.113-.29.247-.441.396-.128.126-.316.316-.526.421a1.24 1.24 0 0 1-.381.105 6.448 6.448 0 0 1-.374.035c-.267.02-.557.04-.852.094-.598.108-1.088.332-1.333.824-.15.3-.284.607-.284.995 0 .701.258 1.392.73 2.063l1.916-1.917.708.708-1.981 1.979c.076.078.153.157.234.234.187.178.389.349.599.519l1.44-1.44.708.708-1.337 1.336c.31.211.636.415.974.61l.655-.654.708.707-.447.446c.209.106.419.21.632.31a24.281 24.281 0 0 0 4.436 1.569c.675.164 1.288.275 1.8.33.522.056.907.05 1.143.002.451-.091.682-.19.791-.254a1.385 1.385 0 0 0-.218-.179 2.299 2.299 0 0 0-.203-.124c-.002 0-.003-.002-.005-.003l-.027-.011-.12-.055a16.13 16.13 0 0 1-1.837-1.027c-1.082-.703-2.403-1.753-3.211-3.1-.678-1.13-1.083-2.589-1.472-3.71-.201-.58-.397-1.071-.62-1.442-.225-.371-.441-.56-.654-.63-.288-.096-.505-.1-.675-.066ZM3.5 1.5c-.084 0-.13.01-.15.018a.066.066 0 0 0-.026.012c-.017.016-.045.055-.11.218-.121.302-.302.855-.99 1.2-.093.045-.202.144-.316.32a2.912 2.912 0 0 0-.295.646l-.009.025c.283-.121.571-.195.834-.243.357-.064.702-.087.957-.106a5.53 5.53 0 0 0 .313-.03c.04-.005.064-.01.075-.013.04-.023.113-.082.265-.233.138-.136.327-.326.554-.492l.131-.09a3.037 3.037 0 0 1-.843-.804c-.077-.11-.14-.216-.183-.284a.892.892 0 0 0-.094-.133A.407.407 0 0 0 3.5 1.5Z" clip-rule="evenodd"/>
</svg>
