<svg xmlns="http://www.w3.org/2000/svg" width="24" height="24" fill="none"><path d="M2.38 2.576c-.452.112-.95.421-1.279.793-.209.237-.465.739-.547 1.071-.08.326-.08 14.794 0 15.12.175.713.701 1.372 1.334 1.674.604.287-.198.266 10.112.266 7.714 0 9.378-.009 9.56-.054.713-.175 1.372-.701 1.674-1.334.285-.6.266-.007.266-8.112 0-6.033-.01-7.379-.054-7.56a2.643 2.643 0 0 0-1.629-1.81l-.237-.09-9.5-.007c-7.445-.005-9.543.004-9.7.043m10.1 9.444v8.5l-4.71-.001c-2.591 0-4.822-.017-4.96-.037a1.511 1.511 0 0 1-1.154-.834l-.116-.228V4.58l.098-.2c.174-.353.521-.67.878-.801.117-.043 1.075-.054 5.054-.056l4.91-.003v8.5m9.14-8.382c.278.136.584.438.723.711l.117.231v14.84l-.116.228a1.511 1.511 0 0 1-1.154.834c-.138.02-1.919.037-3.96.037l-3.71.001V3.518l3.95.011 3.95.011.2.098m-4.936 3.985a.494.494 0 0 0 .193.857c.079.022.584.04 1.123.04s1.044-.018 1.123-.04c.39-.108.5-.599.193-.857l-.122-.103h-2.388l-.122.103m0 4a.494.494 0 0 0 .193.857c.186.052 2.06.052 2.246 0 .39-.108.5-.599.193-.857l-.122-.103h-2.388l-.122.103m0 4a.494.494 0 0 0 .193.857c.186.052 2.06.052 2.246 0 .39-.108.5-.599.193-.857l-.122-.103h-2.388l-.122.103" fill-rule="evenodd" fill="#000"/></svg>