<svg xmlns="http://www.w3.org/2000/svg" width="16" height="16" fill="none"><path d="M7.773.427a.506.506 0 0 0-.167.143c-.034.049-.553 1.084-1.153 2.3-.601 1.215-1.107 2.219-1.126 2.23-.018.011-1.12.176-2.447.367-1.327.19-2.459.359-2.515.375A.518.518 0 0 0 0 6.326c0 .198.032.233 1.896 2.049.996.97 1.811 1.772 1.811 1.781 0 .01-.192 1.138-.427 2.507-.474 2.764-.458 2.603-.277 2.804a.56.56 0 0 0 .189.135c.222.073.205.08 2.56-1.158C6.97 13.804 7.981 13.28 8 13.28c.019 0 1.03.524 2.248 1.164 2.355 1.238 2.338 1.231 2.56 1.158a.56.56 0 0 0 .189-.135c.181-.201.197-.04-.277-2.804a516.881 516.881 0 0 1-.427-2.507c0-.009.815-.811 1.811-1.781 1.884-1.835 1.897-1.85 1.895-2.062a.532.532 0 0 0-.367-.472c-.054-.015-1.185-.184-2.512-.374a106.153 106.153 0 0 1-2.447-.367c-.019-.011-.525-1.016-1.126-2.233C8.946 1.649 8.416.607 8.37.55a.48.48 0 0 0-.597-.123" fill="currentColor" fill-rule="evenodd"/></svg>