<svg xmlns="http://www.w3.org/2000/svg" width="16" height="16" fill="none"><path d="M7.773.427a.506.506 0 0 0-.167.143c-.034.049-.553 1.084-1.153 2.3-.601 1.215-1.107 2.219-1.126 2.23-.018.011-1.12.176-2.447.367-1.327.19-2.459.359-2.515.375A.518.518 0 0 0 0 6.326c0 .198.032.233 1.896 2.049.996.97 1.811 1.772 1.811 1.781 0 .01-.192 1.138-.427 2.507-.474 2.764-.458 2.603-.277 2.804a.56.56 0 0 0 .189.135c.222.073.205.08 2.56-1.158C6.97 13.804 7.981 13.28 8 13.28c.019 0 1.03.524 2.248 1.164 2.355 1.238 2.338 1.231 2.56 1.158a.56.56 0 0 0 .189-.135c.181-.201.197-.04-.277-2.804a516.881 516.881 0 0 1-.427-2.507c0-.009.815-.811 1.811-1.781 1.884-1.835 1.897-1.85 1.895-2.062a.532.532 0 0 0-.367-.472c-.054-.015-1.185-.184-2.512-.374a106.153 106.153 0 0 1-2.447-.367c-.019-.011-.525-1.016-1.126-2.233C8.946 1.649 8.416.607 8.37.55a.48.48 0 0 0-.597-.123m1.175 3.496C9.53 5.108 9.91 5.85 9.959 5.9a.606.606 0 0 0 .168.118c.049.02.997.168 2.107.329 1.111.161 2.054.301 2.096.313.075.02.034.062-1.463 1.525-.966.943-1.554 1.538-1.577 1.592a.593.593 0 0 0-.036.189 82.8 82.8 0 0 0 .357 2.167c.196 1.137.353 2.07.35 2.073-.003.004-.85-.438-1.883-.981-1.033-.543-1.923-.998-1.978-1.01a.518.518 0 0 0-.2 0c-.055.012-.945.467-1.978 1.01-1.033.543-1.881.985-1.884.981-.003-.003.155-.936.35-2.073.196-1.136.356-2.114.356-2.173a.535.535 0 0 0-.045-.199c-.026-.051-.718-.748-1.576-1.586C1.634 6.72 1.595 6.68 1.67 6.66c.042-.012.985-.152 2.096-.313 1.11-.161 2.058-.309 2.107-.329a.606.606 0 0 0 .168-.118c.049-.05.428-.791 1.011-1.977.513-1.043.939-1.896.948-1.896.008 0 .435.853.948 1.896" fill-rule="evenodd" fill="#000"/></svg>