<svg xmlns="http://www.w3.org/2000/svg" width="24" height="24" fill="none"><path d="M11.72 2.09c-.112.077-.351.538-1.638 3.148L8.576 8.297l-3.358.489c-1.847.269-3.37.491-3.385.492-.079.006-.276.226-.309.345-.081.295-.118.254 2.476 2.779 1.457 1.418 2.44 2.405 2.44 2.448 0 .04-.254 1.551-.563 3.357-.368 2.143-.555 3.33-.539 3.416a.51.51 0 0 0 .165.254c.27.238.144.291 3.449-1.446 1.642-.862 3.013-1.568 3.048-1.568.035 0 1.406.706 3.048 1.568 3.305 1.737 3.179 1.684 3.449 1.446a.51.51 0 0 0 .165-.254c.016-.086-.171-1.273-.539-3.416a257.696 257.696 0 0 1-.563-3.357c0-.044.971-1.018 2.44-2.448 2.594-2.525 2.557-2.484 2.476-2.779-.033-.119-.23-.339-.309-.345-.015-.001-1.538-.223-3.385-.492l-3.358-.49-1.507-3.058C12.281 1.916 12.331 2 12 2a.552.552 0 0 0-.28.09" fill="currentColor" fill-rule="evenodd"/></svg>