<svg xmlns="http://www.w3.org/2000/svg" width="24" height="24" fill="none"><path d="M12.3 2.534a.567.567 0 0 0-.169.113c-.027.032-.723 1.423-1.548 3.09a365.715 365.715 0 0 1-1.514 3.047c-.008.008-1.506.232-3.328.496a347.03 347.03 0 0 0-3.403.504c-.237.059-.399.412-.3.652.027.065 1.131 1.17 2.485 2.489 1.341 1.304 2.436 2.381 2.436 2.393-.001.012-.26 1.523-.575 3.359-.452 2.628-.566 3.364-.538 3.467.063.228.356.415.564.361.072-.018 3.025-1.558 5.61-2.924l.48-.253 2.96 1.557c1.628.856 3.026 1.577 3.106 1.601.28.085.607-.171.603-.473-.001-.084-.255-1.627-.565-3.429l-.564-3.281c0-.004 1.096-1.074 2.437-2.378 1.351-1.315 2.458-2.424 2.485-2.489.099-.24-.063-.593-.3-.652a347.03 347.03 0 0 0-3.403-.504 201.16 201.16 0 0 1-3.329-.497 379.11 379.11 0 0 1-1.524-3.066C13.37 3.621 12.868 2.645 12.8 2.596a.551.551 0 0 0-.5-.062m.896 2.996c1.971 4.008 1.994 4.054 2.108 4.129.086.056.805.174 3.09.506 1.638.239 2.984.44 2.991.447.014.014-.196.222-2.734 2.702-1.311 1.281-1.613 1.597-1.633 1.703-.016.084.154 1.174.481 3.081.278 1.623.499 2.957.492 2.965-.008.007-1.211-.615-2.673-1.384-2.204-1.158-2.685-1.397-2.818-1.397s-.607.235-2.818 1.397c-1.462.769-2.665 1.391-2.673 1.383-.009-.008.213-1.342.491-2.964.337-1.958.498-2.994.482-3.083-.021-.112-.387-.488-2.204-2.261-1.198-1.17-2.172-2.134-2.164-2.141a196.81 196.81 0 0 1 2.992-.448c2.288-.332 3.004-.45 3.09-.506.115-.075.101-.048 2.088-4.089.381-.775.703-1.41.716-1.41.012 0 .326.616.696 1.37" fill-rule="evenodd" fill="#000"/></svg>