<svg xmlns="http://www.w3.org/2000/svg" width="12" height="12" fill="none"><path d="M5.789.318a.545.545 0 0 0-.156.124c-.049.058-.35.645-.865 1.688-.435.88-.797 1.607-.805 1.615-.008.008-.82.132-1.804.275-1.122.163-1.817.272-1.865.293A.516.516 0 0 0 0 4.779c.001.201-.005.194 1.397 1.559.907.883 1.303 1.281 1.303 1.31 0 .023-.136.83-.301 1.792-.216 1.254-.299 1.777-.291 1.844a.494.494 0 0 0 .602.43c.055-.014.813-.401 1.685-.86A88.594 88.594 0 0 1 6 10.02c.01 0 .732.375 1.605.834.872.459 1.63.846 1.685.86a.504.504 0 0 0 .346-.042c.134-.07.263-.273.264-.414 0-.04-.135-.859-.3-1.82-.165-.961-.3-1.767-.3-1.79 0-.029.394-.426 1.302-1.31.818-.796 1.317-1.297 1.342-1.346a.497.497 0 0 0-.212-.662c-.091-.047-.293-.08-1.891-.311a65.914 65.914 0 0 1-1.804-.274c-.008-.008-.371-.735-.805-1.615-.486-.983-.818-1.632-.861-1.683a.573.573 0 0 0-.157-.125.588.588 0 0 0-.425-.004" fill="currentColor" fill-rule="evenodd"/></svg>