<svg width="89" height="36" viewBox="0 0 89 36" fill="none" xmlns="http://www.w3.org/2000/svg">
<rect x="0.5" y="0.5" width="88" height="35" rx="17.5" fill="white"/>
<path d="M19.808 22.168C18.492 22.168 17.386 21.65 16.588 20.796L17.246 20.04C17.904 20.726 18.842 21.146 19.822 21.146C21.026 21.146 21.74 20.544 21.74 19.648C21.74 18.71 21.082 18.416 20.214 18.024L18.898 17.45C18.016 17.072 17.036 16.414 17.036 15.084C17.036 13.684 18.24 12.648 19.92 12.648C21.04 12.648 21.992 13.11 22.636 13.754L22.006 14.51C21.432 14.006 20.732 13.67 19.92 13.67C18.898 13.67 18.212 14.188 18.212 15.014C18.212 15.896 19.01 16.232 19.738 16.54L21.04 17.1C22.132 17.562 22.93 18.192 22.93 19.55C22.93 21.006 21.754 22.168 19.808 22.168ZM26.4267 22.126C24.9707 22.126 24.4807 21.216 24.4807 19.858V16.134H23.4727V15.266L24.5367 15.196L24.6767 13.012H25.6427V15.196H27.4767V16.134H25.6427V19.886C25.6427 20.712 25.9087 21.188 26.6927 21.188C26.9307 21.188 27.1967 21.146 27.4627 21.02L27.7007 21.832C27.3367 22.014 26.8887 22.126 26.4267 22.126ZM30.2824 22.168C29.1484 22.168 28.2804 21.468 28.2804 20.236C28.2804 18.71 29.5684 17.996 32.4804 17.674C32.4664 16.82 32.1724 15.994 31.0664 15.994C30.2824 15.994 29.5684 16.358 29.0364 16.694L28.5884 15.91C29.2184 15.49 30.1704 15.028 31.2624 15.028C32.9144 15.028 33.6284 16.134 33.6284 17.828V22H32.6764L32.5784 21.188H32.5364C31.8644 21.734 31.1364 22.168 30.2824 22.168ZM30.6044 21.216C31.2624 21.216 31.8224 20.922 32.4804 20.334V18.5C30.1844 18.766 29.4144 19.284 29.4144 20.166C29.4144 20.922 29.9464 21.216 30.6044 21.216ZM37.7197 22.126C36.2637 22.126 35.7737 21.216 35.7737 19.858V16.134H34.7657V15.266L35.8297 15.196L35.9697 13.012H36.9357V15.196H38.7697V16.134H36.9357V19.886C36.9357 20.712 37.2017 21.188 37.9857 21.188C38.2237 21.188 38.4897 21.146 38.7557 21.02L38.9937 21.832C38.6297 22.014 38.1817 22.126 37.7197 22.126ZM42.2962 22.168C40.8542 22.168 40.2102 21.244 40.2102 19.508V15.196H41.3722V19.354C41.3722 20.628 41.7502 21.174 42.6462 21.174C43.3462 21.174 43.8362 20.824 44.4802 20.026V15.196H45.6282V22H44.6762L44.5782 20.936H44.5362C43.9062 21.678 43.2342 22.168 42.2962 22.168ZM49.7014 22.168C48.7074 22.168 47.7974 21.804 47.1674 21.188L47.6994 20.516C48.2874 21.006 48.9034 21.272 49.7434 21.272C50.6394 21.272 51.0874 20.796 51.0874 20.208C51.0874 19.508 50.3174 19.214 49.5474 18.934C48.5254 18.57 47.5454 18.08 47.5454 16.96C47.5454 15.868 48.4134 15.028 49.8974 15.028C50.7374 15.028 51.4794 15.35 52.0114 15.798L51.4794 16.456C51.0034 16.12 50.5134 15.924 49.8974 15.924C49.0434 15.924 48.6514 16.386 48.6514 16.904C48.6514 17.52 49.2534 17.772 50.0934 18.066C51.1574 18.444 52.1934 18.906 52.1934 20.138C52.1934 21.244 51.3114 22.168 49.7014 22.168Z" fill="#1D1D1D"/>
<path d="M61.5 16L67 20L72.5 16" stroke="#1D1D1D" stroke-linecap="round" stroke-linejoin="round"/>
<rect x="0.5" y="0.5" width="88" height="35" rx="17.5" stroke="#BFBBBB"/>
</svg>
