<svg xmlns="http://www.w3.org/2000/svg" width="16" height="16" fill="none"><path d="M7.693.522c-.029.006-.119.025-.2.04-.08.015-.27.089-.42.162a2.088 2.088 0 0 0-1.141 2.243 2.115 2.115 0 0 0 1.631 1.686 2.25 2.25 0 0 0 1.237-.11 2.21 2.21 0 0 0 1.16-1.184c.14-.366.175-.735.107-1.125-.079-.455-.289-.833-.654-1.176A2.252 2.252 0 0 0 8.56.571C8.418.532 7.801.497 7.693.522m.627 1.031c.452.135.773.57.773 1.047 0 .663-.618 1.196-1.255 1.084A1.102 1.102 0 0 1 6.907 2.6c0-.73.712-1.258 1.413-1.047m-1.827 3.77-.2.039c-.08.015-.27.089-.42.162a2.149 2.149 0 0 0-1.021 1.087c-.149.368-.159.496-.159 2.165v1.516l.459.007.458.008.398 1.593.399 1.593h3.186l.399-1.593.398-1.593.458-.008.459-.007V8.776c0-1.669-.01-1.797-.159-2.165a2.185 2.185 0 0 0-.992-1.075c-.441-.222-.349-.212-2.076-.219a54.74 54.74 0 0 0-1.587.006m2.86.995c.321.047.593.222.769.497.165.257.171.311.171 1.457v1.035h-.686L9.208 10.9l-.398 1.593H7.19L6.792 10.9l-.399-1.593h-.686V8.272c0-1.146.006-1.2.171-1.457.17-.265.452-.452.745-.495.197-.029 2.532-.03 2.73-.002M4.2 11.157c-.528.224-.905.463-1.197.757-.326.329-.466.614-.489.993-.028.462.105.783.484 1.163.405.407.904.689 1.674.946a9.71 9.71 0 0 0 2.061.429c.433.047 2.105.047 2.534 0 1.364-.15 2.515-.496 3.259-.98.299-.194.687-.582.801-.801a1.397 1.397 0 0 0-.001-1.327c-.176-.33-.674-.769-1.139-1.004a11.04 11.04 0 0 0-.68-.293c-.012 0-.34.936-.33.943.005.005.107.047.225.094.354.14.647.32.855.523.301.295.314.467.057.748-.173.189-.383.332-.725.493-1.888.885-5.29.885-7.178 0-.342-.161-.552-.304-.726-.494-.257-.281-.244-.454.058-.747.21-.203.505-.384.855-.523.118-.047.22-.089.225-.094.016-.011-.321-.943-.34-.941a5.887 5.887 0 0 0-.283.115" fill-rule="evenodd" fill="#000"/></svg>