<svg xmlns="http://www.w3.org/2000/svg" width="24" height="24" fill="none"><path d="M11.62 1.025c-.901.14-1.721.816-2.02 1.664-.329.939-.106 1.921.6 2.635.509.515 1.083.756 1.8.756.717 0 1.291-.241 1.8-.756.519-.524.737-1.062.732-1.804-.002-.34-.023-.482-.109-.749a2.619 2.619 0 0 0-1.662-1.654c-.257-.08-.89-.131-1.141-.092m.708 1.02c.448.095.832.398 1.058.835.105.203.114.254.114.66 0 .397-.011.461-.108.66A1.534 1.534 0 0 1 12 5.079c-.45 0-.795-.15-1.119-.488-.428-.444-.537-1.185-.256-1.73a1.53 1.53 0 0 1 1.703-.816M8.964 7.623c-.715.193-1.349.869-1.505 1.607-.046.217-.058.741-.058 2.66L7.4 14.28h.86c.473 0 .86.014.86.032 0 .017.18 1.29.4 2.828.22 1.538.4 2.811.4 2.828 0 .018.936.032 2.08.032 1.144 0 2.08-.014 2.08-.032 0-.017.18-1.29.4-2.828.22-1.538.4-2.811.4-2.828 0-.018.387-.032.86-.032h.86l-.001-2.39c0-2.631-.006-2.709-.241-3.175-.154-.305-.604-.766-.901-.924-.436-.232-.421-.231-3.475-.228-2.317.002-2.839.012-3.018.06M14.8 8.6c.241.068.526.318.659.578l.121.236.012 1.933.012 1.933h-1.585l-.394 2.75a512.673 512.673 0 0 1-.415 2.86l-.02.11h-2.38l-.021-.11c-.011-.061-.196-1.347-.412-2.86l-.391-2.75h-1.59l.012-1.933.012-1.933.121-.236c.128-.25.414-.508.639-.575.168-.05 5.443-.053 5.62-.003m-8.434 8.117c-1.553.67-2.362 1.534-2.365 2.523-.002.885.734 1.745 2.019 2.359 1.194.57 2.724.942 4.448 1.081.684.055 2.39.054 3.064-.001 1.756-.145 3.249-.508 4.448-1.08 1.285-.614 2.019-1.472 2.019-2.359 0-.525-.21-.972-.679-1.441-.474-.475-.978-.793-1.77-1.115l-.383-.156-.164.462a5.27 5.27 0 0 0-.154.472c.006.006.177.082.381.17.995.428 1.6.924 1.734 1.422.256.951-1.563 2.027-4.164 2.464-1.656.278-3.944.278-5.6 0-1.587-.266-2.914-.771-3.673-1.396-.222-.183-.472-.557-.506-.757-.098-.582.536-1.211 1.749-1.733.204-.088.375-.164.381-.17a12.6 12.6 0 0 0-.325-.929 5.347 5.347 0 0 0-.46.184" fill-rule="evenodd" fill="#000"/></svg>