<svg xmlns="http://www.w3.org/2000/svg" width="16" height="16" fill="none" viewBox="0 0 16 16">
  <path fill="#1D1D1D" fill-rule="evenodd" d="M8 1.5a1.1 1.1 0 1 0 0 2.2 1.1 1.1 0 0 0 0-2.2ZM5.9 2.6a2.1 2.1 0 1 1 4.2 0 2.1 2.1 0 0 1-4.2 0Zm.9 3.7a1.1 1.1 0 0 0-1.1 1.1v1.9h.69l.8 3.2h1.62l.8-3.2h.69V7.4a1.1 1.1 0 0 0-1.1-1.1H6.8Zm-1.485-.385A2.1 2.1 0 0 1 6.8 5.3h2.4a2.1 2.1 0 0 1 2.1 2.1v2.9h-.91l-.8 3.2H6.41l-.8-3.2H4.7V7.4a2.1 2.1 0 0 1 .615-1.485Zm-1.536 6.631c-.226.198-.279.353-.279.454 0 .094.046.235.236.415.192.182.497.368.914.535.832.333 2.017.55 3.35.55 1.333 0 2.518-.217 3.35-.55.417-.167.722-.353.914-.535.19-.18.236-.32.236-.415 0-.1-.053-.256-.28-.454-.225-.197-.579-.395-1.055-.566l.337-.941c.546.195 1.025.446 1.378.755.351.307.62.714.62 1.206 0 .458-.234.844-.55 1.142-.314.297-.741.542-1.229.737-.977.39-2.293.621-3.721.621s-2.744-.23-3.721-.621c-.487-.195-.915-.44-1.23-.737-.315-.298-.549-.684-.549-1.142 0-.492.269-.899.62-1.206.353-.309.832-.56 1.378-.755l.337.941c-.477.17-.83.369-1.056.566Z" clip-rule="evenodd"/>
</svg>
