<svg xmlns="http://www.w3.org/2000/svg" width="16" height="16" fill="none" viewBox="0 0 16 16">
  <path fill="#1D1D1D" fill-rule="evenodd" d="M0 2h.5A2.5 2.5 0 0 1 3 4.5V7H2V4.5A1.5 1.5 0 0 0 .5 3H0V2Z" clip-rule="evenodd"/>
  <path fill="#1D1D1D" fill-rule="evenodd" d="M2 6.5a.5.5 0 0 1 .5-.5h13a.5.5 0 0 1 .5.5v1a3.5 3.5 0 0 1-3.5 3.5h-7A3.5 3.5 0 0 1 2 7.5v-1ZM12.5 10A2.5 2.5 0 0 0 15 7.5V7H3v.5A2.5 2.5 0 0 0 5.5 10h7ZM6 13a1 1 0 1 0 0 2 1 1 0 0 0 0-2Zm-2 1a2 2 0 1 1 4 0 2 2 0 0 1-4 0ZM12 13a1 1 0 1 0 0 2 1 1 0 0 0 0-2Zm-2 1a2 2 0 1 1 4 0 2 2 0 0 1-4 0Z" clip-rule="evenodd"/>
  <path fill="#1D1D1D" fill-rule="evenodd" d="M9 0h.5A6.5 6.5 0 0 1 16 6.5a.5.5 0 0 1-1 0 5.5 5.5 0 0 0-5-5.477V6.5a.5.5 0 0 1-1 0V0Z" clip-rule="evenodd"/>
</svg>
