<svg xmlns="http://www.w3.org/2000/svg" width="24" height="24" fill="none"><path d="M15.252 1.075c-.267.169-.252-.074-.252 4.123V9H4.004l-.012-2.01-.012-2.01-.111-.3a2.8 2.8 0 0 0-.704-1.044c-.403-.36-1.094-.634-1.605-.635-.43-.001-.691.403-.482.747.103.169.245.236.568.27.525.055.994.393 1.222.882l.112.24.021 4.02.021 4.02.105.383c.465 1.696 1.608 2.841 3.31 3.311l.383.106h13.36l.383-.106c1.702-.471 2.849-1.618 3.309-3.311l.105-.383.014-2.02c.016-2.178-.006-2.6-.177-3.419a8.353 8.353 0 0 0-2.313-4.242c-1.526-1.527-3.452-2.377-5.616-2.481-.463-.022-.516-.017-.633.057m1.776 1.087c1.944.4 3.686 1.604 4.789 3.31.592.915 1.044 2.199 1.128 3.208l.027.32H16V2.028l.32.027c.176.015.495.063.708.107m5.962 9.368c-.014 1.405-.022 1.555-.099 1.834-.343 1.234-1.203 2.118-2.439 2.506l-.352.11H6.9l-.352-.11c-1.232-.387-2.098-1.272-2.435-2.49-.082-.299-.089-.422-.103-1.85L3.994 10h19.012l-.016 1.53M7.96 19.062a2.885 2.885 0 0 0-1.128.577c-.3.268-.593.713-.714 1.083-.084.254-.098.372-.096.798.002.439.016.536.111.8a2.585 2.585 0 0 0 1.547 1.547c.269.098.354.109.82.109.465 0 .552-.011.82-.108a2.589 2.589 0 0 0 1.547-1.548c.098-.269.109-.354.109-.82 0-.465-.011-.552-.108-.82a2.535 2.535 0 0 0-2.908-1.618m10 0a2.885 2.885 0 0 0-1.128.577c-.3.268-.593.713-.714 1.083-.084.254-.098.372-.096.798.002.439.016.536.111.8a2.585 2.585 0 0 0 1.547 1.547c.269.098.354.109.82.109.465 0 .552-.011.82-.108a2.589 2.589 0 0 0 1.547-1.548c.098-.269.109-.354.109-.82 0-.465-.011-.552-.108-.82a2.535 2.535 0 0 0-2.908-1.618m-8.841 1.081c.298.136.608.449.746.753.095.209.111.296.111.604s-.016.395-.111.604c-.14.309-.448.616-.765.764-.207.097-.29.112-.6.112s-.393-.015-.6-.112a1.675 1.675 0 0 1-.765-.764c-.095-.208-.111-.296-.111-.604-.001-.309.015-.394.11-.6.193-.422.615-.771 1.04-.861.267-.057.696-.009.945.104m10 0c.298.136.608.449.746.753.095.209.111.296.111.604s-.016.395-.111.604c-.14.309-.448.616-.765.764-.207.097-.29.112-.6.112s-.393-.015-.6-.112a1.675 1.675 0 0 1-.765-.764c-.095-.208-.111-.296-.111-.604-.001-.309.015-.394.11-.6.193-.422.615-.771 1.04-.861.267-.057.696-.009.945.104" fill-rule="evenodd" fill="#000"/></svg>