<svg xmlns="http://www.w3.org/2000/svg" width="16" height="16" fill="none"><path d="M9.292.048a.487.487 0 0 0-.276.353c-.02.092-.029.997-.029 2.867V6H3.013v-.713c0-.843-.03-1.209-.123-1.507C2.57 2.753 1.641 2.034.613 2.018c-.257-.004-.288.001-.376.061a.492.492 0 0 0-.199.6c.083.216.294.334.598.334.515 0 1.104.463 1.29 1.014.058.17.059.209.075 2.066.018 2.078.013 2.01.191 2.534a3.493 3.493 0 0 0 1.895 2.07c.262.115.6.215.9.268.159.028.976.035 4.013.035 4.08 0 3.948.004 4.443-.135 1.261-.352 2.19-1.351 2.492-2.678.061-.265.086-1.736.039-2.263A6.502 6.502 0 0 0 9.773.012c-.332-.013-.385-.009-.481.036m1.573 1.127c1.676.418 3.093 1.665 3.743 3.297.189.475.352 1.14.352 1.441V6H10V1.022l.273.037c.151.02.417.072.592.116m4.115 6.312c-.011.415-.021.502-.084.713a2.858 2.858 0 0 1-.429.839c-.365.475-.977.833-1.591.933-.233.038-7.519.038-7.752 0A2.526 2.526 0 0 1 3.104 8.2c-.063-.211-.073-.298-.084-.713l-.013-.474h11.986l-.013.474m-9.314 4.54a2.034 2.034 0 0 0-1.59 1.413c-.09.289-.09.831 0 1.12a2.06 2.06 0 0 0 1.364 1.364c.168.052.258.062.56.062.302 0 .392-.01.56-.062a2.06 2.06 0 0 0 1.364-1.364c.09-.289.09-.831 0-1.12a2.038 2.038 0 0 0-1.35-1.354c-.241-.07-.686-.099-.908-.059m6 0a2.034 2.034 0 0 0-1.59 1.413c-.09.289-.09.831 0 1.12a2.06 2.06 0 0 0 1.364 1.364c.168.052.258.062.56.062.302 0 .392-.01.56-.062a2.06 2.06 0 0 0 1.364-1.364c.09-.289.09-.831 0-1.12a2.038 2.038 0 0 0-1.35-1.354c-.241-.07-.686-.099-.908-.059m-5.231 1.078c.181.092.383.297.473.482.057.115.065.17.065.413 0 .256-.006.293-.077.432-.153.302-.436.51-.75.553a.998.998 0 0 1-1.042-.553c-.071-.139-.077-.176-.077-.432 0-.244.008-.297.065-.413.116-.235.343-.443.585-.536.064-.024.183-.035.351-.03.22.006.275.018.407.084m6 0c.181.092.383.297.473.482.057.115.065.17.065.413 0 .256-.006.293-.077.432-.153.302-.436.51-.75.553a.998.998 0 0 1-1.042-.553c-.071-.139-.077-.176-.077-.432 0-.244.008-.297.065-.413.116-.235.343-.443.585-.536.064-.024.183-.035.351-.03.22.006.275.018.407.084" fill-rule="evenodd" fill="#000"/></svg>