<svg xmlns="http://www.w3.org/2000/svg" width="16" height="16" fill="currentColor">
  <path d="M10.247 7.47v-.518c1.694-1.526 2.59-2.38 2.59-3.206 0-.714-.406-1.148-1.05-1.148-.462 0-.868.35-1.176.798l-.532-.49c.42-.63 1.078-1.064 1.82-1.064 1.092 0 1.82.616 1.82 1.764 0 1.05-.868 1.904-2.03 3.094h2.31v.77h-3.752ZM2.55 13l2.675-4.746-2.492-4.438H4.02l1.246 2.352c.238.42.434.798.714 1.33h.056c.252-.532.434-.91.658-1.33l1.218-2.352h1.232L6.639 8.31 9.313 13H8.025L6.68 10.522c-.238-.448-.49-.91-.784-1.47H5.84c-.266.56-.504 1.022-.728 1.47L3.783 13H2.55Z"/>
</svg>
