<svg xmlns="http://www.w3.org/2000/svg" width="45" height="37" viewBox="0 0 45 37" fill="none">
<path d="M27.5 9.5C27.5 5.634 30.634 2.5 34.5 2.5C38.366 2.5 41.5 5.634 41.5 9.5C41.5 13.366 38.366 18.5 34.5 18.5C30.634 18.5 27.5 13.366 27.5 9.5Z" stroke="#0A8276" stroke-linecap="round" stroke-linejoin="round"/>
<path d="M24.916 25.992C25.274 25.386 25.845 24.914 26.546 24.687C28.257 24.133 30.983 23.5 34.5 23.5C38.017 23.5 40.743 24.133 42.454 24.687C43.682 25.085 44.5 26.242 44.5 27.532V32.5H32.5" stroke="#0A8276" stroke-linecap="round" stroke-linejoin="round"/>
<path d="M5.5 8.5C5.5 4.082 9.082 0.5 13.5 0.5C17.918 0.5 21.5 4.082 21.5 8.5C21.5 12.918 17.918 18.5 13.5 18.5C9.082 18.5 5.5 12.918 5.5 8.5Z" stroke="#0A8276" stroke-linecap="round" stroke-linejoin="round"/>
<path d="M0.5 29.178C0.5 27.477 1.574 25.972 3.177 25.402C5.584 24.546 9.368 23.5 13.5 23.5C17.632 23.5 21.416 24.546 23.823 25.402C25.426 25.973 26.5 27.477 26.5 29.178V36.5H0.5V29.178Z" stroke="#0A8276" stroke-linecap="round" stroke-linejoin="round"/>
</svg>