<svg xmlns="http://www.w3.org/2000/svg" width="45" height="37" fill="none"><path d="M12.656.084C9.851.354 7.309 2.068 6.02 4.558c-.726 1.403-.959 2.393-.95 4.03.01 1.748.404 3.289 1.282 5.008 1.369 2.68 3.29 4.453 5.551 5.123.557.166.805.196 1.597.196 1.075 0 1.834-.18 2.797-.662 2.553-1.28 4.724-4.365 5.457-7.758.131-.603.171-1.04.176-1.907.01-1.636-.224-2.627-.95-4.03C19.903 2.477 17.894.886 15.608.302 15.145.184 13.497-.029 13.35.01c-.021.006-.333.039-.694.074m2.079 1.005c1.949.34 3.626 1.361 4.777 2.91 1.564 2.104 1.904 4.706.98 7.513C19.254 15.274 16.316 18 13.5 18c-3.09 0-6.228-3.219-7.289-7.477-.139-.558-.165-.871-.164-2.011 0-1.25.015-1.399.203-2.025.522-1.737 1.623-3.274 3-4.188 1.671-1.109 3.61-1.537 5.485-1.21M33.6 2.07c-1.745.322-2.704.747-3.923 1.739-1.045.85-2.011 2.353-2.375 3.695-.554 2.045-.182 4.523 1.024 6.821 1.143 2.178 2.835 3.786 4.604 4.375.923.307 2.217.307 3.14 0 3.385-1.127 6.217-5.928 5.848-9.918-.088-.955-.302-1.701-.743-2.594a7.473 7.473 0 0 0-4.913-3.948c-.58-.144-2.23-.25-2.662-.17m2.202 1.043c2.405.497 4.354 2.335 5.009 4.724.223.812.24 2.419.035 3.3-.674 2.906-2.443 5.427-4.494 6.406-1.299.62-2.405.62-3.704 0-1.992-.951-3.67-3.273-4.426-6.128-.164-.617-.194-.898-.201-1.852-.006-.961.018-1.213.164-1.726.685-2.397 2.589-4.209 4.964-4.72.657-.141 1.98-.143 2.653-.004M11.588 23.072c-2.383.193-4.78.665-7.225 1.424-1.405.436-1.895.645-2.457 1.045-.785.558-1.314 1.277-1.66 2.259l-.208.587v4.141c0 3.876.008 4.15.133 4.275.128.128.758.135 13.329.135 12.571 0 13.201-.007 13.329-.135.125-.125.133-.399.133-4.275v-4.141l-.208-.587a5.069 5.069 0 0 0-.954-1.651c-.236-.269-.24-.283-.111-.425.358-.396 1.258-.741 2.913-1.118 3.71-.844 8.086-.844 11.796 0 2 .455 2.665.762 3.136 1.447.469.681.491.839.491 3.546v2.426H32.259l-.117.167c-.156.222-.148.457.02.609.125.113.672.124 6.323.124 5.227 0 6.209-.017 6.332-.107.14-.102.145-.222.145-2.981 0-2.8-.004-2.888-.173-3.403a3.549 3.549 0 0 0-1.739-2.02c-.42-.213-1.679-.577-2.835-.819-4.231-.886-9.112-.736-13.06.4-.974.28-1.45.506-1.964.933l-.421.349-.516-.22c-1.68-.714-4.912-1.514-7.454-1.845-.902-.117-4.347-.21-5.212-.14m4.635 1.048c1.99.195 4.214.667 6.352 1.35.598.191 1.281.444 1.517.564.526.265 1.227.947 1.5 1.459.419.786.433.943.433 4.885V36H.975v-3.622c0-3.945.014-4.107.434-4.88.517-.953 1.24-1.461 2.791-1.959 4.29-1.38 7.981-1.815 12.023-1.419" fill-rule="evenodd" fill="#000"/></svg>