<svg xmlns="http://www.w3.org/2000/svg" width="24" height="24" fill="none"><path d="M7.3 2.046c-.125.067-4.178 4.12-4.243 4.242-.206.388.248.864.636.668.048-.024.812-.767 1.697-1.65L7 3.7v6.96c0 6.832.002 6.962.078 7.088.2.328.644.328.844 0 .076-.126.078-.256.078-7.088V3.7l1.61 1.606c.885.883 1.649 1.626 1.697 1.65.388.196.842-.28.636-.668-.07-.13-4.126-4.181-4.25-4.244a.48.48 0 0 0-.393.002m9.952 4.032c-.272.166-.252-.463-.252 7.77V21.3l-1.61-1.606c-.885-.883-1.649-1.626-1.697-1.65-.375-.189-.838.274-.649.649.063.124 4.114 4.18 4.244 4.25A.551.551 0 0 0 17.5 23a.551.551 0 0 0 .212-.057c.13-.07 4.181-4.126 4.244-4.25.189-.375-.274-.838-.649-.649-.048.024-.811.767-1.697 1.65L18 21.3v-7.46c0-7.328-.002-7.462-.078-7.588a.478.478 0 0 0-.67-.174" fill-rule="evenodd" fill="#000"/></svg>