<svg xmlns="http://www.w3.org/2000/svg" width="16" height="16" fill="none"><path d="M3.293.05C3.141.123.097 3.178.041 3.312a.505.505 0 0 0 0 .389c.029.068.511.569 1.554 1.613.831.833 1.556 1.545 1.61 1.583a.478.478 0 0 0 .425.078.445.445 0 0 0 .32-.268.508.508 0 0 0 .009-.408c-.028-.067-.397-.455-1.14-1.199L1.721 4l5.44-.001c5.231 0 5.443-.002 5.546-.049a.65.65 0 0 0 .17-.119c.063-.068.143-.309.124-.372a.49.49 0 0 0-.125-.273c-.165-.188.333-.173-5.688-.173-3 0-5.455-.009-5.455-.02 0-.011.492-.512 1.094-1.113C4.01.697 4.021.684 3.993.437c-.036-.319-.411-.527-.7-.387m8.987 9.005a.445.445 0 0 0-.23.238.509.509 0 0 0-.009.408c.028.067.397.455 1.14 1.199l1.098 1.1-5.44.001c-5.231 0-5.443.002-5.546.049a.65.65 0 0 0-.17.119c-.063.068-.143.309-.124.372l.026.105c.02.091.156.248.266.309.076.042.469.046 5.529.058l5.447.014-1.083 1.08c-.717.715-1.1 1.116-1.133 1.186a.467.467 0 0 0 .112.565.46.46 0 0 0 .544.091c.15-.071 3.195-3.124 3.252-3.261a.505.505 0 0 0 0-.389c-.048-.114-2.988-3.077-3.184-3.207a.388.388 0 0 0-.266-.079.632.632 0 0 0-.229.042" fill-rule="evenodd" fill="#000"/></svg>