<svg xmlns="http://www.w3.org/2000/svg" width="16" height="16" fill="none"><path d="M3.293.05C3.141.123.097 3.178.041 3.312a.47.47 0 0 0 .122.546.46.46 0 0 0 .544.091c.07-.033.471-.416 1.186-1.133l1.08-1.083.014 5.447c.012 5.06.016 5.453.058 5.529.061.11.218.246.309.266l.105.026c.063.019.304-.061.372-.124a.65.65 0 0 0 .119-.17c.047-.103.049-.315.049-5.546L4 1.721l1.1 1.098c.744.743 1.132 1.112 1.199 1.14.192.08.436.026.578-.128.126-.136.152-.395.057-.578C6.889 3.165 3.969.236 3.807.116A.492.492 0 0 0 3.293.05m8.987 3.005a.445.445 0 0 0-.23.238c-.047.103-.049.325-.049 5.547L12 14.279l-1.073-1.069a40.469 40.469 0 0 0-1.158-1.126.505.505 0 0 0-.444-.047.469.469 0 0 0-.3.332.477.477 0 0 0 .078.426c.038.054.75.779 1.583 1.61 1.044 1.043 1.545 1.525 1.613 1.554a.5.5 0 0 0 .408-.01c.15-.071 3.195-3.124 3.252-3.261a.497.497 0 0 0 .004-.377.583.583 0 0 0-.382-.3c-.259-.039-.242-.051-1.454 1.157l-1.113 1.111-.007-5.453c-.006-4.561-.013-5.464-.044-5.519a.726.726 0 0 0-.248-.256.638.638 0 0 0-.435.004" fill-rule="evenodd" fill="#000"/></svg>