<svg xmlns="http://www.w3.org/2000/svg" width="24" height="24" fill="none"><path d="M6.3 3.046c-.125.067-4.178 4.12-4.243 4.242a.438.438 0 0 0 0 .424c.07.13 4.126 4.181 4.25 4.244.375.189.838-.274.649-.649-.024-.048-.767-.812-1.65-1.697L3.7 8h7.452c8.233 0 7.604.02 7.77-.252a.478.478 0 0 0-.174-.67C18.622 7.002 18.488 7 11.16 7H3.7l1.606-1.61c.883-.885 1.626-1.649 1.65-1.697.19-.376-.288-.847-.656-.647m11.952 10.032c-.217.133-.311.41-.208.615.024.048.767.812 1.65 1.697L21.3 17h-6.952c-7.68 0-7.104-.02-7.27.252a.451.451 0 0 0 0 .496c.166.272-.41.252 7.27.252H21.3l-1.606 1.61c-.883.886-1.626 1.649-1.65 1.697-.189.375.274.838.649.649.124-.063 4.18-4.114 4.25-4.244A.551.551 0 0 0 23 17.5a.551.551 0 0 0-.057-.212c-.07-.13-4.126-4.181-4.25-4.244a.458.458 0 0 0-.441.034" fill-rule="evenodd" fill="#000"/></svg>