<svg xmlns="http://www.w3.org/2000/svg" width="16" height="16" fill="none"><path d="M1.666.029A2.029 2.029 0 0 0 .076 1.44l-.063.2v12.72l.063.2a2.056 2.056 0 0 0 1.364 1.364l.2.063h12.747l.204-.07a2.073 2.073 0 0 0 1.333-1.357l.063-.2V1.64l-.063-.2a2.057 2.057 0 0 0-1.35-1.359L14.36.013 8.08.01C4.626.008 1.74.016 1.666.029m3.321 2.984v2H1.012l.007-1.646.008-1.647.065-.133c.116-.236.347-.447.585-.534.076-.028.437-.036 1.703-.038l1.607-.002v2m9.426-1.921c.186.091.39.292.482.474l.078.154.008 1.647.007 1.646H6v-4l4.14.007 4.14.007.133.065M4.987 8v2H1.013V6h3.974v2m10 0v2H6V6h8.987v2m-10 5.013v2H3.513c-.81 0-1.548-.012-1.639-.025a1.01 1.01 0 0 1-.77-.556l-.077-.152-.008-1.633-.007-1.634h3.975v2m9.994-.366-.008 1.633-.077.152a1.01 1.01 0 0 1-.77.556c-.093.014-1.922.024-4.146.025H6v-4h8.988l-.007 1.634" fill-rule="evenodd" fill="#000"/></svg>