<svg xmlns="http://www.w3.org/2000/svg" width="24" height="24" fill="none"><path d="m22.341 1.961-.448.441-.297-.141c-.583-.277.015-.26-9.096-.26-9.159 0-8.524-.019-9.12.276a2.538 2.538 0 0 0-1.262 1.445l-.098.298v17l.109.293a3.1 3.1 0 0 0 .195.434l.087.14-.426.428c-.27.271-.439.473-.462.555a.497.497 0 0 0 .607.607c.189-.054 21.295-21.16 21.347-21.347a.496.496 0 0 0-.161-.507c-.096-.081-.166-.103-.325-.103h-.203l-.447.441M8 5.5V8H2.996l.012-1.93.012-1.93.112-.24c.198-.425.624-.776 1.042-.858.091-.018.989-.035 1.996-.038L8 3v2.5m12.99-2.426c.072.03.13.066.13.08 0 .014-1.084 1.11-2.41 2.436L16.3 8H9V2.998l5.93.011c4.864.009 5.953.021 6.06.065m1.262 4.004c-.189.116-.252.27-.252.62V8h-.31c-.354 0-.524.075-.628.276a.483.483 0 0 0 .19.646c.098.059.201.078.438.078H22v6h-3.802c-4.197 0-3.957-.015-4.12.252a.478.478 0 0 0 .174.67c.125.076.23.078 3.94.078h3.811l-.011 2.43-.012 2.43-.112.24a1.698 1.698 0 0 1-.764.767l-.244.113-5.93.011-5.93.01v-.31c0-.238-.019-.341-.078-.439a.478.478 0 0 0-.67-.174c-.189.116-.252.27-.252.62V22h-.31c-.237 0-.34.019-.438.078a.478.478 0 0 0-.174.67c.167.274-.402.254 7.131.243l6.811-.011.3-.111a2.604 2.604 0 0 0 1.549-1.549l.111-.3.011-6.811c.009-6.115.004-6.823-.052-6.931A.561.561 0 0 0 22.5 7a.572.572 0 0 0-.248.078M8 12v3H3V9h5v3m4.3 0c-2.907 2.907-3.004 3-3.15 3H9V9h6.3l-3 3M8 16.15c0 .145-.081.231-2.41 2.56-1.325 1.325-2.422 2.41-2.436 2.41-.014 0-.05-.058-.079-.13-.042-.102-.056-.652-.066-2.56L2.997 16H8v.15" fill-rule="evenodd" fill="#000"/></svg>