<svg xmlns="http://www.w3.org/2000/svg" width="24" height="24" fill="none"><path d="M3.96 2.062a2.885 2.885 0 0 0-1.128.577c-.3.268-.593.713-.714 1.083l-.098.298v17l.111.3c.265.72.826 1.282 1.549 1.549l.3.111h17.04l.3-.111a2.604 2.604 0 0 0 1.549-1.549l.111-.3V3.98l-.111-.3a2.537 2.537 0 0 0-1.249-1.403c-.596-.295.043-.276-9.14-.273-6.911.002-8.302.011-8.52.058M8 5.5V8H2.996l.012-1.93.012-1.93.112-.24c.198-.425.624-.776 1.042-.858.091-.018.989-.035 1.996-.038L8 3v2.5m13.1-2.368c.315.147.624.455.767.764l.113.244.012 1.93.012 1.93H9V2.998l5.93.011 5.93.011.24.112M8 12v3H3V9h5v3m14 0v3H9V9h13v3M8 19.001v3.002l-1.93-.012-1.93-.011-.24-.112a1.698 1.698 0 0 1-.767-.764l-.113-.244-.012-2.43L2.997 16H8v3.001m13.992-.571-.012 2.43-.113.244a1.698 1.698 0 0 1-.767.764l-.24.112-5.93.011-5.93.01V16h13.003l-.011 2.43" fill-rule="evenodd" fill="#000"/></svg>