<svg xmlns="http://www.w3.org/2000/svg" width="16" height="16" fill="none"><path d="M1.666.029A2.029 2.029 0 0 0 .076 1.44l-.063.2v12.72l.063.199c.034.11.092.258.129.33l.066.131-.094.097c-.23.236-.235.531-.014.741a.46.46 0 0 0 .544.091C.86 15.877 15.902.826 15.959.688c.087-.211.036-.406-.146-.562-.206-.176-.464-.162-.68.037l-.116.107-.133-.068a2.718 2.718 0 0 0-.328-.128L14.36.013 8.08.01C4.626.008 1.74.016 1.666.029m3.321 2.984v2H1.012l.007-1.646.008-1.647.065-.133c.116-.236.347-.447.585-.534.076-.028.437-.036 1.703-.038l1.607-.002v2m9.236-1.981c.011.011-.872.911-1.962 2L10.28 5.013H6v-4h4.102c2.256 0 4.111.009 4.121.019m1.07 2.012a.78.78 0 0 0-.249.249c-.038.069-.045.197-.052.9l-.009.82h-.813c-.657 0-.827.008-.887.039-.102.052-.239.213-.258.302a2.71 2.71 0 0 1-.026.105c-.019.063.061.304.124.372.146.159.202.168 1.07.168l.794.001v3.999l-3.327.007-3.327.007-.096.066a.492.492 0 0 0-.199.6.486.486 0 0 0 .361.305c.095.02 1.118.029 3.363.029h3.226l-.007 1.634-.008 1.633-.077.152a1.01 1.01 0 0 1-.77.556c-.093.014-1.922.024-4.146.025H6v-.801c0-.841-.009-.916-.128-1.047a.545.545 0 0 0-.379-.152.422.422 0 0 0-.35.151c-.143.155-.142.153-.151 1.029l-.009.82H4.17c-.657 0-.827.008-.887.039-.102.052-.239.213-.258.302a2.71 2.71 0 0 1-.026.105c-.021.068.064.307.135.382.166.172-.26.161 5.773.153l5.48-.007.186-.063a2.091 2.091 0 0 0 1.344-1.333l.07-.204.008-5.467c.005-3.755-.001-5.497-.02-5.563-.062-.214-.248-.344-.487-.343a.574.574 0 0 0-.195.03M4.987 8v2H1.013V6h3.974v2M9.28 6.007c0 .003-.738.744-1.64 1.646L6 9.293V6h1.64c.902 0 1.64.003 1.64.007m-6.612 6.618c-.886.887-1.621 1.606-1.633 1.599-.012-.008-.022-.733-.022-1.612v-1.599H4.28l-1.612 1.612" fill-rule="evenodd" fill="#000"/></svg>