<svg xmlns="http://www.w3.org/2000/svg" width="16" height="16" fill="none" viewBox="0 0 16 16"><path fill="currentColor" d="M1.5 1.5V1H1v.5h.5Zm6.079 0 .354-.354L7.786 1H7.58v.5Zm7.186 7.186.353-.354-.353.354Zm-6.08 6.079.354-.354-.353.354ZM1.5 7.579H1v.207l.146.146.354-.353Zm7.893 7.186.353.353-.353-.353Zm5.372-5.372-.354-.354.354.354ZM1.5 2h6.079V1H1.5v1Zm5.725-.146 7.186 7.185.707-.707-7.185-7.186-.708.708ZM9.04 14.41 1.854 7.225l-.708.707 7.186 7.186.707-.707ZM2 7.579V1.5H1v6.079h1Zm7.746 7.54 5.372-5.373-.707-.707-5.372 5.372.707.707Zm-1.414 0a1 1 0 0 0 1.414 0l-.707-.708-.707.707Zm6.08-6.08.706.707a1 1 0 0 0 0-1.414l-.707.707ZM6.21 5.408a.803.803 0 0 1-.802.803v1c.995 0 1.802-.808 1.802-1.803h-1Zm-.802.803a.803.803 0 0 1-.803-.803h-1c0 .995.807 1.803 1.803 1.803v-1Zm-.803-.803c0-.443.36-.803.803-.803v-1c-.996 0-1.803.807-1.803 1.803h1Zm.803-.803c.443 0 .802.36.802.803h1c0-.996-.807-1.803-1.802-1.803v1Z"/></svg>