<svg xmlns="http://www.w3.org/2000/svg" width="16" height="16" fill="none"><path d="m1.247 1.008-.26.007v6.759l3.753 3.75c3.64 3.636 3.758 3.752 3.913 3.809.326.121.65.092.92-.081.149-.095 5.625-5.576 5.701-5.705.076-.131.139-.361.139-.507 0-.164-.067-.386-.161-.533-.042-.066-1.736-1.779-3.765-3.807L7.8 1.013l-3.147-.007a380.07 380.07 0 0 0-3.406.002m9.646 4.512 3.52 3.52-2.686 2.687-2.687 2.686-3.52-3.52L2 7.373V2H7.373l3.52 3.52m-5.72-1.895c-.419.06-.711.206-1.016.508-.252.25-.385.461-.475.757-.133.439-.093.875.122 1.322.228.47.681.831 1.193.949.209.048.588.055.771.013a1.808 1.808 0 0 0 1.381-1.323c.048-.174.055-.259.045-.516-.019-.503-.168-.842-.527-1.203a1.389 1.389 0 0 0-.454-.324 2.5 2.5 0 0 0-.373-.15 2.398 2.398 0 0 0-.667-.033m.581 1.07a.742.742 0 0 1 .443.718c0 .165-.013.225-.072.339-.155.301-.39.448-.712.447a.744.744 0 0 1-.718-.445c-.157-.313-.099-.648.156-.903.175-.175.313-.233.565-.236a.59.59 0 0 1 .338.08" fill="currentColor" fill-rule="evenodd"/></svg>