<svg xmlns="http://www.w3.org/2000/svg" width="24" height="24" fill="none"><path d="M2 7.351v5.35l4.95 4.945c4.814 4.808 4.958 4.948 5.25 5.09a2.552 2.552 0 0 0 1.73.187c.391-.1.668-.242.99-.506.307-.251 7.411-7.364 7.588-7.597.552-.727.642-1.764.228-2.62-.142-.292-.282-.436-5.09-5.25L12.701 2H2v5.351m15.008.359c4.327 4.329 4.717 4.73 4.826 4.962a1.56 1.56 0 0 1-.003 1.348c-.097.197-7.492 7.619-7.734 7.763a1.53 1.53 0 0 1-1.537.007c-.077-.045-2.26-2.198-4.85-4.785L3 12.301V3h9.301l4.707 4.71M7.96 6.062a2.885 2.885 0 0 0-1.128.577c-.3.268-.593.713-.714 1.083-.084.254-.098.372-.096.798.002.439.016.536.111.8a2.585 2.585 0 0 0 1.547 1.547c.269.098.354.109.82.109.465 0 .552-.011.82-.108a2.589 2.589 0 0 0 1.547-1.548c.098-.269.109-.354.109-.82 0-.465-.011-.552-.108-.82A2.535 2.535 0 0 0 7.96 6.062m1.159 1.081c.298.136.608.449.746.753.095.209.111.296.111.604s-.016.395-.111.604c-.14.309-.448.616-.765.764-.207.097-.29.112-.6.112s-.393-.015-.6-.112a1.675 1.675 0 0 1-.765-.764c-.095-.208-.111-.296-.111-.604-.001-.309.015-.394.11-.6.193-.422.615-.771 1.04-.861.267-.057.696-.009.945.104" fill-rule="evenodd" fill="#000"/></svg>