<svg xmlns="http://www.w3.org/2000/svg" width="24" height="24" fill="none"><path d="M11.499 1.04a3.05 3.05 0 0 0-2.385 2.12c-.135.434-.135 1.246 0 1.68a3.086 3.086 0 0 0 2.046 2.046c.434.135 1.246.135 1.68 0a3.086 3.086 0 0 0 2.046-2.046c.135-.434.135-1.246 0-1.68-.305-.981-1.076-1.753-2.025-2.031-.361-.106-1.029-.149-1.362-.089m1.024 1.033a2.011 2.011 0 0 1 1.444 1.617c.1.653-.094 1.243-.564 1.714C13.002 5.807 12.547 6 12 6c-.515 0-.962-.178-1.347-.535-1.33-1.236-.464-3.46 1.347-3.46.143 0 .378.031.523.068M4.02 3.04A2.532 2.532 0 0 0 1.96 5.5c0 1.137.785 2.135 1.904 2.421 1.143.292 2.35-.286 2.857-1.37.642-1.373-.099-3.011-1.561-3.448-.266-.079-.866-.113-1.14-.063m15.16-.015c-1.017.158-1.872.962-2.08 1.955-.368 1.761 1.216 3.349 2.955 2.962 1.156-.257 1.985-1.276 1.985-2.442a2.53 2.53 0 0 0-1.772-2.387c-.242-.075-.852-.124-1.088-.088M5.065 4.137c.266.122.569.403.706.654.212.39.222.991.021 1.384-.327.642-1.121.973-1.79.746-.443-.15-.708-.391-.915-.832-.091-.195-.107-.282-.107-.589 0-.32.014-.389.124-.62a1.55 1.55 0 0 1 1.006-.839c.243-.062.714-.014.955.096m15.109.015c.316.149.566.401.722.728.11.231.124.3.124.62 0 .307-.016.394-.107.589-.207.441-.472.682-.915.832-.669.227-1.463-.104-1.79-.746-.204-.399-.195-.988.022-1.386.192-.353.607-.67.984-.75.291-.062.687-.015.96.113M8.96 9.062a2.893 2.893 0 0 0-1.125.574c-.293.262-.57.672-.706 1.045l-.109.299-.011 3.51L6.997 18H9v6h6v-6h2.003l-.012-3.51-.011-3.51-.111-.3a2.537 2.537 0 0 0-1.249-1.403c-.559-.277-.549-.276-3.64-.273-2.204.002-2.812.014-3.02.058m-6 1a2.893 2.893 0 0 0-1.125.574c-.293.262-.57.672-.706 1.045l-.109.299-.011 3.01L.997 18H3v4h4v-1H4v-4H1.997l.011-2.43.012-2.43.112-.24c.147-.316.455-.625.764-.767.241-.111.254-.112 1.174-.126l.93-.014V10l-.89.003c-.6.002-.975.022-1.15.059m12.144.071c.309.143.617.452.764.767l.112.24.011 2.93.012 2.93H14v6h-4v-6H7.997l.012-2.93.011-2.93.112-.24c.198-.424.622-.774 1.042-.859.091-.019 1.408-.031 2.926-.027l2.76.006.244.113m3.896.363v.497l.93.014c.92.014.933.015 1.174.126.309.142.617.451.764.767l.112.24.012 2.43.011 2.43H20v4h-3v1h4v-4h2.003l-.012-3.01-.011-3.01-.111-.3a2.537 2.537 0 0 0-1.249-1.403c-.473-.234-.735-.275-1.75-.276L19 10v.496" fill-rule="evenodd" fill="#000"/></svg>