<svg xmlns="http://www.w3.org/2000/svg" width="16" height="16" fill="currentColor">
  <path fill-rule="evenodd" d="M8 1a1.5 1.5 0 1 0 0 3 1.5 1.5 0 0 0 0-3ZM5.5 2.5a2.5 2.5 0 1 1 5 0 2.5 2.5 0 0 1-5 0ZM3 3a1 1 0 1 0 0 2 1 1 0 0 0 0-2ZM1 4a2 2 0 1 1 4 0 2 2 0 0 1-4 0Zm12-1a1 1 0 1 0 0 2 1 1 0 0 0 0-2Zm-2 1a2 2 0 1 1 4 0 2 2 0 0 1-4 0ZM6.5 7A1.5 1.5 0 0 0 5 8.5V11h1v4h4v-4h1V8.5A1.5 1.5 0 0 0 9.5 7h-3Zm4.5 5h1V8.5A2.5 2.5 0 0 0 9.5 6h-3A2.5 2.5 0 0 0 4 8.5V12h1v4h6v-4ZM1.5 8a.5.5 0 0 0-.5.5V11h1v3h2v1H1v-3H0V8.5A1.5 1.5 0 0 1 1.5 7H3v1H1.5ZM13 7h1.5A1.5 1.5 0 0 1 16 8.5V12h-1v3h-3v-1h2v-3h1V8.5a.5.5 0 0 0-.5-.5H13V7Z" clip-rule="evenodd"/>
</svg>
