<svg xmlns="http://www.w3.org/2000/svg" width="16" height="16" fill="none"><path d="m7.733.015-.226.041C6.679.205 5.952.83 5.653 1.651a2.497 2.497 0 0 0 1.64 3.241 2.503 2.503 0 0 0 2.269-.449 2.494 2.494 0 0 0 .919-2.23A2.503 2.503 0 0 0 8.56.067c-.173-.041-.701-.074-.827-.052m.669 1.041c.378.113.75.412.925.747.184.351.216.841.08 1.214a1.493 1.493 0 0 1-1.487.975 1.392 1.392 0 0 1-.769-.259 1.474 1.474 0 0 1-.644-1.225c.001-.425.136-.752.439-1.058.192-.194.367-.302.627-.386.195-.063.629-.067.829-.008m-5.669.959a8.223 8.223 0 0 1-.2.041c-.199.04-.552.208-.739.352-.378.29-.64.691-.744 1.133a2.621 2.621 0 0 0 0 .918c.114.489.45.958.884 1.236a2.022 2.022 0 0 0 2.132 0c.434-.278.77-.747.884-1.236a2.621 2.621 0 0 0 0-.918 2.062 2.062 0 0 0-1.436-1.478c-.14-.038-.679-.072-.781-.048m10 0a8.223 8.223 0 0 1-.2.041c-.199.04-.552.208-.739.352-.378.29-.64.691-.744 1.133a2.621 2.621 0 0 0 0 .918c.114.489.45.958.884 1.236a2.022 2.022 0 0 0 2.132 0c.434-.278.77-.747.884-1.236a2.621 2.621 0 0 0 0-.918 2.062 2.062 0 0 0-1.436-1.478c-.14-.038-.679-.072-.781-.048M3.365 3.077c.454.187.691.619.608 1.11-.121.719-.995 1.047-1.586.595-.495-.378-.503-1.167-.016-1.554.276-.218.681-.28.994-.151m10 0c.454.187.691.619.608 1.11-.121.719-.995 1.047-1.586.595-.495-.378-.503-1.167-.016-1.554.276-.218.681-.28.994-.151m-7.21 2.951A2.5 2.5 0 0 0 4.239 7.45a3.404 3.404 0 0 0-.166.436c-.057.203-.058.245-.067 2.161L3.998 12h.989v4h6.026v-4h.989l-.008-1.953c-.009-1.943-.009-1.955-.07-2.167a3.289 3.289 0 0 0-.387-.827 2.638 2.638 0 0 0-1.435-.978c-.217-.057-.263-.059-2.009-.064-.982-.003-1.855.004-1.938.017M1.096 7.055c-.443.12-.836.482-1.011.935l-.072.183-.007 1.914L-.002 12h.988l.007 1.5L1 15l1.5.007 1.5.007V14H2v-2.987h-.988l.007-1.355.008-1.356.077-.1c.146-.193.191-.201 1.103-.201L3.013 8v-.987l-.886.002c-.686.001-.92.011-1.031.04m8.794-.003c.079.021.211.071.293.111.201.097.557.453.654.654.147.304.149.323.149 1.816l.001 1.38H10v4H6v-4h-.987l.001-1.38c0-1.111.007-1.408.038-1.523.133-.499.55-.92 1.046-1.057.196-.054 3.59-.055 3.792-.001m3.097.455V8h.801c.66 0 .818.007.899.041a.426.426 0 0 1 .249.231c.048.093.051.177.051 1.42v1.321H14V14h-2v1.014l1.5-.007L15 15l.007-1.5.007-1.5h.988l-.008-1.913-.007-1.914-.072-.183a1.55 1.55 0 0 0-1.023-.936c-.125-.032-.332-.041-1.031-.041h-.874v.494" fill-rule="evenodd" fill="#000"/></svg>