<svg xmlns="http://www.w3.org/2000/svg" width="16" height="16" fill="none" viewBox="0 0 16 16"><g clip-path="url(#a)">  <path stroke="currentColor" stroke-linecap="square" d="M3.5 14.5h-2v-3h-1v-3a1 1 0 0 1 1-1h1m10 7h2v-3h1v-3a1 1 0 0 0-1-1h-1M3 2.5a1.5 1.5 0 1 1 0 3 1.5 1.5 0 0 1 0-3Zm10 3a1.5 1.5 0 1 1 0-3 1.5 1.5 0 0 1 0 3Zm-5-5a2 2 0 1 1 0 4 2 2 0 0 1 0-4Zm2.5 15h-5v-4h-1v-3a2 2 0 0 1 2-2h3a2 2 0 0 1 2 2v3h-1v4Z"/></g><defs>  <clipPath id="a">    <path fill="#fff" d="M0 0h16v16H0z"/>  </clipPath></defs></svg>