<svg xmlns="http://www.w3.org/2000/svg" width="16" height="16" fill="none"><path d="M4.36.02a.706.706 0 0 0-.16.088c-.059.041-1.009.978-2.112 2.083C.69 3.592.07 4.23.041 4.299.005 4.387 0 4.833 0 8.199V12h1.013V4.707L2.86 2.86l1.847-1.846 3.146-.007L11 1l.007-.5.008-.5-3.301.003C5.899.005 4.389.012 4.36.02m8.434 2.48c-.471.471-.726.747-.753.812-.036.087-.041.356-.041 2.04v1.941l-.99.99-.99.99-.19-.087c-.299-.137-.553-.182-.934-.165-.463.02-.791.141-1.139.419a2 2 0 0 0-.751 1.548 1.95 1.95 0 0 0 .46 1.286c.393.469.937.722 1.546.72a1.977 1.977 0 0 0 1.774-1.114c.149-.31.207-.55.209-.867a1.908 1.908 0 0 0-.181-.84l-.087-.186 1.114-1.12c1.102-1.109 1.114-1.122 1.143-1.262.02-.095.029-.751.029-2.026V3.694l.6-.601.6-.6-.353-.353-.354-.353-.712.713m-6.287.568a2.035 2.035 0 0 0-1.454 1.479c-.098.402-.047.898.133 1.28l.087.186-1.114 1.12C3.057 8.242 3.045 8.255 3.016 8.395c-.019.093-.029.631-.029 1.58v1.439l-.574 1.147c-.316.632-.569 1.157-.563 1.167.019.029.866.444.88.431.006-.007.294-.58.641-1.273L4 11.625V8.707l.991-.992.992-.991.122.062c1.31.664 2.878-.299 2.887-1.773.004-.607-.246-1.144-.725-1.554a2.317 2.317 0 0 0-.819-.404 2.42 2.42 0 0 0-.941.013m.899 1.025c.204.092.411.299.505.504.064.14.074.197.075.403 0 .207-.01.262-.074.4a1.13 1.13 0 0 1-.509.511c-.141.065-.196.076-.403.076-.207 0-.262-.011-.4-.075a1.124 1.124 0 0 1-.511-.509c-.064-.14-.074-.197-.075-.403 0-.207.01-.262.074-.4.128-.274.397-.502.679-.573.171-.043.468-.013.639.066m7.581 4.023v3.103l-1.856 1.897-1.855 1.897H4v.988l3.835-.007 3.836-.007.091-.065c.174-.123 4.143-4.209 4.191-4.314.042-.094.046-.333.046-3.348L16 5.013h-1.013v3.103m-5.581 1.977c.204.092.411.299.505.504.064.14.074.197.075.403 0 .207-.01.262-.074.4a1.13 1.13 0 0 1-.509.511c-.141.065-.196.076-.403.076-.207 0-.262-.011-.4-.075a1.124 1.124 0 0 1-.511-.509c-.064-.14-.074-.197-.075-.403 0-.207.01-.262.074-.4.128-.274.397-.502.679-.573.171-.043.468-.013.639.066" fill="currentColor" fill-rule="evenodd"/></svg>