<svg xmlns="http://www.w3.org/2000/svg" width="24" height="24" viewBox="0 0 24 24">
  <path fill="currentColor" fill-rule="evenodd" d="M7.5 1h-.207l-.147.146-6 6L1 7.293V16h1V7.707L7.707 2H16V1H7.5Zm13.707 2.5-.353.354L19 5.707v6l-.146.147-2.268 2.267a2.5 2.5 0 1 1-.707-.707L18 11.293v-6l.146-.147 2-2 .354-.353.707.707Zm-5.666 10.92a1.5 1.5 0 1 0 .04.04l-.04-.04ZM8 8.5a1.5 1.5 0 1 1 .462 1.083l-.045-.045A1.495 1.495 0 0 1 8 8.5ZM9.5 11c-.51 0-.984-.152-1.379-.414L6 12.707v6l-.146.146-1.5 1.5-.354.354L3.293 20l.353-.354L5 18.293v-6l.146-.147L7.414 9.88A2.5 2.5 0 1 1 9.5 11ZM23 8.5V8h-1v8.293L16.293 22H8v1h8.707l.147-.146 6-6 .146-.147V8.5ZM10 14v4.293l.854.853.353.354-.707.707-.354-.353-1-1L9 18.707V14h1Zm3.854-9.854-.354-.353-.707.707.353.354.854.853V10h1V5.293l-.146-.147-1-1Z" clip-rule="evenodd"/>
</svg>
