<svg xmlns="http://www.w3.org/2000/svg" width="24" height="24" fill="none"><path d="M4.15 4.15 1 7.3V16h1V7.7l2.85-2.85L7.7 2H16V1H7.3L4.15 4.15m15.099-.099L18 5.3V11.301l-1.055 1.054-1.055 1.054-.295-.145a2.465 2.465 0 0 0-2.139-.028 2.487 2.487 0 0 0-.708 4.031c.98.973 2.527.97 3.511-.006a2.482 2.482 0 0 0 .46-2.903l-.126-.25 1.203-1.204L19 11.7V5.701L20.1 4.6l1.101-1.101-.351-.349-.351-.349-1.25 1.25m-6.099.099-.35.351.6.599.6.599V10h1V5.299l-.751-.75-.75-.749-.349.35M8.96 6.059a2.677 2.677 0 0 0-1.219.68 2.482 2.482 0 0 0-.46 2.903l.126.25-1.203 1.204L5 12.3V18.299l-.85.851-.849.85.349.35.35.349 1-.999 1-.999v-6.002l1.054-1.053 1.054-1.053.25.126a2.503 2.503 0 0 0 1.738.202A2.5 2.5 0 0 0 11.94 7.98c-.178-.853-.858-1.598-1.7-1.864-.342-.108-.934-.134-1.28-.057m1.157 1.083c.297.133.605.447.755.768.091.195.107.284.107.591.001.326-.011.386-.127.62-.165.336-.408.58-.732.735-.231.11-.3.124-.62.124s-.389-.014-.62-.124a1.518 1.518 0 0 1-.736-.736c-.11-.231-.124-.3-.124-.62s.014-.389.125-.62a1.493 1.493 0 0 1 1.972-.738M22 12.15v4.15l-2.85 2.85L16.3 22H8v1h8.7l3.15-3.15L23 16.7V8h-1v4.15m-13 4.2v2.351l.751.75.75.749.349-.35.35-.351-.6-.599-.6-.599V14H9v2.35m6.141-2.192c.322.158.545.384.709.715.118.24.13.299.13.626 0 .322-.014.389-.125.621a1.528 1.528 0 0 1-.735.736c-.231.11-.3.124-.62.124-.31 0-.393-.015-.6-.112a1.682 1.682 0 0 1-.766-.764c-.096-.209-.112-.295-.112-.604-.001-.306.015-.394.106-.589.195-.419.599-.763 1.022-.87.279-.071.715-.019.991.117" fill="currentColor" fill-rule="evenodd"/></svg>