<svg xmlns="http://www.w3.org/2000/svg" width="16" height="16" viewBox="0 0 16 16">
  <path fill="currentColor" fill-rule="evenodd" d="M4.5 0a.5.5 0 0 0-.354.146l-4 4A.5.5 0 0 0 0 4.5V12h1V4.707L4.707 1H11V0H4.5Zm9.354 2.854.353-.354-.707-.707-.354.353-1 1A.5.5 0 0 0 12 3.5v3.793l-1.984 1.984a2 2 0 1 0 .707.707l2.13-2.13A.5.5 0 0 0 13 7.5V3.707l.854-.853ZM16 5.5V5h-1v6.205L11.29 15H4v1h7.5a.5.5 0 0 0 .357-.15l4-4.091a.5.5 0 0 0 .143-.35V5.5ZM5 5c0 .37.101.718.277 1.016l-2.13 2.13A.5.5 0 0 0 3 8.5v2.882l-.947 1.894-.224.448.895.447.223-.447 1-2A.5.5 0 0 0 4 11.5V8.707l1.984-1.984A2 2 0 1 0 5 5Zm2-1a1 1 0 1 0 0 2 1 1 0 0 0 0-2Zm1 7a1 1 0 1 1 2 0 1 1 0 0 1-2 0Z" clip-rule="evenodd"/>
</svg>
