<svg xmlns="http://www.w3.org/2000/svg" width="16" height="16" fill="none"><path d="M10.055.029c-.849.15-1.634.818-1.909 1.625-.148.436-.146.391-.147 3.369l-.001 2.75-.179.127c-.861.607-1.493 1.61-1.744 2.767-.053.243-.061.354-.06.84.001.476.01.601.061.84.125.582.351 1.156.621 1.573A4.567 4.567 0 0 0 9.6 15.924c.244.052.358.06.893.061.687 0 .905-.032 1.454-.215 1.161-.386 2.215-1.353 2.68-2.459.124-.294.269-.794.325-1.122.053-.309.059-.987.011-1.296-.141-.902-.547-1.771-1.113-2.387a4.286 4.286 0 0 0-.655-.597l-.179-.131-.01-2.802c-.01-3.095-.001-2.929-.183-3.404a2.655 2.655 0 0 0-.867-1.109 3.246 3.246 0 0 0-.836-.396c-.205-.054-.846-.077-1.065-.038m.758.998c.293.062.505.18.736.411.229.228.373.487.422.76.02.107.029 1.104.029 3.056v2.898l.061.117c.049.094.117.155.34.303.334.221.783.657.978.948.264.395.458.858.559 1.333.066.313.067.992.001 1.307-.157.748-.448 1.289-.977 1.814-.538.535-1.09.833-1.81.978a4.116 4.116 0 0 1-1.365-.015c-1.308-.29-2.316-1.237-2.653-2.495a3.009 3.009 0 0 1-.124-.947 3.475 3.475 0 0 1 .575-1.922c.251-.387.58-.711 1.015-.998.266-.175.347-.268.384-.442.02-.093.029-1.037.029-3.009 0-2.494.006-2.893.041-3.03.104-.397.402-.754.788-.944.325-.159.621-.197.971-.123m-9.52.017c-.229.127-.33.347-.268.586.04.156.121.252.268.32.101.046.222.049 2.205.049 1.416.001 2.123-.008 2.174-.027a.66.66 0 0 0 .291-.284.492.492 0 0 0-.004-.375.426.426 0 0 0-.231-.249c-.095-.049-.191-.051-2.24-.05-1.51.001-2.157.01-2.195.03m2 3.006a.65.65 0 0 0-.17.119c-.063.068-.143.309-.124.372l.026.105c.02.091.156.248.266.309.073.04.204.046 1.118.053 1.147.009 1.27-.002 1.418-.131a.528.528 0 0 0 .166-.44c-.015-.138-.069-.222-.217-.342l-.101-.082-1.137-.006C3.475 4 3.393 4.003 3.293 4.05m6.987-.006a.438.438 0 0 0-.23.236c-.046.101-.049.233-.049 2.432L10 9.038l-.113.029a2.517 2.517 0 0 0-1.209.723c-.29.305-.486.661-.601 1.09-.08.298-.088.904-.014 1.173.184.68.539 1.183 1.08 1.533a2.49 2.49 0 0 0 3.152-.365c1.003-1.028.912-2.726-.194-3.647-.216-.179-.694-.431-.928-.488l-.146-.036-.014-2.345c-.012-2.12-.017-2.353-.057-2.425a.626.626 0 0 0-.271-.252.621.621 0 0 0-.405.016m-8.987 3c-.229.127-.33.347-.268.586.04.156.121.252.268.32.101.046.222.049 2.205.049 1.416.001 2.123-.008 2.174-.027a.66.66 0 0 0 .291-.284.492.492 0 0 0-.004-.375.426.426 0 0 0-.231-.249c-.095-.049-.191-.051-2.24-.05-1.51.001-2.157.01-2.195.03m9.586 2.998c.632.148 1.12.781 1.12 1.451A1.54 1.54 0 0 1 11 12.908c-.203.072-.57.097-.792.054a1.545 1.545 0 0 1-1.154-1.083 2.047 2.047 0 0 1-.004-.772 1.57 1.57 0 0 1 1.064-1.066c.186-.05.552-.05.765.001" fill-rule="evenodd" fill="#000"/></svg>