<svg xmlns="http://www.w3.org/2000/svg" width="16" height="16" fill="currentColor">
  <path fill-rule="evenodd" d="M8.732.722A2.5 2.5 0 0 1 13 2.49v5.277a4.5 4.5 0 1 1-5 0V2.49A2.5 2.5 0 0 1 8.732.722ZM10.5.99A1.5 1.5 0 0 0 9 2.49v5.555a.5.5 0 0 1-.25.433 3.5 3.5 0 1 0 3.5 0 .5.5 0 0 1-.25-.433V2.49a1.5 1.5 0 0 0-1.5-1.5Z" clip-rule="evenodd"/>
  <path fill-rule="evenodd" d="M10.5 9.99a1.5 1.5 0 1 0 0 3 1.5 1.5 0 0 0 0-3ZM8 11.49a2.5 2.5 0 1 1 5 0 2.5 2.5 0 0 1-5 0Z" clip-rule="evenodd"/>
  <path fill-rule="evenodd" d="M11 3.99v6h-1v-6h1ZM1 1h5v1H1V1ZM3 4h3v1H3V4ZM1 7h5v1H1V7Z" clip-rule="evenodd"/>
</svg>
