<svg xmlns="http://www.w3.org/2000/svg" width="24" height="24" fill="none"><path d="M14.873 1.06a3.536 3.536 0 0 0-2.742 2.488l-.111.352-.011 4.069-.012 4.07-.088.047c-.204.107-.746.551-1.041.851a6.712 6.712 0 0 0-1.832 3.802c-.065.509-.024 1.498.083 2.001.187.875.521 1.685.986 2.388.338.511 1.111 1.297 1.655 1.681a6.468 6.468 0 0 0 3.974 1.18c1.65-.07 3.045-.662 4.255-1.806.976-.923 1.594-2.047 1.892-3.443.107-.503.148-1.492.083-2.001a6.712 6.712 0 0 0-1.832-3.802c-.296-.301-.837-.744-1.042-.852l-.09-.048V8.129c0-2.465-.016-4.002-.041-4.16a3.543 3.543 0 0 0-2.581-2.851c-.419-.109-1.098-.135-1.505-.058m1.147 1a2.502 2.502 0 0 1 1.695 1.302c.294.597.284.415.284 4.978.001 3.911.004 4.085.076 4.202.041.068.261.247.49.398.478.318 1.12.934 1.415 1.36.81 1.166 1.159 2.612.958 3.967-.35 2.358-2.054 4.147-4.418 4.64-.474.099-1.566.099-2.04 0-1.839-.384-3.327-1.58-4.026-3.236a5.579 5.579 0 0 1-.394-2.971c.119-.796.49-1.723.96-2.4.295-.426.937-1.042 1.415-1.36.229-.151.449-.33.49-.398.072-.117.075-.291.076-4.202 0-4.563-.01-4.381.284-4.978.489-.991 1.629-1.534 2.735-1.302M3.252 3.078a.478.478 0 0 0-.174.67c.158.258.099.252 2.43.252 2.024 0 2.117-.004 2.24-.078a.485.485 0 0 0 0-.844C7.625 3.004 7.532 3 5.5 3s-2.125.004-2.248.078m0 5a.478.478 0 0 0-.174.67c.158.258.099.252 2.43.252 2.024 0 2.117-.004 2.24-.078A.54.54 0 0 0 8 8.5a.54.54 0 0 0-.252-.422C7.625 8.004 7.532 8 5.5 8s-2.125.004-2.248.078m0 5a.478.478 0 0 0-.174.67c.148.243.201.252 1.422.252 1.221 0 1.274-.009 1.422-.252a.451.451 0 0 0 0-.496c-.148-.243-.2-.252-1.43-.252-1.032 0-1.121.006-1.24.078m9.255 4.632c.095 1.074.73 2.011 1.673 2.468.472.229.821.311 1.32.311.499 0 .848-.082 1.32-.311.943-.457 1.578-1.394 1.673-2.468l.017-.19h-6.02l.017.19" fill-rule="evenodd" fill="#000"/></svg>