<svg xmlns="http://www.w3.org/2000/svg" width="24" height="24" fill="none"><path d="M15.15 2.041a1.567 1.567 0 0 0-1.006.839c-.11.231-.124.3-.124.62 0 .311.015.394.113.604.143.309.452.617.767.764.207.097.29.112.6.112.311 0 .394-.015.604-.113.309-.143.617-.452.764-.767.097-.207.112-.29.112-.6 0-.311-.015-.394-.113-.604a1.68 1.68 0 0 0-.757-.757c-.258-.117-.703-.163-.96-.098M13.315 7.99c-.418 1.083-5.432 14.76-5.421 14.789.024.062.867.356.904.316.047-.051 5.455-14.741 5.459-14.828.002-.057-.088-.108-.412-.23a5.454 5.454 0 0 0-.451-.157c-.02 0-.055.05-.079.11" fill="currentColor" fill-rule="evenodd"/></svg>