<svg xmlns="http://www.w3.org/2000/svg" width="16" height="16" viewBox="0 0 16 16"><path fill="currentColor" d="M1.5 11.5v-.444h-.444v.444H1.5Zm13 0h.444v-.444H14.5v.444Zm0 3v.444h.444V14.5H14.5Zm-13 0h-.444v.444H1.5V14.5Zm9.197-4.839a.444.444 0 0 0 .828-.322l-.828.322ZM8 1.5l.414-.161L8 .274l-.414 1.065L8 1.5ZM4.475 9.339l-.161.414.828.322.161-.414-.828-.322Zm1.451-2.783a.444.444 0 1 0 0 .888v-.888Zm4.148.888a.444.444 0 1 0 0-.888v.888Zm-8.574 4.5h13v-.888h-13v.888Zm12.556-.444v3h.888v-3h-.888Zm.444 2.556h-13v.888h13v-.888ZM1.944 14.5v-3h-.888v3h.888Zm9.581-5.161-3.11-8-.83.322 3.112 8 .828-.322Zm-3.94-8-3.11 8 .828.322 3.111-8-.828-.322ZM5.927 7.444h4.148v-.888H5.926v.888Z"/></svg>