<svg xmlns="http://www.w3.org/2000/svg" width="24" height="24" viewBox="0 0 24 24">
  <path fill="currentColor" d="M2.5 17.5V17H2v.5h.5Zm19 0h.5V17h-.5v.5Zm0 4v.5h.5v-.5h-.5Zm-19 0H2v.5h.5v-.5Zm13.526-6.742.16.474.947-.318-.16-.474-.947.319ZM12.262 2l.474-.16-.114-.34h-.36V2Zm-.524 0v-.5h-.36l-.114.34.474.16ZM7.026 14.44l-.16.474.949.318.159-.473-.948-.32ZM2.5 18h19v-1h-19v1Zm18.5-.5v4h1v-4h-1Zm.5 3.5h-19v1h19v-1ZM3 21.5v-4H2v4h1Zm13.974-7.06-4.238-12.6-.947.32 4.237 12.598.948-.318ZM12.262 1.5h-.524v1h.524v-1Zm-.998.34-4.238 12.6.948.319 4.237-12.6-.947-.318ZM9.5 10h5V9h-5v1Z"/>
</svg>
