<svg xmlns="http://www.w3.org/2000/svg" width="24" height="24" fill="none"><path d="M11.55 1.512a.722.722 0 0 0-.19.026c0 .008-1.009 3.015-2.242 6.683-1.233 3.667-2.236 6.674-2.229 6.681.007.007.216.085.464.172.452.159.452.159.486.073.019-.048.416-1.225.883-2.617L9.57 10h4.859l.849 2.53c.467 1.392.865 2.569.883 2.617.034.086.034.086.486-.073a7.85 7.85 0 0 0 .463-.171c.012-.012-.512-1.582-3.066-9.178-.772-2.297-1.404-4.181-1.404-4.188 0-.019-.875-.039-1.09-.025m1.487 4.358 1.034 3.08c.014.04-.417.05-2.071.05-1.654 0-2.085-.01-2.071-.05l1.034-3.08c.559-1.666 1.026-3.029 1.037-3.029.011 0 .478 1.363 1.037 3.029M2 19.5V22h20v-5H2v2.5m19 0V21H3v-3h18v1.5" fill="currentColor" fill-rule="evenodd"/></svg>