<svg xmlns="http://www.w3.org/2000/svg" width="16" height="16" fill="none"><path d="m3.247 1.008-.26.007.006 6.993L3 15l2.96.008c2.989.008 3.418-.002 3.846-.09a4.047 4.047 0 0 0 2.026-1.104 3.979 3.979 0 0 0 .965-4.067 4.084 4.084 0 0 0-1.964-2.298l-.248-.127.168-.147c.628-.554 1.008-1.193 1.182-1.988.022-.103.047-.355.055-.56a3.49 3.49 0 0 0-2.411-3.452c-.487-.162-.507-.163-3.419-.169-1.459-.003-2.77-.003-2.913.002m5.598 1.02a2.58 2.58 0 0 1 1.622.932c.349.454.52.962.52 1.55 0 .512-.126.937-.398 1.35-.359.543-.847.892-1.495 1.069l-.254.069-2.42.009L4 7.016V2h2.318c1.483 0 2.393.01 2.527.028m.603 6.012a2.992 2.992 0 0 1 2.512 2.512c.05.33.05.566 0 .896a3.002 3.002 0 0 1-2.465 2.509c-.22.038-.579.043-2.873.043H4V8h2.593c2.152 0 2.638.007 2.855.04" fill="currentColor" fill-rule="evenodd"/></svg>