<svg xmlns="http://www.w3.org/2000/svg" width="16" height="16" fill="none"><path d="M6.168 4.982A3581.34 3581.34 0 0 0 4.333 9.71c-.013.036.06.074.392.204.276.108.414.15.425.129.01-.016.243-.609.518-1.316l.5-1.287h3.664l.421 1.087c.232.597.449 1.136.484 1.197a.478.478 0 0 0 .372.223.599.599 0 0 0 .367-.193.475.475 0 0 0 .064-.213c.01-.134-.075-.362-1.752-4.674A516.592 516.592 0 0 0 8.005.316c-.01-.01-.837 2.09-1.837 4.666m2.584-.322.733 1.887-.742.007a92.01 92.01 0 0 1-1.486 0l-.742-.007.733-1.887c.404-1.038.742-1.887.752-1.887.01 0 .348.849.752 1.887m-7.479 6.401-.233.008.006 1.939.007 1.939h13.894l.007-1.94.006-1.94-6.726-.007c-3.7-.004-6.832-.003-6.961.001M14.053 13v1.053H1.947v-2.106h12.106V13" fill="currentColor" fill-rule="evenodd"/></svg>