<svg xmlns="http://www.w3.org/2000/svg" width="24" height="24" fill="none"><path d="M6 12.001v10.002l4.53-.013c4.52-.013 4.531-.014 4.921-.103 2.144-.489 3.73-1.969 4.333-4.044.82-2.817-.757-5.857-3.559-6.863l-.355-.128.235-.181c.332-.255.844-.801 1.061-1.131.363-.55.6-1.12.741-1.78.1-.471.1-1.412 0-1.88-.375-1.754-1.542-3.086-3.187-3.638-.695-.233-.836-.24-4.97-.241L6 2v10.001m7.84-8.945c1.491.244 2.677 1.352 3.047 2.849.104.423.124 1.285.038 1.675-.288 1.302-1.188 2.386-2.325 2.803-.677.248-.41.232-4.17.247L7 10.643V3h3.25c2.584 0 3.32.012 3.59.056M15 11.698a4.643 4.643 0 0 1 3.503 2.562c.268.544.395.984.459 1.591.231 2.161-1.097 4.206-3.187 4.906-.721.242-.739.243-4.945.243H7v-9.36h3.81c3.103 0 3.881.011 4.19.058" fill-rule="evenodd" fill="#000"/></svg>