<svg xmlns="http://www.w3.org/2000/svg" width="16" height="16" fill="none"><path d="M7.139.232A785.67 785.67 0 0 0 4.88 6.79c0 .034.902.344.927.319A213.6 213.6 0 0 0 6.83 4.178l1.005-2.911.086.004c.123.006.398.154.568.306.171.152.335.386.423.603l.061.153.014 2.334L9 7l2.373.013c2.366.014 2.374.014 2.529.072.442.167.745.467.917.908.062.157.071.219.071.487 0 .303-.007.339-.578 2.893-.664 2.967-.627 2.845-.973 3.186a1.478 1.478 0 0 1-.659.397c-.118.037-.559.043-3.913.051l-3.78.008V16h3.756c4.132 0 3.977.006 4.446-.164.399-.144.85-.487 1.132-.861.125-.165.299-.51.358-.708.087-.294 1.189-5.3 1.216-5.527.068-.556-.111-1.215-.467-1.713-.37-.519-1.05-.92-1.694-.999-.136-.017-.921-.028-1.98-.028H10V4.247c0-1.078-.011-1.819-.028-1.923-.1-.614-.458-1.226-.933-1.591A2.82 2.82 0 0 0 8.2.305C8 .245 7.892.231 7.557.22c-.232-.007-.41-.003-.418.012M0 11.507V16h4V7.013H0v4.494m2.987 0v3.506H1.013V8h1.974v3.507" fill-rule="evenodd" fill="#000"/></svg>