<svg xmlns="http://www.w3.org/2000/svg" width="24" height="24" fill="none"><path d="M9.28 1.067a.575.575 0 0 0-.211.213c-.039.077-.71 2.489-1.491 5.36a2929.51 2929.51 0 0 1-1.442 5.29c-.02.066-.169.07-2.381.07-2.603 0-2.518-.008-2.677.252C1.002 12.377 1 12.496 1 18c0 5.504.002 5.623.078 5.748.168.275-.643.254 9.391.242l9.071-.01.293-.091c.65-.201 1.123-.483 1.576-.935.436-.436.71-.904.874-1.492.068-.246 1.156-7.192 1.209-7.721.032-.315-.039-.895-.154-1.263-.306-.983-.953-1.713-1.911-2.158-.668-.31-.437-.294-4.657-.309L13 9.997V7.109c0-1.771-.016-2.986-.041-3.14a3.52 3.52 0 0 0-3.217-2.952c-.264-.018-.347-.009-.462.05m.923 1.037a2.51 2.51 0 0 1 1.512 1.258c.289.586.284.512.284 4.078.001 3.078.004 3.184.079 3.307a.581.581 0 0 0 .17.18c.074.043.901.057 4.152.073l4.06.02.274.093c.833.282 1.476.963 1.685 1.785.118.462.088.73-.499 4.534-.308 1.995-.58 3.7-.604 3.788-.164.584-.718 1.241-1.276 1.514-.569.279-.201.265-6.95.265L7 23V12.566l1.421-5.213C9.202 4.486 9.85 2.118 9.86 2.09c.023-.065.081-.063.343.014M6 18v5H2V13h4v5" fill-rule="evenodd" fill="#000"/></svg>