<svg xmlns="http://www.w3.org/2000/svg" width="16" height="16" fill="none"><path d="M0 4.507v4.506h4V0H0v4.507M4.993.499 5 1l3.827.013 3.826.014.151.061c.224.09.445.243.607.421.272.298.262.262.901 3.118.571 2.554.578 2.59.578 2.893 0 .268-.009.33-.071.487a1.552 1.552 0 0 1-1.021.945c-.144.042-.362.047-2.485.055l-2.326.009v2.259c0 1.944-.006 2.282-.041 2.417a1.534 1.534 0 0 1-.927 1.016l-.175.063-.065-.192a646.375 646.375 0 0 0-1.968-5.683c-.026-.029-.931.277-.931.315 0 .021 2.193 6.4 2.254 6.556.022.056.149.06.58.019a2.52 2.52 0 0 0 1.638-.813c.313-.349.545-.833.62-1.297.017-.104.028-.845.028-1.922v-1.752l1.9-.008 1.9-.009.226-.062a2.513 2.513 0 0 0 1.869-2.663c-.027-.227-1.129-5.233-1.216-5.527a2.858 2.858 0 0 0-.357-.706A2.692 2.692 0 0 0 12.92.074l-.213-.06L8.846.006 4.985-.001l.008.5M2.987 4.507V8H1.013V1.013h1.974v3.494" fill-rule="evenodd" fill="#000"/></svg>