<svg xmlns="http://www.w3.org/2000/svg" width="24" height="24" fill="none"><path d="M1.252 1.078C.982 1.243 1 .81 1 7.008c0 5.495.002 5.615.078 5.74.159.26.074.252 2.677.252 2.212 0 2.361.004 2.381.07.012.038.661 2.419 1.443 5.29.781 2.871 1.447 5.279 1.48 5.35.124.27.403.341.972.249.755-.123 1.373-.443 1.929-.999s.876-1.174.999-1.929c.025-.154.041-1.369.041-3.14v-2.889l3.79-.012c4.129-.012 3.879.001 4.49-.237a3.51 3.51 0 0 0 2.196-2.953 4.26 4.26 0 0 0 .015-.56c-.046-.487-1.14-7.458-1.21-7.708a4.64 4.64 0 0 0-.177-.507c-.328-.742-1.116-1.479-1.91-1.785-.656-.253-.128-.24-9.909-.24-8.762 0-8.907.002-9.033.078M6 7v5H2V2h4v5m13.709-4.874c.423.154.635.291.976.631.308.307.531.669.631 1.023.024.088.296 1.793.604 3.788.385 2.493.56 3.733.56 3.962 0 .638-.225 1.195-.676 1.676-.31.331-.581.51-1.011.667l-.293.107-4.08.02c-3.267.016-4.098.03-4.172.073a.581.581 0 0 0-.17.18c-.075.123-.078.229-.079 3.307 0 3.553.003 3.495-.276 4.06-.192.39-.47.708-.831.954-.281.191-.801.399-.945.378-.073-.011-.23-.553-1.513-5.252l-1.431-5.24-.001-5.231L7 1.998l6.21.011 6.21.011.289.106" fill-rule="evenodd" fill="#000"/></svg>