<svg xmlns="http://www.w3.org/2000/svg" width="16" height="16" fill="none"><path d="M11.013.026a4.642 4.642 0 0 0-1.889.657c-1.387.842-2.237 2.493-2.113 4.104.03.377.048.493.137.848.045.178.052.242.028.266a788.21 788.21 0 0 1-3.543 2.645C.466 10.902.114 11.172.058 11.28a.485.485 0 0 0 .045.512c.044.063.983 1.017 2.088 2.12 1.401 1.398 2.039 2.018 2.108 2.047.19.079.441.025.57-.122.03-.035 1.222-1.633 2.648-3.55 1.427-1.918 2.605-3.487 2.62-3.487.015 0 .143.029.285.065a4.47 4.47 0 0 0 3.072-.332c1.293-.647 2.156-1.8 2.444-3.266.072-.37.065-1.212-.014-1.587-.095-.453-.293-1.008-.409-1.15-.121-.147-.408-.204-.591-.117-.046.022-.498.454-1.004.96l-.92.92-.646-.646-.647-.646.944-.947c.899-.903.945-.953.97-1.075A.468.468 0 0 0 13.474.5c-.145-.138-.733-.344-1.24-.435a6.231 6.231 0 0 0-1.221-.039m.995 1.019.208.031-.826.829c-.455.455-.84.862-.855.903a.627.627 0 0 0 .012.402c.054.113 2.166 2.219 2.261 2.255.11.041.302.035.4-.014.047-.024.452-.408.9-.855l.816-.813.031.209a4.29 4.29 0 0 1-.011 1.103 3.508 3.508 0 0 1-2.304 2.713c-.403.141-.633.177-1.133.178-.518.001-.709-.031-1.221-.203-.352-.118-.453-.12-.612-.013-.052.035-.784.994-1.814 2.378l-2.569 3.45-.842 1.13-1.584-1.583c-1.296-1.295-1.578-1.59-1.55-1.618a638.79 638.79 0 0 1 3.446-2.574c2.104-1.567 3.434-2.574 3.47-2.628.109-.162.104-.272-.027-.672-.158-.481-.19-.681-.189-1.173 0-.456.038-.696.175-1.107.395-1.186 1.474-2.112 2.702-2.318a4.79 4.79 0 0 1 1.116-.01" fill-rule="evenodd" fill="#000"/></svg>