<svg xmlns="http://www.w3.org/2000/svg" width="24" height="24" fill="none"><path d="M16.42 1.04c-.706.076-1.3.245-1.964.558-1.725.815-2.93 2.361-3.341 4.282-.128.601-.13 1.647-.003 2.216.048.218.088.411.088.428 0 .017-2.218 1.925-4.93 4.239a915.324 915.324 0 0 0-5.09 4.363c-.148.144-.16.171-.16.374v.22l2.58 2.582c1.419 1.421 2.629 2.609 2.688 2.641a.445.445 0 0 0 .429-.001c.062-.033 2.026-2.278 4.364-4.99 2.338-2.713 4.28-4.962 4.315-5 .06-.063.084-.062.384.01 1.367.328 2.975.048 4.32-.754 1.079-.643 2.043-1.791 2.482-2.956.293-.779.397-1.361.398-2.232 0-.741-.039-1.015-.228-1.615-.127-.401-.231-.541-.435-.586-.28-.061-.31-.037-1.748 1.395l-1.37 1.365L17.81 6.19l-1.389-1.389 1.365-1.37c1.432-1.438 1.456-1.468 1.395-1.748-.042-.191-.185-.304-.524-.417-.645-.215-1.52-.303-2.237-.226m1.057.986.248.026-1.238 1.244c-1.306 1.312-1.327 1.34-1.266 1.634.039.19 3.659 3.81 3.849 3.849.294.061.322.04 1.636-1.268l1.246-1.24.03.354c.06.713-.091 1.672-.373 2.362-.354.865-1.081 1.748-1.87 2.272-1.157.768-2.718 1.036-3.926.674-.47-.14-.58-.152-.724-.078-.069.036-1.915 2.143-4.37 4.988L6.47 21.769l-2.115-2.114-2.114-2.114.089-.087c.05-.048 2.277-1.954 4.95-4.236 2.673-2.281 4.893-4.2 4.934-4.263.098-.153.093-.307-.026-.715-.546-1.876.209-4.008 1.855-5.238a5.93 5.93 0 0 1 1.281-.695 5.227 5.227 0 0 1 2.153-.281" fill-rule="evenodd" fill="#000"/></svg>