<svg xmlns="http://www.w3.org/2000/svg" width="16" height="16" fill="currentColor">
  <path fill-rule="evenodd" d="M7.145 4.427A4.427 4.427 0 0 1 11.573 0c.652 0 1.265.148 1.816.398l.648.293-2.26 2.26 1.272 1.273 2.26-2.26.293.647A4.39 4.39 0 0 1 16 4.427a4.427 4.427 0 0 1-5.784 4.216L4.74 16 0 11.26l7.357-5.476a4.43 4.43 0 0 1-.212-1.357ZM11.573.984A3.444 3.444 0 0 0 8.4 5.768l.15.355L1.5 11.37l3.131 3.13 5.246-7.048.355.15a3.444 3.444 0 0 0 4.784-3.173c0-.242-.026-.477-.075-.705l-1.893 1.892-2.663-2.663 1.892-1.892a3.322 3.322 0 0 0-.704-.076Z" clip-rule="evenodd"/>
</svg>
