<svg xmlns="http://www.w3.org/2000/svg" viewBox="0 0 48 48" style="enable-background:new 0 0 48 48" xml:space="preserve"><path d="M5.34 5.34 1.68 9.001l3.5 3.499L8.681 16h2.351l2.223 2.319 2.224 2.319.661-.658c.363-.361.651-.686.64-.721-.012-.034-1.119-1.231-2.461-2.658l-2.439-2.596-1.28-.002L9.319 14 6.84 11.52 4.361 9.04 6.7 6.7l2.34-2.339 2.48 2.479L14 9.319l.004 1.281.004 1.28 2.594 2.64 2.593 2.64.68-.68.68-.68-2.273-2.32-2.274-2.32-.004-1.28L16 8.599 12.54 5.14c-1.904-1.903-3.479-3.46-3.501-3.46-.022 0-1.687 1.647-3.699 3.66m28.1-3.212c-2.638.306-4.756 1.205-6.683 2.836-1.891 1.601-3.226 3.873-3.811 6.486-.163.727-.185 1.034-.181 2.47.004 1.223.038 1.782.136 2.2l.131.56-.256.251c-.141.138-4.576 4.147-9.856 8.907-5.28 4.761-9.732 8.815-9.894 9.01-.999 1.207-1.18 3.21-.407 4.53.128.219 1.397 1.558 3.004 3.17 2.548 2.555 2.829 2.812 3.321 3.039 1.394.643 3.218.384 4.216-.597.176-.173 4.331-4.753 9.233-10.176 5.527-6.115 8.953-9.846 9.019-9.821.058.023.511.101 1.007.174 1.107.162 3.216.118 4.141-.088 3.781-.84 6.672-3.098 8.286-6.471 1.403-2.933 1.504-5.697.346-9.426L45 8.563l-3.1 3.098-3.1 3.098-2.78-2.779-2.779-2.78 3.076-3.077c1.692-1.692 3.059-3.094 3.038-3.114-.078-.079-2.306-.609-3.035-.722-.801-.125-2.407-.213-2.88-.159m2.16 1.951c.096.061-.394.591-2.4 2.599L30.681 9.2l4.119 4.12 4.119 4.12 2.53-2.529c1.594-1.593 2.552-2.495 2.588-2.436.123.2.076 2.429-.066 3.066-.45 2.024-1.343 3.685-2.724 5.066a9.712 9.712 0 0 1-4.136 2.462c-1.778.514-3.955.504-5.603-.025l-.692-.222-9.412 10.425c-8.664 9.596-9.449 10.443-9.868 10.648-.344.168-.566.221-.909.217-.849-.012-1.05-.166-3.797-2.928-2.29-2.304-2.503-2.541-2.66-2.967-.307-.836-.207-1.495.32-2.097.148-.17 3.78-3.478 8.07-7.352 4.29-3.873 8.902-8.04 10.25-9.259l2.449-2.217-.18-.626c-.1-.344-.244-1.072-.321-1.617-.343-2.415.196-4.703 1.605-6.819 1.4-2.103 3.66-3.607 6.167-4.106.635-.126 2.892-.159 3.07-.045m-.531 23.64c-.346.378-.64.718-.653.756-.014.039 1.588 1.566 3.56 3.394 3.643 3.379 4.015 3.774 4.419 4.696.272.624.405 1.281.405 2.008 0 .941-.108 1.411-.525 2.28a5.066 5.066 0 0 1-3.917 2.817c-1.441.178-2.864-.232-3.91-1.128-.216-.184-2.245-2.346-4.508-4.803s-4.143-4.456-4.176-4.443c-.034.013-.368.312-.743.664l-.682.64 4.13 4.486c2.272 2.468 4.327 4.66 4.568 4.873.861.762 2.028 1.379 3.123 1.651.271.068.871.109 1.56.107.919-.002 1.235-.035 1.76-.184 2.789-.794 4.86-3.214 5.245-6.129.236-1.793-.333-3.866-1.433-5.211-.219-.268-1.832-1.815-3.585-3.439a2046.821 2046.821 0 0 1-3.598-3.336l-.412-.385-.628.686" fill-rule="evenodd"/></svg>