<svg xmlns="http://www.w3.org/2000/svg" width="16" height="16" fill="none"><path d="M2.733.015a8.223 8.223 0 0 1-.2.041c-.199.04-.552.208-.739.352-.378.29-.64.691-.744 1.133a2.621 2.621 0 0 0 0 .918c.114.489.45.958.884 1.236a2.022 2.022 0 0 0 2.132 0c.434-.278.77-.747.884-1.236a2.621 2.621 0 0 0 0-.918A2.062 2.062 0 0 0 3.514.063c-.14-.038-.679-.072-.781-.048m6.559.033a.485.485 0 0 0-.276.353c-.017.079-.029.44-.029.867V2l-.794.001c-.868 0-.924.009-1.07.168-.063.068-.143.309-.124.372l.026.105c.02.091.156.248.266.309.076.042.366.046 3.889.052l3.807.007V11.013h-3.815c-3.279 0-3.825.006-3.889.039-.102.052-.239.213-.258.302a2.71 2.71 0 0 1-.026.105c-.019.063.061.304.124.372a.65.65 0 0 0 .17.119c.1.045.203.049 1.5.049l1.394.001.944 1.887c.52 1.037.976 1.919 1.015 1.96.267.28.736.149.837-.234a.47.47 0 0 0 .007-.2c-.012-.051-.396-.84-.853-1.753l-.83-1.66h2.147c1.741 0 2.164-.007 2.234-.036.117-.049.279-.235.298-.342.009-.049.012-2.161.008-4.693l-.007-4.605-.055-.074a1.202 1.202 0 0 0-.156-.155l-.101-.082-2.836-.007-2.837-.007-.008-.838C9.986.225 9.995.272 9.782.1a.493.493 0 0 0-.49-.052M3.365 1.077c.454.187.691.619.608 1.11-.121.719-.995 1.047-1.586.595-.495-.378-.503-1.167-.016-1.554.276-.218.681-.28.994-.151M1.096 5.055c-.443.12-.836.482-1.011.935l-.072.183-.007 4.68c-.005 2.574-.001 4.72.008 4.769.019.107.181.293.298.342.24.1.546-.027.653-.271.028-.064.038-.966.048-4.735l.014-4.655.077-.101c.155-.203.133-.201 1.596-.201L4 6v4.798c0 3.319.009 4.822.028 4.874a.66.66 0 0 0 .284.291c.185.08.438.015.573-.145a.59.59 0 0 0 .099-.219c.021-.094.029-1.555.029-4.867V6h2.295c2.517 0 2.388.008 2.55-.163a.46.46 0 0 0 .101-.524.426.426 0 0 0-.231-.249c-.096-.049-.229-.051-4.294-.049-3.574.002-4.215.008-4.338.04" fill-rule="evenodd" fill="#000"/></svg>