<svg xmlns="http://www.w3.org/2000/svg" width="24" height="24" fill="none"><path d="M3.96 1.062a2.885 2.885 0 0 0-1.128.577c-.3.268-.593.713-.714 1.083-.084.254-.098.372-.096.798.002.439.016.536.111.8A2.585 2.585 0 0 0 3.68 5.867c.269.098.354.109.82.109.465 0 .552-.011.82-.108A2.589 2.589 0 0 0 6.867 4.32c.098-.269.109-.354.109-.82 0-.465-.011-.552-.108-.82A2.535 2.535 0 0 0 3.96 1.062m1.159 1.081c.298.136.608.449.746.753.095.209.111.296.111.604s-.016.395-.111.604c-.14.309-.448.616-.765.764-.207.097-.29.112-.6.112s-.393-.015-.6-.112a1.675 1.675 0 0 1-.765-.764c-.095-.208-.111-.296-.111-.604-.001-.309.015-.394.11-.6.193-.422.615-.771 1.04-.861.267-.057.696-.009.945.104m5.133.935a.478.478 0 0 0-.174.67c.166.271-.341.252 6.62.252H23v12h-5.802c-6.408 0-5.955-.019-6.12.252a.45.45 0 0 0 0 .495c.148.242.007.231 3.18.253l2.919.02 1.443 3.366c.794 1.851 1.468 3.395 1.499 3.432.079.096.26.182.381.182.244 0 .5-.252.5-.493 0-.062-.612-1.542-1.36-3.287a325.373 325.373 0 0 1-1.36-3.197c0-.013 1.202-.023 2.67-.023 2.578 0 2.674-.003 2.798-.078.272-.166.252.373.252-6.922s.02-6.756-.252-6.922C23.622 3.002 23.495 3 17 3s-6.622.002-6.748.078M2.96 8.062a2.893 2.893 0 0 0-1.125.574c-.293.262-.57.672-.706 1.045l-.109.299-.011 6.811c-.009 6.115-.004 6.823.052 6.931.078.15.28.278.439.278a.584.584 0 0 0 .427-.248c.043-.075.057-1.371.073-6.852l.02-6.76.112-.24c.147-.315.455-.624.764-.767l.244-.113 1.93-.012L7 8.996v7.312c0 7.182.002 7.314.078 7.44.2.328.644.328.844 0 .076-.126.078-.258.078-7.438V9h3.81c3.708 0 3.813-.002 3.938-.078a.485.485 0 0 0 0-.844c-.126-.076-.246-.078-6.328-.075-5.147.003-6.244.013-6.46.059" fill-rule="evenodd" fill="#000"/></svg>