<svg xmlns="http://www.w3.org/2000/svg" width="16" height="16" fill="none"><path d="M2.987 1.507V2h2.5l.243.973c.134.535.243.985.243 1 0 .018-.447.027-1.313.027-1.426.001-1.535.01-1.81.148a1.618 1.618 0 0 0-.676.655c-.185.351-.173-.051-.174 5.857V16h12v-5.34c-.001-5.908.011-5.506-.174-5.857a1.618 1.618 0 0 0-.676-.655c-.275-.138-.384-.147-1.81-.148-.866 0-1.313-.009-1.313-.027 0-.015.109-.465.243-1L10.513 2h2.5v-.987H2.987v.494M9.262 2.9c-.123.495-.236.945-.251 1l-.026.1h-1.97l-.026-.1c-.015-.055-.128-.505-.251-1L6.513 2h2.974l-.225.9m3.44 2.143c.086.044.204.16.247.242.032.061.038.447.038 2.394V10H3.013V7.679c0-1.947.006-2.333.038-2.394a.743.743 0 0 1 .242-.241c.077-.042 9.326-.043 9.409-.001M0 8.507V10h1.013V7.013H0v1.494m14.987 0V10H16V7.013h-1.013v1.494m-2 4.506v2H3.013v-4h9.974v2m-8.204-.987c-.283.06-.563.292-.695.574-.064.138-.075.193-.075.4 0 .207.011.262.076.403.095.206.301.411.511.509.138.064.193.075.4.075.207 0 .262-.011.4-.075a1.13 1.13 0 0 0 .511-.509c.065-.141.076-.196.076-.403 0-.207-.011-.262-.076-.403a1.115 1.115 0 0 0-.498-.502 1.2 1.2 0 0 0-.63-.069m6 0c-.283.06-.563.292-.695.574-.064.138-.075.193-.075.4 0 .207.011.262.076.403.095.206.301.411.511.509.138.064.193.075.4.075.207 0 .262-.011.4-.075a1.13 1.13 0 0 0 .511-.509c.065-.141.076-.196.076-.403 0-.207-.011-.262-.076-.403a1.115 1.115 0 0 0-.498-.502 1.2 1.2 0 0 0-.63-.069" fill-rule="evenodd" fill="#000"/></svg>