<svg xmlns="http://www.w3.org/2000/svg" width="24" height="24" fill="none" viewBox="0 0 24 24"><path fill="currentColor" d="M3 11.5V11H2v.5h1Zm-1 3v.5h1v-.5H2Zm20-3V11h-1v.5h1Zm-1 3v.5h1v-.5h-1Zm-1.5 8v.5h.5v-.5h-.5Zm-15 0H4v.5h.5v-.5Zm3-13V9H7v.5h.5Zm9 0h.5V9h-.5v.5Zm0 5v.5h.5v-.5h-.5Zm-9 0H7v.5h.5v-.5ZM6.5 2H6v1h.5V2Zm11 1h.5V2h-.5v1Zm-2.468-.676-1.5 4 .936.352 1.5-4-.936-.352Zm-4.564 4-1.5-4-.936.352 1.5 4 .936-.352ZM2 11.5v3h1v-3H2Zm19 0v3h1v-3h-1ZM19.5 22h-15v1h15v-1ZM5 22.5v-14H4v14h1Zm0-14A1.5 1.5 0 0 1 6.5 7V6A2.5 2.5 0 0 0 4 8.5h1ZM6.5 7h11V6h-11v1Zm11 0A1.5 1.5 0 0 1 19 8.5h1A2.5 2.5 0 0 0 17.5 6v1ZM19 8.5v14h1v-14h-1ZM7.5 10h9V9h-9v1Zm8.5-.5v5h1v-5h-1Zm.5 4.5h-9v1h9v-1Zm-8.5.5v-5H7v5h1ZM6.5 3h11V2h-11v1ZM8 18v1a1 1 0 0 0 1-1H8Zm0 0H7a1 1 0 0 0 1 1v-1Zm0 0v-1a1 1 0 0 0-1 1h1Zm0 0h1a1 1 0 0 0-1-1v1Zm8 0v1a1 1 0 0 0 1-1h-1Zm0 0h-1a1 1 0 0 0 1 1v-1Zm0 0v-1a1 1 0 0 0-1 1h1Zm0 0h1a1 1 0 0 0-1-1v1Z"/></svg>