<svg xmlns="http://www.w3.org/2000/svg" width="24" height="24" fill="none"><path d="M6 2.5V3h2.153l.103.27.559 1.49.457 1.22-1.626.021c-1.51.02-1.644.028-1.873.105-.857.29-1.476.947-1.694 1.798-.077.302-.079.475-.079 7.702V23h16l-.001-7.37c0-8.214.019-7.653-.283-8.267-.284-.574-.828-1.033-1.489-1.257-.229-.077-.363-.085-1.873-.105l-1.626-.021.457-1.22.559-1.49.103-.27H18V2H6v.5m8.753.555c-.007.03-.256.705-.553 1.499l-.54 1.445h-3.32L9.8 4.554a94.907 94.907 0 0 1-.553-1.499C9.236 3.009 9.674 3 12 3s2.764.009 2.753.055M18.1 7.132c.315.147.624.455.767.764l.113.244.011 6.93.01 6.93H4.999l.01-6.93.011-6.93.112-.24c.193-.413.602-.758 1.018-.857.085-.02 2.652-.033 5.93-.029l5.78.006.24.112M7 12v3h10V9H7v3m9 0v2H8v-4h8v2M2 13v2h1v-4H2v2m19 0v2h1v-4h-1v2M7.664 17.063a1.005 1.005 0 0 0-.533.448c-.095.161-.111.233-.111.489s.016.328.111.489a.993.993 0 0 0 1.57.212.984.984 0 0 0 0-1.402.996.996 0 0 0-1.037-.236m8 0a1.005 1.005 0 0 0-.533.448c-.095.161-.111.233-.111.489s.016.328.111.489a.993.993 0 0 0 1.57.212c.18-.18.299-.459.299-.701 0-.674-.705-1.168-1.336-.937" fill="currentColor" fill-rule="evenodd"/></svg>