<svg xmlns="http://www.w3.org/2000/svg" width="24" height="24" fill="none"><path d="M11.561 1.67c-2.087 2.222-2.081 5.469.014 7.672l.379.398.349-.346.349-.347-.357-.393a7.365 7.365 0 0 1-.546-.68 4.523 4.523 0 0 1 0-4.948c.104-.157.35-.463.546-.679l.357-.394-.335-.336c-.185-.186-.348-.337-.363-.337-.015 0-.192.176-.393.39m9.122-.053-.335.336.357.394c.196.216.442.522.546.679a4.527 4.527 0 0 1 .332 4.351c-.196.428-.448.796-.873 1.27l-.361.402.349.345.348.346.379-.4c.842-.888 1.34-1.897 1.516-3.069a5.484 5.484 0 0 0-.857-3.793c-.237-.356-.967-1.198-1.038-1.198-.015 0-.178.151-.363.337M15.96 3.062a2.885 2.885 0 0 0-1.128.577c-.3.268-.593.713-.714 1.083-.084.254-.098.372-.096.798.002.439.016.536.111.8.262.727.866 1.322 1.578 1.554l.289.095V15h-5.45c-3.727 0-5.564.014-5.81.044a4.494 4.494 0 0 0-2.601 1.259 3.908 3.908 0 0 0-1.058 1.971c-.351 1.722.574 3.474 2.251 4.267.429.203.93.356 1.365.416.431.06 14.175.06 14.606 0 1.524-.212 2.812-1.156 3.383-2.481.881-2.043-.189-4.349-2.405-5.185-.592-.223-.855-.258-2.111-.28l-1.17-.02V7.969l.289-.095c.712-.232 1.315-.826 1.579-1.554.097-.268.108-.355.108-.82 0-.465-.011-.552-.108-.82a2.535 2.535 0 0 0-2.908-1.618m1.159 1.081c.298.136.608.449.746.753.095.209.111.296.111.604s-.016.395-.111.604c-.14.309-.448.616-.765.764-.207.097-.29.112-.6.112s-.393-.015-.6-.112a1.675 1.675 0 0 1-.765-.764c-.095-.208-.111-.296-.111-.604-.001-.309.015-.394.11-.6.193-.422.615-.771 1.04-.861.267-.057.696-.009.945.104m2.461 11.968c1.386.392 2.315 1.445 2.406 2.725.104 1.465-1.063 2.83-2.656 3.104-.31.054-1.236.06-7.492.051L4.7 21.98l-.352-.11c-1.005-.316-1.724-.918-2.108-1.764-.778-1.714.411-3.674 2.454-4.047.23-.042 1.693-.051 7.426-.046l7.14.007.32.091M5 19.02v.5h2v-1H5v.5m4 0v.5h2v-1H9v.5" fill-rule="evenodd" fill="#000"/></svg>