<svg xmlns="http://www.w3.org/2000/svg" width="16" height="16" fill="none"><path d="M6.651.567c-.517.54-.813.953-1.092 1.526a5.492 5.492 0 0 0 .57 5.747c.083.11.306.359.496.554l.345.355.354-.353.354-.353-.3-.308a5.12 5.12 0 0 1-.717-.895 4.663 4.663 0 0 1-.611-1.68 6.561 6.561 0 0 1 .001-1.307 4.522 4.522 0 0 1 .623-1.706c.213-.344.328-.49.678-.862l.31-.329-.344-.345a5.547 5.547 0 0 0-.361-.344c-.01 0-.147.135-.306.3m7.017.045-.345.345.306.315c.46.475.715.833.945 1.328.281.608.411 1.202.412 1.887a4.231 4.231 0 0 1-.512 2.104c-.205.394-.447.723-.832 1.131l-.305.323.354.352.353.353.284-.296c.638-.666.998-1.205 1.283-1.923.237-.597.356-1.18.38-1.851a5.43 5.43 0 0 0-1.089-3.475c-.166-.224-.831-.938-.873-.938a5.71 5.71 0 0 0-.361.345m-3.513 1.415c-.862.137-1.555.652-1.916 1.423a2.349 2.349 0 0 0-.23.923 2.49 2.49 0 0 0 1.747 2.508l.231.075.007 1.522L10 10H6.434c-2.437 0-3.643.009-3.807.03a2.997 2.997 0 0 0-2.619 3.114c.033.667.3 1.337.723 1.811.44.493.906.78 1.56.961l.256.071h10.906l.256-.071c.654-.181 1.12-.468 1.56-.961.423-.474.69-1.144.723-1.811a2.997 2.997 0 0 0-2.619-3.114c-.138-.017-.69-.03-1.3-.03h-1.06V6.942l.14-.032c.646-.145 1.325-.721 1.621-1.374a2.58 2.58 0 0 0 .117-1.755 2.509 2.509 0 0 0-1.794-1.704 3.125 3.125 0 0 0-.942-.05m.737 1.027a1.6 1.6 0 0 1 .942.759c.26.52.202 1.165-.144 1.592-.345.424-.763.617-1.277.587a1.491 1.491 0 0 1-1.359-1.1 2.037 2.037 0 0 1-.002-.782c.133-.499.55-.92 1.046-1.057.18-.049.604-.048.794.001m2.561 7.999c.103.022.295.093.427.159.405.202.706.503.908.908.145.29.198.526.198.88 0 .573-.174.995-.579 1.41a1.934 1.934 0 0 1-1.198.576c-.323.037-10.095.037-10.418 0a1.934 1.934 0 0 1-1.198-.576c-.405-.415-.579-.837-.579-1.41 0-.354.053-.59.198-.88.202-.405.503-.706.908-.908a2.17 2.17 0 0 1 .413-.157c.266-.057 10.648-.059 10.92-.002M2.987 13v.493h2.026v-.986H2.987V13M6 13v.493h2v-.986H6V13" fill-rule="evenodd" fill="#000"/></svg>