<svg xmlns="http://www.w3.org/2000/svg" width="24" height="24" fill="none" viewBox="0 0 24 24"><path fill="currentColor" d="M3.273 1A2.273 2.273 0 0 0 1 3.273v7.454a2.273 2.273 0 0 0 2 2.257v2.45L6.651 13H8v-1H6.349L4 13.566V12h-.727A1.273 1.273 0 0 1 2 10.727V3.273A1.273 1.273 0 0 1 3.273 2h8.454A1.273 1.273 0 0 1 13 3.273V7h1V3.273A2.273 2.273 0 0 0 11.727 1H3.273Z"/><path fill="currentColor" fill-rule="evenodd" d="m17.552 16.751.317 1.2h1.898L17.645 11.5h-2.316l-2.096 6.451h1.907l.325-1.2h2.087Zm-.637-2.482.277 1.054h-1.367a74.12 74.12 0 0 0 .517-2.026c.077-.338.129-.589.156-.738.031.161.092.428.182.8.09.372.168.675.235.91Z" clip-rule="evenodd"/><path fill="currentColor" fill-rule="evenodd" d="M12.205 9h-.008A2.277 2.277 0 0 0 10 11.34v7.32A2.277 2.277 0 0 0 12.197 21h5.152l3.65 2.434v-2.45a2.277 2.277 0 0 0 2-2.325v-7.318A2.276 2.276 0 0 0 20.804 9L20.795 9h-8.59Zm9.452 10.596c-.23.245-.546.39-.88.404H20v1.566L17.65 20h-5.428A1.277 1.277 0 0 1 11 18.683v-7.366A1.277 1.277 0 0 1 12.223 10h8.553A1.277 1.277 0 0 1 22 11.317v7.366c.011.338-.113.666-.343.913ZM10.787 5.613a10.17 10.17 0 0 0-1-.042c-.1.47-.26.924-.476 1.352a5.162 5.162 0 0 1-.777 1.134c.463.27 1.466.638 1.466.638-.3.389-.5 1.252-.5 1.252a8.641 8.641 0 0 1-1.921-1.029 8.993 8.993 0 0 1-2.787 1.29 4.065 4.065 0 0 0-.673-1.24 7.64 7.64 0 0 0 2.486-.918 6.126 6.126 0 0 1-.9-1.281 6.185 6.185 0 0 1-.483-1.2c-.413 0-.652.014-1 .042V4.345c.337.036.677.053 1.016.049H6.78v-.42a2.056 2.056 0 0 0-.042-.434h1.408c-.028.14-.042.284-.042.427v.427h1.667c.34.004.679-.013 1.016-.049v1.268Zm-4.224-.042c.181.64.518 1.223.981 1.7a3.96 3.96 0 0 0 .875-1.7H6.563Z" clip-rule="evenodd"/></svg>