<svg xmlns="http://www.w3.org/2000/svg" width="16" height="16" fill="currentColor">
  <path d="m6.92 2.73 1.28.38c-.42 1.2-.963 2.24-1.63 3.12a9.584 9.584 0 0 1-2.38 2.23c-.913.6-1.97 1.09-3.17 1.47a2.133 2.133 0 0 0-.2-.38c-.093-.147-.19-.293-.29-.44a2.795 2.795 0 0 0-.27-.35c1.153-.307 2.163-.723 3.03-1.25a7.963 7.963 0 0 0 2.2-1.96c.6-.787 1.077-1.727 1.43-2.82Zm-3.87.08a9.37 9.37 0 0 0 1.41 2.67c.6.787 1.34 1.453 2.22 2 .887.547 1.92.953 3.1 1.22a3.805 3.805 0 0 0-.31.36c-.107.147-.21.293-.31.44-.1.153-.18.287-.24.4-1.247-.32-2.32-.787-3.22-1.4a9.11 9.11 0 0 1-2.29-2.26c-.62-.887-1.14-1.91-1.56-3.07l1.2-.36ZM.44 2.09H9.6v1.17H.44V2.09ZM4.38.5h1.23v2.3H4.38V.5ZM8.069 16l2.982-9.156h1.904L15.937 16h-1.708l-1.4-4.872c-.15-.485-.294-.985-.434-1.498l-.392-1.526h-.056a46.452 46.452 0 0 1-.392 1.54c-.131.504-.271.999-.42 1.484L9.72 16H8.069Zm1.764-2.478v-1.274h4.312v1.274H9.833Z"/>
</svg>
