<svg xmlns="http://www.w3.org/2000/svg" width="16" height="16" fill="none" viewBox="0 0 16 16">
  <g clip-path="url(#a)">
    <path fill="#1D1D1D" fill-rule="evenodd" d="m7.671.964-.353.354a4.5 4.5 0 0 0 0 6.364l.353.354-.707.707-.354-.353a5.5 5.5 0 0 1 0-7.78l.354-.353.707.707Zm6.365-.707.354.353a5.5 5.5 0 0 1 0 7.78l-.354.353-.707-.707.353-.354a4.5 4.5 0 0 0 0-6.364L13.33.964l.707-.707ZM10.5 3a1.5 1.5 0 1 0 0 3 1.5 1.5 0 0 0 0-3ZM8 4.5a2.5 2.5 0 1 1 3 2.45V10h2a3 3 0 0 1 0 6H3a3 3 0 1 1 0-6h7V6.95A2.5 2.5 0 0 1 8 4.5ZM3 11a2 2 0 0 0 0 4h10a2 2 0 0 0 0-4H3Zm0 1.5h2v1H3v-1Zm3 0h2v1H6v-1Z" clip-rule="evenodd"/>
  </g>
  <defs>
    <clipPath id="a">
      <path fill="#fff" d="M0 0h16v16H0z"/>
    </clipPath>
  </defs>
</svg>
