<svg xmlns="http://www.w3.org/2000/svg" width="24" height="24" fill="none" viewBox="0 0 24 24"><path stroke="currentColor" stroke-linecap="square" stroke-miterlimit="10" d="M6.5 19h-1m5 0h-1m7-3.5v-8m0 0a2 2 0 1 0 0-4 2 2 0 0 0 0 4Zm-4.536 1.536a5.001 5.001 0 0 1 0-7.072m9.072 0a5.001 5.001 0 0 1 0 7.072M18.682 22.5c1.013 0 1.984-.369 2.7-1.025.716-.657 1.118-1.547 1.118-2.475 0-.928-.402-1.819-1.118-2.475-.716-.656-1.688-1.025-2.7-1.025H5.318c-1.012 0-1.984.369-2.7 1.025C1.902 17.182 1.5 18.072 1.5 19c0 .928.402 1.819 1.118 2.475.716.656 1.688 1.025 2.7 1.025h13.364Z"/></svg>