<svg xmlns="http://www.w3.org/2000/svg" width="16" height="16" fill="none"><path d="M4.987 1v1H.985l.008.5L1 3l1.015.007 1.015.007.059.356a6.61 6.61 0 0 0 1.518 3.236l.143.166-.24.158c-.937.615-2.439 1.097-3.42 1.097H.96l.015.18c.008.099.024.321.035.493.012.172.026.318.032.324.02.019.668-.036.931-.079.32-.053 1.01-.226 1.307-.327a7.89 7.89 0 0 0 1.847-.903l.367-.246.24.173c.684.493 1.41.829 2.317 1.074.213.057.302.071.309.049.068-.206.245-.915.232-.927a4.113 4.113 0 0 0-.379-.116c-.684-.192-1.259-.448-1.745-.78l-.224-.152.093-.109c.466-.543.742-.965 1.015-1.548a7.344 7.344 0 0 0 .558-1.842l.045-.278H10V2H6V0H4.987v1m1.946 2.052c0 .117-.154.77-.252 1.068-.233.709-.645 1.428-1.09 1.9l-.081.086-.065-.059a3.649 3.649 0 0 1-.231-.274 5.595 5.595 0 0 1-.987-1.893c-.069-.239-.173-.731-.174-.82 0-.044.087-.047 1.44-.047 1.233 0 1.44.006 1.44.039m4.485 2.388c-.253.559-4.058 9.277-4.058 9.299 0 .039.879.42.904.391.011-.013.325-.722.698-1.577L9.64 12l1.863.006 1.863.007.681 1.56c.375.858.686 1.565.691 1.572.01.012.915-.375.915-.392 0-.015-4.08-9.341-4.121-9.42-.034-.065-.036-.064-.114.107m.82 3.995c.368.841.669 1.54.669 1.553 0 .016-.558.025-1.417.025-1.122 0-1.413-.007-1.403-.033l.673-1.54.701-1.6.04-.093.034.08c.018.044.335.767.703 1.608" fill-rule="evenodd" fill="#000"/></svg>