<svg xmlns="http://www.w3.org/2000/svg" width="16" height="16" fill="none"><path d="M.36.023a.576.576 0 0 0-.281.211L.013.329.006 6.931c-.004 3.631-.001 6.642.008 6.691.019.107.181.293.298.342.111.046 3.238.053 3.36.008a.66.66 0 0 0 .291-.284.492.492 0 0 0-.004-.375.426.426 0 0 0-.231-.249c-.093-.048-.176-.051-1.407-.051H1.013V6h1.295c1.421 0 1.393.003 1.55-.163a.46.46 0 0 0 .101-.524.426.426 0 0 0-.231-.249c-.093-.048-.176-.051-1.407-.051H1.013V2.775c0-1.514-.009-2.283-.029-2.374A.59.59 0 0 0 .885.182.524.524 0 0 0 .36.023m5.92 3.032a.445.445 0 0 0-.23.238c-.046.101-.049.226-.049 2.205-.001 1.416.008 2.123.027 2.174a.66.66 0 0 0 .284.291c.129.055 9.247.055 9.376 0a.66.66 0 0 0 .284-.291c.019-.051.028-.757.028-2.168 0-1.823-.005-2.105-.041-2.191a.426.426 0 0 0-.231-.249c-.096-.049-.238-.051-4.734-.051-4.15.001-4.642.005-4.714.042m8.707 2.452v1.506H7.013V4h7.974v1.507M6.28 11.055a.445.445 0 0 0-.23.238c-.046.101-.049.226-.049 2.205-.001 1.416.008 2.123.027 2.174a.66.66 0 0 0 .284.291c.129.055 9.247.055 9.376 0a.66.66 0 0 0 .284-.291c.019-.051.028-.757.028-2.168 0-1.823-.005-2.105-.041-2.191a.426.426 0 0 0-.231-.249c-.096-.049-.238-.051-4.734-.051-4.15.001-4.642.005-4.714.042m8.707 2.452v1.506H7.013V12h7.974v1.507" fill-rule="evenodd" fill="#000"/></svg>