<svg xmlns="http://www.w3.org/2000/svg" width="24" height="24" fill="none"><path d="M3.252 1.078C2.978 1.245 3 .333 3 11.508c0 9.959.001 10.114.078 10.24.162.265-.025.252 3.62.252H10v.81c0 .733.008.822.078.938.165.27-.267.252 5.922.252s5.757.018 5.922-.252c.074-.123.078-.216.078-2.248s-.004-2.125-.078-2.248c-.165-.27.267-.252-5.922-.252s-5.757-.018-5.922.252c-.07.116-.078.205-.078.938V21H4v-7h6v.81c0 .733.008.822.078.938.165.27-.268.252 5.93.252 5.495 0 5.615-.002 5.74-.078.258-.158.252-.1.252-2.422s.006-2.264-.252-2.422C21.623 11.002 21.504 11 16 11c-5.504 0-5.623.002-5.748.078-.232.142-.252.229-.252 1.12V13H4V6h6v.81c0 .733.008.822.078.938.165.27-.268.252 5.93.252 5.495 0 5.615-.002 5.74-.078.258-.158.252-.1.252-2.422s.006-2.264-.252-2.422C21.623 3.002 21.504 3 16 3c-5.504 0-5.623.002-5.748.078-.232.142-.252.229-.252 1.12V5H4V3.19c0-1.725-.004-1.816-.078-1.938a.478.478 0 0 0-.67-.174M21 5.5V7H11V4h10v1.5m0 8V15H11v-3h10v1.5m0 8V23H11v-3h10v1.5" fill-rule="evenodd" fill="#000"/></svg>