<svg xmlns="http://www.w3.org/2000/svg" width="16" height="16" fill="none"><path d="M.28 5.055a.445.445 0 0 0-.23.238.508.508 0 0 0-.009.408c.029.069.651.709 2.06 2.12 1.111 1.111 2.064 2.052 2.118 2.09a.53.53 0 0 0 .438.063c.083-.027.458-.388 1.97-1.897l1.867-1.863 2.893 2.893L14.28 12l-2.44.001c-2.315 0-2.445.003-2.547.049a.445.445 0 0 0-.268.32.5.5 0 0 0 .036.367.707.707 0 0 0 .293.243c.04.011 1.471.02 3.179.02 3.059 0 3.108-.001 3.198-.053a.85.85 0 0 0 .173-.156l.083-.103.008-3.124c.005-2.155-.001-3.154-.021-3.222-.041-.142-.238-.308-.392-.331a.493.493 0 0 0-.565.384c-.021.099-.03.842-.03 2.506v2.365L11.9 8.182C10.202 6.486 8.775 5.08 8.728 5.056a.686.686 0 0 0-.426-.015c-.042.016-.901.854-1.935 1.887l-1.86 1.858L2.66 6.942C1.644 5.929.775 5.08.728 5.056a.64.64 0 0 0-.448-.001" fill-rule="evenodd" fill="#000"/></svg>