<svg xmlns="http://www.w3.org/2000/svg" width="24" height="24" fill="none"><path d="M13.3 7.046c-.044.024-1.367 1.328-2.94 2.899L7.5 12.8l-2.34-2.343c-1.287-1.288-2.389-2.368-2.448-2.4-.388-.206-.864.248-.668.636.063.124 5.113 5.18 5.244 5.25a.452.452 0 0 0 .405.013c.048-.024 1.369-1.324 2.936-2.889l2.849-2.845.196.219c.107.12 1.88 2.091 3.94 4.379l3.744 4.16-3.009.02c-3.272.022-3.123.01-3.271.253a.45.45 0 0 0 0 .495c.163.266-.061.252 3.965.252h3.646l.156-.155.155-.156v-3.654c0-3.555-.002-3.659-.078-3.783a.477.477 0 0 0-.669-.174c-.242.148-.231.008-.253 3.179l-.02 2.916-4.084-4.537c-2.246-2.496-4.132-4.56-4.192-4.587a.483.483 0 0 0-.404-.003" fill-rule="evenodd" fill="#000"/></svg>