<svg xmlns="http://www.w3.org/2000/svg" width="16" height="16" fill="none"><path d="M12.36 3.012c-2.309.011-3.054.022-3.096.047-.089.051-.222.215-.239.295a2.71 2.71 0 0 1-.026.105c-.019.063.061.304.124.372a.65.65 0 0 0 .17.119c.102.046.232.049 2.547.049L14.28 4l-2.893 2.893-2.893 2.893-1.867-1.863c-1.513-1.511-1.887-1.87-1.97-1.897a.535.535 0 0 0-.452.078c-.061.043-1.014.982-2.117 2.087C.69 9.592.07 10.23.041 10.299a.533.533 0 0 0 .128.578c.136.126.395.151.578.057.037-.018.897-.863 1.913-1.877l1.847-1.843L6.38 9.085c1.814 1.811 1.877 1.871 2.001 1.896a.54.54 0 0 0 .366-.046c.037-.019 1.455-1.422 3.153-3.118l3.087-3.083v2.365c0 1.605.009 2.409.029 2.5a.59.59 0 0 0 .099.219c.134.16.386.224.573.146.117-.049.279-.235.298-.342.009-.049.013-1.489.008-3.2l-.007-3.11-.083-.103a.471.471 0 0 0-.371-.202c-.073-.005-1.501-.003-3.173.005" fill-rule="evenodd" fill="#000"/></svg>