<svg xmlns="http://www.w3.org/2000/svg" width="24" height="24" fill="none"><path d="M15.252 6.078a.477.477 0 0 0-.174.669c.148.243-.001.231 3.271.253l3.009.02-3.744 4.16c-2.06 2.288-3.833 4.259-3.94 4.379l-.196.219-2.849-2.845c-1.567-1.565-2.888-2.865-2.936-2.889a.464.464 0 0 0-.386 0c-.124.063-5.18 5.113-5.25 5.244-.213.401.254.868.655.655.059-.032 1.161-1.112 2.448-2.4L7.5 11.2l2.881 2.881c2.567 2.566 2.898 2.884 3.03 2.905a.56.56 0 0 0 .272-.027c.083-.035 1.473-1.55 4.211-4.592l4.086-4.54.02 2.916c.022 3.171.011 3.031.253 3.179a.45.45 0 0 0 .495 0c.266-.163.252.061.252-3.965V6.311l-.155-.156L22.689 6h-3.654c-3.555 0-3.659.002-3.783.078" fill-rule="evenodd" fill="#000"/></svg>