<svg xmlns="http://www.w3.org/2000/svg" width="16" height="16" fill="currentColor" viewBox="0 0 16 16">
  <path fill-rule="evenodd" d="M5.49.902c.068.34.282.877.69 1.322.397.43.977.776 1.82.776.849 0 1.473-.35 1.89-.784.434-.453.61-.96.61-1.216V.5H13A2.5 2.5 0 0 1 15.5 3v6H13v6.5H3V9H.5V3A2.5 2.5 0 0 1 3 .5h2.41l.08.402ZM3 1.5A1.5 1.5 0 0 0 1.5 3v5H3V6.5h1v8h8v-8h1V8h1.5V3A1.5 1.5 0 0 0 13 1.5h-1.572a3.33 3.33 0 0 1-.818 1.41C10.027 3.516 9.15 4 8 4c-1.157 0-1.994-.488-2.556-1.099A3.981 3.981 0 0 1 4.62 1.5H3Z" clip-rule="evenodd"/>
</svg>
