<svg xmlns="http://www.w3.org/2000/svg" width="16" height="16" fill="none"><path d="M1.188 1.087c.027.04 1.222 1.781 2.658 3.869a768.264 768.264 0 0 1 2.615 3.816c.003.011-1.188 1.409-2.648 3.106a456.314 456.314 0 0 0-2.662 3.11c-.005.015.224.025.579.025h.588l.091-.1c.05-.055 1.102-1.276 2.338-2.713A327.472 327.472 0 0 1 7.01 9.582c.009-.003.856 1.218 1.882 2.713l1.864 2.718h2.022c1.371 0 2.022-.009 2.022-.027 0-.015-1.242-1.835-2.761-4.045l-2.76-4.017.063-.069c.155-.167 5.005-5.815 5.005-5.827 0-.008-.267-.015-.594-.014h-.593l-2.2 2.559a286.754 286.754 0 0 1-2.213 2.559c-.008 0-.805-1.151-1.771-2.559l-1.758-2.56H1.141l.047.074M8.843 7.94c2.314 3.311 4.236 6.059 4.272 6.107l.065.086H11.319L7.066 8.051a2362.348 2362.348 0 0 1-4.262-6.107c-.005-.014.379-.024.912-.024h.92l4.207 6.02" fill="currentColor" fill-rule="evenodd"/></svg>