<svg xmlns="http://www.w3.org/2000/svg" width="24" height="24" fill="none"><path d="M2.252 2.078c-.217.133-.311.41-.208.615.063.124 20.113 20.18 20.244 20.25.401.213.868-.254.655-.655-.07-.131-20.126-20.181-20.25-20.244a.458.458 0 0 0-.441.034m14.688-.037a5.54 5.54 0 0 0-2.438.907c-.333.221-.62.482-1.672 1.527-.944.936-1.28 1.295-1.307 1.393-.101.364.245.713.604.61.089-.026.482-.388 1.31-1.211.651-.645 1.306-1.266 1.457-1.379.151-.113.457-.295.68-.405 2.248-1.108 4.925-.207 5.985 2.015a4.548 4.548 0 0 1 .02 3.813c-.293.634-.528.922-1.808 2.213-.839.846-1.224 1.263-1.249 1.349-.103.358.247.704.609.604.098-.027.451-.358 1.373-1.287 1.28-1.29 1.518-1.57 1.829-2.15 1.634-3.051.118-6.801-3.151-7.798-.626-.19-1.579-.276-2.242-.201m-.64 6.005c-.125.068-1.179 1.121-1.243 1.242-.205.388.248.864.636.668.125-.064 1.181-1.115 1.25-1.244.206-.389-.262-.874-.643-.666M4.536 12.77c-.685.687-1.345 1.385-1.467 1.55a5.522 5.522 0 0 0-.886 4.633c.555 2.134 2.26 3.657 4.466 3.988 1.372.206 2.869-.165 4.011-.994.154-.111.843-.761 1.53-1.443 1.326-1.316 1.363-1.362 1.286-1.641-.06-.215-.241-.343-.486-.343h-.205l-1.202 1.194c-1.284 1.273-1.548 1.498-2.095 1.779-1.741.894-3.872.568-5.217-.8-1.281-1.302-1.625-3.327-.85-5.004.293-.634.528-.922 1.808-2.213.839-.846 1.224-1.263 1.249-1.349a.5.5 0 0 0-.162-.504c-.097-.082-.165-.103-.329-.103H5.78l-1.244 1.25M9.3 15.046c-.125.068-1.179 1.121-1.243 1.242-.205.388.248.864.636.668.125-.064 1.181-1.115 1.25-1.244.206-.389-.262-.874-.643-.666" fill-rule="evenodd" fill="#000"/></svg>