<svg xmlns="http://www.w3.org/2000/svg" width="16" height="16" fill="currentColor" viewBox="0 0 16 16">
  <path d="M3.95 6.071 1.828 8.192a4 4 0 1 0 5.657 5.657l2.122-2.121-.707-.707-2.122 2.121A3 3 0 1 1 2.536 8.9l2.12-2.122-.706-.707ZM13.85 1.828a4 4 0 0 0-5.658 0L6.072 3.95l.706.707L8.9 2.536a3 3 0 1 1 4.242 4.242L11.021 8.9l.707.707 2.121-2.122a4 4 0 0 0 0-5.657Z"/>
  <path fill-rule="evenodd" d="m4.303 10.667 6.364-6.364.707.707-6.364 6.364-.707-.707ZM2.354 1.646l3 3-.708.708-3-3 .708-.708ZM11.354 10.646l3 3-.707.708-3-3 .707-.707Z" clip-rule="evenodd"/>
</svg>
