<svg xmlns="http://www.w3.org/2000/svg" width="24" height="24" fill="none"><path d="M11.82 1.041A5.489 5.489 0 0 0 7.902 3.46a4.651 4.651 0 0 0-.595 1.22c-.29.856-.28.735-.296 3.67L6.996 11h-1.8c-1.987 0-1.962-.003-2.118.252-.076.125-.078.249-.078 6.248 0 5.999.002 6.123.078 6.248.167.274-.638.252 9.422.252s9.255.022 9.422-.252c.076-.125.078-.249.078-6.248 0-5.999-.002-6.123-.078-6.248-.166-.272.394-.252-7.12-.252H8V8.63c0-1.482.017-2.505.044-2.73.296-2.409 2.46-4.114 4.912-3.869 2.071.208 3.678 1.727 3.986 3.769.032.209.058.479.058.6.001.266.058.389.236.509a.447.447 0 0 0 .512.013c.261-.16.309-.464.193-1.233-.308-2.05-1.649-3.678-3.612-4.383-.664-.239-1.737-.352-2.509-.265M21 17.5V23H4V12h17v5.5m-9.04-2.438a2.885 2.885 0 0 0-1.128.577c-.3.268-.593.713-.714 1.083-.084.254-.098.372-.096.798.002.439.016.536.111.8a2.585 2.585 0 0 0 1.547 1.547c.269.098.354.109.82.109.465 0 .552-.011.82-.108a2.589 2.589 0 0 0 1.547-1.548c.098-.269.109-.354.109-.82 0-.465-.011-.552-.108-.82a2.535 2.535 0 0 0-2.908-1.618m1.159 1.081c.298.136.608.449.746.753.095.209.111.296.111.604s-.016.395-.111.604c-.14.309-.448.616-.765.764-.207.097-.29.112-.6.112s-.393-.015-.6-.112a1.675 1.675 0 0 1-.765-.764c-.095-.208-.111-.296-.111-.604-.001-.309.015-.394.11-.6.193-.422.615-.771 1.04-.861.267-.057.696-.009.945.104" fill-rule="evenodd" fill="#000"/></svg>