<svg xmlns="http://www.w3.org/2000/svg" width="16" height="16" fill="none"><path d="M7.613.016C7.016.101 6.62.22 6.181.444a3.993 3.993 0 0 0-2.048 2.543c-.119.466-.132.645-.133 1.86V6h-.82c-.918.001-1.075.02-1.367.166-.227.115-.526.407-.634.622C.986 7.172 1 6.844 1 11c0 3.546.002 3.741.049 3.892.153.496.506.872.971 1.032l.18.063h11.6l.18-.063c.454-.156.812-.53.961-1.004l.059-.187V11c0-4.156.014-3.828-.179-4.212-.108-.215-.407-.507-.634-.622-.346-.173-.11-.165-4.862-.166H5.01l.01-1.273c.01-1.197.015-1.286.068-1.479.29-1.053 1.119-1.887 2.132-2.144.646-.163 1.344-.123 1.902.11a3.01 3.01 0 0 1 1.719 1.828c.081.238.145.327.288.396a.492.492 0 0 0 .71-.339c.029-.124.026-.15-.054-.383-.478-1.4-1.65-2.396-3.132-2.663-.168-.031-.903-.057-1.04-.037m6.115 7.048a.426.426 0 0 1 .231.249c.036.087.041.518.04 3.693 0 3.429-.002 3.599-.049 3.702a.479.479 0 0 1-.351.276c-.191.041-11.007.041-11.198 0a.479.479 0 0 1-.351-.276c-.047-.103-.049-.272-.049-3.708 0-3.437.002-3.605.049-3.707a.445.445 0 0 1 .23-.238c.072-.037.657-.041 5.714-.042 5.477 0 5.638.002 5.734.051M7.529 9.055c-.466.102-.949.449-1.224.879a2.022 2.022 0 0 0 0 2.132c.278.434.747.77 1.236.884.232.054.686.054.918 0 .489-.114.958-.45 1.236-.884a2.022 2.022 0 0 0 0-2.132c-.282-.44-.761-.779-1.244-.881a2.94 2.94 0 0 0-.922.002m.7.98c.696.146.996 1.018.545 1.587a1.04 1.04 0 0 1-.466.331 1.522 1.522 0 0 1-.616 0 1.003 1.003 0 0 1-.224-1.794 1.12 1.12 0 0 1 .519-.156c.044-.001.153.013.242.032" fill-rule="evenodd" fill="#000"/></svg>