<svg xmlns="http://www.w3.org/2000/svg" width="16" height="16" fill="currentColor" viewBox="0 0 16 16">
  <path fill-rule="evenodd" d="M2.5 7a.5.5 0 0 0-.5.5v7a.5.5 0 0 0 .5.5h11a.5.5 0 0 0 .5-.5v-7a.5.5 0 0 0-.5-.5h-11ZM1 7.5A1.5 1.5 0 0 1 2.5 6h11A1.5 1.5 0 0 1 15 7.5v7a1.5 1.5 0 0 1-1.5 1.5h-11A1.5 1.5 0 0 1 1 14.5v-7Z" clip-rule="evenodd"/>
  <path fill-rule="evenodd" d="M8 1a3 3 0 0 0-3 3v3H4V4a4 4 0 0 1 7.834-1.143l.143.48-.959.285-.142-.48A3 3 0 0 0 8 1ZM8 10a1 1 0 1 0 0 2 1 1 0 0 0 0-2Zm-2 1a2 2 0 1 1 4 0 2 2 0 0 1-4 0Z" clip-rule="evenodd"/>
</svg>
