<svg xmlns="http://www.w3.org/2000/svg" width="24" height="24" fill="none"><path d="M4.499 3.04a3.05 3.05 0 0 0-2.385 2.12c-.135.434-.135 1.246 0 1.68A3.086 3.086 0 0 0 4.16 8.886c.258.081.379.094.86.091.488-.003.6-.016.867-.105A3.095 3.095 0 0 0 7.886 6.84c.135-.434.135-1.246 0-1.68-.305-.981-1.076-1.753-2.025-2.031-.361-.106-1.029-.149-1.362-.089M10 3.5V4h12V3H10v.5m-4.477.573a2.011 2.011 0 0 1 1.27 2.807c-.155.318-.566.745-.863.895a2.07 2.07 0 0 1-1.422.165c-.685-.178-1.259-.746-1.435-1.417a2.001 2.001 0 0 1 2.45-2.45M10 6.5V7h12V6H10v.5m0 3v.5h12V9H10v.5m-5.501 4.54a3.05 3.05 0 0 0-2.385 2.12c-.135.434-.135 1.246 0 1.68a3.086 3.086 0 0 0 2.046 2.046c.434.135 1.246.135 1.68 0a3.086 3.086 0 0 0 2.046-2.046c.135-.434.135-1.246 0-1.68-.305-.981-1.076-1.753-2.025-2.031-.361-.106-1.029-.149-1.362-.089M10 14.5v.5h12v-1H10v.5m-4.477.573a2.011 2.011 0 0 1 1.444 1.617c.1.653-.094 1.243-.564 1.714C6.002 18.807 5.547 19 5 19c-.515 0-.962-.178-1.347-.535-1.33-1.236-.464-3.46 1.347-3.46.143 0 .378.031.523.068M10 17.5v.5h12v-1H10v.5m0 3v.5h12v-1H10v.5" fill-rule="evenodd" fill="#000"/></svg>