<svg xmlns="http://www.w3.org/2000/svg" width="16" height="16" fill="none"><path d="M2.538 1.054c-.621.135-1.226.68-1.426 1.286a2.017 2.017 0 0 0 .843 2.366c.593.382 1.497.382 2.09 0a2.017 2.017 0 0 0 .843-2.366c-.203-.613-.806-1.153-1.439-1.287a2.9 2.9 0 0 0-.911.001M6 1.507V2h9.013v-.987H6v.494m-2.587.588c.198.091.405.3.497.502.063.139.074.198.074.403 0 .205-.011.264-.074.403-.093.206-.299.41-.51.509-.138.064-.193.075-.4.075-.207 0-.262-.011-.4-.075a1.118 1.118 0 0 1-.51-.509c-.063-.139-.074-.198-.074-.403 0-.206.01-.263.073-.4.129-.281.411-.514.694-.574a1.2 1.2 0 0 1 .63.069M6 5.507V6h9.013v-.987H6v.494m-3.267 4.508a8.223 8.223 0 0 1-.2.041c-.199.04-.552.208-.739.352-.378.29-.64.691-.744 1.133a2.621 2.621 0 0 0 0 .918 2.074 2.074 0 0 0 1.188 1.396 2.13 2.13 0 0 0 1.524 0 2.074 2.074 0 0 0 1.188-1.396 2.621 2.621 0 0 0 0-.918 2.062 2.062 0 0 0-1.436-1.478c-.14-.038-.679-.072-.781-.048M6 10.507v.506l4.5-.006L15 11l.007-.5.008-.5H6v.507m-2.635.57c.454.187.691.619.608 1.11A.98.98 0 0 1 3 12.99a.985.985 0 0 1-.974-.799c-.113-.632.337-1.176.974-1.176.163 0 .249.014.365.062M6 14.507v.506l4.5-.006L15 15l.007-.5.008-.5H6v.507" fill-rule="evenodd" fill="#000"/></svg>