<svg xmlns="http://www.w3.org/2000/svg" width="24" height="24" fill="none"><path d="M12.3 2.046c-.125.067-4.178 4.12-4.243 4.242-.206.388.248.864.636.668.048-.024.812-.767 1.697-1.65L12 3.7v6.46c0 6.337.002 6.462.078 6.588.2.328.644.328.844 0 .076-.126.078-.251.078-6.588V3.7l1.61 1.606c.885.883 1.649 1.626 1.697 1.65.388.196.842-.28.636-.668-.07-.13-4.126-4.181-4.25-4.244a.48.48 0 0 0-.393.002m-8.34 8.016a2.885 2.885 0 0 0-1.128.577c-.3.268-.593.713-.714 1.083l-.098.298v9l.111.3a2.604 2.604 0 0 0 1.549 1.549l.3.111h17.04l.3-.111a2.604 2.604 0 0 0 1.549-1.549l.111-.3v-9.04l-.111-.3a2.537 2.537 0 0 0-1.249-1.403c-.528-.261-.66-.276-2.56-.276-1.596-.001-1.686.003-1.808.077a.477.477 0 0 0-.174.669c.143.235.11.231 2.022.253l1.76.02.24.112c.315.147.624.455.767.764l.113.244v8.72l-.113.244a1.698 1.698 0 0 1-.767.764l-.24.112H4.14l-.244-.113a1.698 1.698 0 0 1-.764-.767l-.112-.24v-8.72l.112-.24c.147-.315.455-.624.764-.767l.244-.113L5.9 11c1.912-.022 1.879-.018 2.022-.253a.477.477 0 0 0-.174-.669c-.122-.074-.209-.078-1.828-.075-1.294.003-1.762.017-1.96.059" fill-rule="evenodd" fill="#000"/></svg>