<svg xmlns="http://www.w3.org/2000/svg" width="16" height="16" fill="none"><path d="M7.796.052c-.091.041-.447.433-1.917 2.112-.993 1.135-1.822 2.101-1.843 2.148-.117.277.059.602.365.673.066.015.448.027.859.028H6l.001 2.794c0 2.652.003 2.798.049 2.901a.479.479 0 0 0 .351.276c.088.019.644.029 1.599.029s1.511-.01 1.599-.029a.479.479 0 0 0 .351-.276c.046-.103.049-.249.049-2.901L10 5.013h.732c.815 0 .959-.018 1.095-.137.181-.158.222-.466.087-.649-.032-.044-.855-.99-1.829-2.103C8.21-.018 8.229.001 8 .001a.598.598 0 0 0-.204.051m1.392 2.566c.645.736 1.176 1.348 1.181 1.36.005.012-.211.022-.48.023-.417 0-.505.007-.597.049a.479.479 0 0 0-.276.351c-.02.092-.029.997-.029 2.867V10H7.013V7.268c0-1.87-.009-2.775-.029-2.867a.479.479 0 0 0-.276-.351c-.092-.042-.18-.049-.597-.049-.269-.001-.485-.011-.48-.023A157.25 157.25 0 0 1 8 1.28c.009 0 .544.602 1.188 1.338m-7.522 3.41A2.03 2.03 0 0 0 .076 7.44l-.063.2v6.72l.063.2a2.056 2.056 0 0 0 1.364 1.364l.2.063h12.747l.204-.07a2.073 2.073 0 0 0 1.333-1.357l.063-.2V7.64l-.063-.2a2.054 2.054 0 0 0-1.376-1.365c-.207-.059-.251-.062-1.215-.062h-1l-.096.066a.498.498 0 0 0-.109.752c.137.163.165.167 1.205.182l.947.014.154.078c.182.092.383.296.474.482l.065.133v6.56l-.077.152a1.01 1.01 0 0 1-.77.556c-.22.032-12.032.032-12.252 0a1.01 1.01 0 0 1-.77-.556l-.077-.152V7.72l.078-.154a1.19 1.19 0 0 1 .482-.474c.132-.065.143-.065 1.08-.079 1.04-.015 1.068-.019 1.205-.182a.523.523 0 0 0 .121-.397c-.015-.135-.07-.22-.217-.339l-.101-.082-.937-.004c-.516-.002-.998.006-1.072.019" fill-rule="evenodd" fill="#000"/></svg>