<svg xmlns="http://www.w3.org/2000/svg" width="24" height="24" fill="none"><path d="M10.65 3.65 8.8 5.5l.35.35.349.35 1.251-1.25L12 3.7v7.933c0 6.335-.01 7.926-.05 7.902-.028-.017-1.153-.765-2.5-1.663l-2.451-1.633.011-1.644.01-1.644.221-.068a2.478 2.478 0 0 0 1.025-.63c1.34-1.339.748-3.604-1.088-4.158-.327-.099-1.029-.099-1.356 0-1.305.394-2.072 1.715-1.743 3.001.217.849.86 1.533 1.68 1.787l.221.068.011 1.914.012 1.915 2.998 1.996L12 20.773v2.747h1V21.773l2.999-1.997 2.999-1.996.001-1.39L19 15h2v-5h-5v5h2v2.24l-2.45 1.632a844.935 844.935 0 0 1-2.5 1.663c-.04.024-.05-1.667-.05-8.402V3.7l1.251 1.251 1.25 1.25.349-.351.349-.351L14.35 3.65 12.5 1.8l-1.85 1.85M7.11 9.139c.305.139.615.45.756.757.096.209.112.295.112.604.001.31-.015.393-.111.6a1.687 1.687 0 0 1-.763.767c-.21.098-.293.113-.604.113-.31 0-.393-.015-.6-.112a1.682 1.682 0 0 1-.766-.764c-.096-.209-.112-.295-.112-.604-.001-.31.015-.393.111-.6a1.618 1.618 0 0 1 1.017-.859c.257-.065.702-.019.96.098M20 12.5V14h-3v-3h3v1.5" fill="currentColor" fill-rule="evenodd"/></svg>