<svg xmlns="http://www.w3.org/2000/svg" width="16" height="16" fill="none"><path d="m6.387 1.893-1.6 1.6.36.36.359.361.994-.994.993-.993v10.732l-.126-.05c-.07-.027-1.078-.43-2.24-.896l-2.114-.845V9.952l.194-.059a2.45 2.45 0 0 0 1.486-1.207c.212-.392.299-.742.298-1.206 0-.842-.411-1.594-1.131-2.069a2.34 2.34 0 0 0-1.35-.398c-.461 0-.812.086-1.196.294a2.49 2.49 0 0 0-.847 3.641c.317.446.807.796 1.327.949l.205.06.007.944.007.944 2.74 1.096 2.74 1.096V16h1.012l.008-.485.007-.486 2.74-1.094 2.739-1.095.001-.913v-.914h2V6h-5.014l.007 2.5L11 11l.994.007.994.007-.007.578-.008.579-2.186.874c-1.203.482-2.208.882-2.234.89-.044.015-.046-.277-.046-5.86V2.2l.982.993c.54.547.993.994 1.007.994.013 0 .18-.156.371-.347l.346-.347-1.6-1.6c-.88-.88-1.606-1.6-1.613-1.6-.007 0-.733.72-1.613 1.6M2.962 6.078c.198.062.441.211.595.365a1.494 1.494 0 0 1-.008 2.117 1.413 1.413 0 0 1-1.055.433 1.499 1.499 0 0 1-1.44-1.114 1.902 1.902 0 0 1-.001-.759 1.547 1.547 0 0 1 1.114-1.081c.216-.05.567-.032.795.039m12.025 2.429V10H12V7.013h2.987v1.494" fill="currentColor" fill-rule="evenodd"/></svg>