<svg width="18" height="18" fill="none" xmlns="http://www.w3.org/2000/svg"><path d="M1.836.56c-.368.182-.34.734.046.899.078.033.416.041 1.785.04 1.581 0 1.696-.004 1.811-.056.187-.085.267-.218.267-.443 0-.201-.047-.294-.207-.413C5.457.526 5.421.525 3.695.518 2.117.511 1.925.516 1.836.56M12.524.552c-.373.163-.374.722-.002.891.115.052.23.056 1.811.056 1.841.001 1.801.005 1.967-.172a.49.49 0 0 0-.132-.758c-.111-.057-.183-.059-1.834-.058-1.361.001-1.738.01-1.81.041M.81 2.674a.548.548 0 0 0-.145.095C.501 2.922.51 2.647.51 7.397v4.4l.064.113a.529.529 0 0 0 .176.176c.113.064.116.064 2.932.064h2.819l.1-.068a.618.618 0 0 0 .162-.172c.062-.105.062-.12.062-4.515v-4.41l-.066-.106a.599.599 0 0 0-.184-.173l-.118-.066-2.786.002c-1.776.001-2.813.013-2.861.032m10.605.039a.607.607 0 0 0-.18.172c-.059.099-.06.153-.06 4.51 0 4.395 0 4.41.062 4.515a.618.618 0 0 0 .162.172l.1.068h2.819c2.816 0 2.819 0 2.932-.064a.529.529 0 0 0 .176-.176l.064-.113V2.979l-.068-.099a.763.763 0 0 0-.152-.162c-.084-.063-.096-.063-2.91-.07l-2.825-.008-.12.073M5.85 7.395v3.765H1.5V3.63h4.35v3.765m10.65 0v3.765h-4.35V3.63h4.35v3.765M3.014 13.326a.511.511 0 0 0-.202.1c-.18.168-.174.091-.165 2.007.008 1.725.009 1.754.071 1.837a.763.763 0 0 0 .162.152l.099.068h12.042l.099-.068a.763.763 0 0 0 .162-.152c.062-.083.063-.112.071-1.837.007-1.527.002-1.765-.038-1.842-.18-.35-.625-.375-.868-.049-.06.08-.062.121-.07 1.52l-.009 1.438H3.632l-.009-1.438c-.008-1.399-.01-1.44-.07-1.52a.51.51 0 0 0-.539-.216" fill-rule="evenodd" fill="#000"/></svg>