<svg xmlns="http://www.w3.org/2000/svg" width="24" height="24" fill="none"><path d="M11.86 1.047c-2.231.251-4.111 1.891-4.683 4.082-.133.512-.176.962-.176 1.871 0 1.17.073 1.664.363 2.451.521 1.419 1.766 2.664 3.185 3.185 1.366.503 2.736.48 4.075-.066 1.275-.521 2.425-1.671 2.946-2.946.169-.415.305-.909.371-1.353.079-.527.079-2.015 0-2.542a5.408 5.408 0 0 0-1.026-2.492 5.495 5.495 0 0 0-5.055-2.19m1.2.997c2.037.25 3.671 1.897 3.897 3.929.055.493.055 1.561 0 2.054-.165 1.482-1.115 2.832-2.468 3.509A4.5 4.5 0 0 1 8.044 8.06c-.056-.463-.056-1.657 0-2.12.301-2.452 2.549-4.198 5.016-3.896m-2.232 12.998c-2.2.103-4.025.419-5.32.918-2.019.78-3.149 1.993-3.447 3.698-.046.269-.061.662-.061 1.657 0 1.224.005 1.313.078 1.433.166.272-.451.252 7.664.252 8.049 0 7.52.016 7.679-.227.084-.129.084-.417 0-.546-.159-.242.34-.227-7.381-.227H2.992l.018-1.09c.015-.947.028-1.13.101-1.396.52-1.899 2.585-2.997 6.349-3.375 1.444-.144 3.993-.172 5.4-.059 1.276.103 1.282.103 1.437-.015.353-.27.202-.813-.246-.88-1.004-.152-3.555-.221-5.223-.143m5.424 3.036a.478.478 0 0 0-.174.67c.161.264-.005.252 3.43.252 3.016 0 3.116-.003 3.24-.078a.485.485 0 0 0 0-.844c-.124-.075-.224-.078-3.248-.078s-3.124.003-3.248.078" fill-rule="evenodd" fill="#000"/></svg>