<svg xmlns="http://www.w3.org/2000/svg" width="16" height="16" fill="none"><path d="M7.587.028C5.856.199 4.451 1.48 4.077 3.227c-.087.407-.088 1.145-.001 1.546.35 1.619 1.535 2.804 3.151 3.15.404.087 1.142.087 1.546 0a3.954 3.954 0 0 0 2.024-1.077 4.037 4.037 0 0 0 1.126-2.073c.087-.404.087-1.142 0-1.546a4.112 4.112 0 0 0-.71-1.597A3.978 3.978 0 0 0 7.587.028m1.186 1.077c.294.081.776.309.987.467.203.152.488.435.646.641.178.234.403.702.493 1.027.068.247.074.303.074.76s-.006.513-.074.758a3.01 3.01 0 0 1-1.572 1.927 2.999 2.999 0 0 1-3.281-.415 3.065 3.065 0 0 1-.945-1.512c-.068-.245-.074-.301-.074-.758s.006-.513.074-.76c.09-.325.315-.793.493-1.027.158-.206.443-.489.646-.641.201-.15.689-.385.945-.454.343-.093.433-.102.895-.092.374.007.478.019.693.079m-1.92 8.924c-3.185.149-5.131.883-5.687 2.145-.157.357-.159.387-.172 1.884-.008.982-.003 1.421.019 1.527a.483.483 0 0 0 .279.365c.104.047.362.049 6.708.049s6.604-.002 6.708-.049a.483.483 0 0 0 .279-.365c.022-.106.028-.547.02-1.527-.011-1.307-.014-1.389-.068-1.586-.337-1.222-1.76-1.998-4.245-2.312a23.563 23.563 0 0 0-3.841-.131m2.494 1.011c1.623.099 2.84.344 3.653.733.485.233.746.46.903.787l.084.173.008 1.14.008 1.14H1.997l.008-1.14.008-1.14.084-.173c.046-.095.127-.223.18-.285.563-.646 2.143-1.098 4.31-1.233a41.64 41.64 0 0 1 2.76-.002" fill-rule="evenodd" fill="#000"/></svg>