<svg xmlns="http://www.w3.org/2000/svg" width="24" height="24" viewBox="0 0 24 24">
  <path fill="currentColor" fill-rule="evenodd" d="M1 3.5A2.5 2.5 0 0 1 3.5 1h17A2.5 2.5 0 0 1 23 3.5v13a2.5 2.5 0 0 1-2.5 2.5h-4.454l-3.685 3.846-.378.394-.36-.41L8.274 19H3.5A2.5 2.5 0 0 1 1 16.5v-13ZM3.5 2A1.5 1.5 0 0 0 2 3.5v13A1.5 1.5 0 0 0 3.5 18h5.227l.15.17 3.14 3.59 3.455-3.606.148-.154h4.88a1.5 1.5 0 0 0 1.5-1.5v-13A1.5 1.5 0 0 0 20.5 2h-17Zm7.566 8.82L9.1 12.3c-.378.284-.6.727-.6 1.2v.5h7v-.5c0-.473-.222-.916-.6-1.2l-1.966-1.48a2.497 2.497 0 0 1-1.868 0Zm-.875-.594L8.5 11.5a2.5 2.5 0 0 0-1 2V15h9v-1.5a2.5 2.5 0 0 0-1-2l-1.691-1.274A2.492 2.492 0 0 0 14.5 8.5v-1a2.5 2.5 0 1 0-5 0v1c0 .67.263 1.278.691 1.726ZM10.5 7.5a1.5 1.5 0 1 1 3 0v1a1.5 1.5 0 1 1-3 0v-1Z" clip-rule="evenodd"/>
</svg>
