<svg xmlns="http://www.w3.org/2000/svg" width="24" height="24" fill="none"><path d="M2.96 1.062c-.896.191-1.647.927-1.881 1.842C1.002 3.205 1 3.376 1 10c0 6.624.002 6.795.079 7.096a2.478 2.478 0 0 0 1.283 1.619c.574.283.584.284 3.405.284L8.274 19l1.767 2.022 1.853 2.123.086.1 2.033-2.123L16.046 19l2.347-.001c2.644 0 2.675-.003 3.245-.284a2.502 2.502 0 0 0 1.302-1.695c.05-.239.059-1.255.059-7.02 0-7.517.018-7.025-.285-7.639-.315-.639-.985-1.154-1.694-1.301-.409-.086-17.661-.083-18.06.002m18.14 1.07c.315.147.624.455.767.764l.113.244v13.72l-.112.24a1.698 1.698 0 0 1-.764.767l-.244.113-2.622.011-2.623.011-1.797 1.878c-1.685 1.761-1.801 1.874-1.863 1.809-.036-.038-.772-.879-1.636-1.869l-1.571-1.8L5.944 18l-2.804-.02-.244-.113a1.698 1.698 0 0 1-.764-.767l-.112-.24V3.14l.112-.24c.193-.414.603-.758 1.018-.857.086-.02 3.912-.033 8.93-.029l8.78.006.24.112m-9.6 2.925a2.45 2.45 0 0 0-1.337.766 2.86 2.86 0 0 0-.609 1.137c-.075.305-.074 1.779.001 2.08.078.311.301.782.465.983.077.094.139.185.138.204-.001.018-.399.33-.884.693-.976.731-1.264 1.008-1.481 1.421-.249.475-.279.648-.302 1.709l-.02.95h9.058l-.02-.95c-.023-1.061-.053-1.234-.302-1.709-.217-.413-.505-.69-1.481-1.421-.485-.363-.883-.673-.884-.69a1.076 1.076 0 0 1 .144-.22c.176-.227.383-.667.459-.97.075-.301.076-1.775.001-2.08-.148-.6-.574-1.211-1.077-1.545-.505-.336-1.305-.489-1.869-.358m1.02 1.042c.396.139.723.471.881.892.076.205.082.292.071 1.067l-.012.844-.131.267a1.512 1.512 0 0 1-.729.704c-.187.088-.276.103-.6.103-.324 0-.413-.015-.6-.103a1.512 1.512 0 0 1-.729-.704l-.131-.267-.012-.844c-.011-.781-.006-.861.073-1.072a1.474 1.474 0 0 1 1.479-.968c.143.01.341.046.44.081m-1.06 4.837a2.4 2.4 0 0 0 1.06.001c.143-.033.305-.069.36-.079.081-.014.296.132 1.14.774.574.438 1.096.867 1.166.959.214.28.294.556.294 1.011V14H8.52v-.398c0-.455.08-.731.294-1.011.18-.236 2.182-1.755 2.286-1.734.044.008.206.044.36.079" fill="currentColor" fill-rule="evenodd"/></svg>