<svg xmlns="http://www.w3.org/2000/svg" width="12" height="12" fill="none"><path d="M5.69.021C4.392.15 3.338 1.11 3.058 2.42a3.449 3.449 0 0 0-.001 1.16C3.32 4.794 4.208 5.683 5.42 5.943c.303.065.857.065 1.16 0a2.995 2.995 0 0 0 1.555-.845c.419-.428.678-.913.808-1.518a3.475 3.475 0 0 0 0-1.16A2.977 2.977 0 0 0 8.135.902 2.97 2.97 0 0 0 5.69.021m.612 1.008a2.013 2.013 0 0 1 1.596 1.349C7.948 2.525 8 2.84 8 3c0 .161-.052.476-.102.622a2.008 2.008 0 0 1-1.512 1.337 1.996 1.996 0 0 1-2.357-1.657 1.702 1.702 0 0 1 0-.604 2 2 0 0 1 1.65-1.667c.229-.036.393-.037.623-.002M5.46 7.02c-1.193.096-2.184.447-3.02 1.067a5.448 5.448 0 0 0-.885.893 3.786 3.786 0 0 0-.433.831c-.11.329-.125.476-.118 1.194l.006.645.055.094a.516.516 0 0 0 .27.227c.062.023.881.027 4.665.027s4.603-.004 4.665-.027a.516.516 0 0 0 .27-.227l.055-.094.006-.645c.005-.521 0-.681-.026-.83-.167-.969-.995-1.956-2.123-2.53-.629-.321-1.245-.503-2.017-.596a10.32 10.32 0 0 0-1.37-.029m1 1c.322.025.694.083.96.15 1.078.273 1.979.91 2.385 1.686.153.292.179.402.19.799l.01.345H2v-.278c0-.347.034-.531.14-.757.23-.49.611-.903 1.155-1.252.828-.53 1.978-.782 3.165-.693" fill-rule="evenodd" fill="#000"/></svg>