<svg xmlns="http://www.w3.org/2000/svg" width="16" height="16" fill="none"><path d="M7.587.028C5.856.199 4.451 1.48 4.077 3.227c-.087.407-.088 1.145-.001 1.546.35 1.619 1.535 2.804 3.151 3.15.404.087 1.142.087 1.546 0a3.954 3.954 0 0 0 2.024-1.077 4.037 4.037 0 0 0 1.126-2.073c.087-.404.087-1.142 0-1.546a4.112 4.112 0 0 0-.71-1.597A3.978 3.978 0 0 0 7.587.028m1.186 1.077c.294.081.776.309.987.467.203.152.488.435.646.641.178.234.403.702.493 1.027.068.247.074.303.074.76s-.006.513-.074.758a3.01 3.01 0 0 1-1.572 1.927 2.999 2.999 0 0 1-3.281-.415 3.065 3.065 0 0 1-.945-1.512c-.068-.245-.074-.301-.074-.758s.006-.513.074-.76c.09-.325.315-.793.493-1.027.158-.206.443-.489.646-.641.201-.15.689-.385.945-.454.343-.093.433-.102.895-.092.374.007.478.019.693.079m-1.92 8.924c-3.185.149-5.131.883-5.687 2.145-.157.357-.159.387-.172 1.884-.008.982-.003 1.421.019 1.527a.483.483 0 0 0 .279.365c.104.047.316.049 5.155.049l5.046.001v-.987H1.997l.008-1.14.008-1.14.084-.173c.157-.327.418-.554.903-.787.679-.325 1.69-.559 2.933-.679 1.197-.115 2.921-.109 4.323.016l.19.017.016-.09c.027-.16.079-.879.064-.893-.021-.021-.848-.083-1.531-.116a24.29 24.29 0 0 0-2.142.001m6.439.019a.485.485 0 0 0-.276.353c-.017.079-.029.44-.029.867V12l-.794.001c-.868 0-.924.009-1.07.168-.063.068-.143.309-.124.372l.026.105c.02.091.156.248.266.309.071.039.191.046.887.053l.805.009.009.805c.007.696.014.816.053.887.061.11.218.246.309.266l.105.026c.063.019.304-.061.372-.124.159-.146.168-.202.168-1.07l.001-.794h.732c.432 0 .788-.012.869-.029a.495.495 0 0 0 .392-.547c-.015-.138-.069-.222-.217-.342l-.101-.082-.836-.008-.837-.008-.008-.836c-.008-.935.001-.889-.212-1.061a.493.493 0 0 0-.49-.052" fill-rule="evenodd" fill="#000"/></svg>