<svg xmlns="http://www.w3.org/2000/svg" width="16" height="16" fill="none"><path d="M1.173.042a1.439 1.439 0 0 0-.679.362 1.504 1.504 0 0 0-.411.605l-.07.178-.007 5.234c-.008 5.781-.018 5.397.161 5.764.108.22.398.516.62.633.36.189.234.179 2.48.189l2.026.008 1.354 1.353L8 15.72l1.353-1.352 1.354-1.353 2.026-.008c2.246-.01 2.12 0 2.48-.189.226-.119.512-.413.621-.638.178-.37.168.014.16-5.759l-.007-5.234-.063-.166a1.594 1.594 0 0 0-.962-.948l-.175-.06-6.72-.004C2.363.005 1.32.01 1.173.042m13.512 1a.534.534 0 0 1 .265.257c.031.072.037.918.037 5.208 0 4.973-.002 5.125-.051 5.221a.426.426 0 0 1-.249.231c-.086.036-.375.041-2.253.041H10.28l-1.14 1.14L8 14.28l-1.14-1.14L5.72 12H3.566c-1.878 0-2.167-.005-2.253-.041a.426.426 0 0 1-.249-.231c-.049-.096-.051-.248-.051-5.235 0-4.369.006-5.146.038-5.208a.743.743 0 0 1 .242-.241c.075-.041 13.284-.043 13.392-.002m-7.016.984c-.45.082-.898.341-1.2.694a1.988 1.988 0 0 0-.313 2.047c.191.471.606.886 1.077 1.077.76.309 1.601.142 2.177-.434a1.987 1.987 0 0 0 .087-2.73 2.265 2.265 0 0 0-.993-.615 2.892 2.892 0 0 0-.835-.039m.762 1.075c.177.087.402.316.484.492.048.105.058.175.058.407 0 .251-.007.295-.072.428a1.019 1.019 0 0 1-1.053.558 1.039 1.039 0 0 1-.747-.556 1.157 1.157 0 0 1-.051-.729c.08-.274.335-.541.612-.64.211-.075.572-.056.769.04M6.88 7.058a3.524 3.524 0 0 0-2.692 2.321c-.137.408-.164.575-.18 1.121l-.015.513H12v-.393c0-.657-.106-1.131-.373-1.673a3.482 3.482 0 0 0-2.532-1.891c-.345-.058-1.879-.057-2.215.002m2.035.982c.792.138 1.46.636 1.825 1.36.079.157.193.49.193.563 0 .031-.442.037-2.933.037-2.822 0-2.933-.002-2.933-.049 0-.087.13-.434.239-.637.216-.399.519-.718.908-.953.24-.145.648-.294.906-.33.301-.042 1.535-.036 1.795.009" fill="currentColor" fill-rule="evenodd"/></svg>