<svg xmlns="http://www.w3.org/2000/svg" width="24" height="24" fill="none"><path d="M11.86 1.047c-2.231.251-4.111 1.891-4.683 4.082-.133.512-.176.962-.176 1.871 0 1.17.073 1.664.363 2.451.521 1.419 1.766 2.664 3.185 3.185 1.366.503 2.736.48 4.075-.066 1.275-.521 2.425-1.671 2.946-2.946.169-.415.305-.909.371-1.353.079-.527.079-2.015 0-2.542a5.408 5.408 0 0 0-1.026-2.492 5.495 5.495 0 0 0-5.055-2.19m1.2.997c2.037.25 3.671 1.897 3.897 3.929.055.493.055 1.561 0 2.054-.165 1.482-1.115 2.832-2.468 3.509A4.5 4.5 0 0 1 8.044 8.06c-.056-.463-.056-1.657 0-2.12.301-2.452 2.549-4.198 5.016-3.896m-2.232 12.998c-2.2.103-4.025.419-5.32.918-2.019.78-3.149 1.993-3.447 3.698-.046.269-.061.662-.061 1.657 0 1.224.005 1.313.078 1.433.167.274-.745.252 10.43.252 9.959 0 10.114-.001 10.24-.078.258-.158.26-.17.242-1.776-.018-1.59-.033-1.7-.31-2.419-.523-1.357-1.996-2.471-4.02-3.041-1.944-.547-4.833-.785-7.832-.644m4.012 1.037c1.313.107 2.196.238 3.1.458 2.235.545 3.559 1.543 3.949 2.977.071.264.085.455.101 1.396l.018 1.09H2.992l.018-1.09c.015-.947.028-1.13.101-1.396.578-2.111 3.065-3.235 7.689-3.474.804-.041 3.353-.017 4.04.039" fill-rule="evenodd" fill="#000"/></svg>