<svg xmlns="http://www.w3.org/2000/svg" width="16" height="16" fill="none" viewBox="0 0 16 16"><path fill="currentColor" fill-rule="evenodd" d="M.44.44A1.5 1.5 0 0 1 1.5 0h13A1.5 1.5 0 0 1 16 1.5v10a1.5 1.5 0 0 1-1.5 1.5h-3.793l-2.353 2.354-.354.353-.354-.353L5.293 13H1.5A1.5 1.5 0 0 1 0 11.5v-10C0 1.102.158.72.44.44ZM1.5 1a.5.5 0 0 0-.5.5v10a.5.5 0 0 0 .5.5h4.207l.147.146L8 14.293l2.146-2.147.147-.146H14.5a.5.5 0 0 0 .5-.5v-10a.5.5 0 0 0-.5-.5h-13ZM8 3a1 1 0 1 0 0 2 1 1 0 0 0 0-2ZM6 4a2 2 0 1 1 4 0 2 2 0 0 1-4 0Zm-.268 4.732A2.5 2.5 0 0 1 7.5 8h1a2.5 2.5 0 0 1 2.45 2h-5.9a2.5 2.5 0 0 1 .682-1.268ZM7.5 7A3.5 3.5 0 0 0 4 10.5v.5h8v-.5A3.5 3.5 0 0 0 8.5 7h-1Z" clip-rule="evenodd"/></svg>