<svg xmlns="http://www.w3.org/2000/svg" width="16" height="16" fill="none"><path d="m4.493 1.295-3.5.811c-.021.003-.001 6.876.02 7.195.118 1.726 1.044 3.176 2.8 4.385 1.043.718 2.577 1.41 3.887 1.751l.3.079.3-.079c1.308-.341 2.846-1.034 3.887-1.751 1.756-1.21 2.682-2.659 2.8-4.385.014-.216.026-1.854.026-3.786 0-3.22-.002-3.405-.046-3.419A12102.557 12102.557 0 0 0 8.027.495c-.022-.005-1.612.355-3.534.8m6.52.914 2.974.687.008 3.092c.005 2.165-.002 3.184-.023 3.399-.097.982-.53 1.837-1.336 2.64-.583.58-1.273 1.058-2.209 1.531-.617.311-1.492.659-2.127.843l-.3.088-.3-.088a14.015 14.015 0 0 1-2.127-.843c-.936-.473-1.626-.951-2.209-1.531-.806-.803-1.239-1.658-1.336-2.64-.021-.215-.028-1.234-.023-3.399l.008-3.092 2.96-.685c1.628-.377 2.984-.687 3.014-.687.029-.001 1.391.307 3.026.685M9.191 6.531 6.968 9.248 5.737 8.017l-1.23-1.23-.36.36-.36.36 1.622 1.622 1.623 1.623L9.611 7.6c1.418-1.733 2.575-3.161 2.57-3.174-.01-.028-.722-.611-.747-.612-.011 0-1.02 1.222-2.243 2.717" fill-rule="evenodd" fill="#000"/></svg>