<svg xmlns="http://www.w3.org/2000/svg" width="24" height="24" fill="none"><path d="M7.46 2.053 3.02 3.101l-.012 5.38c-.009 3.743.001 5.531.033 5.879a9.698 9.698 0 0 0 1.867 4.849c.352.471 1.391 1.528 1.891 1.924.999.79 1.988 1.303 3.059 1.587.8.213 1.157.255 2.142.255.67 0 1.002-.017 1.3-.068 1.878-.323 3.324-1.118 4.881-2.683.869-.874 1.345-1.538 1.864-2.599.299-.614.623-1.549.749-2.165.189-.928.186-.805.186-6.739v-5.62l-4.44-1.048c-2.442-.576-4.485-1.047-4.54-1.047-.055 0-2.098.471-4.54 1.047m8.57.91 3.97.933v4.962c0 3.203-.015 5.125-.043 5.422a8.718 8.718 0 0 1-1.815 4.517c-.928 1.161-2.304 2.23-3.482 2.703-1.89.759-4.241.638-5.98-.308-1.043-.568-2.238-1.607-2.958-2.572a8.654 8.654 0 0 1-1.682-4.36C4.016 13.995 4 11.843 4 8.858V3.896l3.99-.943c2.194-.519 4.008-.939 4.03-.934l4.01.944m-2.068 7.815c-1.632 1.904-2.98 3.462-2.995 3.462-.014 0-.688-.661-1.497-1.47L8 11.3l-.35.35-.35.35 1.866 1.865 1.865 1.866 3.314-3.867a528.672 528.672 0 0 0 3.327-3.901c.011-.032-.633-.607-.71-.635-.018-.006-1.368 1.546-3 3.45" fill-rule="evenodd" fill="#000"/></svg>