<svg xmlns="http://www.w3.org/2000/svg" width="16" height="16" fill="currentColor">
  <path fill-rule="evenodd" d="m7.978 0 6.478 2.16v7.335c0 2.258-1.686 3.883-3.212 4.9a14.535 14.535 0 0 1-3.087 1.545l-.014.005-.165.055-.158-.053-.021-.007a6.38 6.38 0 0 1-.255-.093 14.534 14.534 0 0 1-2.832-1.453C3.187 13.378 1.5 11.753 1.5 9.494V2.16L7.978 0Zm0 1.05L2.497 2.879v6.617c0 1.729 1.303 3.094 2.768 4.07a13.553 13.553 0 0 0 2.713 1.38l.08-.03a13.55 13.55 0 0 0 2.634-1.35c1.464-.976 2.768-2.341 2.768-4.07V2.878L7.978 1.05ZM11.43 4l.774.633-5.167 6.315-3.244-3.244.707-.708L6.963 9.46 11.43 4Z" clip-rule="evenodd"/>
</svg>
