<svg xmlns="http://www.w3.org/2000/svg" width="16" height="16" fill="none"><path d="M1.669 2.028C.991 2.143.371 2.651.135 3.283c-.139.371-.134.206-.135 4.711 0 4.592-.007 4.373.156 4.773a2.03 2.03 0 0 0 1.078 1.078c.402.163.229.157 4.366.149l3.773-.007.187-.063c.49-.166.871-.452 1.122-.845.127-.198.187-.337.257-.591.052-.192.058-.296.072-1.358l.016-1.15 2.466 1.729c1.357.95 2.476 1.729 2.487 1.73.011 0 .02-2.447.02-5.439s-.006-5.44-.013-5.44c-.008 0-1.127.779-2.487 1.731l-2.473 1.732-.016-1.152c-.014-1.063-.02-1.167-.072-1.359a1.868 1.868 0 0 0-.257-.591 2.06 2.06 0 0 0-1.14-.847l-.195-.06-3.774-.004c-2.075-.002-3.832.006-3.904.018m7.678 1.041a.96.96 0 0 1 .472.372c.192.281.181.006.181 4.559 0 4.51.009 4.271-.164 4.539a.995.995 0 0 1-.692.447c-.12.021-1.247.027-3.757.022L1.8 13l-.141-.058a1.062 1.062 0 0 1-.596-.604c-.045-.13-.048-.376-.048-4.338s.003-4.208.048-4.338c.091-.263.336-.508.599-.599.13-.045.357-.048 3.837-.049 3.684-.001 3.7 0 3.848.055m5.633 6.692-.007 1.76L13 10.14l-1.973-1.381V7.241L13 5.86l1.973-1.381.007 1.76c.004.969.004 2.553 0 3.522M3.04 4.53a.835.835 0 0 0-.493.465.866.866 0 0 0 .035.595.88.88 0 0 0 .424.368c.487.166.994-.2.994-.718a.777.777 0 0 0-.392-.644.569.569 0 0 0-.311-.079 1.044 1.044 0 0 0-.257.013" fill="currentColor" fill-rule="evenodd"/></svg>