<svg xmlns="http://www.w3.org/2000/svg" width="16" height="16" viewBox="0 0 16 16">
  <path fill="currentColor" fill-rule="evenodd" d="M2 3a1 1 0 0 0-1 1v8a1 1 0 0 0 1 1h7a1 1 0 0 0 1-1V4a1 1 0 0 0-1-1H2Zm9 9V9.96l2.445 1.712 1.262.883.371.26.1.07.026.018.007.005.002.001.287-.409-.287.41.787.55V2.54l-.787.55.287.41-.287-.41-.002.002-.007.005-.025.018-.1.07-.372.26-1.262.883L11 6.04V4a2 2 0 0 0-2-2H2a2 2 0 0 0-2 2v8a2 2 0 0 0 2 2h7a2 2 0 0 0 2-2Zm3.019-1.147L11 8.74V7.26l3.019-2.113L15 4.46v7.08l-.981-.687ZM4 5.25a.75.75 0 1 1-1.5 0 .75.75 0 0 1 1.5 0Z" clip-rule="evenodd"/>
</svg>
