<svg xmlns="http://www.w3.org/2000/svg" width="16" height="16" fill="none"><path d="M3.293.05a.445.445 0 0 0-.268.32.5.5 0 0 0 .036.367.707.707 0 0 0 .293.243c.095.026 9.197.026 9.292 0a.707.707 0 0 0 .293-.243.5.5 0 0 0 .036-.367.445.445 0 0 0-.268-.32C12.604.003 12.416.001 8 .001c-4.416 0-4.604.002-4.707.049M1.157 2.04a1.547 1.547 0 0 0-.983.763c-.187.354-.176-.041-.168 5.776l.007 5.248.072.183a1.55 1.55 0 0 0 1.023.941C1.26 14.998 1.543 15 8 15h6.733l.187-.059a1.55 1.55 0 0 0 .995-.931l.072-.183.007-5.248c.006-4.635.002-5.268-.034-5.423a1.53 1.53 0 0 0-1.13-1.118c-.256-.054-13.423-.053-13.673.002m13.545 1.003c.086.044.204.16.247.242.032.062.038.839.038 5.208 0 4.987-.002 5.139-.051 5.235a.426.426 0 0 1-.249.231c-.088.037-.818.041-6.693.04-6.383 0-6.598-.002-6.704-.05a.571.571 0 0 1-.186-.151l-.077-.101-.008-5.148c-.004-2.832-.001-5.175.007-5.207.019-.077.139-.218.24-.279.078-.048.3-.049 6.729-.05 4.863 0 6.664.008 6.707.03M6.28 5.055a.445.445 0 0 0-.23.238c-.046.102-.049.256-.049 3.208-.001 3.368-.009 3.193.148 3.348.153.152.364.19.558.101.136-.063 4.983-2.972 5.103-3.063a.485.485 0 0 0 .025-.743c-.048-.046-1.232-.769-2.631-1.607L6.662 5.013h-.151a.635.635 0 0 0-.231.042m2.5 2.398c.95.569 1.726 1.042 1.726 1.051-.001.009-.787.486-1.747 1.061l-1.746 1.046V8.504c0-1.159.009-2.102.02-2.096L8.78 7.453" fill-rule="evenodd" fill="#000"/></svg>