<svg xmlns="http://www.w3.org/2000/svg" width="24" height="24" viewBox="0 0 24 24">
  <path fill="currentColor" fill-rule="evenodd" d="M3.5 5A1.5 1.5 0 0 0 2 6.5v12A1.5 1.5 0 0 0 3.5 20h11a1.5 1.5 0 0 0 1.5-1.5v-12A1.5 1.5 0 0 0 14.5 5h-11ZM1 6.5A2.5 2.5 0 0 1 3.5 4h11A2.5 2.5 0 0 1 17 6.5v3.242l6.303-2.702.697-.298v11.516l-.697-.298L17 15.258V18.5a2.5 2.5 0 0 1-2.5 2.5h-11A2.5 2.5 0 0 1 1 18.5v-12Zm16 7.67v-3.34l6-2.572v8.484l-6-2.572ZM6.5 8.5a1 1 0 1 1-2 0 1 1 0 0 1 2 0Z" clip-rule="evenodd"/>
</svg>
