<svg xmlns="http://www.w3.org/2000/svg" width="24" height="24" fill="none"><path d="M2.96 4.062c-.896.191-1.647.927-1.881 1.842C1.002 6.205 1 6.373 1 12.5s.002 6.295.079 6.596a2.478 2.478 0 0 0 1.283 1.619c.608.3.232.284 6.638.284s6.03.016 6.638-.284a2.39 2.39 0 0 0 1.077-1.077c.271-.55.284-.665.284-2.628.001-.952.011-1.73.024-1.73.013 0 1.578.666 3.477 1.48 1.899.814 3.464 1.48 3.477 1.48.013 0 .023-2.583.023-5.74s-.01-5.74-.022-5.74c-.012 0-1.555.659-3.43 1.465A379.492 379.492 0 0 1 17.07 9.71c-.066.018-.07-.083-.071-1.715 0-1.969-.013-2.082-.285-2.634-.315-.639-.985-1.154-1.694-1.301-.407-.085-11.662-.083-12.06.002m12.14 1.07c.315.147.624.455.767.764l.113.244v12.72l-.112.24a1.698 1.698 0 0 1-.764.767l-.244.113H3.14l-.244-.113a1.698 1.698 0 0 1-.764-.767l-.112-.24V6.14l.112-.24c.193-.413.602-.758 1.018-.857.085-.02 2.652-.033 5.93-.029l5.78.006.24.112M5.122 7.583a.979.979 0 0 0-.509.469c-.25.489-.066 1.056.431 1.327.845.459 1.794-.49 1.335-1.335a.942.942 0 0 0-.888-.522 1.14 1.14 0 0 0-.369.061M23 12.503c0 3.58-.008 4.221-.055 4.21-.031-.007-1.381-.58-3-1.273l-2.944-1.26.009-1.678.01-1.679 2.96-1.27a252.662 252.662 0 0 1 2.99-1.272c.017 0 .03 1.899.03 4.222" fill="currentColor" fill-rule="evenodd"/></svg>