<svg xmlns="http://www.w3.org/2000/svg" width="24" height="24" viewBox="0 0 24 24"><path fill="currentColor" fill-rule="evenodd" d="m22.854 2.854.353-.354-.707-.707-.354.353L17 7.293V6.5A2.5 2.5 0 0 0 14.5 4h-11A2.5 2.5 0 0 0 1 6.5v12a2.5 2.5 0 0 0 2.3 2.492l-1.154 1.154-.353.354.707.707.354-.354 20-20ZM4.293 20 16 8.293V6.5A1.5 1.5 0 0 0 14.5 5h-11A1.5 1.5 0 0 0 2 6.5v12A1.5 1.5 0 0 0 3.5 20h.793ZM6.5 8.5a1 1 0 1 1-2 0 1 1 0 0 1 2 0ZM24 6.838v11.325l-.637-.182L17 16.163V18.5a2.5 2.5 0 0 1-2.5 2.5H8.242v-1H14.5a1.5 1.5 0 0 0 1.5-1.5v-3.663l.637.182L23 16.837V8.162l-1.824.519-.481.137-.274-.962.481-.137 2.461-.7.637-.181Z" clip-rule="evenodd"/></svg>