<svg xmlns="http://www.w3.org/2000/svg" width="24" height="24" fill="none"><path d="M5.252 2.078a.478.478 0 0 0-.174.67c.166.272-.427.252 7.43.252 6.983 0 7.114-.002 7.24-.078a.485.485 0 0 0 0-.844C19.622 2.002 19.491 2 12.5 2c-6.991 0-7.122.002-7.248.078M2.96 6.062a2.885 2.885 0 0 0-1.128.577c-.3.268-.593.713-.714 1.083l-.098.298v13l.111.3c.265.72.826 1.282 1.549 1.549l.3.111h19.04l.3-.111a2.604 2.604 0 0 0 1.549-1.549l.111-.3V7.98l-.111-.3a2.537 2.537 0 0 0-1.249-1.403c-.598-.296.152-.276-10.14-.273-7.767.002-9.302.011-9.52.058m19.14 1.07c.315.147.624.455.767.764l.113.244v12.72l-.113.244a1.698 1.698 0 0 1-.767.764l-.24.112H3.14l-.244-.113a1.698 1.698 0 0 1-.764-.767l-.112-.24V8.14l.112-.24c.198-.425.624-.775 1.042-.859.091-.018 4.333-.03 9.426-.027l9.26.006.24.112m-11.848 3.946c-.264.161-.252-.005-.251 3.43 0 2.409.011 3.134.05 3.211.068.134.296.281.436.281.164 0 .229-.037 2.913-1.65 2.546-1.53 2.6-1.568 2.6-1.846 0-.283-.015-.293-2.761-1.941C11.277 11.387 10.601 11 10.506 11a.583.583 0 0 0-.254.078m2.573 2.405c.921.552 1.68 1.009 1.686 1.015.01.01-3.404 2.067-3.476 2.095-.02.008-.035-.922-.035-2.091 0-2.044.002-2.104.075-2.065.041.022.829.493 1.75 1.046" fill-rule="evenodd" fill="#000"/></svg>