<svg xmlns="http://www.w3.org/2000/svg" width="16" height="16" viewBox="0 0 16 16"><path fill="currentColor" fill-rule="evenodd" d="M15.354 1.354 15.707 1 15 .293l-.354.353-3.156 3.157A2 2 0 0 0 9.5 2H2a2 2 0 0 0-2 2v8a2 2 0 0 0 1.389 1.904l-.743.742L.293 15l.707.707.354-.354 14-14ZM2.293 13 10.5 4.793V4a1 1 0 0 0-1-1H2a1 1 0 0 0-1 1v8a1 1 0 0 0 1 1h.293ZM4 5.25a.75.75 0 1 1-1.5 0 .75.75 0 0 1 1.5 0Zm12-2.02v9.54l-.703-.313-3.797-1.688V12a2 2 0 0 1-2 2H4.828v-1H9.5a1 1 0 0 0 1-1V9.23l.703.313L15 11.231V4.769l-.506.225-.457.203-.406-.914.457-.203 1.209-.537.703-.312Z" clip-rule="evenodd"/></svg>