<svg xmlns="http://www.w3.org/2000/svg" width="16" height="16" fill="currentColor">
  <path fill-rule="evenodd" d="M16 2.54v10.92l-6-4.2V6.74l6-4.2Zm-5 4.72v1.48l4 2.8V4.46l-4 2.8Z" clip-rule="evenodd"/>
  <path fill-rule="evenodd" d="M2.5 3A1.5 1.5 0 0 0 1 4.5v7A1.5 1.5 0 0 0 2.5 13h6a1.5 1.5 0 0 0 1.5-1.5v-7A1.5 1.5 0 0 0 8.5 3h-6ZM0 4.5A2.5 2.5 0 0 1 2.5 2h6A2.5 2.5 0 0 1 11 4.5v7A2.5 2.5 0 0 1 8.5 14h-6A2.5 2.5 0 0 1 0 11.5v-7Z" clip-rule="evenodd"/>
  <path d="M4 5.5a.5.5 0 1 1-1 0 .5.5 0 0 1 1 0Z"/>
</svg>
