<svg xmlns="http://www.w3.org/2000/svg" width="16" height="16" fill="none"><path d="M13.253 2.04c-1.354 1.355-1.75 1.737-1.763 1.7a4.107 4.107 0 0 1-.06-.233c-.162-.683-.719-1.246-1.43-1.445-.164-.046-.386-.049-4.24-.049-4.508 0-4.177-.013-4.6.186-.483.226-.85.614-1.025 1.084-.139.371-.134.206-.135 4.711 0 4.591-.007 4.373.155 4.772.192.471.647.918 1.107 1.088l.129.048-.549.549-.549.55.354.352.353.353 7.354-7.353L15.707 1l-.354-.353L15 .294 13.253 2.04M9.932 3.105c.292.143.486.4.546.721.016.086.029.338.029.559v.402L6.389 8.904l-4.117 4.118-.242-.017a1.726 1.726 0 0 1-.377-.069 1.037 1.037 0 0 1-.59-.598c-.045-.13-.048-.376-.048-4.338s.003-4.208.048-4.338c.091-.263.336-.508.599-.599.131-.046.354-.048 4.125-.042l3.986.006.159.078m4.888.652c-.642.285-1.167.532-1.167.549 0 .023.364.864.384.886.002.002.214-.089.47-.203l.466-.207.007 1.609c.004.885.004 2.334 0 3.219l-.007 1.611-2.233-.993-2.233-.993v1.391c0 .889-.011 1.448-.029 1.548a.996.996 0 0 1-.843.814c-.09.014-1.134.025-2.482.025H4.827v.989l2.513-.009c2.322-.008 2.526-.012 2.673-.056a2.055 2.055 0 0 0 1.402-1.364c.058-.175.063-.237.072-.993.006-.444.013-.807.015-.807.003 0 1.013.448 2.245.996l2.24.996.006-2.383c.004-1.31.004-3.453 0-4.763l-.006-2.381-1.167.519M3.04 4.53a.835.835 0 0 0-.493.465.866.866 0 0 0 .035.595.88.88 0 0 0 .424.368c.487.166.994-.2.994-.718a.777.777 0 0 0-.392-.644.569.569 0 0 0-.311-.079 1.044 1.044 0 0 0-.257.013" fill="currentColor" fill-rule="evenodd"/></svg>