<svg xmlns="http://www.w3.org/2000/svg" width="24" height="24" fill="none"><path d="m19.76 4.541-2.74 2.74-.025-.631c-.029-.698-.075-.9-.308-1.35-.305-.587-.995-1.1-1.667-1.24-.419-.088-11.621-.088-12.04 0-.912.19-1.665.919-1.901 1.844C1.002 6.205 1 6.373 1 12.5s.002 6.295.079 6.596c.116.453.332.834.662 1.163.392.393.778.586 1.436.722.115.024.102.04-.63.772l-.747.748.35.349.351.349 10.35-10.35 10.35-10.35-.351-.349-.351-.349-2.739 2.74m-4.66.591c.315.147.624.455.767.764l.113.244.013 1.077.013 1.077-5.853 5.855L4.3 20.005l-.58-.013c-.537-.012-.598-.021-.824-.125a1.689 1.689 0 0 1-.764-.767l-.112-.24V6.14l.112-.24c.193-.413.602-.758 1.018-.857.085-.02 2.652-.033 5.93-.029l5.78.006.24.112m7.102 2.214c-.956.273-1.747.505-1.756.515-.029.029.243.939.281.939.033 0 2.121-.591 2.223-.63.04-.015.05.868.05 4.33s-.01 4.345-.05 4.33a673.19 673.19 0 0 0-3.45-.99 761.2 761.2 0 0 1-3.448-.989c-.037-.014-.051.444-.06 1.995l-.012 2.014-.113.244a1.698 1.698 0 0 1-.767.764l-.24.112-3.31.011-3.31.011V21l3.25-.001c3.643 0 3.561.005 4.148-.284.588-.29 1.046-.839 1.266-1.515.061-.188.074-.427.094-1.624l.022-1.405 3.4.972c1.87.535 3.441.983 3.49.995l.09.024v-5.661c0-3.114-.013-5.659-.03-5.657-.017.002-.812.228-1.768.502m-17.08.237a.979.979 0 0 0-.509.469c-.25.489-.066 1.056.431 1.327.845.459 1.794-.49 1.335-1.335a.942.942 0 0 0-.888-.522 1.14 1.14 0 0 0-.369.061" fill="currentColor" fill-rule="evenodd"/></svg>