<svg width="16" height="16" fill="none" viewBox="0 0 16 16" xmlns="http://www.w3.org/2000/svg"><g clip-path="url(#clip0_2186_194)"><path fill-rule="evenodd" clip-rule="evenodd" d="M12.5945 1.12467L12.6589 0.628841L11.6672 0.5L11.6028 0.995833L11.3639 2.83461C10.9413 2.31479 10.4347 1.86485 9.86199 1.5049C8.87976 0.887514 7.74319 0.559978 6.58304 0.559978C6.06037 0.559978 5.54249 0.626456 5.04135 0.755967C4.02682 1.01739 3.09141 1.53417 2.32695 2.26225C1.38518 3.1592 0.751065 4.33091 0.515255 5.60992L1.49868 5.79123C1.58287 5.3346 1.72765 4.89429 1.92715 4.48116C2.19584 3.92476 2.56378 3.41766 3.01661 2.98638C3.80568 2.23486 4.81213 1.75204 5.8921 1.60691C6.97207 1.46179 8.07027 1.66179 9.02974 2.17833C9.69687 2.5375 10.2732 3.03691 10.7216 3.63782L8.54001 3.35473L8.04416 3.29038L7.91548 4.28207L8.41132 4.34641L11.6177 4.76248L12.1135 4.82682L12.1779 4.33106L12.5945 1.12467ZM12.6455 7.85346C12.4493 8.91748 11.9775 9.90725 11.2822 10.7263L15.1832 14.6273L15.5367 14.9809L14.8296 15.688L14.4761 15.3344L10.5753 11.4337C9.67673 12.1978 8.57566 12.6898 7.40181 12.8476C6.11284 13.0208 4.8021 12.7821 3.65695 12.1656C2.93674 11.7778 2.30522 11.2531 1.79513 10.6257L1.55603 12.4684L1.49169 12.9642L0.5 12.8355L0.564342 12.3397L0.980415 9.13328L1.04477 8.63737L1.54067 8.70179L4.74757 9.11837L5.24341 9.18278L5.11459 10.1745L4.61875 10.11L2.44023 9.82704C2.88849 10.4273 3.4644 10.9262 4.13098 11.285C5.09045 11.8016 6.18866 12.0016 7.26863 11.8565C8.3486 11.7113 9.35504 11.2285 10.1441 10.477C10.9332 9.72549 11.4645 8.74376 11.662 7.67215L12.6455 7.85346Z" fill="#1D1D1D"/></g><defs><clipPath id="clip0_2186_194"><rect width="16" height="16" fill="white"/></clipPath></defs></svg>
