<svg width="16" height="16" fill="none" xmlns="http://www.w3.org/2000/svg"><path d="M11.522 1.607a54.973 54.973 0 0 1-.154 1.158c-.011.051-.031.036-.167-.12-.62-.716-1.588-1.377-2.508-1.713A7.507 7.507 0 0 0 7.452.623 7.716 7.716 0 0 0 5.72.624a6.127 6.127 0 0 0-3.589 1.845A6.058 6.058 0 0 0 .599 5.24c-.048.191-.08.354-.07.363.033.03.945.187.964.165.01-.012.039-.117.066-.235a5.355 5.355 0 0 1 1.026-2.078c.223-.273.7-.721.977-.917a5.33 5.33 0 0 1 2.131-.9c.365-.066 1.155-.08 1.552-.027a5.201 5.201 0 0 1 2.762 1.254c.217.189.685.696.686.742 0 .03.006.031-1.306-.14a59.507 59.507 0 0 0-1.289-.16c-.058 0-.062.017-.121.482a6.044 6.044 0 0 0-.052.49c.023.022 4.169.544 4.183.527.013-.015.524-3.91.541-4.124.004-.048-.035-.057-.449-.112a19.975 19.975 0 0 0-.495-.062c-.035-.001-.064.177-.183 1.099m.071 6.361a5.146 5.146 0 0 1-1.365 2.42 5.166 5.166 0 0 1-2.634 1.414 6.24 6.24 0 0 1-1.584.067 5.136 5.136 0 0 1-2.967-1.375c-.288-.274-.6-.638-.556-.648.018-.004.588.065 1.265.153 1.261.165 1.367.176 1.369.141 0-.011.028-.228.062-.483.042-.319.052-.465.033-.472-.049-.016-4.158-.545-4.167-.536-.009.009-.542 4.094-.542 4.154 0 .029.113.052.483.099.265.033.488.055.495.049a91.91 91.91 0 0 0 .302-2.28c0-.02.146.116.324.301a5.81 5.81 0 0 0 1.729 1.277 6.07 6.07 0 0 0 4.679.335 6.387 6.387 0 0 0 1.88-1.007l.172-.139 2.128 2.128 2.128 2.127.353-.353.353-.353-2.126-2.127-2.125-2.127.136-.173a6.804 6.804 0 0 0 .914-1.599c.099-.252.259-.799.293-1.001l.017-.107-.421-.076-.49-.089c-.067-.013-.07-.007-.138.28" fill="#1D1D1D" fill-rule="evenodd"/></svg>