<svg xmlns="http://www.w3.org/2000/svg" width="24" height="24" fill="none" viewBox="0 0 24 24"><path fill="currentColor" fill-rule="evenodd" d="m18.892 1.861.064-.496-.991-.128-.065.495-.394 3.037a8.393 8.393 0 0 0-8.854-3.217 8.4 8.4 0 0 0-6.21 6.623l.983.181A7.4 7.4 0 0 1 4.04 6.48l.006.004a7.393 7.393 0 0 1 12.848-.841l-3.483-.452-.496-.064-.129.991.496.065 4.47.58.496.064.064-.496.58-4.47Zm.072 9.37a8.4 8.4 0 0 1-1.976 4.05l5.569 5.569.353.353-.707.707-.354-.353-5.567-5.568a8.4 8.4 0 0 1-12.384-1.355l-.395 3.041-.064.496-.992-.129.065-.496.58-4.47.064-.495.496.064 4.47.58.496.065-.128.992-.496-.065-3.48-.452a7.4 7.4 0 0 0 13.467-2.715l.983.181Z" clip-rule="evenodd"/></svg>