<svg xmlns="http://www.w3.org/2000/svg" width="24" height="24" fill="none"><path d="M17.944 1.386c-.013.085-.114.856-.225 1.714-.11.858-.204 1.583-.21 1.611-.005.028-.115-.084-.244-.249-1.236-1.581-3.068-2.659-5.185-3.051-.544-.1-2.216-.099-2.76.002-1.506.28-2.78.858-3.923 1.779a10.714 10.714 0 0 0-1.391 1.439A8.331 8.331 0 0 0 2.768 6.96c-.146.426-.348 1.197-.32 1.218.006.005.192.04.412.078.22.038.438.078.484.089.075.018.089-.007.136-.232.296-1.45 1.246-3.036 2.407-4.022a7.58 7.58 0 0 1 3.33-1.635c.61-.127 1.721-.173 2.374-.098a7.555 7.555 0 0 1 2.601.824 7.145 7.145 0 0 1 1.888 1.442c.331.348.823.989.772 1.004-.017.006-.905-.104-1.972-.243-1.091-.143-1.95-.238-1.963-.218-.034.052-.128.915-.103.94.026.026 5.4.727 5.423.707.009-.008.165-1.162.347-2.564.182-1.403.342-2.624.355-2.714l.024-.164-.371-.049a21.211 21.211 0 0 1-.498-.069c-.12-.02-.127-.014-.15.132m.035 9.71c-.008.024-.053.206-.101.404-.191.795-.654 1.801-1.149 2.498a9.2 9.2 0 0 1-1.349 1.442 7.42 7.42 0 0 1-2.324 1.277 7.283 7.283 0 0 1-4.516.064c-.607-.182-1.626-.683-2.136-1.05-.636-.457-1.35-1.181-1.758-1.78l-.129-.19.112.02c.362.064 3.822.497 3.847.481.032-.019.145-.935.119-.96-.033-.032-5.399-.712-5.423-.687-.029.028-.734 5.396-.712 5.418.027.028.943.137.965.116.021-.022.453-3.251.454-3.399.001-.118.052-.078.281.217.121.156.385.45.587.653 1.268 1.274 2.802 2.063 4.633 2.383.622.109 1.81.13 2.4.042 1.604-.237 3.021-.848 4.214-1.818l.294-.239 2.956 2.956L22.2 21.9l.35-.35.35-.35-2.955-2.955-2.954-2.955.251-.315a8.91 8.91 0 0 0 1.335-2.348c.163-.437.405-1.338.369-1.375-.013-.013-.233-.063-.488-.112-.321-.061-.469-.074-.479-.044" fill="currentColor" fill-rule="evenodd"/></svg>