<svg xmlns="http://www.w3.org/2000/svg" width="16" height="16" fill="none" viewBox="0 0 16 16"><g clip-path="url(#a)">  <path fill="currentColor" d="M11.951.564a.5.5 0 1 0-.99-.129l-.241 1.85A5.985 5.985 0 0 0 .053 5.467a.5.5 0 1 0 .996.087 4.986 4.986 0 0 1 9.057-2.419l-2.27-.295a.5.5 0 0 0-.128.991l3.237.421a.499.499 0 0 0 .392-.096.5.5 0 0 0 .19-.332l.424-3.26ZM1.11 7.763a.499.499 0 0 0-.142-.016.5.5 0 0 0-.507.436l-.423 3.26a.5.5 0 1 0 .991.128l.244-1.877a5.984 5.984 0 0 0 8.598.892l5.267 5.268a.5.5 0 1 0 .707-.707l-5.27-5.269a5.984 5.984 0 0 0 1.385-3.324.5.5 0 0 0-.996-.088A4.985 4.985 0 0 1 1.91 8.875l2.242.291a.5.5 0 1 0 .129-.99l-3.17-.413Z"/></g><defs>  <clipPath id="a">    <path fill="#fff" d="M0 0h16v16H0z"/>  </clipPath></defs></svg>