<svg xmlns="http://www.w3.org/2000/svg" width="16" height="16" fill="currentColor">
  <g clip-path="url(#a)">
    <path fill-rule="evenodd" d="m12.595 1.125.064-.496L11.667.5l-.064.496-.24 1.839A6.16 6.16 0 0 0 5.039.757 6.167 6.167 0 0 0 .515 5.61l.984.181a5.167 5.167 0 0 1 9.223-2.153L8.54 3.355l-.496-.065-.129.992.496.064 3.207.416.495.065.065-.496.416-3.206Zm.05 6.728a6.167 6.167 0 0 1-1.363 2.873l3.901 3.901.354.354-.707.707-.354-.354-3.9-3.9a6.167 6.167 0 0 1-8.78-.808l-.24 1.842-.064.496-.992-.129.064-.495.416-3.207.065-.496.496.065 3.207.416.495.065-.128.992-.496-.065-2.179-.283a5.166 5.166 0 0 0 9.222-2.155l.983.181Z" clip-rule="evenodd"/>
  </g>
  <defs>
    <clipPath id="a">
      <path d="M0 0h16v16H0z"/>
    </clipPath>
  </defs>
</svg>
