<svg xmlns="http://www.w3.org/2000/svg" width="16" height="17" viewBox="0 0 16 17"><path fill="currentColor" fill-rule="evenodd" d="M11.954 1.55a.5.5 0 0 0-.992-.128l-.24 1.85A5.99 5.99 0 0 0 .048 6.458a.5.5 0 0 0 .996.086 4.989 4.989 0 0 1 9.064-2.42l-2.272-.295a.5.5 0 1 0-.128.992l3.239.42a.5.5 0 0 0 .392-.096.5.5 0 0 0 .19-.332l.425-3.262ZM1.106 8.754a.5.5 0 0 0-.142-.016.5.5 0 0 0-.508.436l-.423 3.262a.5.5 0 0 0 .992.128l.244-1.878a5.988 5.988 0 0 0 8.603.893l5.27 5.27a.5.5 0 1 0 .708-.707l-5.272-5.271a5.988 5.988 0 0 0 1.384-3.327.5.5 0 1 0-.996-.088 4.988 4.988 0 0 1-9.06 2.41l2.244.292a.5.5 0 1 0 .129-.992l-3.173-.412Z" clip-rule="evenodd"/></svg>