<svg xmlns="http://www.w3.org/2000/svg" width="16" height="16" fill="none"><path d="M10.646 2.802 7.333 5.013H0v6H7.373l3.3 2.2a505.28 505.28 0 0 0 3.314 2.2c.007 0 .013-.768.013-1.706V12h-1.013l-.007.773-.007.774-2.66-1.774L7.653 10h-6.64V6h6.64l2.66-1.773 2.66-1.774.007.774.007.773H14V2.293c0-.938-.009-1.706-.02-1.704-.011.001-1.511.997-3.334 2.213m2.358 2.709c-.009.01-.017.46-.017 1v.982l-.994.007-.993.007v.986l.993.007.993.007.007.993.007.993.5.008.5.007V8.507h2V7.493h-2v-2h-.489c-.269 0-.497.008-.507.018" fill="currentColor" fill-rule="evenodd"/></svg>