<svg xmlns="http://www.w3.org/2000/svg" width="24" height="24" fill="none"><path d="m21.08 3.22-2.06 2.06L19 3.398l-.02-1.883-4.32 3.242-4.32 3.241-4.17.001L2 8v9h5.3l-3.07 3.07-3.071 3.071.351.349.351.349L12.86 12.84 23.859 1.841 23.52 1.5a4.49 4.49 0 0 0-.359-.34c-.012 0-.948.927-2.081 2.06m-7.929 7.929L8.3 16H3V9h7.667l3.656-2.743 3.657-2.742.011 1.392.01 1.392-4.85 4.85m4.839 5.094-.01 5.242-2.76-2.069-2.885-2.163-.124-.094-.288.383c-.159.21-.282.399-.276.418.012.032 7.308 5.52 7.34 5.52.007 0 .013-2.808.013-6.24V11h-1l-.01 5.243" fill="currentColor" fill-rule="evenodd"/></svg>