<svg xmlns="http://www.w3.org/2000/svg" width="16" height="16" fill="none"><path d="m14.5.793-.5.5V.94c0-.194-.006-.353-.013-.353-.008 0-1.508.996-3.334 2.213l-3.32 2.213H0v6h4.28l-1.994 1.994L.293 15l.354.353.353.353 7.354-7.353L15.707 1l-.354-.353L15 .294l-.5.499m-5.58 5.58L5.293 10h-4.28V6l3.327-.002 3.327-.002 2.426-1.623a435.943 435.943 0 0 1 2.44-1.625A699.26 699.26 0 0 1 8.92 6.373m4.06 3.4-.007 3.774-2.42-1.614a178.732 178.732 0 0 0-2.44-1.612c-.021 0-.54.775-.54.807 0 .018 6.386 4.285 6.414 4.285.007 0 .013-2.118.013-4.706V6h-1.013l-.007 3.773" fill="currentColor" fill-rule="evenodd"/></svg>