<svg xmlns="http://www.w3.org/2000/svg" width="16" height="16" fill="currentColor" viewBox="0 0 16 16">
  <g clip-path="url(#a)">
    <path fill-rule="evenodd" d="M10 3v3h3v4h-3v3H6v-3H3V6h3V3h4Zm-3 7v2h2v-2H7ZM4 9h2V7H4v2Zm6 0h2V7h-2v2ZM7 9h2V7H7v2Zm0-5v2h2V4H7Z" clip-rule="evenodd"/>
    <path d="M15 8c0-3.724-3.276-7-7-7S1 4.276 1 8c0 1.833.92 3.468 1.997 4.665a8.642 8.642 0 0 0 1.577 1.388c.24.16.452.277.624.352.184.081.28.095.302.095h4.927c.804-.237 1.939-.917 2.882-2.014C14.266 11.373 15 9.86 15 8Zm1 0c0 2.14-.849 3.877-1.934 5.139-1.075 1.251-2.408 2.063-3.434 2.343l-.065.018H5.5c-.229 0-.476-.08-.702-.179a5.209 5.209 0 0 1-.778-.436 9.636 9.636 0 0 1-1.767-1.55C1.08 12.032 0 10.167 0 8c0-4.276 3.724-8 8-8s8 3.724 8 8Z"/>
  </g>
  <defs>
    <clipPath id="a">
      <path d="M0 0h16v16H0z"/>
    </clipPath>
  </defs>
</svg>
