<svg xmlns="http://www.w3.org/2000/svg" width="16" height="16" fill="currentColor">
  <path fill-rule="evenodd" d="M8.447 1.512a.5.5 0 0 0-.894 0L1.67 13.276a.5.5 0 0 0 .447.724h11.764a.5.5 0 0 0 .447-.724L8.447 1.512Zm-1.789-.447c.553-1.105 2.13-1.105 2.684 0l5.882 11.764A1.5 1.5 0 0 1 13.882 15H2.118a1.5 1.5 0 0 1-1.342-2.17L6.658 1.064Z" clip-rule="evenodd"/>
  <path d="m7.535 10.42-.192-4.092-.036-1.368H8.7l-.048 1.368-.192 4.092h-.924Zm.468 2.724a.867.867 0 0 1-.636-.264.936.936 0 0 1-.264-.672.91.91 0 0 1 .264-.672.867.867 0 0 1 .636-.264c.256 0 .468.088.636.264.168.176.252.4.252.672a.96.96 0 0 1-.252.672.842.842 0 0 1-.636.264Z"/>
</svg>
