<svg xmlns="http://www.w3.org/2000/svg" width="24" height="24" fill="none"><path d="M12.011 1.06c-.518.113-1.042.481-1.341.943-.225.345-9.435 17.789-9.546 18.077-.084.22-.1.329-.101.7 0 .375.015.483.104.729a2.222 2.222 0 0 0 1.313 1.32l.3.111h19.52l.301-.111a2.235 2.235 0 0 0 1.327-1.369c.133-.405.127-1.014-.012-1.38-.109-.286-9.319-17.728-9.546-18.077a2.197 2.197 0 0 0-2.319-.943m.779 5.762a.61.61 0 0 1 .375.358c.069.151.073.338.073 3.32 0 2.982-.004 3.169-.073 3.32a.61.61 0 0 1-.375.358.74.74 0 0 1-.58 0 .61.61 0 0 1-.375-.358c-.069-.151-.073-.339-.074-3.311-.001-3.365-.004-3.304.191-3.523.179-.203.565-.278.838-.164m.233 9.84c.12.074.241.195.316.316.109.176.121.229.121.522 0 .293-.012.346-.121.523a.988.988 0 0 1-.33.322c-.358.215-.66.215-1.018 0a.915.915 0 0 1-.464-.765c-.028-.439.153-.772.519-.957.184-.093.253-.106.498-.095.232.011.319.035.479.134" fill="currentColor" fill-rule="evenodd"/></svg>