<svg xmlns="http://www.w3.org/2000/svg" width="24" height="24" fill="none"><path d="M7.74 1.046c-.125.067-6.618 6.56-6.683 6.682C1.008 7.82 1 8.524 1 12.501c0 3.322.013 4.689.044 4.752.063.124 6.553 6.62 6.684 6.69.162.086 9.382.086 9.544 0 .131-.07 6.621-6.566 6.684-6.69.031-.063.044-1.43.044-4.752 0-3.977-.008-4.681-.057-4.773-.07-.131-6.566-6.621-6.69-6.684-.123-.062-9.399-.06-9.513.002M19.93 5.07 23 8.14v8.72l-3.07 3.07L16.86 23H8.14l-3.07-3.07L2 16.86V8.14l3.07-3.07L8.14 2h8.72l3.07 3.07m-7.678 2.008c-.264.161-.252-.005-.252 3.43 0 3.016.003 3.116.078 3.24.2.328.644.328.844 0 .075-.124.078-.224.078-3.248s-.003-3.124-.078-3.248a.478.478 0 0 0-.67-.174m-.13 9.505a.979.979 0 0 0-.509.469c-.25.489-.066 1.056.431 1.327.845.459 1.794-.49 1.335-1.335a.942.942 0 0 0-.888-.522 1.14 1.14 0 0 0-.369.061" fill-rule="evenodd" fill="#000"/></svg>