<svg xmlns="http://www.w3.org/2000/svg" width="16" height="16" fill="none"><path d="M4.68.053C4.526.129.096 4.566.041 4.699.005 4.787 0 5.179 0 8.004c0 3.139.001 3.208.053 3.314.075.155 4.51 4.585 4.646 4.641.088.036.48.041 3.305.041 3.139 0 3.208-.001 3.314-.053.155-.075 4.585-4.51 4.641-4.646.036-.088.041-.48.041-3.301s-.005-3.213-.041-3.301c-.056-.136-4.486-4.571-4.641-4.646C11.212.001 11.143 0 7.998 0 4.849 0 4.785.001 4.68.053m8.273 2.994 2.034 2.033v5.84l-2.047 2.047-2.047 2.046H5.107L3.06 12.967 1.013 10.92V5.08l2.034-2.033L5.08 1.013h5.84l2.033 2.034m-5.211.034a.597.597 0 0 0-.173.166l-.062.1-.008 2.84c-.006 1.999 0 2.869.021 2.94a.597.597 0 0 0 .285.33.568.568 0 0 0 .39 0 .597.597 0 0 0 .285-.33c.021-.071.027-.941.021-2.94l-.008-2.84-.062-.101a.517.517 0 0 0-.689-.165m-.08 7.98a1.01 1.01 0 0 0-.648 1.091c.131.805 1.113 1.125 1.688.55a.995.995 0 0 0-.273-1.602 1.185 1.185 0 0 0-.767-.039" fill="currentColor" fill-rule="evenodd"/></svg>