<svg xmlns="http://www.w3.org/2000/svg" width="16" height="16" fill="none"><path d="M7.613.153A1.237 1.237 0 0 0 7.091.5c-.125.135-.606 1.014-3.514 6.416-1.921 3.567-3.392 6.329-3.42 6.421-.088.281-.054.662.082.928.079.154.333.416.491.507.304.173-.231.161 7.27.161 7.501 0 6.966.012 7.27-.161a1.67 1.67 0 0 0 .491-.507c.136-.266.17-.647.082-.928-.028-.092-1.5-2.854-3.42-6.421C8.659-.077 8.949.423 8.538.22c-.192-.095-.217-.1-.497-.107-.229-.006-.324.003-.428.04m.68 3.662a.911.911 0 0 1 .383.358l.057.107v5.44l-.057.107a.76.76 0 0 1-1.352 0l-.057-.107V4.28l.057-.107A.763.763 0 0 1 8 3.761a.71.71 0 0 1 .293.054m.138 7.286c.177.087.402.316.484.492.048.105.058.175.058.407 0 .251-.007.295-.072.428a1.019 1.019 0 0 1-1.053.558 1.039 1.039 0 0 1-.747-.556 1.157 1.157 0 0 1-.051-.729c.08-.274.335-.541.612-.64.211-.075.572-.056.769.04" fill="currentColor" fill-rule="evenodd"/></svg>