<svg xmlns="http://www.w3.org/2000/svg" width="16" height="16" fill="currentColor">
  <path fill-rule="evenodd" d="M6.658 1.065c.553-1.105 2.13-1.105 2.684 0l5.882 11.764A1.5 1.5 0 0 1 13.882 15H2.118a1.5 1.5 0 0 1-1.342-2.17L6.658 1.064Zm.685 5.263.192 4.092h.924l.192-4.092L8.7 4.96H7.307l.036 1.368Zm.024 6.552a.867.867 0 0 0 .636.264.842.842 0 0 0 .636-.264.96.96 0 0 0 .252-.672.934.934 0 0 0-.252-.672.842.842 0 0 0-.636-.264.867.867 0 0 0-.636.264.91.91 0 0 0-.264.672c0 .264.088.488.264.672Z" clip-rule="evenodd"/>
</svg>
