<svg xmlns="http://www.w3.org/2000/svg" width="24" height="24" fill="none"><path d="M12.071 1.041c-.692.117-1.441.615-1.768 1.176-.298.512-9.036 17.07-9.125 17.292-.587 1.466.371 3.15 1.962 3.449.175.033 2.741.042 9.5.034l9.26-.012.323-.11c1.351-.458 2.09-1.912 1.644-3.235-.063-.187-1.804-3.523-4.51-8.64-2.423-4.584-4.485-8.47-4.58-8.635-.234-.404-.483-.678-.818-.9a2.584 2.584 0 0 0-1.888-.419M13.12 2.13c.265.12.493.298.644.503.126.172 9.02 16.97 9.13 17.243.161.403.113.952-.117 1.345a1.863 1.863 0 0 1-.767.666l-.23.093-9.199.01c-8.346.01-9.219.005-9.419-.054-.464-.134-.797-.427-1.014-.889-.112-.238-.126-.307-.126-.632v-.364l.245-.496c.691-1.393 8.901-16.835 9.031-16.985.217-.25.4-.376.697-.48.35-.123.799-.107 1.125.04m-.868 4.948c-.264.161-.252-.005-.252 3.43 0 3.016.003 3.116.078 3.24.2.328.644.328.844 0 .075-.124.078-.224.078-3.248s-.003-3.124-.078-3.248a.478.478 0 0 0-.67-.174m-.13 9.505a.979.979 0 0 0-.509.469c-.25.489-.066 1.056.431 1.327.845.459 1.794-.49 1.335-1.335a.942.942 0 0 0-.888-.522 1.14 1.14 0 0 0-.369.061" fill-rule="evenodd" fill="#000"/></svg>