<svg xmlns="http://www.w3.org/2000/svg" width="16" height="16" fill="currentColor" viewBox="0 0 16 16">
  <path d="m7.535 9.42-.192-4.092-.036-1.368H8.7l-.048 1.368L8.46 9.42h-.924Zm.468 2.724a.867.867 0 0 1-.636-.264.936.936 0 0 1-.264-.672.91.91 0 0 1 .264-.672.867.867 0 0 1 .636-.264c.256 0 .468.088.636.264.168.176.252.4.252.672a.96.96 0 0 1-.252.672.842.842 0 0 1-.636.264Z"/>
  <path fill-rule="evenodd" d="M4.793 0h6.414L16 4.793v6.414L11.207 16H4.793L0 11.207V4.793L4.793 0Zm.414 1L1 5.207v5.586L5.207 15h5.586L15 10.793V5.207L10.793 1H5.207Z" clip-rule="evenodd"/>
</svg>
