<svg xmlns="http://www.w3.org/2000/svg" width="16" height="16" fill="none"><path d="M7.56.157a1.695 1.695 0 0 0-.928.662C6.441 1.103.25 12.624.182 12.822c-.087.253-.088.735-.003 1.005.198.628.746 1.073 1.425 1.159.306.038 12.486.038 12.792 0 .679-.086 1.227-.531 1.425-1.159.085-.27.084-.752-.003-1.005-.068-.198-6.259-11.719-6.45-12.003a1.81 1.81 0 0 0-.258-.3 2.029 2.029 0 0 0-.701-.37 2.057 2.057 0 0 0-.849.008m.747 1.018c.07.036.16.107.201.158.072.091 6.221 11.495 6.327 11.734a.671.671 0 0 1-.154.751c-.2.197.366.182-6.681.182s-6.482.015-6.68-.182c-.18-.179-.252-.4-.201-.614.049-.203 6.283-11.773 6.419-11.914a.654.654 0 0 1 .769-.115M7.8 4.05a.492.492 0 0 0-.265.276c-.037.087-.042.411-.042 2.681v2.582l.06.117a.712.712 0 0 0 .163.199c.091.073.121.082.284.082.163 0 .193-.009.284-.082a.712.712 0 0 0 .163-.199l.06-.117-.001-2.588c0-2.459-.003-2.593-.05-2.694A.489.489 0 0 0 7.8 4.05m-.138 7.011a1.01 1.01 0 0 0-.648 1.091c.131.805 1.113 1.125 1.688.55a.995.995 0 0 0-.273-1.602 1.185 1.185 0 0 0-.767-.039" fill="currentColor" fill-rule="evenodd"/></svg>