<svg xmlns="http://www.w3.org/2000/svg" width="16" height="16" fill="currentColor" viewBox="0 0 16 16">
  <path fill-rule="evenodd" d="M8 5a4 4 0 1 1 0 8 4 4 0 0 1 0-8ZM6.5 9c-.35 0-.748.183-1.098.416a4.217 4.217 0 0 0-.328.244 3 3 0 0 0 5.876-.118c-.387.23-.901.458-1.45.458-.641 0-1.253-.317-1.724-.553C7.247 9.183 6.86 9 6.5 9ZM8 6a3.001 3.001 0 0 0-2.951 2.457C5.436 8.227 5.95 8 6.5 8c.641 0 1.253.317 1.724.553C8.753 8.817 9.14 9 9.5 9c.35 0 .748-.183 1.098-.416.127-.085.237-.172.327-.245A3 3 0 0 0 8 6Z" clip-rule="evenodd"/>
  <path d="M9 2a1 1 0 1 1 0 2 1 1 0 0 1 0-2ZM12 2a1 1 0 1 1 0 2 1 1 0 0 1 0-2ZM7 3.5H3v-1h4v1Z"/>
  <path fill-rule="evenodd" d="M15 16H1V0h14v16ZM2 15h12V1H2v14Z" clip-rule="evenodd"/>
</svg>
