<svg xmlns="http://www.w3.org/2000/svg" width="16" height="16" fill="none"><path d="M4.16 2.267c-.141.025-.176.051-.506.386-.168.171-.39.374-.493.452-.722.543-1.527.834-2.466.891-.362.022-.381.027-.475.102-.144.117-.198.202-.213.339a.496.496 0 0 0 .385.545c.178.039.76-.005 1.17-.089.941-.19 1.859-.647 2.52-1.254l.16-.148.088.075.259.219c.535.452 1.339.86 2.06 1.044a5.626 5.626 0 0 0 2.38.076 5.819 5.819 0 0 0 1.944-.793c.132-.088.362-.262.511-.388l.271-.228.209.186c.697.619 1.701 1.093 2.649 1.251.314.052.857.079.996.049a.496.496 0 0 0 .384-.545c-.015-.137-.069-.222-.213-.339-.093-.075-.114-.08-.458-.101a4.407 4.407 0 0 1-1.429-.297c-.596-.227-1.168-.623-1.654-1.148-.228-.245-.302-.289-.492-.289-.192 0-.268.045-.496.298a4.342 4.342 0 0 1-3.448 1.43 4.121 4.121 0 0 1-1.763-.459c-.468-.232-.784-.465-1.202-.884-.38-.382-.45-.421-.678-.381m-.069 4.508c-.053.016-.222.162-.467.405-.414.411-.723.639-1.157.853-.589.291-1.093.421-1.818.469-.286.019-.338.03-.431.091a.493.493 0 0 0 .055.844c.301.145 1.351.008 2.114-.277a5.594 5.594 0 0 0 1.596-.937c.116-.101.226-.194.245-.208.026-.019.075.011.177.107.452.425 1.167.847 1.822 1.077a5.473 5.473 0 0 0 3.546.001c.645-.225 1.516-.747 1.865-1.117.043-.046.092-.083.108-.083.017 0 .072.043.122.095.124.129.553.453.799.606.785.485 1.814.79 2.665.792.229 0 .298-.01.395-.056.33-.16.362-.64.055-.844-.093-.061-.145-.072-.431-.091-.604-.04-1.009-.126-1.492-.317-.575-.228-.972-.497-1.482-1.003-.443-.441-.509-.476-.762-.406-.082.023-.195.116-.494.407a5.08 5.08 0 0 1-.64.547c-1.534 1.025-3.424 1.025-4.962 0a4.653 4.653 0 0 1-.619-.529c-.45-.443-.557-.499-.809-.426m-.051 4.53c-.063.029-.207.158-.352.316a4.353 4.353 0 0 1-2.061 1.231c-.297.078-.548.115-1.059.158-.238.019-.285.032-.37.096a.511.511 0 0 0-.161.582.66.66 0 0 0 .291.284c.106.039.427.035.819-.012a5.423 5.423 0 0 0 2.881-1.274l.228-.198.142.131C5.339 13.484 6.685 14 8 14s2.653-.513 3.605-1.383l.148-.136.05.056a5.448 5.448 0 0 0 2.544 1.339c.501.112 1.157.159 1.325.096a.66.66 0 0 0 .291-.284.513.513 0 0 0-.153-.576c-.113-.086-.14-.091-.612-.125-1.152-.085-2.134-.553-2.909-1.388-.256-.275-.367-.346-.544-.346-.164 0-.257.064-.625.431a4.178 4.178 0 0 1-.65.552c-1.525 1.017-3.415 1.017-4.94 0a4.178 4.178 0 0 1-.65-.552c-.198-.197-.399-.375-.446-.395a.493.493 0 0 0-.394.016" fill-rule="evenodd" fill="#000"/></svg>