<svg xmlns="http://www.w3.org/2000/svg" width="16" height="16" fill="currentColor" viewBox="0 0 16 16">
  <path fill-rule="evenodd" d="m11.752 10.97.383.46A4.338 4.338 0 0 0 15.497 13l.5-.003.006 1-.5.003a5.338 5.338 0 0 1-3.755-1.515 5.394 5.394 0 0 1-7.497-.001A5.363 5.363 0 0 1 .499 14l-.5-.001.002-1 .5.001a4.364 4.364 0 0 0 3.365-1.57l.383-.46.384.459a4.394 4.394 0 0 0 6.734 0l.385-.46ZM11.752 6.47l.383.46a4.339 4.339 0 0 0 3.362 1.57l.5-.003.006 1-.5.003a5.338 5.338 0 0 1-3.755-1.516 5.393 5.393 0 0 1-7.497 0A5.364 5.364 0 0 1 .499 9.5l-.5-.001.002-1 .5.001a4.364 4.364 0 0 0 3.365-1.57l.383-.46.384.459a4.393 4.393 0 0 0 6.734 0l.385-.46ZM11.75 1.967l.385.464A4.339 4.339 0 0 0 15.497 4l.5-.003.006 1-.5.003a5.338 5.338 0 0 1-3.753-1.514A5.337 5.337 0 0 1 8 5a5.367 5.367 0 0 1-3.75-1.516A5.364 5.364 0 0 1 .5 5l-.5-.001.002-1 .5.001a4.364 4.364 0 0 0 3.365-1.57l.384-.46.384.46A4.367 4.367 0 0 0 7.999 4a4.337 4.337 0 0 0 3.366-1.57l.385-.463Z" clip-rule="evenodd"/>
</svg>
