<svg xmlns="http://www.w3.org/2000/svg" width="24" height="24" fill="none"><path d="M6.774 3.39c-.069.039-.225.189-.348.335C5.313 5.049 3.595 5.897 1.84 5.987c-.512.027-.644.073-.762.265a.453.453 0 0 0-.016.472c.101.195.276.276.598.276 1.28-.001 2.772-.467 3.94-1.232.483-.316.66-.458 1.089-.874l.309-.3.211.209A7.586 7.586 0 0 0 11.7 6.959c1.684.188 3.448-.241 4.9-1.191.483-.316.66-.458 1.089-.874l.309-.3.211.209A7.586 7.586 0 0 0 22.7 6.959c.578.065.9.053 1.048-.037a.478.478 0 0 0 .174-.67c-.118-.192-.25-.238-.762-.265a6.526 6.526 0 0 1-3.261-1.085c-.465-.31-1.077-.859-1.376-1.234-.329-.413-.635-.451-.934-.116-1.003 1.126-1.879 1.726-3.109 2.128-.72.236-1.144.3-1.98.3-.533 0-.824-.019-1.12-.075a8.05 8.05 0 0 1-1.679-.542c-.737-.341-1.585-.994-2.128-1.638-.332-.394-.539-.481-.799-.335m0 7c-.069.038-.225.189-.348.335-1.113 1.324-2.831 2.172-4.586 2.262-.512.027-.644.073-.762.265a.478.478 0 0 0 .174.67c.304.185 1.524.042 2.573-.302a7.447 7.447 0 0 0 2.965-1.817l.21-.207.21.207a7.47 7.47 0 0 0 2.875 1.79c2.694.929 5.653.242 7.705-1.79l.21-.207.21.207a7.58 7.58 0 0 0 4.49 2.156c.578.065.9.053 1.048-.037a.478.478 0 0 0 .174-.67c-.118-.192-.25-.238-.762-.265a6.526 6.526 0 0 1-3.261-1.085c-.465-.31-1.077-.859-1.376-1.234-.329-.413-.635-.451-.934-.116-1.016 1.14-1.971 1.784-3.209 2.162-.707.217-1.043.264-1.88.264-.63 0-.837-.015-1.209-.09-1.461-.293-2.796-1.07-3.718-2.163-.332-.394-.539-.481-.799-.335m0 7c-.069.038-.225.189-.348.335-1.113 1.324-2.831 2.172-4.586 2.262-.512.027-.644.073-.762.265a.478.478 0 0 0 .174.67c.304.185 1.524.042 2.573-.302a7.447 7.447 0 0 0 2.965-1.817l.21-.207.21.207a7.47 7.47 0 0 0 2.875 1.79c2.694.929 5.653.242 7.705-1.79l.21-.207.21.207a7.58 7.58 0 0 0 4.49 2.156c.578.065.9.053 1.048-.037a.478.478 0 0 0 .174-.67c-.118-.192-.25-.238-.762-.265a6.526 6.526 0 0 1-3.261-1.085c-.465-.31-1.077-.859-1.376-1.234-.329-.413-.635-.451-.934-.116-1.016 1.14-1.971 1.784-3.209 2.162-.707.217-1.043.264-1.88.264-.63 0-.837-.015-1.209-.09-1.461-.293-2.796-1.07-3.718-2.163-.332-.394-.539-.481-.799-.335" fill-rule="evenodd" fill="#000"/></svg>