<svg xmlns="http://www.w3.org/2000/svg" width="24" height="24" fill="none"><path d="M3.252 1.078C2.982 1.243 3 .863 3 6.508c0 5 .002 5.115.078 5.24.167.274-.639.252 9.43.252 8.967 0 9.114-.002 9.24-.078.27-.165.252.214.252-5.422s.018-5.257-.252-5.422C21.622 1.002 21.475 1 12.5 1s-9.122.002-9.248.078M21 6.5V11H4V2h17v4.5M6.252 15.078c-.243.148-.252.2-.252 1.43 0 1.032.006 1.121.078 1.24.2.328.644.328.844 0 .07-.116.078-.205.078-.938V16h3v.802c0 .891.02.978.252 1.12a.451.451 0 0 0 .496 0c.243-.148.252-.201.252-1.422 0-1.221-.009-1.274-.252-1.422-.123-.074-.216-.078-2.248-.078s-2.125.004-2.248.078m8 0c-.243.148-.252.2-.252 1.43 0 1.032.006 1.121.078 1.24.2.328.644.328.844 0 .07-.116.078-.205.078-.938V16h3v.802c0 .891.02.978.252 1.12a.451.451 0 0 0 .496 0c.243-.148.252-.201.252-1.422 0-1.221-.009-1.274-.252-1.422-.123-.074-.216-.078-2.248-.078s-2.125.004-2.248.078m-12 6c-.243.148-.252.2-.252 1.43 0 1.032.006 1.121.078 1.24A.54.54 0 0 0 2.5 24a.54.54 0 0 0 .422-.252c.07-.116.078-.205.078-.938V22h3v.802c0 .891.02.978.252 1.12a.451.451 0 0 0 .496 0c.243-.148.252-.201.252-1.422 0-1.221-.009-1.274-.252-1.422C6.625 21.004 6.532 21 4.5 21s-2.125.004-2.248.078m8 0c-.243.148-.252.2-.252 1.43 0 1.032.006 1.121.078 1.24A.54.54 0 0 0 10.5 24a.54.54 0 0 0 .422-.252c.07-.116.078-.205.078-.938V22h3v.802c0 .891.02.978.252 1.12a.451.451 0 0 0 .496 0c.243-.148.252-.201.252-1.422 0-1.221-.009-1.274-.252-1.422-.123-.074-.216-.078-2.248-.078s-2.125.004-2.248.078m8 0c-.243.148-.252.2-.252 1.43 0 1.032.006 1.121.078 1.24A.54.54 0 0 0 18.5 24a.54.54 0 0 0 .422-.252c.07-.116.078-.205.078-.938V22h3v.802c0 .891.02.978.252 1.12a.451.451 0 0 0 .496 0c.243-.148.252-.201.252-1.422 0-1.221-.009-1.274-.252-1.422-.123-.074-.216-.078-2.248-.078s-2.125.004-2.248.078" fill-rule="evenodd" fill="#000"/></svg>