<svg xmlns="http://www.w3.org/2000/svg" width="16" height="16" fill="currentColor" viewBox="0 0 16 16">
  <path fill-rule="evenodd" d="M2.5 3a.5.5 0 0 0-.5.5V10H1V3.5A1.5 1.5 0 0 1 2.5 2h11A1.5 1.5 0 0 1 15 3.5V10h-1V3.5a.5.5 0 0 0-.5-.5h-11ZM15 12H1v1a1 1 0 0 0 1 1h12a1 1 0 0 0 1-1v-1ZM0 11v2a2 2 0 0 0 2 2h12a2 2 0 0 0 2-2v-2H0Z" clip-rule="evenodd"/>
  <path fill-rule="evenodd" d="M8 7a1 1 0 1 0 0-2 1 1 0 0 0 0 2Zm0 1a2 2 0 1 0 0-4 2 2 0 0 0 0 4Z" clip-rule="evenodd"/>
  <path fill-rule="evenodd" d="M7 8.5A1.5 1.5 0 0 0 5.5 10h-1A2.5 2.5 0 0 1 7 7.5h2a2.5 2.5 0 0 1 2.5 2.5h-1A1.5 1.5 0 0 0 9 8.5H7Z" clip-rule="evenodd"/>
</svg>
