<svg xmlns="http://www.w3.org/2000/svg" width="16" height="16" fill="none"><path d="M1.157.04a1.547 1.547 0 0 0-.983.763C-.012 1.156.001.609.001 8c0 7.394-.014 6.843.174 7.199.122.232.394.504.626.626.356.188-.195.174 7.199.174s6.843.014 7.199-.174c.232-.122.504-.394.626-.626.188-.356.174.195.174-7.199 0-5.86-.005-6.701-.04-6.851A1.533 1.533 0 0 0 14.83.038C14.574-.016 1.407-.015 1.157.04m13.545 1.003c.086.044.204.16.247.242.03.058.038.239.038.9v.828H1.013v-.828c0-.661.008-.842.038-.9a.743.743 0 0 1 .242-.241c.077-.042 13.326-.043 13.409-.001M4.987 9.508v5.507l-1.807-.007c-1.625-.007-1.815-.012-1.887-.052a.74.74 0 0 1-.25-.254c-.022-.043-.03-1.498-.03-5.38V4h3.974v5.508m10-.186c0 3.882-.008 5.337-.03 5.38a.74.74 0 0 1-.25.254c-.074.04-.432.045-4.394.051L6 15.014V4h8.987v5.322" fill-rule="evenodd" fill="#000"/></svg>