<svg xmlns="http://www.w3.org/2000/svg" width="24" height="24" fill="none"><path d="M1.252 2.078C.978 2.245 1 1.333 1 12.508c0 9.959.001 10.114.078 10.24.168.274-.851.252 11.43.252 10.95 0 11.114-.001 11.24-.078.274-.167.252.744.252-10.422s.022-10.255-.252-10.422C23.622 2.001 23.459 2 12.5 2s-11.122.001-11.248.078M23 5.5V8H2V3h21v2.5M4.122 4.583a.979.979 0 0 0-.509.469c-.25.489-.066 1.056.431 1.327.845.459 1.794-.49 1.335-1.335a.942.942 0 0 0-.888-.522 1.14 1.14 0 0 0-.369.061m3 0a.979.979 0 0 0-.509.469c-.25.489-.066 1.056.431 1.327.845.459 1.794-.49 1.335-1.335a.942.942 0 0 0-.888-.522 1.14 1.14 0 0 0-.369.061M7 15.5V22H2V9h5v6.5m16 0V22H8V9h15v6.5" fill-rule="evenodd" fill="#000"/></svg>