<svg xmlns="http://www.w3.org/2000/svg" width="16" height="16" fill="none"><path d="M5.053 2.03a7.033 7.033 0 0 0-1.804.42C1.553 3.123.411 4.382.076 5.947-.01 6.348-.01 7.116.075 7.512c.23 1.067.883 2.011 1.943 2.811l.244.184-.277.833-.278.837c0 .003.445-.213.988-.481l.989-.487.436.086c.75.148 1.029.181 1.551.183.267.001.493-.006.502-.016.01-.01-.006-.118-.036-.24a4.2 4.2 0 0 1 .092-2.225c.367-1.11 1.233-2.068 2.358-2.608.735-.353 1.481-.51 2.342-.491.391.008.431.004.431-.036 0-.103-.197-.642-.334-.915a4.957 4.957 0 0 0-.327-.546 6.434 6.434 0 0 0-.934-.995 6.363 6.363 0 0 0-2.257-1.152 7.09 7.09 0 0 0-2.455-.224m-.866 2.425c.398.22.459.857.111 1.146-.276.228-.789.201-1.082-.057-.42-.37-.279-.921.285-1.123.2-.071.525-.055.686.034m3.842-.05c.28.096.426.29.445.591.015.245-.026.394-.147.527-.201.223-.492.289-.824.188-.226-.068-.388-.185-.483-.347a.474.474 0 0 1-.073-.299c0-.149.012-.196.08-.307a.881.881 0 0 1 .463-.343c.152-.047.418-.052.539-.01m2.558 1.812c-2.081.209-3.759 1.552-4.138 3.311a3.869 3.869 0 0 0 0 1.403c.081.365.165.595.342.938.659 1.277 2.065 2.167 3.742 2.37.327.04.959.034 1.263-.012.145-.022.451-.083.68-.136l.417-.096.77.416c.423.228.773.416.776.416.003 0-.088-.303-.203-.674-.115-.37-.208-.685-.208-.7 0-.014.086-.092.191-.173a6.79 6.79 0 0 0 .886-.853c.847-1.015 1.088-2.071.734-3.213-.196-.63-.668-1.316-1.231-1.789-1.099-.922-2.545-1.357-4.021-1.208m-.576 2.29c.196.101.29.232.304.426.01.134.001.176-.057.275-.123.21-.365.325-.647.307-.221-.014-.364-.109-.472-.315-.062-.118-.075-.171-.065-.273a.586.586 0 0 1 .281-.424c.115-.074.141-.079.326-.072.15.007.233.026.33.076m3.108.003c.601.301.298 1.055-.403 1.005-.475-.035-.698-.602-.362-.92a.517.517 0 0 1 .422-.167.608.608 0 0 1 .343.082" fill="currentColor" fill-rule="evenodd"/></svg>