<svg xmlns="http://www.w3.org/2000/svg" width="16" height="16" fill="currentColor">
  <path d="M10.828 5.883c.186 0 .366.009.546.032C10.893 3.67 8.445 2 5.664 2 2.545 2 0 4.085 0 6.736c0 1.53.852 2.792 2.266 3.769l-.561 1.678 1.978-.976c.71.137 1.274.277 1.984.277.18 0 .352-.008.532-.023a3.883 3.883 0 0 1-.18-1.168c-.003-2.431 2.12-4.41 4.809-4.41Zm-3.04-1.515c.421 0 .704.278.704.699 0 .415-.283.693-.704.693-.43 0-.853-.278-.853-.693.003-.421.425-.699.853-.699ZM3.82 5.76c-.422 0-.853-.278-.853-.693 0-.424.43-.699.853-.699.43 0 .71.278.71.699 0 .418-.28.693-.71.693ZM16 10.23c0-2.23-2.266-4.046-4.812-4.046-2.696 0-4.811 1.815-4.811 4.046 0 2.23 2.118 4.046 4.811 4.046.562 0 1.132-.146 1.705-.283l1.553.839-.43-1.392c1.14-.842 1.984-1.956 1.984-3.21Zm-6.374-.702c-.282 0-.561-.277-.561-.56 0-.279.282-.553.561-.553.43 0 .71.277.71.552 0 .287-.282.561-.71.561Zm3.116 0c-.282 0-.562-.277-.562-.56 0-.279.283-.553.562-.553.422 0 .71.277.71.552.002.287-.288.561-.71.561Z"/>
</svg>
