<svg xmlns="http://www.w3.org/2000/svg" width="16" height="16" viewBox="0 0 16 16">
  <path fill="currentColor" fill-rule="evenodd" d="M12.72 5.777c.311.538.27 1.231-.11 1.973 1.314.756 2.034 1.752 2.034 2.826 0 1.119-.784 2.157-2.208 2.924-1.37.738-3.187 1.144-5.114 1.144s-3.744-.406-5.114-1.144C.784 12.733 0 11.695 0 10.576c0-.12.01-.244.03-.368.05-1.25 1.087-3.06 2.649-4.623 1.049-1.049 2.206-1.869 3.26-2.309 1.13-.472 2.03-.455 2.533.049.419.419.501 1.11.246 1.98.74-.288 1.479-.436 2.13-.423.885.019 1.55.336 1.872.895ZM9.665 7.459c1.027.554 1.637 1.368 1.717 2.292.08.924-.38 1.83-1.296 2.554-.883.696-2.094 1.143-3.409 1.257-.22.02-.438.029-.654.029-1.077 0-2.096-.235-2.92-.68-1.027-.554-1.637-1.368-1.717-2.292-.08-.923.38-1.83 1.296-2.553.883-.697 2.094-1.144 3.409-1.258 1.314-.114 2.584.117 3.574.651Z" clip-rule="evenodd"/>
  <path fill="currentColor" d="M11.661 3.661a.407.407 0 1 0 0 .814c.822 0 1.492.669 1.492 1.491a.407.407 0 1 0 .813 0 2.308 2.308 0 0 0-2.305-2.305Z"/>
  <path fill="currentColor" d="M11.39 1.356c-.102 0-.205.003-.307.01a.542.542 0 0 0 .071 1.082 3.53 3.53 0 0 1 3.69 4.223.55.55 0 0 0 .237.564.55.55 0 0 0 .62-.021.546.546 0 0 0 .207-.326 4.615 4.615 0 0 0-4.518-5.532Z"/>
  <path fill="currentColor" fill-rule="evenodd" d="M8.958 9.767C8.66 8.53 7.222 7.813 5.75 8.167c-1.471.354-2.427 1.647-2.13 2.883.147.608.568 1.109 1.186 1.41.384.186.816.28 1.261.28.252 0 .507-.03.76-.09 1.472-.354 2.428-1.648 2.13-2.883Zm-3.399 2.165a.95.95 0 1 0 0-1.898.95.95 0 0 0 0 1.898Zm2.305-1.898a.542.542 0 1 1-1.084 0 .542.542 0 0 1 1.084 0Z" clip-rule="evenodd"/>
</svg>
