<svg xmlns="http://www.w3.org/2000/svg" width="16" height="16" fill="none"><path d="M10.948 1.398a.49.49 0 0 0-.3.255c-.1.189-.07.469.066.623.025.028.106.08.179.114.119.056.173.063.48.063a3.41 3.41 0 0 1 1.92.554c.59.381 1.069.948 1.339 1.589.25.593.332 1.266.234 1.927-.046.307-.032.415.075.573.237.352.837.253.951-.157.125-.45.138-1.284.029-1.832a4.65 4.65 0 0 0-3.748-3.681c-.347-.062-1.089-.079-1.225-.028M7.033 2.961a4.81 4.81 0 0 0-.866.228C3.787 4.075.997 6.92.226 9.247c-.162.489-.245 1.06-.217 1.486.092 1.368 1.371 2.591 3.455 3.305 1.178.404 2.449.602 3.856.602 2.448 0 4.695-.654 6.053-1.76.262-.214.648-.625.797-.848.162-.244.317-.577.395-.846.085-.299.086-.911 0-1.222-.21-.763-.774-1.446-1.685-2.043a9.502 9.502 0 0 1-.26-.173.973.973 0 0 1 .072-.177c.469-1.012.218-1.959-.64-2.41-.724-.38-1.879-.361-3.073.052-.245.084-.26.086-.244.036.065-.206.118-.578.118-.837.001-.473-.106-.783-.36-1.05a1.401 1.401 0 0 0-.609-.366c-.173-.048-.65-.067-.851-.035m4.533.715a.452.452 0 0 0-.288.268.396.396 0 0 0 .085.388c.093.106.179.137.439.159a1.468 1.468 0 0 1 1.334 1.33c.031.366.153.512.429.512.152 0 .173-.007.26-.091.127-.124.158-.229.134-.463a2.33 2.33 0 0 0-1.365-1.917c-.289-.131-.835-.23-1.028-.186M7.653 6.843c1.519.194 2.773.878 3.363 1.837.351.568.456 1.257.292 1.893-.146.564-.56 1.175-1.107 1.634-2.008 1.688-5.627 1.857-7.637.357-1.14-.851-1.489-2.136-.895-3.301C2.374 7.882 4.245 6.904 6.4 6.79c.29-.016.929.011 1.253.053M6 8.119a3.822 3.822 0 0 0-.852.258c-.473.214-.985.659-1.246 1.084-.298.483-.403 1.082-.279 1.581.157.627.561 1.108 1.188 1.412.675.327 1.422.375 2.202.142 1.327-.397 2.192-1.611 1.958-2.75-.166-.813-.815-1.438-1.739-1.676A3.581 3.581 0 0 0 6 8.119m1.534 1.424a.594.594 0 0 1 .332.497.576.576 0 0 1-.418.518.532.532 0 0 1-.658-.531.48.48 0 0 1 .161-.379.524.524 0 0 1 .583-.105m-1.561.571c.1.037.194.102.296.204.194.194.27.384.271.676 0 .187-.01.229-.097.406-.349.704-1.321.705-1.692.001-.064-.121-.071-.163-.071-.414 0-.269.004-.287.091-.449.237-.437.716-.606 1.202-.424" fill="currentColor" fill-rule="evenodd"/></svg>