<svg xmlns="http://www.w3.org/2000/svg" width="16" height="16" fill="none"><path d="M.993.5 1 1l1.279.013 1.28.014.362 2.96.377 3.066.014.107-.242.08c-1.12.366-2.132 1.261-2.628 2.32a4.41 4.41 0 0 0-.433 1.96c.002 1.429.663 2.73 1.831 3.603a4.51 4.51 0 0 0 3.213.839 4.433 4.433 0 0 0 2.624-1.285 4.482 4.482 0 0 0 1.177-4.304 4.96 4.96 0 0 0-.515-1.213l-.083-.133 1.672-.008c.92-.004 1.699-.001 1.732.007.078.019.239.163.288.257.033.063.039.362.039 1.936l-.001 1.861-.168.087c-.48.248-.779.707-.81 1.246-.026.447.118.822.437 1.142.32.319.695.463 1.142.437a1.488 1.488 0 0 0 1.349-1.059c.07-.222.076-.586.013-.826a1.553 1.553 0 0 0-.795-.955l-.153-.072L14 11.2c-.001-2.084 0-2.067-.174-2.397a1.618 1.618 0 0 0-.676-.655c-.29-.146-.314-.147-2.657-.148h-2.16l-.215-.154c-.74-.527-1.661-.832-2.51-.833h-.299l-.014-.086a99.423 99.423 0 0 1-.228-1.874c0-.035.47-.04 3.966-.046L13 5l.007-.5.008-.5H4.937l-.016-.113C4.887 3.643 4.453.074 4.453.038 4.453.005 4.203 0 2.719 0H.985l.008.5m5.225 7.581c1.171.239 2.134 1.073 2.567 2.224.148.394.187.634.188 1.175 0 .392-.011.558-.048.732A3.538 3.538 0 0 1 6.36 14.89a3.235 3.235 0 0 1-.867.101 3.466 3.466 0 0 1-2.917-1.577A3.498 3.498 0 0 1 4.76 8.083c.403-.093 1.009-.093 1.458-.002m7.411 5.937a.511.511 0 0 1 .215.143c.101.102.129.149.144.252a.49.49 0 0 1-.511.58c-.138-.002-.245-.056-.353-.179-.101-.115-.121-.186-.105-.373.025-.303.291-.487.61-.423" fill-rule="evenodd" fill="#000"/></svg>