<svg xmlns="http://www.w3.org/2000/svg" width="24" height="24" fill="none"><path d="M2.48 1.5V2h1.297c1.201 0 1.299.005 1.318.07.091.314 1.623 8.147 1.598 8.17a1.24 1.24 0 0 1-.253.1 7.743 7.743 0 0 0-1.338.63c-1.597.986-2.661 2.558-3.012 4.45-.092.495-.092 1.665 0 2.16.514 2.771 2.559 4.816 5.33 5.33.495.092 1.665.092 2.16 0 2.771-.514 4.816-2.559 5.33-5.33.092-.495.092-1.665 0-2.16-.138-.744-.474-1.678-.77-2.143a1.535 1.535 0 0 1-.139-.249c-.001-.017 1.092-.026 2.429-.02l2.43.012.24.112c.315.147.624.455.767.764l.113.244v3.909l-.221.068a2.566 2.566 0 0 0-1.641 1.605c-.084.254-.098.372-.096.798.002.439.016.536.111.8a2.585 2.585 0 0 0 1.547 1.547c.269.098.354.109.82.109.466 0 .551-.011.82-.109a2.589 2.589 0 0 0 1.548-1.547c.097-.268.108-.355.108-.82 0-.465-.011-.552-.108-.82a2.56 2.56 0 0 0-1.627-1.563l-.221-.068-.02-2.034-.02-2.035-.111-.3a2.54 2.54 0 0 0-1.249-1.403c-.558-.276-.549-.276-3.655-.276L13.19 12l-.249-.233c-1.294-1.21-3.069-1.857-4.789-1.746-.427.027-.428.027-.451-.067-.039-.162-.581-2.889-.581-2.922 0-.018 2.34-.032 5.2-.032h5.2V6l-5.308-.01-5.308-.01-.498-2.49L5.908 1H2.48v.5m6.592 9.542a5.49 5.49 0 0 1 4.51 3.377 5.508 5.508 0 0 1-1.203 5.966 5.47 5.47 0 0 1-7.711.042 5.491 5.491 0 0 1-1.25-6.008 5.49 5.49 0 0 1 5.654-3.377m-1.112 3.02a2.885 2.885 0 0 0-1.128.577c-.3.268-.593.713-.714 1.083-.084.254-.098.372-.096.798.002.439.016.536.111.8a2.585 2.585 0 0 0 1.547 1.547c.269.098.354.109.82.109.465 0 .552-.011.82-.108a2.589 2.589 0 0 0 1.547-1.548c.098-.269.109-.354.109-.82 0-.465-.011-.552-.108-.82a2.535 2.535 0 0 0-2.908-1.618m1.159 1.081c.298.136.608.449.746.753.095.209.111.296.111.604s-.016.395-.111.604c-.14.309-.448.616-.765.764-.207.097-.29.112-.6.112s-.393-.015-.6-.112a1.675 1.675 0 0 1-.765-.764c-.095-.208-.111-.296-.111-.604-.001-.309.015-.394.11-.6.193-.422.615-.771 1.04-.861.267-.057.696-.009.945.104m12 4c.298.136.608.449.746.753.095.209.111.296.111.604s-.016.395-.111.604c-.14.309-.448.616-.765.764-.207.097-.29.112-.6.112s-.393-.015-.6-.112a1.675 1.675 0 0 1-.765-.764c-.095-.208-.111-.296-.111-.604-.001-.309.015-.394.11-.6.193-.422.615-.771 1.04-.861.267-.057.696-.009.945.104" fill-rule="evenodd" fill="#000"/></svg>