<svg xmlns="http://www.w3.org/2000/svg" width="24" height="24" fill="none"><path d="M11.445 4.044c-3.464.249-6.811 1.785-9.224 4.233l-.32.324.348.348.348.348.332-.32c.777-.749 1.34-1.207 2.121-1.729a13.434 13.434 0 0 1 8.203-2.216c1.938.121 3.484.525 5.167 1.349 1.356.664 2.299 1.325 3.493 2.448l.494.463.346-.345.346-.346-.28-.285a14.546 14.546 0 0 0-8.199-4.153 14.94 14.94 0 0 0-3.175-.119m.215 6.001c-1.372.13-2.818.653-3.998 1.444-.465.311-.67.473-1.169.92l-.406.365.346.371.347.371.22-.211a8.43 8.43 0 0 1 2.138-1.504c1.835-.898 3.848-1.037 5.755-.4a8.372 8.372 0 0 1 3.093 1.891c.113.108.222.191.241.183.02-.008.182-.169.362-.357l.326-.342-.407-.366c-.5-.448-.705-.609-1.17-.921a8.738 8.738 0 0 0-5.678-1.444m.3 6.017a2.885 2.885 0 0 0-1.128.577c-.3.268-.593.713-.714 1.083-.084.254-.098.372-.096.798.002.439.016.536.111.8a2.585 2.585 0 0 0 1.547 1.547c.269.098.354.109.82.109.465 0 .552-.011.82-.108a2.589 2.589 0 0 0 1.547-1.548c.098-.269.109-.354.109-.82 0-.465-.011-.552-.108-.82a2.535 2.535 0 0 0-2.908-1.618m1.159 1.081c.298.136.608.449.746.753.095.209.111.296.111.604s-.016.395-.111.604c-.14.309-.448.616-.765.764-.207.097-.29.112-.6.112s-.393-.015-.6-.112a1.675 1.675 0 0 1-.765-.764c-.095-.208-.111-.296-.111-.604-.001-.309.015-.394.11-.6.193-.422.615-.771 1.04-.861.267-.057.696-.009.945.104" fill-rule="evenodd" fill="#000"/></svg>