<svg xmlns="http://www.w3.org/2000/svg" width="16" height="16" fill="none"><path d="M1.529 1.055C.947 1.182.376 1.671.145 2.238-.007 2.613 0 2.337 0 8c0 5.663-.007 5.387.145 5.762.232.57.772 1.032 1.396 1.192.167.043.591.046 6.459.046 5.868 0 6.292-.003 6.459-.046.624-.16 1.164-.622 1.396-1.192.152-.375.145-.099.145-5.762 0-5.663.007-5.387-.145-5.762a2.093 2.093 0 0 0-1.04-1.066c-.373-.169.061-.159-6.837-.156-5.177.002-6.314.009-6.449.039m12.7.98c.309.065.587.31.702.619.053.141.056.2.056 1.254v1.105H1.013V3.908c0-1.054.003-1.113.056-1.254.113-.303.393-.554.689-.618.224-.048 12.241-.049 12.471-.001M2 3.507V4h4v-.987H2v.494m12.98 6.126-.007 3.634-.071.153c-.079.167-.281.387-.425.461-.236.123-.001.118-6.477.118s-6.241.005-6.477-.118c-.144-.074-.346-.294-.425-.461l-.071-.153-.007-3.634L1.013 6h13.974l-.007 3.633" fill-rule="evenodd" fill="#000"/></svg>