<svg xmlns="http://www.w3.org/2000/svg" width="24" height="24" fill="none"><path d="M2.38 1.576c-.452.112-.95.421-1.279.793-.209.237-.465.739-.547 1.071-.08.327-.08 16.793 0 17.12.175.713.701 1.372 1.334 1.674.604.287-.198.266 10.112.266h9.34l.3-.094a2.51 2.51 0 0 0 1.041-.595 2.53 2.53 0 0 0 .71-1.071l.109-.32v-8.38c0-6.907-.01-8.419-.054-8.6a2.643 2.643 0 0 0-1.629-1.81l-.237-.09-9.5-.007c-7.445-.005-9.543.004-9.7.043m19.271 1.081c.273.139.575.445.711.723l.098.2.011 2.21.012 2.21H1.518l.011-2.21.011-2.21.098-.2c.174-.353.521-.67.878-.801.119-.044 1.793-.052 9.524-.046l9.38.007.231.117M4 5.5V6h1V5H4v.5m2 0V6h1V5H6v.5m2 0V6h1V5H8v.5m14.47 9.19-.01 5.69-.108.231c-.132.282-.458.609-.731.733a2.149 2.149 0 0 1-.461.134c-.33.053-17.984.057-18.35.004a1.511 1.511 0 0 1-1.154-.834l-.116-.228-.01-5.71L1.519 9h20.962l-.011 5.69" fill-rule="evenodd" fill="#000"/></svg>