<svg xmlns="http://www.w3.org/2000/svg" width="43" height="43" fill="none"><path d="M30.924.08c-4.451.416-8.269 3.519-9.603 7.803-.595 1.91-.639 3.912-.137 6.165.037.167-.741.832-9.945 8.502-5.492 4.576-10.14 8.487-10.33 8.69-1.005 1.075-1.149 2.741-.351 4.056.227.374 6.772 6.919 7.146 7.146 1.294.786 2.962.656 4.02-.314.186-.171 4.062-4.777 8.614-10.236 4.551-5.46 8.314-9.969 8.363-10.021.074-.079.211-.069.798.056.868.185 2.173.27 3.192.207 3.448-.214 6.707-2.211 8.649-5.3.597-.949 1.145-2.343 1.405-3.576.328-1.553.239-3.811-.21-5.324-.137-.459-.22-.552-.493-.552-.199 0-.528.304-2.966 2.741l-2.741 2.741-3.099-3.1-3.1-3.099 2.741-2.741c2.437-2.438 2.741-2.767 2.741-2.966 0-.123-.044-.26-.098-.305-.265-.22-1.595-.485-2.912-.581A23.295 23.295 0 0 0 31.605.01c-.02.005-.326.037-.681.07m2.532 1.025c.367.055.688.12.713.145.025.025-1.122 1.214-2.549 2.641-2.252 2.253-2.595 2.624-2.595 2.809 0 .187.449.663 3.53 3.745 3.082 3.081 3.558 3.53 3.745 3.53.185 0 .556-.343 2.809-2.595 1.427-1.427 2.616-2.574 2.641-2.549.025.025.094.362.153.749.131.857.086 2.739-.084 3.499-.824 3.695-3.434 6.566-6.989 7.687-1.118.353-1.562.412-3.046.407-1.159-.003-1.468-.028-2.078-.169-1.171-.271-1.253-.271-1.513.007-.122.131-3.957 4.718-8.522 10.193-4.564 5.476-8.399 10.049-8.52 10.164a3.027 3.027 0 0 1-.616.401c-.338.165-.485.192-1.039.192-1.057 0-.992.051-4.78-3.747-3.654-3.663-3.64-3.646-3.696-4.602-.037-.639.136-1.188.518-1.645.131-.157 4.733-4.032 10.226-8.61 5.493-4.579 10.094-8.426 10.226-8.549.276-.258.276-.3.002-1.514-.135-.602-.162-.935-.165-2.078-.005-1.484.054-1.928.407-3.046a10.29 10.29 0 0 1 8.045-7.053c.753-.132 2.338-.138 3.177-.012" fill-rule="evenodd" fill="#000"/></svg>