<svg xmlns="http://www.w3.org/2000/svg" width="43" height="43" viewBox="0 0 43 43" fill="none">
  <path d="M42.018 7.82797L36.329 13.517L29.483 6.67097L35.172 0.981971C33.8551 0.593811 32.4801 0.440472 31.11 0.528971C28.5817 0.7389 26.2098 1.83898 24.4164 3.63348C22.623 5.42798 21.5244 7.80052 21.316 10.329C21.227 11.6987 21.3801 13.0733 21.768 14.39L1.54 31.257C1.2314 31.5144 0.979807 31.8332 0.801256 32.1932C0.622704 32.5532 0.521112 32.9465 0.502955 33.3479C0.484797 33.7494 0.550473 34.1502 0.695795 34.5248C0.841117 34.8995 1.0629 35.2398 1.347 35.524L7.476 41.653C7.7602 41.9371 8.10047 42.1589 8.47513 42.3042C8.84978 42.4495 9.2506 42.5152 9.65204 42.497C10.0535 42.4789 10.4467 42.3773 10.8067 42.1987C11.1668 42.0202 11.4856 41.7686 11.743 41.46L28.615 21.232C29.9316 21.6199 31.3063 21.7729 32.676 21.684C35.2036 21.4745 37.5749 20.3753 39.3684 18.582C41.1619 16.7888 42.2612 14.4175 42.471 11.89C42.5595 10.5199 42.4062 9.1449 42.018 7.82797V7.82797Z" stroke="#0A8276" stroke-linecap="round" stroke-linejoin="round"/>
</svg>