<svg xmlns="http://www.w3.org/2000/svg" width="16" height="16" fill="none" viewBox="0 0 16 16">
  <path fill="#1D1D1D" d="M6.931 6.356c-.065.118-.919 1.585-2.556 4.41-.178.296-.393.446-.645.446H1.356c-.28 0-.44-.268-.31-.514l2.516-4.332c.008 0 .008-.003 0-.01l-1.6-2.7c-.157-.278.01-.503.31-.503h2.373c.266 0 .485.146.656.435l1.63 2.768ZM14.95.503l-5.25 9.034v.01l3.34 5.95c.142.253.007.503-.31.503H10.35c-.277 0-.496-.143-.656-.436L6.326 9.548l5.28-9.112c.167-.29.379-.436.638-.436h2.395c.292 0 .449.24.31.503Z"/>
</svg>
