<svg xmlns="http://www.w3.org/2000/svg" width="16" height="16" fill="none"><path d="M11.985.063a.856.856 0 0 0-.236.18c-.056.064-1.299 2.184-2.763 4.711L6.324 9.548l1.706 3.046c.938 1.675 1.739 3.088 1.78 3.139a.94.94 0 0 0 .204.174l.128.08 1.343.007c1.209.007 1.352.003 1.437-.037a.285.285 0 0 0 .164-.305c-.009-.067-.577-1.104-1.701-3.106-1.332-2.373-1.682-3.015-1.661-3.049.291-.475 5.229-9.006 5.254-9.076a.303.303 0 0 0-.122-.36L14.765 0h-1.322L12.12.001l-.135.062M2.12 3.186c-.176.064-.258.207-.204.36.015.044.39.691.832 1.438.443.748.805 1.367.805 1.376 0 .01-.559.981-1.243 2.16a142.949 142.949 0 0 0-1.285 2.239.329.329 0 0 0 .075.354c.116.109.237.117 1.527.109 1.402-.01 1.358-.003 1.587-.251.08-.087.555-.881 1.411-2.357.71-1.225 1.291-2.24 1.291-2.257 0-.042-1.604-2.761-1.716-2.909a.905.905 0 0 0-.24-.205l-.147-.083-1.293-.006c-1.071-.005-1.312 0-1.4.032" fill="currentColor" fill-rule="evenodd"/></svg>