<svg xmlns="http://www.w3.org/2000/svg" width="16" height="16" fill="none" viewBox="0 0 16 16">
  <path fill="currentColor" d="M6.685 7.386c.001-.959-.73-1.74-1.63-1.741-.903 0-1.636.777-1.637 1.734-.002.477.153.915.436 1.23.298.333.71.51 1.192.511l.005.018V9.12c.99 0 1.632-.682 1.634-1.734Zm-2.168.696c-.141-.181-.22-.42-.218-.674.002-.525.34-.952.754-.952h.001c.416 0 .752.429.752.955-.001.525-.339.952-.753.952a.679.679 0 0 1-.536-.281ZM9.298 5.766c-.27.01-.42.181-.43.498v1.624a.59.59 0 0 1-.61.584c-.356 0-.594-.23-.61-.586V6.261c-.016-.325-.154-.488-.418-.5-.283 0-.428.164-.446.501v1.626c.03.811.525 1.232 1.467 1.25.952-.015 1.437-.423 1.48-1.247V6.264c-.013-.32-.16-.486-.433-.498ZM3.56 5.91a.422.422 0 0 0-.253-.227.736.736 0 0 0-.257-.056c-.239 0-.344.187-.416.368l-.655 1.456-.877-1.502c-.081-.157-.246-.323-.46-.323A.49.49 0 0 0 .39 5.7c-.387.23-.166.665-.156.685l1.26 2.148L.997 9.64c-.037.083-.192.506.219.68a.603.603 0 0 0 .232.053c.238 0 .365-.208.456-.41l1.642-3.625s.096-.23.014-.428ZM15.405 5.766c-.27.01-.42.181-.43.498v1.624a.59.59 0 0 1-.61.584c-.355 0-.594-.23-.61-.586V6.261c-.016-.325-.153-.488-.417-.5-.284 0-.43.164-.447.501v1.626c.03.811.523 1.232 1.467 1.25.952-.015 1.437-.423 1.48-1.247V6.264c-.012-.32-.16-.486-.433-.498ZM10.79 8.72v-.962l.026.028 1.293 1.192c.086.076.203.12.33.12a.453.453 0 0 0 .33-.13.415.415 0 0 0 .103-.306.574.574 0 0 0-.176-.401l-.904-.835.813-.765c.016-.016.379-.397.05-.74a.421.421 0 0 0-.316-.14.537.537 0 0 0-.355.144l-1.197 1.22v-.907c-.006-.296-.177-.459-.462-.459-.293 0-.437.146-.455.458v2.48c.016.277.165.413.455.413l.005.017V9.13c.29.001.448-.138.46-.41Z"/>
</svg>
