<svg xmlns="http://www.w3.org/2000/svg" width="16" height="16" fill="none"><path d="M5.867 1.906a1.634 1.634 0 0 0-1.203 1.187 1.856 1.856 0 0 0-.035.347c0 .427.153.788.462 1.095.184.183.285.248 1.122.73.506.291.936.544.956.562.028.026-.152.14-.92.586-.526.304-1.018.606-1.094.671a1.684 1.684 0 0 0-.451.69 1.613 1.613 0 0 0-.017.933c.165.531.615.953 1.153 1.083.327.078.741.028 1.048-.127.166-.085 3.371-1.934 3.565-2.057.335-.214.662-.607.808-.973.345-.861.072-1.878-.652-2.425-.277-.21-3.697-2.175-3.918-2.252a1.71 1.71 0 0 0-.824-.05M.36 11.374a2.142 2.142 0 0 1-.096.023c-.099.022-.234.169-.254.277-.038.204.009.271.646.914l.597.602v.665c0 .58.006.677.047.756a.393.393 0 0 0 .68.033c.058-.094.06-.123.068-.81l.009-.713.559-.54c.308-.298.584-.578.612-.624a.416.416 0 0 0 .014-.369c-.063-.153-.254-.241-.431-.201-.082.019-.195.117-.624.546l-.524.523-.518-.497a13.716 13.716 0 0 0-.572-.532c-.059-.038-.172-.066-.213-.053m4.268.015c-.363.054-.604.18-.882.461-.322.326-.43.591-.457 1.123-.031.597.12 1.047.463 1.387.279.277.725.465 1.104.466.173.001.513-.091.717-.193.264-.131.526-.404.662-.686.142-.296.175-.498.159-.97-.012-.326-.023-.404-.087-.577a1.487 1.487 0 0 0-.423-.629 1.584 1.584 0 0 0-1.256-.382m2.153.026c-.195.097-.201.134-.187 1.201.009.746.02.949.056 1.088.196.75.794 1.166 1.595 1.111.581-.041 1.012-.309 1.233-.768.168-.35.181-.457.185-1.501.004-1.026.006-1.016-.162-1.125-.098-.064-.343-.062-.442.004-.137.091-.138.097-.152 1.135-.014.957-.015.975-.077 1.101-.132.265-.378.404-.711.401-.319-.003-.549-.134-.686-.39-.058-.109-.06-.141-.073-1.09-.013-.936-.016-.981-.069-1.053a.447.447 0 0 0-.318-.169.556.556 0 0 0-.192.055m3.379-.028a.336.336 0 0 0-.257.171c-.047.077-.05.163-.049 1.535 0 1.335.004 1.461.047 1.54.072.133.165.18.356.18.191 0 .287-.053.363-.202.041-.079.046-.173.046-.718l-.001-.626.767.753c.524.515.795.763.856.783.235.077.486-.113.485-.368a.47.47 0 0 0-.039-.177c-.022-.041-.28-.309-.573-.596-.294-.287-.534-.54-.534-.564 0-.024.258-.302.573-.619l.573-.575v-.132c0-.214-.101-.339-.314-.387-.182-.041-.23-.005-.979.729-.394.384-.737.735-.764.779-.048.079-.049.072-.049-.567 0-.705-.014-.788-.146-.874a.548.548 0 0 0-.361-.065m2.927.041a.373.373 0 0 0-.12.126c-.043.079-.046.168-.038 1.032.008.81.016.973.058 1.137.189.736.763 1.139 1.56 1.094.146-.008.332-.034.413-.058.483-.144.82-.503.975-1.039.039-.135.048-.309.058-1.111.012-1.055.011-1.065-.161-1.17-.174-.106-.466-.047-.557.113-.026.046-.038.3-.048 1.035l-.014.973-.07.133c-.138.261-.337.37-.676.372-.284.002-.429-.055-.586-.23-.193-.214-.201-.266-.201-1.294 0-.984-.003-1.001-.168-1.102a.524.524 0 0 0-.425-.011m-7.925.783a.885.885 0 0 1 .372.363c.064.132.091.749.04.931-.076.272-.372.514-.663.542-.293.028-.618-.162-.756-.441-.056-.115-.062-.16-.06-.513.001-.436.021-.508.187-.692a.859.859 0 0 1 .398-.244.93.93 0 0 1 .482.054" fill="currentColor" fill-rule="evenodd"/></svg>