<svg xmlns="http://www.w3.org/2000/svg" width="16" height="16" fill="currentColor" viewBox="0 0 16 16">
  <path d="M6.97 11.363c-.375.002-.378.348-.378.348l.008 1.601c0 .013-.008 1.51 1.527 1.507 1.53-.005 1.535-1.494 1.535-1.494l.008-1.611s0-.349-.384-.349c-.378-.002-.378.344-.378.344l-.006 1.613c.01.01.013.75-.775.745-.785.005-.782-.763-.782-.763l.007-1.59s-.005-.349-.381-.351Zm-2.123.005h-.01a1.56 1.56 0 0 0-.404.058 1.503 1.503 0 0 0-.686.401c-.331.303-.468.76-.457 1.195-.013.358.027.74.23 1.05.25.432.732.702 1.229.747.03.003.06.003.088.003H4.855c.03 0 .06 0 .09-.003.498-.045.98-.315 1.23-.747.203-.31.24-.692.23-1.05.01-.435-.128-.892-.457-1.195a1.503 1.503 0 0 0-.686-.401 1.563 1.563 0 0 0-.407-.058h-.008Zm-4.448 0a.408.408 0 0 0-.377.255c-.058.151.003.328.119.44.366.373.747.736 1.108 1.115l.005 1.247s-.005.392.394.4c.392-.006.397-.397.397-.397l.007-1.283 1.121-1.116c.124-.103.13-.283.084-.424-.086-.235-.427-.318-.609-.141-.005.007-.992.987-.992.987L.603 11.438a.335.335 0 0 0-.204-.07Zm4.448.767a.796.796 0 0 1 .692.44c.111.23.066.73.068.734.008.298-.202.566-.472.685a.77.77 0 0 1-.578 0c-.268-.119-.477-.387-.472-.685.005-.005-.04-.504.07-.734a.785.785 0 0 1 .692-.44ZM12.37 11.368a.31.31 0 0 0-.223.098c-.462.432-.901.889-1.353 1.328a.566.566 0 0 0-.13.197l-.002-1.252s.005-.371-.404-.369c-.406-.002-.404.372-.404.372l.003 2.744s.005.338.401.333c.387.003.4-.33.4-.33s.017-1.263.01-1.263c.058.101.14.184.23.263.343.338.68.681 1.024 1.017.099.096.187.207.308.275.245.144.596-.103.546-.38 0-.175-.152-.284-.263-.395-.293-.293-.593-.583-.886-.88v-.072c.333-.328.666-.656.997-.987.091-.078.164-.182.154-.308.023-.225-.2-.396-.409-.391Zm.928.007c-.376.003-.378.349-.378.349l.007 1.595c0 .013-.007 1.505 1.53 1.505 1.528-.005 1.533-1.492 1.533-1.492l.01-1.608s0-.346-.386-.346a.347.347 0 0 0-.38.343l-.002 1.609c.008.01.01.747-.777.742-.786.005-.78-.757-.78-.757l.005-1.591s-.003-.346-.382-.349ZM6.158 1.868a1.572 1.572 0 0 0-.735 2.939c.607.352 1.216.7 1.821 1.054 1.04.602 2.08 1.2 3.12 1.803.342-.2.632-.492.814-.846.237-.454.296-.996.17-1.491a2.063 2.063 0 0 0-.687-1.087c-.173-.145-.375-.25-.57-.364l-3.09-1.784a1.606 1.606 0 0 0-.843-.224Z"/>
  <path d="M7.22 5.846c-.601.352-1.203.702-1.806 1.049a1.573 1.573 0 0 0-.548 2.209 1.575 1.575 0 0 0 2.123.508l3.375-1.948-3.12-1.803-.025-.015Z"/>
</svg>
