<svg width="24" height="18" fill="none" xmlns="http://www.w3.org/2000/svg"><path d="M10.5.027C7.141.123 4.138.413 2.885.761c-.324.09-.825.327-1.118.528C1.13 1.726.627 2.521.418 3.424.195 4.383 0 6.983 0 9c0 2.254.174 4.399.442 5.47.2.798.48 1.348.935 1.838.582.627 1.184.914 2.33 1.111 2.614.45 6.916.672 10.473.54 2.389-.088 4.588-.275 5.892-.502 2.013-.35 3.062-1.268 3.504-3.066.335-1.36.507-4.614.383-7.231-.131-2.768-.359-3.989-.926-4.952-.173-.293-.79-.911-1.08-1.081A4.082 4.082 0 0 0 20.9.707c-1.957-.462-6.855-.782-10.4-.68m2.274 6.733c2.037 1.221 3.703 2.229 3.703 2.24 0 .018-7.36 4.442-7.442 4.473C9.015 13.481 9 11.539 9 9c0-2.539.015-4.481.035-4.473.019.007 1.702 1.012 3.739 2.233" fill="#0A8276" fill-rule="evenodd"/></svg>