<svg xmlns="http://www.w3.org/2000/svg" width="16" height="16" fill="none"><path d="M7 2.018c-2.239.064-4.241.257-5.077.489-.216.06-.55.218-.745.352-.425.292-.76.822-.9 1.424C.13 4.922 0 6.655 0 8c0 1.502.116 2.933.295 3.647.133.532.319.899.623 1.225.388.418.789.609 1.553.741 1.743.3 4.611.448 6.982.36 1.593-.059 3.059-.184 3.928-.335 1.342-.233 2.042-.845 2.337-2.044.222-.907.337-3.076.255-4.821-.087-1.845-.24-2.659-.618-3.301-.115-.196-.526-.607-.72-.721a2.762 2.762 0 0 0-.702-.28C12.629 2.163 9.363 1.95 7 2.018m1.516 4.489c1.358.814 2.469 1.486 2.469 1.493 0 .012-4.907 2.961-4.962 2.982C6.01 10.987 6 9.692 6 8c0-1.692.01-2.987.023-2.982.013.005 1.135.675 2.493 1.489" fill="currentColor" fill-rule="evenodd"/></svg>