<svg xmlns="http://www.w3.org/2000/svg" width="16" height="16" fill="none"><path d="M1.451 4.03c-.158.036-.383.18-.481.309a1.23 1.23 0 0 0-.144.293 17.163 17.163 0 0 1-.549 1.405l-.169.37.126-.015c.415-.049.699-.286.859-.719l.057-.153h.722l-.018.847c-.01.465-.024.867-.031.893-.012.043-.069.047-.708.047H.42l-.087.092c-.072.076-.2.361-.2.446 0 .012.366.022.814.022h.813v.06c0 .109-.081.523-.148.76-.09.316-.399.928-.613 1.212a4.809 4.809 0 0 1-.769.808c-.11.088-.201.168-.202.178-.006.065.522.071.756.009a1.27 1.27 0 0 0 .582-.332c.269-.302.56-.836.718-1.318.086-.261.087-.263.134-.205.026.032.326.382.666.778.411.478.625.708.638.684.041-.075.083-.438.067-.574-.025-.216-.076-.311-.299-.564-.357-.402-.707-.776-.728-.776-.01 0-.089.054-.175.12a.674.674 0 0 1-.165.11.897.897 0 0 1 .045-.207c.044-.159.132-.636.133-.723 0-.011.348-.02.774-.02h.773l-.017-.154a1.484 1.484 0 0 0-.061-.273l-.044-.12-.688-.007-.688-.007.016-.54c.009-.297.023-.698.032-.893l.015-.353h1.275v-.079c0-.139-.055-.339-.11-.398-.052-.056-.064-.056-1.185-.056-.926 0-1.132-.007-1.132-.036 0-.048.169-.577.25-.784L1.676 4l-.058.003a1.272 1.272 0 0 0-.167.027m13.669.211c-.369.094-4.24.423-5.528.47-.261.01-.48.027-.488.04-.023.037.084.245.166.321.198.186.425.206 1.615.144.45-.024.909-.043 1.02-.043h.202v2.4h-1.654c-1.858 0-1.703-.019-1.603.202a.677.677 0 0 0 .39.329c.078.019.577.029 1.492.029h1.375v.943c0 .936-.001.943-.061 1.033-.157.233-.316.27-1.016.234-.291-.014-.536-.02-.544-.011-.03.03.196.318.326.414.552.406 1.429.315 1.744-.181.156-.246.164-.315.164-1.423V8.133H15.831l.056-.06c.062-.065.111-.242.112-.4l.001-.1h-3.28V5.154l.153-.015c.085-.009.658-.041 1.274-.072a33.83 33.83 0 0 0 1.237-.075c.114-.018.12-.024.165-.159.098-.289.097-.481-.005-.589-.065-.07-.155-.071-.424-.003M4.267 7.533v2.627h.582l.082.264c.045.145.082.277.082.292 0 .077.094.035.56-.248l.508-.308h1.252V4.907H4.267v2.626m2.426-.013v2.053h-.668l-.351.213c-.193.117-.354.21-.358.206a2.755 2.755 0 0 1-.069-.206l-.062-.199-.153-.008-.152-.008V5.467H6.693V7.52m7.862-1.82c-.069.045-.997 1.201-.978 1.218.108.093.463.33.479.321.023-.015.654-.796.939-1.164l.18-.232-.119-.069c-.216-.127-.381-.151-.501-.074m-4.763.117c-.078.03-.138.063-.133.075.004.011.234.326.512.701l.503.681.237-.162c.129-.09.236-.171.236-.181 0-.024-.452-.633-.648-.874a1.464 1.464 0 0 0-.243-.246c-.107-.066-.283-.063-.464.006" fill="currentColor" fill-rule="evenodd"/></svg>