<svg xmlns="http://www.w3.org/2000/svg" width="16" height="16" fill="none" viewBox="0 0 16 16">
  <path fill="#1D1D1D" d="M4.263 4.892v5.26h.586l.193.637 1.05-.637h1.239v-5.26H4.262Zm2.444 4.689H6.01l-.698.423-.127-.422-.297-.001V5.463h1.82v4.118ZM3.746 7.299H2.438c.043-.656.054-1.248.054-1.776h1.28s.049-.546-.215-.54H1.345c.087-.317.196-.644.328-.983 0 0-.602 0-.807.521-.085.216-.33 1.043-.768 1.89.147-.016.635-.03.921-.538.053-.142.063-.16.129-.351h.722c0 .254-.03 1.617-.043 1.775H.521c-.294 0-.39.571-.39.571h1.64c-.11 1.206-.7 2.222-1.771 3.025.512.141 1.023-.023 1.275-.24 0 0 .575-.505.89-1.674l1.349 1.57s.198-.65-.031-.966c-.19-.216-.702-.8-.92-1.011l-.366.28c.11-.337.175-.665.197-.983h1.542s-.003-.57-.19-.57Zm10.3-.04c.521-.619 1.125-1.415 1.125-1.415s-.466-.358-.685-.098c-.15.197-.92 1.165-.92 1.165l.48.349Zm-3.752-1.428c-.225-.2-.648.052-.648.052s.988 1.33 1.028 1.389l.487-.332s-.642-.91-.867-1.109ZM16 7.557c-.495 0-3.273.022-3.277.022V5.137c.12 0 .311-.01.572-.029 1.022-.058 1.753-.096 2.194-.116 0 0 .305-.657-.015-.808-.076-.029-.579.11-.579.11s-4.13.4-5.809.437c.04.213.19.413.394.473.333.084.568.04 1.23.021.62-.039 1.091-.059 1.412-.059V7.58H8.785s.07.54.638.553h2.698v1.714c0 .338-.28.532-.612.51-.351.004-.652-.027-1.042-.043.05.096.159.348.483.528.247.117.404.159.65.159.74 0 1.142-.418 1.123-1.095V8.132h3.059c.242 0 .217-.575.217-.575H16Z"/>
</svg>
