<svg xmlns="http://www.w3.org/2000/svg" width="16" height="16" fill="none"><path d="M6.693 1.052a6.467 6.467 0 0 0-2.066.627A6.424 6.424 0 0 0 2.076 3.92a7.06 7.06 0 0 0-.925 2.187c-.192.897-.194 1.923-.005 2.771.437 1.955 1.708 3.578 3.478 4.442.487.238.815.361 1.279.479a6.512 6.512 0 0 0 4.46-.467c.384-.188.949-.546 1.2-.76a.835.835 0 0 1 .161-.119c.013 0 .797.776 1.743 1.723 1.166 1.169 1.754 1.739 1.826 1.773a.46.46 0 0 0 .544-.091.467.467 0 0 0 .112-.565c-.034-.072-.604-.66-1.773-1.826-.947-.946-1.723-1.73-1.723-1.743 0-.012.054-.085.119-.161.214-.251.572-.816.76-1.2a6.512 6.512 0 0 0 .467-4.46 5.94 5.94 0 0 0-.478-1.276c-.915-1.872-2.667-3.178-4.748-3.537-.414-.072-1.455-.093-1.88-.038m1.311.975a5.54 5.54 0 0 1 3.023 1.257 5.528 5.528 0 0 1 1.932 3.569c.04.328.034 1.016-.013 1.379a5.487 5.487 0 0 1-3.039 4.209 5.486 5.486 0 0 1-6.622-1.414 5.512 5.512 0 0 1-1.082-5c.49-1.81 1.973-3.304 3.786-3.813.666-.187 1.357-.251 2.015-.187M4.28 7.055a.445.445 0 0 0-.23.238.5.5 0 0 0-.013.395.66.66 0 0 0 .291.284c.052.019 1.052.028 3.174.027 2.955 0 3.103-.002 3.205-.049a.65.65 0 0 0 .17-.119c.063-.068.143-.309.124-.372a2.71 2.71 0 0 1-.026-.105c-.019-.089-.156-.25-.258-.302-.064-.033-.525-.039-3.216-.039-2.796.001-3.15.005-3.221.042" fill-rule="evenodd" fill="#000"/></svg>