<svg xmlns="http://www.w3.org/2000/svg" width="16" height="16" fill="none"><path d="M6.693 1.052a6.467 6.467 0 0 0-2.066.627A6.424 6.424 0 0 0 2.076 3.92a7.06 7.06 0 0 0-.925 2.187c-.192.897-.194 1.923-.005 2.771.437 1.955 1.708 3.578 3.478 4.442.487.238.815.361 1.279.479a6.512 6.512 0 0 0 4.46-.467c.384-.188.949-.546 1.2-.76a.835.835 0 0 1 .161-.119c.013 0 .797.776 1.743 1.723 1.166 1.169 1.754 1.739 1.826 1.773a.46.46 0 0 0 .544-.091.467.467 0 0 0 .112-.565c-.034-.072-.604-.66-1.773-1.826-.947-.946-1.723-1.73-1.723-1.743 0-.012.054-.085.119-.161.214-.251.572-.816.76-1.2a6.512 6.512 0 0 0 .467-4.46 5.94 5.94 0 0 0-.478-1.276c-.915-1.872-2.667-3.178-4.748-3.537-.414-.072-1.455-.093-1.88-.038m1.311.975a5.54 5.54 0 0 1 3.023 1.257 5.528 5.528 0 0 1 1.932 3.569c.04.328.034 1.016-.013 1.379a5.487 5.487 0 0 1-3.039 4.209 5.486 5.486 0 0 1-6.622-1.414 5.512 5.512 0 0 1-1.082-5c.49-1.81 1.973-3.304 3.786-3.813.666-.187 1.357-.251 2.015-.187m-.712 2.021a.485.485 0 0 0-.276.353c-.019.086-.029.581-.029 1.373v1.238l-1.342.007-1.343.008-.1.077a.509.509 0 0 0-.165.584.66.66 0 0 0 .291.284c.05.018.521.028 1.366.028h1.29l.008 1.313c.007 1.177.013 1.322.053 1.396.061.11.218.246.309.266l.105.026c.063.019.304-.061.372-.124a.65.65 0 0 0 .119-.17c.045-.099.049-.2.049-1.407L8 8l1.3-.001c1.207 0 1.308-.004 1.407-.049a.65.65 0 0 0 .17-.119c.063-.068.143-.309.124-.372a2.71 2.71 0 0 1-.026-.105c-.019-.089-.156-.25-.258-.302-.062-.032-.294-.039-1.395-.039H8.001l-.007-1.344c-.007-1.312-.009-1.347-.062-1.419-.169-.225-.42-.305-.64-.202" fill-rule="evenodd" fill="#000"/></svg>