<svg xmlns="http://www.w3.org/2000/svg" width="24" height="24" fill="none"><path d="M9.84 2.025c-2.094.192-3.892 1.025-5.341 2.474A8.395 8.395 0 0 0 2.002 10.5c0 2.271.879 4.384 2.497 6.001a8.277 8.277 0 0 0 3.341 2.07c2.628.881 5.661.367 7.819-1.324.215-.169.416-.325.446-.347.042-.03.757.661 3.085 2.986 1.667 1.664 3.069 3.046 3.117 3.07.375.189.838-.274.649-.649-.024-.048-1.406-1.45-3.07-3.117-2.325-2.328-3.016-3.043-2.986-3.085.022-.03.178-.231.347-.446 1.691-2.158 2.205-5.191 1.324-7.819a8.277 8.277 0 0 0-2.07-3.341 8.404 8.404 0 0 0-4.726-2.4c-.391-.06-1.587-.106-1.935-.074m1.383 1.018a7.504 7.504 0 0 1 6.381 5.08 7.47 7.47 0 0 1-.377 5.667 7.257 7.257 0 0 1-1.432 2.005 7.598 7.598 0 0 1-3.981 2.092c-.684.13-1.944.13-2.628 0-2.37-.447-4.348-1.94-5.402-4.077-.449-.909-.661-1.683-.752-2.737a7.44 7.44 0 0 1 .417-3.113A7.552 7.552 0 0 1 9.06 3.143a7.553 7.553 0 0 1 2.163-.1m-.971 4.035c-.247.151-.252.181-.252 1.62V10H8.69c-1.229 0-1.318.005-1.438.078a.478.478 0 0 0-.174.67c.151.247.181.252 1.62.252H10v1.31c0 1.229.005 1.318.078 1.438.2.328.644.328.844 0 .073-.12.078-.209.078-1.438V11h1.302c1.439 0 1.469-.005 1.62-.252a.478.478 0 0 0-.174-.67c-.12-.073-.209-.078-1.438-.078H11V8.69c0-1.229-.005-1.318-.078-1.438a.478.478 0 0 0-.67-.174" fill-rule="evenodd" fill="#000"/></svg>