<?xml version="1.0" encoding="UTF-8" standalone="no"?>
<svg
   width="16"
   height="16"
   fill="none"
   viewBox="0 0 16 16"
   version="1.1"
   id="svg1"
   xmlns="http://www.w3.org/2000/svg"
   xmlns:svg="http://www.w3.org/2000/svg">
  <defs
     id="defs1" />
  <path
     style="fill:currentColor;stroke-linecap:square"
     d="M 1,1 V 15 H 12.5 C 13.322505,15 14,14.322505 14,13.5 V 2.5 C 14,1.6774952 13.322505,1 12.5,1 Z M 2,2 H 12.5 C 12.782065,2 13,2.2179353 13,2.5 v 11 C 13,13.782065 12.782065,14 12.5,14 H 2 Z m 13,0 v 0.5 2 0.5 h 1 V 4.5 2.5 2 Z M 4,4 v 4 h 7 V 4 Z m 1,1 h 5 V 7 H 5 Z m 10,1 v 0.5 2 0.5 h 1 V 8.5 6.5 6 Z"
     id="path1" />
</svg>
