<?xml version="1.0" encoding="UTF-8" standalone="no"?>
<svg
   width="16"
   height="16"
   fill="none"
   viewBox="0 0 16 16"
   version="1.1"
   id="svg1"
   xmlns="http://www.w3.org/2000/svg"
   xmlns:svg="http://www.w3.org/2000/svg">
  <defs
     id="defs1" />
  <path
     fill="currentColor"
     fill-rule="evenodd"
     d="M3.583 3.435A7.477 7.477 0 0 1 8 2c1.598 0 3.15.505 4.418 1.435a6.988 6.988 0 0 1 2.602 3.703.5.5 0 1 0 .961-.276 7.987 7.987 0 0 0-2.971-4.234A8.477 8.477 0 0 0 8 1a8.477 8.477 0 0 0-5.009 1.628A7.988 7.988 0 0 0 .02 6.862a.5.5 0 0 0 .961.276 6.988 6.988 0 0 1 2.602-3.703Zm8.564 1.57.261.427-.26-.426h-.002l-.003.002-.012.008-.047.029a65.604 65.604 0 0 0-.823.513c-.536.338-1.26.801-2.014 1.303a46.73 46.73 0 0 0-2.193 1.542c-.636.481-1.209.961-1.48 1.332l-.034.047c-.553.755-.97 1.324-.828 2.237.078.505.397.92.689 1.215.296.301.627.542.828.688l.007.005.008.005c.2.146.53.386.908.575.371.185.863.36 1.367.28.899-.139 1.308-.7 1.835-1.424l.072-.098v-.002c.271-.372.552-1.066.813-1.82.27-.776.544-1.691.788-2.562a95.37 95.37 0 0 0 .8-3.056l.05-.204.013-.054.003-.014.001-.003v-.001l-.486-.117.487.116a.5.5 0 0 0-.748-.542ZM9.802 7.694c.668-.445 1.314-.86 1.823-1.183-.149.585-.344 1.328-.56 2.1-.243.863-.51 1.756-.77 2.506-.269.773-.507 1.325-.677 1.56-.617.843-.79 1.052-1.253 1.124-.196.03-.459-.034-.767-.188a5.59 5.59 0 0 1-.774-.494 5.625 5.625 0 0 1-.71-.585c-.243-.247-.384-.475-.414-.667-.072-.462.07-.705.68-1.54.172-.235.625-.632 1.277-1.126.633-.48 1.4-1.01 2.145-1.507Z"
     clip-rule="evenodd"
     id="path1" />
</svg>
