<?xml version="1.0" encoding="UTF-8" standalone="no"?>
<svg
   width="24"
   height="24"
   fill="none"
   viewBox="0 0 24 24"
   version="1.1"
   id="svg1"
   xmlns="http://www.w3.org/2000/svg"
   xmlns:svg="http://www.w3.org/2000/svg">
  <defs
     id="defs1" />
  <path
     fill="currentColor"
     fill-rule="evenodd"
     d="M1.953 9.71C3.832 5.71 7.638 3 12 3c4.362 0 8.169 2.71 10.047 6.712a.5.5 0 1 0 .906-.424C20.93 4.98 16.798 2 12 2 7.202 2 3.07 4.98 1.047 9.286a.5.5 0 1 0 .906.425Zm16.174-1.104.339.495-.34-.495-.005.003-.016.012-.062.042a105.098 105.098 0 0 0-1.091.76c-.712.5-1.675 1.186-2.677 1.925a72.969 72.969 0 0 0-2.923 2.254c-.856.704-1.608 1.382-1.97 1.876l-.043.06c-.775 1.06-1.32 1.805-1.23 2.959.05.655.417 1.185.769 1.562.352.378.755.671.996.846l.01.007.01.008c.241.175.643.467 1.11.685.469.218 1.084.4 1.723.25 1.107-.26 1.641-.994 2.38-2.008l.099-.135c.36-.497.774-1.422 1.18-2.453a72.313 72.313 0 0 0 1.24-3.477 147.347 147.347 0 0 0 1.304-4.138l.083-.276.021-.073.006-.019.001-.005V9.27l-.575-.17.576.17a.6.6 0 0 0-.915-.664Zm-3.14 3.707c.88-.648 1.73-1.255 2.403-1.731-.244.788-.558 1.784-.903 2.821a71.073 71.073 0 0 1-1.219 3.417c-.412 1.05-.775 1.832-1.032 2.185-.86 1.178-1.14 1.53-1.784 1.682-.26.061-.578-.001-.94-.17-.356-.166-.677-.397-.922-.575-.246-.179-.566-.413-.835-.701-.273-.294-.43-.576-.45-.837-.051-.66.193-1.05 1.047-2.218.258-.353.89-.94 1.763-1.658.852-.7 1.879-1.482 2.872-2.215Z"
     clip-rule="evenodd"
     id="path1" />
</svg>
