<?xml version="1.0" encoding="UTF-8" standalone="no"?>
<svg
   width="24"
   height="24"
   fill="none"
   viewBox="0 0 24 24"
   version="1.1"
   id="svg1"
   xmlns="http://www.w3.org/2000/svg"
   xmlns:svg="http://www.w3.org/2000/svg">
  <defs
     id="defs1" />
  <path
     style="fill:currentColor;stroke-linecap:round;stroke-linejoin:round"
     d="M 20.662109,0.95117188 C 19.773052,0.89887419 18.820945,1.2298359 18.025391,2.0253906 L 14.238281,5.8125 6.0039062,2.125 C 5.0336439,1.6905849 3.8905225,1.9210129 3.1621094,2.6953125 L 1.7851562,4.1582031 a 0.50005,0.50005 0 0 0 0.083984,0.7558594 L 9.78125,10.267578 7.2460937,12.802734 a 0.50005,0.50005 0 0 0 -0.078125,0.103516 l -1.359375,2.347656 -3.2695312,-0.251953 a 0.50005,0.50005 0 0 0 -0.3925781,0.851563 l 2.0957031,2.105468 -1.0214844,1.763672 c -3.631e-4,6.05e-4 3.622e-4,0.0013 0,0.002 -0.3811235,0.637124 -0.212434,1.391082 0.2265625,1.830078 0.4394137,0.439414 1.1945258,0.609095 1.8320313,0.226563 l 1.7695312,-1.025391 2.0976563,2.097657 A 0.50005,0.50005 0 0 0 9.9980469,22.460937 L 9.7460938,19.193359 12.09375,17.832031 a 0.50005,0.50005 0 0 0 0.103516,-0.07813 l 2.535156,-2.535156 5.353515,7.912109 a 0.50005,0.50005 0 0 0 0.75586,0.08398 l 1.46289,-1.375 c 0.7743,-0.728413 1.004728,-1.873488 0.570313,-2.84375 l -3.6875,-8.234375 3.787109,-3.7871096 c 0.795555,-0.7955548 1.126517,-1.7476613 1.074219,-2.6367188 -0.0523,-0.8890574 -0.465276,-1.7035576 -1.074219,-2.3125 -0.608942,-0.6089424 -1.423442,-1.021921 -2.3125,-1.07421872 z m -0.05859,0.99804682 c 0.613671,0.036098 1.212255,0.3313956 1.664062,0.7832032 0.451808,0.4518076 0.747105,1.0503911 0.783203,1.6640625 0.0361,0.6136714 -0.164425,1.2523158 -0.783203,1.8710937 L 11.535156,17 8.9746094,18.484375 6.8789062,19.697266 4.7714844,20.919922 a 0.50005,0.50005 0 0 0 -0.00586,0.0039 C 4.5104376,21.076952 4.311624,21.004983 4.1542969,20.847656 3.9969698,20.690329 3.9250011,20.491516 4.078125,20.236328 a 0.50005,0.50005 0 0 0 0.00391,-0.0059 L 5.2988281,18.126953 6.5175781,16.025391 8,13.464844 18.732422,2.7324219 C 19.3512,2.1136439 19.989844,1.9131203 20.603516,1.9492187 Z M 4.6875,2.9355469 C 4.9858906,2.8758425 5.3032907,2.9081408 5.5957031,3.0390625 L 13.482422,6.5683594 10.501953,9.546875 2.9160156,4.4140625 3.890625,3.3789063 C 4.1101502,3.145552 4.3891094,2.9952512 4.6875,2.9355469 Z m 13.744141,8.5820311 3.529296,7.886719 a 0.50005,0.50005 0 0 0 0,0.002 c 0.261844,0.584825 0.126865,1.266028 -0.339843,1.705078 l -1.035157,0.972656 -5.132812,-7.585937 z M 3.8046875,16.101562 5.2519531,16.214844 4.7617187,17.0625 Z m 4.9824219,3.646485 0.1113281,1.443359 -0.9550781,-0.955078 z"
     id="path1" />
</svg>
