<?xml version="1.0" encoding="UTF-8" standalone="no"?>
<svg
   width="16"
   height="16"
   fill="none"
   viewBox="0 0 16 16"
   version="1.1"
   id="svg1"
   xmlns="http://www.w3.org/2000/svg"
   xmlns:svg="http://www.w3.org/2000/svg">
  <defs
     id="defs1" />
  <path
     style="fill:currentColor;stroke-linecap:square"
     d="m 13.328125,0.265625 c -0.633752,-0.0429251 -1.31631,0.18539208 -1.882812,0.7265625 l -0.0059,0.003906 L 8.921875,3.5136719 4.1875,1.1992187 C 3.2624729,0.74748701 2.1478005,0.93414677 1.4199219,1.6621094 L 0.24804688,2.8339844 5.8613281,6.5742187 3.7695313,8.6660156 3.2089844,9.8867188 3.1445313,10.027344 1.4375,9.9355469 h -0.00391 c -0.1916262,-0.011252 -0.3832849,0.020143 -0.56054682,0.09375 -8.7007e-4,3.51e-4 -0.001084,0.0016 -0.001953,0.002 -0.18876271,0.07682 -0.35012468,0.207146 -0.46289062,0.376953 l -0.001953,0.002 -0.001953,0.002 c -0.12281187,0.189227 -0.16150819,0.421145 -0.109375,0.640625 v 0.002 0.002 c 0.0522312,0.213673 0.18513458,0.390231 0.34960937,0.511718 l 0.005859,0.0039 1.35351568,0.941406 -0.033203,0.07227 L 1.5625,13.474609 c -0.1337421,0.284187 -0.051888,0.623286 0.1425781,0.81836 0.1944659,0.195073 0.5337573,0.279339 0.8183594,0.146484 l 0.8925781,-0.410156 0.070312,-0.0332 0.9375,1.347656 c 0.121304,0.174971 0.300592,0.300899 0.5058594,0.357422 l 0.00781,0.002 0.00977,0.002 c 0.2194804,0.05213 0.4513983,0.01344 0.640625,-0.109375 v -0.002 l 0.00195,-0.002 c 0.1695104,-0.112264 0.301758,-0.272874 0.3789063,-0.460938 0.074562,-0.178416 0.1073094,-0.371432 0.095703,-0.564453 v -0.0039 l -0.09375,-1.705078 0.140625,-0.06445 1.2226563,-0.5625 2.0917969,-2.091797 3.7421877,5.613281 1.169922,-1.169922 c 0.727536,-0.727989 0.914183,-1.842585 0.46289,-2.767578 l -2.314453,-4.736328 2.517578,-2.5175781 0.0039,-0.00586 C 15.548983,3.9881854 15.7773,3.3056265 15.734375,2.671875 15.69145,2.0381235 15.396735,1.463141 14.966797,1.0332031 14.536859,0.60326529 13.961877,0.30855007 13.328125,0.265625 Z m -0.06445,0.9648437 c 0.372714,0.025245 0.740198,0.2069951 1.019531,0.4863282 0.279333,0.2793331 0.461084,0.6468169 0.486328,1.0195312 0.02524,0.3727143 -0.08527,0.7590916 -0.460937,1.1523438 l -7.5351565,7.5371091 -1.0644531,0.488282 -0.359375,0.164062 -0.3886719,0.02148 0.00781,0.152344 v 0.002 l -1.078125,0.494141 -0.072266,0.0332 -0.044922,-0.06445 -0.359375,0.25 -0.4023437,0.185547 -0.3007813,0.136719 0.1386719,-0.300782 0.1816406,-0.398437 0.2539063,-0.363281 -0.064453,-0.04492 0.03125,-0.07031 0.4316407,-0.941406 h 0.00195 L 3.75,11.029297 l 0.1523438,0.0078 0.021484,-0.386718 v -0.002 L 4.0878906,10.291016 4.5761719,9.2265625 12.111328,1.6914062 c 0.393252,-0.3756675 0.77963,-0.486182 1.152344,-0.4609375 z M 2.8886719,1.9394531 c 0.2905839,-0.048562 0.5962089,-0.00724 0.875,0.1289063 L 8.1992188,4.2363281 6.5585937,5.8769531 1.765625,2.6816406 2.1035156,2.3457031 C 2.3228887,2.1263047 2.5980879,1.988015 2.8886719,1.9394531 Z m 8.8750001,5.8613281 2.167969,4.4374998 c 0.272098,0.557708 0.161311,1.221228 -0.277344,1.660157 l -0.337891,0.33789 -3.193359,-4.7949217 z M 1.3730469,10.898438 c 0.00131,6.3e-5 0.0026,-8.1e-5 0.00391,0 h 0.00195 l 1.3339844,0.07226 -0.2988281,0.650391 z m 3.6542968,2.390625 0.074219,1.332031 v 0.002 c 8.16e-5,0.0013 -6.49e-5,0.0026 0,0.0039 L 4.3789062,13.587891 Z"
     id="path1" />
</svg>
