<?xml version="1.0" encoding="UTF-8" standalone="no"?>
<svg
   width="24"
   height="24"
   fill="none"
   viewBox="0 0 24 24"
   version="1.1"
   id="svg1"
   xmlns="http://www.w3.org/2000/svg"
   xmlns:svg="http://www.w3.org/2000/svg">
  <defs
     id="defs1" />
  <path
     style="fill:currentColor;stroke-linecap:square;stroke-miterlimit:10"
     d="M 5.4296875,1.7226562 5.0761719,2.0761719 c -4.09622273,4.0963012 -4.09622273,10.7513551 0,14.8476561 l 0.3535156,0.353516 0.7070312,-0.707032 -0.3535156,-0.353515 c -3.7140823,-3.714154 -3.7140823,-9.7194403 0,-13.4335939 L 6.1367187,2.4296875 Z m 13.1406245,0 -0.707031,0.7070313 0.353516,0.3535156 c 3.714082,3.7141536 3.714082,9.7194399 0,13.4335939 l -0.353516,0.353515 0.707031,0.707032 0.353516,-0.353516 c 4.096223,-4.096301 4.096223,-10.7513549 0,-14.8476561 z M 8.2578125,4.5507812 7.9042969,4.9042969 c -2.5347367,2.5343073 -2.5347367,6.6570991 0,9.1914061 l 0.3535156,0.353516 0.7070313,-0.707031 -0.3535157,-0.353516 c -2.1525131,-2.152149 -2.1525131,-5.6251954 0,-7.7773439 L 8.9648438,5.2578125 Z m 7.4843755,0 -0.707032,0.7070313 0.353516,0.3535156 c 2.152513,2.1521485 2.152513,5.6251949 0,7.7773439 l -0.353516,0.353516 0.707032,0.707031 0.353515,-0.353516 c 2.534737,-2.534307 2.534737,-6.6570988 0,-9.1914061 z M 12,6.5 C 11.041667,6.5 10.260256,6.8773778 9.7519531,7.4492187 9.2436503,8.0210597 9,8.7638889 9,9.5 c 0,0.736111 0.2436503,1.47894 0.7519531,2.050781 0.4100529,0.46131 1.0328589,0.737472 1.7480469,0.84961 V 22 H 7.5 7 v 1 h 0.5 4 1 4 0.5 v -1 h -0.5 -4 v -9.599609 c 0.715188,-0.112138 1.337994,-0.3883 1.748047,-0.84961 C 14.75635,10.97894 15,10.236111 15,9.5 15,8.7638889 14.75635,8.0210597 14.248047,7.4492187 13.739744,6.8773778 12.958333,6.5 12,6.5 Z m 0,1 c 0.708333,0 1.176923,0.2476222 1.501953,0.6132813 C 13.826983,8.4789403 14,8.9861111 14,9.5 14,10.013889 13.826983,10.52106 13.501953,10.886719 13.176923,11.252378 12.708333,11.5 12,11.5 11.291667,11.5 10.823077,11.252378 10.498047,10.886719 10.173017,10.52106 10,10.013889 10,9.5 10,8.9861111 10.173017,8.4789403 10.498047,8.1132813 10.823077,7.7476222 11.291667,7.5 12,7.5 Z"
     id="path1" />
</svg>
