<?xml version="1.0" encoding="UTF-8" standalone="no"?>
<svg
   width="16"
   height="16"
   fill="none"
   viewBox="0 0 16 16"
   version="1.1"
   id="svg1"
   xmlns="http://www.w3.org/2000/svg"
   xmlns:svg="http://www.w3.org/2000/svg">
  <defs
     id="defs1" />
  <path
     fill="currentColor"
     d="M7.5 15.5v.5h1v-.5h-1Zm-3-.5H4v1h.5v-1Zm7 1h.5v-1h-.5v1Zm3-10.5h.5-.5Zm-10 0H4h.5Zm4 0A.5.5 0 0 1 8 6v1a1.5 1.5 0 0 0 1.5-1.5h-1ZM8 6a.5.5 0 0 1-.5-.5h-1A1.5 1.5 0 0 0 8 7V6Zm-.5-.5A.5.5 0 0 1 8 5V4a1.5 1.5 0 0 0-1.5 1.5h1ZM8 5a.5.5 0 0 1 .5.5h1A1.5 1.5 0 0 0 8 4v1Zm.5 10.5v-9h-1v9h1Zm-4 .5h7v-1h-7v1Zm6.182-7.319A4.5 4.5 0 0 0 11.999 5.5h-1a3.5 3.5 0 0 1-1.025 2.474l.708.707ZM11.999 5.5a4.5 4.5 0 0 0-1.317-3.182l-.708.707A3.5 3.5 0 0 1 11 5.5h1Zm.805 5.304A7.502 7.502 0 0 0 14.43 8.37l-.924-.382a6.499 6.499 0 0 1-1.41 2.108l.708.708ZM14.43 8.37A7.5 7.5 0 0 0 15 5.5h-1a6.5 6.5 0 0 1-.494 2.488l.924.382ZM15 5.5a7.5 7.5 0 0 0-.57-2.87l-.924.382A6.5 6.5 0 0 1 14 5.5h1Zm-.57-2.87A7.501 7.501 0 0 0 12.804.196l-.707.708a6.5 6.5 0 0 1 1.409 2.108l.924-.382ZM6.026 7.974A3.5 3.5 0 0 1 5 5.5H4a4.5 4.5 0 0 0 1.317 3.181l.708-.707ZM5 5.5a3.5 3.5 0 0 1 1.025-2.475l-.708-.707A4.5 4.5 0 0 0 4.001 5.5h1Zm-1.097 4.596a6.5 6.5 0 0 1-1.41-2.108l-.924.382a7.5 7.5 0 0 0 1.626 2.434l.708-.708Zm-1.41-2.108A6.5 6.5 0 0 1 2 5.5H1a7.5 7.5 0 0 0 .57 2.87l.924-.382ZM2 5.5a6.5 6.5 0 0 1 .494-2.488L1.57 2.63A7.5 7.5 0 0 0 1 5.5h1Zm.494-2.488A6.5 6.5 0 0 1 3.904.904L3.196.196A7.5 7.5 0 0 0 1.57 2.63l.924.382Z"
     id="path1" />
</svg>
