<?xml version="1.0" encoding="UTF-8" standalone="no"?>
<svg
   width="16"
   height="16"
   fill="none"
   viewBox="0 0 16 16"
   version="1.1"
   id="svg1"
   xmlns="http://www.w3.org/2000/svg"
   xmlns:svg="http://www.w3.org/2000/svg">
  <defs
     id="defs1" />
  <path
     style="fill:currentColor;stroke-linecap:square"
     d="M 8,0.49414063 1,1.5703125 V 15 h 6 v -3 h 2 v 3 h 6 V 1.5703125 Z M 8,1.5058594 14,2.4296875 V 14 H 10 V 11 H 6 v 3 H 2 V 2.4296875 Z M 4,4 V 4.5 5.5 6 H 5 V 5.5 4.5 4 Z m 3.5,0 v 0.5 1 0.5 h 1 V 5.5 4.5 4 Z M 11,4 v 0.5 1 0.5 h 1 V 5.5 4.5 4 Z M 4,8 v 0.5 1 0.5 H 5 V 9.5 8.5 8 Z m 3.5,0 v 0.5 1 0.5 h 1 V 9.5 8.5 8 Z M 11,8 v 0.5 1 0.5 h 1 V 9.5 8.5 8 Z"
     id="path1" />
</svg>
