<?xml version="1.0" encoding="UTF-8" standalone="no"?>
<svg
   width="16"
   height="16"
   fill="none"
   viewBox="0 0 16 16"
   version="1.1"
   id="svg1"
   xmlns="http://www.w3.org/2000/svg"
   xmlns:svg="http://www.w3.org/2000/svg">
  <defs
     id="defs1" />
  <path
     style="fill:currentColor;stroke-linecap:round;stroke-linejoin:round"
     d="m 11.998047,0.3828125 c -0.255596,0 -0.475086,0.1608461 -0.703125,0.2890625 -5.42e-4,3.0463e-4 -0.0014,-3.0535e-4 -0.002,0 -0.114718,0.0646915 -0.25631,0.0493074 -0.353516,0.14648438 L 8.8164063,2.9394531 c -0.5813898,0.5815654 -0.5813898,1.5395284 0,2.1210938 L 10.9375,7.1816406 a 0.50005,0.50005 0 0 0 0.002,0 c 0.581566,0.5813898 1.537575,0.5813898 2.119141,0 a 0.50005,0.50005 0 0 0 0.002,0 l 2.119141,-2.1210937 c 0.581389,-0.5815654 0.581389,-1.5395284 0,-2.1210938 L 13.058594,0.81835938 C 12.767811,0.52766449 12.382906,0.3828125 11.998047,0.3828125 Z M 2.5,1 C 1.6774952,1 1,1.6774952 1,2.5 v 3 C 1,6.3225048 1.6774952,7 2.5,7 h 3 C 6.3225048,7 7,6.3225048 7,5.5 v -3 C 7,1.6774952 6.3225048,1 5.5,1 Z m 9.144531,0.5253906 c 5.51e-4,-5.507e-4 0.0014,5.477e-4 0.002,0 0.199481,-0.1977248 0.506195,-0.1988233 0.705079,0 l 2.121093,2.1210938 c 0.199374,0.1994343 0.199374,0.5075969 0,0.7070312 l -2.121093,2.1210938 c -0.198884,0.1988233 -0.505598,0.1977248 -0.705079,0 h -0.002 L 9.5234375,4.3535156 c -0.1993741,-0.1994343 -0.1993741,-0.5075969 0,-0.7070312 z M 2.5,2 h 3 C 5.7820647,2 6,2.2179353 6,2.5 v 3 C 6,5.7820647 5.7820647,6 5.5,6 h -3 C 2.2179353,6 2,5.7820647 2,5.5 v -3 C 2,2.2179353 2.2179353,2 2.5,2 Z m 0,7 C 1.6774952,9 1,9.6774952 1,10.5 v 3 C 1,14.322505 1.6774952,15 2.5,15 h 3 C 6.3225048,15 7,14.322505 7,13.5 v -3 C 7,9.6774952 6.3225048,9 5.5,9 Z m 8,0 C 9.6774952,9 9,9.6774952 9,10.5 v 3 c 0,0.822505 0.6774952,1.5 1.5,1.5 h 3 c 0.822505,0 1.5,-0.677495 1.5,-1.5 v -3 C 15,9.6774952 14.322505,9 13.5,9 Z m -8,1 h 3 C 5.7820647,10 6,10.217935 6,10.5 v 3 C 6,13.782065 5.7820647,14 5.5,14 h -3 C 2.2179353,14 2,13.782065 2,13.5 v -3 C 2,10.217935 2.2179353,10 2.5,10 Z m 8,0 h 3 c 0.282065,0 0.5,0.217935 0.5,0.5 v 3 c 0,0.282065 -0.217935,0.5 -0.5,0.5 h -3 C 10.217935,14 10,13.782065 10,13.5 v -3 C 10,10.217935 10.217935,10 10.5,10 Z"
     id="path1" />
</svg>
