<?xml version="1.0" encoding="UTF-8" standalone="no"?>
<svg
   width="24"
   height="24"
   fill="none"
   viewBox="0 0 24 24"
   version="1.1"
   id="svg1"
   xmlns="http://www.w3.org/2000/svg"
   xmlns:svg="http://www.w3.org/2000/svg">
  <defs
     id="defs1" />
  <path
     style="fill:currentColor;stroke-linecap:square;stroke-miterlimit:10"
     d="m 17.5,1.4179687 c -0.384859,0 -0.769764,0.144852 -1.060547,0.4355469 l -3.585937,3.5859375 c -0.58139,0.5815654 -0.58139,1.5395284 0,2.1210938 l 3.585937,3.5859371 c 0.581566,0.58139 1.539528,0.58139 2.121094,0 l 3.585937,-3.5859371 c 0.58139,-0.5815654 0.58139,-1.5395284 0,-2.1210938 L 18.560547,1.8535156 C 18.269764,1.5628207 17.884859,1.4179687 17.5,1.4179687 Z M 3.5,2 C 2.6774952,2 2,2.6774952 2,3.5 v 6 C 2,10.322505 2.6774952,11 3.5,11 h 6 C 10.322505,11 11,10.322505 11,9.5 v -6 C 11,2.6774952 10.322505,2 9.5,2 Z m 13.646484,0.5605469 c 0.199435,-0.1993741 0.507597,-0.1993741 0.707032,0 l 3.585937,3.5859375 c 0.199374,0.1994343 0.199374,0.5075969 0,0.7070312 l -3.585937,3.5859374 c -0.199435,0.199374 -0.507597,0.199374 -0.707032,0 L 13.560547,6.8535156 c -0.199374,-0.1994343 -0.199374,-0.5075969 0,-0.7070312 z M 3.5,3 h 6 C 9.7820647,3 10,3.2179353 10,3.5 v 6 C 10,9.7820647 9.7820647,10 9.5,10 h -6 C 3.2179353,10 3,9.7820647 3,9.5 v -6 C 3,3.2179353 3.2179353,3 3.5,3 Z m 0,10 C 2.6774952,13 2,13.677495 2,14.5 v 6 C 2,21.322505 2.6774952,22 3.5,22 h 6 c 0.822505,0 1.5,-0.677495 1.5,-1.5 v -6 C 11,13.677495 10.322505,13 9.5,13 Z m 11,0 C 13.677495,13 13,13.677495 13,14.5 v 6 c 0,0.822505 0.677495,1.5 1.5,1.5 h 6 c 0.822505,0 1.5,-0.677495 1.5,-1.5 v -6 C 22,13.677495 21.322505,13 20.5,13 Z m -11,1 h 6 c 0.2820647,0 0.5,0.217935 0.5,0.5 v 6 C 10,20.782065 9.7820647,21 9.5,21 h -6 C 3.2179353,21 3,20.782065 3,20.5 v -6 C 3,14.217935 3.2179353,14 3.5,14 Z m 11,0 h 6 c 0.282065,0 0.5,0.217935 0.5,0.5 v 6 c 0,0.282065 -0.217935,0.5 -0.5,0.5 h -6 C 14.217935,21 14,20.782065 14,20.5 v -6 C 14,14.217935 14.217935,14 14.5,14 Z"
     id="path1" />
</svg>
