<?xml version="1.0" encoding="UTF-8" standalone="no"?>
<svg
   width="24"
   height="24"
   fill="none"
   viewBox="0 0 24 24"
   version="1.1"
   id="svg2"
   xmlns="http://www.w3.org/2000/svg"
   xmlns:svg="http://www.w3.org/2000/svg">
  <defs
     id="defs2" />
  <path
     style="fill:currentColor;stroke-linecap:round;stroke-linejoin:round"
     d="M 6.5,2 A 0.50005,0.50005 0 0 0 6.1464844,2.1464844 l -4,4 A 0.50005,0.50005 0 0 0 2,6.5 v 14 C 2,21.87479 3.1252104,23 4.5,23 h 16 C 21.87479,23 23,21.87479 23,20.5 V 6.5 A 0.50005,0.50005 0 0 0 22.853516,6.1464844 l -4,-4 A 0.50005,0.50005 0 0 0 18.5,2 Z M 6.7070312,3 H 18.292969 L 22,6.7070312 V 20.5 C 22,21.334349 21.334349,22 20.5,22 H 4.5 C 3.6656506,22 3,21.334349 3,20.5 V 6.7070312 Z M 12.5,9 A 0.5,0.5 0 0 0 12,9.5 v 9 A 0.5,0.5 0 0 0 12.5,19 0.5,0.5 0 0 0 13,18.5 v -9 A 0.5,0.5 0 0 0 12.5,9 Z"
     id="path1" />
  <path
     style="fill:currentColor;stroke-linecap:round;stroke-linejoin:round"
     d="M 2.5,6 A 0.5,0.5 0 0 0 2,6.5 0.5,0.5 0 0 0 2.5,7 h 20 A 0.5,0.5 0 0 0 23,6.5 0.5,0.5 0 0 0 22.5,6 Z m 5.6464844,8.146484 a 0.5,0.5 0 0 0 0,0.707032 l 3.9999996,4 a 0.50005,0.50005 0 0 0 0.707032,0 l 4,-4 a 0.5,0.5 0 0 0 0,-0.707032 0.5,0.5 0 0 0 -0.707032,0 L 12.5,17.792969 8.8535156,14.146484 a 0.5,0.5 0 0 0 -0.7070312,0 z"
     id="path2" />
</svg>
