<?xml version="1.0" encoding="UTF-8" standalone="no"?>
<svg
   width="16"
   height="16"
   fill="none"
   viewBox="0 0 16 16"
   version="1.1"
   id="svg1"
   xmlns="http://www.w3.org/2000/svg"
   xmlns:svg="http://www.w3.org/2000/svg">
  <defs
     id="defs1" />
  <path
     style="fill:currentColor;stroke-linecap:round;stroke-linejoin:round"
     d="M 3.7148438,0 A 0.50005,0.50005 0 0 0 3.3730469,0.13476562 L 0.15820312,3.1347656 a 0.5,0.5 0 0 0 -0.003906,0.00781 A 0.5,0.5 0 0 0 0.08203125,3.3027344 0.5,0.5 0 0 0 0.00390625,3.4921875 0.5,0.5 0 0 0 0,3.5 v 11 C 0,15.322505 0.67749519,16 1.5,16 h 13 c 0.822505,0 1.5,-0.677495 1.5,-1.5 v -11 a 0.5,0.5 0 0 0 -0.002,-0.00781 0.5,0.5 0 0 0 -0.01758,-0.087891 0.5,0.5 0 0 0 -0.02344,-0.1054688 0.5,0.5 0 0 0 -0.04883,-0.072266 0.5,0.5 0 0 0 -0.06055,-0.083984 0.5,0.5 0 0 0 -0.0059,-0.00781 L 12.626953,0.13476562 A 0.50005,0.50005 0 0 0 12.285156,0 Z m 0.1953125,1 h 8.1796877 l 2.142578,2 H 1.7675781 Z M 1,4 H 15 V 14.5 C 15,14.782065 14.782065,15 14.5,15 H 1.5 C 1.2179353,15 1,14.782065 1,14.5 Z M 6.5,5 A 0.50005,0.50005 0 0 0 6,5.5 V 9 H 4.5 A 0.50005,0.50005 0 0 0 4.1230469,9.8300781 l 3.5,3.9999999 a 0.50005,0.50005 0 0 0 0.7539062,0 L 11.876953,9.8300781 A 0.50005,0.50005 0 0 0 11.5,9 H 10 V 5.5 A 0.50005,0.50005 0 0 0 9.5,5 Z M 7,6 H 9 V 9.5 A 0.50005,0.50005 0 0 0 9.5,10 h 0.896484 L 8,12.738281 5.6035156,10 H 6.5 A 0.50005,0.50005 0 0 0 7,9.5 Z"
     id="path1" />
</svg>
