<?xml version="1.0" encoding="UTF-8" standalone="no"?>
<svg
   width="12"
   height="12"
   fill="none"
   viewBox="0 0 12 12"
   version="1.1"
   id="svg1"
   xmlns="http://www.w3.org/2000/svg"
   xmlns:svg="http://www.w3.org/2000/svg">
  <defs
     id="defs1" />
  <path
     style="fill:currentColor;stroke-linecap:round;stroke-linejoin:round"
     d="M 4.5,1.5 A 0.5,0.5 0 0 0 4.1464844,1.6464844 l -4.00000003,4 a 0.5,0.5 0 0 0 0,0.7070312 L 4.1464844,10.353516 a 0.5,0.5 0 0 0 0.7070312,0 0.5,0.5 0 0 0 0,-0.7070316 L 1.7070312,6.5 H 11.5 A 0.5,0.5 0 0 0 12,6 0.5,0.5 0 0 0 11.5,5.5 H 1.7070312 L 4.8535156,2.3535156 a 0.5,0.5 0 0 0 0,-0.7070312 A 0.5,0.5 0 0 0 4.5,1.5 Z"
     id="path1" />
</svg>
