<?xml version="1.0" encoding="UTF-8" standalone="no"?>
<svg
   width="12"
   height="12"
   fill="none"
   viewBox="0 0 12 12"
   version="1.1"
   id="svg1"
   xmlns="http://www.w3.org/2000/svg"
   xmlns:svg="http://www.w3.org/2000/svg">
  <defs
     id="defs1" />
  <path
     style="fill:currentColor;stroke-linecap:round;stroke-linejoin:round"
     d="m 7.5,1.5 a 0.5,0.5 0 0 0 -0.3535156,0.1464844 0.5,0.5 0 0 0 0,0.7070312 L 10.292969,5.5 H 0.5 A 0.5,0.5 0 0 0 0,6 0.5,0.5 0 0 0 0.5,6.5 h 9.792969 L 7.1464844,9.6464844 a 0.5,0.5 0 0 0 0,0.7070316 0.5,0.5 0 0 0 0.7070312,0 L 11.853516,6.3535156 a 0.5,0.5 0 0 0 0.128906,-0.2246094 0.5,0.5 0 0 0 0,-0.085937 A 0.5,0.5 0 0 0 12,6 0.5,0.5 0 0 0 11.982422,5.9101562 0.5,0.5 0 0 0 11.970703,5.8515625 0.5,0.5 0 0 0 11.853516,5.6464844 l -4.0000004,-4 A 0.5,0.5 0 0 0 7.5,1.5 Z"
     id="path1" />
</svg>
