<?xml version="1.0" encoding="UTF-8" standalone="no"?>
<svg
   width="16"
   height="16"
   fill="none"
   viewBox="0 0 16 16"
   version="1.1"
   id="svg1"
   xmlns="http://www.w3.org/2000/svg"
   xmlns:svg="http://www.w3.org/2000/svg">
  <defs
     id="defs1" />
  <path
     style="fill:currentColor;stroke-linecap:square"
     d="M 4,0 V 8 H 0 v 5.5 c 0,0.791666 0.31487779,1.448077 0.79296875,1.873047 C 1.2710597,15.798016 1.8888889,16 2.5,16 H 3 13.5 C 14.87479,16 16,14.87479 16,13.5 V 0 Z M 5,1 H 15 V 13.5 C 15,14.334349 14.334349,15 13.5,15 H 4.3652344 C 4.6911478,14.588737 5,14.133952 5,13.5 V 9 8 Z m 2,2 v 1 h 0.5 5 0.5 V 3 h -0.5 -5 z m 0,3 v 1 h 0.5 5 0.5 V 6 h -0.5 -5 z M 1,9 h 3 v 4.5 C 4,14.041666 3.8148778,14.385256 3.5429688,14.626953 3.2710597,14.86865 2.8888889,15 2.5,15 2.1111111,15 1.7289403,14.86865 1.4570312,14.626953 1.1851222,14.385256 1,14.041666 1,13.5 Z m 6,0 v 1 h 0.5 5 0.5 V 9 h -0.5 -5 z m 0,3 v 1 h 0.5 2 0.5 v -1 h -0.5 -2 z"
     id="path1" />
</svg>
