<?xml version="1.0" encoding="UTF-8" standalone="no"?>
<svg
   width="24"
   height="24"
   fill="none"
   viewBox="0 0 24 24"
   version="1.1"
   id="svg1"
   xmlns="http://www.w3.org/2000/svg"
   xmlns:svg="http://www.w3.org/2000/svg">
  <defs
     id="defs1" />
  <path
     style="fill:currentColor;stroke-linecap:square"
     d="M 5,1 V 20.498047 C 4.997511,21.331431 4.3331189,21.996472 3.5,22 2.6675355,21.996475 2.003525,21.332465 2,20.5 V 13 H 2.5 3 V 12 H 2.5 1 v 8.5 0.002 C 1.0040987,21.874318 2.1256822,22.995901 3.4980469,23 H 3.5 h 0.00195 l 0.4960938,0.002 V 23 H 20.5 h 0.002 C 21.874318,22.995901 22.995901,21.874318 23,20.501953 V 20.5 1 Z M 6,2 H 22 V 20.498047 C 21.997511,21.331431 21.333119,21.996472 20.5,22 H 5.3730469 C 5.712401,21.573659 5.998257,21.085551 6,20.501953 V 20.5 Z m 3,3 v 5 H 19 V 5 Z m 1,1 h 8 v 3 h -8 z m -1,7 v 1 h 0.5 9 0.5 v -1 h -0.5 -9 z m 0,4 v 1 h 0.5 9 0.5 v -1 h -0.5 -9 z"
     id="path1" />
</svg>
