<?xml version="1.0" encoding="UTF-8" standalone="no"?>
<svg
   width="16"
   height="16"
   fill="none"
   viewBox="0 0 16 16"
   version="1.1"
   id="svg1"
   xmlns="http://www.w3.org/2000/svg"
   xmlns:svg="http://www.w3.org/2000/svg">
  <defs
     id="defs1" />
  <path
     fill="currentColor"
     d="M15.5 10a.5.5 0 0 0 0-1v1Zm-1-1a.5.5 0 0 0 0 1V9Zm1 3a.5.5 0 0 0 0-1v1Zm-1-1a.5.5 0 0 0 0 1v-1Zm-13 1a.5.5 0 0 0 0-1v1Zm-1-1a.5.5 0 0 0 0 1v-1Zm1-6a.5.5 0 0 0 0-1v1Zm-1-1a.5.5 0 0 0 0 1V4Zm1 3a.5.5 0 0 0 0-1v1Zm-1-1a.5.5 0 0 0 0 1V6Zm1 4a.5.5 0 0 0 0-1v1Zm-1-1a.5.5 0 0 0 0 1V9ZM4 15.5a.5.5 0 0 0 1 0H4Zm1-1a.5.5 0 0 0-1 0h1Zm1 1a.5.5 0 0 0 1 0H6Zm1-1a.5.5 0 0 0-1 0h1Zm2 1a.5.5 0 0 0 1 0H9Zm1-1a.5.5 0 0 0-1 0h1Zm1 1a.5.5 0 0 0 1 0h-1Zm1-1a.5.5 0 0 0-1 0h1Zm-8-13a.5.5 0 0 0 1 0H4Zm1-1a.5.5 0 0 0-1 0h1Zm1 1a.5.5 0 0 0 1 0H6Zm1-1a.5.5 0 0 0-1 0h1Zm1 1h.5A.5.5 0 0 0 8 1v.5ZM14.5 8h.5a.5.5 0 0 0-.5-.5V8Zm1 1h-1v1h1V9Zm0 2h-1v1h1v-1Zm-14 0h-1v1h1v-1Zm0-7h-1v1h1V4Zm0 2h-1v1h1V6Zm0 3h-1v1h1V9ZM5 15.5v-1H4v1h1Zm2 0v-1H6v1h1Zm3 0v-1H9v1h1Zm2 0v-1h-1v1h1Zm-7-14v-1H4v1h1Zm2 0v-1H6v1h1ZM2.5 14a.5.5 0 0 1-.5-.5H1A1.5 1.5 0 0 0 2.5 15v-1Zm11.5-.5a.5.5 0 0 1-.5.5v1a1.5 1.5 0 0 0 1.5-1.5h-1ZM2.5 1A1.5 1.5 0 0 0 1 2.5h1a.5.5 0 0 1 .5-.5V1Zm0 1H8V1H2.5v1ZM14 8v5.5h1V8h-1Zm-.5 6H8v1h5.5v-1ZM8 14H2.5v1H8v-1ZM7.5 1.5V8h1V1.5h-1Zm0 6.5v6.5h1V8h-1ZM2 13.5V8H1v5.5h1ZM2 8V2.5H1V8h1Zm12.5-.5H8v1h6.5v-1ZM8 7.5H1.5v1H8v-1Z"
     id="path1" />
</svg>
