<?xml version="1.0" encoding="UTF-8" standalone="no"?>
<svg
   width="24"
   height="24"
   fill="none"
   viewBox="0 0 24 24"
   version="1.1"
   id="svg1"
   xmlns="http://www.w3.org/2000/svg"
   xmlns:svg="http://www.w3.org/2000/svg">
  <defs
     id="defs1" />
  <path
     style="fill:currentColor;stroke-linecap:round;stroke-linejoin:round"
     d="M 6.5,1 A 0.5,0.5 0 0 0 6,1.5 V 3 H 5.5 C 4.1252104,3 3,4.1252104 3,5.5 V 6 H 1.5 A 0.5,0.5 0 0 0 1,6.5 0.5,0.5 0 0 0 1.5,7 H 3 v 3 H 1.5 A 0.5,0.5 0 0 0 1,10.5 0.5,0.5 0 0 0 1.5,11 H 3 V 12.5 14 H 1.5 A 0.5,0.5 0 0 0 1,14.5 0.5,0.5 0 0 0 1.5,15 H 3 v 3 H 1.5 A 0.5,0.5 0 0 0 1,18.5 0.5,0.5 0 0 0 1.5,19 H 3 v 0.5 C 3,20.87479 4.1252104,22 5.5,22 H 6 v 1.5 A 0.5,0.5 0 0 0 6.5,24 0.5,0.5 0 0 0 7,23.5 V 22 h 3 v 1.5 A 0.5,0.5 0 0 0 10.5,24 0.5,0.5 0 0 0 11,23.5 V 22 h 1.5 1.5 v 1.5 A 0.5,0.5 0 0 0 14.5,24 0.5,0.5 0 0 0 15,23.5 V 22 h 3 v 1.5 A 0.5,0.5 0 0 0 18.5,24 0.5,0.5 0 0 0 19,23.5 V 22 h 0.5 C 20.87479,22 22,20.87479 22,19.5 V 19 h 1.5 A 0.5,0.5 0 0 0 24,18.5 0.5,0.5 0 0 0 23.5,18 H 22 v -3 h 1.5 A 0.5,0.5 0 0 0 24,14.5 0.5,0.5 0 0 0 23.5,14 H 22 V 12.5 A 0.50005,0.50005 0 0 0 21.5,12 H 13 V 3.5 A 0.50005,0.50005 0 0 0 12.5,3 H 11 V 1.5 A 0.5,0.5 0 0 0 10.5,1 0.5,0.5 0 0 0 10,1.5 V 3 H 7 V 1.5 A 0.5,0.5 0 0 0 6.5,1 Z m -1,3 h 1 4 1.5 v 8 H 4 v -1.5 -4 -1 C 4,4.6656506 4.6656506,4 5.5,4 Z M 4,13 h 8 v 8 h -1.5 -4 -1 C 4.6656506,21 4,20.334349 4,19.5 v -1 -4 z m 9,0 h 8 v 1.5 4 1 c 0,0.834349 -0.665651,1.5 -1.5,1.5 h -1 -4 -1.5 z"
     id="path1" />
</svg>
