<?xml version="1.0" encoding="UTF-8" standalone="no"?>
<svg
   width="24"
   height="24"
   fill="none"
   viewBox="0 0 24 24"
   version="1.1"
   id="svg1"
   xmlns="http://www.w3.org/2000/svg"
   xmlns:svg="http://www.w3.org/2000/svg">
  <defs
     id="defs1" />
  <path
     style="fill:currentColor;stroke-linecap:round;stroke-linejoin:round"
     d="M 10,1 C 7.2333333,1 5,3.2333333 5,6 v 11 c 0,3.868519 3.1314815,7 7,7 3.868519,0 7,-3.131481 7,-7 V 4.5 A 0.5,0.5 0 0 0 18.5,4 0.5,0.5 0 0 0 18,4.5 V 17 c 0,3.331481 -2.668519,6 -6,6 C 8.6685185,23 6,20.331481 6,17 V 6 c 0,-2.2333333 1.7666667,-4 4,-4 2.233333,0 4,1.7666667 4,4 v 10 c 0,1.138095 -0.861905,2 -2,2 -1.138095,0 -2,-0.861905 -2,-2 V 7.5 A 0.5,0.5 0 0 0 9.5,7 0.5,0.5 0 0 0 9,7.5 V 16 c 0,1.661905 1.338095,3 3,3 1.661905,0 3,-1.338095 3,-3 V 6 C 15,3.2333333 12.766667,1 10,1 Z"
     id="path1" />
</svg>
