<?xml version="1.0" encoding="UTF-8" standalone="no"?>
<svg
   width="16"
   height="16"
   fill="none"
   viewBox="0 0 16 16"
   version="1.1"
   id="svg1"
   xmlns="http://www.w3.org/2000/svg"
   xmlns:svg="http://www.w3.org/2000/svg">
  <defs
     id="defs1" />
  <path
     style="fill:currentColor;stroke-linecap:round;stroke-linejoin:round"
     d="M 6.5,0 C 5.3888889,0 4.2710597,0.36865038 3.4179688,1.1269531 2.5648778,1.8852559 2,3.0416672 2,4.5 V 10 c 0,3.307788 2.6922144,6 6,6 3.307786,0 6,-2.692212 6,-6 V 4.5 A 0.5,0.5 0 0 0 13.5,4 0.5,0.5 0 0 0 13,4.5 V 10 c 0,2.767348 -2.232654,5 -5,5 C 5.2326535,15 3,12.767348 3,10 V 4.5 C 3,3.2916673 3.4351222,2.4480769 4.0820312,1.8730469 4.7289403,1.2980169 5.6111111,1 6.5,1 7.3888889,1 8.2710597,1.2980169 8.9179688,1.8730469 9.5648778,2.4480769 10,3.2916673 10,4.5 v 5 C 10,10.041666 9.8148778,10.385256 9.5429688,10.626953 9.2710597,10.86865 8.8888889,11 8.5,11 8.1111111,11 7.7289403,10.86865 7.4570312,10.626953 7.1851222,10.385256 7,10.041666 7,9.5 v -4 A 0.5,0.5 0 0 0 6.5,5 0.5,0.5 0 0 0 6,5.5 v 4 c 0,0.791666 0.3148778,1.448077 0.7929687,1.873047 C 7.2710597,11.798016 7.8888889,12 8.5,12 9.1111111,12 9.7289403,11.798016 10.207031,11.373047 10.685122,10.948077 11,10.291666 11,9.5 v -5 C 11,3.0416672 10.435122,1.8852559 9.5820313,1.1269531 8.7289403,0.36865038 7.6111111,0 6.5,0 Z"
     id="path1" />
</svg>
