<?xml version="1.0" encoding="UTF-8" standalone="no"?>
<svg
   width="24"
   height="24"
   fill="none"
   viewBox="0 0 24 24"
   version="1.1"
   id="svg2"
   xmlns="http://www.w3.org/2000/svg"
   xmlns:svg="http://www.w3.org/2000/svg">
  <defs
     id="defs2" />
  <path
     style="fill:currentColor;stroke-linecap:square;stroke-miterlimit:10"
     d="M 6.1679687,7.1152344 3.28125,16 H 6.6816406 L 7.0820312,14.527344 H 8.8652344 L 9.2519531,16 H 12.648438 L 9.7246094,7.1152344 Z m 6.6660153,0.03125 V 16 h 3.009766 c 1.249765,0.07763 2.47879,-0.352282 3.408203,-1.191406 l 0.01563,-0.01563 0.01563,-0.01563 c 0.849504,-0.909773 1.281949,-2.127422 1.210938,-3.369141 0.06881,-1.164745 -0.350366,-2.3068093 -1.166016,-3.142578 L 19.3125,8.2480469 19.294922,8.2324219 C 18.385487,7.4597114 17.210429,7.0715205 16.019531,7.1484375 l 0.0332,-0.00195 z m -5.9394528,0.96875 H 9.0019531 L 11.265625,15 H 10.023438 L 9.6347656,13.527344 H 6.3183594 L 5.9179687,15 H 4.6582031 Z m 6.9394528,0.03125 h 2.234375 0.01563 c 0.924011,-0.059679 1.831755,0.2417065 2.541016,0.8359375 0.614756,0.639277 0.936589,1.5049951 0.876953,2.3906251 l -0.0039,0.0332 0.0039,0.0332 c 0.06288,0.971939 -0.281205,1.923427 -0.941406,2.638672 C 17.832781,14.726248 16.8796,15.06046 15.90625,15 h -0.01563 -2.056641 z m 1.121094,0.7148437 v 5.4003909 h 0.972656 l -0.04297,-0.002 c 0.690567,0.0588 1.371196,-0.210647 1.833984,-0.726563 l 0.02344,-0.02539 0.01953,-0.0293 c 0.395032,-0.58674 0.571647,-1.290902 0.527343,-1.996094 0.04265,-0.66603 -0.12698,-1.331102 -0.503906,-1.8828126 l -0.01758,-0.027344 -0.02148,-0.023437 C 17.313926,9.0663627 16.678954,8.8128123 16.033203,8.8632813 l 0.03906,-0.00195 z M 8.0605469,8.9980469 c -0.093678,-0.00913 -0.1873991,0.011492 -0.2558594,0.041016 -0.020111,0.00867 -0.023495,0.015027 -0.042969,0.027344 -0.037868,0.00883 -0.048393,-0.025557 -0.083984,-0.00586 C 7.4085824,9.2095022 7.344109,9.4312328 7.2832031,9.6992188 v -0.00586 C 7.0851317,10.517112 6.8765929,11.338174 6.65625,12.15625 l -0.1699219,0.628906 2.9726563,0.0039 -0.5058594,-1.917969 v -0.002 C 8.8540642,10.503489 8.7601911,10.137451 8.6699219,9.7695313 v -0.00195 C 8.6066168,9.5104011 8.5726877,9.3755521 8.4414063,9.2109375 8.4107548,9.1725034 8.3208471,9.1501575 8.2636719,9.1113281 L 8.3125,9.109375 c 0,0 -0.054322,-7.86e-4 -0.060547,-0.00391 -0.06343,-0.040931 -0.097158,-0.09824 -0.1914062,-0.1074219 z M 16.111328,9.859375 c 0.324852,-0.025389 0.635498,0.1087053 0.859375,0.34375 0.240435,0.3681 0.364295,0.80111 0.330078,1.240234 l -0.002,0.03906 0.002,0.03711 c 0.03635,0.479706 -0.09746,0.953488 -0.357422,1.357422 -0.252889,0.266041 -0.605598,0.417974 -0.972656,0.386719 l -0.01563,-0.002 V 9.8613281 h 0.136719 z M 7.96875,11.054688 c 0.00682,0.02533 0.012672,0.05085 0.019531,0.07617 l 0.1718751,0.65625 -0.3789063,-0.002 c 0.063728,-0.243252 0.1257127,-0.486717 0.1875,-0.730468 z"
     id="path1" />
  <path
     style="fill:currentColor;stroke-linecap:square;stroke-miterlimit:10"
     d="M 1,4 V 19 H 14.333984 L 19,22.5 V 19 h 4 V 4 Z m 1,1 h 20 v 13 h -4 v 2.5 L 14.666016,18 H 2 Z"
     id="path2" />
</svg>
