<?xml version="1.0" encoding="UTF-8" standalone="no"?>
<svg
   width="16"
   height="16"
   fill="none"
   viewBox="0 0 16 16"
   version="1.1"
   id="svg1"
   xmlns="http://www.w3.org/2000/svg"
   xmlns:svg="http://www.w3.org/2000/svg">
  <defs
     id="defs1" />
  <path
     fill="currentColor"
     d="M3.028 10.335a.5.5 0 1 0 .944.33l-.944-.33ZM5.25 5.5V5a.5.5 0 0 0-.472.335l.472.165Zm.5 0 .472-.165A.5.5 0 0 0 5.75 5v.5Zm1.278 5.165a.5.5 0 1 0 .944-.33l-.944.33ZM4.2 8a.5.5 0 0 0 0 1V8Zm2.6 1a.5.5 0 0 0 0-1v1Zm4.2 1.5v.5-.5Zm-1.5 0H9a.5.5 0 0 0 .5.5v-.5Zm0-5V5a.5.5 0 0 0-.5.5h.5Zm1.5 0V6v-.5ZM12.5 7h.5-.5Zm0 2h.5-.5ZM.5 2.5V2H0v.5h.5Zm15 0h.5V2h-.5v.5Zm0 11v.5h.5v-.5h-.5Zm-15 0H0v.5h.5v-.5Zm3.472-2.835 1.75-5-.944-.33-1.75 5 .944.33ZM5.25 6h.5V5h-.5v1Zm.028-.335 1.75 5 .944-.33-1.75-5-.944.33ZM4.2 9h2.6V8H4.2v1Zm6.8 1H9.5v1H11v-1Zm-1 .5v-5H9v5h1ZM9.5 6H11V5H9.5v1ZM11 6a1 1 0 0 1 .707.293l.707-.707A2 2 0 0 0 11 5v1Zm.707.293A1 1 0 0 1 12 7h1a2 2 0 0 0-.586-1.414l-.707.707ZM12 7v2h1V7h-1Zm0 2a1 1 0 0 1-.293.707l.707.707A2 2 0 0 0 13 9h-1Zm-.293.707A1 1 0 0 1 11 10v1a2 2 0 0 0 1.414-.586l-.707-.707ZM.5 3h15V2H.5v1ZM15 2.5v11h1v-11h-1Zm.5 10.5H.5v1h15v-1ZM1 13.5v-11H0v11h1Z"
     id="path1" />
</svg>
