<?xml version="1.0" encoding="UTF-8" standalone="no"?>
<svg
   width="24"
   height="24"
   fill="none"
   viewBox="0 0 24 24"
   version="1.1"
   id="svg2"
   xmlns="http://www.w3.org/2000/svg"
   xmlns:svg="http://www.w3.org/2000/svg">
  <defs
     id="defs2" />
  <path
     style="fill:currentColor;stroke-linecap:round;stroke-linejoin:round"
     d="m 7.5,12.898438 a 0.5,0.5 0 0 0 -0.5,0.5 V 22.5 a 0.50005,0.50005 0 0 0 0.7578125,0.429687 L 12.5,20.083984 17.242187,22.929687 A 0.50005,0.50005 0 0 0 18,22.5 v -9.101562 a 0.5,0.5 0 0 0 -0.5,-0.5 0.5,0.5 0 0 0 -0.5,0.5 v 8.216796 l -4.242187,-2.544922 a 0.50005,0.50005 0 0 0 -0.515625,0 L 8,21.615234 v -8.216796 a 0.5,0.5 0 0 0 -0.5,-0.5 z"
     id="path1" />
  <path
     style="fill:currentColor;stroke-linecap:round;stroke-linejoin:round"
     d="M 12.5,1 C 8.3637843,1 5,4.3637873 5,8.5 5,12.636213 8.3637843,16 12.5,16 16.636216,16 20,12.636213 20,8.5 20,4.3637873 16.636216,1 12.5,1 Z m 0,1 C 16.095776,2 19,4.9042264 19,8.5 19,12.095774 16.095776,15 12.5,15 8.904224,15 6,12.095774 6,8.5 6,4.9042264 8.904224,2 12.5,2 Z"
     id="path2" />
</svg>
