<?xml version="1.0" encoding="UTF-8" standalone="no"?>
<svg
   width="16"
   height="16"
   fill="none"
   viewBox="0 0 16 16"
   version="1.1"
   id="svg1"
   xmlns="http://www.w3.org/2000/svg"
   xmlns:svg="http://www.w3.org/2000/svg">
  <defs
     id="defs1" />
  <path
     style="fill:currentColor;stroke-linecap:square;stroke-linejoin:round"
     d="M 8,0 C 6.7638889,0 5.5210597,0.41031709 4.5742187,1.2519531 3.6273778,2.0935892 3,3.3750006 3,5 3,6.6249994 3.6273778,7.9064108 4.5742187,8.7480469 5.5210597,9.5896829 6.7638889,10 8,10 9.2361111,10 10.47894,9.5896829 11.425781,8.7480469 12.372622,7.9064108 13,6.6249994 13,5 13,3.3750006 12.372622,2.0935892 11.425781,1.2519531 10.47894,0.41031709 9.2361111,0 8,0 Z M 8,1 C 9.0138889,1 10.02106,1.3396836 10.761719,1.9980469 11.502378,2.6564102 12,3.6250007 12,5 12,6.3749993 11.502378,7.3435898 10.761719,8.0019531 10.02106,8.6603164 9.0138889,9 8,9 6.9861111,9 5.9789403,8.6603164 5.2382812,8.0019531 4.4976222,7.3435898 4,6.3749993 4,5 4,3.6250007 4.4976222,2.6564102 5.2382812,1.9980469 5.9789403,1.3396836 6.9861111,1 8,1 Z m -4,9 v 0.5 5 a 0.50005,0.50005 0 0 0 0.7480469,0.433594 L 8,14.076172 11.251953,15.933594 A 0.50005,0.50005 0 0 0 12,15.5 v -5 -0.5 h -1 v 0.5 4.138672 L 8.2480469,13.066406 a 0.50005,0.50005 0 0 0 -0.4960938,0 L 5,14.638672 V 10.5 10 Z"
     id="path1" />
</svg>
