<?xml version="1.0" encoding="UTF-8" standalone="no"?>
<svg
   width="16"
   height="16"
   fill="none"
   viewBox="0 0 16 16"
   version="1.1"
   id="svg1"
   xmlns="http://www.w3.org/2000/svg"
   xmlns:svg="http://www.w3.org/2000/svg">
  <defs
     id="defs1" />
  <path
     style="fill:currentColor;stroke-linecap:round;stroke-linejoin:round"
     d="M 8,0 C 3.5876449,0 0,3.5876417 0,8 c 0,2.205204 0.89642173,4.204042 2.34375,5.652344 a 0.5,0.5 0 0 0 0,0.0039 0.5,0.5 0 0 0 0.011719,0.0059 C 3.8032168,15.105384 5.7983039,16 8,16 12.412355,16 16,12.412358 16,8 16,5.8070614 15.106998,3.8232827 13.673828,2.3769531 a 0.5,0.5 0 0 0 -0.01758,-0.033203 0.5,0.5 0 0 0 -0.0039,0 C 12.204041,0.89642294 10.205203,0 8,0 Z m 0,1 c 1.75225,0 3.302713,0.7033641 4.529297,1.7636719 L 2.7636719,12.529297 C 1.7033631,11.302714 1,9.7522512 1,8 1,4.1280815 4.128084,1 8,1 Z m 5.236328,2.4707031 C 14.296637,4.6972864 15,6.2477488 15,8 15,11.871919 11.871916,15 8,15 6.24775,15 4.6972874,14.296636 3.4707031,13.236328 Z"
     id="path1" />
</svg>
