<?xml version="1.0" encoding="UTF-8" standalone="no"?>
<svg
   width="24"
   height="24"
   fill="none"
   viewBox="0 0 24 24"
   version="1.1"
   id="svg1"
   xmlns="http://www.w3.org/2000/svg"
   xmlns:svg="http://www.w3.org/2000/svg">
  <defs
     id="defs1" />
  <path
     style="fill:currentColor;stroke-linecap:round;stroke-linejoin:round"
     d="M 12.5,1 C 6.1547668,1 1,6.1547668 1,12.5 c 0,3.156439 1.2825331,6.012532 3.3457031,8.091797 a 0.5,0.5 0 0 0 0,0.0625 0.5,0.5 0 0 0 0.1640625,0.06836 C 6.581458,22.735267 9.3876084,24 12.5,24 18.845233,24 24,18.845233 24,12.5 24,9.4265886 22.75143,6.6639397 20.783203,4.5996094 a 0.5,0.5 0 0 0 -0.128906,-0.2539063 0.5,0.5 0 0 0 -0.0625,0 C 18.512532,2.2825331 15.656439,1 12.5,1 Z m 0,1 c 2.718761,0 5.142301,1.0955563 7.005859,2.7871094 L 4.7871094,19.505859 C 3.0955563,17.642301 2,15.218761 2,12.5 2,6.6952332 6.6952332,2 12.5,2 Z m 7.712891,3.4941406 C 21.904444,7.3576991 23,9.781239 23,12.5 23,18.304767 18.304767,23 12.5,23 9.781239,23 7.3576991,21.904444 5.4941406,20.212891 Z"
     id="path1" />
</svg>
