<?xml version="1.0" encoding="UTF-8" standalone="no"?>
<svg
   width="12"
   height="12"
   fill="none"
   viewBox="0 0 12 12"
   version="1.1"
   id="svg1"
   xmlns="http://www.w3.org/2000/svg"
   xmlns:svg="http://www.w3.org/2000/svg">
  <defs
     id="defs1" />
  <path
     style="fill:currentColor;stroke-linejoin:round"
     d="M 6,0 C 2.6922144,0 0,2.6922119 0,6 0,9.3077881 2.6922144,12 6,12 9.3077856,12 12,9.3077881 12,6 12,2.6922119 9.3077856,0 6,0 Z m 0,1 c 1.1997042,0 2.2548553,0.4768651 3.1152344,1.1777344 l -6.9375,6.9375 C 1.4768644,8.2548559 1,7.1997049 1,6 1,3.2326517 3.2326535,1 6,1 Z M 9.8222656,2.8847656 C 10.523136,3.7451441 11,4.8002951 11,6 11,8.7673483 8.7673465,11 6,11 4.8002958,11 3.7451447,10.523135 2.8847656,9.8222656 Z"
     id="path1" />
</svg>
