<?xml version="1.0" encoding="UTF-8" standalone="no"?>
<svg
   width="24"
   height="24"
   fill="none"
   viewBox="0 0 24 24"
   version="1.1"
   id="svg1"
   xmlns="http://www.w3.org/2000/svg"
   xmlns:svg="http://www.w3.org/2000/svg">
  <defs
     id="defs1" />
  <path
     style="fill:currentColor;stroke-linecap:round;stroke-linejoin:round"
     d="M 2.5,3 A 0.5,0.5 0 0 0 2,3.5 v 18 A 0.5,0.5 0 0 0 2.5,22 0.5,0.5 0 0 0 3,21.5 V 3.5 A 0.5,0.5 0 0 0 2.5,3 Z m 5,5 A 0.5,0.5 0 0 0 7,8.5 v 13 A 0.5,0.5 0 0 0 7.5,22 0.5,0.5 0 0 0 8,21.5 V 8.5 A 0.5,0.5 0 0 0 7.5,8 Z m 10,0 A 0.5,0.5 0 0 0 17,8.5 v 13 A 0.5,0.5 0 0 0 17.5,22 0.5,0.5 0 0 0 18,21.5 V 8.5 A 0.5,0.5 0 0 0 17.5,8 Z m -5,5 A 0.5,0.5 0 0 0 12,13.5 v 8 A 0.5,0.5 0 0 0 12.5,22 0.5,0.5 0 0 0 13,21.5 v -8 A 0.5,0.5 0 0 0 12.5,13 Z m 10,0 A 0.5,0.5 0 0 0 22,13.5 v 8 A 0.5,0.5 0 0 0 22.5,22 0.5,0.5 0 0 0 23,21.5 v -8 A 0.5,0.5 0 0 0 22.5,13 Z"
     id="path1" />
</svg>
