<?xml version="1.0" encoding="UTF-8" standalone="no"?>
<svg
   width="16"
   height="16"
   fill="none"
   viewBox="0 0 16 16"
   version="1.1"
   id="svg1"
   xmlns="http://www.w3.org/2000/svg"
   xmlns:svg="http://www.w3.org/2000/svg">
  <defs
     id="defs1" />
  <path
     style="fill:currentColor;stroke-linecap:square;stroke-linejoin:round"
     d="M 15,0.29296875 14.646484,0.64648437 6,9.2929688 V 5.5 5 H 5 v 0.5 4.5 0.292969 l -2,2 V 2.5 2 H 2 V 2.5 13 13.292969 L 0.64648437,14.646484 0.29296875,15 1,15.707031 1.3535156,15.353516 15.353516,1.3535156 15.707031,1 Z M 11,7 v 0.5 7 0.5 h 1 V 14.5 7.5 7 Z m 3,1 v 0.5 6 0.5 h 1 V 14.5 8.5 8 Z m -6,2 v 0.5 4 0.5 h 1 v -0.5 -4 -0.5 z m -3,3 v 0.5 1 0.5 h 1 v -0.5 -1 -0.5 z"
     id="path1" />
</svg>
