<?xml version="1.0" encoding="UTF-8" standalone="no"?>
<svg
   width="24"
   height="24"
   fill="none"
   viewBox="0 0 24 24"
   version="1.1"
   id="svg1"
   xmlns="http://www.w3.org/2000/svg"
   xmlns:svg="http://www.w3.org/2000/svg">
  <defs
     id="defs1" />
  <path
     style="fill:currentColor;stroke-linecap:round;stroke-linejoin:round"
     d="M 22.646484,1.6464844 8,16.292969 V 8.5 A 0.5,0.5 0 0 0 7.5,8 0.5,0.5 0 0 0 7,8.5 v 8.792969 l -4,4 V 3.5 A 0.5,0.5 0 0 0 2.5,3 0.5,0.5 0 0 0 2,3.5 v 18.792969 l -0.3535156,0.353515 a 0.5,0.5 0 0 0 0,0.707032 0.5,0.5 0 0 0 0.7070312,0 l 0.5,-0.5 5,-5 L 23.353516,2.3535156 a 0.5,0.5 0 0 0 0,-0.7070312 0.5,0.5 0 0 0 -0.707032,0 z M 17.5,12 A 0.5,0.5 0 0 0 17,12.5 v 9 A 0.5,0.5 0 0 0 17.5,22 0.5,0.5 0 0 0 18,21.5 v -9 A 0.5,0.5 0 0 0 17.5,12 Z m 5,1 A 0.5,0.5 0 0 0 22,13.5 v 8 A 0.5,0.5 0 0 0 22.5,22 0.5,0.5 0 0 0 23,21.5 v -8 A 0.5,0.5 0 0 0 22.5,13 Z m -10,4 A 0.5,0.5 0 0 0 12,17.5 v 4 A 0.5,0.5 0 0 0 12.5,22 0.5,0.5 0 0 0 13,21.5 v -4 A 0.5,0.5 0 0 0 12.5,17 Z"
     id="path1" />
</svg>
