<?xml version="1.0" encoding="UTF-8" standalone="no"?>
<svg
   width="24"
   height="24"
   fill="none"
   viewBox="0 0 24 24"
   version="1.1"
   id="svg1"
   xmlns="http://www.w3.org/2000/svg"
   xmlns:svg="http://www.w3.org/2000/svg">
  <defs
     id="defs1" />
  <path
     style="fill:currentColor;stroke-linecap:square;stroke-miterlimit:10"
     d="M 3.5,5 C 2.1252104,5 1,6.1252104 1,7.5 v 9 C 1,17.87479 2.1252104,19 3.5,19 h 15 c 1.37479,0 2.5,-1.12521 2.5,-2.5 v -9 C 21,6.1252104 19.87479,5 18.5,5 Z m 0,1 h 15 C 19.334349,6 20,6.6656506 20,7.5 v 9 C 20,17.334349 19.334349,18 18.5,18 H 3.5 C 2.6656506,18 2,17.334349 2,16.5 v -9 C 2,6.6656506 2.6656506,6 3.5,6 Z M 22,9 v 0.5 5 0.5 h 1 V 14.5 9.5 9 Z M 10,9.1171875 V 13.115234 L 5.7578125,10.570313 5.328125,10.314453 4.8144531,11.171875 5.2421875,11.429688 11,14.882813 v -3.998047 l 4.242188,2.544922 0.429687,0.255859 0.513672,-0.857422 -0.427734,-0.257812 z"
     id="path1" />
</svg>
