<?xml version="1.0" encoding="UTF-8" standalone="no"?>
<svg
   width="16"
   height="16"
   fill="none"
   viewBox="0 0 16 16"
   version="1.1"
   id="svg1"
   xmlns="http://www.w3.org/2000/svg"
   xmlns:svg="http://www.w3.org/2000/svg">
  <defs
     id="defs1" />
  <path
     style="fill:currentColor;stroke-linecap:square"
     d="M 2,3 C 0.90135282,3 0,3.9013528 0,5 v 6 c 0,1.098647 0.90135282,2 2,2 h 10 c 1.098647,0 2,-0.901353 2,-2 V 5 C 14,3.9013528 13.098647,3 12,3 Z m 0,1 h 10 c 0.558207,0 1,0.4417929 1,1 v 6 c 0,0.558207 -0.441793,1 -1,1 H 2 C 1.4417929,12 1,11.558207 1,11 V 5 C 1,4.4417929 1.4417929,4 2,4 Z m 13,1 v 0.5 5 0.5 h 1 V 10.5 5.5 5 Z M 6,5.6386719 V 8.7421875 L 3.1972656,7.5410156 2.7382813,7.34375 2.34375,8.2617188 2.8027344,8.4589844 7,10.257813 V 7.3613281 L 9.7519531,8.9335938 10.185547,9.1816406 10.681641,8.3144531 10.248047,8.0664063 Z"
     id="path1" />
</svg>
