<?xml version="1.0" encoding="UTF-8" standalone="no"?>
<svg
   width="16"
   height="16"
   fill="none"
   viewBox="0 0 16 16"
   version="1.1"
   id="svg1"
   xmlns="http://www.w3.org/2000/svg"
   xmlns:svg="http://www.w3.org/2000/svg">
  <defs
     id="defs1" />
  <path
     fill="currentColor"
     fill-rule="evenodd"
     d="M3.583 3.435A7.477 7.477 0 0 1 8 2c1.598 0 3.15.505 4.418 1.435a6.988 6.988 0 0 1 2.602 3.703.5.5 0 1 0 .961-.276 7.987 7.987 0 0 0-2.971-4.234A8.477 8.477 0 0 0 8 1a8.477 8.477 0 0 0-5.009 1.628A7.988 7.988 0 0 0 .02 6.862a.5.5 0 0 0 .961.276 6.988 6.988 0 0 1 2.602-3.703Zm.008 1.998.26-.427a.5.5 0 0 0-.746.543l.486-.116Zm0 0 .26-.427h.002l.003.002.012.008.047.029a63.409 63.409 0 0 1 .823.512c.537.338 1.262.801 2.015 1.303a46.303 46.303 0 0 1 2.194 1.542c.636.481 1.209.962 1.48 1.335l.072.1c.525.725.933 1.287.788 2.185-.082.504-.399.917-.69 1.214-.296.3-.626.54-.827.686l-.007.005-.008.006c-.2.145-.532.386-.91.575-.37.185-.864.36-1.368.28-.912-.148-1.324-.72-1.872-1.48l-.033-.046c-.27-.373-.55-1.066-.81-1.82a46.742 46.742 0 0 1-.788-2.562 95.885 95.885 0 0 1-.852-3.259l-.013-.054-.003-.014V5.55l-.001-.001.486-.116ZM4.936 8.61a93.558 93.558 0 0 1-.561-2.1c.51.322 1.156.738 1.824 1.183a45.332 45.332 0 0 1 2.144 1.506c.653.494 1.104.89 1.274 1.125.612.847.757 1.077.682 1.539-.031.196-.174.426-.415.671a5.59 5.59 0 0 1-.709.584 5.615 5.615 0 0 1-.776.495c-.31.155-.57.218-.762.187-.462-.074-.649-.284-1.255-1.123-.17-.235-.407-.788-.676-1.562-.26-.75-.528-1.643-.77-2.505Z"
     clip-rule="evenodd"
     id="path1" />
</svg>
