<?xml version="1.0" encoding="UTF-8" standalone="no"?>
<svg
   width="16"
   height="16"
   fill="none"
   viewBox="0 0 16 16"
   version="1.1"
   id="svg1"
   xmlns="http://www.w3.org/2000/svg"
   xmlns:svg="http://www.w3.org/2000/svg">
  <defs
     id="defs1" />
  <path
     style="fill:currentColor;stroke-linecap:round;stroke-linejoin:round"
     d="M 7.265625,0.05078125 C 5.0436068,0.38053915 2.9979543,2.1751887 3,5 V 9.5 C 3,10.334349 2.3343494,11 1.5,11 h -1 A 0.5,0.5 0 0 0 0,11.5 0.5,0.5 0 0 0 0.5,12 h 1 1.7929688 l -3.14648443,3.146484 a 0.5,0.5 0 0 0 0,0.707032 0.5,0.5 0 0 0 0.70703126,0 l 3.99999997,-4 L 15.853516,0.85351563 a 0.5,0.5 0 0 0 0,-0.70703126 0.5,0.5 0 0 0 -0.707032,0 L 12.431641,2.8613281 C 11.41487,0.70632296 9.2675833,-0.24631872 7.265625,0.05078125 Z M 7.4121094,1.0410156 C 9.1408954,0.78445569 10.949736,1.5535184 11.703125,3.5898438 L 4.2929687,11 H 3.3769531 C 3.7157766,10.573239 4,10.083864 4,9.5 V 5 C 3.998295,2.6457394 5.6048105,1.3092272 7.4121094,1.0410156 Z M 12.5,6 A 0.5,0.5 0 0 0 12,6.5 v 3 c 0,0.608359 0.330276,1.097745 0.740234,1.5 H 7.5 A 0.5,0.5 0 0 0 7,11.5 0.5,0.5 0 0 0 7.5,12 h 7 0.5 0.5 A 0.5,0.5 0 0 0 16,11.5 0.5,0.5 0 0 0 15.5,11 H 15 C 14.582492,11 14.036414,10.812201 13.634766,10.513672 13.233117,10.215142 13,9.8420928 13,9.5 v -3 A 0.5,0.5 0 0 0 12.5,6 Z M 6,13 a 0.5,0.5 0 0 0 -0.5,0.5 c 0,0.791666 0.3148778,1.448077 0.7929687,1.873047 C 6.7710597,15.798016 7.3888889,16 8,16 8.6111111,16 9.2289403,15.798016 9.7070313,15.373047 10.185122,14.948077 10.5,14.291666 10.5,13.5 A 0.5,0.5 0 0 0 10,13 0.5,0.5 0 0 0 9.5,13.5 c 0,0.541666 -0.1851222,0.885256 -0.4570312,1.126953 C 8.7710597,14.86865 8.3888889,15 8,15 7.6111111,15 7.2289403,14.86865 6.9570312,14.626953 6.6851222,14.385256 6.5,14.041666 6.5,13.5 A 0.5,0.5 0 0 0 6,13 Z"
     id="path1" />
</svg>
