<?xml version="1.0" encoding="UTF-8" standalone="no"?>
<svg
   width="24"
   height="24"
   fill="none"
   viewBox="0 0 24 24"
   version="1.1"
   id="svg1"
   xmlns="http://www.w3.org/2000/svg"
   xmlns:svg="http://www.w3.org/2000/svg">
  <defs
     id="defs1" />
  <path
     fill="currentColor"
     d="M7.197 3.197A7.5 7.5 0 0 1 20 8.5v4.997c.03 2.38.695 4.708 1.928 6.744l.46.759H2.612l.46-.759A13.334 13.334 0 0 0 5 13.497V8.5a7.5 7.5 0 0 1 2.197-5.303ZM10.77 23.45A3.01 3.01 0 0 1 9.675 22h5.652a3.01 3.01 0 0 1-1.097 1.45 2.993 2.993 0 0 1-3.458 0Z"
     id="path1" />
</svg>
