<?xml version="1.0" encoding="UTF-8" standalone="no"?>
<svg
   width="24"
   height="24"
   fill="none"
   viewBox="0 0 24 24"
   version="1.1"
   id="svg3"
   xmlns="http://www.w3.org/2000/svg"
   xmlns:svg="http://www.w3.org/2000/svg">
  <defs
     id="defs3" />
  <path
     style="fill:currentColor;stroke-linecap:round;stroke-linejoin:round"
     d="M 13.087891,1.0136719 C 12.29256,0.95894887 11.493899,1.0293059 10.724609,1.2167969 7.6474516,1.9667609 4.9988347,4.6150636 5,8.5058594 v 4.9999996 c -0.029935,2.37883 -0.6950345,4.705317 -1.9277344,6.740235 a 0.5,0.5 0 0 0 0.1679688,0.6875 0.5,0.5 0 0 0 0.6875,-0.167969 C 5.2540239,18.576211 5.9689174,16.070855 6,13.511719 a 0.50005,0.50005 0 0 0 0,-0.0059 V 8.5058594 c -0.00103,-3.4432779 2.2726775,-5.6612243 4.960938,-6.3164063 2.68826,-0.655182 5.727178,0.2685409 7.310546,3.3261719 a 0.5,0.5 0 0 0 0.673828,0.2128906 0.5,0.5 0 0 0 0.214844,-0.6738281 C 17.818289,2.4634173 15.473883,1.1778409 13.087891,1.0136719 Z M 19.5,9 A 0.5,0.5 0 0 0 19,9.5 v 4.005859 a 0.50005,0.50005 0 0 0 0,0.0059 c 0.02742,2.280506 0.678006,4.484937 1.740234,6.49414 L 8.5,20 A 0.5,0.5 0 0 0 8,20.5 0.5,0.5 0 0 0 8.5,21 l 13,0.0059 a 0.50005,0.50005 0 0 0 0.427734,-0.759765 C 20.695265,18.211207 20.029641,15.884626 20,13.505859 V 9.5 A 0.5,0.5 0 0 0 19.5,9 Z"
     id="path1" />
  <path
     fill="currentColor"
     d="M9.674 22a3.01 3.01 0 0 0 1.097 1.45A2.993 2.993 0 0 0 15.326 22H9.674Z"
     id="path2" />
  <path
     style="fill:currentColor;stroke-linecap:round;stroke-linejoin:round"
     d="M 21.146484,2.1464844 2.1464844,21.146484 a 0.5,0.5 0 0 0 0,0.707032 0.5,0.5 0 0 0 0.7070312,0 L 21.853516,2.8535156 a 0.5,0.5 0 0 0 0,-0.7070312 0.5,0.5 0 0 0 -0.707032,0 z"
     id="path3" />
</svg>
