<?xml version="1.0" encoding="UTF-8" standalone="no"?>
<svg
   width="12"
   height="12"
   fill="none"
   viewBox="0 0 12 12"
   version="1.1"
   id="svg1"
   xmlns="http://www.w3.org/2000/svg"
   xmlns:svg="http://www.w3.org/2000/svg">
  <defs
     id="defs1" />
  <path
     style="fill:currentColor;stroke-linecap:round;stroke-linejoin:round"
     d="M 6,0 C 5.0138889,0 4.0210597,0.32698368 3.2617188,1.0019531 2.5023778,1.6769226 2,2.7083338 2,4 V 6.4707031 C 1.9415765,7.2957594 1.2925146,7.9457634 0.46679688,8.0019531 A 0.50005,0.50005 0 0 0 0.5,9 h 11 a 0.50005,0.50005 0 0 0 0.0332,-0.9980469 C 10.707443,7.9460972 10.058091,7.2958022 10,6.4707031 V 4 C 10,2.7083338 9.4976222,1.6769226 8.7382813,1.0019531 7.9789403,0.32698368 6.9861111,0 6,0 Z M 6,1 C 6.7638889,1 7.5210597,1.2563502 8.0742188,1.7480469 8.6273778,2.2397436 9,2.9583339 9,4 v 2.5 a 0.50005,0.50005 0 0 0 0.00195,0.033203 C 9.0405861,7.1043437 9.3255924,7.5843888 9.6699219,8 H 2.3300781 C 2.6743689,7.5844772 2.9591911,7.1041951 2.9980469,6.5332031 A 0.50005,0.50005 0 0 0 3,6.5 V 4 C 3,2.9583339 3.3726222,2.2397436 3.9257813,1.7480469 4.4789403,1.2563502 5.2361111,1 6,1 Z M 4.4277344,10.027344 A 0.5,0.5 0 0 0 4.1191406,10.664063 C 4.4206596,11.529537 5.2230707,12 6,12 6.7769293,12 7.5793404,11.529537 7.8808594,10.664063 A 0.5,0.5 0 0 0 7.5722656,10.027344 0.5,0.5 0 0 0 6.9355469,10.335938 C 6.7723318,10.804427 6.3987037,11 6,11 5.6012963,11 5.2276682,10.804427 5.0644531,10.335938 A 0.5,0.5 0 0 0 4.4277344,10.027344 Z"
     id="path1" />
</svg>
