<?xml version="1.0" encoding="UTF-8" standalone="no"?>
<svg
   width="12"
   height="12"
   fill="none"
   viewBox="0 0 12 12"
   version="1.1"
   id="svg2"
   xmlns="http://www.w3.org/2000/svg"
   xmlns:svg="http://www.w3.org/2000/svg">
  <defs
     id="defs2" />
  <path
     fill="currentColor"
     d="M4.6 10.5c.05.292.284.546.536.725a1.49 1.49 0 0 0 1.728 0c.252-.18.486-.433.536-.725M11.5 8.5a2.15 2.15 0 0 1-2-2V4a3.5 3.5 0 1 0-7 0v2.5a2.151 2.151 0 0 1-2 2"
     id="path1" />
  <path
     style="fill:currentColor;stroke-linecap:round;stroke-linejoin:round"
     d="M 6,0 C 5.0138889,0 4.0210597,0.32698368 3.2617188,1.0019531 2.5023778,1.6769226 2,2.7083338 2,4 v 2.4707031 c -0.058423,0.8250563 -0.7074854,1.4750603 -1.53320312,1.53125 a 0.5,0.5 0 0 0 -0.46484375,0.53125 0.5,0.5 0 0 0 0.53124999,0.4648438 C 1.8516788,8.9083252 2.9083252,7.8516788 2.9980469,6.5332031 A 0.50005,0.50005 0 0 0 3,6.5 V 4 C 3,2.9583339 3.3726222,2.2397436 3.9257813,1.7480469 4.4789403,1.2563502 5.2361111,1 6,1 6.7638889,1 7.5210597,1.2563502 8.0742188,1.7480469 8.6273778,2.2397436 9,2.9583339 9,4 v 2.5 a 0.50005,0.50005 0 0 0 0.00195,0.033203 c 0.089207,1.3188189 1.1460249,2.3756365 2.4648439,2.4648438 a 0.5,0.5 0 0 0 0.53125,-0.4648438 0.5,0.5 0 0 0 -0.464844,-0.53125 C 10.707443,7.9460972 10.058091,7.2958022 10,6.4707031 V 4 C 10,2.7083338 9.4976222,1.6769226 8.7382813,1.0019531 7.9789403,0.32698368 6.9861111,0 6,0 Z M 4.515625,10.007813 a 0.5,0.5 0 0 0 -0.4082031,0.576171 c 0.085659,0.500248 0.4233608,0.825135 0.7382812,1.048829 0.6892522,0.49057 1.6193416,0.49057 2.3085938,0 0.3131929,-0.22371 0.6525903,-0.548394 0.7382812,-1.048829 A 0.5,0.5 0 0 0 7.484375,10.007813 0.5,0.5 0 0 0 6.90625,10.416016 c -0.014309,0.08356 -0.1412242,0.266053 -0.3320313,0.402343 -0.3451249,0.245641 -0.8033125,0.245641 -1.1484375,0 a 0.50005,0.50005 0 0 0 0,-0.002 C 5.2367017,10.6821 5.1080911,10.499768 5.09375,10.416016 A 0.5,0.5 0 0 0 4.515625,10.007813 Z"
     id="path2" />
</svg>
