<?xml version="1.0" encoding="UTF-8" standalone="no"?>
<svg
   width="16"
   height="16"
   fill="none"
   viewBox="0 0 16 16"
   version="1.1"
   id="svg1"
   xmlns="http://www.w3.org/2000/svg"
   xmlns:svg="http://www.w3.org/2000/svg">
  <defs
     id="defs1" />
  <path
     style="fill:currentColor;stroke-linecap:square;stroke-miterlimit:10"
     d="m 8,2 v 1 h 0.5 2.558594 l 0.25,2 H 4.0898437 L 3.6777344,7.0644531 C 3.6139023,7.0613147 3.5638419,7 3.5,7 2.6388889,7 1.7710597,7.285317 1.1054687,7.8769531 0.43987779,8.4685893 0,9.3750004 0,10.5 0,11.625 0.43987779,12.531411 1.1054687,13.123047 1.7710597,13.714683 2.6388889,14 3.5,14 4.3611111,14 5.2289403,13.714683 5.8945312,13.123047 6.5601222,12.531411 7,11.625 7,10.5 7,9.3750004 6.5601222,8.4685893 5.8945312,7.8769531 5.5421362,7.5637132 5.0617569,7.5565615 4.6269531,7.4121094 L 4.9101562,6 h 6.5234378 l 0.166015,1.3300781 c -0.522037,0.135554 -1.078854,0.1777317 -1.49414,0.546875 C 9.4398778,8.4685893 9,9.3750004 9,10.5 9,11.625 9.4398778,12.531411 10.105469,13.123047 10.77106,13.714683 11.638889,14 12.5,14 13.361111,14 14.22894,13.714683 14.894531,13.123047 15.560122,12.531411 16,11.625 16,10.5 16,9.3750004 15.560122,8.4685893 14.894531,7.8769531 14.248452,7.3026609 13.406396,7.0416097 12.570313,7.0253906 L 11.941406,2 H 8.5 Z M 3,3 V 4 H 3.5 5.5 6 V 3 h -0.5 -2 z m 0.4902344,5.0039063 -0.4804688,2.3984377 -0.097656,0.490234 0.9804687,0.195313 0.097656,-0.490235 0.4511718,-2.2578122 C 4.7068427,8.4436609 5.0210623,8.4369078 5.2304687,8.6230469 5.6898778,9.0314103 6,9.6250005 6,10.5 6,11.375 5.6898778,11.96859 5.2304687,12.376953 4.7710597,12.785317 4.1388889,13 3.5,13 2.8611111,13 2.2289403,12.785317 1.7695312,12.376953 1.3101222,11.96859 1,11.375 1,10.5 1,9.6250005 1.3101222,9.0314103 1.7695312,8.6230469 2.2263147,8.2170173 2.8550803,8.0063529 3.4902344,8.0039063 Z m 9.2109376,0.068359 c 0.561246,0.043971 1.123281,0.1898788 1.529297,0.5507813 C 14.689878,9.0314103 15,9.6250005 15,10.5 15,11.375 14.689878,11.96859 14.230469,12.376953 13.77106,12.785317 13.138889,13 12.5,13 11.861111,13 11.22894,12.785317 10.769531,12.376953 10.310122,11.96859 10,11.375 10,10.5 10,9.6250005 10.310122,9.0314103 10.769531,8.6230469 11.021535,8.3990435 11.390227,8.3854105 11.71875,8.28125 l 0.285156,2.28125 0.0625,0.496094 0.992188,-0.125 -0.0625,-0.496094 z"
     id="path1" />
</svg>
