<?xml version="1.0" encoding="UTF-8" standalone="no"?>
<svg
   width="24"
   height="24"
   fill="none"
   viewBox="0 0 24 24"
   version="1.1"
   id="svg1"
   xmlns="http://www.w3.org/2000/svg"
   xmlns:svg="http://www.w3.org/2000/svg">
  <defs
     id="defs1" />
  <path
     style="fill:currentColor;stroke-linecap:square;stroke-miterlimit:10"
     d="m 7,2 v 1 h 0.5 3 0.5 V 2 h -0.5 -3 z m 6,0 v 1 h 0.5 3 0.5 V 2 h -0.5 -3 z M 5.1289062,5 2,15.425781 V 19.5 20 H 3 V 19.5 15.574219 L 5.8710937,6 H 10 v 4 H 7.5 7 v 1 H 7.5 10 v 8.5 0.5 h 1 V 19.5 11 h 2 v 8.5 0.5 h 1 V 19.5 11 H 16.5 17 V 10 H 16.5 14 V 6 h 4.128906 L 21,15.574219 V 19.5 20 h 1 V 19.5 15.425781 L 18.871094,5 H 13 v 5 H 11 V 5 Z M 1,21 v 1 h 0.5 9 0.5 v -1 h -0.5 -9 z m 12,0 v 1 h 0.5 9 0.5 v -1 h -0.5 -9 z"
     id="path1" />
</svg>
