<?xml version="1.0" encoding="UTF-8" standalone="no"?>
<svg
   width="16"
   height="16"
   fill="none"
   viewBox="0 0 16 16"
   version="1.1"
   id="svg1"
   xmlns="http://www.w3.org/2000/svg"
   xmlns:svg="http://www.w3.org/2000/svg">
  <defs
     id="defs1" />
  <path
     style="fill:currentColor;stroke-linecap:square;stroke-miterlimit:10"
     d="M 6.5,1 C 5.5618298,1 4.7476449,1.5266137 4.3222656,2.2890625 L 4.3417969,2.2558594 0.7109375,7.7226562 0.43554688,8.140625 0.4375,8.1425781 C 0.17435635,8.6797711 0,9.289471 0,10 0,11.291666 0.50237779,12.323077 1.2617187,12.998047 2.0210597,13.673016 3.0138889,14 4,14 4.9861111,14 5.9789403,13.673016 6.7382812,12.998047 7.4976222,12.323077 8,11.291666 8,10 8,8.7083338 7.4976222,7.6769226 6.7382812,7.0019531 5.9789403,6.3269837 4.9861111,6 4,6 3.6392981,6 3.2863163,6.0932258 2.9355469,6.1816406 l 2.25,-3.3886718 0.00977,-0.015625 C 5.4536475,2.3143047 5.933032,2.0006908 6.4980469,2 c 0.431563,9.561e-4 0.8414985,0.1885499 1.1230468,0.515625 l 0.3769532,0.4375 0.3789062,-0.4335937 C 8.6558804,2.2003229 9.0476107,2.0005701 9.4980469,2 10.042055,2.001517 10.540694,2.2966962 10.802734,2.7734375 l 0.0098,0.019531 2.25,3.3886718 C 12.712317,6.0935428 12.360059,6 12,6 11.013889,6 10.02106,6.3269837 9.2617188,7.0019531 8.5023778,7.6769226 8,8.7083338 8,10 8,11.291666 8.5023778,12.323077 9.2617188,12.998047 10.02106,13.673016 11.013889,14 12,14 12.986111,14 13.97894,13.673016 14.738281,12.998047 15.497622,12.323077 16,11.291666 16,10 16,9.289471 15.825644,8.6797711 15.5625,8.1425781 l 0.002,-0.00195 -0.27539,-0.4179688 -3.63086,-5.4667968 0.02149,0.037109 C 11.243258,1.4989527 10.408003,1.0025266 9.5019531,1 H 9.5 C 8.8998567,1 8.4284726,1.3363066 8,1.6894531 7.5608543,1.3302255 7.0777721,1.0012757 6.5019531,1 Z M 4,7 C 4.7638889,7 5.5210597,7.2563502 6.0742187,7.7480469 6.6273778,8.2397436 7,8.9583339 7,10 7,11.041666 6.6273778,11.760256 6.0742187,12.251953 5.5210597,12.74365 4.7638889,13 4,13 3.2361111,13 2.4789403,12.74365 1.9257812,12.251953 1.3726222,11.760256 1,11.041666 1,10 1,9.485342 1.0931632,9.051959 1.2519531,8.6835938 l 0.015625,0.00977 0.2773438,-0.4160156 0.046875,-0.072266 C 1.7040961,8.0533023 1.7882068,7.8703352 1.9257812,7.7480469 2.4789403,7.2563502 3.2361111,7 4,7 Z m 8,0 c 0.763889,0 1.52106,0.2563502 2.074219,0.7480469 0.137574,0.1222883 0.221685,0.3052554 0.333984,0.4570312 l 0.04687,0.072266 0.277344,0.4160156 0.01563,-0.00977 C 14.906837,9.051959 15,9.485342 15,10 15,11.041666 14.627378,11.760256 14.074219,12.251953 13.52106,12.74365 12.763889,13 12,13 11.236111,13 10.47894,12.74365 9.9257813,12.251953 9.3726222,11.760256 9,11.041666 9,10 9,8.9583339 9.3726222,8.2397436 9.9257813,7.7480469 10.47894,7.2563502 11.236111,7 12,7 Z"
     id="path1" />
</svg>
