<?xml version="1.0" encoding="UTF-8" standalone="no"?>
<svg
   width="24"
   height="24"
   fill="none"
   viewBox="0 0 24 24"
   version="1.1"
   id="svg1"
   xmlns="http://www.w3.org/2000/svg"
   xmlns:svg="http://www.w3.org/2000/svg">
  <defs
     id="defs1" />
  <path
     style="fill:currentColor;stroke-linecap:square;stroke-miterlimit:10"
     d="M 7.25,1.953125 2.5,4.3300781 2.2773438,4.2167969 2.1914063,4.3886719 H 2 V 4.5800781 L 1.8300781,4.6640625 1.9414062,4.8867187 1.8300781,5.1113281 2,5.1972656 V 11.373047 L 6.5800781,13.662109 6.75,13.746094 v 0.191406 5.984375 l 4.75,2.375 v 0.191406 h 0.191406 l 0.08594,0.169922 L 12,22.546875 l 0.222656,0.111328 0.08594,-0.169922 H 12.5 v -0.191406 l 4.75,-2.375 V 13.9375 13.746094 L 17.419922,13.660156 22,11.373047 V 5.1972656 L 22.169922,5.1113281 22.058594,4.8867187 22.169922,4.6640625 22,4.5800781 V 4.3886719 H 21.808594 L 21.722656,4.2167969 21.5,4.3300781 16.75,1.953125 12.222656,4.21875 v -0.00195 l -0.21875,0.1113281 h -0.002 l -0.224609,-0.1132813 -0.002,0.00391 z m 0,1.1191406 3.632813,1.8164063 L 7.25,6.7050781 3.6171875,4.8886719 Z m 9.5,0 3.632812,1.8164063 -3.628906,1.8144531 -3.632812,-1.8164063 z m -4.25,2.6230469 3.75,1.875 v 5.0585935 l -3.75,-1.875 z m -9.5,0.00195 3.75,1.875 V 12.628906 L 3,10.753906 Z m 8.5,0 v 5.0566404 l -3.75,1.875 V 7.5722656 Z m 9.5,0 v 5.0566404 l -3.75,1.875 V 7.5722656 Z M 12,11.621094 15.632813,13.4375 12,15.253906 8.3671875,13.4375 Z m -4.25,2.625 3.75,1.875 v 5.058593 l -3.75,-1.875 z m 8.5,0 v 5.058593 l -3.75,1.875 v -5.058593 z"
     id="path1" />
</svg>
