<?xml version="1.0" encoding="UTF-8" standalone="no"?>
<svg
   width="16"
   height="16"
   fill="none"
   viewBox="0 0 16 16"
   version="1.1"
   id="svg1"
   xmlns="http://www.w3.org/2000/svg"
   xmlns:svg="http://www.w3.org/2000/svg">
  <defs
     id="defs1" />
  <path
     style="fill:currentColor;stroke-linecap:round"
     d="M 8,0.4609375 1.6992187,4.0957031 a 0.46650001,0.46650001 0 0 0 -0.039063,0.050781 0.46650001,0.46650001 0 0 0 -0.082031,0.082031 0.46650001,0.46650001 0 0 0 -0.048828,0.039063 0.46650001,0.46650001 0 0 0 -0.00781,0.060547 0.46650001,0.46650001 0 0 0 -0.03125,0.1132812 A 0.46650001,0.46650001 0 0 0 1.4667969,4.5 v 7.269531 l 6.3007812,3.634766 a 0.46650001,0.46650001 0 0 0 0.060547,0.0078 0.46650001,0.46650001 0 0 0 0.1132812,0.03125 A 0.46650001,0.46650001 0 0 0 8,15.466797 a 0.46650001,0.46650001 0 0 0 0.058594,-0.02344 0.46650001,0.46650001 0 0 0 0.1132812,-0.03125 0.46650001,0.46650001 0 0 0 0.060547,-0.0078 L 14.533203,11.769531 V 4.5 a 0.46650001,0.46650001 0 0 0 -0.05664,-0.2089844 0.46650001,0.46650001 0 0 0 -0.0059,-0.023437 0.46650001,0.46650001 0 0 0 -0.02734,-0.027344 A 0.46650001,0.46650001 0 0 0 14.330078,4.125 0.46650001,0.46650001 0 0 0 14.300781,4.0957031 Z M 8,1.5390625 13.132813,4.5 8,7.4609375 2.8671875,4.5 Z M 2.4003906,5.3085937 7.5332031,8.2695313 V 14.191406 L 2.4003906,11.230469 Z m 11.1992184,0 V 11.230469 L 8.4667969,14.191406 V 8.2695313 Z"
     id="path1" />
</svg>
