<?xml version="1.0" encoding="UTF-8" standalone="no"?>
<svg
   width="16"
   height="16"
   fill="none"
   viewBox="0 0 16 16"
   version="1.1"
   id="svg1"
   xmlns="http://www.w3.org/2000/svg"
   xmlns:svg="http://www.w3.org/2000/svg">
  <defs
     id="defs1" />
  <path
     style="fill:currentColor;stroke-linecap:round;stroke-linejoin:round"
     d="M 4.2773437,0.05273437 0.27734375,2.0527344 a 0.5,0.5 0 0 0 -0.0546875,0.0625 A 0.5,0.5 0 0 0 0.1015625,2.2539063 0.5,0.5 0 0 0 0.09375,2.2636719 0.5,0.5 0 0 0 0.05273437,2.2773438 0.5,0.5 0 0 0 0.05078125,2.3125 0.5,0.5 0 0 0 0.03125,2.4238281 0.5,0.5 0 0 0 0,2.5 v 5 a 0.50005,0.50005 0 0 0 0.27734375,0.4472656 l 3.99999995,2 A 0.5,0.5 0 0 0 4.3125,9.9492188 0.5,0.5 0 0 0 4.4238281,9.96875 0.5,0.5 0 0 0 4.5,10 0.5,0.5 0 0 0 4.5761719,9.96875 0.5,0.5 0 0 0 4.6875,9.9492188 a 0.5,0.5 0 0 0 0.035156,-0.00195 l 1,-0.5 A 0.5,0.5 0 0 0 5.9472656,8.7773438 0.5,0.5 0 0 0 5.2773437,8.5527344 L 5,8.6914063 V 4.8085937 L 8,3.3085938 V 6 A 0.5,0.5 0 0 0 8.5,6.5 0.5,0.5 0 0 0 9,6 V 2.5292969 2.5 a 0.5,0.5 0 0 0 -0.00391,-0.015625 0.5,0.5 0 0 0 -0.00977,-0.054687 0.5,0.5 0 0 0 -0.037109,-0.140625 0.5,0.5 0 0 0 -0.00195,-0.011719 0.5,0.5 0 0 0 -0.00781,-0.00195 0.5,0.5 0 0 0 -0.00977,-0.015625 A 0.5,0.5 0 0 0 8.8886719,2.1992188 0.5,0.5 0 0 0 8.75,2.0761719 0.5,0.5 0 0 0 8.7226563,2.0527344 L 8.6914063,2.0371094 4.7226562,0.05273437 a 0.50005,0.50005 0 0 0 -0.4453125,0 z M 4.5,1.0585937 7.3828125,2.5 4.5,3.9414063 1.6171875,2.5 Z M 1,3.3085938 4,4.8085937 V 8.6914063 L 1,7.1914062 Z m 10.277344,2.7441406 -4.0000003,2 a 0.5,0.5 0 0 0 -0.013672,0.041016 0.5,0.5 0 0 0 -0.00977,0.00781 0.5,0.5 0 0 0 -0.1386718,0.1210938 0.5,0.5 0 0 0 -0.0625,0.054687 0.5,0.5 0 0 0 0.017578,0.052734 A 0.5,0.5 0 0 0 7,8.5 v 5 a 0.50005,0.50005 0 0 0 0.2773437,0.447266 l 4.0000003,2 a 0.5,0.5 0 0 0 0.03516,0.002 0.5,0.5 0 0 0 0.111328,0.01953 A 0.5,0.5 0 0 0 11.5,16 a 0.5,0.5 0 0 0 0.07617,-0.03125 0.5,0.5 0 0 0 0.111328,-0.01953 0.5,0.5 0 0 0 0.03516,-0.002 l 4,-2 A 0.50005,0.50005 0 0 0 16,13.5 v -5 a 0.5,0.5 0 0 0 -0.0039,-0.019531 0.5,0.5 0 0 0 -0.01172,-0.066406 0.5,0.5 0 0 0 -0.002,-0.00586 0.5,0.5 0 0 0 -0.01563,-0.080078 0.5,0.5 0 0 0 -0.01563,-0.037109 0.5,0.5 0 0 0 -0.0039,-0.013672 0.5,0.5 0 0 0 -0.01367,-0.011719 0.5,0.5 0 0 0 -0.01953,-0.03125 0.5,0.5 0 0 0 -0.05078,-0.072266 0.5,0.5 0 0 0 -0.08398,-0.066406 0.5,0.5 0 0 0 -0.05664,-0.042969 l -0.03125,-0.015625 -3.96875,-1.984375 a 0.50005,0.50005 0 0 0 -0.445312,0 z M 11.5,7.0585937 14.382813,8.5 11.5,9.9414063 8.6171875,8.5 Z M 8,9.3085938 11,10.808594 v 3.882812 l -3,-1.5 z m 7,0 v 3.8828122 l -3,1.5 v -3.882812 z"
     id="path1" />
</svg>
