<?xml version="1.0" encoding="UTF-8" standalone="no"?>
<svg
   width="24"
   height="24"
   fill="none"
   viewBox="0 0 24 24"
   version="1.1"
   id="svg3"
   xmlns="http://www.w3.org/2000/svg"
   xmlns:svg="http://www.w3.org/2000/svg">
  <defs
     id="defs3" />
  <path
     style="fill:currentColor;stroke-linecap:round;stroke-linejoin:round"
     d="M 3.5,1 C 2.1252104,1 1,2.1252104 1,3.5 v 17 C 1,21.87479 2.1252104,23 3.5,23 h 17 C 21.87479,23 23,21.87479 23,20.5 V 3.5 C 23,2.1252104 21.87479,1 20.5,1 Z m 0,1 h 17 C 21.334349,2 22,2.6656506 22,3.5 v 17 C 22,21.334349 21.334349,22 20.5,22 H 3.5 C 2.6656506,22 2,21.334349 2,20.5 V 3.5 C 2,2.6656506 2.6656506,2 3.5,2 Z"
     id="path1" />
  <path
     style="fill:currentColor;stroke-linecap:square;stroke-miterlimit:10"
     d="M 16,7.2929687 15.646484,7.6464844 12,11.292969 V 22.5 23 h 1 V 22.5 11.707031 L 16.353516,8.3535156 16.707031,8 Z M 6,8 v 0.5 3.152344 l 2,3 V 22.5 23 h 1 v -0.5 -8.152344 l -2,-3 V 8.5 8 Z m 11,9 v 0.5 2.792969 L 15.646484,21.646484 15.292969,22 16,22.707031 16.353516,22.353516 18,20.707031 V 17.5 17 Z"
     id="path2" />
  <path
     style="fill:currentColor;stroke-linecap:square;stroke-miterlimit:10"
     d="M 6.5,4 C 5.7083336,4 5.0519227,4.3148778 4.6269531,4.7929687 4.2019836,5.2710597 4,5.8888889 4,6.5 4,7.1111111 4.2019836,7.7289403 4.6269531,8.2070313 5.0519227,8.6851222 5.7083336,9 6.5,9 7.2916664,9 7.9480773,8.6851222 8.3730469,8.2070313 8.7980164,7.7289403 9,7.1111111 9,6.5 9,5.8888889 8.7980164,5.2710597 8.3730469,4.7929687 7.9480773,4.3148778 7.2916664,4 6.5,4 Z m 11,0 C 16.708334,4 16.051923,4.3148778 15.626953,4.7929687 15.201984,5.2710597 15,5.8888889 15,6.5 15,7.1111111 15.201984,7.7289403 15.626953,8.2070313 16.051923,8.6851222 16.708334,9 17.5,9 18.291666,9 18.948077,8.6851222 19.373047,8.2070313 19.798016,7.7289403 20,7.1111111 20,6.5 20,5.8888889 19.798016,5.2710597 19.373047,4.7929687 18.948077,4.3148778 18.291666,4 17.5,4 Z M 6.5,5 C 7.0416663,5 7.3852563,5.1851222 7.6269531,5.4570312 7.8686499,5.7289403 8,6.1111111 8,6.5 8,6.8888889 7.8686499,7.2710597 7.6269531,7.5429687 7.3852563,7.8148778 7.0416663,8 6.5,8 5.9583337,8 5.6147437,7.8148778 5.3730469,7.5429687 5.1313501,7.2710597 5,6.8888889 5,6.5 5,6.1111111 5.1313501,5.7289403 5.3730469,5.4570312 5.6147437,5.1851222 5.9583337,5 6.5,5 Z m 11,0 c 0.541666,0 0.885256,0.1851222 1.126953,0.4570312 C 18.86865,5.7289403 19,6.1111111 19,6.5 19,6.8888889 18.86865,7.2710597 18.626953,7.5429687 18.385256,7.8148778 18.041666,8 17.5,8 16.958334,8 16.614744,7.8148778 16.373047,7.5429687 16.13135,7.2710597 16,6.8888889 16,6.5 16,6.1111111 16.13135,5.7289403 16.373047,5.4570312 16.614744,5.1851222 16.958334,5 17.5,5 Z m 0,8 c -0.791666,0 -1.448077,0.314878 -1.873047,0.792969 C 15.201984,14.27106 15,14.888889 15,15.5 c 0,0.611111 0.201984,1.22894 0.626953,1.707031 C 16.051923,17.685122 16.708334,18 17.5,18 18.291666,18 18.948077,17.685122 19.373047,17.207031 19.798016,16.72894 20,16.111111 20,15.5 20,14.888889 19.798016,14.27106 19.373047,13.792969 18.948077,13.314878 18.291666,13 17.5,13 Z m 0,1 c 0.541666,0 0.885256,0.185122 1.126953,0.457031 C 18.86865,14.72894 19,15.111111 19,15.5 19,15.888889 18.86865,16.27106 18.626953,16.542969 18.385256,16.814878 18.041666,17 17.5,17 16.958334,17 16.614744,16.814878 16.373047,16.542969 16.13135,16.27106 16,15.888889 16,15.5 16,15.111111 16.13135,14.72894 16.373047,14.457031 16.614744,14.185122 16.958334,14 17.5,14 Z"
     id="path3" />
</svg>
