<?xml version="1.0" encoding="UTF-8" standalone="no"?>
<svg
   width="16"
   height="16"
   fill="none"
   viewBox="0 0 16 16"
   version="1.1"
   id="svg1"
   xmlns="http://www.w3.org/2000/svg"
   xmlns:svg="http://www.w3.org/2000/svg">
  <defs
     id="defs1" />
  <path
     style="fill:currentColor;stroke-linecap:round;stroke-linejoin:round"
     d="M 4.25,1 C 3.1424736,1 2.1351024,1.2329596 1.3632812,1.6445312 0.5914601,2.0561029 0,2.6942572 0,3.5 v 11 H 1 C 1,14.200743 1.2485555,13.839522 1.8339844,13.527344 2.4194132,13.215165 3.2865264,13 4.25,13 5.2134736,13 6.0805868,13.215165 6.6660156,13.527344 7.2514445,13.839522 7.5,14.200743 7.5,14.5 a 0.50005,0.50005 0 0 0 1,0 C 8.5,14.200743 8.7485555,13.839522 9.3339844,13.527344 9.9194132,13.215165 10.786526,13 11.75,13 c 0.963474,0 1.830587,0.215165 2.416016,0.527344 C 14.751444,13.839522 15,14.200743 15,14.5 a 0.50005,0.50005 0 0 0 1,0 V 3.5 C 16,2.6942572 15.40854,2.0561029 14.636719,1.6445312 13.864898,1.2329596 12.857526,1 11.75,1 10.642474,1 9.6351024,1.2329596 8.8632813,1.6445312 8.5200183,1.8275753 8.2357115,2.0703797 8,2.3378906 7.7642885,2.0703797 7.4799817,1.8275753 7.1367187,1.6445312 6.3648976,1.2329596 5.3575264,1 4.25,1 Z m 0,1 C 5.2134736,2 6.0805868,2.2151654 6.6660156,2.5273438 7.2514445,2.8395221 7.5,3.2007428 7.5,3.5 a 0.50005,0.50005 0 0 0 1,0 C 8.5,3.2007428 8.7485555,2.8395221 9.3339844,2.5273438 9.9194132,2.2151654 10.786526,2 11.75,2 12.713474,2 13.580587,2.2151654 14.166016,2.5273438 14.751444,2.8395221 15,3.2007428 15,3.5 v 9.435547 C 14.871003,12.843137 14.781021,12.72148 14.636719,12.644531 13.864898,12.23296 12.857526,12 11.75,12 10.642474,12 9.6351024,12.23296 8.8632813,12.644531 8.5200183,12.827575 8.2357115,13.07038 8,13.337891 7.7642885,13.07038 7.4799817,12.827575 7.1367187,12.644531 6.3648976,12.23296 5.3575264,12 4.25,12 3.1424736,12 2.1351024,12.23296 1.3632812,12.644531 1.2189788,12.72148 1.1289969,12.843137 1,12.935547 V 3.5 C 1,3.2007428 1.2485555,2.8395221 1.8339844,2.5273438 2.4194132,2.2151654 3.2865264,2 4.25,2 Z"
     id="path1" />
</svg>
