<?xml version="1.0" encoding="UTF-8" standalone="no"?>
<svg
   width="24"
   height="24"
   fill="none"
   viewBox="0 0 24 24"
   version="1.1"
   id="svg1"
   xmlns="http://www.w3.org/2000/svg"
   xmlns:svg="http://www.w3.org/2000/svg">
  <defs
     id="defs1" />
  <path
     style="fill:currentColor;stroke-linecap:round;stroke-linejoin:round"
     d="M 7,2 C 5.4277778,2 3.9829938,2.333677 2.8886719,2.921875 1.79435,3.510073 1,4.404902 1,5.5 v 17 H 2 C 2,21.895098 2.45565,21.289536 3.3613281,20.802734 4.2670062,20.315932 5.5722222,20 7,20 8.4277778,20 9.7329938,20.315932 10.638672,20.802734 11.54435,21.289536 12,21.895098 12,22.5 h 1 c 0,-0.604902 0.45565,-1.210464 1.361328,-1.697266 C 15.267006,20.315932 16.572222,20 18,20 c 1.427778,0 2.732994,0.315932 3.638672,0.802734 C 22.54435,21.289536 23,21.895098 23,22.5 h 1 V 5.5 C 24,4.404902 23.20565,3.510073 22.111328,2.921875 21.017006,2.333677 19.572222,2 18,2 16.427778,2 14.982994,2.333677 13.888672,2.921875 13.347629,3.2126854 12.883376,3.5819561 12.548828,4.0097656 A 0.5,0.5 0 0 0 12.5,4 0.5,0.5 0 0 0 12.460938,4.015625 C 12.125957,3.5842045 11.655905,3.2145853 11.111328,2.921875 10.017006,2.333677 8.5722222,2 7,2 Z M 7,3 C 8.4277778,3 9.7329938,3.3159324 10.638672,3.8027344 11.54435,4.2895363 12,4.895098 12,5.5 V 20.642578 C 11.723234,20.387676 11.470014,20.114668 11.111328,19.921875 10.017006,19.333677 8.5722222,19 7,19 5.4277778,19 3.9829938,19.333677 2.8886719,19.921875 2.5299863,20.114668 2.2767663,20.387676 2,20.642578 V 5.5 C 2,4.895098 2.45565,4.2895363 3.3613281,3.8027344 4.2670062,3.3159324 5.5722222,3 7,3 Z m 11,0 c 1.427778,0 2.732994,0.3159324 3.638672,0.8027344 C 22.54435,4.2895363 23,4.895098 23,5.5 V 20.642578 C 22.723234,20.387676 22.470014,20.114668 22.111328,19.921875 21.017006,19.333677 19.572222,19 18,19 16.427778,19 14.982994,19.333677 13.888672,19.921875 13.529986,20.114668 13.276766,20.387676 13,20.642578 V 5.5 C 13,4.895098 13.45565,4.2895363 14.361328,3.8027344 15.267006,3.3159324 16.572222,3 18,3 Z"
     id="path1" />
</svg>
