<?xml version="1.0" encoding="UTF-8" standalone="no"?>
<svg
   width="24"
   height="24"
   fill="none"
   viewBox="0 0 24 24"
   version="1.1"
   id="svg3"
   xmlns="http://www.w3.org/2000/svg"
   xmlns:svg="http://www.w3.org/2000/svg">
  <defs
     id="defs3" />
  <path
     style="fill:currentColor;stroke-linecap:round;stroke-linejoin:round"
     d="M 7.5,1 A 0.5,0.5 0 0 0 7,1.5 v 8 A 0.50005,0.50005 0 0 0 7.7773437,9.9160156 L 10.5,8.1015625 13.222656,9.9160156 A 0.50005,0.50005 0 0 0 14,9.5 v -8 A 0.5,0.5 0 0 0 13.5,1 0.5,0.5 0 0 0 13,1.5 V 8.5664063 L 10.777344,7.0839844 a 0.50005,0.50005 0 0 0 -0.554688,0 L 8,8.5664063 V 1.5 A 0.5,0.5 0 0 0 7.5,1 Z"
     id="path1" />
  <path
     style="fill:currentColor;stroke-linecap:round;stroke-linejoin:round"
     d="M 5.5,1 C 4.1252104,1 3,2.1252104 3,3.5 v 18 a 0.50005,0.50005 0 0 0 1,0 C 4,20.665651 4.6656506,20 5.5,20 h 14 C 20.87479,20 22,18.87479 22,17.5 V 3.5 C 22,2.1252104 20.87479,1 19.5,1 Z m 0,1 h 14 C 20.334349,2 21,2.6656506 21,3.5 v 14 C 21,18.334349 20.334349,19 19.5,19 H 5.5 C 4.9161355,19 4.4267608,19.284223 4,19.623047 V 3.5 C 4,2.6656506 4.6656506,2 5.5,2 Z"
     id="path2" />
  <path
     style="fill:currentColor;stroke-linecap:round;stroke-linejoin:round"
     d="M 21.5,17.007812 A 0.50005,0.50005 0 0 0 21,17.5 C 21,18.334349 20.334349,19 19.5,19 H 5.5 C 4.7083336,19 4.0519227,19.314878 3.6269531,19.792969 3.2019836,20.27106 3,20.888889 3,21.5 3,22.111111 3.2019836,22.72894 3.6269531,23.207031 4.0519227,23.685122 4.7083336,24 5.5,24 h 14 c 1.37479,0 2.5,-1.12521 2.5,-2.5 v -4 A 0.50005,0.50005 0 0 0 21.5,17.007812 Z M 21,19.376953 V 21.5 C 21,22.334349 20.334349,23 19.5,23 H 5.5 C 4.9583337,23 4.6147437,22.814878 4.3730469,22.542969 4.1313501,22.27106 4,21.888889 4,21.5 4,21.111111 4.1313501,20.72894 4.3730469,20.457031 4.6147437,20.185122 4.9583337,20 5.5,20 h 14 c 0.583864,0 1.073239,-0.284223 1.5,-0.623047 z"
     id="path3" />
</svg>
