<?xml version="1.0" encoding="UTF-8" standalone="no"?>
<svg
   width="16"
   height="16"
   fill="none"
   viewBox="0 0 16 16"
   version="1.1"
   id="svg1"
   xmlns="http://www.w3.org/2000/svg"
   xmlns:svg="http://www.w3.org/2000/svg">
  <defs
     id="defs1" />
  <path
     style="fill:currentColor;stroke-linecap:round;stroke-linejoin:round"
     d="M 3.5,0 C 2.1252104,0 1,1.1252104 1,2.5 V 14 a 0.5,0.5 0 0 0 0.1464844,0.353516 C 1.3341335,15.261916 2.0387782,16 3,16 h 10 c 0.961222,0 1.665867,-0.738084 1.853516,-1.646484 C 14.880344,14.223642 15,14.137425 15,14 V 2.5 C 15,1.1252104 13.87479,0 12.5,0 h -3 -5 z m 0,1 H 4 v 6.5 a 0.50005,0.50005 0 0 0 0.8125,0.390625 l 2.1875,-1.75 2.1875,1.75 A 0.50005,0.50005 0 0 0 10,7.5 V 1 h 2.5 C 13.334349,1 14,1.6656506 14,2.5 v 9.916016 C 13.691737,12.221299 13.388967,12 13,12 H 3 C 2.6110329,12 2.3082627,12.221299 2,12.416016 V 2.5 C 2,1.6656506 2.6656506,1 3.5,1 Z M 5,1 H 9 V 6.4589844 L 7.3125,5.109375 a 0.50005,0.50005 0 0 0 -0.625,0 L 5,6.4589844 Z M 3,13 h 10 c 0.558207,0 1,0.441793 1,1 0,0.558207 -0.441793,1 -1,1 H 3 C 2.4417929,15 2,14.558207 2,14 2,13.441793 2.4417929,13 3,13 Z"
     id="path1" />
</svg>
