<?xml version="1.0" encoding="UTF-8" standalone="no"?>
<svg
   width="24"
   height="24"
   fill="none"
   viewBox="0 0 24 24"
   version="1.1"
   id="svg1"
   xmlns="http://www.w3.org/2000/svg"
   xmlns:svg="http://www.w3.org/2000/svg">
  <defs
     id="defs1" />
  <g
     id="path1">
    <path
       style="fill:currentColor;stroke-linecap:round;stroke-linejoin:round"
       d="m 20.5,22.5 -8.5,-5 -8.5,5 v -19 a 2,2 0 0 1 2,-2 h 13 a 2,2 0 0 1 2,2 z"
       id="path2" />
    <path
       style="fill:currentColor;stroke-linecap:round;stroke-linejoin:round"
       d="M 5.5,1 C 4.1252104,1 3,2.1252104 3,3.5 v 19 a 0.50005,0.50005 0 0 0 0.7539063,0.431641 L 12,18.080078 20.246094,22.931641 A 0.50005,0.50005 0 0 0 21,22.5 V 3.5 C 21,2.1252104 19.87479,1 18.5,1 Z m 0,1 h 13 C 19.334349,2 20,2.6656506 20,3.5 v 18.125 l -7.746094,-4.556641 a 0.50005,0.50005 0 0 0 -0.507812,0 L 4,21.625 V 3.5 C 4,2.6656506 4.6656506,2 5.5,2 Z"
       id="path3" />
  </g>
</svg>
