<?xml version="1.0" encoding="UTF-8" standalone="no"?>
<svg
   width="16"
   height="16"
   fill="none"
   viewBox="0 0 16 16"
   version="1.1"
   id="svg1"
   xmlns="http://www.w3.org/2000/svg"
   xmlns:svg="http://www.w3.org/2000/svg">
  <defs
     id="defs1" />
  <g
     id="path1">
    <path
       style="fill:currentColor;stroke-linecap:round;stroke-linejoin:round"
       d="m 2.5,15.5 5.5,-4 5.5,4 V 2 A 1.5,1.5 0 0 0 12,0.5 H 4 A 1.5,1.5 0 0 0 2.5,2 Z"
       id="path2" />
    <path
       style="fill:currentColor;stroke-linecap:round;stroke-linejoin:round"
       d="M 4,0 C 2.9013528,0 2,0.90135282 2,2 v 13.5 a 0.50005,0.50005 0 0 0 0.7949219,0.404297 L 8,12.119141 13.205078,15.904297 A 0.50005,0.50005 0 0 0 14,15.5 V 2 C 14,0.90135282 13.098647,0 12,0 Z m 0,1 h 8 c 0.558207,0 1,0.4417929 1,1 V 14.517578 L 8.2949219,11.095703 a 0.50005,0.50005 0 0 0 -0.5898438,0 L 3,14.517578 V 2 C 3,1.4417929 3.4417929,1 4,1 Z"
       id="path3" />
  </g>
</svg>
