<?xml version="1.0" encoding="UTF-8" standalone="no"?>
<svg
   width="24"
   height="24"
   fill="none"
   viewBox="0 0 24 24"
   version="1.1"
   id="svg3"
   xmlns="http://www.w3.org/2000/svg"
   xmlns:svg="http://www.w3.org/2000/svg">
  <defs
     id="defs3" />
  <path
     style="fill:currentColor;stroke-linecap:round;stroke-linejoin:round"
     d="M 8.5,6 A 0.50005,0.50005 0 0 0 8,6.5 v 5 A 0.50005,0.50005 0 0 0 8.5,12 h 8 A 0.50005,0.50005 0 0 0 17,11.5 v -5 A 0.50005,0.50005 0 0 0 16.5,6 Z M 9,7 h 7 v 4 H 9 Z"
     id="path1" />
  <path
     style="fill:currentColor;stroke-linecap:round;stroke-linejoin:round"
     d="M 5.5,1 C 4.1252104,1 3,2.1252104 3,3.5 V 21 A 0.5,0.5 0 0 0 3.5,21.5 0.5,0.5 0 0 0 4,21 V 3.5 C 4,2.6656506 4.6656506,2 5.5,2 H 21 V 18.5 A 0.5,0.5 0 0 0 21.5,19 0.5,0.5 0 0 0 22,18.5 V 1.5 A 0.50005,0.50005 0 0 0 21.5,1 Z"
     id="path2" />
  <path
     style="fill:currentColor;stroke-linecap:round;stroke-linejoin:round"
     d="M 6,18 C 5.041667,18 4.260256,18.377378 3.7519531,18.949219 3.2436503,19.52106 3,20.263889 3,21 3,21.736111 3.2436503,22.47894 3.7519531,23.050781 4.260256,23.622622 5.041667,24 6,24 H 21.5 A 0.50005,0.50005 0 0 0 22,23.5 v -5 A 0.50005,0.50005 0 0 0 21.5,18 Z m 0,1 h 15 v 4 H 6 C 5.2916671,23 4.823077,22.752378 4.4980469,22.386719 4.1730168,22.02106 4,21.513889 4,21 4,20.486111 4.1730168,19.97894 4.4980469,19.613281 4.823077,19.247622 5.2916671,19 6,19 Z"
     id="path3" />
</svg>
