<?xml version="1.0" encoding="UTF-8" standalone="no"?>
<svg
   width="24"
   height="24"
   fill="none"
   viewBox="0 0 24 24"
   version="1.1"
   id="svg2"
   xmlns="http://www.w3.org/2000/svg"
   xmlns:svg="http://www.w3.org/2000/svg">
  <defs
     id="defs2" />
  <path
     style="fill:currentColor;stroke-linecap:round;stroke-linejoin:round"
     d="M 1.5,2 A 0.50005,0.50005 0 0 0 1,2.5 v 5 A 0.50005,0.50005 0 0 0 1.5,8 h 21 A 0.50005,0.50005 0 0 0 23,7.5 v -5 A 0.50005,0.50005 0 0 0 22.5,2 Z M 2,3 H 22 V 7 H 2 Z m 0.5,7 A 0.5,0.5 0 0 0 2,10.5 v 11 A 0.50005,0.50005 0 0 0 2.5,22 h 19 A 0.50005,0.50005 0 0 0 22,21.5 v -11 A 0.5,0.5 0 0 0 21.5,10 0.5,0.5 0 0 0 21,10.5 V 21 H 3 V 10.5 A 0.5,0.5 0 0 0 2.5,10 Z"
     id="path1" />
  <path
     style="fill:currentColor;stroke-linecap:round;stroke-linejoin:round"
     d="M 8.5,11 A 0.50005,0.50005 0 0 0 8,11.5 v 4 A 0.50005,0.50005 0 0 0 8.5,16 h 7 A 0.50005,0.50005 0 0 0 16,15.5 v -4 A 0.50005,0.50005 0 0 0 15.5,11 Z M 9,12 h 6 v 3 H 9 Z"
     id="path2" />
</svg>
