<?xml version="1.0" encoding="UTF-8" standalone="no"?>
<svg
   width="16"
   height="16"
   fill="none"
   viewBox="0 0 16 16"
   version="1.1"
   id="svg1"
   xmlns="http://www.w3.org/2000/svg"
   xmlns:svg="http://www.w3.org/2000/svg">
  <defs
     id="defs1" />
  <path
     style="fill:currentColor;stroke-linecap:round;stroke-linejoin:round"
     d="M 0.5,1 A 0.50005,0.50005 0 0 0 0,1.5 v 3 A 0.50005,0.50005 0 0 0 0.5,5 h 15 A 0.50005,0.50005 0 0 0 16,4.5 v -3 A 0.50005,0.50005 0 0 0 15.5,1 Z M 1,2 H 15 V 4 H 1 Z M 1.5,6 A 0.5,0.5 0 0 0 1,6.5 v 8 A 0.50005,0.50005 0 0 0 1.5,15 h 13 A 0.50005,0.50005 0 0 0 15,14.5 v -8 A 0.5,0.5 0 0 0 14.5,6 0.5,0.5 0 0 0 14,6.5 V 14 H 2 V 6.5 A 0.5,0.5 0 0 0 1.5,6 Z m 4,1 A 0.50005,0.50005 0 0 0 5,7.5 v 3 A 0.50005,0.50005 0 0 0 5.5,11 h 5 A 0.50005,0.50005 0 0 0 11,10.5 v -3 A 0.50005,0.50005 0 0 0 10.5,7 Z M 6,8 h 4 v 2 H 6 Z"
     id="path1" />
</svg>
