<?xml version="1.0" encoding="UTF-8" standalone="no"?>
<svg
   width="24"
   height="24"
   fill="none"
   viewBox="0 0 24 24"
   version="1.1"
   id="svg1"
   xmlns="http://www.w3.org/2000/svg"
   xmlns:svg="http://www.w3.org/2000/svg">
  <defs
     id="defs1" />
  <path
     style="fill:currentColor"
     d="M 6.5,1 C 5.541667,1 4.760256,1.3773778 4.2519531,1.9492187 3.7436503,2.5210597 3.5,3.2638889 3.5,4 3.5,4.7361111 3.7436503,5.4789403 4.2519531,6.0507812 4.760256,6.6226222 5.541667,7 6.5,7 7.458333,7 8.239744,6.6226222 8.7480469,6.0507812 9.2563497,5.4789403 9.5,4.7361111 9.5,4 9.5,3.2638889 9.2563497,2.5210597 8.7480469,1.9492187 8.239744,1.3773778 7.458333,1 6.5,1 Z m 12,0 C 17.541667,1 16.760256,1.3773778 16.251953,1.9492187 15.74365,2.5210597 15.5,3.2638889 15.5,4 c 0,0.7361111 0.24365,1.4789403 0.751953,2.0507812 C 16.760256,6.6226222 17.541667,7 18.5,7 19.458333,7 20.239744,6.6226222 20.748047,6.0507812 21.25635,5.4789403 21.5,4.7361111 21.5,4 21.5,3.2638889 21.25635,2.5210597 20.748047,1.9492187 20.239744,1.3773778 19.458333,1 18.5,1 Z M 6.5,2 C 7.2083329,2 7.676923,2.2476222 8.0019531,2.6132813 8.3269832,2.9789403 8.5,3.4861111 8.5,4 8.5,4.5138889 8.3269832,5.0210597 8.0019531,5.3867187 7.676923,5.7523778 7.2083329,6 6.5,6 5.7916671,6 5.323077,5.7523778 4.9980469,5.3867187 4.6730168,5.0210597 4.5,4.5138889 4.5,4 4.5,3.4861111 4.6730168,2.9789403 4.9980469,2.6132813 5.323077,2.2476222 5.7916671,2 6.5,2 Z m 12,0 c 0.708333,0 1.176923,0.2476222 1.501953,0.6132813 C 20.326983,2.9789403 20.5,3.4861111 20.5,4 20.5,4.5138889 20.326983,5.0210597 20.001953,5.3867187 19.676923,5.7523778 19.208333,6 18.5,6 17.791667,6 17.323077,5.7523778 16.998047,5.3867187 16.673017,5.0210597 16.5,4.5138889 16.5,4 16.5,3.4861111 16.673017,2.9789403 16.998047,2.6132813 17.323077,2.2476222 17.791667,2 18.5,2 Z m 0,7 C 17.541667,9 16.760256,9.3773778 16.251953,9.9492188 15.74365,10.52106 15.5,11.263889 15.5,12 c 0,0.736111 0.24365,1.47894 0.751953,2.050781 C 16.760256,14.622622 17.541667,15 18.5,15 19.458333,15 20.239744,14.622622 20.748047,14.050781 21.25635,13.47894 21.5,12.736111 21.5,12 21.5,11.263889 21.25635,10.52106 20.748047,9.9492188 20.239744,9.3773778 19.458333,9 18.5,9 Z m -12,1 C 5.8750002,10 5.3435894,10.252378 5.0019531,10.636719 4.6603169,11.02106 4.5,11.513889 4.5,12 c 0,0.486111 0.1603169,0.97894 0.5019531,1.363281 C 5.3435894,13.747622 5.8750002,14 6.5,14 7.1249998,14 7.6564106,13.747622 7.9980469,13.363281 8.3396831,12.97894 8.5,12.486111 8.5,12 8.5,11.513889 8.3396831,11.02106 7.9980469,10.636719 7.6564106,10.252378 7.1249998,10 6.5,10 Z m 12,0 c 0.708333,0 1.176923,0.247622 1.501953,0.613281 C 20.326983,10.97894 20.5,11.486111 20.5,12 c 0,0.513889 -0.173017,1.02106 -0.498047,1.386719 C 19.676923,13.752378 19.208333,14 18.5,14 17.791667,14 17.323077,13.752378 16.998047,13.386719 16.673017,13.02106 16.5,12.513889 16.5,12 c 0,-0.513889 0.173017,-1.02106 0.498047,-1.386719 C 17.323077,10.247622 17.791667,10 18.5,10 Z m -12,1 c 0.3749997,0 0.5935896,0.122622 0.7519531,0.300781 C 7.4103167,11.47894 7.5,11.736111 7.5,12 7.5,12.263889 7.4103167,12.52106 7.2519531,12.699219 7.0935896,12.877378 6.8749997,13 6.5,13 6.1250003,13 5.9064104,12.877378 5.7480469,12.699219 5.5896833,12.52106 5.5,12.263889 5.5,12 5.5,11.736111 5.5896833,11.47894 5.7480469,11.300781 5.9064104,11.122622 6.1250003,11 6.5,11 Z m 0,6.5 C 5.541667,17.5 4.760256,17.877378 4.2519531,18.449219 3.7436503,19.02106 3.5,19.763889 3.5,20.5 c 0,0.736111 0.2436503,1.47894 0.7519531,2.050781 C 4.760256,23.122622 5.541667,23.5 6.5,23.5 7.458333,23.5 8.239744,23.122622 8.7480469,22.550781 9.2563497,21.97894 9.5,21.236111 9.5,20.5 9.5,19.763889 9.2563497,19.02106 8.7480469,18.449219 8.239744,17.877378 7.458333,17.5 6.5,17.5 Z m 0,1 c 0.7083329,0 1.176923,0.247622 1.5019531,0.613281 C 8.3269832,19.47894 8.5,19.986111 8.5,20.5 8.5,21.013889 8.3269832,21.52106 8.0019531,21.886719 7.676923,22.252378 7.2083329,22.5 6.5,22.5 5.7916671,22.5 5.323077,22.252378 4.9980469,21.886719 4.6730168,21.52106 4.5,21.013889 4.5,20.5 4.5,19.986111 4.6730168,19.47894 4.9980469,19.113281 5.323077,18.747622 5.7916671,18.5 6.5,18.5 Z m 12,0 c -0.625,0 -1.156411,0.252378 -1.498047,0.636719 C 16.660317,19.52106 16.5,20.013889 16.5,20.5 c 0,0.486111 0.160317,0.97894 0.501953,1.363281 C 17.343589,22.247622 17.875,22.5 18.5,22.5 c 0.625,0 1.156411,-0.252378 1.498047,-0.636719 C 20.339683,21.47894 20.5,20.986111 20.5,20.5 20.5,20.013889 20.339683,19.52106 19.998047,19.136719 19.656411,18.752378 19.125,18.5 18.5,18.5 Z m 0,1 c 0.375,0 0.59359,0.122622 0.751953,0.300781 C 19.410317,19.97894 19.5,20.236111 19.5,20.5 c 0,0.263889 -0.08968,0.52106 -0.248047,0.699219 C 19.09359,21.377378 18.875,21.5 18.5,21.5 18.125,21.5 17.90641,21.377378 17.748047,21.199219 17.589683,21.02106 17.5,20.763889 17.5,20.5 c 0,-0.263889 0.08968,-0.52106 0.248047,-0.699219 C 17.90641,19.622622 18.125,19.5 18.5,19.5 Z"
     id="path1" />
</svg>
