<?xml version="1.0" encoding="UTF-8" standalone="no"?>
<svg
   width="16"
   height="16"
   fill="none"
   viewBox="0 0 16 16"
   version="1.1"
   id="svg1"
   xmlns="http://www.w3.org/2000/svg"
   xmlns:svg="http://www.w3.org/2000/svg">
  <defs
     id="defs1" />
  <path
     fill="currentColor"
     d="M13 8a1 1 0 0 1-1 1v1a2 2 0 0 0 2-2h-1Zm-1 1a1 1 0 0 1-1-1h-1a2 2 0 0 0 2 2V9Zm-1-1a1 1 0 0 1 1-1V6a2 2 0 0 0-2 2h1Zm1-1a1 1 0 0 1 1 1h1a2 2 0 0 0-2-2v1Zm1-5a1 1 0 0 1-1 1v1a2 2 0 0 0 2-2h-1Zm-1 1a1 1 0 0 1-1-1h-1a2 2 0 0 0 2 2V3Zm-1-1a1 1 0 0 1 1-1V0a2 2 0 0 0-2 2h1Zm1-1a1 1 0 0 1 1 1h1a2 2 0 0 0-2-2v1ZM5 2a1 1 0 0 1-1 1v1a2 2 0 0 0 2-2H5ZM4 3a1 1 0 0 1-1-1H2a2 2 0 0 0 2 2V3ZM3 2a1 1 0 0 1 1-1V0a2 2 0 0 0-2 2h1Zm1-1a1 1 0 0 1 1 1h1a2 2 0 0 0-2-2v1Zm1 13a1 1 0 0 1-1 1v1a2 2 0 0 0 2-2H5Zm-1 1a1 1 0 0 1-1-1H2a2 2 0 0 0 2 2v-1Zm-1-1a1 1 0 0 1 1-1v-1a2 2 0 0 0-2 2h1Zm1-1a1 1 0 0 1 1 1h1a2 2 0 0 0-2-2v1Zm.5-5a.5.5 0 0 1-.5.5v1A1.5 1.5 0 0 0 5.5 8h-1Zm-.5.5a.5.5 0 0 1-.5-.5h-1A1.5 1.5 0 0 0 4 9.5v-1ZM3.5 8a.5.5 0 0 1 .5-.5v-1A1.5 1.5 0 0 0 2.5 8h1Zm.5-.5a.5.5 0 0 1 .5.5h1A1.5 1.5 0 0 0 4 6.5v1Zm8.5 6.5a.5.5 0 0 1-.5.5v1a1.5 1.5 0 0 0 1.5-1.5h-1Zm-.5.5a.5.5 0 0 1-.5-.5h-1a1.5 1.5 0 0 0 1.5 1.5v-1Zm-.5-.5a.5.5 0 0 1 .5-.5v-1a1.5 1.5 0 0 0-1.5 1.5h1Zm.5-.5a.5.5 0 0 1 .5.5h1a1.5 1.5 0 0 0-1.5-1.5v1Z"
     id="path1" />
</svg>
