<?xml version="1.0" encoding="UTF-8" standalone="no"?>
<svg
   width="24"
   height="24"
   fill="none"
   viewBox="0 0 24 24"
   version="1.1"
   id="svg3"
   xmlns="http://www.w3.org/2000/svg"
   xmlns:svg="http://www.w3.org/2000/svg">
  <defs
     id="defs3" />
  <path
     style="fill:currentColor;stroke-linecap:round;stroke-linejoin:round"
     d="M 8.5,1 A 0.50005,0.50005 0 0 0 8,1.5 v 4 A 0.5,0.5 0 0 0 8.5,6 0.5,0.5 0 0 0 9,5.5 V 2 h 7 V 5.5 A 0.5,0.5 0 0 0 16.5,6 0.5,0.5 0 0 0 17,5.5 v -4 A 0.50005,0.50005 0 0 0 16.5,1 Z m -2,4 A 0.5,0.5 0 0 0 6,5.5 v 11 A 0.5,0.5 0 0 0 6.5,17 0.5,0.5 0 0 0 7,16.5 V 5.5 A 0.5,0.5 0 0 0 6.5,5 Z m 12,0 A 0.5,0.5 0 0 0 18,5.5 v 11 A 0.5,0.5 0 0 0 18.5,17 0.5,0.5 0 0 0 19,16.5 V 5.5 A 0.5,0.5 0 0 0 18.5,5 Z M 2.5,19 A 0.5,0.5 0 0 0 2,19.5 v 4 A 0.50005,0.50005 0 0 0 2.5,24 h 4 12 4 A 0.50005,0.50005 0 0 0 23,23.5 v -4 A 0.5,0.5 0 0 0 22.5,19 0.5,0.5 0 0 0 22,19.5 V 23 H 19 V 19.5 A 0.5,0.5 0 0 0 18.5,19 0.5,0.5 0 0 0 18,19.5 V 23 H 7 V 19.5 A 0.5,0.5 0 0 0 6.5,19 0.5,0.5 0 0 0 6,19.5 V 23 H 3 V 19.5 A 0.5,0.5 0 0 0 2.5,19 Z"
     id="path1" />
  <path
     style="fill:currentColor;stroke-linecap:round;stroke-linejoin:round"
     d="M 1.5,5 A 0.50005,0.50005 0 0 0 1,5.5 v 11 A 0.50005,0.50005 0 0 0 1.5,17 h 9 A 0.5,0.5 0 0 0 11,16.5 0.5,0.5 0 0 0 10.5,16 H 2 V 6 H 23 V 16 H 14.5 A 0.5,0.5 0 0 0 14,16.5 0.5,0.5 0 0 0 14.5,17 h 9 A 0.50005,0.50005 0 0 0 24,16.5 V 5.5 A 0.50005,0.50005 0 0 0 23.5,5 Z"
     id="path2" />
  <path
     style="fill:currentColor;stroke-linecap:round;stroke-linejoin:round"
     d="M 10.5,14 A 0.50005,0.50005 0 0 0 10,14.5 v 4 a 0.50005,0.50005 0 0 0 0.5,0.5 h 4 A 0.50005,0.50005 0 0 0 15,18.5 v -4 A 0.50005,0.50005 0 0 0 14.5,14 Z m 0.5,1 h 3 v 3 h -3 z"
     id="path3" />
</svg>
