<?xml version="1.0" encoding="UTF-8" standalone="no"?>
<svg
   width="16"
   height="16"
   fill="none"
   viewBox="0 0 16 16"
   version="1.1"
   id="svg1"
   xmlns="http://www.w3.org/2000/svg"
   xmlns:svg="http://www.w3.org/2000/svg">
  <defs
     id="defs1" />
  <path
     style="fill:currentColor;stroke-linecap:round;stroke-linejoin:round"
     d="M 5.5,0 A 0.50005,0.50005 0 0 0 5,0.5 V 3 H 1.5 C 0.67749519,3 0,3.6774952 0,4.5 v 5 A 0.50005,0.50005 0 0 0 0.5,10 H 6 v 1.5 A 0.50005,0.50005 0 0 0 6.5,12 h 3 A 0.50005,0.50005 0 0 0 10,11.5 V 10 h 5.5 A 0.50005,0.50005 0 0 0 16,9.5 v -5 C 16,3.6774952 15.322505,3 14.5,3 H 11 V 0.5 A 0.50005,0.50005 0 0 0 10.5,0 Z M 6,1 h 4 V 3 H 6 Z M 1.5,4 h 4 5 4 C 14.782065,4 15,4.2179353 15,4.5 V 9 H 10 V 7.5 A 0.50005,0.50005 0 0 0 9.5,7 h -3 A 0.50005,0.50005 0 0 0 6,7.5 V 9 H 1 V 4.5 C 1,4.2179353 1.2179353,4 1.5,4 Z M 7,8 H 9 V 9.5 11 H 7 V 9.5 Z M 1.5,11 A 0.5,0.5 0 0 0 1,11.5 v 2 C 1,14.322505 1.6774952,15 2.5,15 h 11 c 0.822505,0 1.5,-0.677495 1.5,-1.5 v -2 A 0.5,0.5 0 0 0 14.5,11 0.5,0.5 0 0 0 14,11.5 v 2 C 14,13.782065 13.782065,14 13.5,14 H 2.5 C 2.2179353,14 2,13.782065 2,13.5 v -2 A 0.5,0.5 0 0 0 1.5,11 Z"
     id="path1" />
</svg>
