<?xml version="1.0" encoding="UTF-8" standalone="no"?>
<svg
   width="24"
   height="24"
   fill="none"
   viewBox="0 0 24 24"
   version="1.1"
   id="svg2"
   xmlns="http://www.w3.org/2000/svg"
   xmlns:svg="http://www.w3.org/2000/svg">
  <defs
     id="defs2" />
  <path
     style="fill:currentColor;stroke-linecap:round;stroke-linejoin:round"
     d="M 12.5,1 C 10.020641,1 8,3.0206409 8,5.5 v 1.2558594 a 0.5,0.5 0 0 0 0.5,0.5 0.5,0.5 0 0 0 0.5,-0.5 V 5.5 C 9,3.5610811 10.561081,2 12.5,2 14.438919,2 16,3.5610811 16,5.5 v 1.2558594 a 0.5,0.5 0 0 0 0.5,0.5 0.5,0.5 0 0 0 0.5,-0.5 V 5.5 C 17,3.0206409 14.979359,1 12.5,1 Z M 1.5,6 A 0.5,0.5 0 0 0 1,6.5 v 1 C 1,9.4270743 2.5729257,11 4.5,11 h 1.2890625 a 0.5,0.5 0 0 0 0.5,-0.5 0.5,0.5 0 0 0 -0.5,-0.5 H 4.5 C 3.1133658,10 2,8.8866342 2,7.5 v -1 A 0.5,0.5 0 0 0 1.5,6 Z m 22,0 A 0.5,0.5 0 0 0 23,6.5 v 1 C 23,8.8866342 21.886634,10 20.5,10 h -1.289063 a 0.5,0.5 0 0 0 -0.5,0.5 0.5,0.5 0 0 0 0.5,0.5 H 20.5 C 22.427074,11 24,9.4270743 24,7.5 v -1 A 0.5,0.5 0 0 0 23.5,6 Z m -22,8 A 0.5,0.5 0 0 0 1,14.5 0.5,0.5 0 0 0 1.5,15 h 4 A 0.5,0.5 0 0 0 6,14.5 0.5,0.5 0 0 0 5.5,14 Z m 18,0 A 0.5,0.5 0 0 0 19,14.5 0.5,0.5 0 0 0 19.5,15 h 4 A 0.5,0.5 0 0 0 24,14.5 0.5,0.5 0 0 0 23.5,14 Z m -15,4 C 2.5729257,18 1,19.572926 1,21.5 v 1 A 0.5,0.5 0 0 0 1.5,23 0.5,0.5 0 0 0 2,22.5 v -1 C 2,20.113366 3.1133658,19 4.5,19 h 1.2890625 a 0.5,0.5 0 0 0 0.5,-0.5 0.5,0.5 0 0 0 -0.5,-0.5 z m 14.710937,0 a 0.5,0.5 0 0 0 -0.5,0.5 0.5,0.5 0 0 0 0.5,0.5 H 20.5 c 1.386634,0 2.5,1.113366 2.5,2.5 v 1 A 0.5,0.5 0 0 0 23.5,23 0.5,0.5 0 0 0 24,22.5 v -1 C 24,19.572926 22.427074,18 20.5,18 Z"
     id="path1" />
  <path
     style="fill:currentColor;stroke-linecap:round;stroke-linejoin:round"
     d="M 12.5,5 C 8.3637873,5 5,8.3637843 5,12.5 v 4 c 0,4.136216 3.3637873,7.5 7.5,7.5 4.136213,0 7.5,-3.363784 7.5,-7.5 v -4 C 20,8.3637843 16.636213,5 12.5,5 Z m 0,1 c 3.595774,0 6.5,2.904224 6.5,6.5 v 4 C 19,20.095776 16.095774,23 12.5,23 8.9042264,23 6,20.095776 6,16.5 v -4 C 6,8.904224 8.9042264,6 12.5,6 Z"
     id="path2" />
</svg>
