<?xml version="1.0" encoding="UTF-8" standalone="no"?>
<svg
   width="16"
   height="16"
   fill="none"
   viewBox="0 0 16 16"
   version="1.1"
   id="svg1"
   xmlns="http://www.w3.org/2000/svg"
   xmlns:svg="http://www.w3.org/2000/svg">
  <defs
     id="defs1" />
  <path
     style="fill:currentColor;stroke-linecap:square"
     d="m 8,-0.00195313 c -1.1077683,0 -2.234592,0.61948659 -2.75,1.80273433 L 5.0507812,2.2578125 5.9667969,2.6582031 6.1660156,2.1992188 C 6.5227313,1.3802888 7.2518302,0.99804687 8,0.99804688 c 0.7481698,0 1.4772687,0.38224192 1.8339844,1.20117192 L 10.033203,2.6582031 10.949219,2.2578125 10.75,1.8007812 C 10.234592,0.61753346 9.1077683,-0.00195312 8,-0.00195313 Z M 0,3 V 3.5 C 0,5.3259568 1.4272822,6.7881781 3.2148438,6.9414062 3.1359741,7.2933176 3,7.6247579 3,8 V 9 H 0.5 0 v 1 H 0.5 3 v 1 c 0,0.396746 0.1406363,0.704151 0.2109375,1.058594 C 1.4252247,12.213682 0,13.675373 0,15.5 V 16 h 1 v -0.5 c 0,-1.349852 1.0710863,-2.404013 2.40625,-2.460937 0.2764672,0.678508 0.6664104,1.263154 1.1679687,1.708984 C 5.5210597,15.589683 6.7638889,16 8,16 c 1.2361111,0 2.47894,-0.410317 3.425781,-1.251953 0.501559,-0.44583 0.891502,-1.030476 1.167969,-1.708984 C 13.928914,13.095987 15,14.150148 15,15.5 V 16 h 1 V 15.5 C 16,13.675373 14.574775,12.213682 12.789063,12.058594 12.859364,11.704151 13,11.396746 13,11 V 10 H 15.5 16 V 9 H 15.5 13 V 8 C 13,7.6247579 12.864026,7.2933176 12.785156,6.9414062 14.572718,6.7881781 16,5.3259568 16,3.5 V 3 H 15 V 3.5 C 15,4.8660117 13.910556,5.9460746 12.552734,5.9785156 11.772121,4.2314772 10.032766,3 8,3 5.967234,3 4.227879,4.2314772 3.4472656,5.9785156 2.0894443,5.9460746 1,4.8660117 1,3.5 V 3 Z m 8,1 c 2.215061,0 4,1.7849387 4,4 v 1 1 1 c 0,1.374999 -0.497622,2.34359 -1.238281,3.001953 C 10.02106,14.660316 9.0138889,15 8,15 6.9861111,15 5.9789403,14.660316 5.2382812,14.001953 4.4976222,13.34359 4,12.374999 4,11 V 10 9 8 C 4,5.7849387 5.7849387,4 8,4 Z"
     id="path1" />
</svg>
