<?xml version="1.0" encoding="UTF-8" standalone="no"?>
<svg
   width="16"
   height="16"
   fill="none"
   viewBox="0 0 16 16"
   version="1.1"
   id="svg1"
   xmlns="http://www.w3.org/2000/svg"
   xmlns:svg="http://www.w3.org/2000/svg">
  <defs
     id="defs1" />
  <path
     style="fill:currentColor;stroke-linecap:round;stroke-linejoin:round"
     d="M 2,0 C 1.5138889,0 1.0210597,0.16031687 0.63671875,0.50195312 0.25237779,0.84358938 0,1.3750002 0,2 0,2.6249998 0.25237779,3.1564106 0.63671875,3.4980469 1.0210597,3.8396831 1.5138889,4 2,4 2.4861111,4 2.9789403,3.8396831 3.3632813,3.4980469 3.7476222,3.1564106 4,2.6249998 4,2 4,1.3750002 3.7476222,0.84358938 3.3632813,0.50195312 2.9789403,0.16031687 2.4861111,0 2,0 Z M 2,1 C 2.2638889,1 2.5210597,1.0896833 2.6992188,1.2480469 2.8773778,1.4064104 3,1.6250003 3,2 3,2.3749997 2.8773778,2.5935896 2.6992188,2.7519531 2.5210597,2.9103167 2.2638889,3 2,3 1.7361111,3 1.4789403,2.9103167 1.3007812,2.7519531 1.1226222,2.5935896 1,2.3749997 1,2 1,1.6250003 1.1226222,1.4064104 1.3007812,1.2480469 1.4789403,1.0896833 1.7361111,1 2,1 Z M 6.5,2 A 0.5,0.5 0 0 0 6,2.5 0.5,0.5 0 0 0 6.5,3 h 9 A 0.5,0.5 0 0 0 16,2.5 0.5,0.5 0 0 0 15.5,2 Z M 2,6 C 1.5138889,6 1.0210597,6.1603169 0.63671875,6.5019531 0.25237779,6.8435894 0,7.3750002 0,8 0,8.6249998 0.25237779,9.1564106 0.63671875,9.4980469 1.0210597,9.8396831 1.5138889,10 2,10 2.4861111,10 2.9789403,9.8396831 3.3632813,9.4980469 3.7476222,9.1564106 4,8.6249998 4,8 4,7.3750002 3.7476222,6.8435894 3.3632813,6.5019531 2.9789403,6.1603169 2.4861111,6 2,6 Z M 2,7 C 2.2638889,7 2.5210597,7.0896833 2.6992188,7.2480469 2.8773778,7.4064104 3,7.6250003 3,8 3,8.3749997 2.8773778,8.5935896 2.6992188,8.7519531 2.5210597,8.9103167 2.2638889,9 2,9 1.7361111,9 1.4789403,8.9103167 1.3007812,8.7519531 1.1226222,8.5935896 1,8.3749997 1,8 1,7.6250003 1.1226222,7.4064104 1.3007812,7.2480469 1.4789403,7.0896833 1.7361111,7 2,7 Z M 6.5,8 A 0.5,0.5 0 0 0 6,8.5 0.5,0.5 0 0 0 6.5,9 h 9 A 0.5,0.5 0 0 0 16,8.5 0.5,0.5 0 0 0 15.5,8 Z M 2,12 C 1.5138889,12 1.0210597,12.160317 0.63671875,12.501953 0.25237779,12.843589 0,13.375 0,14 0,14.625 0.25237779,15.156411 0.63671875,15.498047 1.0210597,15.839683 1.5138889,16 2,16 2.4861111,16 2.9789403,15.839683 3.3632813,15.498047 3.7476222,15.156411 4,14.625 4,14 4,13.375 3.7476222,12.843589 3.3632813,12.501953 2.9789403,12.160317 2.4861111,12 2,12 Z m 0,1 c 0.2638889,0 0.5210597,0.08968 0.6992188,0.248047 C 2.8773778,13.40641 3,13.625 3,14 3,14.375 2.8773778,14.59359 2.6992188,14.751953 2.5210597,14.910317 2.2638889,15 2,15 1.7361111,15 1.4789403,14.910317 1.3007812,14.751953 1.1226222,14.59359 1,14.375 1,14 1,13.625 1.1226222,13.40641 1.3007812,13.248047 1.4789403,13.089683 1.7361111,13 2,13 Z m 4.5,1 A 0.5,0.5 0 0 0 6,14.5 0.5,0.5 0 0 0 6.5,15 h 9 A 0.5,0.5 0 0 0 16,14.5 0.5,0.5 0 0 0 15.5,14 Z"
     id="path1" />
</svg>
