<?xml version="1.0" encoding="UTF-8" standalone="no"?>
<svg
   width="24"
   height="24"
   fill="none"
   viewBox="0 0 24 24"
   version="1.1"
   id="svg1"
   xmlns="http://www.w3.org/2000/svg"
   xmlns:svg="http://www.w3.org/2000/svg">
  <defs
     id="defs1" />
  <path
     style="fill:currentColor;stroke-linecap:round;stroke-linejoin:round"
     d="M 4.5,2 C 3.7083336,2 3.0519227,2.3148778 2.6269531,2.7929688 2.2019836,3.2710597 2,3.8888889 2,4.5 2,5.1111111 2.2019836,5.7289403 2.6269531,6.2070312 3.0519227,6.6851222 3.7083336,7 4.5,7 5.2916664,7 5.9480773,6.6851222 6.3730469,6.2070312 6.7980164,5.7289403 7,5.1111111 7,4.5 7,3.8888889 6.7980164,3.2710597 6.3730469,2.7929688 5.9480773,2.3148778 5.2916664,2 4.5,2 Z m 0,1 C 5.0416663,3 5.3852563,3.1851222 5.6269531,3.4570313 5.8686499,3.7289403 6,4.1111111 6,4.5 6,4.8888889 5.8686499,5.2710597 5.6269531,5.5429687 5.3852563,5.8148778 5.0416663,6 4.5,6 3.9583337,6 3.6147437,5.8148778 3.3730469,5.5429687 3.1313501,5.2710597 3,4.8888889 3,4.5 3,4.1111111 3.1313501,3.7289403 3.3730469,3.4570313 3.6147437,3.1851222 3.9583337,3 4.5,3 Z m 6,1 A 0.5,0.5 0 0 0 10,4.5 0.5,0.5 0 0 0 10.5,5 h 12 A 0.5,0.5 0 0 0 23,4.5 0.5,0.5 0 0 0 22.5,4 Z m -6,6 C 3.7083336,10 3.0519227,10.314878 2.6269531,10.792969 2.2019836,11.27106 2,11.888889 2,12.5 2,13.111111 2.2019836,13.72894 2.6269531,14.207031 3.0519227,14.685122 3.7083336,15 4.5,15 5.2916664,15 5.9480773,14.685122 6.3730469,14.207031 6.7980164,13.72894 7,13.111111 7,12.5 7,11.888889 6.7980164,11.27106 6.3730469,10.792969 5.9480773,10.314878 5.2916664,10 4.5,10 Z m 0,1 c 0.5416663,0 0.8852563,0.185122 1.1269531,0.457031 C 5.8686499,11.72894 6,12.111111 6,12.5 6,12.888889 5.8686499,13.27106 5.6269531,13.542969 5.3852563,13.814878 5.0416663,14 4.5,14 3.9583337,14 3.6147437,13.814878 3.3730469,13.542969 3.1313501,13.27106 3,12.888889 3,12.5 3,12.111111 3.1313501,11.72894 3.3730469,11.457031 3.6147437,11.185122 3.9583337,11 4.5,11 Z m 6,1 A 0.5,0.5 0 0 0 10,12.5 0.5,0.5 0 0 0 10.5,13 h 12 A 0.5,0.5 0 0 0 23,12.5 0.5,0.5 0 0 0 22.5,12 Z m -6,6 C 3.7083336,18 3.0519227,18.314878 2.6269531,18.792969 2.2019836,19.27106 2,19.888889 2,20.5 2,21.111111 2.2019836,21.72894 2.6269531,22.207031 3.0519227,22.685122 3.7083336,23 4.5,23 5.2916664,23 5.9480773,22.685122 6.3730469,22.207031 6.7980164,21.72894 7,21.111111 7,20.5 7,19.888889 6.7980164,19.27106 6.3730469,18.792969 5.9480773,18.314878 5.2916664,18 4.5,18 Z m 0,1 c 0.5416663,0 0.8852563,0.185122 1.1269531,0.457031 C 5.8686499,19.72894 6,20.111111 6,20.5 6,20.888889 5.8686499,21.27106 5.6269531,21.542969 5.3852563,21.814878 5.0416663,22 4.5,22 3.9583337,22 3.6147437,21.814878 3.3730469,21.542969 3.1313501,21.27106 3,20.888889 3,20.5 3,20.111111 3.1313501,19.72894 3.3730469,19.457031 3.6147437,19.185122 3.9583337,19 4.5,19 Z m 6,1 A 0.5,0.5 0 0 0 10,20.5 0.5,0.5 0 0 0 10.5,21 h 12 A 0.5,0.5 0 0 0 23,20.5 0.5,0.5 0 0 0 22.5,20 Z"
     id="path1" />
</svg>
