<?xml version="1.0" encoding="UTF-8" standalone="no"?>
<svg
   width="16"
   height="16"
   fill="none"
   viewBox="0 0 16 16"
   version="1.1"
   id="svg1"
   xmlns="http://www.w3.org/2000/svg"
   xmlns:svg="http://www.w3.org/2000/svg">
  <defs
     id="defs1" />
  <path
     style="fill:currentColor;stroke-linecap:square;stroke-linejoin:round"
     d="M 8,0 C 3.5876449,0 0,3.5876417 0,8 c 0,4.412358 3.5876449,8 8,8 4.412355,0 8,-3.587642 8,-8 C 16,3.5876417 12.412355,0 8,0 Z m 0,1 c 3.871916,0 7,3.1280815 7,7 0,3.871919 -3.128084,7 -7,7 C 4.128084,15 1,11.871919 1,8 1,4.1280815 4.128084,1 8,1 Z M 7.5,3.5 V 4 7.5 H 4 3.5 v 1 H 4 7.5 v 3.5 0.5 h 1 V 12 8.5 h 3.5 0.5 v -1 H 12 8.5 V 4 3.5 Z"
     id="path1" />
</svg>
