<?xml version="1.0" encoding="UTF-8" standalone="no"?>
<svg
   width="24"
   height="24"
   fill="none"
   viewBox="0 0 24 24"
   version="1.1"
   id="svg1"
   xmlns="http://www.w3.org/2000/svg"
   xmlns:svg="http://www.w3.org/2000/svg">
  <defs
     id="defs1" />
  <path
     fill="currentColor"
     d="M6.354 11.646 6 11.293 5.293 12l.353.354.708-.708ZM10 16l-.354.354.354.353.354-.353L10 16Zm8.354-7.646L18.707 8 18 7.293l-.354.353.708.708Zm-12.708 4 4 4 .708-.708-4-4-.708.708Zm4.708 4 8-8-.708-.708-8 8 .708.708ZM22 12c0 5.523-4.477 10-10 10v1c6.075 0 11-4.925 11-11h-1ZM12 22C6.477 22 2 17.523 2 12H1c0 6.075 4.925 11 11 11v-1ZM2 12C2 6.477 6.477 2 12 2V1C5.925 1 1 5.925 1 12h1ZM12 2c5.523 0 10 4.477 10 10h1c0-6.075-4.925-11-11-11v1Z"
     id="path1" />
</svg>
