<?xml version="1.0" encoding="UTF-8" standalone="no"?>
<svg
   width="16"
   height="16"
   fill="none"
   viewBox="0 0 16 16"
   version="1.1"
   id="svg1"
   xmlns="http://www.w3.org/2000/svg"
   xmlns:svg="http://www.w3.org/2000/svg">
  <defs
     id="defs1" />
  <path
     style="fill:currentColor;stroke-linecap:square"
     d="M 8,0 C 3.5876449,0 0,3.5876417 0,8 c 0,4.412358 3.5876449,8 8,8 4.412355,0 8,-3.587642 8,-8 C 16,3.5876417 12.412355,0 8,0 Z m 0,1 c 3.871916,0 7,3.1280815 7,7 0,3.871919 -3.128084,7 -7,7 C 4.128084,15 1,11.871919 1,8 1,4.1280815 4.128084,1 8,1 Z M 12,4.7929687 11.646484,5.1464844 7,9.7929688 4.8535156,7.6464844 4.5,7.2929687 3.7929688,8 4.1464844,8.3535156 7,11.207031 12.353516,5.8535156 12.707031,5.5 Z"
     id="path1" />
</svg>
