<?xml version="1.0" encoding="UTF-8" standalone="no"?>
<svg
   width="24"
   height="24"
   fill="none"
   viewBox="0 0 24 24"
   version="1.1"
   id="svg1"
   xmlns="http://www.w3.org/2000/svg"
   xmlns:svg="http://www.w3.org/2000/svg">
  <defs
     id="defs1" />
  <path
     style="fill:currentColor;stroke-linecap:square;stroke-linejoin:round"
     d="M 12,1 C 5.930781,1 1,5.930781 1,12 1,18.069219 5.930781,23 12,23 18.069219,23 23,18.069219 23,12 23,5.930781 18.069219,1 12,1 Z m 0,1 C 17.528781,2 22,6.471219 22,12 22,17.528781 17.528781,22 12,22 6.471219,22 2,17.528781 2,12 2,6.471219 6.471219,2 12,2 Z m -5.5,9.5 v 1 H 7 17 17.5 v -1 H 17 7 Z"
     id="path1" />
</svg>
