<?xml version="1.0" encoding="UTF-8" standalone="no"?>
<svg
   width="24"
   height="24"
   fill="none"
   viewBox="0 0 24 24"
   version="1.1"
   id="svg1"
   xmlns="http://www.w3.org/2000/svg"
   xmlns:svg="http://www.w3.org/2000/svg">
  <defs
     id="defs1" />
  <path
     fill="currentColor"
     d="M12.5 11v-.5h-1v.5h1Zm-1 6v.5h1V17h-1ZM22 12c0 5.523-4.477 10-10 10v1c6.075 0 11-4.925 11-11h-1ZM12 22C6.477 22 2 17.523 2 12H1c0 6.075 4.925 11 11 11v-1ZM2 12C2 6.477 6.477 2 12 2V1C5.925 1 1 5.925 1 12h1ZM12 2c5.523 0 10 4.477 10 10h1c0-6.075-4.925-11-11-11v1Zm0 5v1a1 1 0 0 0 1-1h-1Zm0 0h-1a1 1 0 0 0 1 1V7Zm0 0V6a1 1 0 0 0-1 1h1Zm0 0h1a1 1 0 0 0-1-1v1Zm-.5 4v6h1v-6h-1Z"
     id="path1" />
</svg>
