<?xml version="1.0" encoding="UTF-8" standalone="no"?>
<svg
   width="16"
   height="16"
   fill="none"
   viewBox="0 0 16 16"
   version="1.1"
   id="svg1"
   xmlns="http://www.w3.org/2000/svg"
   xmlns:svg="http://www.w3.org/2000/svg">
  <defs
     id="defs1" />
  <path
     style="fill:currentColor;stroke-linecap:square"
     d="M 8,0 C 3.5876449,0 0,3.5876417 0,8 c 0,4.412358 3.5876449,8 8,8 4.412355,0 8,-3.587642 8,-8 C 16,3.5876417 12.412355,0 8,0 Z m 0,1 c 3.871916,0 7,3.1280815 7,7 0,3.871919 -3.128084,7 -7,7 C 4.128084,15 1,11.871919 1,8 1,4.1280815 4.128084,1 8,1 Z M 8.4765625,2.5195313 C 7.6475126,2.4213384 6.774988,2.6537707 6.1640625,3.2050781 L 5.7929687,3.5410156 6.4628906,4.2832031 6.8359375,3.9472656 C 7.178012,3.638573 7.8144718,3.4493647 8.3574219,3.5136719 8.9003719,3.577979 9.2958957,3.8120076 9.4414063,4.34375 v 0.00195 C 9.5476076,4.7308334 9.5074179,4.9271025 9.3984375,5.1484375 9.2894571,5.3697725 9.0686573,5.6136795 8.7910156,5.9179687 8.2357322,6.5265472 7.5,7.4279512 7.5,9 v 0.5 h 1 V 9 C 8.5,7.7140488 8.9905803,7.1822184 9.5292969,6.5917969 9.7986552,6.2965861 10.093027,5.9998837 10.294922,5.5898437 10.496557,5.1803308 10.562311,4.6550768 10.404297,4.0800781 10.144807,3.1318205 9.3056124,2.6177241 8.4765625,2.5195313 Z M 8,11 C 7.7638889,11 7.5210597,11.076983 7.3242187,11.251953 7.1273778,11.426923 7,11.708333 7,12 7,12.291667 7.1273778,12.573077 7.3242187,12.748047 7.5210597,12.923017 7.7638889,13 8,13 8.2361111,13 8.4789403,12.923017 8.6757813,12.748047 8.8726222,12.573077 9,12.291667 9,12 9,11.708333 8.8726222,11.426923 8.6757813,11.251953 8.4789403,11.076983 8.2361111,11 8,11 Z"
     id="path1" />
</svg>
