<?xml version="1.0" encoding="UTF-8" standalone="no"?>
<svg
   width="24"
   height="24"
   fill="none"
   viewBox="0 0 24 24"
   version="1.1"
   id="svg1"
   xmlns="http://www.w3.org/2000/svg"
   xmlns:svg="http://www.w3.org/2000/svg">
  <defs
     id="defs1" />
  <path
     style="fill:currentColor;stroke-linecap:square"
     d="M 12,1 C 5.930781,1 1,5.930781 1,12 1,18.069219 5.930781,23 12,23 18.069219,23 23,18.069219 23,12 23,5.930781 18.069219,1 12,1 Z m 0,1 C 17.528781,2 22,6.471219 22,12 22,17.528781 17.528781,22 12,22 6.471219,22 2,17.528781 2,12 2,6.471219 6.471219,2 12,2 Z m 1.019531,3.5253906 C 11.923421,5.4224972 10.718064,5.630827 9.6484375,6.1035156 L 9.1914063,6.3046875 9.5957031,7.21875 10.052734,7.0175781 c 0.910373,-0.4023113 1.974407,-0.5804503 2.873047,-0.4960937 0.89864,0.084357 1.590353,0.4202502 1.916016,0.9472656 0.364886,0.5904892 0.415663,1.1807743 0.222656,1.8105469 -0.193007,0.6297725 -0.655625,1.2908701 -1.349609,1.8789061 -0.761428,0.645183 -1.299242,1.152441 -1.667969,1.673828 C 11.678148,13.353418 11.496094,13.909833 11.496094,14.5 V 15 h 1 v -0.5 c 0,-0.409833 0.09041,-0.698481 0.367187,-1.089844 0.276774,-0.391363 0.759475,-0.864417 1.498047,-1.490234 0.806016,-0.682964 1.394913,-1.482179 1.660156,-2.3476564 C 16.286728,8.7067882 16.201521,7.766917 15.691406,6.9414062 15.142069,6.0524216 14.115641,5.628284 13.019531,5.5253906 Z M 11.996094,17 c -0.236111,0 -0.478941,0.07698 -0.675781,0.251953 -0.196841,0.17497 -0.324219,0.45638 -0.324219,0.748047 0,0.291667 0.127378,0.573077 0.324219,0.748047 C 11.517153,18.923017 11.759983,19 11.996094,19 c 0.236111,0 0.480893,-0.07698 0.677734,-0.251953 0.196841,-0.17497 0.322266,-0.45638 0.322266,-0.748047 0,-0.291667 -0.125425,-0.573077 -0.322266,-0.748047 C 12.476987,17.076983 12.232205,17 11.996094,17 Z"
     id="path1" />
</svg>
