<?xml version="1.0" encoding="UTF-8" standalone="no"?>
<svg
   width="24"
   height="24"
   fill="none"
   viewBox="0 0 24 24"
   version="1.1"
   id="svg1"
   xmlns="http://www.w3.org/2000/svg"
   xmlns:svg="http://www.w3.org/2000/svg">
  <defs
     id="defs1" />
  <path
     style="fill:currentColor;stroke-linecap:square"
     d="M 12,1 C 5.930781,1 1,5.930781 1,12 1,18.069219 5.930781,23 12,23 18.069219,23 23,18.069219 23,12 23,5.930781 18.069219,1 12,1 Z m 0,1 C 17.528781,2 22,6.471219 22,12 22,17.528781 17.528781,22 12,22 6.471219,22 2,17.528781 2,12 2,6.471219 6.471219,2 12,2 Z M 8,7.2929687 7.2929687,8 7.6464844,8.3535156 11.292969,12 7.6464844,15.646484 7.2929687,16 8,16.707031 8.3535156,16.353516 12,12.707031 15.646484,16.353516 16,16.707031 16.707031,16 16.353516,15.646484 12.707031,12 16.353516,8.3535156 16.707031,8 16,7.2929687 15.646484,7.6464844 12,11.292969 8.3535156,7.6464844 Z"
     id="path1" />
</svg>
