<?xml version="1.0" encoding="UTF-8" standalone="no"?>
<svg
   width="16"
   height="16"
   fill="none"
   viewBox="0 0 16 16"
   version="1.1"
   id="svg1"
   xmlns="http://www.w3.org/2000/svg"
   xmlns:svg="http://www.w3.org/2000/svg">
  <defs
     id="defs1" />
  <path
     style="fill:currentColor;stroke-linecap:square;stroke-linejoin:round"
     d="M 8,0 C 3.5876449,0 0,3.5876417 0,8 c 0,4.412358 3.5876449,8 8,8 4.412355,0 8,-3.587642 8,-8 C 16,3.5876417 12.412355,0 8,0 Z m 0,1 c 3.871916,0 7,3.1280815 7,7 0,3.871919 -3.128084,7 -7,7 C 4.128084,15 1,11.871919 1,8 1,4.1280815 4.128084,1 8,1 Z M 5,4.2929687 4.2929687,5 4.6464844,5.3535156 7.2929687,8 4.6464844,10.646484 4.2929687,11 5,11.707031 5.3535156,11.353516 8,8.7070313 10.646484,11.353516 11,11.707031 11.707031,11 11.353516,10.646484 8.7070313,8 11.353516,5.3535156 11.707031,5 11,4.2929687 10.646484,4.6464844 8,7.2929687 5.3535156,4.6464844 Z"
     id="path1" />
</svg>
