<?xml version="1.0" encoding="UTF-8" standalone="no"?>
<svg
   width="16"
   height="16"
   fill="none"
   viewBox="0 0 16 16"
   version="1.1"
   id="svg1"
   xmlns="http://www.w3.org/2000/svg"
   xmlns:svg="http://www.w3.org/2000/svg">
  <defs
     id="defs1" />
  <path
     style="fill:currentColor;stroke-linecap:square"
     d="M 4,0 V 0.5 2 H 2 C 0.90135282,2 0,2.9013528 0,4 v 1 1 7 c 0,1.098647 0.90135282,2 2,2 h 12 c 1.098647,0 2,-0.901353 2,-2 V 6 5 4 C 16,2.9013528 15.098647,2 14,2 H 12 V 0.5 0 H 11 V 0.5 2 H 5 V 0.5 0 Z M 2,3 h 2 1 6 1 2 c 0.558207,0 1,0.4417929 1,1 V 5 H 1 V 4 C 1,3.4417929 1.4417929,3 2,3 Z M 1,6 h 14 v 7 c 0,0.558207 -0.441793,1 -1,1 H 2 C 1.4417929,14 1,13.558207 1,13 Z M 5.9355469,7.109375 C 5.6410307,7.2054388 5.3713102,7.3633213 5.1425781,7.5722656 l -0.00195,0.00195 -0.00195,0.00195 C 4.7456965,7.9426842 4.5133703,8.4507957 4.5,8.9882813 4.486572,9.5254027 4.6964678,10.043356 5.0742187,10.427734 l 0.00195,0.0039 0.054687,0.05273 L 8,13.1875 10.855469,10.492188 c 0.83049,-0.7547477 0.862642,-2.066613 0.06836,-2.8593755 l -0.02539,-0.025391 -0.02539,-0.019531 c 0.015,0.015 0.0081,0.00705 -0.0039,-0.00195 l -0.0039,-0.00586 -0.0078,-0.00781 C 10.628269,7.3629372 10.357645,7.205388 10.0625,7.109375 9.4659351,6.9149451 8.8129846,6.9832651 8.2695313,7.296875 h -0.00195 C 8.1617233,7.358538 8.0936642,7.4647849 8,7.5429687 7.9061299,7.4645007 7.8369053,7.3585621 7.7304687,7.296875 7.1873492,6.9809837 6.5343316,6.9132145 5.9375,7.109375 Z m 0.3125,0.9492188 H 6.25 C 6.5762353,7.9510363 6.9315796,7.9894043 7.2285156,8.1621094 7.371775,8.2451377 7.4961758,8.3570078 7.5917969,8.4921875 L 8,9.0703125 8.4082031,8.4921875 C 8.5012371,8.3601613 8.625451,8.2464996 8.7695313,8.1621094 9.0677679,7.9900063 9.4245698,7.9518944 9.7519531,8.0585938 c 0.1597087,0.051954 0.3076419,0.1386815 0.4316409,0.2519531 0.0071,0.00705 0.02211,0.019061 0.0332,0.029297 0.39959,0.3988257 0.384603,1.0343616 -0.0332,1.4140625 l -0.0039,0.00195 L 8,11.8125 5.8242187,9.7636719 5.7871094,9.7265625 C 5.5948603,9.5309406 5.493428,9.2745973 5.5,9.0117188 c 0.00661,-0.2656245 0.1185886,-0.5158361 0.3183594,-0.703125 0.1235775,-0.1123703 0.2708324,-0.1983233 0.4296875,-0.25 z"
     id="path1" />
</svg>
