<?xml version="1.0" encoding="UTF-8" standalone="no"?>
<svg
   width="24"
   height="24"
   fill="none"
   viewBox="0 0 24 24"
   version="1.1"
   id="svg1"
   xmlns="http://www.w3.org/2000/svg"
   xmlns:svg="http://www.w3.org/2000/svg">
  <defs
     id="defs1" />
  <path
     style="fill:currentColor;stroke-linecap:square"
     d="M 6,1 V 1.5 3 H 3.5 C 2.1252104,3 1,4.1252104 1,5.5 V 8 9 19.5 C 1,20.87479 2.1252104,22 3.5,22 h 17 C 21.87479,22 23,20.87479 23,19.5 V 9 8 5.5 C 23,4.1252104 21.87479,3 20.5,3 H 18 V 1.5 1 H 17 V 1.5 3 H 7 V 1.5 1 Z M 3.5,4 H 5.9980469 V 5.5 6 h 1 V 5.5 4 H 16.998047 V 5.5 6 h 1 V 5.5 4 H 20.5 C 21.334349,4 22,4.6656506 22,5.5 V 8 H 2 V 5.5 C 2,4.6656506 2.6656506,4 3.5,4 Z M 2,9 H 22 V 19.5 C 22,20.334349 21.334349,21 20.5,21 H 3.5 C 2.6656506,21 2,20.334349 2,19.5 Z m 11.753906,1.515625 c -0.430096,0.04264 -0.849551,0.181306 -1.228515,0.410156 h -0.002 c -0.238312,0.144081 -0.407125,0.367483 -0.595704,0.570313 -0.413165,-0.407748 -0.835829,-0.830414 -1.414062,-0.94336 h -0.002 C 9.5493329,10.366646 8.5567195,10.672447 7.8652344,11.367188 7.316633,11.916705 7.0056912,12.65908 7,13.435547 c -0.006,0.777515 0.2903306,1.528118 0.8300781,2.085937 l 0.00586,0.0059 0.033203,0.03125 L 12,19.708984 16.134766,15.560547 C 16.682926,15.01147 16.993824,14.267978 17,13.492188 v -0.002 c 0.0069,-0.775219 -0.292001,-1.521969 -0.830078,-2.080078 l -0.02734,-0.03125 -0.0078,-0.0098 c -0.309219,-0.309072 -0.682318,-0.545491 -1.09375,-0.69336 -0.416522,-0.149987 -0.857014,-0.202795 -1.28711,-0.160156 z m -3.433593,1.019531 c 0.516987,0.100983 0.971615,0.403417 1.263671,0.841797 L 12,13 12.416016,12.378906 c 0.16215,-0.242406 0.375428,-0.446767 0.625,-0.597656 0.500634,-0.302325 1.109906,-0.362205 1.660156,-0.164062 0.271971,0.09775 0.519938,0.253023 0.724609,0.457031 6.44e-4,6.41e-4 0.0013,0.0013 0.002,0.002 l 0.01758,0.01953 0.0059,0.0059 c 0.35734,0.370172 0.553735,0.866373 0.548828,1.380859 -0.0038,0.51445 -0.208788,1.007009 -0.572266,1.371094 L 12,18.291016 8.5703125,14.845703 8.5488281,14.826172 v -0.002 C 8.1933984,14.456179 7.9960042,13.961212 8,13.443359 c 0.00377,-0.51445 0.2087884,-1.005056 0.5722656,-1.36914 v -0.002 h 0.00195 c 0.4569697,-0.459121 1.1100621,-0.659425 1.7460942,-0.53711 z"
     id="path1" />
</svg>
