<?xml version="1.0" encoding="UTF-8" standalone="no"?>
<svg
   width="16"
   height="16"
   fill="none"
   viewBox="0 0 16 16"
   version="1.1"
   id="svg2"
   xmlns="http://www.w3.org/2000/svg"
   xmlns:svg="http://www.w3.org/2000/svg">
  <g
     clip-path="url(#a)"
     id="g1">
    <path
       style="fill:currentColor;stroke-linecap:square"
       d="M 4,0 V 0.5 2 H 2 C 0.90135282,2 0,2.9013528 0,4 v 1 1 7 c 0,1.098647 0.90135282,2 2,2 H 6 6.5 V 14 H 6 2 C 1.4417929,14 1,13.558207 1,13 V 6 h 14 v 2 0.5 h 1 V 8 6 5 4 C 16,2.9013528 15.098647,2 14,2 H 12 V 0.5 0 H 11 V 0.5 2 H 5 V 0.5 0 Z M 2,3 h 2 1 6 1 2 c 0.558207,0 1,0.4417929 1,1 V 5 H 1 V 4 C 1,3.4417929 1.4417929,3 2,3 Z M 14.5,9.7929688 14.146484,10.146484 10.5,13.792969 8.8535156,12.146484 8.5,11.792969 7.7929687,12.5 8.1464844,12.853516 10.5,15.207031 14.853516,10.853516 15.207031,10.5 Z"
       id="path1" />
  </g>
  <defs
     id="defs2">
    <clipPath
       id="a">
      <path
         fill="#fff"
         d="M0 0h16v16H0z"
         id="path2" />
    </clipPath>
  </defs>
</svg>
