<?xml version="1.0" encoding="UTF-8" standalone="no"?>
<svg
   width="16"
   height="16"
   fill="none"
   viewBox="0 0 16 16"
   version="1.1"
   id="svg1"
   xmlns="http://www.w3.org/2000/svg"
   xmlns:svg="http://www.w3.org/2000/svg">
  <defs
     id="defs1" />
  <path
     style="fill:currentColor;stroke-linecap:square"
     d="M 4,0 V 0.5 2 H 2 C 0.90135282,2 0,2.9013528 0,4 v 1 1 7 c 0,1.098647 0.90135282,2 2,2 h 12 c 1.098647,0 2,-0.901353 2,-2 V 6 5 4 C 16,2.9013528 15.098647,2 14,2 H 12 V 0.5 0 H 11 V 0.5 2 H 5 V 0.5 0 Z M 2,3 h 2 1 6 1 2 c 0.558207,0 1,0.4417929 1,1 V 5 H 1 V 4 C 1,3.4417929 1.4417929,3 2,3 Z M 1,6 h 14 v 7 c 0,0.558207 -0.441793,1 -1,1 H 2 C 1.4417929,14 1,13.558207 1,13 Z"
     id="path1" />
</svg>
