<?xml version="1.0" encoding="UTF-8" standalone="no"?>
<svg
   width="24"
   height="24"
   fill="none"
   viewBox="0 0 24 24"
   version="1.1"
   id="svg1"
   xmlns="http://www.w3.org/2000/svg"
   xmlns:svg="http://www.w3.org/2000/svg">
  <defs
     id="defs1" />
  <path
     style="fill:currentColor;stroke-linecap:square"
     d="M 6,1 V 1.5 3 H 3.5 C 2.1252104,3 1,4.1252104 1,5.5 V 8 9 19.5 C 1,20.87479 2.1252104,22 3.5,22 H 11 11.5 V 21 H 11 3.5 C 2.6656506,21 2,20.334349 2,19.5 V 9 h 20 v 4 0.5 h 1 V 13 9 8 5.5 C 23,4.1252104 21.87479,3 20.5,3 H 18 V 1.5 1 H 17 V 1.5 3 H 7 V 1.5 1 Z M 3.5,4 H 5.9980469 V 5.5 6 h 1 V 5.5 4 H 16.998047 V 5.5 6 h 1 V 5.5 4 H 20.5 C 21.334349,4 22,4.6656506 22,5.5 V 8 H 2 V 5.5 C 2,4.6656506 2.6656506,4 3.5,4 Z m 18,11.792969 -0.353516,0.353515 L 16.5,20.792969 14.853516,19.146484 14.5,18.792969 13.792969,19.5 14.146484,19.853516 16.5,22.207031 21.853516,16.853516 22.207031,16.5 Z"
     id="path1" />
</svg>
