<?xml version="1.0" encoding="UTF-8" standalone="no"?>
<svg
   width="24"
   height="24"
   fill="none"
   viewBox="0 0 24 24"
   version="1.1"
   id="svg1"
   xmlns="http://www.w3.org/2000/svg"
   xmlns:svg="http://www.w3.org/2000/svg">
  <defs
     id="defs1" />
  <path
     style="fill:currentColor;stroke-linecap:square"
     d="M 6,1 V 1.5 3 H 3.5 C 2.1252104,3 1,4.1252104 1,5.5 V 8 9 19.5 C 1,20.87479 2.1252104,22 3.5,22 h 17 C 21.87479,22 23,20.87479 23,19.5 V 9 8 5.5 C 23,4.1252104 21.87479,3 20.5,3 H 18 V 1.5 1 H 17 V 1.5 3 H 7 V 1.5 1 Z M 3.5,4 H 5.9980469 V 5.5 6 h 1 V 5.5 4 H 16.998047 V 5.5 6 h 1 V 5.5 4 H 20.5 C 21.334349,4 22,4.6656506 22,5.5 V 8 H 2 V 5.5 C 2,4.6656506 2.6656506,4 3.5,4 Z M 2,9 H 22 V 19.5 C 22,20.334349 21.334349,21 20.5,21 H 3.5 C 2.6656506,21 2,20.334349 2,19.5 Z m 9.5,2 v 0.5 3 H 8.5 8 v 1 h 0.5 3 v 3 0.5 h 1 v -0.5 -3 h 3 0.5 v -1 h -0.5 -3 v -3 -0.5 z"
     id="path1" />
</svg>
