<?xml version="1.0" encoding="UTF-8" standalone="no"?>
<svg
   width="24"
   height="24"
   fill="none"
   viewBox="0 0 24 24"
   version="1.1"
   id="svg2"
   xmlns="http://www.w3.org/2000/svg"
   xmlns:svg="http://www.w3.org/2000/svg">
  <defs
     id="defs2" />
  <path
     style="fill:currentColor;stroke-linecap:round;stroke-linejoin:round"
     d="M 7.0996094,1 C 5.9327748,1.0025345 4.9172634,1.8179972 4.6640625,2.9570313 L 3.0429688,10.25 1.7324219,11.560547 C 1.2636842,12.029143 1.0001416,12.66533 1,13.328125 V 18.5 A 0.50005,0.50005 0 0 0 1.5,19 h 22 A 0.50005,0.50005 0 0 0 24,18.5 V 13.328125 C 23.999858,12.66533 23.736316,12.029143 23.267578,11.560547 L 21.957031,10.25 20.335937,2.9570313 C 20.082737,1.8179972 19.067225,1.0025345 17.900391,1 Z m 0,1 H 17.900391 c 0.703758,0.00242 1.306229,0.4866539 1.458984,1.1738281 L 20.876953,10 H 4.1230469 L 5.640625,3.1738281 C 5.79338,2.4866539 6.3958508,2.0024244 7.0996094,2 Z M 3.7070313,11 H 21.292969 l 1.267578,1.267578 C 22.842007,12.548953 22.999915,12.930141 23,13.328125 V 18 H 2 v -4.671875 c 8.5e-5,-0.397984 0.1579933,-0.779172 0.4394531,-1.060547 z M 2.5,21 A 0.5,0.5 0 0 0 2,21.5 v 2 A 0.50005,0.50005 0 0 0 2.5,24 h 4 A 0.50005,0.50005 0 0 0 7,23.5 v -2 A 0.5,0.5 0 0 0 6.5,21 0.5,0.5 0 0 0 6,21.5 V 23 H 3 V 21.5 A 0.5,0.5 0 0 0 2.5,21 Z m 16,0 A 0.5,0.5 0 0 0 18,21.5 v 2 a 0.50005,0.50005 0 0 0 0.5,0.5 h 4 A 0.50005,0.50005 0 0 0 23,23.5 v -2 A 0.5,0.5 0 0 0 22.5,21 0.5,0.5 0 0 0 22,21.5 V 23 H 19 V 21.5 A 0.5,0.5 0 0 0 18.5,21 Z"
     id="path1" />
  <path
     fill="currentColor"
     d="M5.5 15.5a1 1 0 1 0 0-2 1 1 0 0 0 0 2ZM19.5 15.5a1 1 0 1 0 0-2 1 1 0 0 0 0 2Z"
     id="path2" />
</svg>
