<?xml version="1.0" encoding="UTF-8" standalone="no"?>
<svg
   width="16"
   height="16"
   fill="none"
   viewBox="0 0 16 16"
   version="1.1"
   id="svg1"
   xmlns="http://www.w3.org/2000/svg"
   xmlns:svg="http://www.w3.org/2000/svg">
  <defs
     id="defs1" />
  <path
     fill="currentColor"
     fill-rule="evenodd"
     d="M3.8 0A2 2 0 0 0 1.82 1.717l-.792 5.547-.59.59A1.5 1.5 0 0 0 0 8.913V15.5a.5.5 0 0 0 .5.5h4a.5.5 0 0 0 .5-.5V13h6v2.5a.5.5 0 0 0 .5.5h4a.5.5 0 0 0 .5-.5V8.914a1.5 1.5 0 0 0-.44-1.06l-.589-.59-.791-5.547A2 2 0 0 0 12.2 0H3.8Zm10.124 7-.734-5.141A1 1 0 0 0 12.2 1H3.8a1 1 0 0 0-.989.859L2.076 7h11.848ZM12 13h3v2h-3v-2Zm3-1H1V8.914a.5.5 0 0 1 .147-.353L1.707 8h12.586l.56.56a.5.5 0 0 1 .147.354V12ZM1 13h3v2H1v-2Zm3-3a1 1 0 1 1-2 0 1 1 0 0 1 2 0Zm9 1a1 1 0 1 0 0-2 1 1 0 0 0 0 2Z"
     clip-rule="evenodd"
     id="path1" />
</svg>
