<?xml version="1.0" encoding="UTF-8" standalone="no"?>
<svg
   width="24"
   height="24"
   fill="none"
   viewBox="0 0 24 24"
   version="1.1"
   id="svg1"
   xmlns="http://www.w3.org/2000/svg"
   xmlns:svg="http://www.w3.org/2000/svg">
  <defs
     id="defs1" />
  <path
     style="fill:currentColor;stroke-linecap:round;stroke-linejoin:round"
     d="M 12.5,4 C 10.177827,4 7.3655581,4.7700626 5.078125,6.2011719 2.7906919,7.6322812 1,9.7806 1,12.5 1,15.2194 2.7906919,17.367719 5.078125,18.798828 7.3655581,20.229937 10.177827,21 12.5,21 a 0.50005,0.50005 0 0 0 0.484375,-0.378906 C 13.652401,17.965622 13.993817,15.240155 14,12.501953 a 0.50005,0.50005 0 0 0 0,-0.002 0.50005,0.50005 0 0 0 0,-0.002 C 13.993817,9.7598449 13.652401,7.0343779 12.984375,4.3789062 A 0.50005,0.50005 0 0 0 12.5,4 Z M 12.070313,5.0664062 C 12.647986,7.5045359 12.99434,9.9953288 13,12.501953 c -0.006,2.505318 -0.352313,4.994772 -0.929687,7.431641 C 10.040333,19.848646 7.5858226,19.187716 5.609375,17.951172 3.5013081,16.632281 2,14.7806 2,12.5 2,10.2194 3.5013081,8.3677188 5.609375,7.0488281 7.5858226,5.8122837 10.040333,5.1513542 12.070313,5.0664062 Z M 18.5,7 A 0.5,0.5 0 0 0 18,7.5 0.5,0.5 0 0 0 18.5,8 h 5 A 0.5,0.5 0 0 0 24,7.5 0.5,0.5 0 0 0 23.5,7 Z m 0,5 A 0.5,0.5 0 0 0 18,12.5 0.5,0.5 0 0 0 18.5,13 h 5 A 0.5,0.5 0 0 0 24,12.5 0.5,0.5 0 0 0 23.5,12 Z m 0,5 A 0.5,0.5 0 0 0 18,17.5 0.5,0.5 0 0 0 18.5,18 h 5 A 0.5,0.5 0 0 0 24,17.5 0.5,0.5 0 0 0 23.5,17 Z"
     id="path1" />
</svg>
