<?xml version="1.0" encoding="UTF-8" standalone="no"?>
<svg
   width="16"
   height="16"
   fill="none"
   viewBox="0 0 16 16"
   version="1.1"
   id="svg1"
   xmlns="http://www.w3.org/2000/svg"
   xmlns:svg="http://www.w3.org/2000/svg">
  <defs
     id="defs1" />
  <path
     style="fill:currentColor;stroke-linecap:round;stroke-linejoin:round"
     d="M 8.5,2 C 6.7424166,2 4.6728236,2.5151035 2.9902344,3.5761719 1.3076452,4.6372403 0,6.30475 0,8.5 0,10.69525 1.3076452,12.36276 2.9902344,13.423828 4.6728236,14.484897 6.7424166,15 8.5,15 A 0.50005,0.50005 0 0 0 9,14.5 V 2.5 A 0.50005,0.50005 0 0 0 8.5,2 Z M 8,3.0722656 V 13.927734 C 6.5386239,13.841279 4.8642346,13.421701 3.5234375,12.576172 2.0345267,11.63724 1,10.30475 1,8.5 1,6.69525 2.0345267,5.3627597 3.5234375,4.4238281 4.8642346,3.5782995 6.5386239,3.1587214 8,3.0722656 Z M 11.5,4 A 0.5,0.5 0 0 0 11,4.5 0.5,0.5 0 0 0 11.5,5 h 4 A 0.5,0.5 0 0 0 16,4.5 0.5,0.5 0 0 0 15.5,4 Z m 0,4 A 0.5,0.5 0 0 0 11,8.5 0.5,0.5 0 0 0 11.5,9 h 4 A 0.5,0.5 0 0 0 16,8.5 0.5,0.5 0 0 0 15.5,8 Z m 0,4 A 0.5,0.5 0 0 0 11,12.5 0.5,0.5 0 0 0 11.5,13 h 4 A 0.5,0.5 0 0 0 16,12.5 0.5,0.5 0 0 0 15.5,12 Z"
     id="path1" />
</svg>
