<?xml version="1.0" encoding="UTF-8" standalone="no"?>
<svg
   width="24"
   height="24"
   fill="none"
   viewBox="0 0 24 24"
   version="1.1"
   id="svg1"
   xmlns="http://www.w3.org/2000/svg"
   xmlns:svg="http://www.w3.org/2000/svg">
  <defs
     id="defs1" />
  <path
     style="fill:currentColor;stroke-linecap:square"
     d="M 1.5,0.79296875 0.79296875,1.5 1.1464844,1.8535156 4,4.7070312 V 5 14 14.382813 L 1.6914062,19 H 23.5 24 V 18 H 23.5 3.3085938 L 4.8085937,15 H 5 19.871094 L 23.171875,4 H 5 4.7070312 L 1.8535156,1.1464844 Z M 5,5 h 16.828125 l -2.699219,9 H 5 Z M 5,20 C 4.5138889,20 4.0210597,20.160317 3.6367188,20.501953 3.2523778,20.843589 3,21.375 3,22 3,22.625 3.2523778,23.156411 3.6367188,23.498047 4.0210597,23.839683 4.5138889,24 5,24 5.4861111,24 5.9789403,23.839683 6.3632812,23.498047 6.7476222,23.156411 7,22.625 7,22 7,21.375 6.7476222,20.843589 6.3632812,20.501953 5.9789403,20.160317 5.4861111,20 5,20 Z m 16,0 c -0.486111,0 -0.97894,0.160317 -1.363281,0.501953 C 19.252378,20.843589 19,21.375 19,22 c 0,0.625 0.252378,1.156411 0.636719,1.498047 C 20.02106,23.839683 20.513889,24 21,24 21.486111,24 21.97894,23.839683 22.363281,23.498047 22.747622,23.156411 23,22.625 23,22 23,21.375 22.747622,20.843589 22.363281,20.501953 21.97894,20.160317 21.486111,20 21,20 Z M 5,21 c 0.2638889,0 0.5210597,0.08968 0.6992187,0.248047 C 5.8773778,21.40641 6,21.625 6,22 6,22.375 5.8773778,22.59359 5.6992187,22.751953 5.5210597,22.910317 5.2638889,23 5,23 4.7361111,23 4.4789403,22.910317 4.3007812,22.751953 4.1226222,22.59359 4,22.375 4,22 4,21.625 4.1226222,21.40641 4.3007812,21.248047 4.4789403,21.089683 4.7361111,21 5,21 Z m 16,0 c 0.263889,0 0.52106,0.08968 0.699219,0.248047 C 21.877378,21.40641 22,21.625 22,22 22,22.375 21.877378,22.59359 21.699219,22.751953 21.52106,22.910317 21.263889,23 21,23 20.736111,23 20.47894,22.910317 20.300781,22.751953 20.122622,22.59359 20,22.375 20,22 20,21.625 20.122622,21.40641 20.300781,21.248047 20.47894,21.089683 20.736111,21 21,21 Z"
     id="path1" />
</svg>
