<?xml version="1.0" encoding="UTF-8" standalone="no"?>
<svg
   width="16"
   height="16"
   fill="none"
   viewBox="0 0 16 16"
   version="1.1"
   id="svg1"
   xmlns="http://www.w3.org/2000/svg"
   xmlns:svg="http://www.w3.org/2000/svg">
  <defs
     id="defs1" />
  <path
     style="fill:currentColor;stroke-linecap:square"
     d="M 1,0.29296875 0.29296875,1 0.64648437,1.3535156 2,2.7070313 V 3 7 7.4179687 L 0.80664063,11 H 15.5 16 V 10 H 15.5 2.1933594 L 2.8613281,8 H 3 12.837891 l 2.40039,-6 H 3 2.7070313 L 1.3535156,0.64648437 Z M 3,3 h 10.761719 l -1.59961,4 H 3 Z m 0,9 C 2.5138889,12 2.0210597,12.160317 1.6367187,12.501953 1.2523778,12.843589 1,13.375 1,14 1,14.625 1.2523778,15.156411 1.6367187,15.498047 2.0210597,15.839683 2.5138889,16 3,16 3.4861111,16 3.9789403,15.839683 4.3632812,15.498047 4.7476222,15.156411 5,14.625 5,14 5,13.375 4.7476222,12.843589 4.3632812,12.501953 3.9789403,12.160317 3.4861111,12 3,12 Z m 10,0 c -0.486111,0 -0.97894,0.160317 -1.363281,0.501953 C 11.252378,12.843589 11,13.375 11,14 c 0,0.625 0.252378,1.156411 0.636719,1.498047 C 12.02106,15.839683 12.513889,16 13,16 13.486111,16 13.97894,15.839683 14.363281,15.498047 14.747622,15.156411 15,14.625 15,14 15,13.375 14.747622,12.843589 14.363281,12.501953 13.97894,12.160317 13.486111,12 13,12 Z M 3,13 c 0.2638889,0 0.5210597,0.08968 0.6992188,0.248047 C 3.8773778,13.40641 4,13.625 4,14 4,14.375 3.8773778,14.59359 3.6992188,14.751953 3.5210597,14.910317 3.2638889,15 3,15 2.7361111,15 2.4789403,14.910317 2.3007813,14.751953 2.1226222,14.59359 2,14.375 2,14 2,13.625 2.1226222,13.40641 2.3007813,13.248047 2.4789403,13.089683 2.7361111,13 3,13 Z m 10,0 c 0.263889,0 0.52106,0.08968 0.699219,0.248047 C 13.877378,13.40641 14,13.625 14,14 14,14.375 13.877378,14.59359 13.699219,14.751953 13.52106,14.910317 13.263889,15 13,15 12.736111,15 12.47894,14.910317 12.300781,14.751953 12.122622,14.59359 12,14.375 12,14 12,13.625 12.122622,13.40641 12.300781,13.248047 12.47894,13.089683 12.736111,13 13,13 Z"
     id="path1" />
</svg>
