<?xml version="1.0" encoding="UTF-8" standalone="no"?>
<svg
   width="16"
   height="16"
   fill="none"
   viewBox="0 0 16 16"
   version="1.1"
   id="svg1"
   xmlns="http://www.w3.org/2000/svg"
   xmlns:svg="http://www.w3.org/2000/svg">
  <defs
     id="defs1" />
  <path
     fill="currentColor"
     fill-rule="evenodd"
     d="M1.354.646 1 .293.293 1l.353.354L2 2.707V7.42l-.974 2.923-.22.658H16v-1H2.194l.666-2h9.973L15 2H2.707L1.354.646ZM5 14a2 2 0 1 1-4 0 2 2 0 0 1 4 0Zm10 0a2 2 0 1 1-4 0 2 2 0 0 1 4 0Z"
     clip-rule="evenodd"
     id="path1" />
</svg>
