<?xml version="1.0" encoding="UTF-8" standalone="no"?>
<svg
   width="16"
   height="16"
   fill="none"
   viewBox="0 0 16 16"
   version="1.1"
   id="svg2"
   xmlns="http://www.w3.org/2000/svg"
   xmlns:svg="http://www.w3.org/2000/svg">
  <defs
     id="defs2" />
  <path
     style="fill:currentColor;stroke-linecap:round;stroke-linejoin:round"
     d="M 1.5,0 C 0.67749519,0 0,0.67749519 0,1.5 v 13 C 0,15.322505 0.67749519,16 1.5,16 h 13 C 15.322505,16 16,15.322505 16,14.5 V 1.5 C 16,0.67749519 15.322505,0 14.5,0 Z m 0,1 h 13 C 14.782065,1 15,1.2179353 15,1.5 v 13 C 15,14.782065 14.782065,15 14.5,15 H 1.5 C 1.2179353,15 1,14.782065 1,14.5 V 1.5 C 1,1.2179353 1.2179353,1 1.5,1 Z"
     id="path1" />
  <path
     style="fill:currentColor;stroke-linecap:round;stroke-linejoin:round"
     d="M 12.429688,5.0058594 A 0.5,0.5 0 0 0 12.099609,5.1992187 L 9.4453125,8.7382813 6.8535156,6.1464844 a 0.50005,0.50005 0 0 0 -0.7539062,0.052734 l -3,4.0000003 a 0.5,0.5 0 0 0 0.099609,0.701172 0.5,0.5 0 0 0 0.7011718,-0.09961 L 6.5546875,7.2617187 9.1464844,9.8535156 A 0.50005,0.50005 0 0 0 9.9003906,9.8007813 L 12.900391,5.8007812 a 0.5,0.5 0 0 0 -0.09961,-0.7011718 0.5,0.5 0 0 0 -0.371093,-0.09375 z"
     id="path2" />
</svg>
