<?xml version="1.0" encoding="UTF-8" standalone="no"?>
<svg
   width="16"
   height="16"
   fill="none"
   viewBox="0 0 16 16"
   version="1.1"
   id="svg1"
   xmlns="http://www.w3.org/2000/svg"
   xmlns:svg="http://www.w3.org/2000/svg">
  <defs
     id="defs1" />
  <path
     style="fill:currentColor;stroke-linecap:square"
     d="M 6,1 V 1.5 4 H 5 4.5 4 V 5 H 4.5 5 V 7.5 C 5,8.9583328 5.5648778,10.114744 6.4179687,10.873047 7.2710597,11.63135 8.3888889,12 9.5,12 10.611111,12 11.72894,11.63135 12.582031,10.873047 13.435122,10.114744 14,8.9583328 14,7.5 V 5 H 14.5 15 V 4 H 14.5 14 13 V 1.5 1 H 12 V 1.5 4 H 7 V 1.5 1 Z m 0,4 h 1 5 1 V 7.5 C 13,8.7083327 12.564878,9.5519231 11.917969,10.126953 11.27106,10.701983 10.388889,11 9.5,11 8.6111111,11 7.7289403,10.701983 7.0820312,10.126953 6.4351222,9.5519231 6,8.7083327 6,7.5 Z m -5,5 v 0.5 5.5 h 9 V 13.5 13 H 9 V 13.5 15 H 2 V 10.5 10 Z"
     id="path1" />
</svg>
