<?xml version="1.0" encoding="UTF-8" standalone="no"?>
<svg
   width="24"
   height="24"
   fill="none"
   viewBox="0 0 24 24"
   version="1.1"
   id="svg1"
   xmlns="http://www.w3.org/2000/svg"
   xmlns:svg="http://www.w3.org/2000/svg">
  <defs
     id="defs1" />
  <path
     style="fill:currentColor;stroke-linecap:square"
     d="M 9,2 V 2.5 6 H 6.5 6 V 7 H 6.5 7 v 4 c 0,1.6 0.5101496,2.954235 1.6113281,4.314453 C 10.095514,17.147541 12.321556,18 14,18 15.678444,18 17.904486,17.147541 19.388672,15.314453 20.48985,13.954235 21,12.6 21,11 V 7 H 21.5 22 V 6 H 21.5 19 V 2.5 2 H 18 V 2.5 6 H 10 V 2.5 2 Z M 8,7 h 1 1 8 1 1 v 4 c 0,1.4 -0.38985,2.451765 -1.388672,3.685547 C 17.347514,16.246459 15.321556,17 14,17 12.678444,17 10.652486,16.246459 9.3886719,14.685547 8.3898504,13.451765 8,12.4 8,11 Z m -6,8 v 0.5 7.5 h 12.5 v -3 -0.5 h -1 V 20 22 H 3 V 15.5 15 Z"
     id="path1" />
</svg>
