<?xml version="1.0" encoding="UTF-8" standalone="no"?>
<svg
   width="24"
   height="24"
   fill="none"
   viewBox="0 0 24 24"
   version="1.1"
   id="svg2"
   xmlns="http://www.w3.org/2000/svg"
   xmlns:svg="http://www.w3.org/2000/svg">
  <defs
     id="defs2" />
  <path
     style="fill:currentColor;stroke-linecap:round;stroke-linejoin:round"
     d="M 1.5,1 A 0.50005,0.50005 0 0 0 1,1.5 v 22 A 0.50005,0.50005 0 0 0 1.5,24 h 22 A 0.50005,0.50005 0 0 0 24,23.5 V 1.5 A 0.50005,0.50005 0 0 0 23.5,1 Z M 2,2 H 23 V 23 H 2 Z"
     id="path1" />
  <path
     style="fill:currentColor;stroke-linecap:round;stroke-linejoin:round"
     d="m 10.8125,9.109375 a 0.50005,0.50005 0 0 0 -0.697266,0.070312 L 5.1152344,15.179688 a 0.5,0.5 0 0 0 0.064453,0.705078 0.5,0.5 0 0 0 0.7050781,-0.06445 l 4.6855474,-5.623047 4.617187,3.693359 a 0.50005,0.50005 0 0 0 0.666016,-0.03711 l 4,-4.0000004 a 0.5,0.5 0 0 0 0,-0.7070312 0.5,0.5 0 0 0 -0.707032,0 l -3.683593,3.6835936 z"
     id="path2" />
</svg>
