<?xml version="1.0" encoding="UTF-8" standalone="no"?>
<svg
   width="16"
   height="16"
   fill="none"
   viewBox="0 0 16 16"
   version="1.1"
   id="svg1"
   xmlns="http://www.w3.org/2000/svg"
   xmlns:svg="http://www.w3.org/2000/svg">
  <defs
     id="defs1" />
  <path
     style="fill:currentColor;stroke-linecap:round;stroke-linejoin:round"
     d="M 1.5,1 C 0.67749519,1 0,1.6774952 0,2.5 v 8 C 0,11.322505 0.67749519,12 1.5,12 H 4 v 3.5 a 0.50005,0.50005 0 0 0 0.8261719,0.378906 L 9.3515625,12 H 14.5 c 0.822505,0 1.5,-0.677495 1.5,-1.5 v -8 C 16,1.6774952 15.322505,1 14.5,1 Z m 0,1 h 13 C 14.782065,2 15,2.2179353 15,2.5 v 8 C 15,10.782065 14.782065,11 14.5,11 H 9.1679688 A 0.50005,0.50005 0 0 0 8.8417969,11.121094 L 5,14.414063 V 11.5 A 0.50005,0.50005 0 0 0 4.5,11 h -3 C 1.2179353,11 1,10.782065 1,10.5 v -8 C 1,2.2179353 1.2179353,2 1.5,2 Z"
     id="path1" />
</svg>
