<?xml version="1.0" encoding="UTF-8" standalone="no"?>
<svg
   width="24"
   height="24"
   fill="none"
   viewBox="0 0 24 24"
   version="1.1"
   id="svg1"
   xmlns="http://www.w3.org/2000/svg"
   xmlns:svg="http://www.w3.org/2000/svg">
  <defs
     id="defs1" />
  <path
     style="fill:currentColor;stroke-linecap:round;stroke-linejoin:round"
     d="M 1.5,2 A 0.50005,0.50005 0 0 0 1,2.5 v 15 A 0.50005,0.50005 0 0 0 1.5,18 H 6 v 4.5 a 0.50005,0.50005 0 0 0 0.7910156,0.40625 L 13.660156,18 H 23.5 A 0.50005,0.50005 0 0 0 24,17.5 V 2.5 A 0.50005,0.50005 0 0 0 23.5,2 Z M 2,3 h 21 v 14 h -9.5 a 0.50005,0.50005 0 0 0 -0.291016,0.09375 L 7,21.529297 V 17.5 A 0.50005,0.50005 0 0 0 6.5,17 H 2 Z"
     id="path1" />
</svg>
