<?xml version="1.0" encoding="UTF-8" standalone="no"?>
<svg
   width="24"
   height="24"
   fill="none"
   viewBox="0 0 24 24"
   version="1.1"
   id="svg1"
   xmlns="http://www.w3.org/2000/svg"
   xmlns:svg="http://www.w3.org/2000/svg">
  <defs
     id="defs1" />
  <path
     style="fill:currentColor;stroke-linecap:round;stroke-linejoin:round"
     d="M 2.5,3 A 0.50005,0.50005 0 0 0 2,3.5 v 6 A 0.50005,0.50005 0 0 0 2.5,10 h 6 A 0.50005,0.50005 0 0 0 9,9.5 v -6 A 0.50005,0.50005 0 0 0 8.5,3 Z M 3,4 H 8 V 9 H 3 Z m 9.5,2 A 0.5,0.5 0 0 0 12,6.5 0.5,0.5 0 0 0 12.5,7 h 11 A 0.5,0.5 0 0 0 24,6.5 0.5,0.5 0 0 0 23.5,6 Z M 10.146484,14.146484 4.5,19.792969 2.8535156,18.146484 a 0.5,0.5 0 0 0 -0.7070312,0 0.5,0.5 0 0 0 0,0.707032 l 2,2 a 0.50005,0.50005 0 0 0 0.7070312,0 l 6.0000004,-6 a 0.5,0.5 0 0 0 0,-0.707032 0.5,0.5 0 0 0 -0.707032,0 z M 12.5,18 A 0.5,0.5 0 0 0 12,18.5 0.5,0.5 0 0 0 12.5,19 h 11 A 0.5,0.5 0 0 0 24,18.5 0.5,0.5 0 0 0 23.5,18 Z"
     id="path1" />
</svg>
