<?xml version="1.0" encoding="UTF-8" standalone="no"?>
<svg
   width="16"
   height="16"
   fill="none"
   viewBox="0 0 16 16"
   version="1.1"
   id="svg1"
   xmlns="http://www.w3.org/2000/svg"
   xmlns:svg="http://www.w3.org/2000/svg">
  <defs
     id="defs1" />
  <path
     style="fill:currentColor;stroke-linecap:round;stroke-linejoin:round"
     d="M 0.5,0 A 0.50005,0.50005 0 0 0 0,0.5 v 6 A 0.50005,0.50005 0 0 0 0.5,7 h 6 A 0.50005,0.50005 0 0 0 7,6.5 v -6 A 0.50005,0.50005 0 0 0 6.5,0 Z M 1,1 H 6 V 6 H 1 Z M 9.5,3 A 0.5,0.5 0 0 0 9,3.5 0.5,0.5 0 0 0 9.5,4 h 6 A 0.5,0.5 0 0 0 16,3.5 0.5,0.5 0 0 0 15.5,3 Z M 6.8125,9.109375 A 0.5,0.5 0 0 0 6.109375,9.1875 L 2.4589844,13.751953 0.85351563,12.146484 a 0.5,0.5 0 0 0 -0.70703126,0 0.5,0.5 0 0 0 0,0.707032 l 2.00000003,2 A 0.50005,0.50005 0 0 0 2.890625,14.8125 l 4,-5 A 0.5,0.5 0 0 0 6.8125,9.109375 Z M 9.5,12 A 0.5,0.5 0 0 0 9,12.5 0.5,0.5 0 0 0 9.5,13 h 6 A 0.5,0.5 0 0 0 16,12.5 0.5,0.5 0 0 0 15.5,12 Z"
     id="path1" />
</svg>
