<?xml version="1.0" encoding="UTF-8" standalone="no"?>
<svg
   width="16"
   height="16"
   fill="none"
   viewBox="0 0 16 16"
   version="1.1"
   id="svg1"
   xmlns="http://www.w3.org/2000/svg"
   xmlns:svg="http://www.w3.org/2000/svg">
  <defs
     id="defs1" />
  <path
     style="fill:currentColor;stroke-linecap:round;stroke-linejoin:round"
     d="M 3.5,0 A 0.50005,0.50005 0 0 0 3,0.5 v 3 A 0.50005,0.50005 0 0 0 3.5,4 h 9 A 0.50005,0.50005 0 0 0 13,3.5 v -3 A 0.50005,0.50005 0 0 0 12.5,0 Z M 4,1 h 8 V 3 H 4 Z M 6,5 A 0.5,0.5 0 0 0 5.5,5.5 V 8.8164063 L 2.2070313,12.708984 C 1.1321012,13.981613 2.0679519,15.999993 3.734375,16 h 8.53125 c 1.666423,-7e-6 2.602274,-2.018387 1.527344,-3.291016 v -0.002 L 10.5,8.8164063 V 5.5 A 0.5,0.5 0 0 0 10,5 0.5,0.5 0 0 0 9.5,5.5 V 9 A 0.50005,0.50005 0 0 0 9.6191406,9.3222656 L 13.029297,13.353516 C 13.602369,14.030678 13.152733,14.999996 12.265625,15 h -8.53125 c -0.8871079,-4e-6 -1.3367436,-0.969322 -0.7636719,-1.646484 L 6.3808594,9.3222656 A 0.50005,0.50005 0 0 0 6.5,9 V 5.5 A 0.5,0.5 0 0 0 6,5 Z"
     id="path1" />
</svg>
