<?xml version="1.0" encoding="UTF-8" standalone="no"?>
<svg
   width="24"
   height="24"
   fill="none"
   viewBox="0 0 24 24"
   version="1.1"
   id="svg1"
   xmlns="http://www.w3.org/2000/svg"
   xmlns:svg="http://www.w3.org/2000/svg">
  <defs
     id="defs1" />
  <path
     style="fill:currentColor;stroke-linecap:round;stroke-linejoin:round"
     d="M 6.5,1 A 0.50005,0.50005 0 0 0 6,1.5 v 4 A 0.50005,0.50005 0 0 0 6.5,6 h 12 A 0.50005,0.50005 0 0 0 19,5.5 v -4 A 0.50005,0.50005 0 0 0 18.5,1 Z M 7,2 H 18 V 5 H 7 Z M 9.5,8 A 0.5,0.5 0 0 0 9,8.5 v 4.824219 L 4.359375,19.125 C 2.8089251,21.062528 4.2177054,23.999045 6.6992187,24 H 18.298828 c 2.482572,0.001 3.894861,-2.936645 2.34375,-4.875 L 16,13.324219 V 8.5 A 0.5,0.5 0 0 0 15.5,8 0.5,0.5 0 0 0 15,8.5 v 5 a 0.50005,0.50005 0 0 0 0.109375,0.3125 l 4.753906,5.9375 c 1.069182,1.336108 0.148738,3.250711 -1.5625,3.25 H 6.6992187 C 4.9887835,22.999342 4.0699917,21.085482 5.1386719,19.75 L 9.890625,13.8125 A 0.50005,0.50005 0 0 0 10,13.5 v -5 A 0.5,0.5 0 0 0 9.5,8 Z"
     id="path1" />
</svg>
