<?xml version="1.0" encoding="UTF-8" standalone="no"?>
<svg
   width="16"
   height="16"
   fill="none"
   viewBox="0 0 16 16"
   version="1.1"
   id="svg1"
   xmlns="http://www.w3.org/2000/svg"
   xmlns:svg="http://www.w3.org/2000/svg">
  <defs
     id="defs1" />
  <path
     style="fill:currentColor;stroke-linecap:round;stroke-linejoin:round"
     d="M 3.5,1 A 0.5,0.5 0 0 0 3,1.5 V 3 H 1.5996094 C 0.72187609,3 0,3.7218761 0,4.5996094 V 11.400391 C 0,12.278124 0.72187609,13 1.5996094,13 H 3 v 1.5 A 0.5,0.5 0 0 0 3.5,15 0.5,0.5 0 0 0 4,14.5 V 13 h 2 v 1.5 A 0.5,0.5 0 0 0 6.5,15 0.5,0.5 0 0 0 7,14.5 V 13 h 2 v 1.5 A 0.5,0.5 0 0 0 9.5,15 0.5,0.5 0 0 0 10,14.5 V 13 h 2 v 1.5 A 0.5,0.5 0 0 0 12.5,15 0.5,0.5 0 0 0 13,14.5 V 13 h 1.400391 C 15.278124,13 16,12.278124 16,11.400391 V 4.5996094 C 16,3.7218761 15.278124,3 14.400391,3 H 13 V 1.5 A 0.5,0.5 0 0 0 12.5,1 0.5,0.5 0 0 0 12,1.5 V 3 H 10 V 1.5 A 0.5,0.5 0 0 0 9.5,1 0.5,0.5 0 0 0 9,1.5 V 3 H 7 V 1.5 A 0.5,0.5 0 0 0 6.5,1 0.5,0.5 0 0 0 6,1.5 V 3 H 4 V 1.5 A 0.5,0.5 0 0 0 3.5,1 Z M 1.5996094,4 H 3.5 h 3 3 3 1.900391 C 14.737684,4 15,4.2623162 15,4.5996094 V 11.400391 C 15,11.737684 14.737684,12 14.400391,12 H 12.5 9.5 6.5 3.5 1.5996094 C 1.2623162,12 1,11.737684 1,11.400391 V 4.5996094 C 1,4.2623162 1.2623162,4 1.5996094,4 Z"
     id="path1" />
</svg>
