<?xml version="1.0" encoding="UTF-8" standalone="no"?>
<svg
   width="16"
   height="16"
   fill="none"
   viewBox="0 0 16 16"
   version="1.1"
   id="svg1"
   xmlns="http://www.w3.org/2000/svg"
   xmlns:svg="http://www.w3.org/2000/svg">
  <defs
     id="defs1" />
  <path
     style="fill:currentColor;stroke-linecap:round;stroke-linejoin:round"
     d="M 5.5,0 A 0.5,0.5 0 0 0 5,0.5 V 2 H 3.5996094 C 2.7218761,2 2,2.7218761 2,3.5996094 V 5 H 0.5 A 0.5,0.5 0 0 0 0,5.5 0.5,0.5 0 0 0 0.5,6 H 2 v 4 H 0.5 A 0.5,0.5 0 0 0 0,10.5 0.5,0.5 0 0 0 0.5,11 H 2 v 1.400391 C 2,13.278124 2.7218761,14 3.5996094,14 H 5 v 1.5 A 0.5,0.5 0 0 0 5.5,16 0.5,0.5 0 0 0 6,15.5 V 14 h 4 v 1.5 A 0.5,0.5 0 0 0 10.5,16 0.5,0.5 0 0 0 11,15.5 V 14 h 1.400391 C 13.278124,14 14,13.278124 14,12.400391 V 11 h 1.5 A 0.5,0.5 0 0 0 16,10.5 0.5,0.5 0 0 0 15.5,10 H 14 V 6 h 1.5 A 0.5,0.5 0 0 0 16,5.5 0.5,0.5 0 0 0 15.5,5 H 14 V 3.5996094 C 14,2.7218761 13.278124,2 12.400391,2 H 11 V 0.5 A 0.5,0.5 0 0 0 10.5,0 0.5,0.5 0 0 0 10,0.5 V 2 H 6 V 0.5 A 0.5,0.5 0 0 0 5.5,0 Z M 3.5996094,3 H 5.5 h 5 1.900391 C 12.737684,3 13,3.2623162 13,3.5996094 V 5.5 v 5 1.900391 C 13,12.737684 12.737684,13 12.400391,13 H 10.5 5.5 3.5996094 C 3.2623162,13 3,12.737684 3,12.400391 V 10.5 5.5 3.5996094 C 3,3.2623162 3.2623162,3 3.5996094,3 Z"
     id="path1" />
</svg>
