<?xml version="1.0" encoding="UTF-8" standalone="no"?>
<svg
   width="24"
   height="24"
   fill="none"
   viewBox="0 0 24 24"
   version="1.1"
   id="svg2"
   xmlns="http://www.w3.org/2000/svg"
   xmlns:svg="http://www.w3.org/2000/svg">
  <defs
     id="defs2" />
  <path
     style="fill:currentColor;stroke-linecap:round;stroke-linejoin:round"
     d="M 12.5,1 A 0.5,0.5 0 0 0 12,1.5 V 3 H 11.214844 C 9.9975164,3 9,3.998583 9,5.2148437 V 6 H 7.5 A 0.5,0.5 0 0 0 7,6.5 0.5,0.5 0 0 0 7.5,7 H 9 v 5 H 7.5 A 0.5,0.5 0 0 0 7,12.5 0.5,0.5 0 0 0 7.5,13 H 9 v 0.785156 C 9,15.002484 9.998583,16 11.214844,16 H 12 v 1.5 A 0.5,0.5 0 0 0 12.5,18 0.5,0.5 0 0 0 13,17.5 V 16 h 5 v 1.5 A 0.5,0.5 0 0 0 18.5,18 0.5,0.5 0 0 0 19,17.5 V 16 h 0.785156 C 21.002484,16 22,15.001417 22,13.785156 V 13 h 1.5 A 0.5,0.5 0 0 0 24,12.5 0.5,0.5 0 0 0 23.5,12 H 22 V 7 h 1.5 A 0.5,0.5 0 0 0 24,6.5 0.5,0.5 0 0 0 23.5,6 H 22 V 5.2148437 C 22,3.998583 21.002484,3 19.785156,3 H 19 V 1.5 A 0.5,0.5 0 0 0 18.5,1 0.5,0.5 0 0 0 18,1.5 V 3 H 13 V 1.5 A 0.5,0.5 0 0 0 12.5,1 Z M 11.214844,4 H 12.5 h 6 1.285156 C 20.461829,4 21,4.5391045 21,5.2148437 V 6.5 v 6 1.285156 C 21,14.460896 20.461829,15 19.785156,15 H 18.5 12.5 11.214844 C 10.539104,15 10,14.461829 10,13.785156 V 12.5 6.5 5.2148437 C 10,4.5391045 10.538171,4 11.214844,4 Z M 1.5,12 A 0.5,0.5 0 0 0 1,12.5 0.5,0.5 0 0 0 1.5,13 h 2 A 0.5,0.5 0 0 0 4,12.5 0.5,0.5 0 0 0 3.5,12 Z m 0,6 A 0.5,0.5 0 0 0 1,18.5 0.5,0.5 0 0 0 1.5,19 h 2 A 0.5,0.5 0 0 0 4,18.5 0.5,0.5 0 0 0 3.5,18 Z m 5,3 A 0.5,0.5 0 0 0 6,21.5 v 2 A 0.5,0.5 0 0 0 6.5,24 0.5,0.5 0 0 0 7,23.5 v -2 A 0.5,0.5 0 0 0 6.5,21 Z m 6,0 A 0.5,0.5 0 0 0 12,21.5 v 2 A 0.5,0.5 0 0 0 12.5,24 0.5,0.5 0 0 0 13,23.5 v -2 A 0.5,0.5 0 0 0 12.5,21 Z"
     id="path1" />
  <path
     style="fill:currentColor;stroke-linecap:round;stroke-linejoin:round"
     d="M 5.2148437,9 C 3.9982306,9 3,9.9982306 3,11.214844 v 8.570312 C 3,21.002484 3.998583,22 5.2148437,22 H 13.785156 C 15.002132,22 16,21.002132 16,19.785156 V 19.5 A 0.5,0.5 0 0 0 15.5,19 0.5,0.5 0 0 0 15,19.5 v 0.285156 C 15,20.462181 14.462181,21 13.785156,21 H 5.2148437 C 4.5391045,21 4,20.461829 4,19.785156 V 11.214844 C 4,10.539457 4.5394569,10 5.2148437,10 H 5.5 A 0.5,0.5 0 0 0 6,9.5 0.5,0.5 0 0 0 5.5,9 Z"
     id="path2" />
</svg>
