<?xml version="1.0" encoding="UTF-8" standalone="no"?>
<svg
   width="24"
   height="24"
   fill="none"
   viewBox="0 0 24 24"
   version="1.1"
   id="svg1"
   xmlns="http://www.w3.org/2000/svg"
   xmlns:svg="http://www.w3.org/2000/svg">
  <defs
     id="defs1" />
  <path
     style="fill:currentColor;stroke-linecap:round;stroke-linejoin:round"
     d="M 4.5,2 A 0.5,0.5 0 0 0 4,2.5 V 5 H 3.5 C 2.1252104,5 1,6.1252104 1,7.5 v 9 C 1,17.87479 2.1252104,19 3.5,19 H 4 v 2.5 A 0.5,0.5 0 0 0 4.5,22 0.5,0.5 0 0 0 5,21.5 V 19 h 3 v 2.5 A 0.5,0.5 0 0 0 8.5,22 0.5,0.5 0 0 0 9,21.5 V 19 h 3 v 2.5 A 0.5,0.5 0 0 0 12.5,22 0.5,0.5 0 0 0 13,21.5 V 19 h 3 v 2.5 A 0.5,0.5 0 0 0 16.5,22 0.5,0.5 0 0 0 17,21.5 V 19 h 3 v 2.5 A 0.5,0.5 0 0 0 20.5,22 0.5,0.5 0 0 0 21,21.5 V 19 h 0.5 c 1.37479,0 2.5,-1.12521 2.5,-2.5 v -9 C 24,6.1252104 22.87479,5 21.5,5 H 21 V 2.5 A 0.5,0.5 0 0 0 20.5,2 0.5,0.5 0 0 0 20,2.5 V 5 H 17 V 2.5 A 0.5,0.5 0 0 0 16.5,2 0.5,0.5 0 0 0 16,2.5 V 5 H 13 V 2.5 A 0.5,0.5 0 0 0 12.5,2 0.5,0.5 0 0 0 12,2.5 V 5 H 9 V 2.5 A 0.5,0.5 0 0 0 8.5,2 0.5,0.5 0 0 0 8,2.5 V 5 H 5 V 2.5 A 0.5,0.5 0 0 0 4.5,2 Z m -1,4 h 1 4 4 4 4 1 C 22.334349,6 23,6.6656506 23,7.5 v 9 c 0,0.834349 -0.665651,1.5 -1.5,1.5 h -1 -4 -4 -4 -4 -1 C 2.6656506,18 2,17.334349 2,16.5 v -9 C 2,6.6656506 2.6656506,6 3.5,6 Z"
     id="path1" />
</svg>
