<?xml version="1.0" encoding="UTF-8" standalone="no"?>
<svg
   width="16"
   height="16"
   fill="none"
   viewBox="0 0 16 16"
   version="1.1"
   id="svg1"
   xmlns="http://www.w3.org/2000/svg"
   xmlns:svg="http://www.w3.org/2000/svg">
  <defs
     id="defs1" />
  <path
     style="fill:currentColor;stroke-linecap:round;stroke-linejoin:round"
     d="M 7.5,0 A 0.5,0.5 0 0 0 7,0.5 V 1 H 6.5996094 C 5.7218761,1 5,1.7218761 5,2.5996094 V 3 H 4.5 A 0.5,0.5 0 0 0 4,3.5 0.5,0.5 0 0 0 4.5,4 H 5 V 8 H 4.5 A 0.5,0.5 0 0 0 4,8.5 0.5,0.5 0 0 0 4.5,9 H 5 V 9.4003906 C 5,10.278124 5.7218761,11 6.5996094,11 H 7 v 0.5 A 0.5,0.5 0 0 0 7.5,12 0.5,0.5 0 0 0 8,11.5 V 11 h 4 v 0.5 A 0.5,0.5 0 0 0 12.5,12 0.5,0.5 0 0 0 13,11.5 V 11 h 0.400391 C 14.278124,11 15,10.278124 15,9.4003906 V 9 h 0.5 A 0.5,0.5 0 0 0 16,8.5 0.5,0.5 0 0 0 15.5,8 H 15 V 4 h 0.5 A 0.5,0.5 0 0 0 16,3.5 0.5,0.5 0 0 0 15.5,3 H 15 V 2.5996094 C 15,1.7218761 14.278124,1 13.400391,1 H 13 V 0.5 A 0.5,0.5 0 0 0 12.5,0 0.5,0.5 0 0 0 12,0.5 V 1 H 8 V 0.5 A 0.5,0.5 0 0 0 7.5,0 Z M 6.5996094,2 H 7.5 h 5 0.900391 C 13.737684,2 14,2.2623162 14,2.5996094 V 3.5 8.5 9.4003906 C 14,9.7376838 13.737684,10 13.400391,10 H 12.5 7.5 6.5996094 C 6.2623162,10 6,9.7376838 6,9.4003906 V 8.5 3.5 2.5996094 C 6,2.2623162 6.2623162,2 6.5996094,2 Z m -4,3 C 1.7218761,5 1,5.7218761 1,6.5996094 V 7 H 0.5 A 0.5,0.5 0 0 0 0,7.5 0.5,0.5 0 0 0 0.5,8 H 1 v 4 H 0.5 A 0.5,0.5 0 0 0 0,12.5 0.5,0.5 0 0 0 0.5,13 H 1 v 0.400391 C 1,14.278124 1.7218761,15 2.5996094,15 H 3 v 0.5 A 0.5,0.5 0 0 0 3.5,16 0.5,0.5 0 0 0 4,15.5 V 15 h 4 v 0.5 A 0.5,0.5 0 0 0 8.5,16 0.5,0.5 0 0 0 9,15.5 V 15 H 9.4003906 C 10.278124,15 11,14.278124 11,13.400391 V 12.5 A 0.5,0.5 0 0 0 10.5,12 0.5,0.5 0 0 0 10,12.5 v 0.900391 C 10,13.737684 9.7376838,14 9.4003906,14 H 8.5 3.5 2.5996094 C 2.2623162,14 2,13.737684 2,13.400391 V 12.5 7.5 6.5996094 C 2,6.2623162 2.2623162,6 2.5996094,6 H 3.5 A 0.5,0.5 0 0 0 4,5.5 0.5,0.5 0 0 0 3.5,5 Z"
     id="path1" />
</svg>
