<?xml version="1.0" encoding="UTF-8" standalone="no"?>
<svg
   width="24"
   height="24"
   fill="none"
   viewBox="0 0 24 24"
   version="1.1"
   id="svg1"
   xmlns="http://www.w3.org/2000/svg"
   xmlns:svg="http://www.w3.org/2000/svg">
  <defs
     id="defs1" />
  <path
     style="fill:currentColor;stroke-linecap:round;stroke-linejoin:round"
     d="M 8.5,1 A 0.5,0.5 0 0 0 8,1.5 V 4 H 6.5 C 5.1252104,4 4,5.1252104 4,6.5 V 8 H 1.5 A 0.5,0.5 0 0 0 1,8.5 0.5,0.5 0 0 0 1.5,9 H 4 v 3 H 1.5 A 0.5,0.5 0 0 0 1,12.5 0.5,0.5 0 0 0 1.5,13 H 4 v 3 H 1.5 A 0.5,0.5 0 0 0 1,16.5 0.5,0.5 0 0 0 1.5,17 H 4 v 1.5 C 4,19.87479 5.1252104,21 6.5,21 H 8 v 2.5 A 0.5,0.5 0 0 0 8.5,24 0.5,0.5 0 0 0 9,23.5 V 21 h 3 v 2.5 A 0.5,0.5 0 0 0 12.5,24 0.5,0.5 0 0 0 13,23.5 V 21 h 3 v 2.5 A 0.5,0.5 0 0 0 16.5,24 0.5,0.5 0 0 0 17,23.5 V 21 h 1.5 C 19.87479,21 21,19.87479 21,18.5 V 17 h 2.5 A 0.5,0.5 0 0 0 24,16.5 0.5,0.5 0 0 0 23.5,16 H 21 v -3 h 2.5 A 0.5,0.5 0 0 0 24,12.5 0.5,0.5 0 0 0 23.5,12 H 21 V 9 h 2.5 A 0.5,0.5 0 0 0 24,8.5 0.5,0.5 0 0 0 23.5,8 H 21 V 6.5 C 21,5.1252104 19.87479,4 18.5,4 H 17 V 1.5 A 0.5,0.5 0 0 0 16.5,1 0.5,0.5 0 0 0 16,1.5 V 4 H 13 V 1.5 A 0.5,0.5 0 0 0 12.5,1 0.5,0.5 0 0 0 12,1.5 V 4 H 9 V 1.5 A 0.5,0.5 0 0 0 8.5,1 Z m -2,4 h 2 4 4 2 C 19.334349,5 20,5.6656506 20,6.5 v 2 4 4 2 c 0,0.834349 -0.665651,1.5 -1.5,1.5 h -2 -4 -4 -2 C 5.6656506,20 5,19.334349 5,18.5 v -2 -4 -4 -2 C 5,5.6656506 5.6656506,5 6.5,5 Z"
     id="path1" />
</svg>
