<?xml version="1.0" encoding="UTF-8" standalone="no"?>
<svg
   width="24"
   height="24"
   fill="none"
   viewBox="0 0 24 24"
   version="1.1"
   id="svg1"
   xmlns="http://www.w3.org/2000/svg"
   xmlns:svg="http://www.w3.org/2000/svg">
  <defs
     id="defs1" />
  <path
     style="fill:currentColor;stroke-linecap:square"
     d="m 7,1 v 7 h 3.5 V 7.5 C 10.5,6.9583337 10.685122,6.6147437 10.957031,6.3730469 11.22894,6.1313501 11.611111,6 12,6 12.388889,6 12.77106,6.1313501 13.042969,6.3730469 13.314878,6.6147437 13.5,6.9583337 13.5,7.5 V 8 H 17 V 1 Z m 1,1 h 8 V 7 H 14.289063 C 14.173829,6.4773009 14.057566,5.9385397 13.707031,5.6269531 13.22894,5.2019836 12.611111,5 12,5 11.388889,5 10.77106,5.2019836 10.292969,5.6269531 9.9424337,5.9385397 9.8261708,6.4773009 9.7109375,7 H 8 Z M 2,3 V 23 H 22 V 3 H 19.5 19 V 4 H 19.5 21 V 22 H 3 V 4 H 4.5 5 V 3 H 4.5 Z m 9.5,7 v 0.5 4 H 7.5 7 v 1 h 0.5 4 v 4 0.5 h 1 v -0.5 -4 h 4 0.5 v -1 h -0.5 -4 v -4 -0.5 z"
     id="path1" />
</svg>
