<?xml version="1.0" encoding="UTF-8" standalone="no"?>
<svg
   width="24"
   height="24"
   fill="none"
   viewBox="0 0 24 24"
   version="1.1"
   id="svg2"
   xmlns="http://www.w3.org/2000/svg"
   xmlns:svg="http://www.w3.org/2000/svg">
  <defs
     id="defs2" />
  <path
     style="fill:currentColor;stroke-linecap:round;stroke-linejoin:round"
     d="M 12.5,1 C 6.1547668,1 1,6.1547668 1,12.5 1,18.845233 6.1547668,24 12.5,24 18.845233,24 24,18.845233 24,12.5 24,6.1547668 18.845233,1 12.5,1 Z m 0,1 C 18.304767,2 23,6.6952332 23,12.5 23,18.304767 18.304767,23 12.5,23 6.6952332,23 2,18.304767 2,12.5 2,6.6952332 6.6952332,2 12.5,2 Z"
     id="path1" />
  <path
     style="fill:currentColor;stroke-linecap:round;stroke-linejoin:round"
     d="M 12.5,4 A 0.5,0.5 0 0 0 12,4.5 v 8 a 0.50005,0.50005 0 0 0 0.5,0.5 h 6 A 0.5,0.5 0 0 0 19,12.5 0.5,0.5 0 0 0 18.5,12 H 13 V 4.5 A 0.5,0.5 0 0 0 12.5,4 Z"
     id="path2" />
</svg>
