<?xml version="1.0" encoding="UTF-8" standalone="no"?>
<svg
   width="16"
   height="16"
   fill="none"
   viewBox="0 0 16 16"
   version="1.1"
   id="svg1"
   xmlns="http://www.w3.org/2000/svg"
   xmlns:svg="http://www.w3.org/2000/svg">
  <defs
     id="defs1" />
  <path
     style="fill:currentColor;stroke-linecap:round;stroke-linejoin:round"
     d="M 8.5,1 C 4.3637873,1 1,4.3637843 1,8.5 1,12.636216 4.3637873,16 8.5,16 12.636213,16 16,12.636216 16,8.5 16,4.3637843 12.636213,1 8.5,1 Z m 0,1 C 12.095774,2 15,4.904224 15,8.5 15,12.095776 12.095774,15 8.5,15 4.9042264,15 2,12.095776 2,8.5 2,4.904224 4.9042264,2 8.5,2 Z m 0,1 A 0.5,0.5 0 0 0 8,3.5 v 5 A 0.50005,0.50005 0 0 0 8.5,9 h 4 A 0.5,0.5 0 0 0 13,8.5 0.5,0.5 0 0 0 12.5,8 H 9 V 3.5 A 0.5,0.5 0 0 0 8.5,3 Z"
     id="path1" />
</svg>
