<?xml version="1.0" encoding="UTF-8" standalone="no"?>
<svg
   width="16"
   height="16"
   fill="none"
   viewBox="0 0 16 16"
   version="1.1"
   id="svg1"
   xmlns="http://www.w3.org/2000/svg"
   xmlns:svg="http://www.w3.org/2000/svg">
  <defs
     id="defs1" />
  <path
     style="fill:currentColor;stroke-linecap:round;stroke-linejoin:round;stroke-miterlimit:10"
     d="M 7.5,2 C 6.1388889,2 4.7710597,2.4519838 3.7304688,3.3769531 2.7332837,4.2633395 2.0936381,5.6147599 2.0390625,7.3007812 0.65155652,7.8085665 -0.10655454,9.0575014 0.01757813,10.298828 0.1550814,11.673861 1.2527939,12.998261 3,13 h 10 c 0.958333,0 1.739744,-0.377378 2.248047,-0.949219 C 15.75635,11.47894 16,10.736111 16,10 16,9.2638889 15.75635,8.5210597 15.248047,7.9492187 14.739744,7.3773778 13.958333,7 13,7 c -0.0336,0 -0.06434,0.00865 -0.09766,0.00977 C 12.778423,5.4739278 12.203246,4.2069213 11.269531,3.3769531 10.22894,2.4519838 8.8611111,2 7.5,2 Z m 0,1 C 8.6388889,3 9.7710597,3.3813503 10.605469,4.1230469 11.439878,4.8647435 12,5.9583341 12,7.5 c 0,-0.081039 -0.0059,-0.059811 -0.0059,0.050781 A 0.50005,0.50005 0 0 0 12.59375,8.0410156 C 12.72553,8.0143362 12.861682,8 13,8 13.708333,8 14.176923,8.2476222 14.501953,8.6132813 14.826983,8.9789403 15,9.4861111 15,10 15,10.513889 14.826983,11.02106 14.501953,11.386719 14.176923,11.752378 13.708333,12 13,12 H 3 C 1.7335984,11.99874 1.1066482,11.148513 1.0117187,10.199219 0.91678933,9.2499245 1.3643939,8.2910703 2.6054688,8.0390625 A 0.50005,0.50005 0 0 0 3.0058594,7.5507812 C 3.0058594,7.435742 3,7.4189608 3,7.5 3,5.9583341 3.5601222,4.8647435 4.3945312,4.1230469 5.2289403,3.3813503 6.3611111,3 7.5,3 Z"
     id="path1" />
</svg>
