<?xml version="1.0" encoding="UTF-8" standalone="no"?>
<svg
   width="24"
   height="24"
   fill="none"
   viewBox="0 0 24 24"
   version="1.1"
   id="svg1"
   xmlns="http://www.w3.org/2000/svg"
   xmlns:svg="http://www.w3.org/2000/svg">
  <defs
     id="defs1" />
  <path
     style="fill:currentColor;stroke-linecap:square;stroke-miterlimit:10"
     d="m 11.521484,4.3632812 c -3.9845679,0 -7.2434602,3.1270033 -7.5742184,6.9882818 -1.6633096,0.56234 -2.9238281,2.094476 -2.9238281,3.990234 0.00739,2.362891 1.9300778,4.28753 4.2929687,4.294922 H 18.205078 v 0.002 l 0.476563,-0.002 h 0.002 c 2.363756,-0.0074 4.286808,-1.931162 4.292968,-4.294922 v -0.002 -0.002 c -0.0076,-2.228769 -1.73857,-4.007796 -3.916015,-4.214844 C 18.580512,7.3426568 15.453748,4.3632812 11.521484,4.3632812 Z m 0,0.9550782 c 3.571205,0 6.415062,2.7587546 6.683594,6.2421876 L 18.240234,12 h 0.439453 c 1.847209,0.0058 3.335357,1.491205 3.34375,3.337891 -0.0048,1.849578 -1.494174,3.337961 -3.34375,3.34375 H 5.3203125 5.3183594 C 3.4703991,18.674793 1.9823443,17.188064 1.9765625,15.339844 1.9774705,13.745446 3.0725427,12.41223 4.4726562,12.082031 L 4.8222656,12 4.8417969,11.640625 C 5.019718,8.1725604 7.9591844,5.3183594 11.521484,5.3183594 Z"
     id="path1" />
</svg>
