<?xml version="1.0" encoding="UTF-8" standalone="no"?>
<svg
   width="24"
   height="24"
   fill="none"
   viewBox="0 0 24 24"
   version="1.1"
   id="svg1"
   xmlns="http://www.w3.org/2000/svg"
   xmlns:svg="http://www.w3.org/2000/svg">
  <defs
     id="defs1" />
  <path
     style="fill:currentColor;stroke-linecap:round;stroke-linejoin:round"
     d="M 12.5,1 C 11.375,1 10.468589,1.4398778 9.8769531,2.1054688 9.285317,2.7710597 9,3.6388889 9,4.5 9,5.3611111 9.285317,6.2289403 9.8769531,6.8945312 10.468589,7.5601222 11.375,8 12.5,8 13.625,8 14.531411,7.5601222 15.123047,6.8945312 15.714683,6.2289403 16,5.3611111 16,4.5 16,3.6388889 15.714683,2.7710597 15.123047,2.1054688 14.531411,1.4398778 13.625,1 12.5,1 Z m 0,1 c 0.875,0 1.46859,0.3101222 1.876953,0.7695313 C 14.785317,3.2289403 15,3.8611111 15,4.5 15,5.1388889 14.785317,5.7710597 14.376953,6.2304687 13.96859,6.6898778 13.375,7 12.5,7 11.625,7 11.03141,6.6898778 10.623047,6.2304687 10.214683,5.7710597 10,5.1388889 10,4.5 10,3.8611111 10.214683,3.2289403 10.623047,2.7695313 11.03141,2.3101222 11.625,2 12.5,2 Z m -4,9 A 0.50005,0.50005 0 0 0 8.1875,11.109375 L 3.9042969,14.537109 C 3.300039,15.020572 3.1641273,15.897364 3.59375,16.541016 l 1.4902344,2.236328 a 0.5,0.5 0 0 0 0.6933593,0.138672 0.5,0.5 0 0 0 0.1386719,-0.69336 L 4.4257812,15.986328 C 4.2792509,15.766799 4.3232041,15.483253 4.5292969,15.318359 L 8,12.541016 V 23.5 A 0.5,0.5 0 0 0 8.5,24 0.5,0.5 0 0 0 9,23.5 V 12 h 7 V 23.5 A 0.5,0.5 0 0 0 16.5,24 0.5,0.5 0 0 0 17,23.5 V 12.541016 l 3.470703,2.777343 c 0.206093,0.164894 0.250046,0.44844 0.103516,0.667969 l -1.490235,2.236328 a 0.5,0.5 0 0 0 0.138672,0.69336 0.5,0.5 0 0 0 0.69336,-0.138672 l 1.490234,-2.236328 c 0.429623,-0.643652 0.293711,-1.520444 -0.310547,-2.003907 L 16.8125,11.109375 a 0.50005,0.50005 0 0 0 -0.0293,-0.0098 A 0.5,0.5 0 0 0 16.5,11 Z"
     id="path1" />
</svg>
