<?xml version="1.0" encoding="UTF-8" standalone="no"?>
<svg
   width="16"
   height="16"
   fill="none"
   viewBox="0 0 16 16"
   version="1.1"
   id="svg1"
   xmlns="http://www.w3.org/2000/svg"
   xmlns:svg="http://www.w3.org/2000/svg">
  <defs
     id="defs1" />
  <path
     style="fill:currentColor;stroke-linecap:round;stroke-linejoin:round"
     d="M 10.679688,1.0332031 A 0.5,0.5 0 0 0 10.033203,1.3203125 L 5.0332031,14.320313 a 0.5,0.5 0 0 0 0.2871094,0.646484 0.5,0.5 0 0 0 0.6464844,-0.287109 L 10.966797,1.6796875 A 0.5,0.5 0 0 0 10.679688,1.0332031 Z M 3.5,4 A 0.5,0.5 0 0 0 3.1464844,4.1464844 l -3.00000003,3 a 0.50005,0.50005 0 0 0 0,0.7070312 L 3.1464844,10.853516 a 0.5,0.5 0 0 0 0.7070312,0 0.5,0.5 0 0 0 0,-0.707032 L 1.2070312,7.5 3.8535156,4.8535156 a 0.5,0.5 0 0 0 0,-0.7070312 A 0.5,0.5 0 0 0 3.5,4 Z m 8.646484,0.1464844 a 0.5,0.5 0 0 0 0,0.7070312 L 14.792969,7.5 12.146484,10.146484 a 0.5,0.5 0 0 0 0,0.707032 0.5,0.5 0 0 0 0.707032,0 l 3,-3.0000004 a 0.50005,0.50005 0 0 0 0,-0.7070312 l -3,-3 a 0.5,0.5 0 0 0 -0.707032,0 z"
     id="path1" />
</svg>
