<?xml version="1.0" encoding="UTF-8" standalone="no"?>
<svg
   width="24"
   height="24"
   fill="none"
   viewBox="0 0 24 24"
   version="1.1"
   id="svg1"
   xmlns="http://www.w3.org/2000/svg"
   xmlns:svg="http://www.w3.org/2000/svg">
  <defs
     id="defs1" />
  <path
     style="fill:currentColor;stroke-linecap:round;stroke-linejoin:round"
     d="m 14.621094,4.015625 a 0.5,0.5 0 0 0 -0.605469,0.3632812 l -4,15.9999998 a 0.5,0.5 0 0 0 0.363281,0.605469 0.5,0.5 0 0 0 0.605469,-0.363281 l 4,-16.0000003 A 0.5,0.5 0 0 0 14.621094,4.015625 Z M 6.5,8 A 0.5,0.5 0 0 0 6.1464844,8.1464844 l -4,3.9999996 a 0.50005,0.50005 0 0 0 0,0.707032 l 4,4 a 0.5,0.5 0 0 0 0.7070312,0 0.5,0.5 0 0 0 0,-0.707032 L 3.2070313,12.5 6.8535156,8.8535156 a 0.5,0.5 0 0 0 0,-0.7070312 A 0.5,0.5 0 0 0 6.5,8 Z m 11.646484,0.1464844 a 0.5,0.5 0 0 0 0,0.7070312 L 21.792969,12.5 18.146484,16.146484 a 0.5,0.5 0 0 0 0,0.707032 0.5,0.5 0 0 0 0.707032,0 l 4,-4 a 0.50005,0.50005 0 0 0 0,-0.707032 l -4,-3.9999996 a 0.5,0.5 0 0 0 -0.707032,0 z"
     id="path1" />
</svg>
