<?xml version="1.0" encoding="UTF-8" standalone="no"?>
<svg
   width="16"
   height="16"
   fill="none"
   viewBox="0 0 16 16"
   version="1.1"
   id="svg2"
   xmlns="http://www.w3.org/2000/svg"
   xmlns:svg="http://www.w3.org/2000/svg">
  <defs
     id="defs2" />
  <path
     style="fill:currentColor;stroke-linecap:round;stroke-linejoin:round"
     d="M 8,5 C 7.041667,5 6.260256,5.3773778 5.7519531,5.9492187 5.2436503,6.5210597 5,7.2638889 5,8 5,8.7361111 5.2436503,9.4789403 5.7519531,10.050781 6.260256,10.622622 7.041667,11 8,11 8.958333,11 9.739744,10.622622 10.248047,10.050781 10.75635,9.4789403 11,8.7361111 11,8 11,7.2638889 10.75635,6.5210597 10.248047,5.9492187 9.739744,5.3773778 8.958333,5 8,5 Z M 8,6 C 8.7083329,6 9.176923,6.2476222 9.5019531,6.6132812 9.8269832,6.9789403 10,7.4861111 10,8 10,8.5138889 9.8269832,9.0210597 9.5019531,9.3867188 9.176923,9.7523778 8.7083329,10 8,10 7.2916671,10 6.823077,9.7523778 6.4980469,9.3867188 6.1730168,9.0210597 6,8.5138889 6,8 6,7.4861111 6.1730168,6.9789403 6.4980469,6.6132812 6.823077,6.2476222 7.2916671,6 8,6 Z"
     id="path1" />
  <path
     style="fill:currentColor;stroke-linecap:round;stroke-linejoin:round"
     d="M 7,0 A 0.50005,0.50005 0 0 0 6.5058594,0.41796875 L 6.1894531,2.328125 C 5.8723294,2.4293165 5.5653656,2.5544231 5.2695312,2.7070313 L 3.6953125,1.5839844 A 0.50005,0.50005 0 0 0 3.0507813,1.6367187 L 1.6367187,3.0507813 A 0.50005,0.50005 0 0 0 1.5839844,3.6953125 L 2.7070313,5.2695312 C 2.5544231,5.5653656 2.4293165,5.8723294 2.328125,6.1894531 L 0.41796875,6.5058594 A 0.50005,0.50005 0 0 0 0,7 V 9 A 0.50005,0.50005 0 0 0 0.41796875,9.4941406 L 2.328125,9.8105469 c 0.1020799,0.3192021 0.2271946,0.6262351 0.3789063,0.9199221 l -1.1230469,1.574219 a 0.50005,0.50005 0 0 0 0.052734,0.644531 l 1.4140626,1.414062 a 0.50005,0.50005 0 0 0 0.6445312,0.05274 l 1.5742187,-1.123047 c 0.2936872,0.151711 0.6007197,0.276826 0.9199219,0.378906 l 0.3164063,1.910156 A 0.50005,0.50005 0 0 0 7,16 h 2 a 0.50005,0.50005 0 0 0 0.4941406,-0.417969 l 0.3164063,-1.910156 c 0.3171241,-0.101191 0.6240871,-0.226298 0.9199221,-0.378906 l 1.574219,1.125 a 0.50005,0.50005 0 0 0 0.644531,-0.05274 l 1.414062,-1.414062 a 0.50005,0.50005 0 0 0 0.05469,-0.644531 l -1.125,-1.576172 c 0.151711,-0.293687 0.276826,-0.60072 0.378906,-0.9199221 L 15.582031,9.4941406 A 0.50005,0.50005 0 0 0 16,9 V 7 A 0.50005,0.50005 0 0 0 15.582031,6.5058594 L 13.671875,6.1894531 C 13.570684,5.8723294 13.445577,5.5653656 13.292969,5.2695312 l 1.125,-1.5742187 A 0.50005,0.50005 0 0 0 14.365234,3.0507813 L 12.949219,1.6367187 A 0.50005,0.50005 0 0 0 12.304688,1.5839844 L 10.730469,2.7070313 C 10.434634,2.5544231 10.127671,2.4293165 9.8105469,2.328125 L 9.4941406,0.41796875 A 0.50005,0.50005 0 0 0 9,0 Z m 0.4238281,1 h 1.1523438 l 0.2929687,1.7597656 a 0.50005,0.50005 0 0 0 0.3710938,0.4023438 c 0.4587137,0.1169972 0.8975336,0.2975413 1.3046876,0.5390625 a 0.50005,0.50005 0 0 0 0.544922,-0.021484 l 1.451172,-1.0371094 0.816406,0.8164063 -1.037109,1.4511718 a 0.50005,0.50005 0 0 0 -0.02149,0.5449219 c 0.241521,0.4071537 0.422065,0.8459738 0.539063,1.3046875 a 0.50005,0.50005 0 0 0 0.402343,0.3710938 L 15,7.4238281 v 1.1523438 l -1.759766,0.2929687 a 0.50005,0.50005 0 0 0 -0.402343,0.3691407 c -0.119235,0.4660181 -0.300248,0.9043777 -0.539063,1.3066407 a 0.50005,0.50005 0 0 0 0.02149,0.544922 l 1.037109,1.453125 -0.816406,0.814453 -1.451172,-1.037109 a 0.50005,0.50005 0 0 0 -0.544922,-0.02149 c -0.407154,0.241521 -0.8459739,0.422065 -1.3046876,0.539063 A 0.50005,0.50005 0 0 0 8.8691406,13.240234 L 8.5761719,15 H 7.4238281 L 7.1308594,13.240234 A 0.50005,0.50005 0 0 0 6.7617187,12.837891 C 6.2957006,12.718656 5.8573407,12.537643 5.4550781,12.298828 a 0.50005,0.50005 0 0 0 -0.5449219,0.02149 L 3.4589844,13.357422 2.6425781,12.541016 3.6796875,11.089844 a 0.50005,0.50005 0 0 0 0.021484,-0.544922 C 3.4623568,10.142659 3.2813445,9.7042994 3.1621094,9.2382813 A 0.50005,0.50005 0 0 0 2.7597656,8.8691406 L 1,8.5761719 V 7.4238281 L 2.7597656,7.1308594 A 0.50005,0.50005 0 0 0 3.1621094,6.7597656 C 3.2791066,6.3010519 3.4596507,5.8622318 3.7011719,5.4550781 A 0.50005,0.50005 0 0 0 3.6796875,4.9101562 L 2.6425781,3.4589844 3.4589844,2.6425781 4.9101562,3.6796875 a 0.50005,0.50005 0 0 0 0.5449219,0.021484 C 5.8622318,3.4596507 6.3010519,3.2791066 6.7597656,3.1621094 A 0.50005,0.50005 0 0 0 7.1308594,2.7597656 Z"
     id="path2" />
</svg>
