<?xml version="1.0" encoding="UTF-8" standalone="no"?>
<svg
   width="24"
   height="24"
   fill="none"
   viewBox="0 0 24 24"
   version="1.1"
   id="svg2"
   xmlns="http://www.w3.org/2000/svg"
   xmlns:svg="http://www.w3.org/2000/svg">
  <defs
     id="defs2" />
  <path
     style="fill:currentColor;stroke-linecap:round;stroke-linejoin:round"
     d="M 10.568359,1 A 0.50005,0.50005 0 0 0 10.072266,1.4316406 L 9.6875,4.2539062 C 9.1564709,4.4131219 8.6454377,4.6261651 8.1582031,4.890625 L 5.890625,3.1640625 A 0.50005,0.50005 0 0 0 5.2324219,3.2089844 L 3.2089844,5.234375 A 0.50005,0.50005 0 0 0 3.1640625,5.8886719 L 4.8886719,8.1601563 C 4.6243932,8.6470804 4.4111254,9.1568343 4.2519531,9.6875 L 1.4316406,10.074219 A 0.50005,0.50005 0 0 0 1,10.568359 v 2.865235 a 0.50005,0.50005 0 0 0 0.4316406,0.49414 l 2.8222656,0.386719 c 0.1592866,0.531032 0.3716761,1.041439 0.6367188,1.529297 l -1.7226562,2.267578 a 0.50005,0.50005 0 0 0 0.044922,0.65625 l 2.0234375,2.023438 a 0.50005,0.50005 0 0 0 0.65625,0.04492 l 2.2675782,-1.722656 c 0.487556,0.264763 0.9978648,0.477371 1.5292968,0.636719 l 0.3828129,2.818359 a 0.50005,0.50005 0 0 0 0.496093,0.433594 h 2.863282 a 0.50005,0.50005 0 0 0 0.496093,-0.433594 L 14.3125,19.746094 c 0.53087,-0.15919 1.042216,-0.372308 1.529297,-0.636719 l 2.269531,1.724609 a 0.50005,0.50005 0 0 0 0.654297,-0.04492 l 2.025391,-2.02539 a 0.50005,0.50005 0 0 0 0.04492,-0.654297 l -1.724609,-2.269531 c 0.264393,-0.487079 0.477517,-0.998442 0.636719,-1.529297 l 2.818359,-0.382813 A 0.50005,0.50005 0 0 0 23,13.433594 v -0.002 -2.863282 A 0.50005,0.50005 0 0 0 22.568359,10.072266 L 19.746094,9.6875 C 19.586656,9.1556239 19.372483,8.6441589 19.107422,8.15625 L 20.832031,5.8886719 A 0.50005,0.50005 0 0 0 20.787109,5.234375 L 18.767578,3.2089844 a 0.50005,0.50005 0 0 0 -0.65625,-0.044922 L 15.841797,4.8886719 C 15.354498,4.6241682 14.843605,4.4092302 14.3125,4.25 L 13.927734,1.4316406 A 0.50005,0.50005 0 0 0 13.431641,1 Z m 0.435547,1 h 1.992188 l 0.363281,2.6640625 a 0.50005,0.50005 0 0 0 0.373047,0.4179687 c 0.679416,0.1706163 1.329886,0.4408593 1.929687,0.8027344 a 0.50005,0.50005 0 0 0 0.560547,-0.029297 l 2.144531,-1.6308593 1.404297,1.40625 -1.628906,2.1464843 a 0.50005,0.50005 0 0 0 -0.03125,0.5605469 c 0.361911,0.5997542 0.634131,1.2502797 0.804688,1.9296874 a 0.50005,0.50005 0 0 0 0.416015,0.373047 L 22,11.003906 v 1.992188 l -2.664063,0.361328 a 0.50005,0.50005 0 0 0 -0.417968,0.373047 c -0.170602,0.679414 -0.440851,1.329897 -0.802735,1.929687 a 0.50005,0.50005 0 0 0 0.0293,0.560547 l 1.63086,2.144531 -1.408204,1.408203 -2.144531,-1.630859 a 0.50005,0.50005 0 0 0 -0.560547,-0.0293 c -0.599766,0.361902 -1.250277,0.632163 -1.929687,0.802735 a 0.50005,0.50005 0 0 0 -0.373047,0.417968 l -0.363281,2.667969 H 11.003906 L 10.642578,19.335937 A 0.50005,0.50005 0 0 0 10.269531,18.919922 C 9.5901175,18.74932 8.9396336,18.477118 8.3398438,18.115234 a 0.50005,0.50005 0 0 0 -0.5605469,0.03125 l -2.1445313,1.628907 -1.40625,-1.40625 1.6289063,-2.144532 a 0.50005,0.50005 0 0 0 0.03125,-0.560546 C 5.5266844,15.065104 5.2550326,14.413894 5.0839844,13.734375 A 0.50005,0.50005 0 0 0 4.6679687,13.361328 L 2,12.996094 V 11.005859 L 4.6640625,10.640625 A 0.50005,0.50005 0 0 0 5.0820312,10.267578 C 5.2526475,9.5881624 5.5228905,8.9376924 5.8847656,8.3378906 A 0.50005,0.50005 0 0 0 5.8554687,7.7773437 L 4.2246094,5.6328125 5.6308594,4.2246094 7.7753906,5.8574219 a 0.50005,0.50005 0 0 0 0.5625,0.03125 C 8.9376924,5.5267968 9.5881624,5.2546006 10.267578,5.0839844 a 0.50005,0.50005 0 0 0 0.373047,-0.4160157 z"
     id="path1" />
  <path
     style="fill:currentColor;stroke-linecap:round;stroke-linejoin:round"
     d="M 12,8.5 C 10.875,8.5 9.9685893,8.9398778 9.3769531,9.6054688 8.785317,10.27106 8.5,11.138889 8.5,12 c 0,0.861111 0.285317,1.72894 0.8769531,2.394531 C 9.9685893,15.060122 10.875,15.5 12,15.5 c 1.125,0 2.031411,-0.439878 2.623047,-1.105469 C 15.214683,13.72894 15.5,12.861111 15.5,12 15.5,11.138889 15.214683,10.27106 14.623047,9.6054688 14.031411,8.9398778 13.125,8.5 12,8.5 Z m 0,1 c 0.875,0 1.46859,0.3101222 1.876953,0.769531 C 14.285317,10.72894 14.5,11.361111 14.5,12 c 0,0.638889 -0.214683,1.27106 -0.623047,1.730469 C 13.46859,14.189878 12.875,14.5 12,14.5 11.125,14.5 10.53141,14.189878 10.123047,13.730469 9.7146835,13.27106 9.5,12.638889 9.5,12 9.5,11.361111 9.7146835,10.72894 10.123047,10.269531 10.53141,9.8101222 11.125,9.5 12,9.5 Z"
     id="path2" />
</svg>
