<?xml version="1.0" encoding="UTF-8" standalone="no"?>
<svg
   width="16"
   height="16"
   fill="none"
   viewBox="0 0 16 16"
   version="1.1"
   id="svg1"
   xmlns="http://www.w3.org/2000/svg"
   xmlns:svg="http://www.w3.org/2000/svg">
  <defs
     id="defs1" />
  <path
     style="fill:currentColor;stroke-linecap:square;stroke-linejoin:round"
     d="M 8,1 C 6.4195561,1 4.9867548,1.2851938 3.9042969,1.7773437 3.3630679,2.0234187 2.9065538,2.3219512 2.5664063,2.6875 2.2262587,3.0530488 2,3.5063285 2,4 V 4.5 7 7.5 10 10.5 13 c 0,0.493814 0.2262367,0.948823 0.5664063,1.314453 0.3401695,0.36563 0.7966457,0.662189 1.3378906,0.908203 C 4.9867867,15.714685 6.4196109,16 8,16 c 1.5803891,0 3.013213,-0.285315 4.095703,-0.777344 0.541245,-0.246014 0.997721,-0.542573 1.337891,-0.908203 C 13.773763,13.948823 14,13.493814 14,13 V 10.5 10 7.5 7 4.5 4 C 14,3.5063285 13.773741,3.0530488 13.433594,2.6875 13.093446,2.3219512 12.636932,2.0234187 12.095703,1.7773437 11.013245,1.2851938 9.5804439,1 8,1 Z m 0,1 c 1.4575561,0 2.773599,0.2746499 3.681641,0.6875 0.454021,0.206425 0.803116,0.4471113 1.019531,0.6796875 C 12.917587,3.5997637 13,3.8036715 13,4 13,4.1963285 12.917587,4.4002363 12.701172,4.6328125 12.484757,4.8653887 12.135662,5.106075 11.681641,5.3125 10.773599,5.7253501 9.4575561,6 8,6 6.5424439,6 5.2264014,5.7253501 4.3183594,5.3125 3.8643383,5.106075 3.515243,4.8653887 3.2988281,4.6328125 3.0824132,4.4002363 3,4.1963285 3,4 3,3.8036715 3.0824132,3.5997637 3.2988281,3.3671875 3.515243,3.1346113 3.8643383,2.893925 4.3183594,2.6875 5.2264014,2.2746499 6.5424439,2 8,2 Z M 3,5.6074219 C 3.2785898,5.8259108 3.5384644,6.056327 3.9042969,6.2226562 4.9867548,6.7148062 6.4195561,7 8,7 9.5804439,7 11.013245,6.7148062 12.095703,6.2226562 12.461536,6.056327 12.72141,5.8259108 13,5.6074219 V 7 C 13,7.1966862 12.917565,7.4002234 12.701172,7.6328125 12.484779,7.8654016 12.135646,8.1061392 11.681641,8.3125 10.77363,8.7252215 9.4576109,9 8,9 6.5423891,9 5.2263695,8.7252215 4.3183594,8.3125 3.8643543,8.1061392 3.5152211,7.8654016 3.2988281,7.6328125 3.0824351,7.4002234 3,7.1966862 3,7 Z M 3,8.609375 C 3.2785493,8.8277898 3.5385726,9.0564221 3.9042969,9.2226563 4.9867867,9.7146847 6.4196109,10 8,10 9.5803891,10 11.013213,9.7146847 12.095703,9.2226563 12.461427,9.0564221 12.721451,8.8277898 13,8.609375 V 10 c 0,0.196686 -0.08244,0.400223 -0.298828,0.632813 -0.216393,0.232589 -0.565526,0.473326 -1.019531,0.679687 C 10.77363,11.725222 9.4576109,12 8,12 6.5423891,12 5.2263695,11.725222 4.3183594,11.3125 3.8643543,11.106139 3.5152211,10.865402 3.2988281,10.632813 3.0824351,10.400223 3,10.196686 3,10 Z m 0,3 C 3.2785493,11.82779 3.5385726,12.056422 3.9042969,12.222656 4.9867867,12.714685 6.4196109,13 8,13 9.5803891,13 11.013213,12.714685 12.095703,12.222656 12.461427,12.056422 12.721451,11.82779 13,11.609375 V 13 c 0,0.196686 -0.08244,0.400223 -0.298828,0.632813 -0.216393,0.232589 -0.565526,0.473326 -1.019531,0.679687 C 10.77363,14.725222 9.4576109,15 8,15 6.5423891,15 5.2263695,14.725222 4.3183594,14.3125 3.8643543,14.106139 3.5152211,13.865402 3.2988281,13.632813 3.0824351,13.400223 3,13.196686 3,13 Z"
     id="path1" />
</svg>
