<?xml version="1.0" encoding="UTF-8" standalone="no"?>
<svg
   width="24"
   height="24"
   fill="none"
   viewBox="0 0 24 24"
   version="1.1"
   id="svg1"
   xmlns="http://www.w3.org/2000/svg"
   xmlns:svg="http://www.w3.org/2000/svg">
  <defs
     id="defs1" />
  <path
     style="fill:currentColor;stroke-miterlimit:10"
     d="M 7.5,1 C 5.7754583,1 4.2099542,1.3432651 3.0332031,1.9316406 1.8564521,2.5200162 1,3.401333 1,4.5 v 4 4 4 c 0,1.098667 0.8564521,1.979984 2.0332031,2.568359 C 4.2099542,19.656735 5.7754583,20 7.5,20 c 0.8650304,0.0052 1.7177868,-0.15426 2.560547,-0.34375 0.08438,1.018647 0.85811,1.854836 1.972656,2.412109 C 13.209954,22.656735 14.775458,23 16.5,23 18.224542,23 19.790046,22.656735 20.966797,22.068359 22.143548,21.479984 23,20.598667 23,19.5 v -4 -4 C 23,10.401333 22.143548,9.5200162 20.966797,8.9316406 19.790046,8.3432651 18.224542,8 16.5,8 15.611854,8 14.772292,8.0970035 14,8.265625 V 4.5 C 14,3.401333 13.143548,2.5200162 11.966797,1.9316406 10.790046,1.3432651 9.2245417,1 7.5,1 Z m 0,1 C 9.0894583,2 10.524782,2.3287974 11.519531,2.8261719 12.51428,3.3235463 13,3.941667 13,4.5 13,5.058333 12.51428,5.6764537 11.519531,6.1738281 10.524782,6.6712026 9.0894583,7 7.5,7 5.9105417,7 4.4752177,6.6712026 3.4804688,6.1738281 2.4857198,5.6764537 2,5.058333 2,4.5 2,3.941667 2.4857198,3.3235463 3.4804688,2.8261719 4.4752177,2.3287974 5.9105417,2 7.5,2 Z M 2,6.2949219 C 2.3128036,6.5737308 2.6161267,6.8598212 3.0332031,7.0683594 4.2099542,7.6567349 5.7754583,8 7.5,8 9.2245417,8 10.790046,7.6567349 11.966797,7.0683594 12.383873,6.8598212 12.687196,6.5737308 13,6.2949219 V 8.6035156 C 12.678334,8.7145932 12.313811,8.7913368 12.033203,8.9316406 11.206519,9.3449828 10.666569,9.9447439 10.341797,10.621094 9.5138088,10.85855 8.5413484,11 7.5,11 5.9105417,11 4.4752177,10.671203 3.4804688,10.173828 2.4857198,9.6764537 2,9.058333 2,8.5 Z M 16.5,9 c 1.589458,0 3.024782,0.3287974 4.019531,0.8261719 C 21.51428,10.323546 22,10.941667 22,11.5 22,12.058333 21.51428,12.676454 20.519531,13.173828 19.524782,13.671203 18.089458,14 16.5,14 14.910542,14 13.475218,13.671203 12.480469,13.173828 11.48572,12.676454 11,12.058333 11,11.5 11,10.941667 11.48572,10.323546 12.480469,9.8261719 13.475218,9.3287974 14.910542,9 16.5,9 Z M 2,10.294922 c 0.3128036,0.278809 0.6161267,0.564899 1.0332031,0.773437 C 4.2099542,11.656735 5.7754583,12 7.5,12 8.4060333,12 9.2153316,11.841243 10,11.666016 v 3 C 9.2407435,14.853828 8.4157832,15 7.5,15 5.9105417,15 4.4752177,14.671203 3.4804688,14.173828 2.4857198,13.676454 2,13.058333 2,12.5 Z m 9,3 c 0.312804,0.278809 0.616127,0.564899 1.033203,0.773437 C 13.209954,14.656735 14.775458,15 16.5,15 18.224542,15 19.790046,14.656735 20.966797,14.068359 21.383873,13.859821 21.687196,13.573731 22,13.294922 V 15.5 c 0,0.558333 -0.48572,1.176454 -1.480469,1.673828 C 19.524782,17.671203 18.089458,18 16.5,18 14.910542,18 13.475218,17.671203 12.480469,17.173828 11.48572,16.676454 11,16.058333 11,15.5 Z m -9,1 c 0.3128036,0.278809 0.6161267,0.564899 1.0332031,0.773437 C 4.2099542,15.656735 5.7754583,16 7.5,16 8.4062951,16 9.2153227,15.839499 10,15.664063 v 3.001953 C 9.180563,18.863571 8.347719,19.005409 7.5039062,19 H 7.5019531 7.5 C 5.9105417,19 4.4752177,18.671203 3.4804688,18.173828 2.4857198,17.676454 2,17.058333 2,16.5 Z m 9,3 c 0.312804,0.278809 0.616127,0.564899 1.033203,0.773437 C 13.209954,18.656735 14.775458,19 16.5,19 18.224542,19 19.790046,18.656735 20.966797,18.068359 21.383873,17.859821 21.687196,17.573731 22,17.294922 V 19.5 c 0,0.558333 -0.48572,1.176454 -1.480469,1.673828 C 19.524782,21.671203 18.089458,22 16.5,22 14.910542,22 13.475218,21.671203 12.480469,21.173828 11.48572,20.676454 11,20.058333 11,19.5 Z"
     id="path1" />
</svg>
