<?xml version="1.0" encoding="UTF-8" standalone="no"?>
<svg
   width="16"
   height="16"
   fill="none"
   viewBox="0 0 16 16"
   version="1.1"
   id="svg1"
   xmlns="http://www.w3.org/2000/svg"
   xmlns:svg="http://www.w3.org/2000/svg">
  <defs
     id="defs1" />
  <path
     style="fill:currentColor;stroke-linecap:round;stroke-linejoin:round"
     d="M 8,0 C 3.6238136,0 0,3.098208 0,7 c 0,3.901792 3.6238136,7 8,7 0.4885464,0 0.9617,-0.05347 1.4257813,-0.126953 l 3.8378907,2.066406 A 0.50005,0.50005 0 0 0 14,15.5 V 11.556641 C 15.21085,10.337004 16,8.7599598 16,7 16,3.098208 12.376186,0 8,0 Z m 0,1 c 3.907814,0 7,2.721792 7,6 0,1.554939 -0.691014,2.9675737 -1.841797,4.044922 A 0.50005,0.50005 0 0 0 13,11.408203 v 3.25586 L 9.7695313,12.921875 A 0.50005,0.50005 0 0 0 9.4433594,12.871094 C 8.9766445,12.955008 8.4945238,13 8,13 4.0921864,13 1,10.278208 1,7 1,3.721792 4.0921864,1 8,1 Z M 4.5,5 A 0.5,0.5 0 0 0 4,5.5 0.5,0.5 0 0 0 4.5,6 h 7 A 0.5,0.5 0 0 0 12,5.5 0.5,0.5 0 0 0 11.5,5 Z m 0,3 A 0.5,0.5 0 0 0 4,8.5 0.5,0.5 0 0 0 4.5,9 h 7 A 0.5,0.5 0 0 0 12,8.5 0.5,0.5 0 0 0 11.5,8 Z"
     id="path1" />
</svg>
