<?xml version="1.0" encoding="UTF-8" standalone="no"?>
<svg
   width="24"
   height="24"
   fill="none"
   viewBox="0 0 24 24"
   version="1.1"
   id="svg1"
   xmlns="http://www.w3.org/2000/svg"
   xmlns:svg="http://www.w3.org/2000/svg">
  <defs
     id="defs1" />
  <path
     style="fill:currentColor;stroke-linecap:square"
     d="M 14.851563,1.1542969 C 14.107449,1.3732373 13.428691,1.8637183 12.880859,2.5625 12.124978,2.2256142 11.32536,2 10.5,2 9.1388889,2 7.7710597,2.4519838 6.7304687,3.3769531 5.6898778,4.3019225 5,5.708334 5,7.5 v 2 c 0,1.474354 0.6003721,2.802226 1.5488281,3.791016 L 2.5546875,15.685547 C 1.5913769,16.262585 1,17.305767 1,18.429687 V 23 H 20 V 18.429687 C 19.999887,17.457673 19.495209,16.602321 18.751953,16 H 23 V 11.560547 C 23,10.700851 22.54897,9.9010338 21.810547,9.4589844 L 19.382812,8.0039063 C 19.740147,7.4054836 20,6.7452268 20,6 V 5 C 20.002588,3.0894806 18.755291,1.6848595 17.238281,1.1914062 16.479776,0.9446796 15.640457,0.92218065 14.851563,1.1542969 Z m 0.292968,0.9433594 C 15.730649,1.928114 16.351556,1.9551587 16.927734,2.1425781 18.080091,2.5174171 19.002009,3.5163238 19,5 v 1 c 0,1.6627766 -1.337223,3 -3,3 V 7.5 C 16,5.708334 15.310122,4.3019225 14.269531,3.3769531 14.123881,3.2474859 13.932953,3.1988604 13.775391,3.0878906 14.179554,2.6169975 14.63407,2.2453139 15.144531,2.0976563 Z M 10.5,3 c 1.138889,0 2.27106,0.3813503 3.105469,1.1230469 C 14.439878,4.8647435 15,5.9583341 15,7.5 v 2 C 15,11.991204 12.991204,14 10.5,14 8.0087963,14 6,11.991204 6,9.5 v -2 C 6,5.9583341 6.5601222,4.8647435 7.3945312,4.1230469 8.2289403,3.3813503 9.3611111,3 10.5,3 Z m 8.318359,5.8320313 0.04687,0.027344 2.431641,1.457031 C 21.734452,10.578357 22,11.050243 22,11.560547 V 15 H 17.605469 17.300781 L 14.451172,13.291016 C 15.285631,12.421071 15.777756,11.266188 15.898438,10 H 16 c 1.098108,0 2.094321,-0.44742 2.818359,-1.1679687 z M 7.4238281,13.933594 C 8.3141032,14.553927 9.3355853,15 10.5,15 c 1.164415,0 2.185897,-0.446073 3.076172,-1.066406 l 0.236328,0.140625 4.119141,2.46875 C 18.594913,16.940878 18.99991,17.656214 19,18.429687 V 22 H 2 V 18.429687 C 2,17.655608 2.40567,16.93993 3.0683594,16.542969 L 7.1875,14.074219 Z"
     id="path1" />
</svg>
