<?xml version="1.0" encoding="UTF-8" standalone="no"?>
<svg
   width="24"
   height="24"
   fill="none"
   viewBox="0 0 24 24"
   version="1.1"
   id="svg1"
   xmlns="http://www.w3.org/2000/svg"
   xmlns:svg="http://www.w3.org/2000/svg">
  <defs
     id="defs1" />
  <path
     style="fill:currentColor;stroke-linecap:round;stroke-linejoin:round"
     d="M 12.5,2 C 6.1814208,2 1,6.1733333 1,11.5 1,16.826667 6.1814208,21 12.5,21 c 1.052711,0 2.035707,-0.123691 3.021484,-0.392578 l 5.791016,2.355469 a 0.50005,0.50005 0 0 0 0.683594,-0.519532 L 21.417969,17.423828 C 22.97535,15.783297 24,13.755401 24,11.5 24,6.1733333 18.818579,2 12.5,2 Z m 0,1 c 5.881421,0 10.5,3.8266667 10.5,8.5 0,2.048485 -0.926782,3.920923 -2.453125,5.447266 a 0.50005,0.50005 0 0 0 -0.144531,0.410156 l 0.503906,4.361328 -5.117187,-2.082031 a 0.50005,0.50005 0 0 0 -0.332032,-0.01563 C 14.515614,19.903519 13.569697,20 12.5,20 6.6185792,20 2,16.173333 2,11.5 2,6.8266667 6.6185792,3 12.5,3 Z m -4,6 A 0.5,0.5 0 0 0 8,9.5 0.5,0.5 0 0 0 8.5,10 h 8 A 0.5,0.5 0 0 0 17,9.5 0.5,0.5 0 0 0 16.5,9 Z m 0,4 A 0.5,0.5 0 0 0 8,13.5 0.5,0.5 0 0 0 8.5,14 h 5 A 0.5,0.5 0 0 0 14,13.5 0.5,0.5 0 0 0 13.5,13 Z"
     id="path1" />
</svg>
