<?xml version="1.0" encoding="UTF-8" standalone="no"?>
<svg
   width="16"
   height="16"
   fill="none"
   viewBox="0 0 16 16"
   version="1.1"
   id="svg1"
   xmlns="http://www.w3.org/2000/svg"
   xmlns:svg="http://www.w3.org/2000/svg">
  <defs
     id="defs1" />
  <path
     style="fill:currentColor;stroke-linecap:square"
     d="M 5.5,1 C 4.6388889,1 3.7710597,1.285317 3.1054688,1.8769531 2.4398778,2.4685893 2,3.3750004 2,4.5 2,5.6249996 2.4398778,6.5314107 3.1054688,7.1230469 3.7710597,7.714683 4.6388889,8 5.5,8 6.3611111,8 7.2289403,7.714683 7.8945312,7.1230469 8.5601222,6.5314107 9,5.6249996 9,4.5 9,3.3750004 8.5601222,2.4685893 7.8945312,1.8769531 7.2289403,1.285317 6.3611111,1 5.5,1 Z m 0,1 C 6.1388889,2 6.7710597,2.2146835 7.2304687,2.6230469 7.6898778,3.0314103 8,3.6250005 8,4.5 8,5.3749995 7.6898778,5.9685897 7.2304687,6.3769531 6.7710597,6.7853165 6.1388889,7 5.5,7 4.8611111,7 4.2289403,6.7853165 3.7695313,6.3769531 3.3101222,5.9685897 3,5.3749995 3,4.5 3,3.6250005 3.3101222,3.0314103 3.7695313,2.6230469 4.2289403,2.2146835 4.8611111,2 5.5,2 Z m 7,0 C 11.888889,2 11.27106,2.2019836 10.792969,2.6269531 10.314878,3.0519227 10,3.7083336 10,4.5 10,5.2916664 10.314878,5.9480773 10.792969,6.3730469 11.27106,6.7980164 11.888889,7 12.5,7 13.111111,7 13.72894,6.7980164 14.207031,6.3730469 14.685122,5.9480773 15,5.2916664 15,4.5 15,3.7083336 14.685122,3.0519227 14.207031,2.6269531 13.72894,2.2019836 13.111111,2 12.5,2 Z m 0,1 c 0.388889,0 0.77106,0.1313501 1.042969,0.3730469 C 13.814878,3.6147437 14,3.9583337 14,4.5 14,5.0416663 13.814878,5.3852563 13.542969,5.6269531 13.27106,5.8686499 12.888889,6 12.5,6 12.111111,6 11.72894,5.8686499 11.457031,5.6269531 11.185122,5.3852563 11,5.0416663 11,4.5 11,3.9583337 11.185122,3.6147437 11.457031,3.3730469 11.72894,3.1313501 12.111111,3 12.5,3 Z m 0,5 c -0.689057,-0.00113 -1.361871,0.2022813 -1.935547,0.5839844 l -0.416015,0.2773437 0.552734,0.8320313 0.416016,-0.2773438 C 11.526363,9.1437652 12.008529,8.9991922 12.5,9 13.52248,9 14.064327,9.4005462 14.449219,10.041016 14.755871,10.551292 14.83331,11.286704 14.888672,12 H 12.5 12 v 1 H 12.5 16 V 12.5 C 16,11.486173 15.836249,10.406671 15.306641,9.5253906 14.777033,8.6441101 13.81952,8 12.5,8 Z m -7,1 C 2.4982633,9 0,11.498263 0,14.5 V 15 H 11 V 14.5 C 11,11.498263 8.5017367,9 5.5,9 Z m 0,1 c 2.2681063,0 4.1295628,1.791895 4.3964844,4 H 1.1035156 C 1.3704372,11.791895 3.2318937,10 5.5,10 Z"
     id="path1" />
</svg>
