<?xml version="1.0" encoding="UTF-8" standalone="no"?>
<svg
   width="16"
   height="16"
   fill="none"
   viewBox="0 0 16 16"
   version="1.1"
   id="svg2"
   xmlns="http://www.w3.org/2000/svg"
   xmlns:svg="http://www.w3.org/2000/svg">
  <defs
     id="defs2" />
  <path
     style="fill:currentColor;stroke-linecap:round;stroke-linejoin:round"
     d="M 1.5,0 C 0.67749519,0 0,0.67749519 0,1.5 v 10 C 0,12.322505 0.67749519,13 1.5,13 h 3.765625 l 2.3496094,2.820313 a 0.50005,0.50005 0 0 0 0.7695312,0 L 10.734375,13 H 14.5 C 15.322505,13 16,12.322505 16,11.5 V 1.5 C 16,0.67749519 15.322505,0 14.5,0 Z m 0,1 h 13 C 14.782065,1 15,1.2179353 15,1.5 v 10 c 0,0.282065 -0.217935,0.5 -0.5,0.5 h -4 a 0.50005,0.50005 0 0 0 -0.384766,0.179688 L 8,14.71875 5.8847656,12.179688 A 0.50005,0.50005 0 0 0 5.5,12 h -4 C 1.2179353,12 1,11.782065 1,11.5 V 1.5 C 1,1.2179353 1.2179353,1 1.5,1 Z"
     id="path1" />
  <path
     style="fill:currentColor;stroke-linecap:round;stroke-linejoin:round"
     d="M 8,2 C 7.3750002,2 6.8435894,2.2523778 6.5019531,2.6367188 6.1603169,3.0210597 6,3.5138889 6,4 6,4.4861111 6.1603169,4.9789403 6.5019531,5.3632812 6.8435894,5.7476222 7.3750002,6 8,6 8.6249998,6 9.1564106,5.7476222 9.4980469,5.3632812 9.8396831,4.9789403 10,4.4861111 10,4 10,3.5138889 9.8396831,3.0210597 9.4980469,2.6367188 9.1564106,2.2523778 8.6249998,2 8,2 Z M 8,3 C 8.3749997,3 8.5935896,3.1226222 8.7519531,3.3007813 8.9103167,3.4789403 9,3.7361111 9,4 9,4.2638889 8.9103167,4.5210597 8.7519531,4.6992187 8.5935896,4.8773778 8.3749997,5 8,5 7.6250003,5 7.4064104,4.8773778 7.2480469,4.6992187 7.0896833,4.5210597 7,4.2638889 7,4 7,3.7361111 7.0896833,3.4789403 7.2480469,3.3007813 7.4064104,3.1226222 7.6250003,3 8,3 Z M 7.5,7 C 5.5729257,7 4,8.5729257 4,10.5 A 0.50005,0.50005 0 0 0 4.5,11 h 7 A 0.50005,0.50005 0 0 0 12,10.5 C 12,8.5729257 10.427074,7 8.5,7 Z m 0,1 h 1 c 1.190643,0 2.037132,0.8900987 2.292969,2 H 5.2070312 C 5.4628679,8.8900987 6.309357,8 7.5,8 Z"
     id="path2" />
</svg>
