<?xml version="1.0" encoding="UTF-8" standalone="no"?>
<svg
   width="24"
   height="24"
   fill="none"
   viewBox="0 0 24 24"
   version="1.1"
   id="svg3"
   xmlns="http://www.w3.org/2000/svg"
   xmlns:svg="http://www.w3.org/2000/svg">
  <defs
     id="defs3" />
  <path
     style="fill:currentColor;stroke-linecap:round;stroke-linejoin:round"
     d="M 1.5,1 A 0.50005,0.50005 0 0 0 1,1.5 v 17 A 0.50005,0.50005 0 0 0 1.5,19 h 7.4335938 l 3.1816402,3.820312 a 0.50005,0.50005 0 0 0 0.769532,0 L 16.066406,19 H 23.5 A 0.50005,0.50005 0 0 0 24,18.5 V 1.5 A 0.50005,0.50005 0 0 0 23.5,1 Z M 2,2 h 21 v 16 h -7.167969 a 0.50005,0.50005 0 0 0 -0.382812,0.179687 L 12.5,21.71875 9.5507813,18.179687 A 0.50005,0.50005 0 0 0 9.1679688,18 H 2 Z"
     id="path1" />
  <path
     style="fill:currentColor;stroke-linecap:round;stroke-linejoin:round"
     d="m 11.578125,9.7421875 a 0.5,0.5 0 0 0 -0.371094,0.095703 L 9,11.5 c -0.629291,0.471968 -1,1.213386 -1,2 v 1 A 0.50005,0.50005 0 0 0 8.5,15 h 8 A 0.50005,0.50005 0 0 0 17,14.5 v -1 c 0,-0.786614 -0.370709,-1.528032 -1,-2 L 13.792969,9.8378906 a 0.5,0.5 0 0 0 -0.701172,0.097656 0.5,0.5 0 0 0 0.09961,0.7011721 l 2.207032,1.662109 a 0.50005,0.50005 0 0 0 0.002,0.002 C 15.7791,12.584813 16,13.026614 16,13.5 V 14 H 9 v -0.5 c 0,-0.473386 0.2209004,-0.915187 0.5996094,-1.199219 a 0.50005,0.50005 0 0 0 0.00195,-0.002 l 2.2070315,-1.662109 a 0.5,0.5 0 0 0 0.09961,-0.7011721 0.5,0.5 0 0 0 -0.330078,-0.1933594 z"
     id="path2" />
  <path
     style="fill:currentColor;stroke-linecap:round;stroke-linejoin:round"
     d="M 12.5,5 C 11.888889,5 11.27106,5.2019836 10.792969,5.6269531 10.314878,6.0519227 10,6.7083336 10,7.5 v 1 C 10,9.8747896 11.12521,11 12.5,11 13.87479,11 15,9.8747896 15,8.5 v -1 C 15,6.7083336 14.685122,6.0519227 14.207031,5.6269531 13.72894,5.2019836 13.111111,5 12.5,5 Z m 0,1 c 0.388889,0 0.77106,0.1313501 1.042969,0.3730469 C 13.814878,6.6147437 14,6.9583337 14,7.5 v 1 C 14,9.3343494 13.334349,10 12.5,10 11.665651,10 11,9.3343494 11,8.5 v -1 C 11,6.9583337 11.185122,6.6147437 11.457031,6.3730469 11.72894,6.1313501 12.111111,6 12.5,6 Z"
     id="path3" />
</svg>
