<?xml version="1.0" encoding="UTF-8" standalone="no"?>
<svg
   width="24"
   height="24"
   fill="none"
   viewBox="0 0 24 24"
   version="1.1"
   id="svg1"
   xmlns="http://www.w3.org/2000/svg"
   xmlns:svg="http://www.w3.org/2000/svg">
  <defs
     id="defs1" />
  <path
     style="fill:currentColor;stroke-linecap:square;stroke-miterlimit:10"
     d="M 12,1.0234375 C 5.9429409,1.0234375 1.0234375,5.9429409 1.0234375,12 1.0234375,18.057059 5.9429409,22.976562 12,22.976562 18.057059,22.976562 22.976562,18.057059 22.976562,12 22.976562,5.9429409 18.057059,1.0234375 12,1.0234375 Z m 0,0.953125 C 17.540941,1.9765625 22.023437,6.4590591 22.023437,12 22.023437,17.540941 17.540941,22.023437 12,22.023437 6.4590591,22.023437 1.9765625,17.540941 1.9765625,12 1.9765625,6.4590591 6.4590591,1.9765625 12,1.9765625 Z m 0.404297,3.8183594 C 10.244956,5.7960564 8.7650732,6.627749 7.8964844,7.8359375 7.0273015,9.0449524 6.75,10.572763 6.75,12 c 0,1.427178 0.2774165,2.955015 1.1464844,4.164062 0.8684738,1.208222 2.3480006,2.039882 4.5078126,2.041016 0.924233,0.01679 1.838946,-0.186963 2.669922,-0.59375 l 0.427734,-0.208984 -0.419922,-0.857422 -0.427734,0.208984 C 13.958431,17.094553 13.192421,17.264578 12.417969,17.25 h -0.0039 -0.0059 c -1.92878,0 -3.0371459,-0.669876 -3.736328,-1.642578 C 7.9726929,14.634719 7.7050781,13.299822 7.7050781,12 c 0,-1.299763 0.2674798,-2.6346868 0.9667969,-3.6074219 C 9.3711921,7.419843 10.479951,6.75 12.408203,6.75 h 0.0059 0.0039 c 0.774162,-0.014589 1.540795,0.1558374 2.236328,0.4960937 l 0.429687,0.2089844 0.417969,-0.8574219 -0.427734,-0.2089843 c -0.830473,-0.4062695 -1.74559,-0.610556 -2.669922,-0.59375 z"
     id="path1" />
</svg>
