<?xml version="1.0" encoding="UTF-8" standalone="no"?>
<svg
   width="16"
   height="16"
   fill="none"
   viewBox="0 0 16 16"
   version="1.1"
   id="svg1"
   xmlns="http://www.w3.org/2000/svg"
   xmlns:svg="http://www.w3.org/2000/svg">
  <defs
     id="defs1" />
  <path
     style="fill:currentColor;stroke-linecap:round;stroke-linejoin:round"
     d="M 8,0 C 3.5876449,0 0,3.5876417 0,8 c 0,4.412358 3.5876449,8 8,8 4.412355,0 8,-3.587642 8,-8 C 16,3.5876417 12.412355,0 8,0 Z m 0,1 c 3.871916,0 7,3.1280815 7,7 0,3.871919 -3.128084,7 -7,7 C 4.128084,15 1,11.871919 1,8 1,4.1280815 4.128084,1 8,1 Z M 8.5644531,3.0019531 C 6.8389841,3.0037832 5.627807,3.6747548 4.9238281,4.6542969 4.2188901,5.6351735 4,6.8618489 4,8 c 0,1.1381511 0.2188901,2.364826 0.9238281,3.345703 0.7039789,0.979542 1.915156,1.650514 3.640625,1.652344 0.7459226,0.01358 1.4863289,-0.148155 2.1562499,-0.476563 a 0.5,0.5 0 0 0 0.228516,-0.669921 0.5,0.5 0 0 0 -0.669922,-0.228516 C 9.7508754,11.882089 9.1684705,12.011247 8.5800781,12 a 0.50005,0.50005 0 0 0 -0.00977,0 C 7.0855382,12 6.2633901,11.495092 5.7363281,10.761719 5.2092662,10.028345 5,9.0048489 5,8 5,6.9951511 5.2092662,5.9716546 5.7363281,5.2382812 6.2633901,4.5049079 7.0855382,4 8.5703125,4 a 0.50005,0.50005 0 0 0 0.00977,0 C 9.1684705,3.9887526 9.7508754,4.1179109 10.279297,4.3769531 A 0.5,0.5 0 0 0 10.949219,4.1484375 0.5,0.5 0 0 0 10.720703,3.4785156 C 10.050782,3.1501076 9.3103757,2.9883761 8.5644531,3.0019531 Z"
     id="path1" />
</svg>
