<?xml version="1.0" encoding="UTF-8" standalone="no"?>
<svg
   width="24"
   height="24"
   fill="none"
   viewBox="0 0 24 24"
   version="1.1"
   id="svg2"
   xmlns="http://www.w3.org/2000/svg"
   xmlns:svg="http://www.w3.org/2000/svg">
  <defs
     id="defs2" />
  <path
     style="fill:currentColor;stroke-linecap:round;stroke-linejoin:round"
     d="M 7.5,1 A 0.50005,0.50005 0 0 0 7,1.5 v 5 A 0.5,0.5 0 0 0 7.5,7 0.5,0.5 0 0 0 8,6.5 V 2 H 22 V 19 H 16.5 A 0.5,0.5 0 0 0 16,19.5 0.5,0.5 0 0 0 16.5,20 h 6 A 0.50005,0.50005 0 0 0 23,19.5 V 1.5 A 0.50005,0.50005 0 0 0 22.5,1 Z"
     id="path1" />
  <path
     style="fill:currentColor;stroke-linecap:round;stroke-linejoin:round"
     d="M 2.5,10 A 0.50005,0.50005 0 0 0 2,10.5 v 13 A 0.50005,0.50005 0 0 0 2.5,24 h 10 A 0.50005,0.50005 0 0 0 13,23.5 v -13 A 0.50005,0.50005 0 0 0 12.5,10 Z M 3,11 h 9 V 23 H 3 Z"
     id="path2" />
</svg>
