<?xml version="1.0" encoding="UTF-8" standalone="no"?>
<svg
   width="16"
   height="16"
   fill="none"
   viewBox="0 0 16 16"
   version="1.1"
   id="svg1"
   xmlns="http://www.w3.org/2000/svg"
   xmlns:svg="http://www.w3.org/2000/svg">
  <defs
     id="defs1" />
  <path
     style="fill:currentColor;stroke-linecap:round;stroke-linejoin:round"
     d="M 4.5,0 A 0.50005,0.50005 0 0 0 4,0.5 v 2 A 0.5,0.5 0 0 0 4.5,3 0.5,0.5 0 0 0 5,2.5 V 1 H 15 V 13 H 11.5 A 0.5,0.5 0 0 0 11,13.5 0.5,0.5 0 0 0 11.5,14 h 4 A 0.50005,0.50005 0 0 0 16,13.5 V 0.5 A 0.50005,0.50005 0 0 0 15.5,0 Z m -4,5 A 0.50005,0.50005 0 0 0 0,5.5 v 10 A 0.50005,0.50005 0 0 0 0.5,16 h 8 A 0.50005,0.50005 0 0 0 9,15.5 V 5.5 A 0.50005,0.50005 0 0 0 8.5,5 Z M 1,6 h 7 v 9 H 1 Z"
     id="path1" />
</svg>
