<?xml version="1.0" encoding="UTF-8" standalone="no"?>
<svg
   width="16"
   height="16"
   fill="none"
   viewBox="0 0 16 16"
   version="1.1"
   id="svg1"
   xmlns="http://www.w3.org/2000/svg"
   xmlns:svg="http://www.w3.org/2000/svg">
  <defs
     id="defs1" />
  <path
     fill="currentColor"
     d="m14.5 10.5.354.354.353-.354-.353-.354-.354.354Zm-13-3H1h.5Zm.5-5V2H1v.5h1Zm8.146 11.646-.353.354.707.707.354-.353-.708-.708Zm.708-8-.354-.353-.707.707.353.354.708-.708ZM14.5 10h-10v1h10v-1Zm-10 0a2.5 2.5 0 0 1-1.768-.732l-.707.707A3.5 3.5 0 0 0 4.5 11v-1Zm-1.768-.732A2.5 2.5 0 0 1 2 7.5H1a3.5 3.5 0 0 0 1.025 2.475l.707-.707ZM2 7.5v-5H1v5h1Zm8.854 7.354 4-4-.708-.708-4 4 .708.708Zm4-4.708-4-4-.708.708 4 4 .708-.708Z"
     id="path1" />
</svg>
