<?xml version="1.0" encoding="UTF-8" standalone="no"?>
<svg
   width="16"
   height="16"
   fill="none"
   viewBox="0 0 16 16"
   version="1.1"
   id="svg1"
   xmlns="http://www.w3.org/2000/svg"
   xmlns:svg="http://www.w3.org/2000/svg">
  <defs
     id="defs1" />
  <path
     style="fill:currentColor;stroke-linecap:round;stroke-linejoin:round"
     d="m 2.5,2 a 0.5,0.5 0 0 0 -0.3535156,0.1464844 0.5,0.5 0 0 0 0,0.7070312 L 7.2929687,8 2.1464844,13.146484 a 0.5,0.5 0 0 0 0,0.707032 0.5,0.5 0 0 0 0.7070312,0 L 8,8.7070313 13.146484,13.853516 a 0.5,0.5 0 0 0 0.707032,0 0.5,0.5 0 0 0 0,-0.707032 L 8.7070313,8 13.853516,2.8535156 a 0.5,0.5 0 0 0 0,-0.7070312 0.5,0.5 0 0 0 -0.707032,0 L 8,7.2929687 2.8535156,2.1464844 A 0.5,0.5 0 0 0 2.5,2 Z"
     id="path1" />
</svg>
